<?xml version="1.0" encoding="UTF-8"?>
<svg id="Layer_2" data-name="Layer 2" xmlns="http://www.w3.org/2000/svg" viewBox="0 0 100 83.74">
  <defs>
    <style>
      .cls-1 {
        fill: #4b4b4b;
        stroke-width: 0px;
      }
    </style>
  </defs>
  <g id="Layer_1-2" data-name="Layer 1">
    <g>
      <g>
        <path class="cls-1" d="M62.39,26.47l-7.96-1.03c-.5-1.72-1.19-3.4-2.1-5.01l4.93-6.39c.46-.61.42-1.45-.11-1.99l-5.55-5.55c-.54-.54-1.42-.57-1.99-.11l-6.39,4.93c-1.61-.88-3.29-1.61-5.01-2.1-.34-3.37-.5-7.27-.5-7.77h0v-.27h0v-.11l-.04-.19h-.04v-.08h0l-.08-.19h-.04v-.08h0l-.11-.19h-.08l-.04-.04h0l-.11-.15-.04.04h0l-.04-.04h-.04l-.15-.11v.04h-.08l-.19-.08v.04h-.11l-.19-.04v.04h-9.3s-.08,0-.11.04h-.04s-.04,0-.08.04h-.11l-.15.04v.04h0l-.04.04h0l-.15.11v.04h0l-.04.04h0l-.04.04-.15.11v.15l-.11.15h.04v.04h0l-.08.19h.04v.11l-.04.19h.04v.27h0c-.04.88-.15,4.51-.5,7.61-1.72.5-3.4,1.19-5.01,2.1l-6.39-4.93c-.57-.46-1.45-.38-1.99.11l-5.59,5.59c-.54.54-.57,1.38-.11,1.99l4.93,6.39c-.88,1.61-1.61,3.29-2.1,5.01l-7.96,1.03c-.77.11-1.3.73-1.3,1.49v7.88c0,.77.57,1.42,1.3,1.49l7.96,1.03c.5,1.72,1.19,3.4,2.1,5.01l-4.93,6.39c-.46.61-.42,1.45.11,1.99l5.55,5.55c.54.54,1.42.57,1.99.11l6.39-4.93c1.61.88,3.29,1.61,5.01,2.1l1.03,7.96c.11.77.73,1.3,1.49,1.3h7.88c.77,0,1.42-.57,1.49-1.3l1.03-7.96c1.72-.5,3.44-1.19,5.01-2.1l6.39,4.93c.57.46,1.45.38,1.99-.11l5.55-5.55c.54-.54.57-1.38.11-1.99l-4.93-6.39c.88-1.61,1.61-3.29,2.1-5.01l7.96-1.03c.77-.11,1.3-.73,1.3-1.49v-7.88c-.15-.88-.73-1.53-1.49-1.61ZM28.12,10.56c.11-.99.23-2.22.34-3.6h.04l.04-.5c.08-1.07.15-2.45.19-3.56h6.01c.04,1.11.08,2.52.19,3.56l.04.15c.11,1.49.23,2.83.38,3.9.08.61.54,1.15,1.15,1.26,2.1.5,4.17,1.34,6.04,2.52.54.31,1.22.27,1.72-.08l6.12-4.74,3.71,3.71-4.74,6.12c-.38.5-.42,1.19-.08,1.72,1.19,1.91,2.03,3.94,2.52,6.04.15.61.65,1.07,1.26,1.15l7.65.99v5.2l-7.69.99c-.61.08-1.15.54-1.26,1.15-.5,2.1-1.34,4.17-2.52,6.04-.34.54-.31,1.22.08,1.72l4.74,6.12-3.71,3.67-6.12-4.74c-.5-.38-1.19-.42-1.72-.08-1.91,1.19-3.94,2.03-6.04,2.52-.61.15-1.07.65-1.15,1.26l-.99,7.65h-5.2l-.99-7.65c-.08-.61-.54-1.15-1.15-1.26-2.1-.5-4.17-1.34-6.04-2.52-.54-.31-1.22-.27-1.72.08l-6.12,4.74-3.71-3.67,4.74-6.12c.38-.5.42-1.19.08-1.72-1.19-1.91-2.03-3.94-2.52-6.04-.15-.61-.65-1.07-1.26-1.15l-7.69-.99v-5.2l7.65-.99c.61-.08,1.15-.54,1.26-1.15.5-2.1,1.34-4.17,2.52-6.04.34-.54.31-1.22-.08-1.72l-4.74-6.12,3.71-3.71,6.12,4.74c.5.38,1.19.42,1.72.08,1.91-1.19,3.94-2.03,6.04-2.52.65-.08,1.11-.61,1.19-1.22Z"/>
        <path class="cls-1" d="M26.55,42.77h0l.5.23c1.3.54,2.64.84,4.09.92h1.26c1.42-.08,2.75-.38,4.06-.92l.11-.04c4.4-1.91,7.27-6.27,7.27-11.06,0-6.66-5.39-12.05-12.05-12.05s-12.05,5.39-12.05,12.05c-.08,4.63,2.6,8.88,6.81,10.86ZM22.69,31.91c0-4.97,4.06-9.03,9.03-9.03s9.03,4.06,9.03,9.03-3.75,8.76-8.57,9.03h-.92c-4.82-.27-8.57-4.25-8.57-9.03Z"/>
      </g>
      <g>
        <path class="cls-1" d="M98.7,56.89l-5.24-.69c-.31-1.03-.73-2.07-1.26-3.06l3.25-4.21c.46-.57.42-1.42-.11-1.95l-3.9-3.83c-.5-.54-1.38-.57-1.95-.11l-4.21,3.25c-.96-.54-1.99-.96-3.02-1.26-.23-2.37-.31-5.05-.31-5.09s0-.08-.04-.19v-.11s-.04-.08-.04-.15c0-.04-.04-.08-.04-.15,0-.04-.04-.08-.08-.11s-.04-.08-.08-.11c0-.04-.04-.04-.08-.11-.04-.04-.04-.08-.08-.11s-.04-.04-.11-.08c-.04-.04-.08-.08-.11-.08-.04-.04-.08-.04-.11-.08-.04-.04-.08-.04-.15-.08-.04,0-.08-.04-.15-.04l-.11-.04c-.11-.04-.19-.04-.31-.04h-6.2c-.11,0-.19,0-.31.04l-.11.04s-.11.04-.15.04-.08.04-.11.08c-.04.04-.08.04-.11.08-.04.04-.08.04-.11.08-.04,0-.04.04-.08.04h-.08l-.11.23h-.08l-.11.31h0l-.23.46.08.04-.08.27.11.04c-.04.69-.11,2.91-.31,4.86-1.03.31-2.07.73-3.02,1.26l-4.21-3.25c-.57-.46-1.45-.38-1.95.11l-3.86,3.86c-.54.54-.57,1.38-.11,1.95l3.25,4.21c-.54.99-.96,1.99-1.26,3.06l-5.24.69c-.73.08-1.3.73-1.3,1.49v5.39c0,.73.57,1.38,1.3,1.49l5.24.69c.31,1.03.73,2.07,1.26,3.06l-3.25,4.21c-.46.57-.42,1.42.11,1.95l3.86,3.86c.5.5,1.38.57,1.95.11l4.21-3.25c.99.54,1.99.96,3.06,1.26l.69,5.24c.08.73.73,1.3,1.49,1.3h5.39c.73,0,1.38-.57,1.49-1.3l.69-5.24c1.03-.31,2.07-.73,3.06-1.26l4.21,3.25c.57.46,1.45.38,1.95-.11l3.86-3.86c.54-.54.57-1.38.11-1.95l-3.25-4.21c.54-.99.96-1.99,1.26-3.06l5.24-.69c.73-.08,1.3-.73,1.3-1.49v-5.47c0-.73-.57-1.34-1.3-1.45ZM84.62,49.31c.5.31,1.22.27,1.68-.08l3.94-3.06,2.03,2.03-3.06,3.94c-.38.5-.42,1.19-.08,1.68.8,1.26,1.38,2.64,1.68,4.06.15.61.65,1.07,1.26,1.15l4.93.65v2.83l-4.93.65c-.61.08-1.11.54-1.26,1.15-.34,1.42-.92,2.79-1.68,4.06-.31.54-.31,1.19.08,1.68l3.06,3.94-2.03,2.03-3.94-3.06c-.46-.38-1.19-.42-1.68-.08-1.26.8-2.64,1.38-4.06,1.68-.61.15-1.07.65-1.15,1.26l-.65,4.93h-2.83l-.65-4.93c-.08-.61-.54-1.11-1.15-1.26-1.42-.34-2.79-.92-4.06-1.68-.5-.31-1.22-.27-1.68.08l-3.94,3.06-2.03-2.03,3.06-3.94c.38-.5.42-1.15.08-1.68-.8-1.26-1.38-2.64-1.68-4.06-.15-.61-.65-1.03-1.26-1.15l-4.93-.65v-2.83l4.93-.65c.61-.08,1.11-.54,1.26-1.15.34-1.42.92-2.79,1.68-4.06.34-.54.31-1.19-.08-1.68l-3.06-3.94,2.03-2.03,3.94,3.06c.5.38,1.19.42,1.68.08,1.26-.8,2.64-1.38,4.06-1.68.61-.15,1.07-.65,1.15-1.26s.15-1.3.23-2.07h.04l.08-.77c.04-.61.08-1.38.11-2.07h3.29c.04.69.08,1.45.11,2.07l.04.19c.08,1.03.15,1.91.27,2.68.08.61.54,1.11,1.15,1.26,1.38.31,2.72.84,4.02,1.64Z"/>
        <path class="cls-1" d="M68.55,61.09c0,3.18,1.72,6.12,4.48,7.65l-.04.04.96.38c.96.38,1.95.61,2.98.69h.92c1.03-.04,2.03-.27,2.98-.69l.08-.04c3.21-1.42,5.28-4.59,5.28-8.07,0-4.86-3.94-8.8-8.8-8.8s-8.84,3.98-8.84,8.84ZM83.17,61.09c0,3.1-2.45,5.66-5.55,5.81h-.61c-3.1-.15-5.55-2.72-5.55-5.81s2.6-5.81,5.81-5.81,5.89,2.6,5.89,5.81Z"/>
      </g>
    </g>
  </g>
</svg>