<?xml version="1.0" encoding="UTF-8"?>
<svg id="Layer_2" data-name="Layer 2" xmlns="http://www.w3.org/2000/svg" viewBox="0 0 47.41 80">
  <defs>
    <style>
      .cls-1 {
        fill: #4b4b4b;
        stroke-width: 0px;
      }
    </style>
  </defs>
  <g id="Layer_1-2" data-name="Layer 1">
    <g>
      <g>
        <rect class="cls-1" x="2.39" y="61.13" width="42.62" height="2.59"/>
        <rect class="cls-1" x="17.21" y="69.27" width="12.99" height="2.59"/>
        <rect class="cls-1" x="2.39" y="12.23" width="13.15" height="2.59"/>
        <path class="cls-1" d="M42.14,80H5.24c-2.91,0-5.24-2.36-5.24-5.24V5.24C0,2.33,2.36,0,5.24,0h16.95v2.59H5.24c-1.47,0-2.68,1.21-2.68,2.68v69.5c0,1.47,1.21,2.68,2.68,2.68h36.9c1.47,0,2.68-1.21,2.68-2.68v-29.34h2.59v29.31c-.03,2.91-2.36,5.27-5.27,5.27Z"/>
      </g>
      <g>
        <path class="cls-1" d="M24.74,34.35h-2.55v-6.8c0-2.23,1.5-4.25,3.67-4.85l4.15-1.15,4.69,4.12,4.44-4.12,4.37,1.18c2.2.57,3.74,2.59,3.74,4.85v6.77h-2.55v-6.77c0-1.12-.77-2.11-1.82-2.39l-3.03-.8-5.11,4.72-5.36-4.72-2.81.77c-1.05.29-1.82,1.28-1.82,2.39v6.8Z"/>
        <path class="cls-1" d="M35.21,19.12h-1.15c-2.46,0-4.53-1.76-4.95-4.18l-.64-3.77c-.26-1.47.16-2.94,1.12-4.09.96-1.12,2.36-1.79,3.83-1.79h2.43c1.47,0,2.87.64,3.83,1.79.96,1.12,1.37,2.62,1.12,4.09l-.64,3.77c-.42,2.43-2.49,4.18-4.95,4.18ZM33.39,7.89c-.73,0-1.4.32-1.88.86s-.67,1.28-.54,2.01l.64,3.77c.19,1.21,1.21,2.08,2.43,2.08h1.15c1.21,0,2.23-.86,2.43-2.08l.64-3.77c.13-.7-.1-1.44-.54-2.01-.48-.54-1.15-.86-1.88-.86h-2.43Z"/>
      </g>
    </g>
  </g>
</svg>