<?xml version="1.0" encoding="utf-8"?>
<!-- Generator: Adobe Illustrator 28.1.0, SVG Export Plug-In . SVG Version: 6.00 Build 0)  -->
<svg version="1.1" id="Layer_1" xmlns="http://www.w3.org/2000/svg" xmlns:xlink="http://www.w3.org/1999/xlink" x="0px" y="0px"
	 viewBox="0 0 480 480" style="enable-background:new 0 0 480 480;" xml:space="preserve">
<style type="text/css">
	.st0{fill:#FFFFFF;}
</style>
<circle cx="240" cy="240" r="190"/>
<g>
	<path class="st0" d="M280.3,316.3c0-22.8-18.5-41.3-41.4-41.3c-22.8,0-41.4,18.5-41.4,41.3s18.5,41.3,41.4,41.3
		C261.8,357.6,280.3,339.1,280.3,316.3z M239,338.8c-12.4,0-22.5-10.1-22.5-22.5s10.1-22.5,22.5-22.5s22.5,10.1,22.5,22.5
		C261.5,328.7,251.4,338.8,239,338.8z"/>
	<path class="st0" d="M260.8,193.9h-13.2v44.2h26.7l0,0V236c0-13.4-2.7-26.4-8.1-38.7C265.3,195.2,263.2,193.9,260.8,193.9z"/>
	<circle class="st0" cx="239" cy="316.3" r="14.5"/>
	<path class="st0" d="M159.1,166.3c4.5,0,8.1-3.7,8.1-8.1c0-4.5-3.7-8.1-8.1-8.1s-8.1,3.7-8.1,8.1
		C150.9,162.7,154.6,166.3,159.1,166.3z"/>
	<path class="st0" d="M219,197.4V238h20.6v-44.2h-17C220.6,193.9,219,195.5,219,197.4z"/>
	<path class="st0" d="M304.7,329.7c0-4.4,0.8-8.6,2.2-12.5h-18.7c-0.3,16.9-9.2,31.8-22.5,40.4H318C310,351,304.7,340.9,304.7,329.7
		z"/>
	<path class="st0" d="M240,30C124,30,30,124,30,240s94,210,210,210s210-94,210-210S356,30,240,30z M242.7,114.4
		c11,0,20.6,6.5,25,16.3c3.9-3.3,8.9-5.2,14.1-5.2c12.4,0,22.5,10.1,22.5,22.5s-10.1,22.5-22.5,22.5H247v-8h34.8
		c8,0,14.5-6.5,14.5-14.5s-6.5-14.5-14.5-14.5c-5,0-9.6,2.8-12.3,7.4c-0.9,1.4-2.5,2.2-4.2,1.9s-2.9-1.6-3.2-3.3
		c-1.6-9.9-9.7-17.1-19.4-17.1c-5.4,0-10.4,2.1-14.2,5.9l-5.6-5.6C228.2,117.3,235.3,114.4,242.7,114.4z M190.1,129.7
		c7.7,0,14.6,4.3,18.1,10.9c2.8-2,6.1-3.1,9.6-3.1c9.4,0,17.1,7.7,17.1,17.1c0,9.4-7.7,17.1-17.1,17.1h-24.7v-8h24.7
		c5,0,9.1-4.1,9.1-9.1s-4.1-9.1-9.1-9.1c-3.1,0-6,1.7-7.7,4.7c-0.8,1.5-2.5,2.2-4.2,1.9s-2.9-1.6-3.2-3.3c-1-6.4-6.3-11.1-12.6-11.1
		c-3.5,0-6.8,1.4-9.2,3.8l-5.6-5.7C179.2,131.9,184.5,129.7,190.1,129.7z M189.1,182.5l-5.6,5.6l-9.9-9.9l5.6-5.6L189.1,182.5z
		 M155.1,119.7h8v14h-8V119.7z M159.1,142c8.9,0,16.1,7.2,16.1,16.1c0,8.9-7.2,16.1-16.1,16.1c-8.9,0-16.1-7.2-16.1-16.1
		C143,149.3,150.2,142,159.1,142z M163.1,182.6v14h-8v-14H163.1z M144.6,178.3l-9.9,9.9l-5.6-5.6l9.9-9.9L144.6,178.3z M134.7,128.2
		l9.9,9.9l-5.6,5.6l-9.9-9.9L134.7,128.2z M120.6,154.2h14v8h-14C120.6,162.2,120.6,154.2,120.6,154.2z M103.4,298.1h52.2l23.5-27
		l6,5.2l-18.9,21.8H184v8h-14.2v17.5l8.8,8.8L173,338l-11.2-11.2V306h-16.7v25.4l11.3,12.6l-5.9,5.3l-13.4-14.8v-28.4h-15.6v18
		l6.8,10.6l-6.7,4.3l-8.1-12.6V306h-10.1L103.4,298.1L103.4,298.1z M374.8,357.6v8H214.5c-2,0-4.1-0.5-5.9-1.3l-19.4-9.1
		c-0.3-0.2-0.8-0.1-1.1,0.2l-8.1,7.8c-1.7,1.6-3.9,2.5-6.2,2.5h-26.2c-2.7,0-5.2-1-7.2-2.8l-6.7-6.2l-6.6,6.2
		c-1.9,1.8-4.5,2.8-7.2,2.8h-16.5v-8H120c0.6,0,1.2-0.2,1.7-0.7l9.4-8.8c1.5-1.4,3.9-1.4,5.5,0l9.4,8.8c0.5,0.4,1.1,0.7,1.7,0.7
		h26.2l8.8-8c2.7-2.6,6.6-3.2,10-1.6l17.3,8.1c-12.2-9-20.2-23.5-20.2-39.8c0-27.2,22.1-49.3,49.3-49.3c24.8,0,45.4,18.4,48.8,42.3
		h23.4c6.5-9.3,17.3-15.5,29.5-15.5c1.8,0,3.5,0.1,5.2,0.4v-31.5c0-1-0.8-1.7-1.7-1.7h-50.2c-2.6,0-5-1-6.9-2.8l-11.5-11.5
		c-0.3-0.3-0.8-0.5-1.2-0.5h-62.1c-0.4,0-0.7,0.1-1,0.3l-9.7,25.4l-7.5-2.8l10.6-27.2c1.6-2,3.9-3.2,6.3-3.5v-40.7
		c0-6.4,5.2-11.6,11.6-11.6h38.2c5.6,0,10.6,3.2,12.8,8.1c5.8,13.3,8.8,27.4,8.8,41.9v6.1l10.3,10.3c0.3,0.3,0.8,0.5,1.2,0.5h31.7
		v-30.2c0-3.3,1.3-6.5,3.7-8.8l10.2-10.2l5.6,5.6L335,219.7c-0.9,0.9-1.3,2-1.3,3.2v30.2h10.6c5.3,0,9.7,4.4,9.7,9.7v33.6
		c13.3,5.3,22.8,18.3,22.8,33.4c0,11.3-5.2,21.3-13.4,27.9h11.4V357.6z"/>
	<path class="st0" d="M340.7,301.7c-15.4,0-27.9,12.5-27.9,27.9s12.5,27.9,27.9,27.9s27.9-12.5,27.9-27.9
		C368.6,314.3,356.1,301.7,340.7,301.7z M340.7,336.7c-3.9,0-7-3.1-7-7s3.1-7,7-7s7,3.1,7,7C347.7,333.5,344.5,336.7,340.7,336.7z"
		/>
	<path class="st0" d="M340.7,328.7c-0.5,0-1,0.4-1,1c0,1.1,2,1.1,2,0C341.6,329.1,341.2,328.7,340.7,328.7z"/>
</g>
</svg>
