<!-- Generated by IcoMoon.io -->
<svg version="1.1" xmlns="http://www.w3.org/2000/svg"  viewBox="0 0 1024 1024">
<title></title>
<g id="icomoon-ignore">
</g>
<path d="M512 637.616c-108.606 0-197.042-88.436-197.042-197.042s88.436-197.042 197.042-197.042c108.606 0 197.042 88.436 197.042 197.042-1.552 108.606-88.436 197.042-197.042 197.042zM512 259.046c-99.297 0-181.527 80.679-181.527 181.527 0 99.297 80.679 181.527 181.527 181.527 99.297 0 181.527-80.679 181.527-181.527 0-99.297-82.23-181.527-181.527-181.527zM591.127 783.458l-85.333-148.945 13.964-7.758 66.715 116.364 13.964-54.303 54.303 13.964-54.303-93.091 13.964-7.758 72.921 125.673-74.473-20.17-21.721 76.024zM431.321 783.458l-20.17-74.473-74.473 20.17 77.576-134.982 13.964 7.758-58.958 102.4 54.303-13.964 13.964 54.303 48.097-83.782 13.964 7.758-68.267 114.812zM564.752 522.804c-1.552 0-3.103 0-4.655-1.552l-48.097-24.824-48.097 24.824c-3.103 1.552-7.758 1.552-10.861-1.552s-4.655-6.206-4.655-10.861l9.309-52.752-38.788-37.236c-4.655-4.655-4.655-10.861 0-15.515 1.552-1.552 3.103-3.103 6.206-3.103l52.752-7.758 23.273-48.097c3.103-6.206 10.861-7.758 15.515-4.655 1.552 1.552 3.103 3.103 4.655 4.655v0l23.273 48.097 52.752 7.758c6.206 1.552 10.861 6.206 9.309 12.412 0 3.103-1.552 4.655-3.103 6.206l-38.788 37.236 9.309 52.752c1.552 6.206-3.103 12.412-9.309 12.412 1.552 1.552 0 1.552 0 1.552zM512 480.913c1.552 0 3.103 0 4.655 1.552l41.891 21.721-7.758-46.545c0-3.103 0-7.758 3.103-9.309l34.133-32.582-46.545-6.206c-3.103 0-6.206-3.103-7.758-6.206l-21.721-43.442-20.17 41.891c-1.552 3.103-4.655 6.206-7.758 6.206l-46.545 6.206 34.133 32.582c3.103 3.103 3.103 6.206 3.103 9.309l-7.758 46.545 41.891-21.721c0 0 1.552 0 3.103 0zM508.897 496.428v0zM513.552 496.428v0zM459.248 459.191v0zM564.752 459.191v0zM594.23 407.991v0zM429.77 407.991v0zM476.315 395.579v0zM546.133 395.579v0 0zM480.97 392.476v0zM543.030 392.476v0zM507.345 352.137v0zM504.242 286.973h15.515v15.515h-15.515v-15.515zM504.242 578.658h15.515v15.515h-15.515v-15.515zM465.113 293.738l14.986-4.018 4.018 14.986-14.986 4.018-4.018-14.986zM539.879 576.32l14.986-4.018 4.018 14.986-14.986 4.018-4.018-14.986zM428.67 311.942l13.436-7.758 7.758 13.436-13.436 7.758-7.758-13.436zM574.002 563.329l13.436-7.758 7.758 13.436-13.436 7.758-7.758-13.436zM397.674 338.534l10.971-10.971 10.971 10.971-10.971 10.971-10.971-10.971zM603.072 543.458l10.971-10.971 10.971 10.971-10.971 10.971-10.971-10.971zM375.262 369.975l7.758-13.436 13.436 7.758-7.758 13.436-13.436-7.758zM627.222 516.553l7.758-13.436 13.436 7.758-7.758 13.436-13.436-7.758zM361.941 408.802l4.018-14.986 14.986 4.018-4.018 14.986-14.986-4.018zM642.691 483.004l4.018-14.986 14.986 4.018-4.018 14.986-14.986-4.018zM358.4 432.816h15.515v15.515h-15.515v-15.515zM650.085 432.816h15.515v15.515h-15.515v-15.515zM361.171 472.408l14.981-4.032 4.032 14.981-14.981 4.032-4.032-14.981zM643.741 397.652l14.981-4.032 4.032 14.981-14.981 4.032-4.032-14.981zM375.64 510.301l13.436-7.758 7.758 13.436-13.436 7.758-7.758-13.436zM627.028 364.97l13.436-7.758 7.758 13.436-13.436 7.758-7.758-13.436zM396.816 543.687l10.971-10.971 10.971 10.971-10.971 10.971-10.971-10.971zM603.929 338.305l10.971-10.971 10.971 10.971-10.971 10.971-10.971-10.971zM427.953 569.239l7.758-13.436 13.436 7.758-7.758 13.436-13.436-7.758zM574.54 317.291l7.758-13.436 13.436 7.758-7.758 13.436-13.436-7.758zM465.206 586.3l4.018-14.986 14.986 4.018-4.018 14.986-14.986-4.018zM539.426 305.511l4.018-14.986 14.986 4.018-4.018 14.986-14.986-4.018z"></path>
</svg>
