<!-- Generated by IcoMoon.io -->
<svg version="1.1" xmlns="http://www.w3.org/2000/svg"  viewBox="0 0 1024 1024">
<title></title>
<g id="icomoon-ignore">
</g>
<path d="M668.874 743.693l-3.103-6.206c-57.406-113.261-215.661-189.285-392.533-189.285h-7.758v-15.515h7.758c183.079 0 345.988 79.127 406.497 197.042l3.103 6.206-13.964 7.758zM600.607 743.693l-4.655-6.206c-58.958-83.782-193.939-141.188-335.127-141.188h-7.758v-15.515h7.758c148.945 0 285.479 57.406 349.091 147.394l4.655 6.206-13.964 9.309zM538.546 745.244l-6.206-4.655c-58.958-57.406-164.461-93.091-273.067-93.091h-7.758v-15.515h7.758c113.261 0 221.867 37.236 283.927 97.745l6.206 4.655-10.861 10.861zM521.48 600.953l-6.206-13.964 7.758-3.103c76.024-34.133 158.255-51.2 242.036-51.2h7.758v15.515h-7.758c-80.679 0-161.358 15.515-235.83 49.648l-7.758 3.103zM577.334 630.432l-4.655-13.964 7.758-3.103c58.958-21.721 122.57-32.582 184.63-32.582h7.758v15.515h-7.758c-62.061 0-122.57 10.861-179.976 31.030l-7.758 3.103zM619.225 667.669l-4.655-15.515 7.758-1.552c46.545-13.964 93.091-20.17 141.188-20.17h7.758v15.515h-7.758c-46.545 0-93.091 6.206-136.533 18.618l-7.758 3.103zM248.413 532.687h527.515v15.515h-527.515v-15.515zM270.134 509.414l-9.309-12.412 48.097-32.582 31.030 17.067 37.236-29.479 57.406 31.030-7.758 13.964-49.648-26.376-37.236 29.479-31.030-17.067-38.788 26.376zM566.474 509.414l-32.582-23.273-21.721 10.861-48.097-41.891-51.2 54.303-10.861-10.861 60.509-65.164 51.2 44.994 20.17-9.309 40.339 29.479-7.758 10.861zM417.528 385.293c-17.067 0-31.030-13.964-31.030-31.030s13.964-31.030 31.030-31.030c17.067 0 31.030 13.964 31.030 31.030v0c0 17.067-13.964 31.030-31.030 31.030zM417.528 337.196c-9.309 0-15.515 7.758-15.515 15.515s7.758 15.515 15.515 15.515c9.309 0 15.515-7.758 15.515-15.515s-7.758-15.515-15.515-15.515zM721.625 448.905l-12.412-9.309c9.309-13.964 6.206-34.133-7.758-43.442s-34.133-6.206-43.442 7.758c-3.103 4.655-4.655 10.861-4.655 17.067h-15.515c0-26.376 21.721-46.545 46.545-46.545 26.376 0 46.545 21.721 46.545 46.545-1.552 10.861-4.655 20.17-9.309 27.927zM648.704 507.863c-24.824 0-46.545-20.17-46.545-46.545 0-24.824 20.17-46.545 46.545-46.545 6.206 0 12.412 1.552 18.618 3.103l-6.206 13.964c-3.103-1.552-7.758-3.103-12.412-3.103-17.067 0-31.030 13.964-29.479 31.030 0 17.067 13.964 29.479 29.479 29.479v18.618zM720.074 510.966l-1.552-15.515c13.964-1.552 24.824-12.412 26.376-26.376 3.103-17.067-9.309-32.582-24.824-35.685l3.103-15.515c24.824 4.655 41.891 27.927 38.788 52.752-4.655 21.721-21.721 37.236-41.891 40.339zM675.080 455.111h15.515v83.782h-15.515v-83.782zM530.789 380.638h-48.097v-15.515h48.097c9.309 0 18.618-7.758 18.618-17.067s-7.758-18.618-17.067-18.618c0 0 0 0-1.552 0-6.206 0-12.412 3.103-15.515 9.309-1.552 3.103-6.206 4.655-10.861 3.103-1.552-1.552-3.103-3.103-3.103-6.206-1.552-13.964-13.964-23.273-27.927-21.721-4.655 0-10.861 3.103-13.964 7.758l-10.861-10.861c7.758-7.758 18.618-12.412 29.479-12.412 13.964 0 27.927 7.758 35.685 21.721 4.655-3.103 12.412-6.206 18.618-6.206 18.618 0 34.133 13.964 34.133 32.582-1.552 18.618-15.515 32.582-35.685 34.133 1.552 0 0 0 0 0zM409.771 279.79h15.515v26.376h-15.515v-26.376zM409.771 400.808h15.515v26.376h-15.515v-26.376zM343.056 346.505h26.376v15.515h-26.376v-15.515zM359.412 305.702l10.966-10.975 18.658 18.642-10.966 10.975-18.658-18.642zM444.485 393.353l10.971-10.971 18.65 18.65-10.971 10.971-18.65-18.65zM358.088 399.896l18.65-18.65 10.971 10.971-18.65 18.65-10.971-10.971z"></path>
</svg>
