<?xml version="1.0" encoding="UTF-8"?>
<svg id="Layer_1" data-name="Layer 1" xmlns="http://www.w3.org/2000/svg" viewBox="0 0 100 80">
  <defs>
    <style>
      .cls-1 {
        fill: #1d1d1b;
      }
    </style>
  </defs>
  <path class="cls-1" d="M55.92,60.74c0-3.42-2.79-6.2-6.2-6.2s-6.21,2.78-6.21,6.2,2.79,6.21,6.21,6.21,6.2-2.79,6.2-6.21ZM45.71,60.74c0-2.21,1.8-4,4.01-4s4,1.8,4,4-1.8,4.01-4,4.01-4.01-1.8-4.01-4.01Z"/>
  <path class="cls-1" d="M77.74,66.36c1.06,0,1.93-.87,1.93-1.93s-.87-1.93-1.93-1.93-1.93.86-1.93,1.93.86,1.93,1.93,1.93ZM77.74,64.16c.15,0,.27.12.27.27,0,.3-.54.3-.54,0,0-.15.12-.27.27-.27Z"/>
  <path class="cls-1" d="M87.64,64.43c0-4.18-2.61-7.74-6.28-9.19v-9.29c0-1.47-1.2-2.68-2.68-2.68h-2.92v-8.31c0-.33.13-.64.37-.88l2.8-2.8-1.56-1.56-2.8,2.8c-.65.65-1.01,1.52-1.01,2.44v8.31h-8.72c-.13,0-.25-.05-.34-.14l-2.84-2.85v-1.69c0-4-.81-7.89-2.41-11.55-.6-1.36-1.98-2.25-3.52-2.25h-10.53c-1.76,0-3.19,1.43-3.19,3.19v11.23c-.68.09-1.31.41-1.74.96l-2.92,7.5,2.05.78,2.67-6.99c.08-.06.18-.09.28-.09h17.11c.13,0,.25.05.34.14l3.17,3.17c.5.51,1.18.78,1.89.78h13.84c.26,0,.48.21.48.48v8.73c-.47-.07-.93-.14-1.42-.14-3.37,0-6.33,1.69-8.12,4.27h-6.47c-.95-6.58-6.6-11.66-13.44-11.66-7.5,0-13.6,6.1-13.6,13.59,0,4.52,2.22,8.51,5.62,10.99l-4.83-2.26c-.92-.44-2.01-.26-2.75.45l-2.42,2.22h-7.23c-.18,0-.34-.07-.47-.18l-2.58-2.42c-.43-.4-1.08-.4-1.5,0l-2.58,2.42c-.12.12-.29.18-.47.18h-4.56v2.2h4.56c.74,0,1.44-.28,1.98-.78l1.82-1.71,1.83,1.72c.53.5,1.24.78,1.97.78h7.23c.64,0,1.24-.24,1.7-.68l2.24-2.15c.08-.08.2-.09.29-.05l5.36,2.51c.5.24,1.06.36,1.62.36h44.19v-2.2h-3.27c2.27-1.82,3.75-4.57,3.75-7.7ZM45.19,27.01h4.68v12.18h-5.68v-11.19c0-.55.44-.99.99-.99ZM52.08,39.19v-12.18h3.65c.66,0,1.26.37,1.5.93,1.48,3.38,2.23,6.97,2.23,10.67v.59s0,0-.01,0h-7.37ZM77.74,56.73c4.24,0,7.7,3.45,7.7,7.7s-3.44,7.69-7.68,7.7h-.04c-4.24-.01-7.68-3.46-7.68-7.7s3.45-7.7,7.7-7.7ZM38.32,60.74c0-6.28,5.11-11.39,11.4-11.39s11.39,5.11,11.39,11.39-5.11,11.39-11.39,11.39-11.4-5.11-11.4-11.39ZM57.1,72.13c3.66-2.38,6.1-6.47,6.19-11.13h5.2c-.4,1.07-.65,2.22-.65,3.43,0,3.13,1.48,5.88,3.75,7.7h-14.49Z"/>
  <polygon class="cls-1" points="15.15 63.54 17.38 67.01 19.23 65.81 17.35 62.89 17.35 57.93 21.64 57.93 21.64 65.76 25.32 69.85 26.96 68.38 23.84 64.92 23.84 57.93 28.44 57.93 28.44 63.67 31.52 66.75 33.08 65.2 30.64 62.76 30.64 57.93 34.55 57.93 34.55 55.73 29.66 55.73 34.88 49.72 33.22 48.28 26.74 55.73 12.36 55.73 12.36 57.93 15.15 57.93 15.15 63.54"/>
  <path class="cls-1" d="M38.39,19.47c-.93.4-1.36,1.47-.96,2.4s1.47,1.36,2.4.96,1.36-1.47.96-2.4c-.4-.93-1.47-1.36-2.4-.96Z"/>
  <path class="cls-1" d="M41.92,15.61c-3.34-1.34-7.42.41-8.76,3.75l1.86.74c.94-2.35,3.81-3.57,6.16-2.63l.74-1.86Z"/>
  <path class="cls-1" d="M43.61,11.41c-2.79-1.12-5.85-1.08-8.61.1-2.76,1.18-4.9,3.37-6.02,6.16l1.86.74c.92-2.29,2.68-4.09,4.95-5.07,2.27-.97,4.79-1,7.08-.08l.74-1.86Z"/>
  <path class="cls-1" d="M34.06,9.33c3.35-1.43,7.05-1.48,10.43-.12l.74-1.86c-3.88-1.55-8.12-1.5-11.96.14-3.84,1.64-6.81,4.68-8.36,8.56l1.86.74c1.35-3.38,3.94-6.03,7.29-7.46Z"/>
</svg>