<?xml version="1.0" encoding="UTF-8"?>
<svg id="Layer_2" data-name="Layer 2" xmlns="http://www.w3.org/2000/svg" viewBox="0 0 72.91 80.2">
  <defs>
    <style>
      .cls-1 {
        fill: #4b4b4b;
        stroke-width: 0px;
      }
    </style>
  </defs>
  <g id="Layer_1-2" data-name="Layer 1">
    <g>
      <path class="cls-1" d="M58.23,58.61c-1.75-1.02-2.88-2.18-3.46-3.53l-.57-1.37c-.36-.81-.55-1.7-.55-2.66v-8.57c0-10.95-7.98-20.66-18.26-23.23,1.19-1.2,1.93-2.86,1.93-4.68,0-3.67-2.99-6.66-6.66-6.66s-6.66,2.99-6.66,6.66c0,1.82.74,3.47,1.93,4.68-10.28,2.57-18.26,12.28-18.26,23.23v8.57c0,.88-.19,1.78-.55,2.66l-.56,1.36c-.62,1.39-1.75,2.54-3.46,3.54-1.91,1.14-3.1,3.23-3.1,5.44,0,3.47,2.83,6.3,6.3,6.3h12.52c1.07,5.64,6.08,9.85,11.84,9.85s10.78-4.21,11.79-9.85h12.61c3.47,0,6.3-2.83,6.3-6.3,0-2.22-1.2-4.3-3.13-5.44ZM30.67,10.58c2.2,0,3.99,1.79,3.99,3.99s-1.79,3.99-3.99,3.99-3.99-1.79-3.99-3.99,1.79-3.99,3.99-3.99ZM30.64,77.57c-4.36,0-8.12-3.01-9.13-7.22h18.26c-.98,4.21-4.75,7.22-9.13,7.22ZM55.06,67.69H6.33c-2.02,0-3.67-1.64-3.67-3.67,0-1.31.69-2.52,1.81-3.16,2.23-1.32,3.76-2.93,4.55-4.79l.56-1.33c.5-1.13.76-2.37.76-3.68v-8.6c0-11.12,9.28-20.83,20.27-21.22h.05s0,0,0,0c0,0,0,0,0,0h.11c10.99.35,20.27,10.07,20.27,21.22v8.57c0,1.23.25,2.43.76,3.68l.57,1.37c.82,1.89,2.35,3.5,4.54,4.79,1.11.66,1.81,1.87,1.81,3.16,0,2.02-1.65,3.67-3.67,3.67Z"/>
      <polygon class="cls-1" points="45.75 6.72 51.64 16.99 61.49 12.79 58.07 23.83 66.72 29.72 59.29 31 59.67 33.35 72.91 31.06 60.86 22.85 65.3 8.57 52.65 13.98 44.65 0 41.82 14.34 44.17 14.82 45.75 6.72"/>
    </g>
  </g>
</svg>