<?xml version="1.0" encoding="UTF-8"?>
<svg id="Layer_2" data-name="Layer 2" xmlns="http://www.w3.org/2000/svg" viewBox="0 0 100 64.02">
  <defs>
    <style>
      .cls-1 {
        fill: #4b4b4b;
        stroke-width: 0px;
      }
    </style>
  </defs>
  <g id="Layer_1-2" data-name="Layer 1">
    <g>
      <path class="cls-1" d="M89.17,52.8c-.73,0-1.33-.6-1.33-1.33V7.63c0-2.76-2.23-5-5-5H17.12c-2.76,0-5,2.23-5,5v43.87c0,.73-.6,1.33-1.33,1.33s-1.33-.6-1.33-1.33V7.63c0-4.2,3.43-7.63,7.63-7.63h65.72c4.2,0,7.63,3.43,7.63,7.63v43.87c.07.7-.53,1.3-1.27,1.3Z"/>
      <g>
        <polygon class="cls-1" points="58.23 42.41 56.36 40.54 61.13 35.81 56.36 31.05 58.23 29.18 64.82 35.81 58.23 42.41"/>
        <polygon class="cls-1" points="41.77 42.41 35.18 35.81 41.77 29.18 43.64 31.05 38.87 35.81 43.64 40.54 41.77 42.41"/>
      </g>
      <rect class="cls-1" x="42.16" y="34.46" width="15.69" height="2.63" transform="translate(2.59 74.92) rotate(-75.12)"/>
      <path class="cls-1" d="M80.61,42.14h-2.63v-1.2l-6-1.93-.13-.77c-.23-1.27-.57-2.5-1-3.7l-.27-.73,4.23-4.7-1.13-1.97-6.16,1.3-.5-.6c-.83-.97-1.73-1.9-2.73-2.73l-.6-.5,1.33-6.16-1.97-1.13-4.7,4.23-.73-.27c-1.2-.43-2.47-.77-3.7-1l-.77-.13-1.93-6h-2.27l-1.93,6-.77.13c-1.23.23-2.5.57-3.7,1l-.73.27-4.83-4.26-1.97,1.13,1.33,6.16-.6.5c-.97.83-1.9,1.73-2.73,2.73l-.5.6-6.16-1.3-1.13,1.97,4.23,4.7-.27.73c-.43,1.2-.77,2.47-1,3.7l-.13.77-6,1.93v1.2h-2.63v-3.1l6.33-2.07c.2-.87.43-1.77.7-2.6l-4.46-4.96,3.06-5.3,6.5,1.4c.6-.67,1.23-1.3,1.9-1.93l-1.4-6.5,5.3-3.06,4.96,4.46c.87-.27,1.73-.5,2.6-.7l2.07-6.33h6.1l2.07,6.33c.87.2,1.73.43,2.6.7l4.96-4.46,5.3,3.06-1.4,6.5c.67.6,1.33,1.23,1.93,1.93l6.5-1.4,3.06,5.3-4.46,4.96c.27.87.5,1.73.7,2.6l6.33,2.07v3.13h-.07Z"/>
      <path class="cls-1" d="M91.84,64.02H8.16c-4.5,0-8.16-3.66-8.16-8.16v-5.7h40.27l2.63,2.63h14.19l2.63-2.63h40.27v5.7c0,4.5-3.66,8.16-8.16,8.16ZM2.63,52.8v3.06c0,3.06,2.47,5.53,5.53,5.53h83.68c3.06,0,5.53-2.47,5.53-5.53v-3.06h-36.54l-2.63,2.63h-16.36l-2.63-2.63H2.63Z"/>
    </g>
  </g>
</svg>