<!-- Generated by IcoMoon.io -->
<svg version="1.1" xmlns="http://www.w3.org/2000/svg"  viewBox="0 0 1024 1024">
<title></title>
<g id="icomoon-ignore">
</g>
<path d="M452.023 533.886l14.629-5.851c-13.166-30.72-11.703-67.291 4.389-96.549 29.257-54.126 96.549-74.606 152.137-45.349s74.606 96.549 45.349 152.137l14.629 7.314c19.017-33.646 20.48-74.606 5.851-111.177-27.794-65.829-102.4-95.086-168.229-68.754-65.829 27.794-96.549 103.863-68.754 168.229zM570.514 440.263c11.703 0 21.943 7.314 21.943 17.554h16.091c0-16.091-13.166-29.257-30.72-33.646v-14.629h-16.091v14.629c-17.554 2.926-30.72 17.554-30.72 33.646s11.703 33.646 39.497 33.646c13.166 0 21.943 7.314 21.943 17.554s-10.24 17.554-21.943 17.554c-11.703 0-21.943-7.314-21.943-17.554h-16.091c0 16.091 13.166 29.257 30.72 33.646v16.091h16.091v-16.091c17.554-2.926 30.72-16.091 30.72-33.646 0-20.48-16.091-33.646-39.497-33.646-14.629 0-21.943-5.851-21.943-17.554-1.463-8.777 8.777-17.554 21.943-17.554zM416.914 449.040v-16.091c-24.869 0-48.274-16.091-57.051-39.497-11.703-32.183 4.389-67.291 36.571-78.994s67.291 4.389 78.994 36.571l16.091-5.851c-11.703-30.72-40.96-51.2-73.143-51.2-42.423 0-77.531 35.109-77.531 77.531-2.926 42.423 32.183 77.531 76.069 77.531zM604.16 326.16c33.646 0 59.977-26.331 59.977-59.977s-26.331-59.977-59.977-59.977c-33.646 0-59.977 26.331-59.977 59.977s27.794 59.977 59.977 59.977zM604.16 222.297c23.406 0 43.886 19.017 43.886 43.886 0 0 0 0 0 0 0 23.406-19.017 43.886-43.886 43.886-23.406 0-43.886-19.017-43.886-43.886 1.463-23.406 20.48-43.886 43.886-43.886zM596.846 257.406h16.091v16.091h-16.091v-16.091zM405.211 362.732h16.091v16.091h-16.091v-16.091zM275.968 679.882l13.514-8.736 8.736 13.514-13.514 8.736-8.736-13.514zM775.314 617.269c-7.314-14.629-17.554-24.869-30.72-29.257s-27.794-2.926-43.886 5.851c-5.851 2.926-11.703 5.851-17.554 7.314-33.646 11.703-57.051 17.554-70.217 20.48 0-1.463 0-1.463 0-2.926 0-23.406-19.017-40.96-42.423-40.96h-54.126c-4.389 0-8.777 0-14.629-1.463-33.646-29.257-102.4-30.72-140.434 11.703l-32.183 29.257-13.166 11.703-16.091-24.869-51.2 33.646 8.777 13.166 38.034-24.869 99.474 153.6-39.497 24.869 8.777 13.166 52.663-33.646-16.091-24.869 32.183-21.943 133.12-4.389c36.571 0 49.737-7.314 74.606-23.406 5.851-2.926 11.703-7.314 19.017-11.703 20.48-11.703 46.811-27.794 68.754-42.423l20.48-13.166c8.777-4.389 16.091-10.24 23.406-16.091 2.926-1.463 4.389-4.389 2.926-8.777zM740.206 630.434l-20.48 13.166c-20.48 13.166-46.811 30.72-67.291 40.96-7.314 4.389-14.629 8.777-20.48 11.703-24.869 14.629-33.646 20.48-67.291 20.48l-134.583 4.389c-1.463 0-2.926 0-4.389 1.463l-33.646 23.406-67.291-102.4 14.629-10.24 33.646-30.72c32.183-36.571 90.697-36.571 118.491-11.703 5.851 5.851 19.017 5.851 24.869 5.851h54.126c7.314 0 13.166 2.926 17.554 7.314s7.314 11.703 7.314 17.554c0 13.166-10.24 23.406-23.406 24.869l-65.829 2.926 1.463 16.091 65.829-2.926c14.629-1.463 26.331-8.777 33.646-20.48 8.777-1.463 35.109-8.777 80.457-23.406 7.314-2.926 14.629-5.851 20.48-8.777 11.703-5.851 21.943-7.314 30.72-4.389 7.314 2.926 14.629 8.777 17.554 16.091-2.926 1.463-8.777 4.389-16.091 8.777z"></path>
</svg>
