<!-- Generated by IcoMoon.io -->
<svg version="1.1" xmlns="http://www.w3.org/2000/svg" viewBox="0 0 1024 1024">
<title></title>
<g id="icomoon-ignore">
</g>
<path d="M510.537 732.834c27.794 0 49.737-21.943 49.737-49.737 0 0 0 0 0 0 0-27.794-21.943-51.2-51.2-51.2-27.794 0-51.2 21.943-51.2 49.737s23.406 51.2 52.663 51.2c-1.463 0-1.463 0 0 0zM476.891 683.097c0-17.554 14.629-32.183 32.183-32.183s32.183 14.629 32.183 32.183c0 0 0 0 0 0 0 17.554-14.629 32.183-32.183 32.183s-32.183-14.629-32.183-32.183zM737.28 728.446c8.777 0 16.091-7.314 16.091-16.091s-7.314-16.091-16.091-16.091-16.091 7.314-16.091 16.091c0 8.777 7.314 16.091 16.091 16.091zM737.28 710.892c1.463 0 1.463 1.463 1.463 1.463 0 2.926-4.389 2.926-4.389 0 0-1.463 1.463-1.463 2.926-1.463zM817.737 712.354c0-33.646-20.48-62.903-51.2-74.606v-74.606c0-11.703-10.24-21.943-21.943-21.943h-23.406v-67.291c0-2.926 1.463-5.851 2.926-7.314l23.406-23.406-13.166-13.166-23.406 23.406c-5.851 5.851-8.777 13.166-8.777 20.48v67.291h-71.68c-1.463 0-1.463 0-2.926-1.463l-23.406-23.406v-14.629c0-32.183-7.314-64.366-19.017-93.623-5.851-11.703-16.091-19.017-29.257-17.554h-84.846c-14.629 0-26.331 11.703-26.331 26.331v90.697c-5.851 1.463-10.24 2.926-13.166 7.314l-21.943 61.44 16.091 5.851 21.943-57.051c0 0 1.463 0 1.463 0h138.971c1.463 0 1.463 0 2.926 1.463l26.331 26.331c4.389 4.389 10.24 5.851 14.629 5.851h112.64c1.463 0 4.389 1.463 4.389 4.389v70.217c-4.389 0-7.314-1.463-11.703-1.463-27.794 0-51.2 13.166-65.829 35.109h-52.663c-7.314-54.126-54.126-95.086-109.714-95.086-61.44 0-111.177 49.737-111.177 109.714 0 36.571 17.554 68.754 45.349 89.234l-39.497-17.554c-7.314-2.926-16.091-1.463-21.943 2.926l-17.554 19.017h-58.514c-1.463 0-2.926 0-4.389-1.463l-20.48-19.017c-2.926-2.926-8.777-2.926-11.703 0l-20.48 19.017c-2.926 1.463-4.389 1.463-5.851 1.463h-36.571v17.554h36.571c5.851 0 11.703-2.926 16.091-5.851l14.629-14.629 14.629 14.629c4.389 4.389 10.24 5.851 16.091 5.851h58.514c5.851 0 10.24-1.463 13.166-5.851l17.554-17.554c0 0 1.463 0 2.926 0l43.886 20.48c4.389 1.463 8.777 2.926 13.166 2.926h358.4v-17.554h-26.331c20.48-14.629 32.183-36.571 32.183-62.903zM472.503 408.080h38.034v99.474h-45.349v-90.697c0-4.389 2.926-8.777 7.314-8.777zM529.554 507.554v-99.474h29.257c5.851 0 10.24 2.926 11.703 7.314 11.703 27.794 17.554 57.051 17.554 86.309v4.389h-58.514zM737.28 649.452c35.109 0 62.903 27.794 62.903 62.903 0 0 0 0 0 0 0 35.109-27.794 62.903-62.903 62.903s-62.903-27.794-62.903-62.903c0-33.646 27.794-62.903 62.903-62.903zM416.914 683.097c0-51.2 40.96-92.16 92.16-92.16s92.16 40.96 92.16 92.16c0 51.2-40.96 92.16-92.16 92.16s-92.16-40.96-92.16-92.16zM569.051 775.257c29.257-19.017 49.737-52.663 49.737-90.697h42.423c-2.926 8.777-4.389 17.554-4.389 27.794 0 24.869 11.703 48.274 29.257 62.903h-117.029zM229.669 705.040l17.554 29.257 14.629-10.24-14.629-23.406v-40.96h33.646v64.366l30.72 32.183 13.166-11.703-24.869-27.794v-57.051h36.571v46.811l24.869 24.869 13.166-13.166-20.48-19.017v-39.497h32.183v-17.554h-39.497l42.423-48.274-13.166-11.703-52.663 59.977h-117.029v17.554h23.406zM330.606 365.657c20.48 0 36.571-16.091 36.571-36.571v0c0-20.48-16.091-36.571-36.571-36.571s-36.571 16.091-36.571 36.571c1.463 20.48 17.554 36.571 36.571 36.571zM330.606 311.532v0c0-1.463 1.463-1.463 0 0 10.24 0 19.017 8.777 17.554 17.554 0 10.24-8.777 17.554-17.554 17.554s-17.554-8.777-17.554-17.554c0-10.24 7.314-17.554 17.554-17.554zM393.509 285.2c16.091-2.926 30.72 7.314 33.646 23.406 0 4.389 2.926 7.314 7.314 7.314s7.314-1.463 8.777-4.389c2.926-5.851 10.24-10.24 17.554-10.24 11.703 0 20.48 8.777 20.48 20.48s-8.777 20.48-20.48 20.48h-55.589v17.554h57.051c20.48 0 38.034-17.554 38.034-38.034s-17.554-38.034-38.034-38.034c-7.314 0-14.629 2.926-21.943 7.314-7.314-14.629-23.406-24.869-40.96-24.869-13.166 0-24.869 4.389-33.646 13.166l13.166 13.166c5.851-4.389 10.24-7.314 14.629-7.314zM517.851 248.629c21.943 0 40.96 16.091 43.886 38.034 0 2.926 1.463 4.389 4.389 5.851 4.389 2.926 10.24 1.463 13.166-2.926 5.851-10.24 16.091-16.091 27.794-16.091 17.554 0 32.183 14.629 32.183 32.183s-14.629 32.183-32.183 32.183h-77.531v17.554h77.531c0 0 0 0 0 0 27.794 0 49.737-21.943 49.737-51.2s-21.943-49.737-51.2-49.737c-11.703 0-23.406 4.389-32.183 11.703-2.926-7.314-7.314-13.166-13.166-19.017-24.869-23.406-62.903-23.406-87.771 1.463l11.703 13.166c10.24-8.777 21.943-13.166 33.646-13.166zM321.829 242.777h17.554v30.72h-17.554v-30.72zM321.829 383.212h17.554v30.72h-17.554v-30.72zM244.297 320.309h30.72v17.554h-30.72v-17.554zM263.524 274.242l12.414-12.411 21.719 21.725-12.414 12.411-21.719-21.725zM362.993 373.793l12.411-12.414 21.725 21.719-12.411 12.414-21.725-21.719zM264.615 383.083l21.722-21.722 12.413 12.413-21.722 21.722-12.413-12.413z"></path>
</svg>
