<?xml version="1.0" encoding="UTF-8"?>
<svg id="Layer_2" data-name="Layer 2" xmlns="http://www.w3.org/2000/svg" viewBox="0 0 98.12 80.4">
  <defs>
    <style>
      .cls-1 {
        fill: #4b4b4b;
        stroke-width: 0px;
      }
    </style>
  </defs>
  <g id="Layer_1-2" data-name="Layer 1">
    <g>
      <path class="cls-1" d="M81.05,46.26c-8.73,0-16.16,6.77-16.98,15.44h-3.77V26.09h9.73c4.65,0,8.7,3,10.06,7.46l1.94,6.38h-.13c-.27-.03-.54-.05-.81-.05-6.22,0-12.09,2.42-16.52,6.82l-.14.14,2.24,2.24.14-.14c3.81-3.81,8.88-5.9,14.29-5.9,2.89,0,5.67.59,8.28,1.76l.18.08,1.32-2.87-.19-.08c-1.62-.72-3.38-1.26-5.24-1.61l-2.32-7.64c-1.73-5.82-6.99-9.73-13.09-9.73h-.81v-14.85l4.75-4.72-2.27-2.23-5.64,5.67v16.13h-5.77v-.04h-1.81l-6.07-17.43c-1.14-3.27-4.23-5.47-7.68-5.47h-17.36c-4.2,0-7.69,3.19-8.11,7.45l-.45,17.95v5.06c-7.45,1.36-14.25,5.66-18.68,11.8l-.12.16,2.59,1.83.12-.16c4.88-6.84,12.82-10.93,21.24-10.93h.11c3.59,0,7.12.75,10.5,2.22v2.66h3.15v-11.96h19.4v11.28h-8.68v24.33h-4.39c.27-1.32.4-2.66.4-3.98,0-11.22-9.13-20.35-20.35-20.35S3.74,46.5,3.74,57.72s9.13,20.35,20.35,20.35c8.41,0,16.04-5.3,19.02-13.21h5.32v6.66h11.87v-6.66h3.76c.78,8.73,8.2,15.55,16.99,15.55,9.41,0,17.07-7.66,17.07-17.07s-7.66-17.07-17.07-17.07ZM34.56,31.96c-3.37-1.31-6.9-1.98-10.5-1.98-.64,0-1.31.03-2.1.09v-3.97h12.6v5.87ZM34.56,22.94h-12.54l.39-15.29c.27-2.56,2.4-4.49,4.96-4.49h7.19v19.78ZM37.71,22.9V3.15h7.02c2.1,0,3.99,1.35,4.69,3.35l5.71,16.4h-17.42ZM24.09,74.91c-9.48,0-17.19-7.71-17.19-17.19s7.71-17.19,17.19-17.19,17.16,7.71,17.19,17.19c0,9.48-7.71,17.19-17.19,17.19ZM57.11,68.32h-5.53v-7.16h5.53v7.16ZM57.11,58h-5.53v-7.16h5.53v7.16ZM57.11,47.69h-5.53v-7.16h5.53v7.16ZM81.05,77.21c-7.67,0-13.92-6.24-13.92-13.92s6.24-13.92,13.92-13.92,13.92,6.24,13.92,13.92-6.24,13.92-13.92,13.92Z"/>
      <path class="cls-1" d="M24.09,47.44c-5.65,0-10.24,4.59-10.24,10.24s4.59,10.24,10.24,10.24,10.2-4.59,10.24-10.24c0-5.65-4.59-10.24-10.24-10.24ZM24.09,64.73c-3.89,0-7.05-3.16-7.05-7.05s3.16-7.05,7.05-7.05,7.05,3.16,7.05,7.05-3.16,7.05-7.05,7.05Z"/>
      <path class="cls-1" d="M81.05,55.21c-4.45,0-8.08,3.62-8.08,8.08s3.62,8.08,8.08,8.08,8.08-3.62,8.08-8.08-3.62-8.08-8.08-8.08ZM81.05,68.18c-2.7,0-4.89-2.19-4.89-4.89s2.19-4.89,4.89-4.89,4.89,2.19,4.89,4.89-2.19,4.89-4.89,4.89Z"/>
    </g>
  </g>
</svg>