<svg xmlns="http://www.w3.org/2000/svg" viewBox="0 0 28 23" fill="none">
<g clip-path="url(#clip0_9995_7975)">
<path d="M24.3111 16.95L28 6.89962H8.31421V8.91194H25.168L22.9561 14.9491H7.33376L5.22549 0H0V1.83992H3.66052L5.58019 16.9629H6.99898C6.64053 17.5714 6.45081 18.2667 6.44987 18.9753C6.44987 20.0427 6.86846 21.0664 7.61347 21.8211C8.35848 22.5759 9.36888 23 10.4225 23C11.4761 23 12.4866 22.5759 13.2316 21.8211C13.9766 21.0664 14.3951 20.0427 14.3951 18.9753C14.3935 18.2667 14.2039 17.5717 13.8461 16.9629H17.4739C17.1165 17.5717 16.9273 18.2669 16.9262 18.9753C16.9262 20.0427 17.3448 21.0664 18.0898 21.8211C18.8348 22.5759 19.8453 23 20.8989 23C21.9525 23 22.9629 22.5759 23.7079 21.8211C24.4529 21.0664 24.8715 20.0427 24.8715 18.9753C24.8704 18.2667 24.6807 17.5715 24.3224 16.9629L24.3111 16.95ZM10.4169 20.9747C10.024 20.9747 9.63992 20.8566 9.31327 20.6355C8.98662 20.4144 8.73204 20.1001 8.58171 19.7324C8.43137 19.3647 8.39205 18.9601 8.4687 18.5697C8.54534 18.1793 8.73447 17.8208 9.01226 17.5394C9.29005 17.2579 9.64403 17.0662 10.0293 16.9886C10.4146 16.9109 10.814 16.9508 11.1769 17.1032C11.5399 17.2555 11.8502 17.5134 12.0684 17.8443C12.2867 18.1753 12.4031 18.5643 12.4031 18.9623C12.4037 19.2269 12.3527 19.4891 12.2531 19.7337C12.1536 19.9784 12.0073 20.2007 11.8228 20.388C11.6383 20.5754 11.4192 20.724 11.178 20.8254C10.9367 20.9268 10.6781 20.979 10.4169 20.979V20.9747ZM20.889 20.9747C20.4961 20.9747 20.112 20.8566 19.7854 20.6355C19.4587 20.4144 19.2041 20.1001 19.0538 19.7324C18.9035 19.3647 18.8642 18.9601 18.9408 18.5697C19.0174 18.1793 19.2067 17.8208 19.4845 17.5394C19.7622 17.2579 20.1161 17.0662 20.5014 16.9886C20.8867 16.9109 21.2862 16.9508 21.6491 17.1032C22.0121 17.2555 22.3223 17.5134 22.5405 17.8443C22.7588 18.1753 22.8753 18.5643 22.8753 18.9623C22.8759 19.2269 22.8249 19.4891 22.7253 19.7337C22.6258 19.9784 22.4795 20.2007 22.295 20.388C22.1105 20.5754 21.8913 20.724 21.6501 20.8254C21.4088 20.9268 21.1502 20.979 20.889 20.979V20.9747Z" fill="white"/>
</g>
<defs>
<clipPath id="clip0_9995_7975">
<rect width="28" height="23" fill="white"/>
</clipPath>
</defs>
</svg>