<!-- Generated by IcoMoon.io -->
<svg version="1.1" xmlns="http://www.w3.org/2000/svg" viewBox="0 0 1024 1024">
<title></title>
<g id="icomoon-ignore">
</g>
<path d="M687.321 373.858l9.309 12.412 12.412-9.309-9.309-12.412-12.412 9.309zM318.061 370.755l12.412 9.309 9.309-12.412-12.412-9.309-9.309 12.412zM664.048 349.034l10.861 10.861 10.861-10.861-10.861-10.861-10.861 10.861zM342.885 342.828l10.861 10.861 10.861-10.861-10.861-10.861-10.861 10.861zM637.673 327.313l12.412 9.309 9.309-12.412-12.412-9.309-9.309 12.412zM370.812 319.555l9.309 12.412 12.412-9.309-9.309-12.412-12.412 9.309zM608.194 310.246l12.412 6.206 7.758-13.964-13.964-7.758-6.206 15.515zM408.048 296.282l-6.206 3.103 6.206 13.964 12.412-6.206-6.206-13.964-6.206 3.103zM575.612 297.834l7.758 3.103 7.758 1.552 4.655-13.964-15.515-6.206-4.655 15.515zM435.976 285.422l4.655 15.515 15.515-4.655-4.655-15.515-15.515 4.655zM541.479 290.076l15.515 3.103 3.103-15.515-15.515-3.103-3.103 15.515zM471.661 276.113l1.552 15.515 15.515-1.552-1.552-15.515-15.515 1.552zM507.345 288.525h15.515v-15.515h-15.515v15.515zM501.139 750.876h15.515v-15.515h-15.515v15.515zM543.030 733.81l-7.758 1.552 1.552 15.515 15.515-1.552-1.552-15.515h-7.758zM463.903 746.222l15.515 3.103 3.103-15.515-15.515-3.103-3.103 15.515zM569.406 727.604l4.655 15.515 15.515-4.655-4.655-15.515-15.515 4.655zM428.218 736.913l15.515 6.206 4.655-13.964-7.758-3.103-6.206-4.655-6.206 15.515zM609.745 713.64v0l-7.758 3.103 6.206 13.964 13.964-6.206-6.206-13.964-6.206 3.103zM395.636 721.398l12.412 6.206 7.758-13.964-13.964-7.758-6.206 15.515zM633.018 701.228l9.309 12.412 12.412-9.309-9.309-12.412-12.412 9.309zM364.606 699.676l12.412 9.309 9.309-12.412-12.412-9.309-9.309 12.412zM659.394 679.507l10.861 10.861 10.861-10.861-10.861-10.861-10.861 10.861zM338.23 674.852l12.412 12.412 10.861-10.861-10.861-10.861-12.412 9.309zM684.218 654.682l12.412 9.309 9.309-12.412-12.412-9.309-9.309 12.412zM314.958 646.925l9.309 12.412 12.412-9.309-9.309-12.412-12.412 9.309zM704.388 626.755l13.964 7.758 7.758-13.964-13.964-7.758-7.758 13.964zM512 702.779c-66.715 0-128.776-35.685-162.909-93.091l13.964-7.758c49.648 82.23 156.703 110.158 240.485 60.509 51.2-29.479 82.23-83.782 85.333-142.739h-32.582v-10.861l1.552-3.103 63.612-89.988 63.612 91.539v10.861h-32.582c-1.552 29.479-7.758 58.958-18.618 85.333l-13.964-6.206c12.412-27.927 18.618-57.406 18.618-86.885v-7.758h24.824l-41.891-58.958-41.891 58.958h24.824v9.309c-1.552 105.503-86.885 190.836-192.388 190.836zM304.097 606.585l-63.612-91.539v-10.861h32.582c1.552-29.479 7.758-58.958 18.618-85.333l13.964 6.206c-10.861 26.376-17.067 55.855-17.067 86.885v7.758h-24.824l41.891 58.958 41.891-58.958h-24.824v-7.758c0-105.503 85.333-190.836 190.836-190.836 66.715 0 128.776 35.685 162.909 93.091l-13.964 7.758c-49.648-82.23-156.703-110.158-240.485-60.509-49.648 29.479-82.23 83.782-85.333 142.739h32.582v10.861l-1.552 3.103-63.612 88.436zM512 563.143c-31.030 0-55.855-24.824-55.855-55.855s24.824-55.855 55.855-55.855 55.855 24.824 55.855 55.855c0 0 0 0 0 0 0 31.030-24.824 55.855-55.855 55.855zM512 466.949c-21.721 0-40.339 18.618-40.339 40.339s18.618 40.339 40.339 40.339c21.721 0 40.339-18.618 40.339-40.339s-17.067-40.339-40.339-40.339z"></path>
</svg>
