<?xml version="1.0" encoding="utf-8"?>
<!-- Generator: Adobe Illustrator 28.1.0, SVG Export Plug-In . SVG Version: 6.00 Build 0)  -->
<svg version="1.1" id="Layer_1" xmlns="http://www.w3.org/2000/svg" xmlns:xlink="http://www.w3.org/1999/xlink" x="0px" y="0px"
	 viewBox="0 0 480 480" style="enable-background:new 0 0 480 480;" xml:space="preserve">
<style type="text/css">
	.st0{fill:#FFFFFF;}
</style>
<circle cx="240" cy="240" r="190"/>
<g>
	<path class="st0" d="M291.3,340L291.3,340v-3.6c0-5.6,4.5-10.1,10.1-10.1h5.6c5.6,0,10.1,4.5,10.1,10.1v3.6l0,0l5.2-18h-36.2
		L291.3,340z"/>
	<path class="st0" d="M307,333.6h-5.6c-1.6,0-2.8,1.3-2.8,2.8V351c0,1.6,1.3,2.8,2.8,2.8h5.6c1.6,0,2.8-1.3,2.8-2.8v-14.6
		C309.8,334.8,308.6,333.6,307,333.6z"/>
	<path class="st0" d="M163.6,340L163.6,340v-3.6c0-5.6,4.5-10.1,10.1-10.1h5.6c5.6,0,10.1,4.5,10.1,10.1v3.6l0,0l5.2-18h-36.2
		L163.6,340z"/>
	<path class="st0" d="M241.1,248.9c1.4,1.4,1.4,3.6,0,4.9l-21.6,21.6c9.1-0.2,24.1-2,33.6-11.4c11.4-11.4,11.7-31.1,11.4-38.4
		c-7.4-0.3-27,0-38.4,11.4c-9.4,9.4-11.3,24.5-11.4,33.6l21.6-21.6C237.5,247.6,239.7,247.6,241.1,248.9z"/>
	<path class="st0" d="M265.6,126.9c0-0.4-0.3-0.7-0.6-0.7h-49.8c-0.4,0-0.7,0.3-0.7,0.7v8.2h51.2L265.6,126.9z"/>
	<path class="st0" d="M179.3,333.6h-5.6c-1.6,0-2.8,1.3-2.8,2.8V351c0,1.6,1.3,2.8,2.8,2.8h5.6c1.6,0,2.8-1.3,2.8-2.8v-14.6
		C182.1,334.8,180.9,333.6,179.3,333.6z"/>
	<path class="st0" d="M352.8,146.4c0-2.3-1.8-4.1-4.1-4.1h-75.9h-65.7h-75.9c-2.3,0-4.1,1.8-4.1,4.1v10h225.7V146.4z"/>
	<path class="st0" d="M240,30C124,30,30,124,30,240s94,210,210,210s210-94,210-210S356,30,240,30z M374.7,174.9
		c0,5.6-4.6,10.2-10.2,10.2h-4.8l-13.5,127.2c-0.6,5.6-5.3,9.9-11,9.9h-5.3l-6.5,22.6c-0.5,1.6-1.9,2.6-3.5,2.6h-2.8v3.6
		c0,5.6-4.5,10.1-10.1,10.1h-5.6c-5.6,0-10.1-4.5-10.1-10.1v-3.6h-2.8c-1.6,0-3-1.1-3.5-2.6l-6.5-22.6h-76.3l-6.5,22.6
		c-0.5,1.6-1.9,2.6-3.5,2.6h-2.8v3.6c0,5.6-4.5,10.1-10.1,10.1h-5.6c-5.6,0-10.1-4.5-10.1-10.1v-3.6h-2.8c-1.6,0-3-1.1-3.5-2.6
		l-6.5-22.6h-6.1c-5.7,0-10.4-4.2-11-9.9L120.3,185h-4.8c-5.6,0-10.2-4.6-10.2-10.2v-8.3c0-5.6,4.6-10.2,10.2-10.2h4.4v-10
		c0-6.3,5.1-11.4,11.4-11.4h75.9v-8.2c0-4.4,3.6-7.9,7.9-7.9h49.8c4.4,0,7.9,3.6,7.9,7.9v8.2h75.9c6.3,0,11.4,5.1,11.4,11.4v10h4.4
		c5.6,0,10.2,4.6,10.2,10.2L374.7,174.9L374.7,174.9z"/>
	<path class="st0" d="M364.5,163.7h-4.4H119.9h-4.4c-1.6,0-2.9,1.3-2.9,2.9v8.3c0,1.6,1.3,2.9,2.9,2.9h4h241h4
		c1.6,0,2.9-1.3,2.9-2.9v-8.3C367.4,165,366.1,163.7,364.5,163.7z"/>
	<path class="st0" d="M141,311.4c0.2,1.9,1.8,3.3,3.7,3.3h190.5c1.9,0,3.5-1.4,3.7-3.3L352.4,185H127.6L141,311.4z M145.9,201.5
		c1.1-1.2,2.6-1.9,4.3-1.9h179.7c1.6,0,3.2,0.7,4.3,1.9c1.1,1.2,1.6,2.8,1.4,4.4l-9.5,89.1c-0.3,2.9-2.8,5.1-5.7,5.1H159.6
		c-2.9,0-5.4-2.2-5.7-5.1l-9.5-89.1C144.3,204.4,144.8,202.7,145.9,201.5z"/>
	<path class="st0" d="M319,292.9l9.2-86H151.9l9.2,86H319z M221,232.1c16.6-16.6,45.8-13.4,47.1-13.2l2.7,0.3l0.3,2.7
		c0.2,1.2,3.4,30.5-13.2,47.1c-11.7,11.7-29.8,13.5-39.8,13.5c-4.1,0-6.9-0.3-7.2-0.4l-2.7-0.3l-0.3-2.7
		C207.7,277.9,204.4,248.6,221,232.1z"/>
</g>
</svg>
