<?xml version="1.0" encoding="UTF-8"?>
<svg id="Layer_1" data-name="Layer 1" xmlns="http://www.w3.org/2000/svg" viewBox="0 0 100 80">
  <defs>
    <style>
      .cls-1 {
        fill: #1d1d1b;
      }
    </style>
  </defs>
  <path class="cls-1" d="M75.74,27.06c-1.48-6.08-6.83-10.52-13.09-10.84-3.7-5.2-9.66-8.28-16.05-8.28-10.51,0-19.12,8.27-19.67,18.65-7.34.56-13.15,6.73-13.15,14.21,0,7.86,6.39,14.25,14.25,14.25h15.1v-2.2h-15.1c-6.65,0-12.05-5.41-12.05-12.05s5.4-12.03,12.03-12.05c.61,0,1.1-.49,1.1-1.1,0-9.65,7.85-17.5,17.5-17.5,5.85,0,11.28,2.91,14.54,7.77.2.3.54.48.9.49,5.71.07,10.62,4.18,11.68,9.77.08.43.42.77.84.87,5.48,1.21,9.45,6.15,9.45,11.75,0,6.65-5.41,12.05-12.05,12.05h-10.77v2.2h10.77c7.86,0,14.25-6.39,14.25-14.25,0-6.39-4.37-12.05-10.49-13.73Z"/>
  <path class="cls-1" d="M67.34,56.21c-2.09,0-3.79,1.7-3.79,3.79,0,1.7,1.14,3.14,2.69,3.61v6.25h-7.29v-28.21h8.43c.48,1.55,1.91,2.69,3.61,2.69,2.09,0,3.79-1.7,3.79-3.79s-1.7-3.79-3.79-3.79c-1.7,0-3.14,1.14-3.61,2.69h-4.9v-7.97c0-.61-.49-1.1-1.1-1.1h-13.86v-3.15c1.55-.47,2.69-1.9,2.69-3.61,0-2.09-1.7-3.79-3.79-3.79s-3.79,1.7-3.79,3.79c0,1.7,1.14,3.13,2.69,3.61v4.25c0,.61.49,1.1,1.1,1.1h13.86v6.87h-2.43c-.61,0-1.1.49-1.1,1.1v30.41c0,.61.49,1.1,1.1,1.1h9.49c.61,0,1.1-.49,1.1-1.1v-7.35c1.55-.48,2.69-1.91,2.69-3.61,0-2.09-1.7-3.79-3.79-3.79ZM70.99,38.96c.88,0,1.59.72,1.59,1.59s-.71,1.59-1.59,1.59-1.59-.72-1.59-1.59.71-1.59,1.59-1.59ZM44.82,23.63c0-.88.72-1.59,1.59-1.59s1.59.71,1.59,1.59-.71,1.59-1.59,1.59-1.59-.71-1.59-1.59ZM67.34,61.6c-.88,0-1.59-.71-1.59-1.59s.71-1.59,1.59-1.59,1.59.71,1.59,1.59-.71,1.59-1.59,1.59Z"/>
  <rect class="cls-1" x="49.71" y="52.83" width="4.82" height="2.2"/>
  <path class="cls-1" d="M53.12,65.34h-2.12c-.61,0-1.1.49-1.1,1.1s.49,1.1,1.1,1.1h.02v2.33h-3.5v-28.1c0-.61-.49-1.1-1.1-1.1h-6.11c-.47-1.55-1.9-2.69-3.61-2.69-2.09,0-3.79,1.7-3.79,3.79s1.7,3.79,3.79,3.79c1.7,0,3.13-1.14,3.61-2.69h5.01v18.73h-15.62c-.48-1.55-1.91-2.69-3.61-2.69-2.09,0-3.79,1.7-3.79,3.79s1.7,3.79,3.79,3.79c1.71,0,3.14-1.14,3.61-2.69h15.62v7.17c0,.61.49,1.1,1.1,1.1h5.7c.61,0,1.1-.49,1.1-1.1v-3.45c.56-.05,1-.51,1-1.08,0-.61-.49-1.1-1.1-1.1ZM36.7,43.36c-.88,0-1.59-.71-1.59-1.59s.71-1.59,1.59-1.59,1.59.71,1.59,1.59-.71,1.59-1.59,1.59ZM26.08,64.29c-.88,0-1.59-.71-1.59-1.59s.71-1.59,1.59-1.59,1.59.71,1.59,1.59-.72,1.59-1.59,1.59Z"/>
</svg>