<?xml version="1.0" encoding="UTF-8"?>
<svg id="Layer_2" data-name="Layer 2" xmlns="http://www.w3.org/2000/svg" viewBox="0 0 82.46 82.46">
  <defs>
    <style>
      .cls-1 {
        fill: none;
        stroke: #4b4b4b;
        stroke-miterlimit: 10;
        stroke-width: 2.46px;
      }
    </style>
  </defs>
  <g id="Layer_1-2" data-name="Layer 1">
    <g>
      <circle class="cls-1" cx="41.23" cy="41.23" r="40"/>
      <circle class="cls-1" cx="41.23" cy="41.23" r="22.28"/>
      <circle class="cls-1" cx="41.23" cy="41.23" r="8.34"/>
      <circle class="cls-1" cx="41.23" cy="41.23" r="3.97"/>
      <line class="cls-1" x1="38.4" y1="25.69" x2="44.06" y2="25.69"/>
      <line class="cls-1" x1="28.25" y1="32.25" x2="32.25" y2="28.25"/>
      <line class="cls-1" x1="25.69" y1="44.06" x2="25.69" y2="38.4"/>
      <line class="cls-1" x1="32.25" y1="54.22" x2="28.25" y2="50.22"/>
      <line class="cls-1" x1="44.06" y1="56.77" x2="38.4" y2="56.77"/>
      <line class="cls-1" x1="54.22" y1="50.22" x2="50.22" y2="54.22"/>
      <line class="cls-1" x1="56.77" y1="38.4" x2="56.77" y2="44.06"/>
      <line class="cls-1" x1="50.22" y1="28.25" x2="54.22" y2="32.25"/>
      <line class="cls-1" x1="35.32" y1="19.75" x2="47.14" y2="1.66"/>
      <line class="cls-1" x1="21.88" y1="30.22" x2="17.45" y2="9.08"/>
      <line class="cls-1" x1="19.75" y1="47.14" x2="1.66" y2="35.32"/>
      <line class="cls-1" x1="30.22" y1="60.58" x2="9.08" y2="65.02"/>
      <line class="cls-1" x1="47.14" y1="62.71" x2="35.32" y2="80.8"/>
      <line class="cls-1" x1="60.58" y1="52.25" x2="65.02" y2="73.38"/>
      <line class="cls-1" x1="62.71" y1="35.32" x2="80.8" y2="47.14"/>
      <line class="cls-1" x1="52.25" y1="21.88" x2="73.38" y2="17.45"/>
    </g>
  </g>
</svg>