<!-- Generated by IcoMoon.io -->
<svg version="1.1" xmlns="http://www.w3.org/2000/svg" viewBox="0 0 1024 1024">
<title></title>
<g id="icomoon-ignore">
</g>
<path d="M412.874 732.894h-113.261v-372.364l57.406-68.267 57.406 68.267v372.364zM315.128 717.379h82.23v-352.194l-41.891-49.648-41.891 49.648v352.194zM568.025 732.894h-113.261v-372.364l57.406-68.267 57.406 68.267v372.364zM470.28 717.379h82.23v-352.194l-41.891-49.648-41.891 49.648v352.194zM724.728 732.894h-113.261v-372.364l57.406-68.267 57.406 68.267-1.552 372.364zM626.983 717.379h82.23v-352.194l-41.891-49.648-40.339 49.648v352.194zM405.116 464.482h58.958v15.515h-58.958v-15.515zM560.268 464.482h58.958v15.515h-58.958v-15.515zM716.971 464.482h58.958v15.515h-58.958v-15.515zM716.971 405.525h58.958v15.515h-58.958v-15.515zM560.268 405.525h58.958v15.515h-58.958v-15.515zM405.116 405.525h58.958v15.515h-58.958v-15.515zM405.116 658.422h58.958v15.515h-58.958v-15.515zM560.268 658.422h58.958v15.515h-58.958v-15.515zM716.971 658.422h58.958v15.515h-58.958v-15.515zM716.971 599.464h58.958v15.515h-58.958v-15.515zM248.413 464.482h58.958v15.515h-58.958v-15.515zM248.413 405.525h58.958v15.515h-58.958v-15.515zM248.413 658.422h58.958v15.515h-58.958v-15.515zM248.413 599.464h58.958v15.515h-58.958v-15.515zM560.268 599.464h58.958v15.515h-58.958v-15.515zM405.116 599.464h58.958v15.515h-58.958v-15.515zM355.468 450.519c-1.552 0-1.552 0-3.103 0s-1.552-1.552-3.103-1.552-1.552-3.103-3.103-4.655c0-1.552 1.552-4.655 3.103-6.206 0 0 1.552-1.552 3.103-1.552 3.103-1.552 6.206 0 7.758 1.552 0 0 1.552 1.552 1.552 3.103s0 1.552 0 3.103 0 1.552 0 3.103-1.552 1.552-1.552 3.103c-1.552 0-1.552 1.552-3.103 1.552 0-1.552 0-1.552-1.552-1.552zM512.171 450.519c-1.552 0-1.552 0-3.103 0s-1.552-1.552-3.103-1.552c0 0-1.552-1.552-1.552-3.103s0-1.552 0-3.103 0-1.552 0-3.103 1.552-1.552 1.552-3.103c3.103-3.103 7.758-3.103 10.861 0 0 0 1.552 1.552 1.552 3.103s0 1.552 0 3.103 0 1.552 0 3.103-1.552 1.552-1.552 3.103c0 0-1.552 1.552-3.103 1.552 0 0 0 0-1.552 0zM668.874 450.519c-1.552 0-1.552 0-3.103 0s-1.552-1.552-3.103-1.552c0 0-1.552-1.552-1.552-3.103s0-1.552 0-3.103 0-1.552 0-3.103 1.552-1.552 1.552-3.103 6.206-3.103 9.309-1.552c1.552 0 1.552 1.552 3.103 1.552 1.552 1.552 1.552 3.103 3.103 6.206 0 1.552-1.552 4.655-3.103 6.206 0 0-1.552 1.552-3.103 1.552s-3.103 0-3.103 0zM668.874 644.458c-1.552 0-4.655-1.552-6.206-3.103 0 0-1.552-1.552-1.552-3.103s0-1.552 0-3.103 1.552-4.655 3.103-4.655c0 0 1.552-1.552 3.103-1.552s4.655 0 6.206 0c1.552 0 1.552 1.552 3.103 1.552 1.552 1.552 1.552 3.103 3.103 4.655 0 1.552 0 1.552 0 3.103s-1.552 1.552-1.552 3.103c-6.206 3.103-7.758 3.103-9.309 3.103zM512.171 644.458c-1.552 0-4.655-1.552-6.206-3.103 0 0-1.552-1.552-1.552-3.103s0-1.552 0-3.103 0-4.655 1.552-4.655c0 0 1.552-1.552 3.103-1.552 1.552-1.552 4.655-1.552 6.206 0 1.552 0 1.552 1.552 3.103 1.552 1.552 1.552 3.103 3.103 3.103 4.655s0 1.552 0 3.103-1.552 1.552-1.552 3.103c-3.103 3.103-6.206 3.103-7.758 3.103zM355.468 644.458c-1.552 0-4.655-1.552-4.655-3.103 0 0-1.552-1.552-1.552-3.103s0-1.552 0-3.103 1.552-4.655 3.103-4.655c0 0 1.552-1.552 3.103-1.552 1.552-1.552 4.655-1.552 6.206 0 1.552 0 1.552 1.552 3.103 1.552-1.552 1.552-1.552 4.655-1.552 6.206s0 1.552 0 3.103-1.552 1.552-1.552 3.103-4.655 1.552-6.206 1.552z"></path>
</svg>
