<?xml version="1.0" encoding="UTF-8"?>
<svg id="Layer_2" data-name="Layer 2" xmlns="http://www.w3.org/2000/svg" viewBox="0 0 80 74.73">
  <defs>
    <style>
      .cls-1 {
        fill: #4b4b4b;
        stroke-width: 0px;
      }
    </style>
  </defs>
  <g id="Layer_1-2" data-name="Layer 1">
    <g>
      <path class="cls-1" d="M20.86,2.92C15.86-1.22,8.42-.96,3.75,3.71,1.35,6.12,0,9.28,0,12.63s1.45,6.88,4.08,9.51c5.43,5.43,15.83,15.34,15.93,15.43l.86.82.86-.82c.1-.1,10.5-10,15.93-15.43,2.63-2.63,4.08-6.02,4.08-9.51s-1.35-6.52-3.75-8.92c-4.67-4.67-12.14-4.94-17.11-.79ZM35.87,20.37c-4.48,4.48-12.41,12.08-15.04,14.58-2.6-2.5-10.53-10.07-15.04-14.58-2.17-2.17-3.36-4.94-3.36-7.77,0-2.67,1.09-5.2,2.99-7.14,4.01-3.98,10.5-3.95,14.48.03l.89.89.89-.89c3.98-3.98,10.5-3.98,14.48-.03,1.94,1.94,2.99,4.48,2.99,7.14.07,2.83-1.12,5.59-3.29,7.77Z"/>
      <path class="cls-1" d="M77.17,26.39c-2.47-13.85-14.48-23.89-28.56-23.89h-3.59v2.5h3.59c12.87,0,23.83,9.18,26.1,21.79l2.47,19.71h-8.89v14.55h-16.45v9.97h2.5v-7.47h16.42v-14.55h9.25l-2.83-22.61Z"/>
      <rect class="cls-1" x="19.61" y="70.98" width="2.5" height="3.75"/>
      <polygon class="cls-1" points="12.77 50.58 14.51 52.32 19.61 47.25 19.61 67.26 22.08 67.26 22.08 47.25 27.18 52.32 28.93 50.58 20.86 42.48 12.77 50.58"/>
      <path class="cls-1" d="M57.92,35.73c3.82,0,6.94-3.09,6.94-6.94h-2.5c0,2.44-1.97,4.44-4.44,4.44s-4.44-1.97-4.44-4.44h-2.5c0,3.82,3.13,6.94,6.94,6.94Z"/>
    </g>
  </g>
</svg>