<?xml version="1.0" encoding="utf-8"?>
<!-- Generator: Adobe Illustrator 28.1.0, SVG Export Plug-In . SVG Version: 6.00 Build 0)  -->
<svg version="1.1" id="Layer_1" xmlns="http://www.w3.org/2000/svg" xmlns:xlink="http://www.w3.org/1999/xlink" x="0px" y="0px"
	 viewBox="0 0 480 480" style="enable-background:new 0 0 480 480;" xml:space="preserve">
<style type="text/css">
	.st0{fill:#FFFFFF;}
</style>
<circle cx="240" cy="240" r="190"/>
<g>
	<path class="st0" d="M355.6,238.9c-4.4-1.5-9.6-0.8-15.3,2.1c-3.6,1.8-6.9,3.5-10.3,4.6c-22.6,7.3-35.3,10.4-39.8,11.4
		c-3.3,5.9-9.5,10-16.7,10.4l-32.8,1.7l-0.4-7.9l32.8-1.7c6.5-0.3,11.8-5.7,11.9-12.3c0.1-3.4-1.2-6.7-3.7-9.1
		c-2.5-2.4-5.4-3.7-9.2-3.6l-26.7,0.4c-3.5,0.1-9.7-0.2-12.5-2.8c-13.4-12.1-42.8-12.2-59.1,5.8l-16.6,15.4l-7.5,5.1l33.3,51.3
		l17-11.4c0.6-0.4,1.3-0.6,2.1-0.7l67.2-2c16.3,0,20.9-2.8,33.3-10.2c2.9-1.7,6.1-3.7,9.9-5.8c9.8-5.5,22.7-13.8,33.2-20.4l10.7-6.8
		c3.3-2.1,6.1-4,8.2-5.6C362.3,242.8,359.2,240.1,355.6,238.9z"/>
	<path class="st0" d="M241,29C125,29,31,123,31,239s94,210,210,210s210-94,210-210S356.8,29,241,29z M199.3,130.3h75h3.9h66.4v90.9
		h-7.9v-83.1h-54.6v73.5h-7.9v-73.5h-67.1v62.8h-7.9L199.3,130.3L199.3,130.3z M234.5,155.2v7.9H222v-7.9H234.5z M126,286.3
		l-4.3-6.6l10.5-6.8l4.3,6.6L126,286.3z M372.5,250.7c-3,2.7-8.6,6.4-11.6,8.3l-10.7,6.9c-10.5,6.7-23.6,15-33.5,20.6
		c-3.8,2.1-7,4-9.8,5.7c-12.6,7.5-19,11.3-37.3,11.3l-66,1.9l-16.2,10.8l8,12.3l-29.5,19.2l-4.3-6.6l22.9-14.9l-49.3-75.8
		l-22.9,14.9l-4.3-6.6l29.5-19.2l7.9,12.2l6.9-4.7l15.9-14.8c19.2-21.4,53.5-20.9,70-6.1c0.5,0.3,3.5,0.8,7.1,0.7l26.7-0.4
		c5.6-0.1,10.9,2,14.9,5.9c4,4,6.1,9.2,6,14.8c0,0.3,0,0.6-0.1,0.9c6.3-1.6,17.7-4.6,34.7-10.1c2.9-0.9,5.9-2.4,8.7-3.9
		c8-4.1,15.4-4.9,21.9-2.7c6.3,2.1,11.6,7.2,15.2,14.6C374.1,247.7,373.8,249.5,372.5,250.7z"/>
</g>
</svg>
