<?xml version="1.0" encoding="UTF-8"?>
<svg id="Layer_2" data-name="Layer 2" xmlns="http://www.w3.org/2000/svg" viewBox="0 0 69.85 80.4">
  <defs>
    <style>
      .cls-1 {
        fill: #4b4b4b;
        stroke-width: 0px;
      }
    </style>
  </defs>
  <g id="Layer_1-2" data-name="Layer 1">
    <g>
      <path class="cls-1" d="M46.96,64.82l-10.81-2.69c-.38-.1-.78-.15-1.19-.15s-.81.05-1.21.15l-10.81,2.69c-2.22.56-3.76,2.55-3.76,4.83v10.72h2.77l-.03-10.72c0-1.03.69-1.91,1.67-2.14l10.81-2.69c.17-.04.36-.07.54-.07s.37.02.54.07l10.81,2.69c.98.23,1.67,1.11,1.67,2.14v10.72h2.77v-10.72c0-2.27-1.55-4.26-3.76-4.83Z"/>
      <rect class="cls-1" x="26.38" y="72.68" width="2.77" height="7.72"/>
      <rect class="cls-1" x="40.77" y="72.68" width="2.77" height="7.72"/>
      <path class="cls-1" d="M35.98,45.66h-2.3c-1.44,0-2.86.66-3.8,1.77-.93,1.13-1.33,2.6-1.1,4.03l.61,3.61c.4,2.41,2.46,4.17,4.9,4.17h1.12c2.46,0,4.5-1.75,4.87-4.16l.61-3.62c.23-1.46-.17-2.93-1.1-4.03-.97-1.14-2.32-1.77-3.8-1.77ZM38.15,51.04l-.61,3.61c-.18,1.09-1.07,1.85-2.17,1.85h-1.12c-1.1,0-1.99-.76-2.17-1.85l-.61-3.62c-.11-.61.07-1.27.5-1.78.45-.51,1.07-.8,1.71-.8h2.27c.67,0,1.29.29,1.7.8.44.5.62,1.13.5,1.78Z"/>
      <path class="cls-1" d="M66.48,67.44l-7.59-2.59c-.38-.1-.78-.15-1.19-.15s-.81.05-1.21.15l-3.17.78.67,2.66,3.17-.78c.18-.05.39-.07.59-.07.15,0,.29.01.39.03l7.48,2.56c.88.29,1.49,1.15,1.49,2.08v8.26h2.73v-8.23c0-2.11-1.35-3.99-3.37-4.7Z"/>
      <rect class="cls-1" x="58.82" y="76.48" width="5" height="2.77" transform="translate(-16.64 139.05) rotate(-89.9)"/>
      <path class="cls-1" d="M57.05,61.92h1.12c2.45,0,4.5-1.74,4.87-4.13l.61-3.61c.23-1.46-.17-2.93-1.1-4.03-.97-1.14-2.32-1.77-3.8-1.77h-2.3c-1.49,0-2.87.64-3.8,1.77-.93,1.13-1.33,2.6-1.1,4.03l.61,3.61c.4,2.39,2.46,4.13,4.9,4.13ZM54.74,51.94c.45-.51,1.07-.8,1.7-.8h2.27c.67,0,1.29.29,1.7.8.44.5.62,1.13.5,1.79l-.61,3.61c-.18,1.07-1.09,1.85-2.17,1.85h-1.12c-1.08,0-1.99-.78-2.17-1.85l-.61-3.62c-.11-.61.07-1.27.5-1.78Z"/>
      <path class="cls-1" d="M12.2,64.67c-.43,0-.89.06-1.36.18l-7.48,2.56c-2.01.67-3.37,2.56-3.37,4.7v8.26h2.73v-8.29c0-.96.6-1.79,1.5-2.08l7.37-2.52c.18-.04.36-.07.54-.07s.37.02.54.07l3.17.78.67-2.66-3.17-.78c-.37-.1-.76-.15-1.16-.15Z"/>
      <rect class="cls-1" x="7.19" y="75.36" width="2.77" height="5" transform="translate(-.13 .01) rotate(-.1)"/>
      <path class="cls-1" d="M13.47,48.38h-2.33c-1.49,0-2.87.64-3.8,1.77-.93,1.13-1.33,2.6-1.1,4.03l.61,3.61c.4,2.39,2.46,4.13,4.9,4.13h1.12c2.44,0,4.5-1.74,4.9-4.13l.61-3.61c.26-1.43-.14-2.9-1.1-4.03-.97-1.14-2.32-1.77-3.8-1.77ZM15.61,53.72l-.61,3.61c-.18,1.07-1.09,1.85-2.17,1.85h-1.12c-1.08,0-1.99-.78-2.17-1.85l-.61-3.62c-.11-.61.07-1.27.5-1.78.45-.51,1.07-.8,1.7-.8h2.27c.67,0,1.29.29,1.7.79.43.52.61,1.17.5,1.79Z"/>
      <path class="cls-1" d="M4.99,46.99l2.51-1.16-.08-.18c-1.64-3.56-2.55-7.32-2.73-11.19h11.32c.06,2.85.32,5.62.78,8.24l.03.2,2.7-.45-.03-.2c-.43-2.52-.67-5.14-.74-7.79h14.82v6.55h2.77v-6.55h14.82c-.06,2.66-.3,5.27-.74,7.79l-.03.2,2.7.45.03-.2c.46-2.62.71-5.39.78-8.24h11.32c-.18,3.87-1.09,7.63-2.73,11.19l-.08.18,2.51,1.16.08-.18c2.01-4.4,3.02-9.02,3.02-13.74C68.03,14.83,53.19,0,34.96,0S1.89,14.83,1.89,33.07c0,4.71,1.02,9.34,3.02,13.74l.08.18ZM59.17,14.87c3.56,4.73,5.77,10.53,6.06,16.82h-11.32c-.12-5.05-.9-9.81-2.18-14.03,2.74-.75,5.25-1.68,7.44-2.79ZM57.36,12.69c-1.94.93-4.14,1.73-6.52,2.37-1.69-4.5-3.98-8.24-6.68-10.86,5.12,1.64,9.66,4.6,13.2,8.49ZM36.34,2.92c4.91.78,9.2,5.65,11.89,12.78-3.68.79-7.71,1.25-11.89,1.33V2.92ZM36.34,19.76c4.48-.09,8.82-.59,12.77-1.46,1.2,3.99,1.94,8.54,2.06,13.39h-14.83v-11.93ZM33.57,31.69h-14.83c.12-4.85.85-9.39,2.06-13.39,3.95.87,8.29,1.38,12.77,1.46v11.93ZM33.57,2.92v14.11c-4.18-.08-8.21-.54-11.89-1.33,2.69-7.13,6.98-12,11.89-12.78ZM25.75,4.2c-2.7,2.62-4.99,6.36-6.68,10.86-2.38-.65-4.58-1.44-6.52-2.37,3.54-3.89,8.08-6.85,13.2-8.49ZM10.76,14.85c2.19,1.11,4.69,2.05,7.43,2.8-1.28,4.22-2.06,8.98-2.18,14.03H4.69c.28-6.3,2.5-12.11,6.07-16.84Z"/>
    </g>
  </g>
</svg>