<!-- Generated by IcoMoon.io -->
<svg version="1.1" xmlns="http://www.w3.org/2000/svg" viewBox="0 0 1024 1024">
<title></title>
<g id="icomoon-ignore">
</g>
<path d="M595.383 684.56l-74.606-19.017c-5.851-1.463-10.24-1.463-16.091 0l-74.606 19.017c-14.629 2.926-24.869 16.091-24.869 32.183v73.143h16.091v-73.143c0-7.314 5.851-14.629 13.166-16.091l74.606-19.017c2.926 0 5.851 0 8.777 0l74.606 19.017c7.314 1.463 13.166 8.777 13.166 16.091v73.143h16.091v-73.143c-2.926-14.629-13.166-27.794-26.331-32.183zM454.949 738.686h16.091v49.737h-16.091v-49.737zM554.423 738.686h16.091v49.737h-16.091v-49.737zM507.611 643.6h7.314c16.091 0 29.257-11.703 32.183-27.794l4.389-24.869c0-1.463 0-2.926 0-5.851 0-17.554-14.629-32.183-32.183-32.183h-16.091c-1.463 0-2.926 0-5.851 0-17.554 2.926-29.257 20.48-26.331 38.034l4.389 24.869c2.926 16.091 16.091 27.794 32.183 27.794zM503.223 568.994h16.091c1.463 0 1.463 0 2.926 0 8.777 1.463 16.091 10.24 13.166 19.017l-4.389 24.869c-1.463 8.777-8.777 14.629-16.091 14.629h-7.314c-8.777 0-14.629-5.851-16.091-14.629l-4.389-24.869c0-1.463 0-1.463 0-2.926-1.463-8.777 7.314-16.091 16.091-16.091zM751.909 789.886v-55.589c0-14.629-8.777-26.331-21.943-30.72l-52.663-17.554c-5.851-1.463-10.24-1.463-16.091 0l-20.48 4.389 4.389 14.629 20.48-5.851c2.926 0 4.389 0 7.314 0l51.2 17.554c7.314 2.926 11.703 8.777 11.703 16.091v57.051h16.091zM687.236 789.338l0.059-30.72 16.091 0.031-0.059 30.72-16.091-0.031zM665.6 661.154h7.314c16.091 0 29.257-11.703 32.183-27.794l4.389-24.869c0-1.463 0-2.926 0-5.851 0-17.554-14.629-32.183-32.183-32.183h-16.091c-1.463 0-2.926 0-5.851 0-17.554 2.926-29.257 20.48-26.331 38.034l4.389 24.869c1.463 17.554 16.091 27.794 32.183 27.794zM661.211 586.549h16.091c1.463 0 1.463 0 2.926 0 8.777 1.463 16.091 10.24 14.629 19.017l-4.389 24.869c-1.463 8.777-8.777 14.629-16.091 14.629h-7.314c-8.777 0-14.629-5.851-16.091-14.629l-7.314-23.406c0-1.463 0-1.463 0-2.926 0-8.777 7.314-17.554 17.554-17.554zM345.234 686.023l-51.2 17.554c-13.166 4.389-21.943 17.554-21.943 30.72v55.589h16.091v-55.589c0-7.314 4.389-13.166 11.703-16.091l51.2-17.554c2.926 0 5.851 0 8.777 0l20.48 4.389 4.389-14.629-20.48-4.389c-7.314-2.926-13.166-1.463-19.017 0zM321.801 757.717l16.091-0.028 0.053 30.72-16.091 0.028-0.053-30.72zM362.789 571.92h-16.091c-1.463 0-2.926 0-5.851 0-17.554 2.926-29.257 20.48-26.331 38.034l4.389 24.869c2.926 16.091 16.091 27.794 32.183 27.794h7.314c16.091 0 29.257-11.703 32.183-27.794l4.389-24.869c0-1.463 0-2.926 0-5.851 1.463-17.554-13.166-32.183-32.183-32.183zM375.954 631.897c-1.463 8.777-8.777 14.629-16.091 14.629h-8.777c-8.777 0-14.629-5.851-16.091-14.629l-4.389-24.869c0-1.463 0-1.463 0-2.926 0-8.777 7.314-17.554 17.554-17.554h16.091c1.463 0 1.463 0 2.926 0 8.777 1.463 16.091 10.24 14.629 19.017l-5.851 26.331zM636.343 529.497c2.926-19.017 4.389-39.497 5.851-58.514h81.92c-1.463 26.331-7.314 54.126-19.017 80.457l14.629 7.314c13.166-29.257 20.48-61.44 20.48-93.623 0-1.463 0-2.926 0-4.389-1.463-125.806-103.863-226.743-229.669-225.28s-226.743 103.863-225.28 229.669c0 32.183 7.314 64.366 20.48 93.623l14.629-7.314c-11.703-24.869-17.554-52.663-19.017-80.457h81.92c0 19.017 1.463 39.497 5.851 58.514l16.091-2.926c-2.926-19.017-4.389-36.571-5.851-55.589h105.326v45.349h16.091v-45.349h105.326c0 19.017-1.463 36.571-5.851 55.589l16.091 2.926zM381.806 456.354h-81.92c1.463-27.794 7.314-54.126 19.017-78.994 7.314-14.629 14.629-27.794 24.869-40.96 16.091 8.777 33.646 14.629 54.126 20.48-8.777 29.257-14.629 62.903-16.091 99.474zM354.011 323.234c26.331-30.72 61.44-51.2 99.474-62.903-20.48 19.017-38.034 46.811-51.2 80.457-17.554-4.389-33.646-10.24-48.274-17.554zM504.686 456.354h-105.326c0-35.109 5.851-67.291 14.629-96.549 27.794 5.851 58.514 10.24 90.697 10.24v86.309zM504.686 353.954c-30.72 0-59.977-4.389-86.309-10.24 19.017-51.2 49.737-87.771 86.309-92.16v102.4zM680.229 336.4c26.331 35.109 40.96 76.069 43.886 119.954h-81.92c0-36.571-5.851-70.217-16.091-99.474 20.48-5.851 38.034-13.166 54.126-20.48zM519.314 253.017c35.109 4.389 67.291 39.497 86.309 92.16-26.331 5.851-55.589 8.777-86.309 10.24v-102.4zM519.314 456.354v-86.309c32.183 0 62.903-4.389 90.697-10.24 8.777 29.257 14.629 61.44 14.629 96.549h-105.326zM621.714 340.789c-13.166-33.646-30.72-61.44-51.2-80.457 10.24 2.926 19.017 5.851 29.257 10.24 27.794 13.166 51.2 30.72 70.217 51.2-14.629 8.777-30.72 14.629-48.274 19.017z"></path>
</svg>
