<?xml version="1.0" encoding="utf-8"?>
<!-- Generator: Adobe Illustrator 28.1.0, SVG Export Plug-In . SVG Version: 6.00 Build 0)  -->
<svg version="1.1" id="Layer_1" xmlns="http://www.w3.org/2000/svg" xmlns:xlink="http://www.w3.org/1999/xlink" x="0px" y="0px"
	 viewBox="0 0 480 480" style="enable-background:new 0 0 480 480;" xml:space="preserve">
<style type="text/css">
	.st0{fill:#FFFFFF;}
</style>
<circle cx="240" cy="240" r="190"/>
<g>
	
		<rect x="177.4" y="283.6" transform="matrix(0.7072 -0.7071 0.7071 0.7072 -141.1181 234.3597)" class="st0" width="70" height="7.8"/>
	<polygon class="st0" points="164.8,313.6 151.9,326.4 173.4,347.9 186.2,335.1 186.2,322.2 177.7,313.6 	"/>
	<polygon class="st0" points="304.4,335 317.2,347.8 338.7,326.3 325.9,313.5 313,313.5 304.4,322.1 	"/>
	<path class="st0" d="M120.3,238.6c7.9-13.2,20.7-32.7,34.2-45l-9.6-9.6C128.3,204.1,122.1,220.8,120.3,238.6z"/>
	<path class="st0" d="M229.5,129.5c-17.7,1.7-34.5,7.9-54.6,24.6l9.6,9.6C196.7,150.2,216.3,137.3,229.5,129.5z"/>
	
		<rect x="237.4" y="162.8" transform="matrix(0.7071 -0.7071 0.7071 0.7071 -106.3598 243.9573)" class="st0" width="7.8" height="175.2"/>
	<polygon class="st0" points="182.1,174.7 183.3,173.5 164.6,154.8 145.7,173.7 164.4,192.4 165.6,191.2 165.6,191.2 	"/>
	<path class="st0" d="M240,30C124,30,30,124,30,240s94,210,210,210s210-94,210-210S356,30,240,30z M364.1,195.3L314.4,245
		c-1.1,1.1-2.7,1.8-4.3,1.8c-1.6,0-3.1-0.6-4.3-1.8l-10.6-10.5L283,246.8c-1.1,1-2.4,1.6-3.8,1.6s-2.7-0.5-3.8-1.6l-2.9-2.9
		l-10.7,10.7l51.3,51.3h16l20.6,20.6L317.2,359l-20.6-20.6v-16l-51.3-51.3L194,322.3v16l-20.6,20.6L141,326.4l20.6-20.6h16
		l51.4-51.4l-57.8-57.8l-2.7,2.7c-1.1,1.1-2.6,1.7-4,1.7c-1.5,0-2.9-0.6-4-1.7l-0.3-0.3c-20.4,18.4-40.5,56.6-40.7,57
		c-0.7,1.3-2,2.1-3.4,2.1c-0.3,0-0.6,0-0.9-0.1c-1.7-0.4-3-1.9-3-3.7c-0.5-26,4-47.9,27.4-75.9l-0.7-0.7c-2.2-2.2-2.2-5.9,0-8.1
		l8.2-8.2l-5.8-5.8c-1.5-1.5-1.5-4,0-5.5s4-1.5,5.5,0l5.8,5.8l8.2-8.2c2.2-2.2,5.9-2.2,8.1,0l0.7,0.7c28-23.4,49.9-27.8,75.9-27.4
		c1.8,0,3.3,1.3,3.7,3s-0.4,3.5-2,4.3c-0.4,0.2-38.6,20.2-57,40.7l0.3,0.3c2.2,2.2,2.2,5.8,0,8.1l-2.7,2.7l57.8,57.8l10.7-10.7
		l-2.9-2.9c-1-1-1.6-2.4-1.6-3.8c0-1.4,0.6-2.8,1.6-3.8l12.3-12.3L254.8,194c-2.4-2.4-2.4-6.2,0-8.5l49.7-49.7
		c3.4-3.4,8.4-4.7,13.1-3.4l31.7,9c4.5,1.3,7.9,4.7,9.2,9.2l9,31.7C368.8,186.9,367.5,191.9,364.1,195.3z"/>
	
		<rect x="251.4" y="237" transform="matrix(0.7071 -0.7071 0.7071 0.7071 -94.4933 253.6336)" class="st0" width="15.1" height="7.8"/>
	<path class="st0" d="M351,152.7c-0.5-1.9-2-3.3-3.9-3.9l-31.7-9c-2-0.5-4.1,0-5.5,1.4l-48.4,48.4l9.3,9.3l0,0l29.9,29.9l0,0
		l9.3,9.3l48.4-48.4c1.4-1.4,2-3.5,1.4-5.5L351,152.7z M283.9,193.7l-5.5-5.5l33.8-33.8l5.5,5.5L283.9,193.7z"/>
	
		<rect x="267.5" y="211.4" transform="matrix(0.7071 -0.7071 0.7071 0.7071 -78.4277 260.3126)" class="st0" width="15" height="26.8"/>
</g>
</svg>
