<?xml version="1.0" encoding="UTF-8"?>
<svg id="Layer_2" data-name="Layer 2" xmlns="http://www.w3.org/2000/svg" viewBox="0 0 62.12 80">
  <defs>
    <style>
      .cls-1 {
        fill: #4b4b4b;
        stroke-width: 0px;
      }
    </style>
  </defs>
  <g id="Layer_1-2" data-name="Layer 1">
    <g>
      <rect class="cls-1" x="10.09" y="36.15" width="15.02" height="2.16"/>
      <rect class="cls-1" x="13.86" y="41.03" width="7.51" height="2.16"/>
      <path class="cls-1" d="M35.65,80c-9.9,0-18.27-7.73-19.04-17.57v-.14h-2.19c-1.61,0-2.94-1.3-2.94-2.94v-5.79l-.08-.03c-.14-.06-.25-.17-.36-.28l-7.48-8.79c-.17-.19-.25-.44-.25-.69v-12.75H1.08c-.61,0-1.08-.5-1.08-1.08v-7.48c0-.61.5-1.08,1.08-1.08h4.27V4.82C5.35,2.16,7.51,0,10.17,0s4.82,2.16,4.82,4.82v16.55h5.32V4.82c0-2.66,2.16-4.82,4.82-4.82s4.82,2.16,4.82,4.82v16.55h4.27c.61,0,1.08.5,1.08,1.08v7.48c0,.61-.5,1.08-1.08,1.08h-2.3v12.75c0,.25-.08.5-.25.69l-7.48,8.79c-.08.11-.22.19-.36.28l-.08.03v5.79c0,1.61-1.3,2.94-2.91,2.94h-2.11v.14c.39,4.19,2.3,8.07,5.43,10.92,3.13,2.88,7.21,4.46,11.45,4.46h6.54c9.34,0,16.96-7.6,16.96-16.96l.83-31.19,2.16.06-.83,31.16c0,10.53-8.57,19.1-19.13,19.1h-6.51v.03ZM13.61,59.35c0,.42.33.75.75.75h6.49c.42,0,.75-.33.75-.75v-5.71h-7.98v5.71h0ZM5.43,43.35l6.9,8.09h10.53l6.9-8.09v-12.36H5.41v12.36h.03ZM2.13,28.83h31.05v-5.32H2.13v5.32ZM25.17,2.11c-1.47,0-2.66,1.19-2.66,2.66v16.55h5.32V4.77c0-1.44-1.19-2.66-2.66-2.66ZM10.17,2.11c-1.47,0-2.66,1.19-2.66,2.66v16.55h5.32V4.77c0-1.44-1.19-2.66-2.66-2.66Z"/>
    </g>
  </g>
</svg>