<?xml version="1.0" encoding="UTF-8"?>
<svg id="Layer_2" data-name="Layer 2" xmlns="http://www.w3.org/2000/svg" xmlns:xlink="http://www.w3.org/1999/xlink" viewBox="0 0 100 80.83">
  <defs>
    <style>
      .cls-1 {
        clip-path: url(#clippath);
      }

      .cls-2 {
        fill: none;
      }

      .cls-2, .cls-3 {
        stroke-width: 0px;
      }

      .cls-3 {
        fill: #4b4b4b;
      }
    </style>
    <clipPath id="clippath">
      <rect class="cls-2" width="100" height="80.83"/>
    </clipPath>
  </defs>
  <g id="Layer_1-2" data-name="Layer 1">
    <g class="cls-1">
      <g>
        <path class="cls-3" d="M82.43,80.83h-29.79c-3.11,0-5.97-1.7-7.45-4.4l-2.14-3.93c-1.07-1.98-3.14-3.21-5.41-3.21h-13.83c-5.37,0-8.58-4.05-8.58-10.81V14.17c0-3.3,2.67-5.97,5.97-5.97h58.52c3.3,0,5.97,2.67,5.97,5.97v36.02h8.61c3.11,0,5.66,2.55,5.66,5.66s-2.55,5.66-5.66,5.66h-5.63v13.04c.03,3.46-2.8,6.29-6.25,6.29h0ZM21.21,10.56c-2.01,0-3.61,1.63-3.61,3.61v44.31c0,3.14.82,8.45,6.22,8.45h13.83c3.11,0,5.97,1.7,7.45,4.4l2.14,3.93c1.07,1.98,3.14,3.21,5.41,3.21h29.79c2.17,0,3.93-1.76,3.93-3.93v-14.24c0-.66.53-1.16,1.16-1.16h6.82c1.82,0,3.3-1.48,3.3-3.3s-1.48-3.3-3.3-3.3h-9.81c-.66,0-1.16-.53-1.16-1.16V14.2c0-2.01-1.63-3.61-3.61-3.61H21.21v-.03Z"/>
        <path class="cls-3" d="M79.76,24.98H21.21c-3.3,0-5.97-2.67-5.97-5.97v-4.81c0-3.3,2.67-5.97,5.97-5.97h58.52c3.3,0,5.97,2.67,5.97,5.97v4.81c.03,3.3-2.64,5.97-5.94,5.97h0ZM21.21,10.56c-2.01,0-3.61,1.63-3.61,3.61v4.81c0,2.01,1.63,3.61,3.61,3.61h58.52c2.01,0,3.61-1.63,3.61-3.61v-4.81c0-2.01-1.63-3.61-3.61-3.61H21.21Z"/>
        <path class="cls-3" d="M36.58,10.56h-11.09c-.66,0-1.16-.53-1.16-1.16v-5.22c0-2.29,1.89-4.18,4.18-4.18h5.09c2.29,0,4.18,1.89,4.18,4.18v5.22c0,.66-.53,1.16-1.19,1.16h0ZM26.68,8.2h8.74v-4.05c0-1.01-.82-1.82-1.82-1.82h-5.09c-1.01,0-1.82.82-1.82,1.82v4.05h0Z"/>
        <path class="cls-3" d="M55.72,10.56h-11.09c-.66,0-1.16-.53-1.16-1.16v-5.22c0-2.29,1.89-4.18,4.18-4.18h5.09c2.29,0,4.18,1.89,4.18,4.18v5.22c0,.66-.53,1.16-1.19,1.16h0ZM45.79,8.2h8.74v-4.05c0-1.01-.82-1.82-1.82-1.82h-5.09c-1.01,0-1.82.82-1.82,1.82v4.05h0Z"/>
        <path class="cls-3" d="M74.86,10.56h-11.09c-.66,0-1.16-.53-1.16-1.16v-5.22c0-2.29,1.89-4.18,4.18-4.18h5.09c2.29,0,4.18,1.89,4.18,4.18v5.22c-.03.66-.53,1.16-1.19,1.16h0ZM64.93,8.2h8.74v-4.05c0-1.01-.82-1.82-1.82-1.82h-5.09c-1.01,0-1.82.82-1.82,1.82v4.05h0Z"/>
        <path class="cls-3" d="M4.97,63.14C2.23,63.14,0,60.91,0,58.17,0,51.32,1.07,44.5,3.21,37.99l.31-1.01c.16-.47.6-.82,1.13-.82h4.09c.66,0,1.16.53,1.16,1.16v20.84c.03,2.73-2.2,4.97-4.93,4.97ZM5.53,38.53l-.06.19c-2.04,6.29-3.11,12.82-3.11,19.45,0,1.45,1.16,2.61,2.61,2.61s2.61-1.16,2.61-2.61v-19.64h-2.04Z"/>
        <path class="cls-3" d="M8.74,38.53h-4.09c-.5,0-.97-.31-1.13-.82l-.31-1.01C1.07,30.17,0,23.38,0,16.53c0-2.73,2.23-4.97,4.97-4.97s4.97,2.23,4.97,4.97v20.8c0,.66-.53,1.19-1.19,1.19ZM5.53,36.17h2.04v-19.64c0-1.45-1.16-2.61-2.61-2.61s-2.61,1.16-2.61,2.61c0,6.63,1.04,13.17,3.11,19.45l.06.19h0Z"/>
        <path class="cls-3" d="M94.34,61.5h-52.2c-9.4,0-17.03-7.64-17.03-17.03v-9.4c0-3.11,2.55-5.66,5.66-5.66s5.66,2.55,5.66,5.66v9.4c0,3.17,2.58,5.72,5.72,5.72h3.08c-.66-1.82-1.01-3.74-1.01-5.72v-9.4c0-3.11,2.55-5.66,5.66-5.66s5.66,2.55,5.66,5.66v9.4c0,3.17,2.58,5.72,5.72,5.72h3.08c-.66-1.82-1.01-3.74-1.01-5.72v-9.4c0-3.11,2.55-5.66,5.66-5.66s5.66,2.55,5.66,5.66v9.4c0,3.17,2.58,5.72,5.72,5.72h13.95c3.11,0,5.66,2.55,5.66,5.66.03,3.11-2.51,5.66-5.63,5.66ZM30.77,31.8c-1.82,0-3.3,1.48-3.3,3.3v9.4c0,8.08,6.57,14.68,14.68,14.68h52.2c1.82,0,3.3-1.48,3.3-3.3s-1.48-3.3-3.3-3.3h-13.95c-4.46,0-8.08-3.61-8.08-8.08v-9.4c0-1.82-1.48-3.3-3.3-3.3s-3.3,1.48-3.3,3.3v9.4c0,2.23.5,4.37,1.48,6.38.19.38.16.79-.06,1.13s-.6.57-1.01.57h-4.87c-4.46,0-8.08-3.61-8.08-8.08v-9.4c0-1.82-1.48-3.3-3.3-3.3s-3.3,1.48-3.3,3.3v9.4c0,2.23.5,4.37,1.48,6.38.19.38.16.79-.06,1.13s-.6.57-1.01.57h-4.84c-4.46,0-8.08-3.61-8.08-8.08v-9.4c0-1.82-1.51-3.3-3.3-3.3Z"/>
        <path class="cls-3" d="M31.05,14.64c-1.07,0-1.95.88-1.95,1.95s.88,1.95,1.95,1.95,1.95-.88,1.95-1.95-.88-1.95-1.95-1.95Z"/>
        <path class="cls-3" d="M50.16,18.57c1.07,0,1.95-.88,1.95-1.95s-.88-1.95-1.95-1.95-1.95.88-1.95,1.95.88,1.95,1.95,1.95Z"/>
        <path class="cls-3" d="M69.3,18.57c1.07,0,1.95-.88,1.95-1.95s-.88-1.95-1.95-1.95-1.95.88-1.95,1.95c0,1.07.88,1.95,1.95,1.95Z"/>
        <path class="cls-3" d="M16.44,38.53H2.01c-.66,0-1.16-.53-1.16-1.16,0-.66.53-1.16,1.16-1.16h14.39c.66,0,1.16.53,1.16,1.16.03.63-.5,1.16-1.13,1.16h0Z"/>
      </g>
    </g>
  </g>
</svg>