<svg xmlns="http://www.w3.org/2000/svg" width="32" height="32" viewBox="0 0 32 32" fill="none">
<g clip-path="url(#clip0_7509_14058)">
<path d="M16 32C24.8366 32 32 24.8366 32 16C32 7.16344 24.8366 0 16 0C7.16344 0 0 7.16344 0 16C0 24.8366 7.16344 32 16 32Z" fill="white"/>
<path d="M26 16.3197C26 10.965 21.659 6.62402 16.304 6.62402C10.949 6.62402 6.60834 10.965 6.60834 16.3197C6.60834 20.8669 9.73872 24.6823 13.9619 25.73V19.2825H11.9624V16.3197H13.9619V15.0431C13.9619 11.7428 15.4553 10.2134 18.6953 10.2134C19.3096 10.2134 20.3696 10.3338 20.803 10.4542V13.1402C20.574 13.116 20.1767 13.1041 19.6828 13.1041C18.0929 13.1041 17.4786 13.7062 17.4786 15.272V16.3197H20.6456L20.1017 19.2825H17.4789V25.9444C22.2797 25.3647 26 21.2768 26 16.3197Z" fill="#1A1A1A"/>
</g>
<defs>
<clipPath id="clip0_7509_14058">
<rect width="32" height="32" fill="white"/>
</clipPath>
</defs>
</svg>