<?xml version="1.0" encoding="utf-8"?>
<!-- Generator: Adobe Illustrator 28.1.0, SVG Export Plug-In . SVG Version: 6.00 Build 0)  -->
<svg version="1.1" id="Layer_1" xmlns="http://www.w3.org/2000/svg" xmlns:xlink="http://www.w3.org/1999/xlink" x="0px" y="0px"
	 viewBox="0 0 480 480" style="enable-background:new 0 0 480 480;" xml:space="preserve">
<style type="text/css">
	.st0{fill:#FFFFFF;}
</style>
<circle cx="240" cy="240" r="190"/>
<g>
	<path class="st0" d="M242.9,275l1.5-0.7c15.5-7.3,32.3-13,49.9-17H191.5C209.8,261.6,227.1,267.6,242.9,275z"/>
	<path class="st0" d="M194.6,172c4.1,0,7.5-3.4,7.5-7.5s-3.4-7.5-7.5-7.5s-7.5,3.4-7.5,7.5S190.4,172,194.6,172z"/>
	<path class="st0" d="M240,30C124,30,30,124,30,240s94,210,210,210s210-94,210-210S356,30,240,30z M299.1,194.3
		c1.4-11,10.8-19.5,22.2-19.5c12,0,21.9,9.6,22.4,21.5c10.2,3.3,16.9,13.7,15.1,24.6c-1.6,9.8-9.6,17.4-19.4,18.5l-0.8-7.4
		c6.6-0.7,11.9-5.8,12.9-12.3c0.6-3.9-0.3-7.8-2.6-11c-1.6-2.2-3.7-3.9-6.2-4.9c-0.6,2.1-1.6,4-2.8,5.9l-6.1-4.2
		c1.7-2.5,2.5-5.4,2.5-8.4c0-8.3-6.7-15-15-15c-7,0-12.9,4.8-14.5,11.4c2.4,0.2,4.7,0.7,6.9,1.7l-2.9,6.8c-1.8-0.8-3.7-1.2-5.7-1.2
		c-8.1,0-14.7,6.6-14.7,14.7c0,8.1,6.6,14.7,14.7,14.7v7.4c-12.2,0-22.1-9.9-22.1-22.1C283,205.5,289.8,196.9,299.1,194.3z
		 M223.3,138.1c7.2,0,13.5,4,16.8,10.1c2.6-1.8,5.6-2.8,8.9-2.8c8.7,0,15.9,7.1,15.9,15.9c0,8.7-7.1,15.9-15.9,15.9h-22.8v-7.4H249
		c4.7,0,8.4-3.8,8.4-8.4c0-4.7-3.8-8.4-8.4-8.4c-2.9,0-5.6,1.6-7.1,4.3c-0.8,1.3-2.3,2-3.9,1.8c-1.5-0.3-2.7-1.5-3-3.1
		c-0.9-6-5.8-10.3-11.6-10.3c-3.2,0-6.3,1.3-8.5,3.5l-5.2-5.2C213.2,140.2,218.1,138.1,223.3,138.1z M222.4,187l-5.2,5.2l-9.1-9.1
		l5.2-5.2L222.4,187z M190.9,128.9h7.4v12.9h-7.4V128.9z M194.6,149.5c8.2,0,14.9,6.7,14.9,14.9s-6.7,14.9-14.9,14.9
		s-14.9-6.7-14.9-14.9C179.7,156.2,186.3,149.5,194.6,149.5z M198.3,187.1V200h-7.4v-12.9H198.3z M181.2,183.1l-9.1,9.1l-5.2-5.2
		l9.1-9.1L181.2,183.1z M172,136.7l9.1,9.1L176,151l-9.1-9.1L172,136.7z M159,160.7h12.9v7.4H159V160.7z M142.8,217.1l14.7,8.1
		l17.5-13.9l21.4,11.7l19.5-20.5l24.7,21.4l10-4.8l19.4,13.7l-4.3,6.1l-15.9-11.2l-10.4,5l-23-19.9L202,227.9l-2.7,5l-1.3-0.7
		l-5.9,6.2l-5.4-5.1l4.5-4.7l-15.4-8.4l-17.5,13.9l-15-8.3l-18.9,13.1l-4.2-6.1L142.8,217.1z M253,351.1l-2.7-2.6
		c-28.4-27.4-78.4-44.4-130.5-44.4h-3.7v-7.4h3.7c53.9,0,105.9,17.8,135.7,46.4l2.7,2.6L253,351.1z M282.4,351.1l-2.1-3
		c-28.2-40.2-92.7-67.3-160.5-67.3h-3.7v-7.4h3.7c71.2,0,136.6,27.6,166.5,70.4l2.1,3L282.4,351.1z M366,257.3h-2h-3.7
		c-39,0-76.5,7.6-108.9,22c6.1,3.2,11.9,6.7,17.5,10.4l2.8-1c27.2-10,57.8-15.3,88.5-15.3h3.7v7.4h-3.7c-29.1,0-58.1,4.9-83.9,14.1
		c5.2,3.8,10.1,7.8,14.6,12l1.7-0.5c21.6-6.3,44.3-9.6,67.6-9.6h3.7v7.4h-3.7c-21.4,0-43.2,3-63.2,8.6c9.4,9.6,17.1,20.1,22.9,31.4
		l1.7,3.3l-6.6,3.4l-1.7-3.3c-27.7-54-103.1-90.3-187.7-90.3H122h-8v-7.4h8h3.7h191.9v-36.6h7.4v36.6h35.3h3.7h2L366,257.3
		L366,257.3z"/>
</g>
</svg>
