<?xml version="1.0" encoding="utf-8"?>
<!-- Generator: Adobe Illustrator 28.1.0, SVG Export Plug-In . SVG Version: 6.00 Build 0)  -->
<svg version="1.1" id="Layer_1" xmlns="http://www.w3.org/2000/svg" xmlns:xlink="http://www.w3.org/1999/xlink" x="0px" y="0px"
	 viewBox="0 0 480 480" style="enable-background:new 0 0 480 480;" xml:space="preserve">
<style type="text/css">
	.st0{fill:#FFFFFF;}
</style>
<circle cx="240" cy="240" r="190"/>
<g>
	<path class="st0" d="M305.1,347H175.2c-0.6,0-1.1,0.5-1.1,1.1v13.4c0,0.6,0.5,1.1,1.1,1.1h129.9c0.6,0,1.1-0.5,1.1-1.1v-13.4
		C306.3,347.5,305.8,347,305.1,347z"/>
	<path class="st0" d="M214.4,228.6c1-1.5,1.9-2.9,3.1-4.2c1.5-1.6,3.8-2.8,6.2-3.3c-0.1-9.9-1.4-41.1-12.7-58.8
		c-1.4,1.7-2.7,3.7-3.7,5.8l-1.5,3.1c-2.6,5.3-5.2,10.8-8.8,15.8l-5.3,7.4c4.1,5.6,16.5,23.3,18.4,39.6
		C211.9,232.4,213.2,230.4,214.4,228.6z M209.2,200.1c-0.3-0.3-0.6-0.7-0.8-1.2c-0.2-0.3-0.3-0.8-0.3-1.4c0-0.4,0.1-1,0.3-1.5
		c0.1-0.4,0.4-0.8,0.8-1.2c0.3-0.3,0.7-0.6,1.2-0.8c0.4-0.2,0.9-0.3,1.4-0.3c1,0,2,0.4,2.7,1.1c0.7,0.7,1.1,1.6,1.1,2.6
		c0,0.6-0.1,1-0.3,1.5c-0.1,0.3-0.4,0.8-0.7,1.1c-0.7,0.7-1.7,1.1-2.7,1.1c-0.4,0-1-0.1-1.5-0.3C210,200.8,209.6,200.5,209.2,200.1z
		"/>
	<path class="st0" d="M173.4,174.9l0.5-7.5l1,0.1c6.9,0.5,14.5,6.8,18.6,10.9c0.7-1.2,1.4-2.4,2.1-3.9c-2.3-5.6-11.6-22.8-39-22.8
		c-1.1,0-2.3,0-3.4,0.1c-0.2,6,0.4,19.9,8.6,29.2c5.3,6,13.1,9.3,23.2,9.6l4.2-5.9c-2.5-2.6-9.8-9.4-15-9.8L173.4,174.9z"/>
	<path class="st0" d="M277.2,130.7c-4.3,7.4-10,13.5-14.3,17.7c2.8,1.2,5.3,2.8,7.6,4.7C275.6,146.7,277.1,137.7,277.2,130.7z"/>
	<path class="st0" d="M217.2,148.4c-4.4-4.1-10.1-10.3-14.4-17.7c0.2,7,1.6,16,6.8,22.4C211.8,151.2,214.4,149.6,217.2,148.4z"/>
	<path class="st0" d="M231.2,222.2c0.8,0.4,1.5,0.9,2.1,1.5c1.7,1.6,3,1.9,4.7,1.9c0.3,0,0.6,0,0.9,0h0.9h1c0.3,0,0.6,0,0.9,0
		c1.5,0,2.8-0.1,4.7-1.8c0.7-0.7,1.6-1.2,2.4-1.7c0.1-10.8,1.4-45.7,14.6-64.8c-7.7-5.1-17-5.1-23.2-5.1l0,0c-6.3,0-15.7,0-23.5,5.1
		C229.9,176.4,231.1,211.4,231.2,222.2z"/>
	<path class="st0" d="M220.6,271.3c1.6,3.2,3.6,7.5,4.5,11.2l14.9,2.1c0.1,0,0.1,0,0.2,0c0.1,0,0.1,0,0.2,0l14.6-1.9
		c1-3.8,3.1-8.1,4.7-11.3c-5.6-1.9-13.4-4-19.8-4C233.7,267.5,226.1,269.5,220.6,271.3z"/>
	<path class="st0" d="M274.2,171.1l-1.5-3.1c-1.1-2.1-2.3-4.1-3.7-5.8c-11.3,17.7-12.6,49-12.7,58.9c2.3,0.5,4.5,1.7,5.9,3.2
		c1.2,1.3,2.1,2.7,3,4.1c1.3,2,2.6,4.1,4.7,5.7c1.8-16.4,14.2-34.3,18.4-39.9l-5.3-7.4C279.5,181.9,276.8,176.4,274.2,171.1z
		 M271.6,198.9c-0.3,0.6-0.6,1-0.8,1.3c-0.7,0.7-1.6,1.1-2.6,1.1c-0.5,0-1-0.1-1.5-0.3s-0.9-0.5-1.2-0.8c-0.7-0.7-1.1-1.7-1.1-2.6
		c0-0.4,0.1-0.8,0.3-1.4c0.2-0.4,0.5-0.9,0.8-1.3c0.3-0.3,0.7-0.7,1.3-0.8c0.4-0.2,0.9-0.3,1.4-0.3c1,0,2,0.4,2.7,1.1
		c0.3,0.3,0.6,0.7,0.8,1.1c0.2,0.7,0.3,1.1,0.3,1.5C271.9,198.1,271.7,198.5,271.6,198.9z"/>
	<path class="st0" d="M323.4,151.8c-5,0-30,1.1-39.1,22.8c0.8,1.5,1.6,2.9,2.3,4.2c4.2-4.2,11.9-10.7,19-11.2l1-0.1l0.5,7.5l-1,0.1
		c-4.3,0.3-10.7,5.4-15.3,10.1l4,5.6c10.1-0.4,17.9-3.6,23.2-9.6c8.2-9.3,8.8-23.2,8.6-29.2C325.5,151.8,324.4,151.8,323.4,151.8z"
		/>
	<path class="st0" d="M240,30C124,30,30,124,30,240s94,210,210,210s210-94,210-210S356,30,240,30z M314.2,361.5c0,5-4.1,9.1-9.1,9.1
		H175.2c-5,0-9.1-4.1-9.1-9.1v-13.4c0-5,4.1-9.1,9.1-9.1h129.9c5,0,9.1,4.1,9.1,9.1L314.2,361.5L314.2,361.5z M281.3,324.5
		c-2,0-4,0.7-5.9,2.1c-0.7,0.5-1.5,0.8-2.4,0.8c-0.5,0-1-0.1-1.4-0.3c-1.3-0.5-2.2-1.6-2.5-2.9c-0.9-4.6-4.7-7.8-9.1-7.8
		c-1.5,0-3.1,0.5-4.9,1.6c-0.6,0.4-1.3,0.6-2.1,0.6c-0.5,0-1-0.1-1.5-0.3c-1.2-0.5-2-1.5-2.3-2.8c-1-4.4-4.8-7.5-9.1-7.5
		s-8,3.1-9.1,7.5c-0.3,1.2-1.2,2.3-2.3,2.8c-0.5,0.2-1,0.3-1.5,0.3c-0.7,0-1.5-0.2-2.1-0.6c-1.8-1.1-3.3-1.6-4.9-1.6
		c-4.5,0-8.2,3.2-9.1,7.8c-0.3,1.3-1.2,2.4-2.5,2.9c-0.5,0.2-0.9,0.3-1.4,0.3c-0.9,0-1.7-0.3-2.4-0.8c-1.9-1.4-3.8-2.1-5.9-2.1
		c-5,0-9.3,4.4-9.3,9.6v1h-7.9v-1c0-9.7,7.9-17.5,17.5-17.5c2,0,3.9,0.4,5.8,1.1c3-5.7,8.8-9.3,14.9-9.3c1.7,0,3.4,0.3,5,0.8
		c3-5.6,8.8-9.1,15.1-9.1s12.1,3.5,15.1,9.1c1.7-0.5,3.4-0.8,5.1-0.8c6.2,0,12,3.6,14.9,9.3c1.9-0.7,3.8-1.1,5.8-1.1
		c9.7,0,17.5,7.9,17.5,17.5v1h-7.9v-1C290.6,328.9,286.4,324.5,281.3,324.5z M323.7,186c-6.8,7.7-16.5,11.8-28.9,12.2
		c-3.2,4.3-17.2,23.8-17.6,39.3c0.5,0.1,1,0.2,1.5,0.3c4.1,0.6,7.1,3.8,7.1,7.7c0,7.2-1.3,20.3-9.2,27.6c-1.4,1.3-3.4,2.1-5.5,2.1
		c-1.2,0-2.3-0.2-3.4-0.7c-0.3-0.1-0.5-0.2-0.8-0.3c-1.4,2.7-3.6,7.2-4.3,10.6c-0.6,2.9-2.9,5-5.9,5.4l-15.3,1.9
		c-0.4,0-0.7,0.1-1.1,0.1c-0.4,0-0.7,0-1.1-0.1l-15.3-1.9c-3-0.4-5.3-2.6-5.9-5.4c-0.7-3.4-3-8.1-4.4-10.8c-0.5,0.2-1,0.4-1.4,0.5
		c-1.1,0.5-2.3,0.7-3.4,0.7c-2.1,0-4-0.7-5.5-2.1c-7.9-7.3-9.2-20.4-9.2-27.6c0-3.9,3-7.2,7.1-7.7c0.6-0.1,1.2-0.2,1.8-0.3
		c-0.4-15.5-14.4-35-17.6-39.2c-12.4-0.4-22.1-4.5-28.9-12.2c-13-14.7-10.3-37.1-10.2-38.1l0.4-3l3-0.3c2.4-0.2,4.8-0.3,7.1-0.3
		c25.4,0,37.8,13.5,43.2,22.1l0.8-1.6c1.1-2.2,2.4-4.3,3.8-6.2c-14.2-16.5-7.6-45.1-7.3-46.3c0.4-1.7,1.9-2.9,3.6-2.9
		c0.1,0,0.2,0,0.3,0c1.8,0.1,3.3,1.6,3.4,3.4c1.2,14.7,16.1,28.7,21,32.9c5.6-1.1,10.8-1.1,14.7-1.1c3.8,0,9,0,14.4,1.1
		c4.9-4.2,19.8-18.2,21-32.9c0.1-1.8,1.6-3.3,3.4-3.4c0.1,0,0.2,0,0.3,0c1.7,0,3.2,1.2,3.6,2.9c0.3,1.2,6.9,29.9-7.3,46.3
		c1.4,1.9,2.7,4,3.8,6.2l0.8,1.6c5.3-8.6,17.8-22.1,43.2-22.1c2.3,0,4.7,0.1,7.1,0.3l3,0.3l0.4,3C334,148.8,336.7,171.2,323.7,186z"
		/>
	<path class="st0" d="M259,232.6c-0.8-1.2-1.6-2.4-2.3-3.2c-0.4-0.4-1.6-1.1-3-1.1c-0.9,0-1.7,0.3-2.3,0.9c-3.7,3.3-7.1,3.8-9.7,3.8
		c-0.4,0-0.8,0-1.1,0h-0.8h-0.7c-0.3,0-0.7,0-1.1,0c-2.5,0-5.9-0.4-9.7-3.8c-0.6-0.6-1.4-0.9-2.3-0.9c-1.4,0-2.7,0.7-3,1.1
		c-0.8,0.8-1.5,2-2.3,3.2c-3,4.6-7.1,10.8-18.6,12.5c-0.3,0.1-0.6,0.2-0.6,0.3c0,4.8,0.7,16.5,6.8,22.1c0.1,0.1,0.2,0.1,0.4,0.1
		s0.4,0,0.6-0.1c5.5-2.3,19.6-7.5,30.5-7.5c11,0,25,5.3,30.5,7.5c0.2,0.1,0.4,0.1,0.6,0.1s0.4-0.1,0.4-0.1
		c6.1-5.6,6.8-17.4,6.8-22.1c0-0.1-0.3-0.2-0.6-0.3C266.1,243.5,262,237.2,259,232.6z M232.2,248.5c-0.1,0.3-0.4,0.8-0.7,1.1
		c-0.7,0.7-1.7,1.1-2.7,1.1c-0.4,0-0.9-0.1-1.5-0.3c-0.4-0.1-0.8-0.4-1.2-0.8c-0.3-0.3-0.7-0.7-0.8-1.2c-0.2-0.4-0.3-1-0.3-1.4
		c0-1,0.4-2,1.1-2.7c0.3-0.3,0.8-0.6,1.3-0.8c0.4-0.2,0.8-0.3,1.4-0.3c1,0,2,0.4,2.7,1c0.7,0.8,1.1,1.7,1.1,2.7
		C232.5,247.4,232.5,247.9,232.2,248.5z M254.4,248.3c-0.2,0.5-0.5,1-0.9,1.3c-0.6,0.6-1.6,1-2.5,1s-1.9-0.4-2.6-1.1
		c-0.4-0.4-0.7-0.9-0.8-1.3c-0.2-0.4-0.3-1-0.3-1.3c0-0.6,0.1-1,0.3-1.5c0.1-0.3,0.4-0.8,0.7-1.1c0.7-0.7,1.7-1.1,2.7-1.1
		s2,0.4,2.7,1.1c0.4,0.3,0.6,0.8,0.8,1.1v0.1c0.1,0.4,0.3,0.9,0.3,1.4C254.7,247.4,254.5,247.9,254.4,248.3z"/>
</g>
</svg>
