<!-- Generated by IcoMoon.io -->
<svg version="1.1" xmlns="http://www.w3.org/2000/svg" viewBox="0 0 1133 1024">
<title></title>
<g id="icomoon-ignore">
</g>
<path d="M275.492 972.020h36.386v51.98h-36.386v-51.98zM181.929 732.914l25.99 25.99 67.574-72.772v228.711h36.386v-228.711l72.772 72.772 20.792-25.99-109.157-114.355-114.355 114.355zM821.279 473.015c57.178 0 98.761-46.782 98.761-98.761h-36.386c0 31.188-25.99 62.376-62.376 62.376s-62.376-25.99-62.376-62.376h-36.386c0 51.98 41.584 98.761 98.761 98.761zM535.391 72.772c-62.376-67.574-171.533-72.772-239.107-15.594-72.772-57.178-176.731-51.98-244.305 15.594-31.188 31.188-51.98 77.97-51.98 124.751 0 51.98 20.792 98.761 57.178 135.147 77.97 77.97 223.513 218.315 228.711 218.315l10.396 10.396 10.396-10.396c5.198-5.198 150.741-140.345 228.711-218.315 36.386-36.386 57.178-83.168 57.178-135.147 0-46.782-20.792-93.563-57.178-124.751zM509.401 306.68c-62.376 62.376-176.731 171.533-213.117 207.919-36.386-36.386-150.741-145.543-213.117-207.919-31.188-31.188-46.782-67.574-46.782-109.157 0-36.386 15.594-72.772 41.584-103.959 57.178-57.178 150.741-57.178 202.721 0l15.594 15.594 15.594-15.594c57.178-57.178 150.741-57.178 202.721 0 25.99 25.99 41.584 62.376 41.584 103.959s-20.792 77.97-46.782 109.157v0zM1091.574 337.868c-36.386-197.523-202.721-337.868-405.442-337.868h-51.98v36.386h51.98c181.929 0 337.868 129.949 369.056 311.878l36.386 280.69h-124.751v202.721h-233.909v140.345h36.386v-103.959h233.909v-202.721h129.949l-41.584-327.472z"></path>
</svg>
