<?xml version="1.0" encoding="utf-8"?>
<!-- Generator: Adobe Illustrator 28.1.0, SVG Export Plug-In . SVG Version: 6.00 Build 0)  -->
<svg version="1.1" id="Layer_1" xmlns="http://www.w3.org/2000/svg" xmlns:xlink="http://www.w3.org/1999/xlink" x="0px" y="0px"
	 viewBox="0 0 480 480" style="enable-background:new 0 0 480 480;" xml:space="preserve">
<style type="text/css">
	.st0{fill:#FFFFFF;}
</style>
<circle cx="240" cy="240" r="190"/>
<g>
	<path class="st0" d="M240,30C124,30,30,124,30,240s94,210,210,210s210-94,210-210S356,30,240,30z M376.4,355.6H103.6V124.4h148.1
		v62.3h34.9v23.4h-58.3v-62.3H127V267h52.5v-63.2h23.4v86.6H127v41.9h101.3v-92.9h23.4v46.8H276v23.4h-24.3v22.7H353v-70.7h-74.2
		v-23.4H353v-28h-33.8v-23.4h57.2L376.4,355.6L376.4,355.6z"/>
	<polygon class="st0" points="360.8,245.9 286.6,245.9 286.6,253.7 360.8,253.7 360.8,340 243.9,340 243.9,301.7 268.2,301.7 
		268.2,293.9 243.9,293.9 243.9,247.1 236.1,247.1 236.1,340 119.2,340 119.2,282.6 195.1,282.6 195.1,211.6 187.3,211.6 
		187.3,274.8 119.2,274.8 119.2,140 236.1,140 236.1,202.3 278.8,202.3 278.8,194.5 243.9,194.5 243.9,132.2 111.4,132.2 
		111.4,347.8 368.6,347.8 368.6,194.5 327,194.5 327,202.3 360.8,202.3 	"/>
</g>
</svg>
