<?xml version="1.0" encoding="UTF-8"?>
<svg id="Layer_2" data-name="Layer 2" xmlns="http://www.w3.org/2000/svg" viewBox="0 0 59.68 82.46">
  <defs>
    <style>
      .cls-1 {
        fill: none;
        stroke: #4b4b4b;
        stroke-miterlimit: 10;
        stroke-width: 2.46px;
      }
    </style>
  </defs>
  <g id="Layer_1-2" data-name="Layer 1">
    <g>
      <rect class="cls-1" x="19.18" y="4" width="21.31" height="12.9"/>
      <rect class="cls-1" x="26.05" y="34.83" width="7.61" height="12.9"/>
      <path class="cls-1" d="M10.01,19.71H3.05c-1.02,0-1.82-.8-1.82-1.82V3.05c0-1.02.8-1.82,1.82-1.82h6.96c1.02,0,1.82.8,1.82,1.82v14.84c0,.99-.8,1.82-1.82,1.82Z"/>
      <line class="cls-1" x1="19.18" y1="10.47" x2="11.82" y2="10.47"/>
      <path class="cls-1" d="M49.67,19.71h6.96c1.02,0,1.82-.8,1.82-1.82V3.05c0-1.02-.8-1.82-1.82-1.82h-6.96c-1.02,0-1.82.8-1.82,1.82v14.84c0,.99.8,1.82,1.82,1.82Z"/>
      <line class="cls-1" x1="40.49" y1="10.47" x2="47.85" y2="10.47"/>
      <path class="cls-1" d="M10.01,81.23H3.05c-1.02,0-1.82-.8-1.82-1.82v-14.84c0-1.02.8-1.82,1.82-1.82h6.96c1.02,0,1.82.8,1.82,1.82v14.84c0,.99-.8,1.82-1.82,1.82Z"/>
      <line class="cls-1" x1="19.18" y1="71.99" x2="11.82" y2="71.99"/>
      <path class="cls-1" d="M49.67,81.23h6.96c1.02,0,1.82-.8,1.82-1.82v-14.84c0-1.02-.8-1.82-1.82-1.82h-6.96c-1.02,0-1.82.8-1.82,1.82v14.84c0,.99.8,1.82,1.82,1.82Z"/>
      <line class="cls-1" x1="40.49" y1="71.99" x2="47.85" y2="71.99"/>
      <polyline class="cls-1" points="34.52 16.94 34.52 22.23 29.84 25.31 25.16 22.23 25.16 16.94"/>
      <rect class="cls-1" x="19.18" y="66.95" width="21.31" height="8.13"/>
      <polyline class="cls-1" points="25.16 66.97 25.16 61.65 29.84 58.57 34.52 61.65 34.52 66.97"/>
      <line class="cls-1" x1="29.84" y1="47.73" x2="29.84" y2="58.57"/>
      <line class="cls-1" x1="29.84" y1="25.31" x2="29.84" y2="34.83"/>
    </g>
  </g>
</svg>