<?xml version="1.0" encoding="utf-8"?>
<!-- Generator: Adobe Illustrator 28.1.0, SVG Export Plug-In . SVG Version: 6.00 Build 0)  -->
<svg version="1.1" id="Layer_1" xmlns="http://www.w3.org/2000/svg" xmlns:xlink="http://www.w3.org/1999/xlink" x="0px" y="0px"
	 viewBox="0 0 480 480" style="enable-background:new 0 0 480 480;" xml:space="preserve">
<style type="text/css">
	.st0{fill:#FFFFFF;}
</style>
<circle cx="240" cy="240" r="190"/>
<g>
	<polygon class="st0" points="255.7,163.7 271.9,163.7 239.8,117.6 207.5,163.7 224.3,163.7 224.3,224.4 163.6,224.4 163.6,205.4 
		117.3,240.2 163.6,272.6 163.6,255.8 224.3,255.8 224.3,316.4 205.4,316.4 240.1,362.8 272.5,316.4 255.7,316.4 255.7,255.8 
		316.4,255.8 316.4,274.7 362.7,240 316.4,207.6 316.4,224.4 255.7,224.4 	"/>
	<path class="st0" d="M240,30C124,30,30,124,30,240s94,210,210,210s210-94,210-210S356,30,240,30z M308.5,290.4v-26.8h-45v45h24.1
		l-47.3,67.5l-50.6-67.5h26.8v-45h-45v24.1L104,240.4l67.5-50.6v26.8h45v-45h-24.1l47.4-67.7l47.1,67.7h-23.4v45h45v-24.1l67.5,47.3
		L308.5,290.4z"/>
</g>
</svg>
