<?xml version="1.0" encoding="utf-8"?>
<!-- Generator: Adobe Illustrator 28.1.0, SVG Export Plug-In . SVG Version: 6.00 Build 0)  -->
<svg version="1.1" id="Layer_1" xmlns="http://www.w3.org/2000/svg" xmlns:xlink="http://www.w3.org/1999/xlink" x="0px" y="0px"
	 viewBox="0 0 480 480" style="enable-background:new 0 0 480 480;" xml:space="preserve">
<style type="text/css">
	.st0{fill:#FFFFFF;}
</style>
<circle cx="240" cy="240" r="190"/>
<g>
	<path class="st0" d="M220.7,301.9l1.3-2.2c2.7-4.4,4.7-9.1,5.8-14l0.6-2.5l20.2-2.6v-11.8l-20.2-2.6l-0.6-2.5
		c-1.2-4.9-3.1-9.6-5.8-14l-1.3-2.2l12.4-16.1l-8.3-8.3l-16.1,12.4l-2.2-1.3c-4.4-2.7-9.1-4.7-14-5.8l-2.5-0.6l-2.6-20.1h-11.8
		l-2.6,20.1l-2.5,0.6c-4.9,1.2-9.6,3.1-14,5.8l-2.2,1.3l-16.1-12.4l-8.3,8.3l12.4,16.1l-1.3,2.2c-2.7,4.4-4.7,9.1-5.8,14l-0.6,2.5
		l-20.2,2.6v11.8l20.2,2.6l0.6,2.5c1.2,4.9,3.1,9.6,5.8,14l1.3,2.2L130,318l8.3,8.3l16.1-12.4l2.2,1.3c4.4,2.7,9.1,4.7,14,5.8
		l2.5,0.6l2.6,20.2h11.8l2.6-20.2l2.5-0.6c4.9-1.2,9.6-3.1,14-5.8l2.2-1.3l16.1,12.4l8.3-8.3L220.7,301.9z M181.6,301L181.6,301
		c-14.5,0-26.2-11.8-26.2-26.2c0-14.4,11.7-26.2,26.2-26.2l0,0c14.4,0,26.2,11.8,26.2,26.2C207.7,289.2,196,300.9,181.6,301z"/>
	<path class="st0" d="M181.6,256c-10.4,0-18.8,8.4-18.8,18.8s8.4,18.8,18.8,18.8s18.8-8.4,18.8-18.8S191.9,256,181.6,256z"/>
	<circle class="st0" cx="305.3" cy="198.5" r="18.5"/>
	<path class="st0" d="M240,30C124,30,30,124,30,240s94,210,210,210s210-94,210-210S356,30,240,30z M268.4,121l-1.7,7.2
		c-55.4-12.9-112.6,17.4-133,70.3l-6.9-2.7C148.6,139.5,209.4,107.3,268.4,121z M196.8,327.6l-2.8,21.6h-24.8l-2.8-21.6
		c-4-1.1-7.8-2.7-11.5-4.8l-17.3,13.3l-17.5-17.5l13.3-17.3c-2-3.7-3.6-7.5-4.8-11.5L107,287v-24.7l21.6-2.8c1.1-4,2.7-7.8,4.8-11.5
		l-13.3-17.3l17.5-17.5l17.3,13.3c3.7-2,7.5-3.6,11.5-4.8l2.8-21.6H194l2.8,21.6c4,1.1,7.8,2.7,11.4,4.8l17.3-13.3l17.5,17.5
		L229.7,248c2,3.7,3.6,7.5,4.8,11.5l21.6,2.8V287l-21.6,2.8c-1.1,4-2.7,7.8-4.8,11.5l13.3,17.3l-17.5,17.5l-17.3-13.3
		C204.5,324.9,200.7,326.5,196.8,327.6z M240.5,362.2c-9.1,0-18.2-1-27.4-3.1l1.7-7.2c58.1,13.5,117.7-20.5,135.5-77.4l7.1,2.2
		C341.1,328.3,292.7,362.2,240.5,362.2z M372.9,210l-19.6,2.5c-1,3.4-2.4,6.8-4.2,10l12.1,15.7L345,254.5l-15.7-12.1
		c-3.2,1.8-6.5,3.2-10,4.2l-2.5,19.6h-23l-2.5-19.6c-3.5-1-6.8-2.4-10-4.2l-15.7,12.1l-16.3-16.3l12.1-15.7c-1.8-3.2-3.2-6.6-4.2-10
		l-19.6-2.5v-23l19.6-2.5c1-3.4,2.4-6.8,4.2-10l-12.1-15.7l16.3-16.3l15.7,12.1c3.2-1.8,6.5-3.2,10-4.2l2.5-19.6h23l2.5,19.6
		c3.4,1,6.8,2.4,10,4.2l15.7-12.1l16.2,16.3l-12.1,15.7c1.8,3.2,3.2,6.5,4.2,10l19.6,2.5V210L372.9,210z"/>
	<path class="st0" d="M346.8,188.7c-1-4.4-2.8-8.6-5.2-12.5l-1.3-2.2l11.2-14.5l-7.1-7.1l-14.5,11.2l-2.2-1.3
		c-3.9-2.4-8.1-4.2-12.5-5.2l-2.5-0.6l-2.4-18.1h-10.1l-2.3,18.1l-2.5,0.6c-4.4,1-8.6,2.8-12.5,5.2l-2.2,1.3l-14.5-11.2l-7.1,7.1
		l11.2,14.5l-1.3,2.2c-2.4,3.9-4.2,8.2-5.2,12.5l-0.6,2.5l-18.1,2.3v10l18.1,2.3l0.6,2.5c1,4.4,2.8,8.6,5.2,12.5l1.3,2.2l-11.2,14.5
		l7.1,7.1l14.5-11.2l2.2,1.3c3.9,2.4,8.1,4.2,12.5,5.2l2.5,0.6l2.3,18.1h10.1l2.4-18.1l2.5-0.6c4.4-1,8.6-2.8,12.5-5.2l2.2-1.3
		l14.5,11.2l7.1-7.1L340.3,223l1.3-2.2c2.4-3.9,4.2-8.1,5.2-12.5l0.6-2.5l18.1-2.3v-10l-18.1-2.3L346.8,188.7z M305.3,224.4
		c-14.2,0-25.8-11.6-25.8-25.8s11.6-25.8,25.8-25.8c14.2,0,25.8,11.6,25.8,25.8C331.1,212.8,319.5,224.4,305.3,224.4z"/>
</g>
</svg>
