<?xml version="1.0" encoding="UTF-8"?>
<svg id="Layer_1" data-name="Layer 1" xmlns="http://www.w3.org/2000/svg" viewBox="0 0 100 80">
  <defs>
    <style>
      .cls-1 {
        fill: #1d1d1b;
      }
    </style>
  </defs>
  <path class="cls-1" d="M81.25,50.89l2.15-.44c-.45-2.19-1.12-4.34-1.99-6.4-.85-2.02-1.91-3.97-3.14-5.79l-1.82,1.23c1.15,1.71,2.14,3.53,2.94,5.42.81,1.93,1.44,3.94,1.86,5.99Z"/>
  <path class="cls-1" d="M63.27,25.91c-2.06-.87-4.21-1.54-6.4-1.99l-.44,2.16c2.05.42,4.06,1.05,5.99,1.86,1.89.8,3.71,1.79,5.42,2.94l1.23-1.82c-1.82-1.23-3.77-2.29-5.79-3.14Z"/>
  <path class="cls-1" d="M36.73,25.91c-2.02.85-3.97,1.91-5.79,3.14l1.23,1.82c1.71-1.15,3.53-2.14,5.42-2.94,1.92-.81,3.94-1.44,5.99-1.86l-.44-2.15c-2.19.45-4.35,1.12-6.4,1.99Z"/>
  <path class="cls-1" d="M18.58,44.05c-.87,2.06-1.54,4.21-1.99,6.4l2.15.44c.42-2.05,1.05-4.07,1.86-5.99.8-1.89,1.79-3.71,2.94-5.42l-1.82-1.23c-1.23,1.82-2.29,3.77-3.15,5.79Z"/>
  <path class="cls-1" d="M50,16.62c-22.44,0-40.7,18.26-40.7,40.7v1.1h13.9v-2.2h-11.68c.28-9.79,4.22-18.67,10.51-25.32l8.25,8.25,1.56-1.56-8.24-8.24c6.65-6.29,15.53-10.23,25.32-10.5v11.67h2.2v-11.67c9.79.28,18.67,4.22,25.32,10.5l-8.24,8.24,1.56,1.56,8.25-8.25c6.28,6.65,10.23,15.53,10.51,25.32h-11.68v2.2h13.9v-1.1c0-22.44-18.26-40.7-40.7-40.7Z"/>
  <path class="cls-1" d="M65.01,40.76l-11.58,11.58c-.98-.67-2.16-1.07-3.43-1.07-3.34,0-6.05,2.71-6.05,6.05s2.71,6.05,6.05,6.05,6.05-2.71,6.05-6.05c0-1.27-.4-2.45-1.07-3.43l11.58-11.58-1.56-1.56ZM50,61.17c-2.12,0-3.85-1.73-3.85-3.85s1.73-3.85,3.85-3.85,3.85,1.73,3.85,3.85-1.73,3.85-3.85,3.85Z"/>
</svg>