<?xml version="1.0" encoding="utf-8"?>
<!-- Generator: Adobe Illustrator 28.1.0, SVG Export Plug-In . SVG Version: 6.00 Build 0)  -->
<svg version="1.1" id="Layer_1" xmlns="http://www.w3.org/2000/svg" xmlns:xlink="http://www.w3.org/1999/xlink" x="0px" y="0px"
	 viewBox="0 0 480 480" style="enable-background:new 0 0 480 480;" xml:space="preserve">
<style type="text/css">
	.st0{fill:#FFFFFF;}
</style>
<circle cx="240" cy="240" r="190"/>
<g>
	<path class="st0" d="M300.6,176.1l-49.1-25.5l-22.6,74.5l68.2-17.8c7.2-1.9,12.4-8.4,12.6-15.9
		C309.8,185.1,306.2,179.1,300.6,176.1z M293.2,196c-3.1,0-5.6-2.5-5.6-5.6s2.5-5.6,5.6-5.6s5.6,2.5,5.6,5.6
		C298.8,193.5,296.3,196,293.2,196z"/>
	<path class="st0" d="M240,30C124,30,30,124,30,240s94,210,210,210s210-94,210-210S356,30,240,30z M222.5,163.5c1.8,0,2.9,0.1,3,0.1
		l-0.8,8.4c0,0-0.8-0.1-2.2-0.1c-1.7,0-3.5,0.1-5.3,0.3l-0.9-8.4C218.4,163.6,220.5,163.5,222.5,163.5z M195.2,223.3l8.1,2.2
		c-0.6,2.4-1,4.9-1.2,7.5l-8.4-0.5C193.9,229.3,194.4,226.2,195.2,223.3z M193.8,189.8c2.4-1.9,4.9-3.7,7.5-5.2l4.1,7.3
		c-2.2,1.3-4.3,2.7-6.3,4.3L193.8,189.8z M202.3,240.6c0.3,2.5,0.8,5,1.5,7.6l-8.1,2.2c-0.8-3-1.4-6-1.7-8.8L202.3,240.6z
		 M198.5,214.7c1.4-2.7,3-5.3,4.9-7.8l6.6,5.1c-1.6,2-2.9,4.2-4,6.4L198.5,214.7z M209.6,200.2c4.1-3.7,7.4-5.5,7.6-5.6l2,3.7l2,3.7
		c0,0-2.7,1.5-6,4.4L209.6,200.2z M218.9,178.7l0.6,8.4c0,0-2.9,0.2-7.1,1.7l-2.8-7.9C214.8,179,218.5,178.7,218.9,178.7z
		 M207.4,165.4l2,8.2c-2.5,0.6-5.1,1.4-7.5,2.4l-3.1-7.8C201.7,167,204.5,166.1,207.4,165.4z M190.8,171.9l4,7.4
		c-2.3,1.3-4.5,2.7-6.6,4.2l-5-6.8C185.7,174.9,188.2,173.3,190.8,171.9z M181.9,203.4c1.6-2.6,3.4-5,5.4-7.3l6.3,5.5
		c-1.7,1.9-3.2,4-4.6,6.2L181.9,203.4z M185.3,214.7c-1.1,2.3-2,4.8-2.8,7.4l-8-2.6c0.9-2.9,2-5.7,3.2-8.3L185.3,214.7z
		 M176.4,182.4l5.8,6.1c-1.9,1.8-3.7,3.7-5.4,5.7l-6.4-5.4C172.2,186.5,174.3,184.4,176.4,182.4z M165,195.9l7,4.7
		c-1.5,2.2-2.9,4.5-4.1,6.8l-7.4-4C161.9,200.8,163.4,198.2,165,195.9z M156.6,211.2l7.7,3.4c-1,2.2-1.9,4.6-2.8,7l-7.9-2.9
		C154.5,216.2,155.5,213.6,156.6,211.2z M310.1,369.4l-25.5-44.2l-49.2-12.5l-5.1-14.6l7.6-2.7l3.7,10.5l19.6,5l-15.5-36.3
		l-17.6-16.8l-22.5,35l-6.8-4.4l9.5-14.9l-51.7,3.9l-41.8,54.5l-6.4-4.9l44-57.3l61.4-4.7l12.7-19.9l25.3,24.1l19.2,44l18.8,4.8
		l27.3,47.1L310.1,369.4z M314,204.7c-3.3,5.2-8.5,9.1-14.8,10.7L216.5,237l29.9-98.5l55.3,28.7l31.6-32.4l6,5.9l-30.2,31
		c4.9,4.2,8.1,10.1,8.9,16.5l33.9-36.1l6.1,5.8L314,204.7z"/>
</g>
</svg>
