<?xml version="1.0" encoding="utf-8"?>
<!-- Generator: Adobe Illustrator 28.1.0, SVG Export Plug-In . SVG Version: 6.00 Build 0)  -->
<svg version="1.1" id="Layer_1" xmlns="http://www.w3.org/2000/svg" xmlns:xlink="http://www.w3.org/1999/xlink" x="0px" y="0px"
	 viewBox="0 0 480 480" style="enable-background:new 0 0 480 480;" xml:space="preserve">
<style type="text/css">
	.st0{fill:#FFFFFF;}
</style>
<circle cx="240" cy="240" r="190"/>
<g>
	<rect x="266.1" y="195.2" class="st0" width="17.9" height="17.9"/>
	<path class="st0" d="M223.1,170.2v72.7h35.1v-72.7l-17.6-21L223.1,170.2z M244.3,202.7c0.2,0.5,0.3,0.9,0.3,1.5
		c0,0.4-0.1,1-0.3,1.5s-0.5,0.9-0.8,1.2c-0.3,0.4-0.8,0.6-1.2,0.8h-0.1c-0.4,0.1-1,0.3-1.5,0.3c-0.6,0-1-0.2-1.4-0.3h-0.1
		c-0.4-0.2-0.9-0.5-1.2-0.9c-0.3-0.3-0.6-0.7-0.8-1.2s-0.3-1.1-0.3-1.5c0-0.6,0.1-1.1,0.3-1.6s0.5-0.9,0.9-1.2
		c0.7-0.7,1.7-1.1,2.7-1.1s2,0.4,2.8,1.1C243.8,201.7,244.1,202.1,244.3,202.7z"/>
	<path class="st0" d="M154.5,170.2v72.7h35.1v-72.7l-17.6-21L154.5,170.2z M175.7,202.7c0.2,0.5,0.3,0.9,0.3,1.5
		c0,0.4-0.1,1-0.3,1.5c-0.1,0.4-0.5,0.8-0.7,1.2c-0.4,0.4-0.9,0.7-1.3,0.9h-0.1c-0.4,0.1-0.9,0.3-1.4,0.3s-1-0.2-1.5-0.3
		c-0.5-0.3-1-0.5-1.3-0.9c-0.7-0.8-1.1-1.7-1.1-2.7s0.4-2,1.1-2.8c0.3-0.3,0.8-0.6,1.2-0.9c0.5-0.2,1-0.3,1.5-0.3c1,0,2,0.4,2.8,1.1
		C175.2,201.8,175.5,202.2,175.7,202.7z"/>
	<rect x="197.4" y="195.2" class="st0" width="17.9" height="17.9"/>
	<path class="st0" d="M240,30C124,30,30,124,30,240s94,210,210,210s210-94,210-210S356,30,240,30z M252.1,351.7l-2.8-2.7
		c-26.1-25.2-72.2-40.8-120.2-40.8h-3.9v-7.8h3.9c49.9,0,98.1,16.5,125.6,43l2.8,2.7L252.1,351.7z M279.1,351.6l-2.2-3.2
		c-25.9-37-85.3-61.9-147.8-61.9h-3.9v-7.8h3.9c65.9,0,126.4,25.6,154.2,65.2l2.3,3.2L279.1,351.6z M356.9,264.9h-5.8
		c-35.4,0-69.8,6.9-99.4,19.9c5.2,2.8,10.3,5.8,15.1,9l2.4-0.9c25.2-9.2,53.5-14.1,81.9-14.1h3.9v7.8h-3.9
		c-26.4,0-52.8,4.4-76.4,12.7c4.4,3.3,8.6,6.8,12.6,10.4l1.3-0.4c20-5.9,41-8.8,62.5-8.8h3.9v7.8h-3.9c-19.4,0-39.2,2.7-57.4,7.7
		c8.5,8.9,15.5,18.5,20.6,28.5l1.8,3.5l-7,3.6l-1.8-3.5c-25.5-49.7-94.9-83.1-172.9-83.1h-11.3v-8h233.7L356.9,264.9L356.9,264.9z
		 M356.9,195.2h-22.3v17.9h22.3v7.8h-22.3v29.8h-50.7v-29.8H266v29.8h-50.7v-29.8h-17.9v29.8h-50.7v-29.8h-22.3v-7.8h22.3v-17.9
		h-22.3v-7.8h22.3v-20.1l25.4-30.4l25.4,30.4v20.1h17.9v-20.1l25.4-30.4l25.4,30.4v20.1h17.9v-20.1l25.4-30.4l25.4,30.4v20.1h22.3
		v7.8H356.9z"/>
	<path class="st0" d="M243.9,279.6c13.1-6.1,27.2-11.1,42-14.8h-86.5c15.3,3.8,29.8,9,43.3,15.3L243.9,279.6z"/>
	<path class="st0" d="M291.7,170.2v72.7h35.1v-72.7l-17.6-21L291.7,170.2z M310.8,200.5c0.5,0.2,0.9,0.5,1.2,0.8l0.1,0.1
		c0.7,0.8,1.1,1.8,1.1,2.8c0,0.9-0.4,1.9-1.1,2.7c-0.4,0.4-0.8,0.6-1.2,0.9c-0.5,0.2-1,0.3-1.5,0.3s-0.9-0.1-1.3-0.2h-0.2
		c-0.5-0.3-0.9-0.5-1.3-0.9c-0.3-0.4-0.6-0.8-0.8-1.2c-0.2-0.5-0.3-1-0.3-1.5s0.1-1,0.2-1.5c0.3-0.5,0.5-0.9,0.8-1.2
		c0.8-0.8,1.8-1.2,2.9-1.2C309.8,200.3,310.3,200.4,310.8,200.5z"/>
</g>
</svg>
