<?xml version="1.0" encoding="utf-8"?>
<!-- Generator: Adobe Illustrator 28.1.0, SVG Export Plug-In . SVG Version: 6.00 Build 0)  -->
<svg version="1.1" id="Layer_1" xmlns="http://www.w3.org/2000/svg" xmlns:xlink="http://www.w3.org/1999/xlink" x="0px" y="0px"
	 viewBox="0 0 480 480" style="enable-background:new 0 0 480 480;" xml:space="preserve">
<style type="text/css">
	.st0{fill:#FFFFFF;}
</style>
<circle cx="240" cy="240" r="190"/>
<g>
	<path class="st0" d="M240,30C124,30,30,124,30,240s94,210,210,210s210-94,210-210S356,30,240,30z M331.9,237.8
		c-19.7,31.1-51.9,49.8-86.3,49.8l0,0c-7.4,0-20.3-3-25.8-4.4l-3.9,6.8l8.1,4.7c1.7,1,2.3,3.1,1.3,4.8L190,360.6
		c-0.5,0.8-1.2,1.4-2.1,1.6c-0.3,0.1-0.6,0.1-0.9,0.1c-0.6,0-1.2-0.2-1.8-0.5L155,344.5c-0.8-0.5-1.4-1.2-1.6-2.1
		c-0.2-0.9-0.1-1.9,0.4-2.7l51.6-89.3c0.5-0.8,1.2-1.4,2.1-1.6c0.9-0.2,1.8-0.1,2.7,0.4c33.8,19.5,77.2,7.9,96.7-25.9
		c9.1-15.8,10.3-31.5,3.5-46.7c-6.1-13.6-18.3-26.1-35.4-36.2l-14.6,5.7c-1,0.4-2.1,0.3-3-0.2l-9.8-5.7c-0.9-0.5-1.5-1.4-1.7-2.5
		c-0.2-1,0.1-2.1,0.8-2.9l20.7-23.5c0.9-1,2.3-1.4,3.6-1.1c31,8.8,56.1,31.1,67,59.6C346.8,193.3,344.7,217.5,331.9,237.8z"/>
	
		<rect x="169.8" y="326.8" transform="matrix(0.4999 -0.8661 0.8661 0.4999 -206.3314 323.8758)" class="st0" width="15" height="27.7"/>
	<path class="st0" d="M271,117.5l-16.4,18.6l4.7,2.7l14.6-5.7c1-0.4,2.1-0.3,3,0.2c19.2,11,32.9,25,39.7,40.3
		c7.7,17.1,6.3,35.5-3.8,53.1c-20.9,36.1-66.5,49.2-103.2,30.2l-12.8,22.2l12.9,7.4l5.3-9.1c0.8-1.4,2.4-2,3.9-1.6
		c0.2,0,18.1,4.9,26.6,4.9l0,0c32,0,62-17.4,80.4-46.5c11.7-18.5,13.5-40.4,5.3-61.9C321.4,146.4,298.9,126.1,271,117.5z"/>
	<rect x="174.2" y="296.2" transform="matrix(0.5 -0.866 0.866 0.5 -171.0601 323.8705)" class="st0" width="41.5" height="27.7"/>
</g>
</svg>
