<?xml version="1.0" encoding="utf-8"?>
<!-- Generator: Adobe Illustrator 28.1.0, SVG Export Plug-In . SVG Version: 6.00 Build 0)  -->
<svg version="1.1" id="Layer_1" xmlns="http://www.w3.org/2000/svg" xmlns:xlink="http://www.w3.org/1999/xlink" x="0px" y="0px"
	 viewBox="0 0 480 480" style="enable-background:new 0 0 480 480;" xml:space="preserve">
<style type="text/css">
	.st0{fill:#FFFFFF;}
</style>
<circle cx="240" cy="240" r="190"/>
<g>
	<path class="st0" d="M274.7,235.5c0-36.6-29.8-66.3-66.3-66.3c-36.6,0-66.3,29.8-66.3,66.3c0,36.6,29.8,66.3,66.3,66.3
		C245,301.8,274.7,272.1,274.7,235.5z M208.4,288.7c-29.4,0-53.2-23.9-53.2-53.2s23.9-53.2,53.2-53.2s53.2,23.9,53.2,53.2
		S237.8,288.7,208.4,288.7z"/>
	<path class="st0" d="M208.4,214.9c-11.4,0-20.6,9.2-20.6,20.6c0,11.4,9.2,20.6,20.6,20.6c11.4,0,20.6-9.2,20.6-20.6
		C229,224.1,219.8,214.9,208.4,214.9z"/>
	<path class="st0" d="M294.7,169.2h-52.8c24.2,12.3,40.8,37.4,40.8,66.3s-16.6,54.1-40.8,66.3h52.8c36.6,0,66.3-29.8,66.3-66.3
		C361,198.9,331.3,169.2,294.7,169.2z"/>
	<path class="st0" d="M240,30C124,30,30,124,30,240s94,210,210,210s210-94,210-210S356,30,240,30z M215.9,126.1h28v7.8h-28V126.1z
		 M197.9,126.1h11v7.8h-11V126.1z M167.6,142h60.8v7.8h-60.8V142z M148.4,142h11v7.8h-11V142z M346.8,333.5H173.6v-8h173.2V333.5z
		 M294.7,309.8H121.5v-8h53.4c-24.2-12.3-40.8-37.4-40.8-66.3c0-41,33.3-74.3,74.3-74.3c0.6,0,1.2,0,1.8,0l0,0h84.5
		c41,0,74.3,33.3,74.3,74.3S335.7,309.8,294.7,309.8z"/>
	<path class="st0" d="M208.4,190.3c-24.9,0-45.2,20.3-45.2,45.2s20.3,45.2,45.2,45.2s45.2-20.3,45.2-45.2S233.3,190.3,208.4,190.3z
		 M208.4,264.1c-15.8,0-28.6-12.8-28.6-28.6s12.8-28.6,28.6-28.6s28.6,12.8,28.6,28.6S224.2,264.1,208.4,264.1z"/>
</g>
</svg>
