<?xml version="1.0" encoding="utf-8"?>
<!-- Generator: Adobe Illustrator 28.1.0, SVG Export Plug-In . SVG Version: 6.00 Build 0)  -->
<svg version="1.1" id="Layer_1" xmlns="http://www.w3.org/2000/svg" xmlns:xlink="http://www.w3.org/1999/xlink" x="0px" y="0px"
	 viewBox="0 0 480 480" style="enable-background:new 0 0 480 480;" xml:space="preserve">
<style type="text/css">
	.st0{fill:#FFFFFF;}
</style>
<circle cx="240" cy="240" r="190"/>
<g>
	<path class="st0" d="M300.6,245.2c1,0,1.9,0.4,2.5,1.1c0.7,0.7,1.1,1.6,1.1,2.5c0,1-0.4,1.9-1.1,2.5l-14.6,14.6
		c6.8-0.4,16.2-2.2,22.3-8.3c7.9-7.9,8.6-21.3,8.4-27.5c-0.5,0-1,0-1.6,0c-6.5,0-18.6,1.1-25.9,8.4c-6.1,6.1-7.9,15.5-8.3,22.3
		l14.7-14.7C298.7,245.6,299.6,245.2,300.6,245.2z"/>
	<path class="st0" d="M161.5,153.4c0,0.5,0,1,0,1.6c0,6.5,1.1,18.6,8.4,25.9c6.1,6.1,15.5,7.9,22.3,8.3l-14.7-14.7
		c-0.7-0.7-1.1-1.6-1.1-2.5s0.4-1.9,1.1-2.5c0.7-0.7,1.6-1.1,2.5-1.1c1,0,1.9,0.4,2.5,1.1l14.6,14.6c-0.4-6.8-2.2-16.2-8.3-22.3
		C181.1,153.9,167.7,153.2,161.5,153.4z"/>
	<path class="st0" d="M240,30C124,30,30,124,30,240s94,210,210,210s210-94,210-210S356,30,240,30z M153.1,328.7h-8.8v-8.8h8.8V328.7
		z M170.8,343.4H162v-8.8h8.8V343.4z M170.8,315.2H162v-8.8h8.8V315.2z M188.5,355.6h-8.8v-8.8h8.8V355.6z M188.5,328.7h-8.8v-8.8
		h8.8V328.7z M206.1,343.4h-8.8v-8.8h8.8V343.4z M206.1,315.2h-8.8v-8.8h8.8V315.2z M223.8,328.7H215v-8.8h8.8V328.7z M241.4,355.6
		h-8.8v-8.8h8.8V355.6z M241.4,328.7h-8.8v-8.8h8.8V328.7z M259.1,343.4h-8.8v-8.8h8.8V343.4z M259.1,315.2h-8.8v-8.8h8.8V315.2z
		 M276.7,328.7h-8.8v-8.8h8.8V328.7z M294.4,355.6h-8.8v-8.8h8.8V355.6z M294.4,328.7h-8.8v-8.8h8.8V328.7z M312.1,343.4h-8.8v-8.8
		h8.8V343.4z M312.1,315.2h-8.8v-8.8h8.8V315.2z M329.7,328.7h-8.8v-8.8h8.8V328.7z M345.9,294.7H134.1v-8.2h211.8L345.9,294.7
		L345.9,294.7z M286.6,233.5c9.2-9.2,23.3-10.5,30.8-10.5c3.5,0,5.6,0.3,5.6,0.3l2.8,0.3l0.3,2.8c0.1,0.9,2.7,23.5-10.3,36.5
		c-9.2,9.2-23.3,10.5-30.8,10.5c-3.4,0-5.6-0.3-5.6-0.3l-2.8-0.3l-0.3-2.8C276.2,269,273.6,246.5,286.6,233.5z M358.3,248.7
		c0,8.8-3.3,17.3-9.4,23.7l-6-5.6c4.6-4.9,7.2-11.3,7.2-18.1s-2.5-13.2-7.2-18.1l-2.6-2.8l2.6-2.8c4.6-4.9,7.2-11.3,7.2-18.1
		c0-14.6-11.9-26.4-26.4-26.4c-6.7,0-13.2,2.5-18.1,7.2l-2.8,2.6l-2.8-2.6c-4.9-4.6-11.3-7.2-18.1-7.2s-13.2,2.5-18.1,7.2l-2.8,2.6
		l-2.8-2.6c-4.9-4.6-11.3-7.2-18.1-7.2c-6.7,0-13.2,2.5-18.1,7.2l-2.8,2.6l-2.8-2.6c-3.4-3.2-7.5-5.4-12-6.4
		c0.2,2.4,0.3,4.6,0.3,6.4c0,3.4-0.3,5.6-0.3,5.6L204,196l-2.8,0.3c-0.9,0.1-23.5,2.7-36.4-10.3c-1.8-1.8-3.4-3.9-4.6-6l-0.1,0.7
		c-1.2-0.2-2.4-0.3-3.7-0.3c-14.6,0-26.4,11.9-26.4,26.4c0,6.7,2.5,13.2,7.2,18.1l2.6,2.8l-2.6,2.8c-4.6,4.9-7.2,11.3-7.2,18.1
		s2.5,13.2,7.2,18.1l-6,5.6c-6.1-6.5-9.4-14.9-9.4-23.7c0-7.6,2.5-14.9,7-20.9c-4.5-6-7-13.3-7-20.9c0-19.1,15.6-34.7,34.7-34.7
		c0.1,0,0.2,0,0.3,0c-2-6.4-2.5-12.8-2.5-17c0-3.5,0.3-5.6,0.3-5.6l0.3-2.8l2.8-0.3c0.9-0.1,23.5-2.7,36.5,10.3
		c4.5,4.5,7.2,10.3,8.7,15.8c5.9,0.8,11.6,3.1,16.3,6.7c6-4.6,13.3-7,20.9-7c7.6,0,14.9,2.5,20.9,7c6-4.5,13.3-7,20.9-7
		s14.9,2.5,20.9,7c6-4.5,13.3-7,20.9-7c19.1,0,34.7,15.6,34.7,34.7c0,7.6-2.5,14.9-7,20.9C355.8,233.8,358.3,241.1,358.3,248.7z"/>
</g>
</svg>
