<!-- Generated by IcoMoon.io -->
<svg version="1.1" xmlns="http://www.w3.org/2000/svg" viewBox="0 0 1126 1024">
<title></title>
<g id="icomoon-ignore">
</g>
<path d="M1103.029 519.43l-78.804 78.804v-86.459c-0.225-282.118-229.882-511.775-512.225-511.775s-512 229.657-512 512 229.657 512 512 512c117.53 0 232.359-40.753 323.321-115.054l-20.489-24.992c-85.108 69.573-192.732 107.849-302.832 107.849-264.556 0-479.803-215.247-479.803-479.803s215.247-479.803 479.803-479.803 479.803 215.247 479.803 479.803v86.459l-78.804-78.804-22.741 22.741 117.981 117.981 117.755-117.981-22.741-22.741zM495.789 98.843h32.197v55.613h-32.197v-55.613zM495.789 869.544h32.197v55.613h-32.197v-55.613zM291.579 162.473l27.881-16.103 27.815 48.157-27.881 16.103-27.815-48.157zM676.896 829.852l27.878-16.108 27.823 48.153-27.878 16.108-27.823-48.153zM146.349 319.406l16.108-27.878 48.153 27.823-16.108 27.878-48.153-27.823zM813.384 704.808l16.103-27.881 48.157 27.815-16.103 27.881-48.157-27.815zM98.843 495.789h55.613v32.197h-55.613v-32.197zM146.165 704.522l48.153-27.823 16.108 27.878-48.153 27.823-16.108-27.878zM813.603 319.201l48.153-27.823 16.108 27.878-48.153 27.823-16.108-27.878zM291.532 861.702l27.815-48.157 27.881 16.103-27.815 48.157-27.881-16.103zM676.758 194.305l27.79-48.172 27.889 16.089-27.79 48.172-27.889-16.089zM755.842 354.617l-243.842 145.224-166.164-99.068-16.661 27.694 182.825 108.974 260.503-155.131-16.661-27.694z"></path>
</svg>
