<?xml version="1.0" encoding="utf-8"?>
<!-- Generator: Adobe Illustrator 28.1.0, SVG Export Plug-In . SVG Version: 6.00 Build 0)  -->
<svg version="1.1" id="Layer_1" xmlns="http://www.w3.org/2000/svg" xmlns:xlink="http://www.w3.org/1999/xlink" x="0px" y="0px"
	 viewBox="0 0 480 480" style="enable-background:new 0 0 480 480;" xml:space="preserve">
<style type="text/css">
	.st0{fill:#FFFFFF;}
</style>
<circle cx="240" cy="240" r="190"/>
<g>
	<polygon class="st0" points="288.6,278.3 248.5,278.3 268.6,301.9 	"/>
	<polygon class="st0" points="244,330.7 263.5,307.8 244,284.9 	"/>
	<polygon class="st0" points="248.5,337.3 288.6,337.3 268.6,313.8 	"/>
	<polygon class="st0" points="191.7,337.3 231.8,337.3 211.8,313.8 	"/>
	<polygon class="st0" points="231.8,278.3 191.7,278.3 211.8,301.9 	"/>
	<polygon class="st0" points="187.2,330.7 206.7,307.8 187.2,284.9 	"/>
	<path class="st0" d="M236.3,232.3v-20.4h-20.4C217.6,222.4,225.9,230.7,236.3,232.3z"/>
	<polygon class="st0" points="236.3,330.7 236.3,284.9 216.8,307.8 	"/>
	<polygon class="st0" points="293.1,330.7 293.1,284.9 273.6,307.8 	"/>
	<path class="st0" d="M358,231.8c-2-63.2-54.1-114.1-117.9-114.1c-63.7,0-115.8,50.8-117.9,114.1H164v7.7h-19v97.9h34.4v-66.8h56.8
		h7.7h56.8v66.8h34.4v-97.9h-19v-7.7L358,231.8L358,231.8z M240.2,240.3c-17.8,0-32.3-14.5-32.3-32.3s14.5-32.3,32.3-32.3
		s32.3,14.5,32.3,32.3C272.4,225.9,257.9,240.3,240.2,240.3z M240.2,140.5c-42.2,0-78.8,27.1-91,67.4l-7.4-2.2
		c13.2-43.6,52.8-72.9,98.4-72.9c45.5,0,86.1,30.5,98.8,74.2l-7.4,2.1C319.8,168.8,282.3,140.5,240.2,140.5z"/>
	<path class="st0" d="M240,30C124,30,30,124,30,240s94,210,210,210s210-94,210-210S356,30,240,30z M367.3,345.1H343h-42.1H244h-7.7
		h-56.8h-42.1h-24.7v-7.7h24.7v-97.9h-22.8v-3.9c0-69.3,56.4-125.6,125.6-125.6s125.6,56.4,125.6,125.6v3.9H343v97.9h24.3V345.1z"/>
	<path class="st0" d="M244,183.8v20.4h20.4C262.7,193.8,254.5,185.5,244,183.8z"/>
	<path class="st0" d="M244,232.3c10.4-1.7,18.7-9.9,20.4-20.4H244V232.3z"/>
	<path class="st0" d="M215.9,204.2h20.4v-20.4C225.9,185.5,217.6,193.8,215.9,204.2z"/>
</g>
</svg>
