<?xml version="1.0" encoding="UTF-8"?>
<svg id="Layer_1" data-name="Layer 1" xmlns="http://www.w3.org/2000/svg" viewBox="0 0 100 80">
  <defs>
    <style>
      .cls-1 {
        fill: #1d1d1b;
      }
    </style>
  </defs>
  <polygon class="cls-1" points="77.76 74.65 77.76 24.1 75.56 24.1 75.56 74.65 72.3 74.65 72.3 26.3 70.1 26.3 70.1 74.65 66.83 74.65 66.83 30.92 64.63 30.92 64.63 74.65 61.36 74.65 61.36 36.89 59.16 36.89 59.16 74.65 55.9 74.65 55.9 41.29 53.7 41.29 53.7 74.65 50.43 74.65 50.43 47.16 48.23 47.16 48.23 74.65 44.96 74.65 44.96 53.13 42.76 53.13 42.76 74.65 39.49 74.65 39.49 57.53 37.29 57.53 37.29 74.65 34.03 74.65 34.03 63.5 31.83 63.5 31.83 74.65 28.56 74.65 28.56 68.65 26.36 68.65 26.36 74.65 15.13 74.65 15.13 76.85 84.87 76.85 84.87 74.65 77.76 74.65"/>
  <polygon class="cls-1" points="18.02 66.39 19.58 67.94 75.56 11.96 75.56 20 77.76 20 77.76 8.2 65.96 8.2 65.96 10.4 74.01 10.4 18.02 66.39"/>
  <rect class="cls-1" x="32.92" y="37.81" width="3.97" height="2.2" transform="translate(-17.29 36.07) rotate(-45)"/>
  <rect class="cls-1" x="37.94" y="32.7" width="4.14" height="2.2" transform="translate(-12.18 38.19) rotate(-45)"/>
  <rect class="cls-1" x="42.37" y="23.51" width="13.66" height="2.2" transform="translate(-2.99 42) rotate(-45)"/>
  <rect class="cls-1" x="17.09" y="53.64" width="3.97" height="2.2" transform="translate(-33.12 29.52) rotate(-45)"/>
  <rect class="cls-1" x="21.92" y="45.82" width="9.93" height="2.2" transform="translate(-25.3 32.75) rotate(-44.99)"/>
  <polygon class="cls-1" points="22.23 38.23 24.43 38.23 24.43 31.13 31.54 31.13 31.54 28.93 24.43 28.93 24.43 21.83 22.23 21.83 22.23 28.93 15.13 28.93 15.13 31.13 22.23 31.13 22.23 38.23"/>
  <polygon class="cls-1" points="40.9 15.45 43.1 15.45 43.1 10.4 48.15 10.4 48.15 8.2 43.1 8.2 43.1 3.15 40.9 3.15 40.9 8.2 35.85 8.2 35.85 10.4 40.9 10.4 40.9 15.45"/>
</svg>