<!-- Generated by IcoMoon.io -->
<svg version="1.1" xmlns="http://www.w3.org/2000/svg" viewBox="0 0 971 1024">
<title></title>
<g id="icomoon-ignore">
</g>
<path d="M598.426 728.212h-361.677v-215.040h361.267v215.040zM251.904 713.057h331.366v-185.139h-331.366v185.139zM590.643 583.623c-34.816 0-62.669-28.262-63.078-63.078h15.155c0 26.214 21.709 47.923 47.923 47.923v15.155zM244.531 583.623v-15.155c26.624 0 47.923-21.709 47.923-47.923h14.746c0 34.816-27.853 63.078-62.669 63.078zM542.72 720.429h-15.155c0-34.816 28.262-63.078 63.078-63.078v15.155c-26.624 0-47.923 21.709-47.923 47.923zM307.2 720.429h-15.155c0-26.624-21.709-47.923-47.923-47.923v-15.155c35.226 0.41 63.078 28.262 63.078 63.078zM502.579 613.114h15.155v15.155h-15.155v-15.155zM317.85 613.114h15.155v15.155h-15.155v-15.155zM644.301 766.714h-15.155v-348.979c0-4.096 3.277-7.373 7.373-7.373v0h72.090l-135.168-142.131-135.168 142.131h72.090c4.096 0 7.373 3.277 7.373 7.373v68.403h-15.155v-61.030h-81.92c-4.096 0-7.373-3.277-7.373-7.373 0-2.048 0.819-3.686 2.048-4.915l152.781-160.563c2.867-2.867 7.782-2.867 10.65 0l152.781 160.563c2.867 2.867 2.458 7.782-0.41 10.65-1.229 1.229-3.277 2.048-4.915 2.048h-81.92v341.197zM361.267 758.932h359.629v15.155h-359.629v-15.155zM675.84 639.329h15.155v15.155h-15.155v-15.155zM675.84 669.229h15.155v15.155h-15.155v-15.155zM675.84 699.13h15.155v15.155h-15.155v-15.155zM675.84 729.031h15.155v15.155h-15.155v-15.155zM675.84 609.428h15.155v15.155h-15.155v-15.155zM675.84 453.37h15.155v140.902h-15.155v-140.902zM417.382 674.145c-19.251 0-34.816-13.517-34.816-30.31h15.155c0 8.602 9.011 15.565 20.070 15.565s20.070-6.963 20.070-15.565c0-9.421-7.782-15.565-20.070-15.565-24.166 0-34.816-15.155-34.816-30.31 0-16.794 15.565-30.31 34.816-30.31s34.816 13.517 34.816 30.31h-15.155c0-8.602-9.011-15.565-20.070-15.565s-20.070 6.963-20.070 15.565c0 9.83 7.373 15.565 20.070 15.565 20.48 0 34.816 12.698 34.816 30.31 0.41 16.384-15.565 30.31-34.816 30.31zM410.010 547.578h15.155v27.034h-15.155v-27.034zM410.010 666.362h15.155v27.034h-15.155v-27.034z"></path>
</svg>
