<?xml version="1.0" encoding="UTF-8"?>
<svg id="Layer_2" data-name="Layer 2" xmlns="http://www.w3.org/2000/svg" viewBox="0 0 80 80">
  <defs>
    <style>
      .cls-1 {
        fill: #4b4b4b;
        stroke-width: 0px;
      }
    </style>
  </defs>
  <g id="Layer_1-2" data-name="Layer 1">
    <g>
      <g>
        <path class="cls-1" d="M38.86,9.02v8.64h2.29v-8.64c1.98-.51,3.45-2.29,3.45-4.43,0-2.53-2.06-4.59-4.59-4.59s-4.59,2.06-4.59,4.59c0,2.14,1.47,3.92,3.45,4.43ZM40,2.29c1.27,0,2.31,1.04,2.31,2.31s-1.04,2.31-2.31,2.31-2.31-1.03-2.31-2.31,1.03-2.31,2.31-2.31Z"/>
        <path class="cls-1" d="M41.14,70.98v-8.63h-2.29v8.63c-1.98.51-3.45,2.3-3.45,4.43,0,2.53,2.06,4.59,4.59,4.59s4.59-2.06,4.59-4.59c0-2.13-1.47-3.92-3.45-4.43ZM40,77.71c-1.27,0-2.31-1.03-2.31-2.31s1.03-2.31,2.31-2.31,2.31,1.04,2.31,2.31-1.04,2.31-2.31,2.31Z"/>
        <path class="cls-1" d="M14.96,19.56c.83,0,1.63-.24,2.32-.65l6.11,6.11,1.62-1.62-6.11-6.11c.41-.7.65-1.49.65-2.32,0-1.23-.48-2.38-1.35-3.25-1.73-1.73-4.76-1.73-6.49,0-1.79,1.79-1.79,4.7,0,6.49.87.87,2.02,1.35,3.25,1.35ZM13.33,13.33c.87-.87,2.39-.87,3.26,0,.44.44.68,1.01.68,1.63s-.24,1.19-.68,1.63c-.87.87-2.39.87-3.26,0-.9-.9-.9-2.36,0-3.26Z"/>
        <path class="cls-1" d="M62.71,61.1l-6.1-6.11-1.62,1.62,6.11,6.11c-1.04,1.76-.81,4.06.69,5.57.89.89,2.07,1.34,3.25,1.34s2.35-.45,3.25-1.34c1.79-1.79,1.79-4.7,0-6.5-1.51-1.51-3.82-1.73-5.58-.69ZM66.67,66.67c-.9.9-2.36.9-3.26,0-.9-.9-.9-2.36,0-3.26.45-.45,1.04-.67,1.63-.67s1.18.22,1.63.67c.9.9.9,2.36,0,3.26Z"/>
        <path class="cls-1" d="M17.66,38.86h-8.64c-.51-1.98-2.29-3.45-4.43-3.45-2.53,0-4.59,2.06-4.59,4.59s2.06,4.59,4.59,4.59c2.14,0,3.92-1.47,4.43-3.45h8.64v-2.29ZM4.59,42.31c-1.27,0-2.31-1.04-2.31-2.31s1.04-2.31,2.31-2.31,2.31,1.04,2.31,2.31-1.03,2.31-2.31,2.31Z"/>
        <path class="cls-1" d="M75.41,35.41c-2.14,0-3.92,1.47-4.43,3.45h-8.64v2.29h8.64c.51,1.98,2.29,3.45,4.43,3.45,2.53,0,4.59-2.06,4.59-4.59s-2.06-4.59-4.59-4.59ZM75.41,42.31c-1.27,0-2.31-1.04-2.31-2.31s1.03-2.31,2.31-2.31,2.31,1.04,2.31,2.31-1.04,2.31-2.31,2.31Z"/>
        <path class="cls-1" d="M23.39,54.99l-6.12,6.12c-1.75-.99-4.1-.77-5.56.68-1.79,1.79-1.79,4.71,0,6.5.87.87,2.02,1.34,3.25,1.34s2.38-.48,3.25-1.34,1.35-2.02,1.35-3.25c0-.83-.24-1.63-.65-2.33l6.11-6.11-1.62-1.62ZM16.59,66.67c-.87.87-2.39.87-3.26,0-.9-.9-.9-2.36,0-3.26.87-.87,2.39-.87,3.26,0,.44.43.68,1.01.68,1.63s-.24,1.2-.68,1.63Z"/>
        <path class="cls-1" d="M56.61,25.01l6.11-6.11c.72.42,1.52.65,2.33.65,1.17,0,2.35-.45,3.25-1.34,1.79-1.79,1.79-4.7,0-6.49-1.79-1.79-4.71-1.79-6.5,0-1.51,1.51-1.73,3.81-.69,5.57l-6.11,6.11,1.62,1.62ZM63.41,13.33c.45-.45,1.04-.67,1.63-.67s1.18.22,1.63.67c.9.9.9,2.36,0,3.26-.9.9-2.36.9-3.26,0-.9-.9-.9-2.36,0-3.26Z"/>
        <path class="cls-1" d="M40,18.03c-12.11,0-21.97,9.85-21.97,21.97s9.86,21.97,21.97,21.97,21.97-9.85,21.97-21.97-9.86-21.97-21.97-21.97ZM40,59.68c-10.85,0-19.68-8.83-19.68-19.68s8.83-19.68,19.68-19.68,19.68,8.83,19.68,19.68-8.83,19.68-19.68,19.68Z"/>
      </g>
      <path class="cls-1" d="M40,53.54c-7.47,0-13.54-6.08-13.54-13.54s6.08-13.54,13.54-13.54,13.54,6.08,13.54,13.54-6.08,13.54-13.54,13.54ZM40,28.66c-6.25,0-11.34,5.09-11.34,11.34s5.09,11.34,11.34,11.34,11.34-5.09,11.34-11.34-5.09-11.34-11.34-11.34Z"/>
      <path class="cls-1" d="M40,45.69c-3.14,0-5.69-2.55-5.69-5.69s2.55-5.69,5.69-5.69,5.69,2.55,5.69,5.69-2.55,5.69-5.69,5.69ZM40,36.51c-1.93,0-3.49,1.57-3.49,3.49s1.57,3.49,3.49,3.49,3.49-1.57,3.49-3.49-1.57-3.49-3.49-3.49Z"/>
    </g>
  </g>
</svg>