<svg width="32" height="32" viewBox="0 0 32 32" fill="none" xmlns="http://www.w3.org/2000/svg">
<g clip-path="url(#clip0_721_759)">
<path d="M16 32C24.8366 32 32 24.8366 32 16C32 7.16344 24.8366 0 16 0C7.16344 0 0 7.16344 0 16C0 24.8366 7.16344 32 16 32Z" fill="white"/>
<path d="M19.1786 8.65234H12.3178C10.2143 8.65234 8.49487 10.4102 8.49487 12.5563V19.2507C8.49487 21.3969 10.2143 23.1547 12.3178 23.1547H19.1786C21.2821 23.1547 23.0015 21.3969 23.0015 19.2507V12.5563C23.0015 10.4102 21.2821 8.65234 19.1786 8.65234ZM21.7045 19.1569C21.7045 20.6459 20.5141 21.8619 19.0591 21.8619H12.4458C10.9909 21.8619 9.80047 20.6459 9.80047 19.1569V12.6545C9.80047 11.1654 10.9909 9.94941 12.4458 9.94941H19.0591C20.5141 9.94941 21.7045 11.1654 21.7045 12.6545V19.1569Z" fill="#1A1A1A"/>
<path d="M15.7482 12.1816C13.7344 12.1816 12.1002 13.8499 12.1002 15.9064C12.1002 17.963 13.7344 19.6312 15.7482 19.6312C17.7621 19.6312 19.3962 17.963 19.3962 15.9064C19.3962 13.8499 17.7621 12.1816 15.7482 12.1816ZM15.7482 18.3086C14.4469 18.3086 13.3973 17.2334 13.3973 15.9064C13.3973 14.5795 14.4512 13.5043 15.7525 13.5043C17.0538 13.5043 18.1034 14.5795 18.1034 15.9064C18.1034 17.2334 17.0496 18.3086 15.7482 18.3086Z" fill="#1A1A1A"/>
<path d="M19.5925 12.8217C20.0473 12.8217 20.416 12.4454 20.416 11.9812C20.416 11.5169 20.0473 11.1406 19.5925 11.1406C19.1377 11.1406 18.769 11.5169 18.769 11.9812C18.769 12.4454 19.1377 12.8217 19.5925 12.8217Z" fill="#1A1A1A"/>
</g>
<defs>
<clipPath id="clip0_721_759">
<rect width="32" height="32" fill="white"/>
</clipPath>
</defs>
</svg>
