<?xml version="1.0" encoding="utf-8"?>
<!-- Generator: Adobe Illustrator 28.1.0, SVG Export Plug-In . SVG Version: 6.00 Build 0)  -->
<svg version="1.1" id="Layer_1" xmlns="http://www.w3.org/2000/svg" xmlns:xlink="http://www.w3.org/1999/xlink" x="0px" y="0px"
	 viewBox="0 0 480 480" style="enable-background:new 0 0 480 480;" xml:space="preserve">
<style type="text/css">
	.st0{fill:#FFFFFF;}
</style>
<circle cx="240" cy="240" r="190"/>
<g>
	<path class="st0" d="M334.1,221.7c0-24.1-18.5-54.3-46.3-71.8v43.6h-7.6v-47.9c-5.7-2.9-11.7-5.3-18-7.1v80.3h-7.6v-97.2h-29v97.2
		H218v-80.3c-6.3,1.7-12.3,4.1-18,7.1v47.9h-7.6v-43.6c-27.8,17.5-46.3,47.8-46.3,71.8v3.8h-9.2v19.8l17.7,0.3
		c16.4,7.1,49.1,14.3,85.6,14.3c36.6,0,69.3-7.2,85.5-14.3l1.5-0.3h16.2v-19.8h-9.1v-3.8L334.1,221.7L334.1,221.7z M240,243.8
		c-18.6,0-37.8-1.7-57.2-5l1.3-7.5c37.9,6.5,73.8,6.5,111.8,0l1.3,7.5C277.8,242.1,258.5,243.8,240,243.8z"/>
	<path class="st0" d="M240,30C124,30,30,124,30,240s94,210,210,210s210-94,210-210S355.9,30,240,30z M344,273.8l-21.2,6.9
		c-0.6,3.1-1.5,6.3-2.5,9.3l14.9,16.5l-9.8,17l-21.7-4.6c-2.1,2.4-4.4,4.7-6.9,6.9l4.6,21.7l-17,9.8l-16.5-14.9
		c-3.1,1-6.2,1.9-9.3,2.5l-6.9,21.2h-19.6l-6.9-21.2c-3.1-0.6-6.3-1.5-9.3-2.5l-16.5,14.9l-17-9.8l4.6-21.7
		c-2.4-2.1-4.7-4.4-6.9-6.9l-21.7,4.6l-9.8-17l14.9-16.5c-1-3.1-1.9-6.2-2.5-9.3l-21.2-6.9v-10h7.6v4.5l20.2,6.6l0.4,2.3
		c0.7,4.2,1.9,8.4,3.4,12.5l0.8,2.2L158,307.7l4.3,7.4l20.7-4.4l1.5,1.8c2.8,3.3,5.9,6.4,9.2,9.2l1.8,1.5l-4.4,20.8l7.4,4.2
		l15.8-14.2l2.2,0.8c4.1,1.5,8.3,2.6,12.5,3.4l2.3,0.4l6.6,20.2h8.5l6.6-20.2l2.3-0.4c4.2-0.7,8.4-1.9,12.5-3.4l2.2-0.8l15.8,14.2
		l7.4-4.2l-4.4-20.8l1.8-1.5c3.3-2.8,6.4-5.9,9.2-9.2l1.5-1.8l20.8,4.4l4.2-7.4l-14.2-15.8l0.8-2.2c1.5-4.1,2.6-8.3,3.4-12.5
		l0.4-2.3l20.2-6.6v-4.5h7.6v10L344,273.8L344,273.8z M197.3,280.5l7.2-2.7c5.8,15.5,20.9,26,37.5,26s31.2-10,37.3-25.4l7.1,2.8
		c-7.2,18.4-24.6,30.3-44.4,30.3C222.2,311.4,204.2,299,197.3,280.5z M350.9,253h-23c-17.2,7.3-50.7,14.6-87.9,14.6
		c-37,0-70.6-7.3-87.9-14.6h-23v-35.1h9.3c2.3-33.7,34.1-76,79.5-87.3V114h44.3v16.6c45.3,11.3,77.2,53.6,79.5,87.3h9.3V253H350.9z"
		/>
</g>
</svg>
