<?xml version="1.0" encoding="UTF-8"?>
<svg xmlns="http://www.w3.org/2000/svg" xmlns:xlink="http://www.w3.org/1999/xlink" width="67px" height="62px" viewBox="0 0 67 62" version="1.1">
<g id="surface1">
<path style=" stroke:none;fill-rule:nonzero;fill:rgb(21.176471%,48.627451%,16.470589%);fill-opacity:1;" d="M 38.007812 0.324219 C 38.128906 0.339844 38.25 0.351562 38.375 0.367188 C 39.128906 0.453125 39.875 0.554688 40.617188 0.703125 C 40.746094 0.726562 40.875 0.746094 41.003906 0.765625 C 41.234375 0.796875 41.464844 0.847656 41.695312 0.898438 C 41.851562 0.929688 42.007812 0.960938 42.164062 0.988281 C 42.597656 1.066406 43.027344 1.167969 43.453125 1.269531 C 43.511719 1.28125 43.511719 1.28125 43.570312 1.296875 C 44.738281 1.566406 45.894531 1.890625 47.039062 2.253906 C 47.082031 2.269531 47.125 2.28125 47.167969 2.292969 C 47.394531 2.367188 47.621094 2.449219 47.839844 2.542969 C 48.03125 2.617188 48.226562 2.679688 48.421875 2.738281 C 49.40625 3.054688 50.441406 3.457031 51.359375 3.933594 C 51.46875 3.988281 51.578125 4.039062 51.691406 4.085938 C 51.824219 4.144531 51.824219 4.144531 51.953125 4.230469 C 51.886719 4.40625 51.757812 4.503906 51.617188 4.617188 C 51.578125 4.648438 51.578125 4.648438 51.542969 4.679688 C 51.46875 4.742188 51.390625 4.800781 51.316406 4.863281 C 51.277344 4.894531 51.238281 4.929688 51.195312 4.960938 C 51.121094 5.023438 51.046875 5.085938 50.972656 5.144531 C 50.839844 5.253906 50.707031 5.367188 50.578125 5.476562 C 50.371094 5.652344 50.164062 5.824219 49.957031 5.992188 C 49.824219 6.101562 49.695312 6.210938 49.5625 6.324219 C 49.355469 6.5 49.148438 6.671875 48.9375 6.84375 C 48.855469 6.910156 48.777344 6.976562 48.699219 7.046875 C 48.65625 7.082031 48.617188 7.117188 48.574219 7.152344 C 48.539062 7.183594 48.503906 7.21875 48.464844 7.25 C 48.359375 7.316406 48.359375 7.316406 48.253906 7.308594 C 48.21875 7.296875 48.183594 7.285156 48.148438 7.273438 C 48.113281 7.261719 48.078125 7.253906 48.042969 7.242188 C 48.007812 7.226562 47.972656 7.214844 47.9375 7.199219 C 47.894531 7.183594 47.855469 7.167969 47.8125 7.152344 C 47.683594 7.105469 47.554688 7.054688 47.429688 7.007812 C 47.191406 6.917969 46.957031 6.828125 46.71875 6.742188 C 46.671875 6.722656 46.671875 6.722656 46.621094 6.703125 C 46.292969 6.582031 45.960938 6.472656 45.628906 6.371094 C 45.578125 6.355469 45.527344 6.339844 45.472656 6.320312 C 45.429688 6.308594 45.429688 6.308594 45.382812 6.292969 C 45.296875 6.265625 45.210938 6.238281 45.125 6.210938 C 44.714844 6.082031 44.304688 5.964844 43.890625 5.859375 C 43.859375 5.847656 43.828125 5.839844 43.796875 5.832031 C 43.289062 5.699219 42.78125 5.570312 42.269531 5.457031 C 42.21875 5.445312 42.167969 5.433594 42.113281 5.421875 C 41.96875 5.386719 41.820312 5.355469 41.671875 5.320312 C 41.617188 5.308594 41.558594 5.296875 41.5 5.285156 C 41.070312 5.1875 40.636719 5.105469 40.199219 5.03125 C 40.152344 5.023438 40.152344 5.023438 40.105469 5.015625 C 39.257812 4.875 38.410156 4.746094 37.554688 4.667969 C 37.410156 4.652344 37.261719 4.636719 37.117188 4.621094 C 34.429688 4.324219 31.640625 4.339844 28.957031 4.652344 C 28.894531 4.660156 28.832031 4.667969 28.769531 4.671875 C 28.574219 4.695312 28.378906 4.71875 28.183594 4.738281 C 28.152344 4.742188 28.121094 4.746094 28.089844 4.75 C 27.789062 4.785156 27.488281 4.824219 27.191406 4.886719 C 27.019531 4.921875 26.84375 4.941406 26.671875 4.964844 C 26.121094 5.042969 25.578125 5.132812 25.039062 5.265625 C 24.839844 5.3125 24.640625 5.355469 24.441406 5.390625 C 24.039062 5.460938 23.644531 5.5625 23.25 5.667969 C 23.214844 5.675781 23.179688 5.683594 23.144531 5.695312 C 22.265625 5.921875 21.394531 6.171875 20.53125 6.460938 C 20.429688 6.496094 20.332031 6.527344 20.230469 6.558594 C 19.527344 6.789062 18.824219 7.03125 18.148438 7.339844 C 17.996094 7.40625 17.84375 7.46875 17.6875 7.53125 C 17.386719 7.648438 17.082031 7.773438 16.789062 7.910156 C 16.695312 7.949219 16.695312 7.949219 16.597656 7.980469 C 16.433594 8.03125 16.34375 8.074219 16.253906 8.230469 C 16.199219 8.375 16.152344 8.519531 16.105469 8.667969 C 16.0625 8.785156 16.019531 8.902344 15.972656 9.015625 C 15.890625 9.226562 15.820312 9.441406 15.757812 9.660156 C 15.703125 9.84375 15.640625 10.023438 15.578125 10.207031 C 15.414062 10.699219 15.261719 11.195312 15.128906 11.699219 C 15.105469 11.789062 15.078125 11.882812 15.046875 11.976562 C 15.011719 12.082031 14.988281 12.183594 14.964844 12.296875 C 14.9375 12.441406 14.90625 12.578125 14.859375 12.71875 C 14.792969 12.941406 14.746094 13.167969 14.695312 13.398438 C 14.667969 13.535156 14.667969 13.535156 14.625 13.6875 C 14.574219 13.855469 14.550781 14.027344 14.523438 14.199219 C 14.5 14.335938 14.46875 14.472656 14.4375 14.605469 C 14.378906 14.84375 14.34375 15.082031 14.308594 15.324219 C 14.285156 15.488281 14.257812 15.648438 14.222656 15.808594 C 14.175781 16.066406 14.136719 16.320312 14.109375 16.582031 C 14.085938 16.789062 14.058594 16.996094 14.03125 17.203125 C 13.957031 17.75 13.902344 18.300781 13.859375 18.851562 C 13.855469 18.917969 13.855469 18.917969 13.847656 18.988281 C 13.785156 19.792969 13.746094 20.59375 13.738281 21.398438 C 13.738281 21.445312 13.738281 21.492188 13.734375 21.542969 C 13.734375 21.800781 13.734375 22.058594 13.738281 22.320312 C 13.738281 22.414062 13.738281 22.507812 13.738281 22.601562 C 13.746094 23.464844 13.808594 24.320312 13.878906 25.183594 C 13.886719 25.234375 13.890625 25.289062 13.894531 25.34375 C 13.941406 25.910156 13.992188 26.46875 14.089844 27.023438 C 14.121094 27.203125 14.140625 27.386719 14.160156 27.566406 C 14.191406 27.835938 14.238281 28.097656 14.300781 28.359375 C 14.332031 28.507812 14.351562 28.65625 14.371094 28.804688 C 14.402344 29.035156 14.453125 29.253906 14.511719 29.476562 C 14.542969 29.613281 14.5625 29.746094 14.582031 29.882812 C 14.613281 30.089844 14.660156 30.277344 14.722656 30.472656 C 14.753906 30.585938 14.777344 30.695312 14.796875 30.8125 C 14.824219 30.992188 14.871094 31.15625 14.933594 31.328125 C 14.964844 31.429688 14.988281 31.53125 15.007812 31.632812 C 15.039062 31.804688 15.085938 31.960938 15.140625 32.125 C 15.195312 32.285156 15.230469 32.449219 15.269531 32.617188 C 15.300781 32.734375 15.300781 32.734375 15.34375 32.832031 C 15.390625 32.953125 15.417969 33.070312 15.449219 33.195312 C 15.488281 33.347656 15.539062 33.496094 15.589844 33.644531 C 15.613281 33.714844 15.636719 33.78125 15.660156 33.847656 C 15.667969 33.878906 15.679688 33.914062 15.691406 33.949219 C 15.722656 34.039062 15.75 34.125 15.78125 34.214844 C 15.878906 34.515625 15.980469 34.808594 16.101562 35.097656 C 16.148438 35.230469 16.148438 35.230469 16.171875 35.355469 C 16.207031 35.523438 16.242188 35.644531 16.394531 35.746094 C 16.582031 35.84375 16.78125 35.921875 16.980469 35.996094 C 17.105469 36.042969 17.222656 36.101562 17.34375 36.164062 C 17.429688 36.207031 17.519531 36.246094 17.609375 36.28125 C 17.734375 36.328125 17.855469 36.378906 17.980469 36.429688 C 18.296875 36.558594 18.617188 36.675781 18.941406 36.789062 C 19.125 36.851562 19.300781 36.925781 19.480469 37.007812 C 19.574219 37.050781 19.667969 37.078125 19.769531 37.105469 C 19.984375 37.171875 20.195312 37.242188 20.410156 37.320312 C 20.992188 37.527344 21.582031 37.695312 22.171875 37.863281 C 22.261719 37.890625 22.351562 37.914062 22.441406 37.941406 C 24.261719 38.46875 26.132812 38.800781 28.007812 39.058594 C 28.101562 39.070312 28.191406 39.085938 28.285156 39.101562 C 28.394531 39.117188 28.503906 39.128906 28.613281 39.136719 C 28.699219 39.144531 28.78125 39.152344 28.867188 39.15625 C 28.910156 39.160156 28.957031 39.164062 29 39.167969 C 29.246094 39.1875 29.488281 39.207031 29.734375 39.238281 C 30.777344 39.359375 31.816406 39.351562 32.867188 39.351562 C 33.078125 39.351562 33.289062 39.351562 33.5 39.351562 C 34.683594 39.355469 35.855469 39.335938 37.035156 39.191406 C 37.296875 39.160156 37.5625 39.136719 37.828125 39.117188 C 38.136719 39.09375 38.441406 39.050781 38.746094 38.996094 C 38.957031 38.960938 39.171875 38.929688 39.386719 38.910156 C 39.652344 38.878906 39.914062 38.832031 40.175781 38.773438 C 40.316406 38.742188 40.460938 38.71875 40.605469 38.699219 C 40.902344 38.660156 41.195312 38.601562 41.492188 38.535156 C 41.570312 38.519531 41.570312 38.519531 41.648438 38.503906 C 42.0625 38.410156 42.480469 38.316406 42.894531 38.214844 C 42.984375 38.191406 43.074219 38.167969 43.164062 38.148438 C 43.832031 37.984375 44.492188 37.789062 45.148438 37.582031 C 45.234375 37.554688 45.316406 37.527344 45.398438 37.503906 C 46.117188 37.28125 46.828125 37.046875 47.519531 36.765625 C 47.753906 36.667969 47.992188 36.585938 48.230469 36.503906 C 48.410156 36.445312 48.578125 36.371094 48.746094 36.285156 C 48.851562 36.230469 48.964844 36.1875 49.078125 36.144531 C 49.328125 36.054688 49.566406 35.945312 49.800781 35.832031 C 50 35.738281 50 35.738281 50.089844 35.738281 C 50.097656 35.6875 50.097656 35.6875 50.101562 35.636719 C 50.144531 35.433594 50.21875 35.25 50.292969 35.058594 C 50.324219 34.980469 50.355469 34.902344 50.382812 34.820312 C 50.398438 34.78125 50.414062 34.742188 50.429688 34.703125 C 50.917969 33.433594 51.285156 32.097656 51.585938 30.773438 C 51.621094 30.632812 51.652344 30.496094 51.6875 30.355469 C 51.707031 30.269531 51.726562 30.183594 51.746094 30.101562 C 51.765625 30.019531 51.785156 29.9375 51.804688 29.855469 C 51.875 29.558594 51.933594 29.261719 51.976562 28.960938 C 51.996094 28.824219 52.023438 28.691406 52.058594 28.554688 C 52.109375 28.316406 52.144531 28.078125 52.171875 27.835938 C 52.195312 27.632812 52.230469 27.433594 52.269531 27.230469 C 52.324219 26.921875 52.359375 26.613281 52.382812 26.296875 C 52.40625 26.039062 52.433594 25.785156 52.464844 25.527344 C 52.519531 25.085938 52.554688 24.644531 52.570312 24.203125 C 52.574219 24.117188 52.574219 24.117188 52.574219 24.035156 C 52.589844 23.59375 52.582031 23.152344 52.574219 22.714844 C 52.570312 22.601562 52.570312 22.488281 52.566406 22.375 C 52.566406 22.335938 52.566406 22.296875 52.566406 22.257812 C 52.566406 22.183594 52.5625 22.105469 52.5625 22.03125 C 52.558594 21.835938 52.554688 21.640625 52.550781 21.445312 C 52.542969 21.253906 52.539062 21.058594 52.539062 20.867188 C 52.539062 20.796875 52.535156 20.722656 52.53125 20.652344 C 52.511719 20.109375 52.511719 20.109375 52.632812 19.933594 C 52.769531 19.789062 52.925781 19.6875 53.09375 19.582031 C 53.210938 19.488281 53.324219 19.394531 53.4375 19.296875 C 53.558594 19.199219 53.558594 19.199219 53.640625 19.199219 C 53.652344 19.175781 53.660156 19.152344 53.671875 19.128906 C 53.742188 19.003906 53.828125 18.9375 53.9375 18.851562 C 53.976562 18.820312 54.011719 18.792969 54.050781 18.761719 C 54.148438 18.691406 54.148438 18.691406 54.234375 18.691406 C 54.234375 18.664062 54.234375 18.636719 54.234375 18.609375 C 54.320312 18.539062 54.320312 18.539062 54.4375 18.464844 C 54.589844 18.359375 54.589844 18.359375 54.730469 18.238281 C 54.785156 18.183594 54.785156 18.183594 54.867188 18.183594 C 54.875 18.164062 54.882812 18.140625 54.890625 18.117188 C 54.980469 17.972656 55.105469 17.886719 55.238281 17.785156 C 55.289062 17.746094 55.339844 17.707031 55.394531 17.667969 C 55.417969 17.648438 55.445312 17.628906 55.46875 17.609375 C 55.636719 17.480469 55.796875 17.339844 55.957031 17.199219 C 56.089844 17.082031 56.226562 16.96875 56.363281 16.855469 C 56.398438 16.828125 56.433594 16.796875 56.46875 16.769531 C 56.558594 16.707031 56.558594 16.707031 56.644531 16.707031 C 56.710938 17.070312 56.753906 17.433594 56.785156 17.800781 C 56.792969 17.886719 56.800781 17.972656 56.804688 18.058594 C 56.820312 18.21875 56.832031 18.378906 56.847656 18.539062 C 56.855469 18.65625 56.867188 18.773438 56.878906 18.890625 C 56.957031 19.804688 56.953125 20.726562 56.949219 21.644531 C 56.949219 21.878906 56.949219 22.113281 56.949219 22.34375 C 56.953125 23.511719 56.933594 24.660156 56.792969 25.820312 C 56.769531 26.007812 56.753906 26.195312 56.742188 26.382812 C 56.710938 26.773438 56.671875 27.15625 56.605469 27.542969 C 56.570312 27.761719 56.539062 27.976562 56.515625 28.199219 C 56.484375 28.480469 56.4375 28.75 56.378906 29.027344 C 56.347656 29.179688 56.324219 29.332031 56.304688 29.484375 C 56.273438 29.710938 56.226562 29.925781 56.167969 30.148438 C 56.132812 30.292969 56.105469 30.4375 56.082031 30.585938 C 56.003906 31.027344 55.890625 31.457031 55.785156 31.894531 C 55.761719 31.996094 55.738281 32.097656 55.714844 32.199219 C 55.519531 33.066406 55.273438 33.921875 54.996094 34.765625 C 54.980469 34.8125 54.980469 34.8125 54.964844 34.863281 C 54.839844 35.234375 54.714844 35.605469 54.582031 35.976562 C 54.546875 36.070312 54.511719 36.167969 54.480469 36.261719 C 54.378906 36.542969 54.273438 36.820312 54.164062 37.097656 C 54.066406 37.332031 53.984375 37.570312 53.902344 37.808594 C 53.84375 37.988281 53.765625 38.152344 53.679688 38.320312 C 53.628906 38.429688 53.597656 38.542969 53.566406 38.65625 C 53.472656 38.878906 53.363281 38.972656 53.144531 39.066406 C 53.058594 39.097656 52.972656 39.132812 52.886719 39.167969 C 52.726562 39.234375 52.570312 39.320312 52.417969 39.40625 C 52.140625 39.554688 51.867188 39.679688 51.578125 39.792969 C 51.332031 39.890625 51.09375 39.996094 50.855469 40.109375 C 50.558594 40.25 50.253906 40.375 49.949219 40.496094 C 49.8125 40.550781 49.675781 40.609375 49.539062 40.667969 C 49.308594 40.761719 49.074219 40.847656 48.839844 40.929688 C 48.710938 40.976562 48.585938 41.019531 48.457031 41.066406 C 48.296875 41.128906 48.132812 41.183594 47.96875 41.238281 C 47.835938 41.28125 47.707031 41.328125 47.578125 41.382812 C 47.398438 41.457031 47.21875 41.511719 47.03125 41.570312 C 46.902344 41.609375 46.773438 41.648438 46.640625 41.691406 C 45.484375 42.054688 45.484375 42.054688 44.996094 42.171875 C 44.832031 42.210938 44.671875 42.253906 44.511719 42.296875 C 43.785156 42.488281 43.054688 42.667969 42.3125 42.800781 C 42.203125 42.820312 42.089844 42.839844 41.980469 42.859375 C 41.953125 42.867188 41.925781 42.871094 41.898438 42.875 C 41.714844 42.910156 41.535156 42.949219 41.351562 42.992188 C 41.023438 43.066406 40.699219 43.121094 40.367188 43.160156 C 40.199219 43.179688 40.035156 43.210938 39.871094 43.242188 C 39.59375 43.296875 39.316406 43.332031 39.035156 43.359375 C 38.820312 43.378906 38.609375 43.40625 38.394531 43.4375 C 37.835938 43.519531 37.277344 43.558594 36.714844 43.59375 C 36.445312 43.609375 36.171875 43.632812 35.898438 43.65625 C 35.007812 43.734375 34.113281 43.738281 33.21875 43.738281 C 33.152344 43.738281 33.089844 43.738281 33.023438 43.738281 C 32.117188 43.738281 31.214844 43.726562 30.308594 43.644531 C 30.265625 43.640625 30.222656 43.636719 30.179688 43.632812 C 29.988281 43.617188 29.796875 43.601562 29.605469 43.582031 C 29.390625 43.5625 29.179688 43.546875 28.964844 43.53125 C 28.550781 43.5 28.144531 43.460938 27.734375 43.394531 C 27.496094 43.359375 27.257812 43.328125 27.019531 43.308594 C 26.722656 43.277344 26.441406 43.230469 26.148438 43.167969 C 25.992188 43.136719 25.835938 43.113281 25.675781 43.09375 C 25.417969 43.0625 25.167969 43.015625 24.914062 42.957031 C 24.773438 42.925781 24.632812 42.90625 24.492188 42.882812 C 24.269531 42.851562 24.058594 42.804688 23.847656 42.75 C 23.699219 42.710938 23.554688 42.679688 23.40625 42.648438 C 23.257812 42.617188 23.113281 42.585938 22.964844 42.542969 C 22.847656 42.507812 22.734375 42.488281 22.613281 42.464844 C 22.375 42.421875 22.140625 42.363281 21.90625 42.296875 C 21.824219 42.273438 21.742188 42.25 21.660156 42.230469 C 21.601562 42.210938 21.601562 42.210938 21.542969 42.195312 C 21.394531 42.15625 21.25 42.117188 21.101562 42.078125 C 20.5625 41.933594 20.035156 41.773438 19.507812 41.59375 C 19.332031 41.535156 19.15625 41.476562 18.976562 41.425781 C 18.773438 41.363281 18.574219 41.292969 18.375 41.21875 C 18.339844 41.207031 18.304688 41.191406 18.269531 41.179688 C 18.023438 41.089844 17.777344 40.992188 17.53125 40.898438 C 17.433594 40.859375 17.335938 40.828125 17.234375 40.796875 C 17.015625 40.726562 16.808594 40.632812 16.601562 40.539062 C 16.4375 40.464844 16.277344 40.402344 16.105469 40.347656 C 15.972656 40.292969 15.839844 40.238281 15.710938 40.183594 C 15.675781 40.167969 15.640625 40.152344 15.605469 40.140625 C 15.414062 40.058594 15.222656 39.972656 15.039062 39.875 C 14.9375 39.824219 14.832031 39.789062 14.726562 39.753906 C 14.574219 39.691406 14.425781 39.613281 14.277344 39.539062 C 14.042969 39.421875 13.808594 39.308594 13.570312 39.199219 C 13.515625 39.171875 13.457031 39.144531 13.402344 39.117188 C 13.34375 39.089844 13.28125 39.0625 13.222656 39.039062 C 13.035156 38.953125 12.9375 38.890625 12.851562 38.695312 C 12.839844 38.667969 12.824219 38.640625 12.8125 38.613281 C 12.769531 38.515625 12.726562 38.414062 12.6875 38.3125 C 12.671875 38.277344 12.65625 38.242188 12.640625 38.207031 C 12.613281 38.132812 12.582031 38.0625 12.550781 37.992188 C 12.5 37.867188 12.449219 37.742188 12.394531 37.617188 C 12.316406 37.429688 12.246094 37.242188 12.179688 37.050781 C 12.125 36.898438 12.066406 36.746094 12.011719 36.597656 C 12 36.566406 11.988281 36.539062 11.976562 36.507812 C 11.921875 36.359375 11.863281 36.207031 11.808594 36.058594 C 11.789062 36.011719 11.789062 36.011719 11.773438 35.964844 C 11.75 35.90625 11.726562 35.851562 11.707031 35.792969 C 11.652344 35.648438 11.609375 35.507812 11.582031 35.355469 C 11.558594 35.28125 11.535156 35.203125 11.507812 35.128906 C 11.492188 35.085938 11.476562 35.039062 11.460938 34.992188 C 11.445312 34.945312 11.429688 34.898438 11.414062 34.847656 C 11.242188 34.339844 11.070312 33.832031 10.945312 33.308594 C 10.90625 33.152344 10.863281 32.996094 10.820312 32.84375 C 10.609375 32.082031 10.417969 31.3125 10.273438 30.535156 C 10.261719 30.480469 10.253906 30.429688 10.242188 30.375 C 10.226562 30.292969 10.210938 30.207031 10.195312 30.125 C 10.167969 29.972656 10.136719 29.820312 10.105469 29.664062 C 9.753906 27.976562 9.582031 26.257812 9.476562 24.539062 C 9.46875 24.449219 9.464844 24.359375 9.457031 24.269531 C 9.429688 23.875 9.414062 23.480469 9.402344 23.085938 C 9.402344 23.054688 9.402344 23.027344 9.398438 22.996094 C 9.386719 22.476562 9.375 21.960938 9.382812 21.441406 C 9.386719 21.394531 9.386719 21.351562 9.386719 21.304688 C 9.429688 18.980469 9.640625 16.664062 10.0625 14.378906 C 10.070312 14.328125 10.078125 14.277344 10.089844 14.222656 C 10.304688 13.054688 10.574219 11.898438 10.882812 10.75 C 10.90625 10.664062 10.925781 10.578125 10.949219 10.488281 C 11.121094 9.835938 11.335938 9.195312 11.550781 8.554688 C 11.589844 8.433594 11.632812 8.308594 11.671875 8.1875 C 11.765625 7.910156 11.863281 7.632812 11.960938 7.359375 C 11.976562 7.320312 11.992188 7.28125 12.003906 7.238281 C 12.167969 6.785156 12.347656 6.339844 12.539062 5.898438 C 12.585938 5.777344 12.632812 5.660156 12.675781 5.535156 C 12.695312 5.480469 12.695312 5.480469 12.71875 5.421875 C 12.746094 5.34375 12.773438 5.269531 12.800781 5.191406 C 12.898438 4.925781 12.898438 4.925781 13.066406 4.828125 C 13.121094 4.8125 13.175781 4.796875 13.230469 4.777344 C 13.296875 4.75 13.367188 4.71875 13.433594 4.683594 C 13.46875 4.667969 13.503906 4.648438 13.542969 4.632812 C 13.578125 4.613281 13.617188 4.597656 13.65625 4.578125 C 13.695312 4.558594 13.734375 4.539062 13.777344 4.519531 C 13.984375 4.421875 14.191406 4.320312 14.394531 4.214844 C 14.839844 3.988281 15.300781 3.804688 15.757812 3.609375 C 15.929688 3.535156 16.105469 3.460938 16.277344 3.382812 C 16.488281 3.289062 16.699219 3.207031 16.917969 3.128906 C 17.050781 3.082031 17.183594 3.027344 17.316406 2.972656 C 17.726562 2.804688 18.148438 2.671875 18.570312 2.53125 C 18.824219 2.449219 19.078125 2.363281 19.332031 2.277344 C 20.261719 1.964844 20.261719 1.964844 20.652344 1.859375 C 20.761719 1.828125 20.871094 1.796875 20.980469 1.765625 C 22.796875 1.226562 24.671875 0.84375 26.542969 0.5625 C 26.601562 0.554688 26.660156 0.546875 26.71875 0.535156 C 27.183594 0.464844 27.652344 0.40625 28.117188 0.351562 C 28.238281 0.339844 28.359375 0.324219 28.480469 0.308594 C 31.59375 -0.0703125 34.894531 -0.0585938 38.007812 0.324219 Z M 38.007812 0.324219 "/>
<path style=" stroke:none;fill-rule:nonzero;fill:rgb(99.607843%,86.274511%,0%);fill-opacity:1;" d="M 60.238281 1.394531 C 60.414062 1.460938 60.511719 1.589844 60.625 1.730469 C 60.644531 1.757812 60.664062 1.78125 60.6875 1.804688 C 60.75 1.878906 60.808594 1.957031 60.871094 2.03125 C 60.902344 2.070312 60.9375 2.109375 60.96875 2.152344 C 61.03125 2.226562 61.09375 2.300781 61.152344 2.375 C 61.261719 2.507812 61.371094 2.632812 61.476562 2.761719 C 61.640625 2.953125 61.800781 3.148438 61.953125 3.347656 C 62.117188 3.558594 62.285156 3.753906 62.464844 3.949219 C 62.578125 4.078125 62.679688 4.207031 62.785156 4.34375 C 62.96875 4.582031 63.164062 4.8125 63.363281 5.042969 C 63.625 5.34375 63.875 5.652344 64.125 5.964844 C 63.960938 6.132812 63.789062 6.285156 63.613281 6.4375 C 63.585938 6.464844 63.558594 6.488281 63.527344 6.511719 C 63.332031 6.679688 63.132812 6.847656 62.929688 7.011719 C 62.800781 7.117188 62.667969 7.226562 62.539062 7.335938 C 62.335938 7.511719 62.128906 7.683594 61.917969 7.851562 C 61.789062 7.960938 61.65625 8.074219 61.527344 8.183594 C 61.320312 8.359375 61.113281 8.527344 60.90625 8.699219 C 60.773438 8.808594 60.640625 8.921875 60.507812 9.03125 C 60.316406 9.195312 60.121094 9.355469 59.921875 9.511719 C 59.769531 9.636719 59.621094 9.761719 59.472656 9.890625 C 59.324219 10.015625 59.179688 10.136719 59.03125 10.253906 C 58.859375 10.394531 58.691406 10.535156 58.523438 10.679688 C 58.242188 10.917969 57.957031 11.152344 57.671875 11.382812 C 57.4375 11.574219 57.207031 11.769531 56.976562 11.964844 C 56.792969 12.121094 56.609375 12.269531 56.425781 12.421875 C 56.292969 12.53125 56.160156 12.640625 56.03125 12.75 C 55.75 12.988281 55.464844 13.222656 55.179688 13.453125 C 54.960938 13.632812 54.742188 13.816406 54.527344 14 C 54.328125 14.171875 54.125 14.339844 53.917969 14.503906 C 53.789062 14.605469 53.664062 14.714844 53.539062 14.820312 C 53.257812 15.058594 52.972656 15.292969 52.683594 15.527344 C 52.464844 15.707031 52.25 15.886719 52.035156 16.074219 C 51.832031 16.246094 51.632812 16.414062 51.425781 16.574219 C 51.296875 16.679688 51.171875 16.785156 51.046875 16.894531 C 50.765625 17.132812 50.476562 17.367188 50.191406 17.597656 C 49.972656 17.777344 49.753906 17.960938 49.539062 18.144531 C 49.339844 18.316406 49.136719 18.484375 48.929688 18.648438 C 48.777344 18.769531 48.628906 18.898438 48.480469 19.027344 C 48.335938 19.148438 48.1875 19.269531 48.042969 19.390625 C 47.871094 19.53125 47.703125 19.671875 47.535156 19.8125 C 47.253906 20.050781 46.96875 20.285156 46.679688 20.519531 C 46.453125 20.707031 46.226562 20.894531 46.003906 21.085938 C 45.78125 21.273438 45.554688 21.460938 45.328125 21.644531 C 45.140625 21.796875 44.953125 21.953125 44.769531 22.109375 C 44.496094 22.34375 44.214844 22.574219 43.933594 22.800781 C 43.714844 22.980469 43.5 23.164062 43.28125 23.347656 C 43.082031 23.519531 42.882812 23.6875 42.675781 23.851562 C 42.546875 23.953125 42.421875 24.058594 42.296875 24.167969 C 42.015625 24.40625 41.726562 24.640625 41.441406 24.875 C 41.222656 25.050781 41.003906 25.234375 40.789062 25.421875 C 40.589844 25.59375 40.386719 25.757812 40.179688 25.921875 C 40.050781 26.027344 39.925781 26.132812 39.800781 26.238281 C 39.519531 26.480469 39.234375 26.714844 38.945312 26.945312 C 38.726562 27.125 38.511719 27.308594 38.296875 27.492188 C 38.09375 27.664062 37.894531 27.832031 37.6875 27.996094 C 37.5625 28.09375 37.441406 28.195312 37.324219 28.296875 C 37.105469 28.480469 36.890625 28.664062 36.671875 28.84375 C 36.457031 29.019531 36.242188 29.195312 36.035156 29.375 C 35.804688 29.570312 35.570312 29.761719 35.335938 29.949219 C 35.136719 30.109375 34.941406 30.273438 34.746094 30.441406 C 34.558594 30.601562 34.367188 30.757812 34.175781 30.914062 C 33.933594 31.113281 33.695312 31.3125 33.460938 31.515625 C 33.28125 31.664062 33.101562 31.8125 32.921875 31.960938 C 32.765625 32.085938 32.613281 32.21875 32.457031 32.347656 C 32.269531 32.507812 32.082031 32.664062 31.890625 32.816406 C 31.757812 32.929688 31.625 33.042969 31.492188 33.15625 C 31.332031 33.089844 31.234375 32.992188 31.113281 32.871094 C 31.089844 32.851562 31.070312 32.832031 31.046875 32.808594 C 30.976562 32.738281 30.910156 32.667969 30.839844 32.597656 C 30.789062 32.550781 30.738281 32.5 30.6875 32.449219 C 30.546875 32.308594 30.410156 32.171875 30.269531 32.03125 C 30.121094 31.882812 29.972656 31.734375 29.820312 31.582031 C 29.527344 31.289062 29.234375 30.996094 28.941406 30.703125 C 28.703125 30.464844 28.464844 30.226562 28.226562 29.988281 C 27.550781 29.3125 26.875 28.640625 26.199219 27.964844 C 26.148438 27.910156 26.148438 27.910156 26.089844 27.851562 C 26.054688 27.816406 26.019531 27.78125 25.980469 27.742188 C 25.390625 27.152344 24.796875 26.558594 24.207031 25.96875 C 23.597656 25.363281 22.992188 24.757812 22.386719 24.152344 C 22.046875 23.808594 21.703125 23.46875 21.363281 23.128906 C 21.074219 22.839844 20.785156 22.550781 20.492188 22.257812 C 20.347656 22.109375 20.199219 21.960938 20.050781 21.816406 C 19.914062 21.679688 19.777344 21.542969 19.644531 21.410156 C 19.59375 21.359375 19.546875 21.308594 19.496094 21.261719 C 19.429688 21.195312 19.363281 21.128906 19.296875 21.0625 C 19.242188 21.007812 19.242188 21.007812 19.183594 20.949219 C 19.105469 20.851562 19.105469 20.851562 19.105469 20.679688 C 19.171875 20.605469 19.171875 20.605469 19.261719 20.535156 C 19.402344 20.421875 19.53125 20.300781 19.65625 20.171875 C 20.289062 19.539062 20.289062 19.539062 20.390625 19.441406 C 20.480469 19.351562 20.558594 19.257812 20.640625 19.164062 C 20.769531 19.015625 20.90625 18.890625 21.054688 18.765625 C 21.132812 18.695312 21.195312 18.625 21.261719 18.546875 C 21.378906 18.402344 21.507812 18.289062 21.648438 18.167969 C 21.75 18.082031 21.84375 17.988281 21.9375 17.890625 C 22.574219 17.253906 22.574219 17.253906 22.675781 17.15625 C 22.78125 17.046875 22.878906 16.933594 22.976562 16.820312 C 23.0625 16.71875 23.15625 16.628906 23.25 16.535156 C 23.378906 16.59375 23.46875 16.660156 23.570312 16.761719 C 23.597656 16.792969 23.628906 16.820312 23.660156 16.851562 C 23.691406 16.882812 23.722656 16.914062 23.757812 16.949219 C 23.789062 16.984375 23.824219 17.015625 23.859375 17.050781 C 23.957031 17.148438 24.050781 17.242188 24.144531 17.339844 C 24.246094 17.441406 24.351562 17.542969 24.453125 17.648438 C 24.632812 17.824219 24.808594 18.003906 24.984375 18.179688 C 25.242188 18.4375 25.5 18.695312 25.757812 18.953125 C 26.171875 19.371094 26.589844 19.789062 27.007812 20.203125 C 27.410156 20.609375 27.816406 21.015625 28.222656 21.421875 C 28.246094 21.445312 28.269531 21.472656 28.296875 21.496094 C 28.421875 21.621094 28.546875 21.746094 28.671875 21.875 C 29.710938 22.914062 30.75 23.953125 31.789062 24.996094 C 31.917969 24.917969 32.039062 24.839844 32.15625 24.742188 C 32.183594 24.71875 32.214844 24.695312 32.242188 24.671875 C 32.273438 24.648438 32.304688 24.621094 32.335938 24.59375 C 32.367188 24.570312 32.398438 24.542969 32.429688 24.515625 C 32.65625 24.328125 32.882812 24.136719 33.105469 23.941406 C 33.277344 23.796875 33.449219 23.65625 33.625 23.515625 C 33.777344 23.394531 33.925781 23.265625 34.074219 23.140625 C 34.21875 23.015625 34.367188 22.894531 34.515625 22.773438 C 34.683594 22.636719 34.855469 22.492188 35.023438 22.351562 C 35.300781 22.113281 35.585938 21.878906 35.871094 21.648438 C 36.09375 21.46875 36.308594 21.285156 36.523438 21.101562 C 36.722656 20.929688 36.925781 20.761719 37.132812 20.597656 C 37.261719 20.496094 37.386719 20.386719 37.511719 20.28125 C 37.792969 20.042969 38.078125 19.808594 38.367188 19.574219 C 38.585938 19.394531 38.804688 19.214844 39.019531 19.027344 C 39.21875 18.855469 39.421875 18.691406 39.628906 18.527344 C 39.753906 18.421875 39.882812 18.316406 40.007812 18.210938 C 40.210938 18.035156 40.414062 17.867188 40.621094 17.699219 C 41.035156 17.359375 41.449219 17.019531 41.855469 16.667969 C 42.023438 16.523438 42.195312 16.382812 42.371094 16.246094 C 42.507812 16.132812 42.644531 16.019531 42.777344 15.902344 C 42.980469 15.726562 43.1875 15.554688 43.394531 15.390625 C 43.714844 15.136719 44.027344 14.875 44.335938 14.605469 C 44.476562 14.484375 44.621094 14.367188 44.765625 14.253906 C 44.933594 14.121094 45.09375 13.980469 45.257812 13.84375 C 45.503906 13.628906 45.757812 13.421875 46.011719 13.214844 C 46.148438 13.105469 46.28125 12.996094 46.414062 12.878906 C 46.578125 12.730469 46.75 12.589844 46.921875 12.453125 C 46.949219 12.429688 46.976562 12.40625 47.007812 12.382812 C 47.148438 12.269531 47.289062 12.15625 47.4375 12.050781 C 47.574219 11.949219 47.6875 11.835938 47.808594 11.714844 C 47.925781 11.613281 48.042969 11.515625 48.164062 11.417969 C 48.195312 11.394531 48.222656 11.367188 48.257812 11.339844 C 48.394531 11.226562 48.535156 11.113281 48.683594 11.011719 C 48.816406 10.921875 48.921875 10.8125 49.035156 10.699219 C 49.152344 10.597656 49.269531 10.5 49.390625 10.402344 C 49.453125 10.351562 49.515625 10.300781 49.578125 10.25 C 49.609375 10.226562 49.636719 10.203125 49.667969 10.175781 C 49.832031 10.042969 49.992188 9.910156 50.148438 9.769531 C 50.324219 9.617188 50.503906 9.46875 50.6875 9.320312 C 50.714844 9.296875 50.742188 9.273438 50.773438 9.25 C 50.90625 9.140625 51.035156 9.039062 51.175781 8.941406 C 51.308594 8.847656 51.417969 8.742188 51.527344 8.628906 C 51.617188 8.546875 51.707031 8.472656 51.796875 8.394531 C 51.824219 8.375 51.847656 8.355469 51.871094 8.332031 C 51.996094 8.226562 52.121094 8.128906 52.253906 8.035156 C 52.382812 7.957031 52.382812 7.957031 52.457031 7.824219 C 52.5 7.824219 52.542969 7.824219 52.585938 7.824219 C 52.59375 7.800781 52.601562 7.777344 52.609375 7.753906 C 52.695312 7.613281 52.820312 7.527344 52.949219 7.425781 C 52.988281 7.398438 52.988281 7.398438 53.03125 7.363281 C 53.195312 7.238281 53.359375 7.117188 53.527344 6.996094 C 53.605469 6.933594 53.605469 6.933594 53.699219 6.835938 C 53.816406 6.71875 53.941406 6.609375 54.066406 6.503906 C 54.089844 6.480469 54.113281 6.460938 54.140625 6.441406 C 54.339844 6.273438 54.546875 6.117188 54.753906 5.964844 C 54.871094 5.882812 54.871094 5.882812 54.964844 5.78125 C 55.113281 5.632812 55.273438 5.503906 55.4375 5.371094 C 55.5 5.320312 55.5625 5.269531 55.625 5.21875 C 55.667969 5.179688 55.667969 5.179688 55.714844 5.144531 C 55.789062 5.082031 55.867188 5.015625 55.941406 4.949219 C 56.050781 4.863281 56.050781 4.863281 56.136719 4.863281 C 56.148438 4.820312 56.164062 4.78125 56.179688 4.738281 C 56.269531 4.660156 56.359375 4.585938 56.453125 4.515625 C 56.480469 4.492188 56.507812 4.472656 56.535156 4.453125 C 56.613281 4.390625 56.691406 4.332031 56.769531 4.273438 C 56.839844 4.21875 56.914062 4.164062 56.984375 4.109375 C 57.027344 4.078125 57.027344 4.078125 57.066406 4.042969 C 57.15625 3.972656 57.15625 3.972656 57.246094 3.878906 C 57.390625 3.734375 57.546875 3.609375 57.707031 3.476562 C 57.738281 3.453125 57.769531 3.425781 57.800781 3.398438 C 57.894531 3.324219 57.988281 3.246094 58.082031 3.171875 C 58.304688 2.988281 58.527344 2.808594 58.746094 2.621094 C 59 2.40625 59.257812 2.199219 59.523438 2 C 59.644531 1.902344 59.75 1.800781 59.855469 1.691406 C 59.921875 1.636719 59.992188 1.582031 60.058594 1.53125 C 60.09375 1.503906 60.125 1.480469 60.160156 1.453125 C 60.199219 1.425781 60.199219 1.425781 60.238281 1.394531 Z M 60.238281 1.394531 "/>
<path style=" stroke:none;fill-rule:nonzero;fill:rgb(21.176471%,48.627451%,16.470589%);fill-opacity:1;" d="M 36.902344 54.554688 C 40.363281 54.554688 43.820312 54.554688 47.386719 54.554688 C 47.386719 55.003906 47.386719 55.449219 47.386719 55.910156 C 45.933594 55.910156 44.484375 55.910156 42.988281 55.910156 C 42.988281 56.175781 42.988281 56.441406 42.988281 56.714844 C 43.070312 56.71875 43.148438 56.722656 43.234375 56.730469 C 44.132812 56.800781 45.148438 57.046875 45.796875 57.726562 C 45.992188 57.976562 46.148438 58.25 46.160156 58.574219 C 46.164062 58.625 46.164062 58.625 46.164062 58.671875 C 46.179688 59.164062 46.058594 59.546875 45.71875 59.914062 C 44.828125 60.757812 43.570312 60.875 42.398438 60.902344 C 42.347656 60.902344 42.300781 60.902344 42.25 60.902344 C 42.113281 60.90625 41.980469 60.902344 41.847656 60.902344 C 41.816406 60.898438 41.785156 60.898438 41.753906 60.898438 C 40.632812 60.878906 39.417969 60.699219 38.550781 59.925781 C 38.464844 59.835938 38.464844 59.835938 38.394531 59.746094 C 38.371094 59.714844 38.347656 59.6875 38.324219 59.65625 C 38.148438 59.375 38.109375 59.117188 38.109375 58.789062 C 38.109375 58.734375 38.109375 58.734375 38.109375 58.679688 C 38.109375 58.339844 38.21875 58.0625 38.425781 57.792969 C 38.457031 57.75 38.457031 57.75 38.488281 57.707031 C 38.550781 57.644531 38.550781 57.644531 38.679688 57.601562 C 38.699219 57.539062 38.699219 57.539062 38.71875 57.476562 C 39.382812 56.859375 40.453125 56.773438 41.300781 56.671875 C 41.300781 56.421875 41.300781 56.167969 41.300781 55.910156 C 39.847656 55.910156 38.398438 55.910156 36.902344 55.910156 C 36.902344 55.464844 36.902344 55.015625 36.902344 54.554688 Z M 40.796875 58.035156 C 40.769531 58.039062 40.738281 58.046875 40.707031 58.050781 C 40.382812 58.109375 40.121094 58.238281 39.902344 58.488281 C 39.800781 58.648438 39.796875 58.773438 39.820312 58.953125 C 39.898438 59.160156 40.046875 59.246094 40.242188 59.335938 C 40.589844 59.472656 40.9375 59.558594 41.3125 59.574219 C 41.34375 59.574219 41.378906 59.578125 41.410156 59.578125 C 41.78125 59.59375 42.152344 59.597656 42.523438 59.589844 C 42.558594 59.589844 42.589844 59.589844 42.625 59.585938 C 43.171875 59.578125 43.871094 59.554688 44.300781 59.167969 C 44.445312 59.007812 44.453125 58.886719 44.445312 58.679688 C 44.417969 58.511719 44.34375 58.417969 44.214844 58.320312 C 43.671875 57.933594 42.878906 57.960938 42.238281 57.964844 C 42.125 57.964844 42.007812 57.964844 41.890625 57.964844 C 41.523438 57.964844 41.164062 57.980469 40.796875 58.035156 Z M 40.796875 58.035156 "/>
<path style=" stroke:none;fill-rule:nonzero;fill:rgb(21.176471%,48.627451%,16.470589%);fill-opacity:1;" d="M 37.875 49.777344 C 40.707031 49.777344 43.539062 49.777344 46.457031 49.777344 C 46.457031 50.238281 46.457031 50.699219 46.457031 51.171875 C 45.453125 51.171875 44.449219 51.171875 43.414062 51.171875 C 43.496094 51.300781 43.578125 51.425781 43.667969 51.554688 C 43.707031 51.636719 43.707031 51.636719 43.75 51.722656 C 43.832031 51.769531 43.832031 51.769531 43.917969 51.808594 C 43.96875 51.84375 44.019531 51.882812 44.066406 51.925781 C 44.800781 52.476562 45.851562 52.722656 46.757812 52.773438 C 46.835938 52.78125 46.835938 52.78125 46.921875 52.824219 C 46.84375 53.289062 46.585938 53.71875 46.371094 54.132812 C 45.824219 54.109375 45.292969 54.027344 44.765625 53.878906 C 44.734375 53.871094 44.703125 53.863281 44.671875 53.855469 C 43.707031 53.578125 42.738281 53.058594 42.1875 52.1875 C 42.1875 52.160156 42.1875 52.132812 42.1875 52.105469 C 42.160156 52.105469 42.132812 52.105469 42.101562 52.105469 C 42.089844 52.132812 42.082031 52.164062 42.070312 52.195312 C 41.753906 52.910156 40.886719 53.386719 40.199219 53.667969 C 39.472656 53.941406 38.699219 54.148438 37.917969 54.132812 C 37.765625 53.8125 37.617188 53.492188 37.476562 53.167969 C 37.457031 53.121094 37.433594 53.074219 37.414062 53.023438 C 37.367188 52.90625 37.367188 52.90625 37.367188 52.824219 C 37.496094 52.757812 37.636719 52.757812 37.78125 52.742188 C 38.792969 52.628906 39.964844 52.339844 40.664062 51.542969 C 40.757812 51.421875 40.828125 51.320312 40.875 51.171875 C 39.886719 51.171875 38.894531 51.171875 37.875 51.171875 C 37.875 50.710938 37.875 50.253906 37.875 49.777344 Z M 37.875 49.777344 "/>
<path style=" stroke:none;fill-rule:nonzero;fill:rgb(21.176471%,48.627451%,16.470589%);fill-opacity:1;" d="M 23.585938 49.863281 C 26.417969 49.863281 29.25 49.863281 32.167969 49.863281 C 32.167969 50.308594 32.167969 50.753906 32.167969 51.214844 C 30.660156 51.238281 30.660156 51.238281 29.125 51.257812 C 29.207031 51.382812 29.292969 51.507812 29.378906 51.636719 C 29.378906 51.667969 29.378906 51.695312 29.378906 51.722656 C 29.40625 51.722656 29.433594 51.722656 29.464844 51.722656 C 29.488281 51.75 29.515625 51.78125 29.546875 51.808594 C 30.050781 52.335938 30.851562 52.589844 31.546875 52.722656 C 31.59375 52.730469 31.640625 52.738281 31.6875 52.75 C 32.015625 52.8125 32.34375 52.867188 32.675781 52.90625 C 32.546875 53.238281 32.417969 53.5625 32.253906 53.878906 C 32.230469 53.933594 32.203125 53.992188 32.183594 54.046875 C 32.125 54.175781 32.125 54.175781 32.082031 54.21875 C 31.261719 54.316406 30.171875 53.992188 29.464844 53.582031 C 29.425781 53.566406 29.390625 53.546875 29.351562 53.527344 C 28.742188 53.210938 28.265625 52.78125 27.855469 52.230469 C 27.839844 52.253906 27.824219 52.28125 27.808594 52.304688 C 27.683594 52.5 27.5625 52.667969 27.390625 52.824219 C 27.363281 52.847656 27.335938 52.875 27.308594 52.902344 C 26.949219 53.230469 26.566406 53.464844 26.125 53.667969 C 26.078125 53.6875 26.035156 53.710938 25.988281 53.730469 C 25.351562 54.011719 24.566406 54.230469 23.867188 54.222656 C 23.800781 54.21875 23.800781 54.21875 23.730469 54.21875 C 23.679688 54.21875 23.679688 54.21875 23.628906 54.21875 C 23.410156 53.796875 23.203125 53.367188 23.082031 52.90625 C 23.109375 52.902344 23.140625 52.898438 23.171875 52.894531 C 24.324219 52.730469 25.652344 52.523438 26.441406 51.5625 C 26.507812 51.464844 26.550781 51.371094 26.589844 51.257812 C 25.597656 51.242188 24.609375 51.230469 23.585938 51.214844 C 23.585938 50.769531 23.585938 50.324219 23.585938 49.863281 Z M 23.585938 49.863281 "/>
<path style=" stroke:none;fill-rule:nonzero;fill:rgb(21.176471%,48.235294%,16.470589%);fill-opacity:1;" d="M 16.949219 50.75 C 17.472656 51.191406 17.882812 51.832031 17.957031 52.523438 C 18.023438 53.367188 17.898438 54.117188 17.375 54.808594 C 17.242188 54.960938 17.101562 55.097656 16.949219 55.234375 C 16.925781 55.257812 16.898438 55.28125 16.871094 55.304688 C 16.191406 55.867188 15.285156 56.003906 14.429688 55.941406 C 13.90625 55.882812 13.421875 55.730469 12.976562 55.445312 C 12.921875 55.410156 12.921875 55.410156 12.867188 55.378906 C 12.246094 54.964844 11.839844 54.308594 11.691406 53.585938 C 11.546875 52.789062 11.671875 52.023438 12.121094 51.339844 C 12.238281 51.1875 12.363281 51.050781 12.5 50.914062 C 12.523438 50.890625 12.546875 50.867188 12.570312 50.839844 C 12.6875 50.726562 12.773438 50.652344 12.933594 50.625 C 12.933594 50.59375 12.933594 50.566406 12.933594 50.539062 C 13.292969 50.34375 13.640625 50.214844 14.035156 50.117188 C 14.070312 50.105469 14.105469 50.097656 14.140625 50.085938 C 15.105469 49.851562 16.179688 50.15625 16.949219 50.75 Z M 13.59375 52.042969 C 13.300781 52.417969 13.269531 52.867188 13.316406 53.332031 C 13.355469 53.484375 13.410156 53.613281 13.484375 53.753906 C 13.5 53.777344 13.511719 53.804688 13.527344 53.832031 C 13.605469 53.960938 13.679688 54.039062 13.824219 54.089844 C 13.824219 54.121094 13.824219 54.148438 13.824219 54.175781 C 14.332031 54.445312 14.789062 54.578125 15.359375 54.402344 C 15.742188 54.257812 16.003906 54.039062 16.191406 53.667969 C 16.382812 53.171875 16.355469 52.71875 16.148438 52.230469 C 15.890625 51.796875 15.535156 51.648438 15.0625 51.523438 C 14.523438 51.453125 13.964844 51.632812 13.59375 52.042969 Z M 13.59375 52.042969 "/>
<path style=" stroke:none;fill-rule:nonzero;fill:rgb(21.176471%,48.235294%,16.470589%);fill-opacity:1;" d="M 30.6875 57.050781 C 30.722656 57.066406 30.753906 57.082031 30.789062 57.097656 C 31.238281 57.328125 31.660156 57.714844 31.832031 58.195312 C 31.9375 58.71875 31.894531 59.207031 31.613281 59.667969 C 31.4375 59.929688 31.203125 60.09375 30.941406 60.265625 C 30.914062 60.285156 30.882812 60.304688 30.851562 60.328125 C 30.066406 60.808594 29.007812 60.886719 28.109375 60.902344 C 28.0625 60.902344 28.011719 60.902344 27.964844 60.902344 C 27.828125 60.90625 27.695312 60.902344 27.5625 60.902344 C 27.53125 60.898438 27.5 60.898438 27.464844 60.898438 C 26.34375 60.878906 25.125 60.6875 24.269531 59.898438 C 23.953125 59.550781 23.773438 59.089844 23.78125 58.621094 C 23.851562 58.050781 24.113281 57.660156 24.550781 57.316406 C 26.148438 56.203125 28.976562 56.246094 30.6875 57.050781 Z M 25.617188 58.40625 C 25.507812 58.550781 25.511719 58.691406 25.53125 58.871094 C 25.6875 59.164062 25.902344 59.304688 26.207031 59.421875 C 26.703125 59.570312 27.207031 59.566406 27.722656 59.5625 C 27.855469 59.5625 27.992188 59.5625 28.125 59.5625 C 29.167969 59.570312 29.167969 59.570312 30.054688 59.082031 C 30.164062 58.902344 30.175781 58.695312 30.140625 58.488281 C 30.007812 58.242188 29.78125 58.125 29.527344 58.042969 C 29.007812 57.898438 28.5 57.882812 27.964844 57.882812 C 27.84375 57.882812 27.726562 57.882812 27.605469 57.882812 C 26.914062 57.878906 26.140625 57.894531 25.617188 58.40625 Z M 25.617188 58.40625 "/>
<path style=" stroke:none;fill-rule:nonzero;fill:rgb(21.568628%,48.627451%,16.862746%);fill-opacity:1;" d="M 51.78125 54.175781 C 52.339844 54.175781 52.898438 54.175781 53.472656 54.175781 C 53.472656 55.472656 53.472656 56.773438 53.472656 58.109375 C 55.160156 58.109375 56.847656 58.109375 58.589844 58.109375 C 58.589844 58.570312 58.589844 59.03125 58.589844 59.503906 C 55.128906 59.503906 51.667969 59.503906 48.105469 59.503906 C 48.105469 59.042969 48.105469 58.582031 48.105469 58.109375 C 49.316406 58.109375 50.53125 58.109375 51.78125 58.109375 C 51.78125 56.8125 51.78125 55.511719 51.78125 54.175781 Z M 51.78125 54.175781 "/>
<path style=" stroke:none;fill-rule:nonzero;fill:rgb(21.176471%,48.235294%,16.470589%);fill-opacity:1;" d="M 49.121094 50.285156 C 51.910156 50.285156 54.699219 50.285156 57.574219 50.285156 C 57.574219 53.523438 57.574219 53.523438 57.433594 54.832031 C 57.429688 54.878906 57.421875 54.925781 57.417969 54.976562 C 57.371094 55.386719 57.3125 55.796875 57.25 56.207031 C 57.246094 56.238281 57.242188 56.269531 57.238281 56.300781 C 57.160156 56.816406 57.160156 56.816406 57.109375 56.96875 C 56.734375 56.949219 56.371094 56.929688 56.003906 56.859375 C 55.796875 56.824219 55.585938 56.8125 55.375 56.796875 C 55.378906 56.773438 55.382812 56.746094 55.390625 56.722656 C 55.433594 56.464844 55.476562 56.210938 55.523438 55.953125 C 55.535156 55.875 55.550781 55.796875 55.5625 55.714844 C 55.65625 55.191406 55.707031 54.671875 55.746094 54.140625 C 55.761719 53.941406 55.78125 53.742188 55.796875 53.542969 C 55.8125 52.925781 55.824219 52.3125 55.839844 51.679688 C 53.621094 51.679688 51.40625 51.679688 49.121094 51.679688 C 49.121094 51.21875 49.121094 50.757812 49.121094 50.285156 Z M 49.121094 50.285156 "/>
<path style=" stroke:none;fill-rule:nonzero;fill:rgb(21.568628%,48.627451%,16.470589%);fill-opacity:1;" d="M 13.398438 56.796875 C 13.957031 56.796875 14.515625 56.796875 15.089844 56.796875 C 15.105469 57.621094 15.117188 58.445312 15.132812 59.292969 C 15.324219 59.292969 15.511719 59.292969 15.707031 59.292969 C 16.332031 59.292969 16.953125 59.292969 17.578125 59.292969 C 17.957031 59.289062 18.335938 59.289062 18.714844 59.289062 C 19.042969 59.289062 19.371094 59.289062 19.703125 59.289062 C 19.875 59.289062 20.050781 59.289062 20.226562 59.289062 C 20.390625 59.289062 20.554688 59.289062 20.71875 59.289062 C 20.777344 59.289062 20.839844 59.289062 20.898438 59.289062 C 20.980469 59.289062 21.066406 59.289062 21.148438 59.289062 C 21.191406 59.289062 21.238281 59.289062 21.285156 59.289062 C 21.390625 59.292969 21.390625 59.292969 21.429688 59.335938 C 21.429688 59.78125 21.429688 60.230469 21.429688 60.6875 C 18.78125 60.6875 16.128906 60.6875 13.398438 60.6875 C 13.398438 59.40625 13.398438 58.121094 13.398438 56.796875 Z M 13.398438 56.796875 "/>
<path style=" stroke:none;fill-rule:nonzero;fill:rgb(21.568628%,48.235294%,16.470589%);fill-opacity:1;" d="M 22.9375 54.59375 C 22.996094 54.59375 22.996094 54.59375 23.058594 54.59375 C 23.101562 54.59375 23.144531 54.59375 23.1875 54.59375 C 23.332031 54.59375 23.476562 54.59375 23.621094 54.59375 C 23.722656 54.59375 23.824219 54.59375 23.929688 54.59375 C 24.179688 54.59375 24.429688 54.59375 24.679688 54.59375 C 24.886719 54.59375 25.089844 54.59375 25.292969 54.59375 C 25.335938 54.59375 25.335938 54.59375 25.378906 54.59375 C 25.4375 54.59375 25.5 54.59375 25.558594 54.59375 C 26.109375 54.59375 26.660156 54.59375 27.214844 54.59375 C 27.6875 54.59375 28.164062 54.59375 28.636719 54.59375 C 29.1875 54.59375 29.738281 54.59375 30.289062 54.59375 C 30.347656 54.59375 30.40625 54.59375 30.464844 54.59375 C 30.492188 54.59375 30.519531 54.59375 30.550781 54.59375 C 30.753906 54.59375 30.957031 54.59375 31.160156 54.59375 C 31.4375 54.59375 31.710938 54.59375 31.984375 54.59375 C 32.085938 54.59375 32.183594 54.59375 32.285156 54.59375 C 32.421875 54.59375 32.558594 54.59375 32.695312 54.59375 C 32.738281 54.59375 32.777344 54.59375 32.820312 54.59375 C 33.09375 54.59375 33.09375 54.59375 33.140625 54.640625 C 33.144531 54.738281 33.144531 54.835938 33.144531 54.929688 C 33.144531 54.960938 33.144531 54.988281 33.144531 55.019531 C 33.144531 55.078125 33.144531 55.140625 33.144531 55.203125 C 33.144531 55.296875 33.144531 55.390625 33.144531 55.484375 C 33.144531 55.542969 33.144531 55.601562 33.144531 55.664062 C 33.144531 55.71875 33.144531 55.773438 33.144531 55.828125 C 33.140625 55.953125 33.140625 55.953125 33.097656 55.996094 C 32.964844 56 32.832031 56 32.695312 56 C 32.632812 56 32.632812 56 32.566406 56 C 32.425781 56 32.28125 56 32.136719 56 C 32.03125 56 31.929688 56 31.828125 56 C 31.578125 56 31.324219 56 31.074219 56 C 30.871094 56 30.667969 56 30.464844 56 C 30.417969 56 30.417969 56 30.375 56 C 30.316406 56 30.257812 56 30.199219 56 C 29.648438 56 29.09375 56 28.542969 56 C 28.066406 56 27.59375 56 27.121094 56 C 26.570312 56 26.019531 56 25.46875 56 C 25.410156 56 25.351562 56 25.292969 56 C 25.265625 56 25.234375 56 25.207031 56 C 25 56 24.796875 56 24.59375 56 C 24.320312 56 24.046875 56 23.773438 56 C 23.671875 56 23.570312 56 23.46875 56 C 23.332031 56 23.195312 56 23.058594 56 C 22.996094 56 22.996094 56 22.9375 56 C 22.664062 56 22.664062 56 22.613281 55.953125 C 22.609375 55.855469 22.609375 55.757812 22.609375 55.664062 C 22.609375 55.632812 22.609375 55.605469 22.609375 55.574219 C 22.609375 55.515625 22.609375 55.453125 22.609375 55.390625 C 22.609375 55.296875 22.609375 55.203125 22.609375 55.109375 C 22.609375 55.050781 22.609375 54.988281 22.609375 54.929688 C 22.609375 54.875 22.609375 54.820312 22.609375 54.765625 C 22.621094 54.535156 22.734375 54.59375 22.9375 54.59375 Z M 22.9375 54.59375 "/>
<path style=" stroke:none;fill-rule:nonzero;fill:rgb(21.176471%,48.627451%,16.862746%);fill-opacity:1;" d="M 19.402344 49.398438 C 19.960938 49.398438 20.519531 49.398438 21.09375 49.398438 C 21.09375 52.117188 21.09375 54.839844 21.09375 57.644531 C 20.535156 57.644531 19.976562 57.644531 19.402344 57.644531 C 19.402344 54.921875 19.402344 52.199219 19.402344 49.398438 Z M 19.402344 49.398438 "/>
</g>
</svg>
