<?xml version="1.0" encoding="UTF-8"?>
<svg id="Layer_2" data-name="Layer 2" xmlns="http://www.w3.org/2000/svg" viewBox="0 0 80 71.83">
  <defs>
    <style>
      .cls-1 {
        fill: #4b4b4b;
        stroke-width: 0px;
      }
    </style>
  </defs>
  <g id="Layer_1-2" data-name="Layer 1">
    <g>
      <polygon class="cls-1" points="40.82 41.35 40.44 41.72 40.44 43.35 47.78 43.35 47.78 56.73 50.02 56.73 50.02 41.11 44.45 41.11 52.98 33.51 61.51 41.11 55.93 41.11 55.93 51.86 58.17 51.86 58.17 43.35 64.39 43.35 65.51 43.29 65.51 41.66 52.98 30.51 40.82 41.35"/>
      <polygon class="cls-1" points="41.01 30.23 42.13 30.16 42.13 28.53 26.83 14.93 21.27 19.88 6.53 19.88 6.53 22.11 25.47 22.11 25.47 19.88 24.64 19.88 26.83 17.92 38.15 27.99 32.23 27.99 32.24 43.92 29 43.92 29 40.72 26.76 40.72 26.76 51.39 29 51.39 29 46.16 34.47 46.16 34.47 30.23 41.01 30.23"/>
      <polygon class="cls-1" points="15.54 27.99 17.23 26.48 15.74 24.81 11.91 28.22 11.54 28.61 11.54 30.23 19.19 30.23 19.19 40.84 21.43 40.84 21.43 27.99 15.54 27.99"/>
      <polygon class="cls-1" points="36.2 16.71 38.43 16.71 38.44 9.91 34.53 9.91 40.72 4.4 46.92 9.91 43.01 9.91 43.01 23.89 45.24 23.89 45.24 12.15 49.81 12.15 50.93 12.11 50.93 10.48 40.72 1.4 30.89 10.16 30.51 10.53 30.51 12.15 36.2 12.15 36.2 16.71"/>
      <rect class="cls-1" x="57.89" y="19.37" width="2.24" height="11.4"/>
      <rect class="cls-1" x="51.37" y="19.37" width="2.24" height="5.6"/>
      <rect class="cls-1" x="55.93" y="55.62" width="2.24" height="8.22"/>
      <rect class="cls-1" x="25.83" y="2.05" width="2.24" height="8.2"/>
      <rect class="cls-1" x="62.42" y="47.66" width="2.24" height="6.05"/>
      <rect class="cls-1" x="57.89" width="2.24" height="9.78"/>
      <rect class="cls-1" x="63.91" y="19.88" width="9.54" height="2.24"/>
      <rect class="cls-1" x="55.93" y="67.56" width="2.24" height="3.26"/>
      <rect class="cls-1" x="62.42" y="57.47" width="2.24" height="3.26"/>
      <rect class="cls-1" x="12.65" y="34.54" width="2.24" height="6.04"/>
      <rect class="cls-1" x="12.65" y="44.35" width="2.24" height="3.26"/>
      <rect class="cls-1" x="26.76" y="55.12" width="2.24" height="3.26"/>
      <rect class="cls-1" x="38.53" y="54.17" width="2.24" height="10.67"/>
      <rect class="cls-1" x="38.53" y="68.57" width="2.24" height="3.26"/>
      <rect class="cls-1" x="57.89" y="13.04" width="2.24" height="3.26"/>
      <rect class="cls-1" y="19.88" width="3.27" height="2.24"/>
      <rect class="cls-1" x="12.13" y="13.36" width="3.27" height="2.24"/>
      <rect class="cls-1" x="76.73" y="19.88" width="3.27" height="2.24"/>
    </g>
  </g>
</svg>