<?xml version="1.0" encoding="utf-8"?>
<!-- Generator: Adobe Illustrator 28.1.0, SVG Export Plug-In . SVG Version: 6.00 Build 0)  -->
<svg version="1.1" id="Layer_1" xmlns="http://www.w3.org/2000/svg" xmlns:xlink="http://www.w3.org/1999/xlink" x="0px" y="0px"
	 viewBox="0 0 480 480" style="enable-background:new 0 0 480 480;" xml:space="preserve">
<style type="text/css">
	.st0{fill:#FFFFFF;}
</style>
<circle cx="240" cy="240" r="190"/>
<g>
	<rect x="176.2" y="270" class="st0" width="59.9" height="34.7"/>
	<polygon class="st0" points="266.9,221 266.9,221 258.3,211.2 264.1,206 271.6,214.5 291.1,214.5 259.6,178.8 259.6,178.8 251,169 
		256.8,163.8 264.3,172.3 273.7,172.3 240,134.1 206.3,172.3 217.4,172.3 220,172.3 235,172.3 235,180.1 219.2,180.1 188.9,214.5 
		208.7,214.5 211.8,214.5 235,214.5 235,222.3 211.9,222.3 176.7,262.2 237,262.2 243,262.2 303.3,262.2 	"/>
	<path class="st0" d="M240,30C124,30,30,124,30,240s94,210,210,210s210-94,210-210S356,30,240,30z M299.7,357.7H180.3v-7.8h119.4
		V357.7z M337.6,335.1H142.4v-7.8h195.3v7.8H337.6z M363.1,304.7v7.8H116.9v-7.8h51.4V270h-9h-57.1l34.4-39h-26.9l33.5-37.9
		l-28.8,0.2l53.4-56.5l24.9,22.7l-5.3,5.8l-19.3-17.6l-35.6,37.6l17.5-0.1l6.6-7.5l5.9,5.2l-7.8,8.8l0,0l-0.1,0.2L127,223.2h16.5
		l6.6-7.5l2.9,2.6l2.9,2.6l0,0l0,0l-2.4,2.8l-5.3,6.1l0,0L148,230l0,0l-28.5,32.3h46.7l35.1-39.8h-29.9l37.2-42.2H189l51-57.9
		l51,57.9h-19.8l37.2,42.2h-29.9l35.1,39.8h46.7l-28.7-32.5l0,0l-7.8-8.8l5.9-5.2l6.6,7.5h16.5L325,191.8l0,0l-7.8-8.8l5.9-5.2
		l6.6,7.5l17.6,0.1l-35.7-37.6l-19.3,17.6l-5.3-5.8l24.9-22.7l53.6,56.5l-29-0.2l33.5,37.9h-26.9l34.4,39h-57.1h-9v34.7h51.7V304.7z
		"/>
	<rect x="243.9" y="270" class="st0" width="59.9" height="34.7"/>
</g>
</svg>
