<?xml version="1.0" encoding="utf-8"?>
<!-- Generator: Adobe Illustrator 28.1.0, SVG Export Plug-In . SVG Version: 6.00 Build 0)  -->
<svg version="1.1" id="Layer_1" xmlns="http://www.w3.org/2000/svg" xmlns:xlink="http://www.w3.org/1999/xlink" x="0px" y="0px"
	 viewBox="0 0 480 480" style="enable-background:new 0 0 480 480;" xml:space="preserve">
<style type="text/css">
	.st0{fill:#FFFFFF;}
</style>
<circle cx="240" cy="240" r="190"/>
<g>
	<polygon class="st0" points="331.9,254 306.6,220.6 306.6,264.3 331.9,300 	"/>
	<polygon class="st0" points="170.6,180.1 237.8,161.1 235.4,142 	"/>
	<polygon class="st0" points="298.6,261.6 298.6,209.7 262.8,139.5 243.2,139.5 251.1,204.3 279.9,261.6 	"/>
	<path class="st0" d="M240,30C124,30,30,124,30,240s94,210,210,210s210-94,210-210S356,30,240,30z M339.5,334.6
		c-4.4,8.6-13.2,13.9-22.8,13.9h-90l46.2-83l-27.5-54.9l-94.8,40l-3.1-7.4l95.5-40.3l-4.1-33.8l-96,27.2l-1.1-3.8l-2-3.5l94.8-55.6
		l-0.2-1.9h33.5l38.4,75l33.9,44.7v60.7C343.3,319.1,343.2,327.4,339.5,334.6z"/>
	<path class="st0" d="M300.5,269.6h-20.8l-39.5,70.9h76.4c6.7,0,12.6-3.6,15.7-9.6s2.6-12.9-1.3-18.4L300.5,269.6z"/>
</g>
</svg>
