<!-- Generated by IcoMoon.io -->
<svg version="1.1" xmlns="http://www.w3.org/2000/svg" viewBox="0 0 1024 1024">
<title></title>
<g id="icomoon-ignore">
</g>
<path d="M671.185 571.382h-319.612l83.782-94.642h-58.958l74.473-83.782h-38.788l100.848-114.812 100.848 114.812h-38.788l74.473 83.782h-58.958l80.679 94.642zM385.707 555.866h251.345l-77.576-88.436 9.309-6.206h44.994l-66.715-76.024 6.206-7.758h24.824l-66.715-76.024-66.715 76.024h27.927l3.103 9.309-3.103 3.103-62.061 69.818h44.994l6.206 7.758-3.103 4.655-72.921 83.782zM467.937 377.442h34.133v15.515h-34.133v-15.515zM449.319 461.224h52.752v15.515h-52.752v-15.515zM533.59 370.162l11.639-10.259 17.44 19.787-11.639 10.259-17.44-19.787zM547.733 454.184l11.632-10.268 17.455 19.774-11.632 10.268-17.455-19.774zM503.622 563.624h15.515v77.576h-15.515v-77.576zM784.446 571.382h-266.861v-15.515h232.727l-62.061-69.818 7.758-6.206h38.788l-58.958-66.715 4.655-9.309h41.891l-68.267-74.473-38.788 34.133-10.861-10.861 49.648-44.994 107.055 111.709h-57.406l66.715 76.024h-52.752l66.715 76.024zM664.888 398.005l11.638-10.26 15.39 17.457-11.638 10.26-15.39-17.457zM678.040 474.349l11.632-10.268 15.402 17.448-11.632 10.268-15.402-17.448zM638.604 571.382h15.515v69.818h-15.515v-69.818zM506.725 571.382h-266.861l68.267-77.576h-52.752l66.715-76.024h-57.406l105.503-111.709 49.648 44.994-10.861 10.861-38.788-34.133-71.37 74.473h41.891l4.655 9.309-3.103 4.655-54.303 62.061h38.788l7.758 6.206-4.655 6.206-55.855 63.612h232.727v17.067zM319.088 481.383l15.388-17.459 11.639 10.259-15.388 17.459-11.639-10.259zM370.192 571.382h15.515v69.818h-15.515v-69.818zM267.792 639.648h488.727v15.515h-488.727v-15.515zM318.992 684.642h387.879v15.515h-387.879v-15.515zM393.464 729.636h237.382v15.515h-237.382v-15.515zM331.2 406.070l15.388-17.459 11.639 10.259-15.388 17.459-11.639-10.259zM319.039 481.503l15.402-17.448 11.632 10.268-15.402 17.448-11.632-10.268z"></path>
</svg>
