<?xml version="1.0" encoding="utf-8"?>
<!-- Generator: Adobe Illustrator 28.1.0, SVG Export Plug-In . SVG Version: 6.00 Build 0)  -->
<svg version="1.1" id="Layer_1" xmlns="http://www.w3.org/2000/svg" xmlns:xlink="http://www.w3.org/1999/xlink" x="0px" y="0px"
	 viewBox="0 0 480 480" style="enable-background:new 0 0 480 480;" xml:space="preserve">
<style type="text/css">
	.st0{fill:#FFFFFF;}
</style>
<circle cx="240" cy="240" r="190"/>
<g>
	<path class="st0" d="M224.9,215.6l2.2,9.7l9.4-9.2c1.5-1.4,3.8-1.4,5.3,0l20,19.5l4.4-20l-20.7-20.7L224.9,215.6z"/>
	<polygon class="st0" points="220.6,231.5 216.6,213.2 245.6,184.2 274.6,213.2 269.2,237.5 288.2,212.7 266.6,191.1 266.6,170.7 
		224.5,170.7 224.5,191.1 203,212.7 218.8,233.3 	"/>
	<path class="st0" d="M216.9,163h57.3v0.1h2.6l11.1-16.6v-31.7h-84.7v31.7l11.1,16.6L216.9,163L216.9,163z M216.1,129.5h33.4v7.6
		h-33.4V129.5z"/>
	<path class="st0" d="M267.2,251.5c-0.7,0.3-1.5,0.5-2.2,0.5c-0.8,0-1.6-0.2-2.3-0.5c-2.3-1.1-3.6-3.6-3-6.1l0.2-1l-20.7-20.2
		L229,234l2.5,11.3c0.6,2.5-0.7,5-3,6.1s-5.1,0.4-6.6-1.6l-3.9-5.1l-21,20.4h84.2L267.2,251.5z"/>
	<path class="st0" d="M240,30C124,30,30,124,30,240s94,210,210,210s210-94,210-210S356,30,240,30z M355,372.7H125V265.1h61.1
		l27.1-26.4L192.9,212l24-24v-17.3h-6.6l-14.7-21.9v-41.6h99.9v41.6l-14.7,21.9h-6.6V188l24,24l-25.9,33.8L292,265h63V372.7z"/>
	<path class="st0" d="M132.6,365.1h214.8v-92.5H132.6V365.1z M325.2,285.5h7.6v66.7h-7.6V285.5z M302.9,285.5h7.6v66.7h-7.6V285.5z
		 M280.7,285.5h7.6v66.7h-7.6V285.5z M258.5,285.5h7.6v66.7h-7.6V285.5z M236.2,285.5h7.6v66.7h-7.6V285.5z M214,285.5h7.6v66.7H214
		V285.5z M191.7,285.5h7.6v66.7h-7.6V285.5z M169.5,285.5h7.6v66.7h-7.6V285.5z M147.3,285.5h7.6v66.7h-7.6V285.5z"/>
</g>
</svg>
