<!-- Generated by IcoMoon.io -->
<svg version="1.1" xmlns="http://www.w3.org/2000/svg" viewBox="0 0 1024 1024">
<title></title>
<g id="icomoon-ignore">
</g>
<path d="M585.143 479.76h-73.143v-17.554h73.143c8.777 0 17.554-2.926 24.869-7.314 21.943-13.166 48.274-17.554 73.143-13.166 13.166-16.091 27.794-24.869 40.96-32.183 10.24-5.851 19.017-11.703 23.406-17.554l13.166 10.24c-7.314 8.777-17.554 16.091-27.794 21.943-13.166 8.777-27.794 17.554-39.497 33.646l-2.926 4.389-5.851-1.463c-32.183-5.851-52.663 2.926-65.829 10.24-10.24 5.851-21.943 8.777-33.646 8.777zM588.069 712.354h-76.069v-17.554h62.903l30.72-150.674 8.777-2.926c35.109 1.463 51.2-7.314 68.754-16.091 8.777-4.389 17.554-8.777 26.331-11.703l96.549-122.88v-54.126h-52.663v21.943h20.48v17.554h-38.034v-55.589h87.771v78.994l-103.863 131.657-2.926-1.463c-8.777 2.926-17.554 5.851-24.869 10.24-16.091 8.777-35.109 17.554-70.217 17.554v0l-33.646 155.063zM512 479.76h-73.143c-11.703 0-24.869-5.851-33.646-14.629-14.629-13.166-36.571-14.629-52.663-2.926l-7.314 5.851-5.851-7.314c-11.703-16.091-29.257-26.331-45.349-35.109-13.166-8.777-24.869-14.629-32.183-23.406l13.166-10.24c4.389 5.851 16.091 13.166 27.794 20.48 14.629 8.777 32.183 19.017 45.349 33.646 21.943-11.703 49.737-8.777 68.754 8.777 5.851 5.851 13.166 8.777 21.943 8.777h73.143v16.091zM512 712.354h-77.531l-33.646-163.84c-36.571 10.24-70.217 2.926-98.011-20.48l-103.863-130.194v-78.994h87.771v55.589h-38.034v-17.554h20.48v-20.48h-52.663v55.589l99.474 124.343c35.109 30.72 73.143 19.017 84.846 14.629 4.389-1.463 7.314-2.926 11.703 0l2.926 1.463v4.389l32.183 157.989h64.366v17.554zM514.926 441.726h-11.703c-23.406 0-42.423-16.091-45.349-39.497l-7.314-36.571c-4.389-24.869 13.166-49.737 38.034-54.126 2.926 0 4.389 0 7.314 0h23.406c26.331 0 46.811 20.48 46.811 46.811 0 2.926 0 4.389 0 7.314l-5.851 38.034c-2.926 21.943-23.406 38.034-45.349 38.034zM497.371 329.086c-16.091 0-29.257 13.166-29.257 29.257 0 1.463 0 2.926 0 4.389l5.851 38.034c2.926 14.629 14.629 24.869 29.257 24.869h11.703c14.629 0 26.331-10.24 29.257-24.869l5.851-38.034c2.926-16.091-8.777-30.72-23.406-33.646-1.463 0-2.926 0-4.389 0h-24.869z"></path>
</svg>
