<svg width="32" height="32" xmlns="http://www.w3.org/2000/svg" xmlns:xlink="http://www.w3.org/1999/xlink" version="1.1" id="Layer_1" x="0px" y="0px" viewBox="0 0 32 32" style="enable-background:new 0 0 32 32;width: 32px;height: 32px;" xml:space="preserve">
<style type="text/css">
	.st0{fill:#FFFFFF;}
</style>
<g>
	<circle class="st0" cx="16" cy="16" r="16"/>
</g>
<path d="M22.4,7.7H9.6c-1,0-1.8,0.8-1.8,1.8v12.9c0,1,0.8,1.8,1.8,1.8h12.9c1,0,1.8-0.8,1.8-1.8V9.6C24.3,8.6,23.4,7.7,22.4,7.7z   M12.7,22h-2.5v-8h2.5V22z M11.5,13c-0.8,0-1.5-0.7-1.5-1.5c0-0.8,0.7-1.5,1.5-1.5c0.8,0,1.5,0.7,1.5,1.5C12.9,12.3,12.3,13,11.5,13  z M22,22h-2.5v-4.2c0-1.1-0.4-1.8-1.3-1.8c-1,0-1.5,0.7-1.5,1.8V22h-2.4v-8h2.4v1.1c0,0,0.7-1.3,2.4-1.3c1.7,0,2.9,1,2.9,3.2V22z"/>
</svg>