<?xml version="1.0" encoding="utf-8"?>
<!-- Generator: Adobe Illustrator 28.1.0, SVG Export Plug-In . SVG Version: 6.00 Build 0)  -->
<svg version="1.1" id="Layer_1" xmlns="http://www.w3.org/2000/svg" xmlns:xlink="http://www.w3.org/1999/xlink" x="0px" y="0px"
	 viewBox="0 0 480 480" style="enable-background:new 0 0 480 480;" xml:space="preserve">
<style type="text/css">
	.st0{fill:#FFFFFF;}
</style>
<circle cx="240" cy="240" r="190"/>
<g>
	<path class="st0" d="M206.3,278.7c1.3-2,2.5-3.9,4.1-5.5c1.9-2.1,5.2-3.8,8.8-4.2c-0.3-52.3-13.7-76.7-18.6-83.7
		c-2.4,2.6-4.6,5.8-6.5,9.6l-2,4.2c-3.5,7.2-7.1,14.6-11.9,21.3l-7.8,10.9c5.8,7.7,24,33.5,25.6,56.6
		C201.9,285.4,204.1,282,206.3,278.7z M198.2,234.2c0.1-0.4,0.4-0.9,0.8-1.2c0.3-0.4,0.7-0.7,1.2-0.8c1.4-0.6,3.1-0.2,4.1,0.8
		c0.7,0.7,1,1.6,1,2.6c0,0.5-0.1,1-0.3,1.4c-0.1,0.4-0.4,0.9-0.7,1.2c-0.7,0.7-1.7,1.1-2.7,1.1c-0.4,0-1-0.1-1.4-0.3
		c-0.4-0.1-0.9-0.4-1.2-0.8c-0.4-0.3-0.7-0.7-0.8-1.2c-0.2-0.4-0.3-0.9-0.3-1.4C197.9,235.2,198,234.7,198.2,234.2z"/>
	<path class="st0" d="M211.6,335.5c2.3,4.3,5.8,11.5,6.9,17.3l21.3,3c0.3,0,0.5,0,0.8,0l20.8-2.6c1.4-5.9,5-13,7.3-17.4
		c-8.5-2.9-19.8-6.1-28.9-6.1C230.9,329.7,219.9,332.7,211.6,335.5z"/>
	<path class="st0" d="M150.6,203.5l0.5-7.5c9.6,0.7,20.2,10,25.8,15.7c1.5-2.4,2.8-4.9,4.1-7.4c-2.6-6.7-16.4-35.1-60.7-32.3
		c-0.4,7.7-0.1,28.3,12,42c7.7,8.7,18.9,13.2,33.4,13.6l6.8-9.6C167.4,212.6,157.7,204,150.6,203.5z"/>
	<path class="st0" d="M292.1,139c-6.3,13-16.7,23.9-23.4,30c4.5,1.8,8.9,4.3,13,8C290.9,166.5,292.6,151,292.1,139z"/>
	<path class="st0" d="M211.3,169c-6.7-6.1-17.1-16.9-23.4-30c-0.4,12,1.3,27.6,10.4,38C202.4,173.3,206.8,170.8,211.3,169z"/>
	<path class="st0" d="M226.6,270.1c1.2,0.5,2.3,1.2,3.3,2.2c3.3,3,5.7,2.9,8.6,2.9h1.3h1.3c2.8,0.1,5.3,0.1,8.6-2.9
		c1.2-1.1,2.5-1.8,3.8-2.4c0.1-56.7,15.1-82.4,20.4-89.7c-11-7.9-24.5-7.9-33.6-7.9c-9.2,0-22.9,0-34,8
		C211.6,187.6,226.5,213.4,226.6,270.1z"/>
	<path class="st0" d="M298.9,204.3c1.4,2.7,2.9,5.3,4.4,7.8c5.5-5.6,16.4-15.5,26.3-16.2l0.5,7.5c-7.3,0.5-17.4,9.6-22.5,15l6.5,9.1
		c14.5-0.4,25.8-4.9,33.4-13.6c12.1-13.7,12.4-34.3,12-42C315.7,169.3,301.6,197.8,298.9,204.3z"/>
	<path class="st0" d="M240,30C124,30,30,124,30,240s94,210,210,210s210-94,210-210S356,30,240,30z M353.2,218.9
		c-9.1,10.4-22.3,15.8-39.1,16.2c-4.8,6.3-24.8,34-24.7,56.1c1,0.2,2.1,0.5,3.2,0.6c4.9,0.7,8.5,4.6,8.5,9.2
		c-0.1,9.5-1.7,27-12.2,36.7c-2.7,2.5-7,3.2-10.7,1.6c-0.7-0.3-1.4-0.6-2.3-0.9c-2.1,3.8-5.6,10.8-6.6,15.9
		c-0.6,3.3-3.4,5.9-6.9,6.3l-20.8,2.6c-0.4,0.1-0.9,0.1-1.3,0.1c-0.4,0-0.9,0-1.3-0.1l-20.8-2.6c-3.5-0.4-6.2-3-6.9-6.3
		c-1-5.2-4.7-12.4-6.7-16.1c-1.1,0.4-2.2,0.8-3,1.2c-1.4,0.6-2.8,0.8-4.2,0.8c-2.5,0-4.8-0.9-6.6-2.5c-10.5-9.7-12.1-27.1-12.2-36.7
		c0-4.6,3.5-8.5,8.5-9.2c1.3-0.2,2.5-0.4,3.7-0.7c0-22.1-19.9-49.6-24.7-56c-16.8-0.4-30-5.8-39.1-16.2
		c-17.3-19.6-13.7-49.6-13.6-50.9l0.4-3l3-0.3c42.9-4,61.7,18.8,68.7,31.2c0-0.1,0.1-0.1,0.1-0.2l2.1-4.2c1.7-3.5,3.6-6.5,5.7-9.1
		c-20-21.8-10.8-61.1-10.4-62.8c0.4-1.8,2.1-3,3.9-2.9c1.8,0.1,3.3,1.6,3.4,3.4c1.7,20.9,22.6,40.3,29.7,46.3
		c7.7-1.6,15-1.7,20.5-1.7c5.4,0,12.5,0,20.1,1.6c7.1-6,28-25.4,29.6-46.3c0.1-1.8,1.6-3.3,3.4-3.4c1.9-0.1,3.5,1.1,3.9,2.9
		c0.4,1.7,9.5,41.1-10.4,62.8c2.1,2.6,4,5.6,5.7,9.1l2,4.2c0,0.1,0.1,0.2,0.1,0.3c7-12.3,25.8-35.1,68.7-31.2l3,0.3l0.4,3
		C366.9,169.3,370.5,199.3,353.2,218.9z"/>
	<path class="st0" d="M287.9,199l-2-4.1c-1.9-3.8-4.1-7-6.5-9.6c-4.8,7-18.3,31.4-18.6,83.8c3.5,0.5,6.5,2.2,8.4,4.1
		c1.5,1.7,2.8,3.5,4.1,5.5c2.2,3.4,4.5,6.9,8.6,9.5c1.5-23.2,19.8-49.2,25.6-56.9l-7.8-10.9C295,213.6,291.4,206.2,287.9,199z
		 M281.8,237.1c-0.2,0.4-0.5,0.9-0.8,1.2c-0.7,0.7-1.6,1.1-2.6,1.1c-0.5,0-1-0.1-1.5-0.3c-0.4-0.1-0.8-0.4-1.2-0.8
		c-0.7-0.7-1.1-1.6-1.1-2.6c0-0.4,0.1-1,0.3-1.4c0.2-0.4,0.5-0.9,0.8-1.2c0.4-0.4,0.8-0.7,1.2-0.8c1.4-0.6,3.1-0.2,4.1,0.8
		c0.3,0.3,0.6,0.7,0.8,1.2c0.2,0.4,0.3,1,0.3,1.4C282.1,236.2,282,236.6,281.8,237.1z"/>
	<path class="st0" d="M267.1,282.8c-1.1-1.7-2.2-3.3-3.3-4.5c-1.2-1.3-5.8-3.4-9.1-0.4c-5.5,5-10.5,4.9-13.8,4.8h-1.1h-1.1
		c-3.3,0.1-8.2,0.2-13.8-4.8c-3.3-3-7.9-0.9-9.1,0.4c-1.1,1.2-2.2,2.8-3.3,4.5c-3.9,6-9.3,14.3-24.5,16.4c-0.7,0.1-2,0.6-2,1.8
		c0,6.7,1.1,23.2,9.8,31.2c0.7,0.7,1.9,0.6,2.8,0.2c7.5-3.1,26.4-10.2,41.2-10.2c14.7,0,33.7,7.1,41.2,10.2c1.1,0.4,2.2,0.4,2.8-0.2
		c8.7-8,9.7-24.5,9.8-31.2c0-1.2-1.3-1.7-2-1.8C276.4,297.1,271,288.8,267.1,282.8z M228.1,304.5c-0.1,0.4-0.4,0.9-0.7,1.2
		c-0.7,0.7-1.7,1.1-2.7,1.1c-0.4,0-1-0.1-1.4-0.3c-0.4-0.1-0.9-0.4-1.2-0.8c-0.4-0.3-0.7-0.7-0.8-1.2c-0.2-0.4-0.3-1-0.3-1.4
		c0-1,0.4-1.9,1.1-2.7c0.3-0.3,0.7-0.6,1.2-0.7c1.3-0.6,3.1-0.2,4.1,0.7c0.7,0.7,1,1.7,1,2.7C228.4,303.6,228.3,304.1,228.1,304.5z
		 M258.3,304.5c-0.2,0.4-0.5,0.9-0.8,1.2c-0.7,0.7-1.6,1.1-2.6,1.1s-2-0.4-2.7-1.1c-0.3-0.3-0.6-0.7-0.7-1.2c-0.2-0.4-0.3-1-0.3-1.4
		c0-0.5,0.1-1,0.3-1.4c0.1-0.4,0.4-0.9,0.7-1.2c1.4-1.4,3.9-1.4,5.3,0c0.4,0.3,0.6,0.7,0.8,1.2c0.1,0.4,0.3,0.9,0.3,1.4
		C258.6,303.6,258.5,304.1,258.3,304.5z"/>
</g>
</svg>
