<!-- Generated by IcoMoon.io -->
<svg version="1.1" xmlns="http://www.w3.org/2000/svg" viewBox="0 0 1024 1024">
<title></title>
<g id="icomoon-ignore">
</g>
<path d="M555.66 582.987h-15.515c0-141.188 44.994-190.836 46.545-192.388l10.861 10.861c0 0-41.891 48.097-41.891 181.527zM661.163 510.066v-15.515c27.927 1.552 54.303-7.758 72.921-27.927 24.824-27.927 26.376-71.37 24.824-86.885-102.4-6.206-127.224 69.818-127.224 69.818l-15.515-4.655c0-1.552 29.479-91.539 148.945-80.679h6.206l1.552 6.206c0 3.103 7.758 65.164-27.927 105.503-20.17 23.273-51.2 35.685-83.782 34.133zM425.332 632.635l-15.515-1.552c4.655-52.752-52.752-124.121-52.752-125.673l-3.103-4.655 23.273-32.582c9.309-13.964 17.067-27.927 23.273-41.891l4.655-9.309c27.927-55.855 80.679-55.855 110.158-55.855 27.927 0 80.679 0 108.606 55.855l4.655 9.309c6.206 13.964 13.964 29.479 23.273 41.891l23.273 32.582-3.103 4.655c0 0-57.406 72.921-52.752 125.673l-15.515 1.552c-4.655-51.2 40.339-114.812 52.752-131.879l-15.515-23.273c-9.309-13.964-17.067-29.479-24.824-44.994l-4.655-7.758c-23.273-46.545-68.267-46.545-94.642-46.545s-72.921 0-96.194 46.545l-4.655 9.309c-7.758 15.515-15.515 29.479-24.824 44.994l-15.515 23.273c9.309 17.067 54.303 79.127 49.648 130.327zM484.29 582.987h-15.515c0-133.43-41.891-181.527-41.891-181.527l10.861-10.861c1.552 1.552 46.545 51.2 46.545 192.388zM361.72 510.066c-32.582 1.552-63.612-10.861-85.333-34.133-35.685-40.339-27.927-102.4-27.927-105.503l1.552-6.206h6.206c121.018-10.861 148.945 79.127 148.945 80.679l-15.515 4.655c-1.552-3.103-24.824-76.024-127.224-69.818 0 15.515 0 58.958 24.824 86.885 18.618 20.17 46.545 29.479 72.921 27.927l1.552 15.515zM423.781 727.278c-4.655 0-9.309-1.552-13.964-4.655-21.721-20.17-24.824-55.855-24.824-76.024 0-9.309 7.758-18.618 17.067-18.618 17.067-1.552 32.582-12.412 40.339-26.376 3.103-4.655 4.655-7.758 7.758-10.861 10.861-10.861 29.479-12.412 40.339-1.552 4.655 4.655 10.861 6.206 17.067 6.206h6.206c6.206 1.552 12.412-1.552 17.067-6.206 12.412-10.861 29.479-9.309 40.339 1.552 3.103 3.103 6.206 7.758 7.758 10.861 7.758 15.515 23.273 24.824 40.339 26.376 9.309 1.552 17.067 9.309 17.067 18.618 0 20.17-3.103 55.855-24.824 76.024-6.206 4.655-15.515 6.206-21.721 3.103-24.824-10.861-52.752-17.067-79.127-20.17-27.927 1.552-54.303 9.309-79.127 20.17-1.552 1.552-4.655 1.552-7.758 1.552zM512.217 690.041c29.479 1.552 58.958 9.309 85.333 21.721 1.552 1.552 4.655 1.552 6.206 0 18.618-17.067 20.17-51.2 20.17-65.164 0-3.103-3.103-3.103-4.655-3.103-21.721-1.552-40.339-15.515-51.2-34.133-1.552-3.103-4.655-6.206-6.206-9.309-4.655-4.655-13.964-4.655-18.618-1.552-7.758 7.758-18.618 10.861-27.927 9.309h-3.103c-10.861 1.552-20.17-3.103-27.927-9.309-6.206-4.655-13.964-4.655-18.618 1.552-3.103 3.103-4.655 6.206-6.206 9.309-10.861 18.618-29.479 31.030-51.2 34.133-1.552 0-4.655 1.552-4.655 3.103 0 13.964 1.552 48.097 20.17 65.164 1.552 1.552 4.655 1.552 6.206 0 23.273-12.412 52.752-20.17 82.23-21.721zM512.217 775.375c-1.552 0-1.552 0-3.103 0l-43.442-6.206c-7.758-1.552-12.412-6.206-13.964-12.412-4.655-13.964-9.309-26.376-17.067-38.788l13.964-7.758c7.758 13.964 13.964 27.927 18.618 43.442l43.442 6.206h1.552l43.442-6.206c4.655-15.515 10.861-31.030 20.17-43.442l13.964 7.758c-7.758 12.412-12.412 24.824-17.067 38.788-1.552 7.758-7.758 12.412-13.964 12.412l-43.442 6.206c-1.552 0-1.552 0-3.103 0zM543.248 657.46c-1.552 0-4.655-1.552-6.206-3.103s-1.552-3.103-1.552-4.655c0-1.552 0-1.552 0-3.103s1.552-1.552 1.552-3.103c3.103-3.103 7.758-3.103 10.861 0 0 0 1.552 1.552 1.552 3.103s0 1.552 0 3.103 0 1.552 0 3.103-1.552 1.552-1.552 3.103-3.103 1.552-4.655 1.552zM479.635 657.46c-1.552 0-1.552 0-3.103 0-1.552-1.552-3.103-1.552-4.655-4.655 0-1.552 0-1.552 0-3.103s1.552-4.655 1.552-6.206c0 0 1.552-1.552 3.103-1.552 3.103-1.552 6.206 0 9.309 1.552 1.552 1.552 1.552 3.103 1.552 6.206 0 1.552-1.552 4.655-1.552 4.655-1.552 3.103-3.103 3.103-6.206 3.103zM591.344 517.823c-1.552 0-1.552 0-3.103 0s-1.552-1.552-3.103-1.552-1.552-3.103-1.552-4.655c0-1.552 0-1.552 0-3.103s1.552-1.552 1.552-3.103c0 0 1.552-1.552 3.103-1.552 3.103-1.552 6.206 0 9.309 1.552 0 0 1.552 1.552 1.552 3.103s0 1.552 0 3.103 0 1.552 0 3.103-1.552 1.552-1.552 3.103c-1.552 0-3.103 0-6.206 0zM433.090 517.823c-1.552 0-1.552 0-3.103 0-1.552-1.552-3.103-1.552-4.655-4.655 0-1.552 0-1.552 0-3.103s0-1.552 0-3.103c1.552-1.552 1.552-3.103 4.655-4.655s6.206 0 9.309 1.552c1.552 1.552 1.552 3.103 1.552 4.655s0 1.552 0 3.103-1.552 1.552-1.552 3.103c-3.103 3.103-4.655 3.103-6.206 3.103zM648.751 479.035l-12.412-10.861c3.103-4.655 34.133-38.788 62.061-40.339l1.552 15.515c-18.618 1.552-43.442 26.376-51.2 35.685zM377.235 479.035c-7.758-9.309-32.582-34.133-51.2-35.685l1.552-15.515c26.376 1.552 57.406 37.236 62.061 40.339l-12.412 10.861zM605.308 404.563l-10.861-10.861c23.273-21.721 26.376-57.406 26.376-83.782-15.515 27.927-35.685 52.752-62.061 72.921l-9.309-12.412c0 0 62.061-48.097 66.715-99.297 0-4.655 4.655-7.758 7.758-7.758s6.206 3.103 6.206 6.206c1.552 3.103 21.721 91.539-24.824 134.982zM419.126 404.563c-48.097-43.442-27.927-131.879-26.376-134.982 1.552-4.655 4.655-6.206 9.309-6.206 3.103 1.552 6.206 3.103 6.206 6.206 4.655 51.2 65.164 99.297 66.715 99.297l-9.309 12.412c-24.824-20.17-46.545-44.994-62.061-72.921-1.552 26.376 3.103 62.061 26.376 83.782l-10.861 12.412z"></path>
</svg>
