<?xml version="1.0" encoding="utf-8"?>
<!-- Generator: Adobe Illustrator 28.1.0, SVG Export Plug-In . SVG Version: 6.00 Build 0)  -->
<svg version="1.1" id="Layer_1" xmlns="http://www.w3.org/2000/svg" xmlns:xlink="http://www.w3.org/1999/xlink" x="0px" y="0px"
	 viewBox="0 0 480 480" style="enable-background:new 0 0 480 480;" xml:space="preserve">
<style type="text/css">
	.st0{fill:#FFFFFF;}
</style>
<circle cx="240" cy="240" r="190"/>
<g>
	<path class="st0" d="M172,288.4l0.4-0.6l-5.5,2.4v34.3h89.8v-30.8c-12.8,5.3-25.1,7.1-36.1,7.1C193.1,300.9,173.2,289.2,172,288.4z
		"/>
	<path class="st0" d="M240,30C124,30,30,124,30,240s94,210,210,210s210-94,210-210S356,30,240,30z M302.9,176.9l0.1-2.3
		c0.2-4.5,2.3-7,4-8.3c5.6-4.3,15-2.2,20-1.1l2.2,0.5c4.9,1,13.9,2.8,17.3,8.9c1,1.9,2,5.1,0.3,9.3L346,186
		c-4.2,10.8-11.6,30.3-25.5,30.3c-1.1,0-2.2-0.1-3.3-0.4C301.1,212.5,302.3,189.4,302.9,176.9z M345.1,225c0,0.5-0.1,1-0.2,1.5
		c-0.2,0.5-0.6,0.9-0.9,1.3c-0.8,0.8-1.8,1.2-2.9,1.2c-0.5,0-1-0.2-1.5-0.3c-0.5-0.2-0.9-0.5-1.3-0.9s-0.6-0.8-0.9-1.3
		c-0.2-0.5-0.3-1-0.3-1.5c0-1,0.5-2.1,1.2-2.9c1.4-1.4,4.1-1.4,5.6,0C344.7,222.9,345.1,224,345.1,225z M391.6,265.6
		c-0.1,0.9-0.7,2-1.3,2.6c-34.3,31.8-81,17.9-94.5,12.9l0.4,43.5h88v8h-92.6h-30.3h-99H132h-30.4v-8h25.9l-0.1-40.3
		c-9.4-17.8-12.5-37.6-9.4-57h-0.7C99.5,227.3,85,212.8,85,195h8c0,13.4,10.9,24.4,24.4,24.4h2.4c1.3-5.1,3-10.1,5.2-15.1
		c11.4-25.9,33.5-44.8,60.4-51.9c32.6-8.5,72.8-6.1,110.3,6.5l-2.5,7.5c-36.1-12.2-74.6-14.5-105.7-6.4
		c-24.6,6.4-44.7,23.7-55.2,47.4s-9.7,50.2,2.2,72.8l0.6,1.2c0.3,0.6,0.6,1.5,0.6,2.2v40.9h23.5v-36.9c0-1.6,0.9-3,2.4-3.6l8.9-3.9
		c10.8-4.8,17.1-16.3,15.3-27.9l7.9-1.2c2,12.7-3.4,25.3-13.4,32.7c10.3,4.9,40.2,16.3,73.3,3c-12-12.6-8.1-32.7-3.8-42.6l7.3,3.2
		c-0.5,1-11,25.9,5.9,36.9c1.1,0.7,2.1,2.4,2.1,3.8v36.7h23.5V281c0-2.5,1.2-4.9,3.3-6.4c2-1.4,4.6-1.7,7-0.9
		c15.8,5.9,55.4,16.5,85.3-10.4l2.7-19.1h-16.2c-1.3,0-2.5-0.6-3.3-1.7c-0.2-0.3-4.4-6.5-6.6-14.1c-1.5-5.2-3.3-10.7-6.1-15.6
		l-4.6-7.8l6.9-4l4.6,7.8c3.3,5.7,5.2,11.7,6.9,17.4c1.2,4.2,3.2,8,4.4,10.1h18.6c1.1,0,2.2,0.5,3,1.4s1.1,2,0.9,3.2L391.6,265.6z
		 M226.8,174.9v8c-11.7,0-22.7,1.3-32.6,3.9c-16.5,4.3-29.9,15.9-37,31.9l-7.3-3.2c8-18.2,23.4-31.5,42.3-36.4
		C202.7,176.3,214.4,174.9,226.8,174.9z"/>
	<path class="st0" d="M318.8,208.1c9.5,2,16.4-16.2,19.8-25l0.8-2.1c0.7-1.7,0.3-2.4,0.1-2.6c-1.5-2.8-9-4.3-11.9-4.9l-2.3-0.5
		c-1.9-0.4-5.9-1.3-9.2-1.3c-1.8,0-3.3,0.3-4.2,1c-0.3,0.2-0.8,0.7-0.9,2.3l-0.1,2.3C310.4,186.7,309.4,206.1,318.8,208.1z"/>
</g>
</svg>
