<svg xmlns="http://www.w3.org/2000/svg" viewBox="0 0 18 22" fill="none">
  <g clip-path="url(#clip0_9995_7979)">
    <path d="M15.3606 2.68336C14.102 1.40186 12.4989 0.529298 10.7539 0.175904C9.00895 -0.177491 7.20034 0.00413922 5.5566 0.697848C3.91285 1.39156 2.50773 2.56622 1.51873 4.07343C0.529737 5.58065 0.00124833 7.35279 3.17119e-05 9.16597C-0.00310968 10.367 0.227169 11.5567 0.677577 12.6665C1.12799 13.7763 1.7896 14.7842 2.62425 15.6321L8.02386 21.5754C8.14988 21.7096 8.30127 21.8164 8.46889 21.8894C8.63651 21.9624 8.81689 22 8.99917 22C9.18144 22 9.36183 21.9624 9.52945 21.8894C9.69707 21.8164 9.84846 21.7096 9.97447 21.5754L15.3619 15.6417C16.1982 14.7908 16.8617 13.7802 17.3143 12.6677C17.767 11.5553 18 10.3627 18 9.15841C18 7.95407 17.767 6.76155 17.3143 5.64907C16.8617 4.53659 16.1982 3.526 15.3619 2.6751M14.0768 14.3581L9.00119 19.9602L3.91475 14.3526C3.23269 13.6746 2.6895 12.8654 2.31667 11.9718C1.94384 11.0782 1.7488 10.118 1.74286 9.14702C1.73691 8.17602 1.92019 7.21347 2.28205 6.31521C2.64391 5.41695 3.17716 4.60084 3.85087 3.91422C4.52458 3.2276 5.32534 2.68414 6.20672 2.31534C7.0881 1.94655 8.03255 1.75976 8.9853 1.76582C9.93805 1.77188 10.8801 1.97065 11.7569 2.35063C12.6337 2.7306 13.4278 3.2842 14.093 3.97933C14.7629 4.66125 15.294 5.47125 15.656 6.36285C16.0179 7.25445 16.2036 8.21011 16.2024 9.17502C16.2011 10.1399 16.013 11.0951 15.6487 11.9857C15.2844 12.8763 14.7511 13.6849 14.0795 14.365M8.99579 5.4968C8.28386 5.49735 7.58806 5.713 6.99637 6.11651C6.40468 6.52001 5.94365 7.09325 5.67157 7.76375C5.3995 8.43425 5.32859 9.17191 5.46781 9.88348C5.60702 10.595 5.95012 11.2486 6.45373 11.7614C6.95733 12.2743 7.59883 12.6235 8.29712 12.7648C8.99542 12.9062 9.71916 12.8334 10.3769 12.5556C11.0345 12.2778 11.5967 11.8075 11.9921 11.2042C12.3876 10.6008 12.5987 9.89155 12.5987 9.16597C12.6025 8.68283 12.5118 8.20374 12.3321 7.75666C12.1523 7.30957 11.887 6.90343 11.5517 6.56191C11.2163 6.22039 10.8176 5.95033 10.3788 5.76746C9.94 5.58459 9.46986 5.49259 8.99579 5.4968ZM8.99579 10.9999C8.64008 10.9991 8.29257 10.8908 7.99719 10.6888C7.70181 10.4868 7.47181 10.2001 7.33623 9.86492C7.20066 9.52975 7.1656 9.16114 7.23549 8.80567C7.30538 8.45021 7.47708 8.12382 7.72889 7.86776C7.9807 7.6117 8.30134 7.43745 8.65028 7.36702C8.99922 7.29659 9.36082 7.33315 9.68938 7.47207C10.018 7.611 10.2987 7.84605 10.4963 8.14755C10.6938 8.44904 10.7993 8.80344 10.7993 9.16597C10.7991 9.40699 10.7523 9.6456 10.6617 9.8682C10.571 10.0908 10.4382 10.293 10.2709 10.4633C10.1035 10.6336 9.90492 10.7686 9.68637 10.8607C9.46782 10.9528 9.23228 11.0001 8.99579 10.9999Z" fill="white"/>
  </g>
  <defs>
    <clipPath id="clip0_9995_7979">
      <rect width="18" height="22" fill="white"/>
    </clipPath>
  </defs>
</svg>