<svg  viewBox="0 0 135 120" fill="none" xmlns="http://www.w3.org/2000/svg">
<g id="TYM Logo/Red" clip-path="url(#clip0_1355_4981)">
<path id="Vector" d="M93.7975 21.6677H81.9749L76.653 81.0227L75.4512 81.2262L76.342 40.7168L77.8395 14.8099L93.7975 21.6677Z" fill="url(#paint0_linear_1355_4981)"/>
<path id="Vector_2" d="M16.2114 4.35428L57.2046 14.8099L41.2428 21.6677L16.2114 4.35428Z" fill="url(#paint1_linear_1355_4981)"/>
<path id="Vector_3" d="M41.2429 21.6677H53.0655L58.3913 81.0227L59.5931 81.2262L58.6754 42.5675L57.2048 14.8099L41.2429 21.6677Z" fill="url(#paint2_linear_1355_4981)"/>
<path id="Vector_4" d="M53.2382 79.0836L50.1664 48.0891L49.1796 41.2735C48.6036 36.8732 46.3305 32.9566 42.9438 30.526L16.2114 11.335L19.3447 37.165L38.1787 43.6465C40.5324 44.4221 42.4331 46.3343 43.347 48.8378L48.5076 75.7238L53.242 79.0874L53.2382 79.0836Z" fill="url(#paint3_linear_1355_4981)"/>
<path id="Vector_5" d="M48.5077 75.7238L43.347 48.8378C42.8056 46.2806 40.5287 44.4221 38.1787 43.6465L19.3524 37.1688H19.3447L24.4631 40.8396C30.7334 45.336 35.3987 52.0978 37.6642 59.9731L41.0547 69.8451C41.1853 70.3059 41.4502 70.7052 41.8111 70.9817L48.5115 75.7238H48.5077Z" fill="url(#paint4_linear_1355_4981)"/>
<path id="Vector_6" d="M67.5221 0L16.2114 4.35428L57.2046 14.8099L59.593 81.2262L67.5221 82.597L75.4512 81.2262L77.8395 14.8099L118.833 4.35428L67.5221 0Z" fill="url(#paint5_linear_1355_4981)"/>
<path id="Vector_7" d="M118.833 4.35428L77.8396 14.8099L93.7976 21.6677L118.833 4.35428Z" fill="url(#paint6_linear_1355_4981)"/>
<path id="Vector_8" d="M81.8061 79.0836L84.8779 48.0891L85.8647 41.2735C86.4407 36.8732 88.7138 32.9566 92.1005 30.526L118.833 11.335L115.7 37.165L96.8656 43.6465C94.5118 44.4221 92.6112 46.3343 91.6973 48.8378L86.5367 75.7238L81.8022 79.0874L81.8061 79.0836Z" fill="url(#paint7_linear_1355_4981)"/>
<path id="Vector_9" d="M86.5366 75.7238L91.6972 48.8378C92.2386 46.2806 94.5156 44.4221 96.8655 43.6465L115.692 37.1688H115.699L110.581 40.8396C104.311 45.336 99.6455 52.0978 97.38 59.9731L93.9895 69.8451C93.859 70.3059 93.594 70.7052 93.2331 70.9817L86.5327 75.7238H86.5366Z" fill="url(#paint8_linear_1355_4981)"/>
<path id="Vector_10" d="M12.5752 98.3361H0V105.528H12.5752V120H20.6886V105.528H33.2638V98.3361H20.6886H12.5752Z" fill="#C91820"/>
<path id="Vector_11" d="M67.0152 106.334L59.2013 98.3361H49.3831L62.5649 111.652V120H71.4655V111.652L84.7126 98.3361H74.833L67.0152 106.334Z" fill="#C91820"/>
<path id="Vector_12" d="M134.391 98.3361H125.091L117.278 106.334L109.46 98.3361H100.16H100.164H100.16V120H108.269L108.266 107.045L117.278 116.183L126.289 107.045L126.286 120H134.391V98.3361Z" fill="#C91820"/>
</g>
<defs>
<linearGradient id="paint0_linear_1355_4981" x1="84.6243" y1="32.5304" x2="84.6243" y2="99.6032" gradientUnits="userSpaceOnUse">
<stop stop-color="#C91820"/>
<stop offset="0.18" stop-color="#C4171F"/>
<stop offset="0.37" stop-color="#B8171E"/>
<stop offset="0.56" stop-color="#A3171C"/>
<stop offset="0.75" stop-color="#861619"/>
<stop offset="0.95" stop-color="#601516"/>
<stop offset="1" stop-color="#551515"/>
</linearGradient>
<linearGradient id="paint1_linear_1355_4981" x1="15.5932" y1="4.40419" x2="49.4522" y2="18.331" gradientUnits="userSpaceOnUse">
<stop stop-color="#C71619"/>
<stop offset="1" stop-color="#551515"/>
</linearGradient>
<linearGradient id="paint2_linear_1355_4981" x1="50.4199" y1="33.8282" x2="50.4199" y2="100.901" gradientUnits="userSpaceOnUse">
<stop stop-color="#C91820"/>
<stop offset="0.18" stop-color="#C4171F"/>
<stop offset="0.37" stop-color="#B8171E"/>
<stop offset="0.56" stop-color="#A3171C"/>
<stop offset="0.75" stop-color="#861619"/>
<stop offset="0.95" stop-color="#601516"/>
<stop offset="1" stop-color="#551515"/>
</linearGradient>
<linearGradient id="paint3_linear_1355_4981" x1="34.7267" y1="46.0156" x2="34.7267" y2="90.9369" gradientUnits="userSpaceOnUse">
<stop stop-color="#E1211E"/>
<stop offset="0.34" stop-color="#E1211E"/>
<stop offset="1" stop-color="#551515"/>
</linearGradient>
<linearGradient id="paint4_linear_1355_4981" x1="33.9243" y1="75.1094" x2="33.9243" y2="39.8336" gradientUnits="userSpaceOnUse">
<stop stop-color="#E1211E"/>
<stop offset="1" stop-color="#551515"/>
</linearGradient>
<linearGradient id="paint5_linear_1355_4981" x1="67.5221" y1="36.4201" x2="67.5221" y2="106.296" gradientUnits="userSpaceOnUse">
<stop stop-color="#E1211E"/>
<stop offset="0.34" stop-color="#E1211E"/>
<stop offset="0.73" stop-color="#551515"/>
</linearGradient>
<linearGradient id="paint6_linear_1355_4981" x1="118.599" y1="3.0526" x2="86.049" y2="18.1313" gradientUnits="userSpaceOnUse">
<stop stop-color="#C71619"/>
<stop offset="1" stop-color="#551515"/>
</linearGradient>
<linearGradient id="paint7_linear_1355_4981" x1="100.318" y1="46.0156" x2="100.318" y2="90.9369" gradientUnits="userSpaceOnUse">
<stop stop-color="#E1211E"/>
<stop offset="0.34" stop-color="#E1211E"/>
<stop offset="1" stop-color="#551515"/>
</linearGradient>
<linearGradient id="paint8_linear_1355_4981" x1="101.12" y1="75.1094" x2="101.12" y2="39.8336" gradientUnits="userSpaceOnUse">
<stop stop-color="#E1211E"/>
<stop offset="1" stop-color="#551515"/>
</linearGradient>
<clipPath id="clip0_1355_4981">
<rect width="134.391" height="120" fill="white"/>
</clipPath>
</defs>
</svg>
