<?xml version="1.0" encoding="utf-8"?>
<!-- Generator: Adobe Illustrator 28.1.0, SVG Export Plug-In . SVG Version: 6.00 Build 0)  -->
<svg version="1.1" id="Layer_1" xmlns="http://www.w3.org/2000/svg" xmlns:xlink="http://www.w3.org/1999/xlink" x="0px" y="0px"
	 viewBox="0 0 480 480" style="enable-background:new 0 0 480 480;" xml:space="preserve">
<style type="text/css">
	.st0{fill:#FFFFFF;}
</style>
<circle cx="240" cy="240" r="190"/>
<g>
	<rect x="153.2" y="314.9" class="st0" width="17" height="21.7"/>
	<path class="st0" d="M238.4,306.9c-8.1,0-14.6,6.6-14.6,14.6s6.6,14.6,14.6,14.6c8.1,0,14.6-6.6,14.6-14.6S246.4,306.9,238.4,306.9
		z"/>
	<path class="st0" d="M238.4,281.1c-22.3,0-40.5,18.2-40.5,40.5s18.2,40.5,40.5,40.5s40.5-18.2,40.5-40.5
		C278.8,299.2,260.7,281.1,238.4,281.1z M238.4,344.1c-12.4,0-22.6-10.1-22.6-22.6s10.1-22.6,22.6-22.6c12.4,0,22.6,10.1,22.6,22.6
		S250.8,344.1,238.4,344.1z"/>
	<rect x="153.2" y="285.3" class="st0" width="17" height="21.7"/>
	<rect x="153.2" y="255.6" class="st0" width="17" height="21.7"/>
	<rect x="290.8" y="175.7" class="st0" width="47.1" height="42.8"/>
	<polygon class="st0" points="335.6,253.1 307.2,253.1 307.2,226.5 290.8,226.5 290.8,285.2 352,285.2 352,226.5 335.6,226.5 	"/>
	<path class="st0" d="M240,30C124,30,30,124,30,240s94,210,210,210s210-94,210-210S356,30,240,30z M365.2,293.2h-87.6
		c5.8,8,9.2,17.8,9.2,28.4c0,26.7-21.7,48.4-48.4,48.4c-25.4,0-46.2-19.6-48.3-44.5h-11.9v19h-32.9v-19h-8.1v-7.9h8.1v-69.9h24.9
		v-33.5h-33.1v-7.9h27.5L148,158.5c-1.7-5-5.9-8.6-10.9-9.6v-8.1c8.4,1.2,15.6,6.9,18.4,15.1l17.5,50.5h5.1h17.7v-46.5l15.7-15.7
		l5.6,5.6L203.8,163v43.2h2.8c17.2,0,32.1,11,37,27.5l6.8,22.3c5.2,1,10.3,2.5,15.2,4.7l-3.3,7.2c-7.6-3.4-15.7-5.1-24-5.1
		c-15.6,0-30.3,6.1-41.4,17.1l-5.6-5.6c12.6-12.5,29.3-19.4,47-19.4c1.2,0,2.4,0,3.5,0.1l-5.8-19c-4-13.1-15.8-21.8-29.4-21.8h-28.5
		v33.5v4v65.9H190c2-24.9,22.9-44.5,48.3-44.5c12.2,0,23.4,4.6,31.9,12h12.5V140.7h8v27h55.1v50.8H360v66.6h5.2V293.2z"/>
	<rect x="315.2" y="226.5" class="st0" width="12.3" height="18.5"/>
</g>
</svg>
