<!-- Generated by IcoMoon.io -->
<svg version="1.1" xmlns="http://www.w3.org/2000/svg" viewBox="0 0 1024 1024">
<title></title>
<g id="icomoon-ignore">
</g>
<path d="M455.199 614.095c-24.824 0-43.442 20.17-43.442 43.442 0 24.824 20.17 43.442 43.442 43.442 24.824 0 43.442-20.17 43.442-43.442 1.552-23.273-18.618-43.442-43.442-43.442zM455.199 687.016c-15.515 0-27.927-12.412-27.927-27.927s12.412-27.927 27.927-27.927 27.927 12.412 27.927 27.927c1.552 15.515-12.412 27.927-27.927 27.927v0zM739.126 597.028v-139.636h-31.030v-113.261h-131.879v-65.164h-15.515v318.061h-32.582c-18.618-21.721-44.994-34.133-72.921-34.133-49.648 0-89.988 37.236-94.642 86.885h-23.273v-201.697h55.855c26.376 0 49.648 17.067 57.406 41.891l10.861 37.236c-1.552 0-4.655 0-6.206 0-34.133 0-66.715 13.964-91.539 37.236l10.861 10.861c21.721-21.721 51.2-34.133 80.679-32.582 15.515 0 32.582 3.103 46.545 9.309l6.206-13.964c-9.309-4.655-18.618-7.758-29.479-9.309l-13.964-43.442c-9.309-32.582-38.788-54.303-72.921-54.303h-6.206v-83.782l26.376-26.376-10.861-10.861-31.030 31.030v91.539h-44.994l-34.133-99.297c-6.206-18.618-23.273-29.479-41.891-29.479h-3.103v15.515h3.103c12.412 0 23.273 7.758 27.927 20.17l32.582 93.091h-63.612v15.515h74.473v65.164h-48.097v136.533h-26.376v15.515h26.376v37.236h63.612v-37.236h23.273c4.655 49.648 44.994 86.885 94.642 86.885 52.752 0 94.642-41.891 94.642-94.642 0-15.515-4.655-31.030-12.412-44.994h240.485v-15.515h-37.236zM323.32 687.016h-32.582v-41.891h32.582v41.891zM323.32 629.61h-32.582v-41.891h32.582v41.891zM323.32 572.204h-32.582v-41.891h32.582v41.891zM455.199 736.664c-43.442 0-79.127-35.685-79.127-79.127s35.685-79.127 79.127-79.127c43.442 0 79.127 35.685 79.127 79.127s-35.685 79.127-79.127 79.127zM576.217 359.646h116.364v97.745h-116.364v-97.745zM666.205 472.907v54.303h-31.030v-54.303h31.030zM723.611 597.028h-147.394v-124.121h43.442v69.818h62.061v-69.818h43.442l-1.552 124.121z"></path>
</svg>
