<?xml version="1.0" encoding="utf-8"?>
<!-- Generator: Adobe Illustrator 28.1.0, SVG Export Plug-In . SVG Version: 6.00 Build 0)  -->
<svg version="1.1" id="Layer_1" xmlns="http://www.w3.org/2000/svg" xmlns:xlink="http://www.w3.org/1999/xlink" x="0px" y="0px"
	 viewBox="0 0 480 480" style="enable-background:new 0 0 480 480;" xml:space="preserve">
<style type="text/css">
	.st0{fill:#FFFFFF;}
</style>
<circle cx="240" cy="240" r="190"/>
<g>
	<path class="st0" d="M163.1,161l76.9,35.3l76.9-35.3L240,125.7L163.1,161z M186.6,164.5l-3.4-7l39.2-18.8l3.4,7L186.6,164.5z"/>
	<path class="st0" d="M226.3,356.5c-2.3,0-4.1,1.9-4.1,4.1c0,2.3,1.9,4.1,4.1,4.1c2.3,0,4.1-1.9,4.1-4.1
		C230.4,358.3,228.6,356.5,226.3,356.5z"/>
	<path class="st0" d="M240,30C124,30,30,124,30,240s94,210,210,210s210-94,210-210S356,30,240,30z M226.3,372.9
		c-6.8,0-12.3-5.5-12.3-12.3s5.5-12.3,12.3-12.3s12.3,5.5,12.3,12.3S233.1,372.9,226.3,372.9z M271.5,347c0,6.8-5.5,12.3-12.3,12.3
		s-12.3-5.5-12.3-12.3v-29.9c0-2.3-1.9-4.1-4.1-4.1s-4.1,1.9-4.1,4.1v10.5c0,6.8-5.5,12.3-12.3,12.3s-12.3-5.5-12.3-12.3v-3.8
		c-7.2-2.1-14-5.1-20.4-9v1.3c0,6.8-5.5,12.3-12.3,12.3s-12.3-5.5-12.3-12.3c0-2.3,1.8-4.1,4.1-4.1s4.1,1.8,4.1,4.1
		c0,2.3,1.9,4.1,4.1,4.1s4.1-1.9,4.1-4.1v-8.9c0-1.6,0.9-3,2.2-3.7c0.6-0.3,1.3-0.5,1.9-0.5c0.9,0,1.7,0.3,2.4,0.8
		c6.7,5,14.1,8.8,22,11.3v-5.7c0-2.3,1.8-4.1,4.1-4.1s4.1,1.8,4.1,4.1v18.1c0,2.3,1.9,4.1,4.1,4.1s4.1-1.9,4.1-4.1V317
		c0-6.8,5.5-12.3,12.3-12.3S255,310.2,255,317v30c0,2.3,1.9,4.1,4.1,4.1c2.3,0,4.1-1.9,4.1-4.1v-3.7c0-2.3,1.8-4.1,4.1-4.1
		c2.3,0,4.1,1.8,4.1,4.1L271.5,347L271.5,347z M249.7,251.9v-41.3c0-1.5,0.9-2.9,2.2-3.5l39.2-18.8l3.4,7l-36.9,17.8v38.8H249.7z
		 M306.6,319.9c0,6.8-5.5,12.3-12.3,12.3s-12.3-5.5-12.3-12.3v-4.4c-3.3,2-6.8,3.7-10.4,5.2v7.1c0,2.3-1.8,4.1-4.1,4.1
		c-2.3,0-4.1-1.8-4.1-4.1v-9.9c0-1.7,1.1-3.2,2.6-3.8c6.3-2.4,12.2-5.5,17.7-9.4c0.7-0.5,1.5-0.8,2.4-0.8c1.3,0,2.6,0.6,3.3,1.7
		c0.5,0.7,0.8,1.6,0.7,2.4c0,0.1,0,0.1,0,0.2v11.7c0,2.3,1.9,4.1,4.1,4.1c2.3,0,4.1-1.9,4.1-4.1v-27.4c0-2.3,1.8-4.1,4.1-4.1
		c2.3,0,4.1,1.8,4.1,4.1L306.6,319.9L306.6,319.9z M330.2,278.3c0,1.5-0.9,2.9-2.3,3.6l-16,7.3l-3.3-7.1l13.7-6.3V167.1l-78.4,36
		v75.2h-7.8v-75.2l-78.4-36v108.7l12.9,5.9l-3.3,7.1l-15.2-7c-1.4-0.6-2.3-2-2.3-3.6V161c0-1.3,0.7-2.6,1.8-3.3
		c0.2-0.1,0.3-0.2,0.5-0.3l0,0l86.3-39.6c1-0.5,2.2-0.5,3.3,0l86.3,39.6l0,0c0.2,0.1,0.3,0.2,0.5,0.3c1.1,0.7,1.8,2,1.8,3.3v117.3
		H330.2z"/>
</g>
</svg>
