<?xml version="1.0" encoding="utf-8"?>
<!-- Generator: Adobe Illustrator 28.1.0, SVG Export Plug-In . SVG Version: 6.00 Build 0)  -->
<svg version="1.1" id="Layer_1" xmlns="http://www.w3.org/2000/svg" xmlns:xlink="http://www.w3.org/1999/xlink" x="0px" y="0px"
	 viewBox="0 0 20 20" style="enable-background:new 0 0 20 20;" xml:space="preserve">
<style type="text/css">
	.st0{fill:#FFFFFF;}
</style>
<g>
	<polygon class="st0" points="15.8,18.3 4.2,18.3 4.2,7 5.9,7 5.9,16.5 14.1,16.5 14.1,7 15.8,7 	"/>
	<path class="st0" d="M4.6,10.9l-4.5-3L1.6,5c0.7-1.4,2-2.4,3.5-2.8l2.5-0.7l0.1,1c0,0.2,0.3,2.2,2.2,2.2c0,0,0,0,0,0
		c1.9,0,2.2-2,2.2-2.2l0.1-1l2.5,0.7c1.5,0.4,2.8,1.4,3.5,2.8l1.6,2.9l-4.5,3l-1-1.5l3.2-2.1l-0.8-1.5c-0.5-0.9-1.4-1.7-2.4-2
		l-0.6-0.2c-0.5,1.3-1.6,2.7-3.8,2.7c-2.1,0-3.3-1.5-3.7-2.7L5.6,3.9c-1,0.3-1.9,1-2.4,2L2.4,7.3l3.2,2.1L4.6,10.9z"/>
</g>
</svg>
