<svg width="22" height="20" viewBox="0 0 22 20" fill="none" xmlns="http://www.w3.org/2000/svg">
<g clip-path="url(#clip0_472_9833)">
<path d="M19.0922 0H2.72332C1.22646 0 0 1.22646 0 2.72332V13.6359C0 15.1424 1.22646 16.3592 2.72332 16.3592H15.7219C15.9247 16.3592 16.1275 16.4268 16.2916 16.562L20.338 19.7972C20.5022 19.9324 20.705 20 20.9078 20C21.043 20 21.1782 19.971 21.3037 19.9131C21.6224 19.7586 21.8155 19.4399 21.8155 19.0922V2.72332C21.8155 1.2168 20.5891 0 19.0922 0ZM20 17.1994L17.4312 15.1424C16.9483 14.7562 16.3399 14.5437 15.7315 14.5437H2.72332C2.22115 14.5437 1.81555 14.1381 1.81555 13.6359V2.72332C1.81555 2.22115 2.22115 1.81555 2.72332 1.81555H19.0922C19.5944 1.81555 20 2.22115 20 2.72332V17.1994ZM6.36408 9.09705H8.17962V7.28151H6.36408V9.09705ZM13.6359 9.09705H15.4515V7.28151H13.6359V9.09705ZM9.99517 9.09705H11.8107V7.28151H9.99517V9.09705Z" fill="white"/>
</g>
<defs>
<clipPath id="clip0_472_9833">
<rect width="21.8252" height="20" fill="white"/>
</clipPath>
</defs>
</svg>
