<?xml version="1.0" encoding="utf-8"?>
<!-- Generator: Adobe Illustrator 28.1.0, SVG Export Plug-In . SVG Version: 6.00 Build 0)  -->
<svg version="1.1" id="Layer_1" xmlns="http://www.w3.org/2000/svg" xmlns:xlink="http://www.w3.org/1999/xlink" x="0px" y="0px"
	 viewBox="0 0 480 480" style="enable-background:new 0 0 480 480;" xml:space="preserve">
<style type="text/css">
	.st0{fill:#FFFFFF;}
</style>
<circle cx="240" cy="240" r="190"/>
<g>
	<circle class="st0" cx="239" cy="280.5" r="14.5"/>
	<path class="st0" d="M260.8,158.1h-13.2v44.2h26.7l0,0v-2.1c0-13.4-2.7-26.4-8.1-38.7C265.3,159.5,263.2,158.1,260.8,158.1z"/>
	<path class="st0" d="M219,161.7v40.6h20.6v-44.2h-17C220.6,158.1,219,159.7,219,161.7z"/>
	<path class="st0" d="M240,30C124,30,30,124,30,240s94,210,210,210s210-94,210-210S356,30,240,30z M159.2,174.7l5.8,5.8l-5.8,5.8
		l-5.8-5.8L159.2,174.7z M139.7,171.1l5.8,5.8l-5.8,5.8l-5.8-5.8L139.7,171.1z M147.4,198.1l-5.8,5.8l-5.8-5.8l5.8-5.8L147.4,198.1z
		 M101,186.8l5.8,5.8l-5.8,5.8l-5.8-5.8L101,186.8z M102.9,208l5.8,5.8l-5.8,5.8l-5.8-5.8L102.9,208z M106.5,238.9l-5.8-5.8l5.8-5.8
		l5.8,5.8L106.5,238.9z M118.6,169.3l5.8,5.8l-5.8,5.8l-5.8-5.8L118.6,169.3z M121.3,189.6l5.8,5.8l-5.8,5.8l-5.8-5.8L121.3,189.6z
		 M118.3,215.6l5.8-5.8l5.8,5.8l-5.8,5.8L118.3,215.6z M161.9,273.6l-5.8,5.8c-6.9-6.9-18.3-6.9-25.2,0l-5.8-5.8
		c6.5-6.5,15.6-8.8,24-7c-1.8-8.4,0.5-17.5,7-24l5.8,5.8C155,255.3,155,266.6,161.9,273.6z M184.8,219.7l-5.8,5.8
		c-6.9-6.9-18.3-6.9-25.2,0l-5.8-5.8c6.5-6.5,15.6-8.8,24-7c-1.8-8.4,0.5-17.5,7-24l5.8,5.8C177.9,201.5,177.9,212.8,184.8,219.7z
		 M340.7,329.9c-19.8,0-35.9-16.1-35.9-35.9c0-4.4,0.8-8.6,2.2-12.5h-18.7c-0.5,26.8-22.4,48.4-49.3,48.4
		c-27.2,0-49.3-22.1-49.3-49.3s22.1-49.3,49.3-49.3c24.8,0,45.4,18.4,48.8,42.3h23.4c6.5-9.3,17.3-15.5,29.5-15.5
		c1.8,0,3.5,0.1,5.2,0.4V227c0-1-0.8-1.7-1.7-1.7H294c-2.6,0-5-1-6.9-2.8L275.6,211c-0.3-0.3-0.8-0.5-1.2-0.5h-62.1
		c-0.4,0-0.7,0.1-1,0.3l-9.7,25.4l-7.5-2.8l10.6-27.2c1.6-2,3.9-3.2,6.3-3.5V162c0-6.4,5.2-11.6,11.6-11.6h38.2
		c5.6,0,10.6,3.2,12.8,8.1c5.8,13.3,8.8,27.4,8.8,41.9v6.1l10.3,10.3c0.3,0.3,0.8,0.5,1.2,0.5h31.7V187c0-3.3,1.3-6.5,3.7-8.8
		l10.2-10.2l5.6,5.6l-10.2,10.2c-0.9,0.9-1.3,2-1.3,3.2v30.2h10.6c5.3,0,9.7,4.4,9.7,9.7v33.6c13.3,5.3,22.8,18.3,22.8,33.4
		C376.6,313.7,360.5,329.9,340.7,329.9z"/>
	<path class="st0" d="M239,239.2c-22.8,0-41.4,18.5-41.4,41.3s18.5,41.3,41.4,41.3c22.8,0,41.4-18.5,41.4-41.3
		C280.3,257.7,261.8,239.2,239,239.2z M239,303c-12.4,0-22.5-10.1-22.5-22.5S226.6,258,239,258s22.5,10.1,22.5,22.5
		S251.4,303,239,303z"/>
	<path class="st0" d="M340.7,266c-15.4,0-27.9,12.5-27.9,27.9s12.5,27.9,27.9,27.9s27.9-12.5,27.9-27.9S356.1,266,340.7,266z
		 M340.7,300.9c-3.9,0-7-3.1-7-7s3.1-7,7-7s7,3.1,7,7S344.5,300.9,340.7,300.9z"/>
	<path class="st0" d="M340.7,293c-0.5,0-1,0.4-1,1c0,1.1,2,1.1,2,0C341.6,293.4,341.2,293,340.7,293z"/>
</g>
</svg>
