<?xml version="1.0" encoding="UTF-8"?>
<svg id="Layer_2" data-name="Layer 2" xmlns="http://www.w3.org/2000/svg" viewBox="0 0 155 172.61" width="155" height="172.61">
  <defs>
    <style>
      .cls-1 {
        fill: #ccc;
      }
    </style>
  </defs>
  <g id="Layer_1-2" data-name="Layer 1">
    <g id="uuid-ba34a638-3fcd-4a0d-b578-835698ed5427" data-name="Layer 1-2">
      <g>
        <path class="cls-1" d="M41.08,61.02s.07-.2.09-.21.14-.21.16-.25c.01-.02.11-.09.18-.15,0,0,0,0,0,0,.07.18.19.47.31.47l.18-.1c.07-.06-.17-.41-.17-.41,0,0-.07-.25-.09-.49-.02-.24-.24-.27-.33-.19-.05.05-.03.21,0,.37-.03,0-.06,0-.08,0-.09.01-.47.59-.55.69-.09.1-.16-.09-.24-.14-.08-.06-.18-.22-.17-.27,0-.06.15-.08.3-.08s.24-.18.3-.24c.06-.06-.16-.16-.32-.16-.15,0-.12-.18-.25-.39-.12-.2-.34-.18-.38-.08s-.41.48-.44.51l.12.14c.1.05.11.12.09.21s-.12.1-.22.1c-.1,0-.06.22-.06.29,0,.08.27.12.33.15.06.03.03.13-.04.15-.08.01-.24.02-.24.12s.11.31.19.33c.08.02.76.01.81.01s.16-.15.21-.16c.05-.01.27-.2.3-.24h0s0,0,0,0Z"/>
        <path class="cls-1" d="M41.93,59.29c.07-.04.02-.11.09-.32s-.05-.26-.13-.32-.13.1-.27.11c-.14,0-.17.09-.17.25s.42.32.48.29h0Z"/>
        <path class="cls-1" d="M42.35,60.38s-.03-.12-.03-.15-.02-.3-.02-.36-.06-.13-.06-.19c0-.06-.19-.14-.19-.14-.05-.03-.05.09-.05.21,0,.11.05.21.08.28s.04.16.1.26c.07.1,0,.19.13.22s.08-.09.04-.13h0Z"/>
        <path class="cls-1" d="M42.7,62.89c.1.02.04.12.07.22.03.1.17-.09.27-.13s.02-.95.02-1.05c0-.1-.09-.13-.09-.28s-.09-.17-.1-.08-.23-.02-.38.07c0,0-.01.08-.06.08-.05,0-.05.22.07.25.12.04.1.18.02.19-.08,0-.08.22,0,.28s.04.07.04.21c0,.14.05.22.15.24h0Z"/>
        <path class="cls-1" d="M42.06,62.32s0,0,0,0c0,0,0,0,0,0Z"/>
        <path class="cls-1" d="M42.15,62.87c.04.09.12.07.15.02s.02-.19-.02-.23-.07-.17-.07-.24c0-.06-.12-.08-.14-.09,0,.02-.07.1-.07.1,0,0,.02.06.02.12,0,.06.09.06.05.12s.04.11.08.21h0Z"/>
        <path class="cls-1" d="M42.48,61.26c.05,0,.05.06.06.08s.1.02.1-.05.02-.12-.04-.14-.04-.14-.07-.15-.04-.03-.08-.02c0,0-.03.14-.03.17s0,.11.05.11h0Z"/>
        <path class="cls-1" d="M40.42,62.05c.09-.08.16-.08.25-.18s-.2-.19-.26-.19c-.06,0-.81-.02-.81-.02-.07.01.02.1.02.23,0,.12.07.24.19.38s-.04.31-.05.54.1.2.14.29c.04.1.11.08.15.25.04.17-.03.19,0,.32.03.13.08.13.08.31s.1.28.2.3c.11.02.13-.03.17-.12s-.09-.25-.05-.25c.04,0,.04-.18.07-.26.02-.08.05-.07.1-.11.05-.04-.09-.17-.14-.18-.05-.02-.14-.21-.15-.32s-.03-.3.09-.31.24-.1.26-.17c.02-.07-.21-.18-.34-.22s-.02-.22.08-.3h0Z"/>
        <path class="cls-1" d="M40.57,64.55c-.1,0-.13-.02-.14.05,0,.07,0,.12.03.14.02.03,0,.11.08.07h.02s.07-.09.1-.15c.03-.05,0-.12-.09-.12h0Z"/>
        <path class="cls-1" d="M109.48,83.88c-.33.22-.46.24-.7.25s-1.1.06-1.1.06c0,0-.11-.05-.12.13-.01.19.22.25.31.29.1.04,1.67.09,1.81.03.13-.06.45-.08.69-.25s-.04-.38-.15-.43c-.11-.05-.4-.29-.73-.07h0Z"/>
        <path class="cls-1" d="M133.28,78.22s-.05.23.2.37c0,0,.23-.3.16-.43s-.36,0-.36.05h0Z"/>
        <path class="cls-1" d="M133.74,69.84s-.09.11-.09.28c0,.17.21,0,.33,0s0-.15,0-.28-.25,0-.25,0h0Z"/>
        <path class="cls-1" d="M138.59,71.1c.12-.23-.14-.18-.23-.16-.09.02-.96.55-1.05.68-.09.13-.38.29-.59.22-.21-.07-.35,0-.46,0-.11-.01-.11.18-.28.21-.18.03-.18-.12-.23-.16-.05-.04-.15-.13-.2-.23-.05-.09-.05-.27-.05-.44s-.3,0-.3,0v-.04c-.08,0-.06.77.05.96.11.2.57.2.92.31s.72-.14.9-.06c.17.08.55.08.76.09s.33-.07.51-.15c.19-.08-.05-.37-.15-.38-.1,0-.11-.18-.06-.28.05-.1.33-.33.45-.56h0Z"/>
        <path class="cls-1" d="M140.55,68.9c-.04-.27-.59-.28-.59-.28-.15-.01-.11.51-.14.75-.03.23,0,.25.09.56.09.31.02.15-.05.43-.08.28-.29.41-.3.71,0,.3.22.4.44.55.22.15.27.18.48.26.21.08.42-.21.6-.21.18,0,.35-.2.44-.27s.18-.38.2-.54c.01-.16.02-.33.17-.33.15,0,.24-.31.24-.48,0-.18-.22-.13-.3-.26s-.22-.06-.4-.06c-.18,0-.28.3-.23.42.05.12.05.3-.07.42s-.27.04-.35-.04c-.08-.09.01-.79.02-.99s-.2-.36-.24-.63h0Z"/>
        <path class="cls-1" d="M106.07,67.68c-.02.11.14.1.29.25s.34.22,1.13.19c.79-.03.43-.25.37-.4s-.45-.53-.51-.63c-.06-.1-.45-.06-.6,0-.15.05-.57.45-.57.45,0,0-.08.03-.1.15Z"/>
        <path class="cls-1" d="M110.09,69.47c.06,0,.26-.08.33-.17.07-.09-.05-.17-.11-.24-.06-.07-.22.04-.22.04,0,0-.15.07-.15.26,0,.19.09.1.14.11h0Z"/>
        <path class="cls-1" d="M135.15,65.86c.23-.05,1.02-.29,1.01-.54s-.35-.22-.67-.24-.76-.03-1.9.07c-1.15.1-1.61.66-1.61.66-.11.1-.05.11.17.17s.71-.12,1.03-.1c.32.02.8.27,1.06.28.26,0,.68-.25.91-.3h0,0Z"/>
        <path class="cls-1" d="M138.14,68.12c-.11-.2-.26,0-.26,0-.16.2.12.47.12.47,0,0,.24-.26.14-.46h0Z"/>
        <path class="cls-1" d="M148.66,60.86s-.17-.64-.17-.87c0-.24-.39-.16-.41.15-.02.32.03.61.15.93.12.32-.32.26-.34.09s-.66-.58-.65-.8c0-.22.11-.25.11-.43s.08-.14.25-.33-.07-.33,0-.54c.07-.21-.27-.27-.44-.05-.17.22-.15.26-.19.37-.04.11,0,.41-.13.54s-.27-.04-.27-.28-.07-.27-.37-.4c-.3-.14,0-.55.02-.93,0-.37-.4-.26-.68-.27-.27-.01-.24.45-.48.5s-.35-.02-.51.1.03.44-.13.61-.17.65-.18,1.07c0,.42-.27.29-.27-.48s-.38-.88-.25-.61-.31.52-.44.67c-.13.14-.49-.35-.58-.47-.09-.12.47-.83.41-1s-.3.13-.41.24c-.11.12-.36.14-.56.14-.21,0-.45-.38-.37.03.08.41.07,1.42-.02,1.44s-.49-.6-.52-.83c-.03-.22-.08-.89-.09-1.1s.09-.65.12-.92.17-.88.11-1c-.06-.12-.3.19-.46.24-.16.05-.3-.24-.29-.43,0-.19.33-.39.37-.47s0-.22-.15-.32c-.14-.1-.28.23-.28.23-.24-.01-.59.8-.7,1.01-.11.21.19,4.19.34,4.27s.55.23.34.3c-.21.06-.54.63-.22.71.31.09.48.31.62.45s.27.28.18.31-.37-.17-.4.06.38.64-.11.97c-.49.33-.5.83-.16.61.35-.22.68-.57.67-.21,0,.37-.22.14-.43.85-.21.71.29,1.18.54,1.18s.76-.75.76-.89c0-.15.39.05.56,0s0-.46.2-.46.61-.41.85-.4c.24,0,.69-.5.83-.57s.36-1.14.64-.53.79.38.94.04-.11-.44-.11-.61.58.13.58.13c0,0-.22.17-.25.53s.62.47.13.81-.3.78-.11.78.66-.63.74-.84c.08-.22-.11-.86.13-1.16.24-.3.17-.72.13-.91-.04-.19.03-.42.1-.49s.82.29.78.83c-.04.54.26.82.47.84s.22-.76.22-.92c0-.16.16,0,.33,0,.17,0-.2.13.16.56s.7-.4.72-.72-1.4-1.36-1.4-1.36h0Z"/>
        <path class="cls-1" d="M107.91,59.25c-.29-.25-.34.07-.57.56s-.42.48-.36.7c.05.23.42.33.49.21.07-.13.23-.31.15-.68,0,0,.59-.54.3-.79h0Z"/>
        <path class="cls-1" d="M106.72,59.68c-.13.27-.04.44.12.43.16-.01.2-.38.14-.5-.06-.11-.26.07-.26.07h0Z"/>
        <path class="cls-1" d="M108.4,59.4c0-.14-.14-.13-.14-.13h-.12c-.12,0,.07.31.11.38s.14-.11.14-.25h0Z"/>
        <path class="cls-1" d="M64.94,23.96c.71.58.46,1.09.46,1.09,0,0-.17.78.09.97s.8-.23.86-.42c.06-.19.64,0,.8.01.16,0,.43-.26.57-.45s.31-.8.58-1.02c.27-.21.51,0,.64,0s.2-.54.39-.64.46-.4.73-.42c.27-.02,1.24-.6,1.64-.7s1.05-.23.78-.47-.43-1.03-.51-1.41-.47-.63-1-.55-.87-.39-.95-.55c-.08-.16-.22-.89-.84-.77s-1.2-.15-1.36-.24-.33.24-.39.37c-.06.13-.22.64-.14.83s.23.41,0,.49-1.09,1.14-1.12,1.39c-.03.24-.3.13-.48.23s.42.3-.41.75c-.84.45-.76.99-.76.99,0,0-.27-.06.44.52h0,0Z"/>
        <path class="cls-1" d="M70.15,15.71c.06,0,.37-.1.39.08s.4-.02.43-.2.28-.1.25.21c-.03.3-.56.32-.56.4s.5.03.67,0,.35-.27.36-.49.18-.46.29-.56.14.28.14.48.3.03.3-.25c0-.28.04-.48.26-.48.21,0,.26.08.34-.27s.33-.53.33,0c0,.53-.33,0-.41.35s.14.66.34.66c.2,0,.16-.55.16-.55,0,0,.55-.14.74-.21.19-.07-.07-.45-.07-.45,0,0,.19-.15.19-.45,0-.3.56-.43.38-.51-.18-.08,0-.33,0-.52,0-.19-.59,0-.59,0v.63s-.23,0-.3-.3c-.07-.3-.7,0-.7,0,0,0-1.6,1.42-1.9,1.42s-1.03.35-1.03.35c0,0,.11.23,0,.23s-.07.43,0,.43h0Z"/>
        <path class="cls-1" d="M72.93,16.12c.15-.22-.09-.3-.17-.2-.08.1-.08.25-.22.24-.15,0-.88.54-.88.54.08.68.5.27.65.27s.47-.64.62-.86h0Z"/>
        <path class="cls-1" d="M74.32,15.79c-.09.13-.17.15-.48.25-.3.1-.48.46-.48.46-.05.08.02.11.18.11s.53.02.61.1c.08.08-.05.13-.14.16s-.56.04-.66.04c-.1,0-.26-.08-.32-.08s-.05.18-.06.34.87.07.99.07c.11,0-.09.24-.15.29s-.3.08-.41.07c-.11,0-.17-.09-.32-.1s-.52-.03-.54.03c-.02.05-.06.19-.12.34-.06.15.01.25.21.26s.3.16.36.33.2.21.32.09c.12-.12.31-.42.29-.08s.23.28.23.28c.44-.71,1.31-1.09.92-.72-.39.36-.23.65,0,.59s.24-.32.35-.12.45.31.64.31c.19,0,.5-.3.43-.01-.07.28-1.17.5-1.32.52-.15.02-.88-.06-.93.1-.05.15-.16.67.69.9s1.82-.78,2.01-.79.28-.06.5-.27c.22-.21.17-.06.19.15s.36.29.38.18c.02-.11.16-.39.24-.22.08.18.28.2.62.23s.5-.32.72-.66c.22-.34.21-.69.28-1.04s-.2-.7-.37-.79c-.17-.09-.48.28-.39.36s0,.48,0,.48c0,0-.13-.15-.16-.39-.04-.24-.3,0-.39,0-.09,0-.14-.07-.03-.17.11-.11-.04-.26-.1-.33s-.19-.2-.06-.36.03-.42,0-.55c-.02-.13-.02-.24,0-.46s-.21-.5-.27-.44-.35.43-.42.62-.34,0-.35.19.16.46.36.52.27.49-.05.48c-.32,0-.37.23-.18.32s.1.35.38.46c.28.11-.16.28-.43.28s-.19-.05-.38-.18c-.19-.13-.3,0-.49,0-.19,0-.17-.29-.16-.54,0-.26-.14-.52-.25-.61-.11-.09-.42-.55-.53-.55-.11,0-.28-.03-.3-.16-.02-.14-.14-.43-.27-.47s-.26.08-.35.21h0s0,0,0,0Z"/>
        <path class="cls-1" d="M81.53,31.1c-.02-.25-1.19-.69-1.18-1.03s-.21-.62-.27-.48c-.06.14-.31.25-.61,0-.3-.26-.13-.68-.36-.74-.23-.06-.07-.45,0-.7s-.02-.65-.12-.87-.21-.88-.17-1.3c.04-.42,0-.56.02-1.04s-.63-.89-.65-1.17-.53-.04-.69-.18c-.16-.14-.64.05-.64.05-.3,1.38.34,2.68.39,2.94s-.48.42-.76.52-.21-.68-.18-.99c.03-.31.05-1.21.03-1.49s-.76-.97-1.01-.97c-.25,0-.06.45.13.58.19.13.21.78-.02.89s-.33-.37-.47-.37c-.14,0-.2.5-.34.56-.14.05-.31-.12-.39-.26s.37-.28.4-.64c.03-.37-.76-.83-1.05-.78-.28.05-.23.42-.62.57-.39.15-.39,0-.22-.3.17-.31.32-.87.19-1.15-.13-.28-.98.18-1.17.18s-1.94.73-1.94.96c0,.22-.01.79-.41.87s-.6.92-.6.92c.84.04.83.38.55.37-.28,0-.23.48.1.48s1.09-.18,1.45-.18-.06.37-.37.36-1.45.03-1.63.57c-.18.53.21.9.62.97s.36.37.88.43,1.01-.12,1.26-.07c.25.06,1.47.64,1.69.65.22,0,.02.62-.29.62-.31,0-1.05-.27-1.41-.39-.36-.12-1.62-.11-2.09-.17-.47-.06-.9.21-.85.64s.31,1.22.78,1.42c.47.2,1.8.54,1.83.68s-.34.33-.34.33c-.3,1.23.65,1.36.65,1.36,0,0,2.59.1,2.87-.04s.82-.44,1.29-.4.85-.86.85-1.03c0-.17.84-.38,1.12-.21.28.17.97.24,1.02.35.05.11-.25.19-.51.19-.25,0-.97-.16-.97-.16,0,0-.26.39-.09.59.16.2.56,0,.55.4s.3.51.53.21.2-.08.8.27,1.23-.09,1.43-.51c.2-.42-.07-.85-.23-.93s-.26.39-.4.47-.25-.03-.24-.43c0-.39-.19-.45-.13-.59.06-.14.44.37.58.37.14,0,.12-.48.18-.62.06-.14.34-.11.33.15,0,.25.44.26.72.29.28.03.21-.73.18-.98h0s0,0,0,0Z"/>
        <path class="cls-1" d="M77.98,34.49s.06.33.23.3c.17-.03.33-.03.33-.18,0-.15-.21-.38-.56-.12h0Z"/>
        <path class="cls-1" d="M80.44,34.11c-.11,0,0,.45,0,.45.07.02.34-.19.35-.34s-.23-.11-.34-.11Z"/>
        <path class="cls-1" d="M82.3,33.62c.07-.09-.02-.3-.09-.27s-.51.21-.51.21c.02.12-.09.22-.18.44s.36.27.36.27c0,0,.15-.17.13-.36s.22-.2.3-.28h0Z"/>
        <path class="cls-1" d="M84.26,32.05c-.11-.14-.23-.27-.32-.28s-.18.09-.25.17,0,.3.2.36c.21.06.12.23,0,.24-.12.02-.31-.14-.45-.15-.14-.01-.13.11.03.32.16.2.16.35,0,.39-.17.03-.73.48-.73.48-.05.04-.1.11-.1.24,0,.13.37.15.54.16s1.71.8,1.92.88c.2.08.29-.09.38-.21s.27-.44.37-.45.03.26.12.27.16-.28.18-.35c.02-.07-.09-.25-.26-.31s-.39-.31-.42-.41c-.03-.09-.15-.33-.31-.43s-.76-.78-.87-.92h0Z"/>
        <path class="cls-1" d="M78.37,23.37c.15.12.3.42.31.73s.21.26.33.26c.12,0,.33-.61.43-.85.09-.23-.02-.56-.05-.73-.03-.17-.42-.25-.5-.31s-.56-.17-.61,0-.49.53-.49.53c-.05.16.02.17.14.22s.3.04.45.16h0Z"/>
        <path class="cls-1" d="M84.85,25.79c.06-.1-.04-.49-.08-.66s-.13-.04-.18.08c-.05.11-.15.18-.26.18-.11,0-.1-.25-.09-.42,0-.17-.05-.16-.05-.32,0-.16.24,0,.35.06s.15-.28.17-.47-.1-.19-.26-.24c-.17-.05-.11-.01-.16-.2s-.12-.24-.23-.24c-.11,0-.15-.19-.03-.31.12-.12.31-.3.33-.44s-.04-.29-.18-.33-.38.02-.48.06c-.1.03-.35.31-.59.26-.24-.05-.24-.16-.4-.23-.15-.07-.6-.05-.85-.01s-.32.24.06.43.29.53.19.51c-.1-.02-.17-.05-.33-.06-.15,0-.11-.3-.16.12s.22.31.55.31c.33,0-.13.23-.02.41s.11.02.13.31c.02.28-.03.3-.26.47-.24.16-.35,0-.35,0l-.43-.63s-.62.28-.62.65c0,.37.46.88.68,1.11s.29.3.46.33.33,0,.56.15.78,1.66.99,1.84c.21.18.26-.06.41-.32.15-.26,0-.36-.06-.42s-.05-.17.05-.2c.1-.03.21.17.29.11s.06-.11.3-.11c.24,0,.29-.12.4-.24s.15-.24.16-.48.05-.38-.15-.45-.1-.18-.06-.28.16-.2.22-.3h0Z"/>
        <path class="cls-1" d="M99.22,47.72s.07-.23.27-.22.4.07.41-.21c0-.28.15-.53.28-.62s.46-.25.47-.47c0-.22-.07-.8-.36-.66s-.79.3-.79.49-.18.18-.24.15-.26-.15-.26.03-.05.48-.14.53c-.08.06-.14.08-.14.26,0,.19.07.36.2.34s.18,0,.16.2.16.18.16.18h0Z"/>
        <path class="cls-1" d="M102.98,47.59c.12.12.35.3.47.3s.13-.37.2-.59-.02-.48,0-.62c.03-.14-.23-.36-.36-.43-.12-.07-.22.1-.39.11-.17,0-.11.44-.11.44,0,.06-.12.07-.12.25s.19.42.31.54h0Z"/>
        <path class="cls-1" d="M101.08,44.15c.12-.09.2-.12.37-.3.18-.17.25-.4.15-.5s-.42-.33-.42-.47-.29-.1-.48.04-.48.33-.63.36c-.15.03-.22-.05-.19-.22.03-.17-.12-.76-.23-.87s-.41-.35-.66-.37-1.58-.45-2.2-1.15c0,0-.23-.13-.37.13-.14.26-.34.33-.44-.04-.1-.37-.14-.64-.05-.64s.24.22.38.23c.14,0,.21-.29.11-.38-.1-.1-.39-.61-.48-.66s-.33,0-.37.17-.22.44-.42.54c0,0,.2,1.27.18,1.66-.02.39.02.65-.01.85-.04.2-.04.86.05.93.09.07.16.29.13.43-.02.14-.11.27-.21.32s-.32.2-.4.39c-.08.18-.08.2-.09.41,0,.21.14.37.34.31s.84-.42.94-.46.3,0,.32.14-.05.27,0,.42c.04.15.05.44.22.44s.53.02.6-.06.27-.19.36-.32-.05-.49.11-.59.54-.28.55-.55-.01-.54.14-.74c.15-.21.32-.34.4-.3s.04.28.11.33c.07.05.26.09.3.05s.29.02.28.17c0,.15.05.23.32.24s.45.12.69.13.49.03.61-.06h0Z"/>
        <path class="cls-1" d="M97.3,40.07c.12,0,.38.07.39-.11s-.23-.34-.4-.43c-.17-.08-.14-.11-.27-.24-.13-.13-.46-.22-.53-.16s-.15.08-.15.08c0,0,.82.85.95.85h0Z"/>
        <path class="cls-1" d="M97.18,23.19c-.49.5-.27.72-.1.72.18,0,.46-.06.42.11s-.26.19-.38.18c-.12,0-.02.32.07.35s.23.25.09.23-.74-.3-.83-.6c-.09-.3-.29.42-.4.54-.11.13-.1.63-.19.65-.09.02-.33-.27-.33-.69,0-.42-.27-.48-.13-.62.14-.14-.75-2.13-1.27-2.44s-1,.49-1.2.54.07.32.11.36.04.24-.19.22c-.24-.02-.19-.26-.33-.23s-.26.24-.11.3.36.31.16.31c-.2,0-.47-.16-.45-.02s.36.22.53.22c.17,0,.62-.06.57.06s-.57.12-.67.09c-.1-.03-.23-.05-.19.06.04.11.28.3.52.31.24.01.49.16.33.19-.15.03-.41.13-.55.01s-.46-.34-.5-.22c-.04.12-.09.16-.07.51s.17.17.16.39c0,.21.07.33.18.24s.25-.41.34-.39c.09.02.37-.09.33.13-.04.21-.16.12-.1.33.07.21.75.7.61.76s-.32.25-.67-.28-.46-.2-.56-.11c-.09.09.17.24.03.34-.13.1-.2.17-.2.28,0,.11.38.22.38.33,0,.11.15.34.39.18.23-.17.27-.07.33.21.07.27.49,1.39.35,1.45s-.22-.27-.31-.39-.45-.03-.53.08c-.08.11-.54.52-.57.3s.85-.54.84-.79c0-.25-.29-.26-.42-.39-.13-.13-.99-.98-.98-1.21,0-.23.02-.77-.08-.93s-.28-.38-.25-.71,0-.64.09-.92c.1-.28.29-.66.39-.74s.18-.23.15-.44c-.04-.21-.06-.25-.3-.26-.25,0-.48-.02-.65.07-.17.09-.83.44-.89.57-.06.13-.51,1.5-.54,1.56-.03.06-.05.27-.07.49-.01.22-.14.61-.18.68-.04.07-.04.49,0,.55s.21.11.21.19c0,.08.07.22,0,.23s-.31-.09-.31.12c0,.2.08.31.17.43.09.12.22.37.19.56-.03.19.02.57.16.58s.86.02.99,0,.32.1.42.16.52.28.51.46c-.01.18-.22.24-.39.24-.17,0-.3-.01-.43-.16-.13-.14-.73-.01-.73.08,0,.09,1.11,1.56,1.37,1.49.26-.07.22-.29.3-.21.09.08.38.27.37.12s-.21-.39-.04-.39c.17,0,.25.36.33.24s-.01-.48.17-.4.3.24.23.38-.02.41.17.46c.19.04.46.23.47.08,0-.15.13-.28.31-.26.18.02.49.08.68.09s.36-.05.65-.05c.29,0,.33.05.6.05.27,0,.52.3.52-.01,0-.31-.32-.32-.58-.39-.26-.07-.66-.36-.42-.41s.48.25.67.25c.19,0,.32-.15.43-.15s.29.03.57.04,1.71.1,1.72-.07.18-.55-.18-.65-.65-.17-.65-.65c0-.47.16-.49.25-.47.09.02.15.17.14.35s.09.22.2.23.16.15.31.19c.15.03.16-.06.31-.04.15.02.33.19.34.35.02.16.1.13.16.22.06.09.04.08.06.24.02.16.39.04.34-.15s-.07-.25.08-.26.04.05.18.18c.14.13.28.12.22.22-.06.09-.13.33-.22.35s-.12.07-.01.16.22.18.32.06c.1-.13.1-.35.23-.36s.09.43.09.54c0,.12.08.12.3.12.22,0,.55-.01.57.08.02.09.17.35-.14.49-.31.14-.38.25-.39.43s.06.65.27.6.36-.23.51-.43.12-.53.36-.52.65-.18.64.02c0,.2.03.54.28.55.24.01.5-.03.28-.25s-.18-.41-.07-.39.42.16.42.42c0,.26-.06.43.09.44.16.01.64.09.76.25.12.16,1.42,1.41,1.43,1.62,0,.2,0,.52-.13.62-.12.1.02.76.49.56.47-.21.89-.15.97-.2s.08-.29-.1-.42c-.19-.13-.08-.27.04-.35s.44-.05.51.2c.07.25.54.23.69.12s.47-.11.52.1.35.43.08.63c-.27.2-.55.34-.58.5-.02.16-.09.59-.24.59-.16,0-.14-.2-.21-.46-.07-.26-.27-.51-.47-.55-.2-.04-1.07.06-1.3.1-.23.04-1.02,1.06-1.02,1.53,0,.47,1.05.86,1.09,1,.04.15.01.4-.31.4-.32,0-.09.39-.25.41-.17.02-.37.4-.54.42-.17.02-.67.16-.85.16-.18,0-.68,0-.85.03-.17.03-.2,0-.33.13,0,0,.1.58-.1.64s-.27.53-.27.59.18.38.18.38c0,0-.24.11-.2.24s.3.65.84.65,1.25-.31,1.54-.55c.29-.24-.23-.45.01-.69.24-.24.35.12.65.19s.63,0,.58-.16c-.05-.17-.39-.52-.61-.49-.22.03-.06-.31.18-.3.24,0,.34.39.56.31.22-.08.02-.22.15-.21.13.01.1.28.18.33.07.05.14-.19.35-.14.2.05.22-.13.31.3.09.43.41.38.42.22s.55-.44.51-.2.07.47.33.5.36.53.44.34-.02-.28.22-.26.42.1.56.13c.14.03.49-.02.46.15s-.26.16-.29.4.3.31.27.43c-.03.12.26.29.34.29.08,0,1.5.28,1.55.02s0-.26.29-.26c.28,0,.53.38.69.39.16,0,3.51.05,3.51.05,0,0,.42-.09.22-.3s-.15-.69-.15-.69c0,0-.37-.05-.56-.06s-.83-.49-1.09-.53c-.26-.04-1.98-.47-1.98-.63s.12-.45.24-.37.45-.3.24-.56c-.21-.26.85.72,1.32.68.47-.04.94-.13,1.05.12.11.25.65.08.78.12.13.04.6.18.6.1,0-.08-.28-.25-.43-.35s-.39-.32-.24-.34c.15-.02.53-.04.4-.17-.13-.13-.63-.46-.82-.58s-.46-.56-.44-.73c.02-.17.45.16.52.2s.35.4.46.41.41.08.23-.26-.43-.33-.63-.5c-.2-.17-.22-.25-.41-.42-.19-.17-.51-.12-.82-.2-.32-.08-.3-.23-.29-.52s-.56-.03-.67-.11-.48-.76-.51-.48c-.03.28-.31.41-.67.19s-1.24-.52-1.21-.76c.03-.24-.19-.46-.51-.25-.33.21-.22-.05-.43-.1-.22-.04-.47-.24-.46-.55,0-.31-.3.04-.47,0s-.25-.48-.08-.48.76-.05.9.17.42.25.51.1.27-.3-.51-.51c-.77-.21-.65-.51-.49-.55s.29.18.49.2c.21.02.19-.17.07-.4s.03-.27.22-.31c.19-.04.39.14.42.33.03.19.5.59.81.06s.14.42.3.37c.16-.04.42-1.3.52-1.3.1,0,.38.64.25.92s-.39.56-.32.68.25.18.31.15c.06-.03.34-.28.34-.19,0,.09,0,.24.04.43s.14.17.23.02c.09-.15.13.2.27.34.14.15.24-.16.2-.35s.07.27.29.34.15-.09.35-.08.32.23.45.23c.13,0,.27-.5.1-.58s-1.05-1.07-1.02-1.19c.03-.12.21-.26.37-.02.16.24.6.23.61.1s.1-.59.01-.62c-.09-.03-.25.07-.34-.06-.09-.13,0-.31.12-.31.12,0,.32.14.25-.14s-.08-.36-.44-.29c-.35.07-.64-.26-.44-.27.21-.01.78.04.81-.18s.02-.18-.17-.34-.14-.22,0-.24c.13-.01.3-.4-.1-.3-.4.1-.56-.07-.67-.11s-.38-.1-.4,0c-.02.09.14.25.26.26s-.11.5-.21.35-.53-.17-.86.31c-.33.48-.42.28-.41,0,0-.28.33-.2.33-.37,0-.16-.04-.49-.08-.62s-.67-.15-.82.22-.24.23-.49.11c-.25-.12.02-.21,0-.36-.03-.15-.08-.44-.52-.39s-.39-.23-.48-.45-.37.02-.37.26-.31.35-.4.36-.16-.02-.32-.06c-.16-.05-.29.02-.37.11-.08.09,0,.09-.21-.05-.2-.14-.22-.06-.3-.26-.08-.19,0-.1,0-.33-.01-.22-.23-.13-.37-.07s-1.1.34-1.24.24c-.14-.1-.12-.23.04-.24s.34-.08.3-.11-.49.06-.53-.1c-.03-.17.03-.19.2-.26.18-.07.37-.24.27-.43s-.44-.09-.58.11-.18.41-.36.37-.05-.26.02-.31c.07-.05.31-.08.26-.29-.04-.21-.45.04-.6,0-.15-.05-.12-.27.08-.29.2-.02,1.38-.18,1.52-.24.14-.06.5-.44-.06-.42-.56.03-1.64.38-1.78.39s-.38,0,.22-.49c.6-.5.11-.5.42-.61.31-.11.44-.18.07-.38s-.87-.64-.92-.42c-.05.22-.04,1.01-.11,1.14s-.26.59-.34.47.18-.8.16-.93c-.02-.13-.44-.12-.48.12s.06.61-.07.6c-.13,0-.13.35-.2.11-.07-.24-.13-.84.05-.91s.53-.67.54-.8c.01-.13-.22-.37-.49-.28-.27.09-.27-.03-.46.09-.19.11-.5.67-.56.63-.06-.04-.17-.45-.06-.49.11-.03.22-.34.16-.38s-.36.05-.37.22.14.92-.02.95-.4.04-.4-.18c0-.22.15-.32.15-.51,0-.19-.01-.46-.06-.58-.04-.12-.12-.31-.2-.1s.02.29,0,.5c-.03.21-.12.28-.26.38-.14.09-.36.4-.5.23s-.2-.47-.05-.64.44-.21.44-.46c0-.25-.04-.65-1.05-.81s-.44.25-.37.39.24.4.24.51.25.43,0,.42c-.25-.02-.57-.47-.6-.57-.03-.1-.21-.12-.26.22-.05.34-.4.15-.34-.17.06-.32.36-.5.27-.67-.09-.17-.34-.05-.36.08-.03.13-.11.13-.11.3,0,.17.19.56.07.65-.12.09-.61-.13-.52-.6s.23-.33.23-.67c0-.34-.19-.37-.58-.09s-.34-.12-.21-.58-.75-.33-.95-.14-.87-.51-1.36,0h0s0,0,0,0Z"/>
        <path class="cls-1" d="M75.09,15.07c.24,0,.3.11.33,0s.05-.38-.16-.4c-.21-.02-.41.07-.42.13v.06s0,.2.25.21h0Z"/>
        <path class="cls-1" d="M75.86,12.8c.12-.06.13-.36.05-.37s-.06-.13-.06-.23-.18,0-.27,0c-.09,0-.1.6-.1.6.23.09.25.07.38,0h0Z"/>
        <path class="cls-1" d="M76.98,11.69c.13-.03.05.11.17.14.12.03.2-.11.26-.12.06,0,.25-.13.3.13.05.25.45.07.6-.08.14-.15,0-.33,0-.49,0-.15-.22-.12-.4-.29s-.2.1-.29.18-.54.01-.67,0c-.13-.02-.5.32-.5.32-.05.04-.05.14,0,.21s.39.04.52,0h0Z"/>
        <path class="cls-1" d="M76.04,13.36c-.01.16.35.45.48.47.13.02.47-.07.61-.07.13,0,.34-.12.45-.23s.08-.26-.04-.3c-.12-.03-.22-.17-.21-.31.01-.14.19-.1.4-.11.21-.02.26-.21.26-.35,0-.14-.27-.03-.43-.13s-.42,0-.6,0c-.18,0-.41.2-.54.31-.14.11-.46.58-.46.58,0,0,.11-.02.09.14h0Z"/>
        <path class="cls-1" d="M104.52,44.1c.2-.09.3-.15.22-.36-.08-.21-.16-.4-.34-.4s-.67-.06-.66.05c0,.11.13.52.13.52,0,0,.45.28.65.19h0,0Z"/>
        <path class="cls-1" d="M105.39,42.87c0-.2-.67-.17-.67-.17-.14,0-.08-.02-.15.16-.06.18.27.39.47.4s.34-.19.35-.39Z"/>
        <path class="cls-1" d="M103.83,42.1c-.17,0-.07.25-.07.25.38.05.33.03.33-.12,0-.15-.09-.13-.26-.13h0Z"/>
        <path class="cls-1" d="M108.26,43.99c.13,0,.41-.13.41-.2,0-.07-.71-.11-.71-.11-.03.16.17.3.3.31h0Z"/>
        <path class="cls-1" d="M112.33,42.37c-.17-.02-.84-.15-.84-.15-.11.09,0,.27.17.28.17.01.21.23.41.25s.3-.07.36-.15.06-.2-.1-.22h0Z"/>
        <path class="cls-1" d="M116.74,45.69c0,.2-.12.27-.12.27-.12.27,0,.5.19.51s.2-.43.21-.5c0-.07-.26-.48-.27-.28h0Z"/>
        <path class="cls-1" d="M120.69,44.1c.03-.16-.2-.09-.43-.1-.22-.01-.07.37-.07.37.52.03.47-.11.49-.27Z"/>
        <path class="cls-1" d="M118.42,42.07v.12s-.03.11.29.27c.32.16.49.18.45.07-.04-.11-.03-.6-.27-.61s-.47.03-.47.15h0Z"/>
        <path class="cls-1" d="M118.27,41.75s.37.07.33-.1c-.05-.17-.25-.27-.32-.25s-.12.08-.12.18-.03.16.11.17h0Z"/>
        <path class="cls-1" d="M93.69,34.69c0-.14-.23-.11-.32-.07s-.15.36-.15.36c0,0,.14.2.15.34s-.08.21-.08.33c0,.12.25.32.34.13.09-.19,0-.43.05-.63s0-.32,0-.46h0Z"/>
        <path class="cls-1" d="M97.16,30.09s-.08-.21-.23-.24c-.15-.04-.22-.19-.33-.14s-.08.15-.16.13c0,0,.16.2.26.34.11.14.28.17.34.14.06-.02.16-.21.11-.23h0Z"/>
        <path class="cls-1" d="M98.22,29.81c-.07-.1-.19.08-.31.17s-.26.08-.33.13c-.07.05-.08.23-.08.23,0,0,.16.21.24.28s.26.02.35-.16.22-.22.29-.43-.08-.13-.16-.23h0Z"/>
        <path class="cls-1" d="M96.93,30.97s-.15-.11-.15.09v.2s0,.02.14,0,.15.06.15-.02c0-.09-.09-.27-.14-.26h0Z"/>
        <path class="cls-1" d="M102.31,34.81s.51-.14.63-.22c.12-.08.6-.46.57-.77-.03-.32-.5-.57-.44-.96s-.09-.55-.55-.46-.9.4-.9.69c0,.28.19,1.14.37,1.41s.14.23.32.32Z"/>
        <path class="cls-1" d="M104.25,32.86c.3,0,.22-.12.19-.25-.03-.13.03.13-.36-.26s-.48.04-.48.04c0,0-.19.09.06.34s.29.13.59.14h0Z"/>
        <path class="cls-1" d="M102.7,31.96c.25.14.23-.06.25-.24s-.23-.3-.29-.43-.2-.1-.2-.1c-.08,0-.1.24-.09.4s.07.22.32.37h0Z"/>
        <path class="cls-1" d="M99.56,32.26s-.07.11,0,.2.09.23.16.2c0,0,.21-.08.2-.19,0-.11-.09-.12-.09-.2,0-.08-.26-.04-.26,0h0Z"/>
        <path class="cls-1" d="M99.75,33.34s.11.03.15-.14.12-.26,0-.26c-.12,0-.15-.01-.2.05-.05.06-.01.07,0,.15,0,.08-.15.08.05.2h0Z"/>
        <path class="cls-1" d="M98.87,31.46c-.03.18-.07.16.03.27,0,0,.34.08.38-.18.03-.26-.02-.62.09-.65s.24-.38.08-.34-.2-.08-.23.12c-.03.19-.14.3-.14.3,0,0-.04.12-.05.33-.01.21-.13-.02-.16.16h0Z"/>
        <path class="cls-1" d="M99.32,29.84c-.14.1-.17-.01-.22.16s-.18.26,0,.36c0,0,.45-.31.44-.41-.01-.1-.07-.21-.22-.11h0Z"/>
        <path class="cls-1" d="M100.5,30.84s.26,0,.27-.14.04-.37-.12-.44c-.16-.07-.23-.2-.24-.07-.01.13-.01.2-.06.3-.05.1-.06.1,0,.17s.1.07.16.19h0Z"/>
        <path class="cls-1" d="M86.42,24.78c.21,0,.74.26.96.07.22-.18.46-.16.53-.55.06-.39.71-1.78.54-2.05s-.14-.27-.69-.3c-.54-.03-.57-.1-.73-.2s-.61-.04-.74-.01-.41.12-.59.12c-.18,0-.25.05-.31.08-.06.02.12.5.4.62.27.12-.47.02-.49.21-.02.19.04,2.13.04,2.13,0,0,.27.49.32.49.04,0,.04.61.04.73s.13.07.13.16c0,.09.06.32.13.31,0,0,.33-.03.43-.12.09-.09.27-.25.32-.54s.25-.52.01-.67-.37.09-.43-.17c-.06-.26-.08-.3.13-.3h0Z"/>
        <path class="cls-1" d="M94.94,22.25c.22.05.47.03.52.32.04.29.38.94.65.84s.66-.7.92-.69c.26,0,1.2.06,1.2-.1s-.53-.89-.94-.98c-.41-.1-.73-.54-.99-.38-.26.16-.33.33-.68.33s-.17-.08-.48-.15-.45-.09-.57-.03c0,0,.16.78.38.84Z"/>
        <path class="cls-1" d="M83.09,22.18s-.14.05,0,.19.16.05.35.08c.19.02.29-.23.34-.39s-.1-.11-.27-.14-.42.26-.42.26h0Z"/>
        <path class="cls-1" d="M79.65,19.36c.12.01.27.17.37.2,0,0,.34-.17.34-.3s.14-.43-.05-.47-.27-.03-.36,0-.11.17-.22.31c-.1.14-.2.25-.08.26h0Z"/>
        <path class="cls-1" d="M83.94,20.72c-.09-.09-.27,0-.27,0,0,0-.14.16-.07.2.07.04.15.11.21.07,0,0,.22-.17.13-.26h0,0Z"/>
        <path class="cls-1" d="M85.25,20.86s.19-.12.09-.16-.13,0-.2,0c-.07-.01-.11.15.11.16Z"/>
        <path class="cls-1" d="M86.23,20.43c0-.14.16-1.17.02-1.27-.13-.1-.27-.07-.29-.36-.02-.29-.3-.43-.55-.43-.24,0-.98,1.21-.94,1.25.04.04.57.8,1.32.8,0,0,.43.15.44,0h0Z"/>
        <path class="cls-1" d="M81.51,17.87c-.1-.03-.58.29-.58.38s.01.27.19.26c.18-.02,1.21-.54,1.42-.53.22.01.51.1.32.22-.19.12-.65.27-.67.51-.02.24-.05.54.03.76.08.22.43.58.98.36,0,0,.53-.4.51-.56s-.39-.46-.24-.57.37.09.37-.13c0-.23-.17-.76-.14-1.11.03-.35-.09-.76.03-.76.11,0,.19-.41-.15-.52s-.54.04-.68.15-.08-.22-.21-.28c-.14-.07-.48.16-.55.24-.08.09-.13.42.06.47.19.05.16.13.22.27.06.13.42.22.41.37,0,.15-.38.3-.46.16-.08-.13-.55-.65-.55-.76,0-.11.16-.32,0-.37s-.52.04-.49.18.31.23.32.34c0,.11-.09.15-.14.17-.06.02-.07.28.06.29s.21.12.18.19-.14.28-.25.25h0s0,0,0,0Z"/>
        <path class="cls-1" d="M81.04,17.76c.11-.04.2,0,.12-.11s-.2-.08-.27-.08c-.06,0-.1.13-.1.17s0,.22.05.24c0,0,.09-.18.2-.22h0Z"/>
        <path class="cls-1" d="M80.66,17.3c0,.09.04.04.1.05,0,0,.03-.1-.02-.1-.06,0-.07-.04-.07.05h0,0Z"/>
        <path class="cls-1" d="M80.23,16.98c0,.06-.05.18,0,.2.04.02.13-.01.17-.05.05-.04-.02-.08.08-.08.1,0,.3.06.33-.01,0,0,.27-.05.26-.11s-.64-.09-.7-.08-.13.06-.14.12c0,0,0,0,0,0Z"/>
        <path class="cls-1" d="M80.34,16.46c.08,0,.17.12.31.13,0,0,.25-.11.18-.27s-.18-.26-.26-.32c-.08-.06-.13-.07-.18-.07s-.08,0-.09.1c0,.1-.05.27,0,.3s-.03.13.05.14h0Z"/>
        <path class="cls-1" d="M81.65,15.92c-.02.16-.07.19,0,.19h.06s.13-.15.25-.2c.12-.05.22-.07.14-.13-.09-.06-.22-.09-.3,0s-.13-.02-.15.14h0Z"/>
        <path class="cls-1" d="M84.28,18.78s.11-.23.21-.23c.1,0,.21-.05.26-.09.04-.03.12-.19,0-.26-.11-.08-.25-.06-.31,0s-.26.16-.27.2c0,.04,0,.13,0,.24,0,.11.06.12.11.14h0Z"/>
        <path class="cls-1" d="M85.65,17.93s.09-.26-.04-.26c-.13,0-.15.06-.13.13.02.07.03.13.17.13h0Z"/>
        <path class="cls-1" d="M93.93,18.51c-.14-.02-.22-.05-.1-.36.11-.31.28-.18.22-.41s-.4-.56-.6-.6-.7-.24-.93-.24c-.23,0-.36.37-.6.32-.24-.05-.29-.11-.45-.09-.16.02-1.03,1.16-1.11,1.07s-.02.19-.17.19c-.14,0-.15.07-.28-.18s-.42-.23-.61-.04-.09.22-.21.16c-.12-.05-.16-.06-.16-.21,0-.15-.12-.31-.25-.07-.13.24-.19.26-.28-.08s-.19-.13-.45-.27-.52.15-.58,0c-.06-.16.16-.2.13-.44s-.04-.13-.23-.18c-.19-.05-.28-.22-.14-.27.14-.05.28.18.47.18.19,0,.17.07.34-.01.17-.08.42.04.37-.24s.01-.22-.29-.23c-.3,0-.92-.13-.79-.31.12-.18.42-.26.02-.39s-.77.33-.96.37c-.19.04-.24-.26-.39-.66-.15-.4-1.56-.41-1.68-.29s-.05.48,0,.59.16.32.24.24.15,0,.22.1c.07.09-.03.31.07.34.09.02.27-.05.29.02s0,.12,0,.24.1.33.2.16c.11-.17.18-.46.25-.31.07.14,0,.27.2.24.2-.03.29-.4.41-.28.12.11.26,1.12.88,1.13,0,0-.12,1.56-.05,1.59.07.02.17.48.36.94s.21-.19.85.15.69.21.73,0c.04-.2.24-.63.37-.37.13.26-.1.29,0,.46.1.17.77.09,1.11-.05.34-.15.6-.07.91-.22s.21-.05.51-.04c.29,0,.69-.23.55-.51-.15-.28-.22-.35-.05-.35.16,0,.2.14.29.31.09.18.19.41.41.32s.29.09.53-.04c.23-.13.56-.18.6-.36.04-.18.18-.24-.07-.47-.25-.23-.23-.29-.06-.29s.57-.02.57-.02c0,0,.21-.22,0-.28s-.45.09-.6.07h0s0,0,0,0Z"/>
        <path class="cls-1" d="M79.81,14.86c.17.04.44.12.44.12,0,0,.33-.18.13-.5-.2-.32-.25-.74-.27-.94-.02-.21-.4-.34-.4-.34,0,0-.08.6-.07.89,0,.29.02.74.18.78h0Z"/>
        <path class="cls-1" d="M85.75,4.5c.25-.05.45-.28.45-.14,0,.14-.21.27-.22.34,0,.07-.07.18.05.16.12-.02.48-.46.61-.41s.28.06.21.18c-.07.11-.39.43-.44.55-.04.11-.08.46.03.47s.54.03.68-.03c.15-.06.53-.45.69-.56.17-.11.16-.32.26-.2.1.13.17.11.07.24s-.16.19-.27.27-.2.36-.33.37c-.14.01-.39-.01-.55.07-.16.09-.28.17-.32.27-.04.11.54.39.69.39.15,0,.21.02.21-.31s.07-.37.24-.44c.17-.07.36-.23.47-.35s.28-.23.38-.23c.1,0,.33-.02.36.03s-.18.28-.35.27-.34.08-.43.13c-.08.06-.13.06-.19.21-.06.15-.16.13-.17.31s-.02.51.08.52.25.16.43-.05c.18-.21.17-.28.28-.39.12-.11.16-.18.27-.22.11-.04.2-.11.21,0,.01.12-.05.14-.19.22-.14.09-.2.16-.13.25.07.09-.02.19.25.08s.28-.33.38-.35.15-.1.25-.15.06-1.49.2-1.65c.14-.16.32-.43.41-.3.09.13.04.39-.06.63s-.2.4-.1.47.09.2.28.14c.19-.06.23-.13.4-.14.17-.01.3-.11.25.04s-.17.27-.31.3c-.14.03-.59.19-.6.35,0,.16.17.2.37.22.2.02.14.11-.11.18s-1.22.61-1.23.76-.04.25.16.38.74,1.03,1.22.85c.48-.18.18.37-.02.41-.2.05-.8-.11-.94-.49-.14-.37-.87-.89-.99-.91-.12-.03-.6-.14-.62.04-.01.18.04.84.19,1.01.14.18.77.35.93.71.16.36.03.44.24.46.21.02.24.16.11.24s-.24,0-.21.2.13.27.31.23.38-.24.64-.17c.25.07.32.03.31.14s-.15.37-.28.37c-.13,0-1.2-.04-1.5.16-.3.2-.32.33-.44.58-.11.25-.09.53-.05.65.03.12.09.44.27.32.18-.12.34-.76.46-.65s.07.24.05.41.16.37.21.16c.06-.22.02-.62.12-.62.1,0,.18-.04.19.12s.03.44-.06.51c-.09.07-.15.3-.14.45.01.15.14.05.14.19,0,.14.08.1.11.27.04.17.1.41.31.41s.43-.04.49-.22.02-.44.08-.73c.06-.29.19-.61.31-.56s.2.05.16.26c-.05.21-.07,1.06-.2,1.2-.13.14-1.04.99-1.79-.43,0,0-.89-.15-.68.49.2.64.34.51.52.5.18,0,.35-.07.24.25s-.8.27-1.09.98c-.29.7-.39.64-.13.79s.16.02.25.15c0,0,.29-.24.45-.09.16.15.39.31.4.2,0-.11-.18-.41,0-.39.19.02.41.2.41.2,0,0-.07-.15.16-.19.23-.04.32.15.5.3s.5.3.57.1c.07-.2-.38-.26-.16-.4.22-.14.43-.07.41-.18-.02-.11-.29-.64-.1-.42.19.23.23.21.35.38.12.17.3.05.21-.08s-.29-.33-.12-.34c.17-.02.33.6.46.58s.18-.4,0-.52-.19-.23-.04-.27c.15-.04.02.3.76.45s-.07.38.25.45.6-.11,1.1-.87.22-.59.02-.93-.19-.18-.3,0c-.11.18-.34.2-.34-.06s-.09-.44-.24-.43-.23.1-.36.18c-.13.08-.25,0-.34-.04-.09-.04-.31.03-.39.21s-.3.27-.27-.05.23-.2.21-.32-.11-.17-.29-.26c-.18-.09-.28-.43-.11-.44.17-.02.33.18.37.28s.11.26.31.21c.2-.05.33.01.47-.08s.3-.12.41-.13.31-.22.3-.35c-.02-.13-.42-.55-.46-.73-.04-.18-.06-.34.12-.31s.25.11.53,0,.35-.08.48-.19c.13-.11.19-.38-.51-.29s.18-.43.33-.43c.15,0,.29-.33.1-.34s-.71.27-.71-.01c0-.28-.1-.3.16-.29.26,0,.58.21.58,0s-.12-.62-.35-.63-.65.13-.67,0c-.02-.14-.4-.05-.48.04s-.26.1-.25-.12c0-.22.26-.24.38-.26.12-.03.72-.12.87-.22.16-.1.09-.45-.28-.31s-.7.21-.83.17c-.13-.04-.12-.27.04-.26s.54.02.41-.08c-.12-.09-.53-.07-.56-.17-.02-.1.03-.3.18-.23.14.07.44.25.7.12.27-.13.5-.31.43-.51s-.54-.04-.71-.2-.03-.34.17-.35c.2,0,.67.25.87.22.21-.02.33-.83.18-1.1s-.25-.39-.07-.48c.17-.09.14-1,.18-1.22s.15-.54.18-.65.21-.44.21-.62.06-.54-.06-.6-.46.27-.52.42c-.06.15-.57,1.04-.76.96s-.2-.26-.04-.36.39-.34.41-.54l.02-.2s-.13.04-.3.09-.38-.13-.17-.2c.21-.07,1.08-.38,1.3-1.03s.25-.57.09-.9-.47-.56-.87-.57c-.4-.01-.22-.39-.76-.41-.54-.02-.51.54-.65.63s-.29.51-.41.21c-.12-.3.18-.26.2-.5.02-.23.1-.37-.18-.36s-.76,0-1.04.05c-.28.04-.21.17-.14.23.06.06.22.32.06.31s-.24-.11-.38-.23c-.14-.12-.18-.1-.22.01s-.15.25.03.33c.17.09.23.12.35.24.12.12.27.05.24.21s.07.23-.19.19-.53-.33-.63-.47-.2-.21-.44-.22c-.24,0-.31-.04-.31.07s.03.23.19.31c.16.07.23.17.37.3.14.13.27.22.23.27-.04.04.06.23,0,.25s.05.17-.1.11c-.15-.06-.67-.82-.82-.83s-.56-.11-.64-.11c-.07,0-.15.12,0,.17.15.05.21.05.39.18s.15.2.04.21c-.12,0-.1.04-.31-.08s-.19-.09-.35-.09c-.16,0-.28.03-.19.11.09.09.28.28.4.34s.17.1.16.18.15.16-.07.13-.11,0-.28-.08c-.18-.08-.36-.07-.36.09s.12.4.31.47c.19.07.24.07.34.16.1.09.2.21.24.31.04.1.09.25-.1.11s-1.05-.73-1.17-.76-.4-.12-.41.15c0,.27.47.48.54.63s.27.43-.09.34-.72-.45-1.05-.29c-.33.16-.79.69-.83.83-.04.13,0,.44.25.39h.01s0,0,0,0Z"/>
        <path class="cls-1" d="M93.85,16.4c.17-.17.02-.48-.07-.48s-.32.39-.32.39c-.11,0-.08.16.05.33s.17-.07.33-.24Z"/>
        <path class="cls-1" d="M87.19,14.57c.03.08.21-.09.42-.25s-.07-.41-.18-.61c-.11-.2-.4,0-.41.16,0,.15.14.32.14.32l.04.09c.04.09-.05.21-.02.29h0Z"/>
        <path class="cls-1" d="M84.76,14.55c0,.07.19.22.19.22,0,0,.23-.2.11-.22-.12-.02-.3-.08-.3,0h0Z"/>
        <path class="cls-1" d="M85.74,14.17s.1-.37,0-.56-.04-.27-.42-.21c-.38.05-.63.07-.74.2s-.26.44-.08.48c.18.04.81-.06.81-.06,0,0,.02.28.42.16h0Z"/>
        <path class="cls-1" d="M81.93,13.14c-.06-.08-.24-.1-.33-.2s-.16.02-.17.13-.08.21,0,.25.65,0,.65,0l-.1-.1-.06-.08h0Z"/>
        <path class="cls-1" d="M81.15,12.23c-.19.03-.28-.06-.24.11.04.17.1.22.23.24,0,0,.2-.38,0-.35Z"/>
        <path class="cls-1" d="M80.65,10.77c.21-.02.38.33.54.53.15.21-.13.34-.43.27-.3-.07-.48-.09-.5.18s.36.48.36.48c.18.01.05,0,.14-.11.09-.11.24-.16.48-.16.23,0,.51.22.72.28s.4.86.56.95c.16.09.26-.17.34-.33s-.05-.44-.21-.66-.1-.26-.03-.54c.07-.28-.53-.41-.55-.62-.02-.21-.25-.55-.37-.46-.12.09-.45.11-.46-.16-.01-.27-.16-.55-.4-.73s-.67.23-.68.53c-.01.31.28.55.49.53h0Z"/>
        <path class="cls-1" d="M83.53,11.33c.13.06-.14.62-.01.72s.43.03.44.34-.21.09-.2.42c.01.33.37.54.37.54.09.06,0,0,.07-.2s.22,0,.37,0c.14.01.3-.3.44-.52.15-.23-.2-.18-.2-.18,0,0-.07-.16.13-.32s-.07-.26-.1-.39-.29-.26-.38-.27c-.09,0-.28-.25-.41-.46s-.38-.11-.56,0c-.18.1-.1.26.03.32h0Z"/>
        <path class="cls-1" d="M83.05,8.59c.09.07-.04.47.17.42,0,0,.22-.34.1-.58s-.18-.31-.35-.17c-.17.14-.01.27.08.34h0Z"/>
        <path class="cls-1" d="M85.03,8.68c.37-.19.31.3.08.31-.23,0-.51.34-.35.53s.38.06.64-.1c.26-.16.5.27.66.32.16.05.45-.04.45.26s-.7,0-.89-.01c-.19-.02-.62.43-.37.63s.3.1.36.3c.06.2-.25.21-.09.27.16.06.51,0,.57.19.07.2-.17.07-.27.31-.11.25.54.45.61.56.07.11.44.06.44.06.13-.16-.05-.11-.1-.32-.05-.21.06-.11.15-.15.1-.04.22-.02.2-.18s-.04-.22-.06-.33.19-.08.26,0c.07.08.06.4.07.61,0,.21.27.13.4.16s0-.59.16-.68c.15-.1,0-.35-.07-.48-.08-.13-.12-.27-.12-.47,0-.19.03-.32.17-.3.14.02.2.54.24.58s.12-.51.13-.62c.02-.11.71-.42.71-.75,0-.33-.62-.52-.89-.54s-.41-.7-.44-.81-.3-.2-.64-.2c-.34,0-.29-.54-.29-.7s-.43-.24-.51-.31-.44-.96-.47-1.22c-.04-.26-.48-.48-.77-.54s-.4.22-.42.41.61,0,.78.01,0,.4-.19.37c-.18-.03-.63.16-.66.36s.69.55.73.67c.04.12-.8-.03-.92-.01-.11.01.14.28.23.38.1.1.02.14-.1.1s-.18.12-.15.33c.03.21.62.08.84.12.22.04,0,.25-.2.26s-.57-.17-.65-.19c-.07-.01-.2.12-.01.61.19.49.38.37.75.18h0Z"/>
        <path class="cls-1" d="M87.14,7.46c0,.12.05.29.17.28s.14-.05.16-.14c0,0,.1-.35-.07-.35-.17,0-.26.09-.26.21,0,0,0,0,0,0Z"/>
        <path class="cls-1" d="M88.79,10.27s.22-.12.19-.15c-.03-.03-.07-.13-.19-.08-.11.05-.23-.06-.19.11.04.16-.02.18.19.12h0Z"/>
        <path class="cls-1" d="M85.68,32.73s.32-.11.31-.28c0-.16-.15-.25-.3-.21-.14.05-.17.27-.15.35.02.08.14.13.14.13h0Z"/>
        <path class="cls-1" d="M85.34,32.35s-.2-.27-.23-.13c-.03.14-.03.2.13.26,0,0,.13-.09.11-.13h0Z"/>
        <path class="cls-1" d="M81.27,32.38c-.11.06-.11.05-.11.15s.03.19.15.19c0,0,.21.1.13-.19-.07-.29-.07-.21-.18-.15Z"/>
        <path class="cls-1" d="M82.17,30.1c-.02-.09-.05-.3-.18-.26-.13.04-.24.17-.24.21,0,.04.11.19.36.23,0,0,.08-.09.06-.18h0Z"/>
        <path class="cls-1" d="M16.9,19.21c-.17.46.29.8.42.85s.82.17,1.06.27c.24.1.03-.24.01-.45s.14-.88.14-.88c.1-.21.03-.39-.45-.37-.48.03-1.12-.48-1.22-.27-.11.21.22.39.05.85,0,0,0,0,0,0Z"/>
        <path class="cls-1" d="M21.8,12.14c.16.43.32.67.67.6s0-.85.29-1.43.19-.79-.24-1.05.36-.78-.07-1.04c-.43-.26-1.39.57-1.39.57,0,0,.53,1.08.82,1.35s-.23.57-.07,1h0Z"/>
        <path class="cls-1" d="M10.3,18.19c-.6-.64-1.2-.65-1.23-.36-.02.29.17.95.17.95,0,0,1.66.05,1.05-.58Z"/>
        <path class="cls-1" d="M10.41,29.48l.04.03s-.5.73-.16.95c.33.22.5.25.69-.11s-.11-.85-.57-.87h0Z"/>
        <path class="cls-1" d="M9.65,28.92c-.34,0-.5-.13-.71-.26-.21-.13-.21-.22-.32-.04s-.35.33-.35.16c0-.17.05-.23-.07-.36s-.06-.27-.28-.11-.15-.04-.3.13c0,0,.07.55-.01.74s.09.46.2.36.39-.11.5-.24c.11-.13.04-.35.19-.33.15.02.43,0,.32.19-.11.2-.1.42,0,.53s.11.16.32.29c.21.13.34.14.48-.04s.25-.34.31-.54c.06-.21.08-.49-.27-.49h0Z"/>
        <path class="cls-1" d="M3.38,26.69c-.13-.25-2.39-.23-2.39-.23,0,0-.04.7.84.63.87-.07,1.67-.15,1.55-.4Z"/>
        <path class="cls-1" d="M5.26,27.54c.12-.21-.12-.55-.35-.62s-.62.43-.62.43c0,0-.03.25-.36.34s-.49-.5-.73-.08c-.24.42.45.42.72.58.27.17.3.23.57-.06s.61.07.77-.2c.16-.27-.12-.19,0-.4h0Z"/>
        <path class="cls-1" d="M6.17,28.28s0-.06.03-.14c.18-.38-.51-.31-.51-.31-.19.24-.11.39.08.56s.33.05.38.23.37-.01.53-.02c.17,0-.02-.32-.1-.43-.06-.1-.38.19-.41.12h0Z"/>
        <path class="cls-1" d="M8.42,21.04c.35.28.31.09.26-.45s-.54-.33-.54-.33c-.28.54-.08.5.28.78Z"/>
        <path class="cls-1" d="M24.35,36.12c-.15-.27-.23-.17-.31-.36-.08-.19.14-.12.17-.3s-.54-.2-.67-.53c-.14-.33-.62-.7-.78-.47s.64.22.24.67-.27.68-.43-.22c-.16-.89-1.33-.11-1.33-.11,0,0-.13.07-.27.26s-.2.43.14.65c.09.06.15.08.17.06-.05.18-.15.45.03.56.24.15.5-.07.68-.18s.19.16.28.47c.1.31.59.11.82-.12.23-.23-.06-.51.17-.37.22.14.14.53.22.71s.35-.08.58-.2c.23-.11.35-.04.43-.26.08-.22,0,0-.15-.27h0Z"/>
        <path class="cls-1" d="M17.55,36.16c-.33.22-.17.37.11.54s.4,0,.53-.1c.13-.1.12-.45.12-.45,0,0-.42-.21-.75.01h0Z"/>
        <path class="cls-1" d="M24.92,34.33c-.1-.08-.38.07-.38.07l-.32.13-.09.16c-.09.16.22.29.35.34.13.06.58.16.85.17.27.02-.04-.33.15-.53s-.47-.26-.56-.34h0Z"/>
        <path class="cls-1" d="M40.09,49.84c.06-.03.09-.06.11-.1-.15.02-.28.18-.11.1Z"/>
        <path class="cls-1" d="M40.2,49.73s.07,0,.11.01c.18.08.48-.18.62-.08s.41.08.33-.24-.37-.55-.19-.81.4-.09.6,0,.14-.49-.35-.55c0,0-.32-.31-.72-.16-.4.15-.38.16-.38.44,0,.29.2.68.06.95-.1.19-.04.33-.08.43h0Z"/>
        <path class="cls-1" d="M41.77,50.74c.75-.81.65-.25.88-.6.22-.35-.14-1.25-.46-1.59,0,0-.72,1.06-.87,1.51-.15.45-.3,1.49.45.68h0Z"/>
        <path class="cls-1" d="M39.87,51.11c.42.37.26.48.17,1.1s.15.4.34.37c.19-.03.22-.67.34-.89.13-.22.07-.14.03-.43s.02-.46.09-.7c.07-.23-.35-.49-.54-.54-.19-.04-.44.27-.64.21-.06-.02-.06.11-.06.11-.2.21-.15.39.27.76h0Z"/>
        <path class="cls-1" d="M41.47,57.47c.05-.03.28.25.44-.38.16-.63.46-.58.19-.96s.1-.43-.12-.66c-.22-.23-.23-.2-.05-.62.18-.42.05-.5-.08-.83s-.33-.55-.23-.75c.1-.2-.18-.62.02-.52s.35-.13.6-.22.33.16.33-.2.01-.5-.34-.65-.67-.21-.72-.22-.2.03-.2.03l-.07.03s-.66.67-.49.86.28.02.48-.08.31.07.15.34c-.16.28-.13.33-.26.55-.12.22.14-.05-.07.47-.21.52-.13.16-.28.81-.15.65.08.46.09.68s.27.11.2.51c-.07.41.12.39.09.6s.24,0,.19.5c-.06.51.07.71.12.68h0Z"/>
        <path class="cls-1" d="M42.58,57.26c.21-.36.39-.13.64-.58s.34-.82.22-.97c-.12-.14-.13-.32-.46-.28,0,0-.44.66-.56.92-.11.25-.28.51-.12.67s.07.6.28.24h0Z"/>
        <path class="cls-1" d="M0,25.57c.05.18.02.33.31.34.29.02.37,0,.11-.32-.26-.32-.43-.02-.43-.02h0Z"/>
        <path class="cls-1" d="M136.96,137.63c-.08-.31-.51-.03-.97-.02s-.04-.13-.45-.27c-.41-.14-.35-.1-.7-.1s-.31.01-.66.16-.61-.05-.87-.05c-.27,0-.25.02-.35-.2s.34-.24.1-.43-.22.02-.56.05-.38.01-.75,0-.17.17-.65.14c-.48-.03-.5-.24-.78-.35-.28-.11-.49.07-.82.05-.33-.02-.25-.06-.46-.19s-.3-.29-.73-.31c-.44-.02-.35-.13-.64-.26s-1.13-.27-1.44-.29c-.31-.02-.74.15-1.16.13-.42-.02-.56-.35-.89-.48s-.73-.12-1.01-.1-1.02-.22-1.3-.23c-.28-.01-.4.16-.59.18s-.52-.21-.64.06c-.12.27-.62.14-.82.13s-.82-.13-.97.33c-.15.46-.55.34-.78.33s-.8.12-1.35.44-.58.37-.94.58c-.35.21-.58.29-.88.68s-.37.48-.38.78c-.02.31.08.21.25.29s0,.27-.16.33-.26-.05-.47-.03c-.2.02-.3.29-.46.33-.16.04-.13.07-.13.07l.1.12c.1.12.42-.15.64-.25.22-.1.13.22.51.03s.32-.11.61-.34.04-.37.3-.66c.27-.29.61-.22,1.03-.35s.45-.46.69-.67c.25-.21.21-.47.48-.49s.88-.13,1.3-.35c.42-.22.63-.08.94.21.31.29-.44.41-.7.51-.26.1-.11.22.3.32.4.1.55,0,1.02-.05s.57-.19,1.06-.17.55-.28.89-.35c.35-.08.91.55,1.31.57.41.02.8.22,1.49.24s.55-.42.98-.48.35.47.61.86.57.66,1.37.74c.79.08.77-.3,1.14-.36.38-.06.37.12.69.26.32.15.06.58-.29.92-.35.33-.71.9-.62,1.03s.6-.34,1-.53c.4-.19.87-.5,1.45-.73s.77-.18,1.32-.35c.54-.16.55-.02,1.06,0s.25-.28.51-.49.21.17.5,0c.29-.18.69-.33.95-.45.26-.11.85-.2.78-.51h0s0,0,0,0Z"/>
        <path class="cls-1" d="M117.37,139.59c.13.12.5-.07.72-.1.22-.04.34-.08.45-.36s-.02-.53-.33-.66-.14,0-.54-.03c-.4-.02-.31.3-.31.3,0,.16-.06.25.2.38.26.13.21.19.17.28s-.48.07-.35.19h0,0Z"/>
        <path class="cls-1" d="M131.7,144.56c.33-.04.36-.22.64-.29s.48-.08.66-.14c.18-.05.36-.18.11-.36s-.15-.24-.64-.29c-.49-.05-.82-.05-1.33-.07-.51-.03-.38.14-.74.12s-.88.1-1.03.19c-.15.09-.17.06-.41.11-.24.05-.48.55-.48.55-.18.29-.02.18.37.24.39.06.23.01.68.09.45.08.18.26.63.34s.23-.09.47-.13c.24-.04.09-.04.46.02.38.06.15-.04.23-.27s.05-.07.38-.11h0Z"/>
        <path class="cls-1" d="M149.28,136.98c-.22-.21-.44-.46-.99-.46-.55,0-.61.03-1.06.04s-.85.19-.8.05c.05-.14.59-.3.6-.37,0-.07-.24-.17-.48-.03-.24.14-.29.22-.51.19-.22-.03.07-.48-.5-.51-.57-.03-.93.17-1.43.18-.5.02-.65,0-1.01.15-.35.16-.66.17-.99.19s.09.44-.33.59-.6-.07-1.01.14c-.4.2-.26.23-.76.2s-.93.25-1.18.45-.83.67-.5.67.48-.25.79-.2c.31.05.63-.15.61.28s.07.66.47.78.6.18.76.28c.17.11.29-.13.03.29-.26.42.04.37-.45.55s-.5.34-.94.32-.63.13-.91.18-.43.12-.82.1c-.39-.02-.63.06-.63.06,0,0-.43.15-.49.31-.07.16-.13.65.21.57.33-.08.47-.22.6-.1.13.12.43.41.57.37s.03-.22.19-.36.14-.22.5-.31.24-.03.75-.09.43-.2,1.09-.5c.66-.3.55-.29,1-.38.46-.09.45-.26.67-.08s.17.28.51.59.48.59.58.31.31-.56.33-.8c.01-.24-.17-.54.21-.94.38-.4.62-.69.78-.57s.48.28.68.12c.2-.17.26-.24.57-.45.31-.21.42-.28.88-.48.46-.2.51-.45.87-.44s.26-.21.56-.05c.3.16.41.42.69-.01.27-.44.5-.65.28-.85h0Z"/>
        <path class="cls-1" d="M154.74,135.03c-.6.04-.82-.08-1.02.15-.2.23-.64.56-1.03.69-.39.13-.86.28-.86.28,0,0-.34.2-.2.6.14.4-.19.76.25.65s.49-.23.88-.34c.39-.11.53-.91.87-.77.34.14.18.35.66-.03.48-.38,1.05-1.26.45-1.22h0Z"/>
        <path class="cls-1" d="M124.01,126.13s.65.02.71-.09c.06-.11.16-.31.34-.37s.58-.15.59-.25c0-.09-.03-.37-.34-.28s-.3.17-.55.16-.76-.02-.71.11c.05.13.22.22.09.38s-.33.35-.13.35h0Z"/>
        <path class="cls-1" d="M126.56,128.87c-.25-.01-.43-.02-.43-.02,0,0-.12.23-.03.63s.07.41.21.72.22.61.54.61.64-.1.62-.52c-.01-.43-.07-.64-.38-.95-.31-.31-.28-.44-.53-.46h0Z"/>
        <path class="cls-1" d="M127.74,131.55c.38.02.16.12.49.27s.15-.44.13-.75c-.02-.32-.14-.12-.31-.2-.18-.08-.44.16-.44.16,0,0-.22.02-.39.27s.15.24.53.26h0Z"/>
        <path class="cls-1" d="M127.18,126.43c.09.16.21.25.34.2s.32-.8.22-1.11-.11-.42-.42-.54c-.31-.12-.59-.06-.5.14,0,0,.05.14.18.36.12.22.22.19.2.41s-.12.39-.03.54h0Z"/>
        <path class="cls-1" d="M130.04,127.42c-.22-.19-.09-.16-.46-.18s-.02.32-.02.32c.11.13.26.09.46.18s.09.54.15.72c.06.19.16-.19.17-.41.01-.23-.08-.43-.3-.61h0Z"/>
        <path class="cls-1" d="M132.78,129.72c-.1-.14-.27-.48-.41-.64s-.26-.26-.56-.5c-.3-.24-.43-.16-.43-.16-.11,0-.02.11-.01.26,0,.15.17.13.36.32.2.19.37.47.62.68.25.21.51.53.71.89s.27.65.35.81c.08.16.4.16.59.03.18-.13-.14-.13-.31-.25-.17-.12-.24-.39-.32-.51s-.5-.78-.59-.93h0Z"/>
        <path class="cls-1" d="M136.52,131.46c-.18-.15-.13.04-.32-.02-.19-.06-.62-.03-.62-.03,0,0-.05.13-.01.27.04.14.38.3.74.32s.1.16.29.3c.2.14.17-.11.15-.26-.02-.15-.04-.43-.22-.57h0,0Z"/>
        <path class="cls-1" d="M139.08,134.3c-.06.36-.35.18-.5.32-.16.14-.42.39-.42.39-.3.28.05.35.35.4.29.05.26-.15.61-.35s.35-.39.49-.6c.14-.21.02-.42-.07-.58-.1-.16-.39.05-.45.42h0Z"/>
        <path class="cls-1" d="M121.58,170.38c-.03.07-.09.19-.17.35-.08-.23-.47-.68-.69-.68-.23,0,.38.73.09.73s-.79-.29-.79-.53-.03-.88-.44-1.2c-.41-.32-1.69-.76-2.13-.65-.44.11-.35-.61-.38-.81s-.76-.47-1.11-.47.12.41.29.7c.18.29-.17.67-.23.55-.06-.12-.73-.56-1.11-.64-.38-.09-.47-.29-.7-.73-.23-.44,0-.53.09-.91.07-.32.02-.45-.05-.74h0c.78-.13,1.46-.21,1.71-.14.4.12.75.09,1.06.07.39-.03.61-.04.86.15.05.04.11.07.17.1.09.04.19.08.29.1h0c.14.03.28.04.45.03h0s.07,0,.1,0c.03,0,.07,0,.11-.01.03,0,.06,0,.1-.01.01,0,.02,0,.04,0,.03,0,.06-.01.1-.02.03,0,.06-.01.09-.02.04,0,.09-.02.13-.03.05-.01.09-.02.14-.04.08-.02.16-.05.23-.07.09.09.2.19.34.33.57.54.89,1.02,1.34,1.42,0,.01-.01.03-.02.05-.33.9-.36,1.43-.09,1.73.1.11.24.31.16.38h0s-.09.09-.11.14c-.15.26,0,.53.07.63.07.12.09.16.06.26h0Z"/>
        <path class="cls-1" d="M119.26,164.81c-.32.08-.59.1-.77.07-.02,0-.04,0-.05-.01-.03,0-.05-.02-.07-.03-.01,0-.02-.01-.03-.02-.49-.36-.96-.33-1.38-.3-.06,0-.12,0-.18.01-.2.01-.39,0-.6-.05h0c-.43-.13-1.38,0-2.29.16-.15-.17-.29-.28-.29-.28.01-.23.4-.69.05-.84-.35-.15-1.48-.86-1.85-1.18-.38-.33-.58-.71-.92-.79-.16-.04-.34-.14-.53-.26h0c.06-.06.12-.1.16-.12.11,0,.21-.04.28-.08h0s.07-.05.1-.08c.11-.11.17-.24.2-.35.01-.04.02-.07.03-.1.03-.11.05-.19.1-.25,0-.01.01-.02.02-.03,0,0,.02-.02.03-.03.19-.18.28-.34.31-.49h0c.01-.09,0-.17,0-.24,0-.02,0-.04-.02-.06-.02-.06-.05-.13-.09-.19-.02-.04-.04-.07-.05-.11h0s-.01-.05-.02-.07c0,0,0-.02,0-.03,0,0,0-.01,0-.02,0,0,0,0,0-.01.02,0,.07-.02.16-.02.13,0,.25-.02.34-.05.08-.02.14-.06.2-.09h0s.05-.03.08-.05c.06-.05.11-.1.15-.14h0s.01-.02.02-.03c.09-.1.1-.11.26-.11.6.03.93-.22,1.18-.42.09-.07.18-.14.27-.19.37-.2.49-.53.59-.79.01-.04.03-.08.04-.11h0s.03-.09.05-.13c.01-.02.02-.05.03-.07.01-.03.03-.06.05-.09,0-.01.01-.03.02-.04.04-.05.07-.1.1-.14,0,0,0,0,0,0,.03-.04.05-.08.08-.11.01-.02.02-.03.03-.05.02-.03.04-.05.06-.08h0s.05-.05.07-.08c.07-.07.16-.15.31-.27.05-.04.14-.04.28,0,.16.04.39.1.69.1.14,0,.26,0,.37-.01.02,0,.04,0,.05,0,.05,0,.1-.01.14-.02.03,0,.06-.01.09-.02.02,0,.05-.01.07-.02.16-.05.29-.13.45-.25.07-.06.15-.13.24-.21.16-.15.56-.33.95-.49h0c.15.4.07.99-.14,1.44-.25.55-.49.11-.34.98s.36,1.1.09,1.61c-.27.51-.04.34.05.73.09.39-.4,0-.23.21.16.21.35.43.18.64s-.51.4-.21.62.44.27.21.62c-.24.35-.55.47-.31.93s.04.26.88,1.1c0,0-.27.24.14.74.04.06.08.1.12.14h0Z"/>
        <path class="cls-1" d="M118.52,154.32c-.42.16-.92.39-1.18.63-.35.32-.36.33-.89.33-.13,0-.23-.01-.33-.03-.06-.01-.11-.03-.16-.04-.04,0-.04,0,0,0-.03,0-.06-.01-.09-.02-.24-.06-.54-.1-.88.19-.41.34-.46.4-.79.87-.15.22-.23.44-.3.62-.09.24-.12.32-.22.37-.15.08-.27.18-.38.26-.22.17-.35.27-.67.26-.52-.02-.74.22-.87.36-.09.1-.1.11-.21.11-.03,0-.05,0-.08,0-.03,0-.05,0-.08,0-.05,0-.1.01-.14.02-.02,0-.04,0-.06.02-.02,0-.04.01-.06.02-.04.01-.07.03-.1.05-.13.06-.21.15-.27.23-.16.22-.18.52-.07.84,0,.02.02.04.03.07h0s.02.04.03.06c.02.04.03.07.05.09-.01.01-.03.03-.05.05-.24.23-.32.5-.36.67h0s0,.03-.01.04c-.17.03-.36.14-.68.45-.31-.23-.77-.71-.47-.7.33.02.78-.14.62-.32s-.16-.62-.5-.4c-.34.22-.58.51-1.16.51-.57,0-1.77-.03-2.16-.05s-1.09-.38-1.5-.4c-.2-.01-.43-.1-.67-.2-.16-.06-.16-.06,0,0,.34-.4.64-.75.73-.86.08-.1.16-.15.26-.21.15-.09.34-.21.48-.45.15-.25.16-.48.16-.67,0-.13,0-.25.06-.4.12-.35.23-.49.72-.98.03-.03.06-.06.09-.09,0,0,0,0,0,0,.04-.04.09-.08.13-.11.04-.03.08-.07.12-.1.05-.04.1-.08.15-.11.02-.02.04-.03.07-.05.02-.01.04-.03.07-.04.15-.1.29-.19.44-.34.12-.12.41-.47.72-.87,0,0,0,0,0,0,.3-.12.34-.21.75-.15.56.08.57.05,1.49-.05s.95.19,1.36-.04c.41-.23-.37-.11.71-.53,1.08-.42.8.61,1.57.09.77-.52.5-.65,1.13-.62.63.03.16.33.82.16.67-.17.7.11,1.08.63.39.52.86.27,1.28.3.26.01.25.27.28.55h0Z"/>
        <path class="cls-1" d="M135.83,169.43c-.12.18-.2.79-.38.85-.17.06-.44-.17-.53.06-.09.23-.03.85-.41.61-.38-.23-.73-.5-1.05-.91-.32-.41-.06-.82-.03-1.37s-.79-.5-.99-.7-1.17-.44-1.46-.44-1.14.73-1.29,1.11c-.15.38-.96.96-1.23,1.08s-.82.73-.82.99.73.29,1.02.38c.29.09.55.18.73.44.18.26-.2.5-.53.53-.32.03-.91.44-1.29.53-.38.09-.44-.06-.44-.55s-.35-.73-.67-.85c-.32-.12-.09.85-.5.85s-1.05-.99-1.34-1.2-.38,0-.76.12-.7.03-1.05,0c-.23-.02-.46-.01-.65,0h0s.03-.06.04-.09c.03-.05.05-.1.07-.14,0-.02.02-.04.02-.06.15-.4.01-.7-.09-.87.13-.2.2-.46.1-.77,0-.02,0-.03-.02-.05h0c-.02-.05-.04-.11-.07-.16-.03-.05-.06-.11-.1-.17-.03-.04-.05-.07-.09-.11-.02-.02-.03-.04-.05-.06-.03-.12.04-.43.17-.8.51.33.52.35.84.8.35.5.61.32,1.17.15s.2.26,1.37.38c1.17.12,1.31-.61,1.69-.91s.7-.73,1.23-.96.82-.64,1.14-.99.7.09,1.84.09.85.21,2.07.35,1.49.67,1.72,1.08h0c.23.41.26.55.53,1.02.26.47.18.58.06.76Z"/>
        <path class="cls-1" d="M133.19,81.16c-.19.06-.24.29-.21.35.03.06-.24.21-.41.32-.17.11-.16.12-.15.42,0,.3-.22.07-.44-.08s-.13.15-.24.15c-.11,0-.25-.2-.24.33s-.16.06-.3.07c-.14,0,0-.33-.1-.53s-.27-.24-.23-.07.12.19.1.41c-.02.22-.17.87-.17.87,0,0,.1.4-.09.42s-.16-.07-.31-.07c-.14,0,.05.35-.05.43s-.16,0-.17-.26c0-.27-.17.08-.19-.08-.02-.16-.17,0-.23,0s0,.12.02.46c.02.34-.2.05-.26.51-.06.46,0,.24-.08.33s-.29.51-.25.91-.15.4-.28.3c-.13-.1-.15-.06-.25-.05s0,.3.24.29c.23,0,.05.43.17.65.12.22.52,0,.54.31s-.37.19-.46.56c-.09.37.14.29.38.24.25-.05.12.25.29.45.16.2.17.34.33.36s.14-.08.39-.14.66-.17.85-.17c.19,0,.05.22-.22.35-.27.13-.3.28-.56.33-.26.05-.31.41-.45.41s-.02-.33-.18-.47c-.16-.14-.2.21-.37.25-.17.03-.43.35-.61.77s-1.64.87-1.87.96c-.23.08-1.52,1.07-1.57,1.17-.05.1-.06.27-.12.29s-.04.09-.13.12-.08.06-.08.22c0,.16-.05.05-.13.11s-.07.08-.07.22c0,.15-.09.17-.02.33.07.16.46.22.46.29s.03.97.09,1.12c.06.15-.09.59-.24.67s0,.39-.12.44-.04.47-.18.53c-.14.06-.03.28-.04.41,0,.14-.17.04-.19-.15-.02-.19-.13,0-.25-.17-.12-.17-.22,0-.37,0-.14,0-.02-.05-.11-.14-.09-.09-.1-.11-.22-.11s-.1-.1-.2-.09c-.1,0-.11-.14-.16-.31s.01-.21,0-.38c0-.17-.11,0-.15.13-.04.13-.09,0-.13.09-.04.08,0,.25-.01.33,0,.08.24.25.34.41.1.17.13.24.2.38s.19.03.21.19.12.17.24.26c.11.09.09.19.32.25s.09.3.18.42c.09.12.12.22,0,.38s.06.09.01.28c-.05.19-.05.07-.16.17s.09.55.01.56-.1.02-.14.29-.01.09-.08.26-.01.18-.1.45c-.09.27-.01.16-.07.38-.05.22-.17.21-.22.42-.05.21-.05.03-.11-.01s-.06.12-.01-.21c.04-.34.07-.09.05-.26s0-.06.04-.28,0-.13.07-.28,0-.15.05-.23c.06-.08.01-.11.1-.3.09-.19.05-.22.05-.22,0,0-.11-.1-.16.1-.05.2-.02.07-.21.07s0,0-.03-.21-.11-.02-.13-.22-.14-.21-.22-.4-.11.08-.22.12-.2,0-.3-.03c-.1-.03-.04-.21.05-.21.1,0,.2-.27.06-.35-.13-.08-.03-.09-.09-.17s-.06-.43-.2-.49,0-.02-.04-.28c-.05-.26-.13-.2-.15-.35s0-.24.13-.25.28-.04.29-.24-.11.02-.2.02c-.09,0-.1-.08-.11-.3s-.12.01-.26,0c-.14-.02-.06.07-.05.35.01.28-.09.11-.17.11s-.11.07-.02.26c.09.19-.15.08-.23.09-.09,0-.22.03-.13.21s.12.12.23.17.13.22.1.58c-.04.36.13.43.21.57s.11.27.07.34-.24-.07-.22.1c.02.17.53.36.52.54-.02.17-.11,0-.19-.12-.08-.11-.11-.02-.18-.05-.08-.02-.25.1-.31-.03-.06-.12.01-.09-.21-.18-.22-.08-.01.11-.12.11-.11,0-.1-.04-.14-.21s-.03.01-.18.08c-.15.07-.17.13-.2,0-.03-.13.01-.12.12-.29.11-.16.05-.33-.16-.26s-.12.24-.21.55.02.13.25.43.57.09.91.18.25.15.56.27c.31.11.45.39.29.49s-.18-.03-.28-.14-.57-.33-.69-.26c-.13.07.24.16.45.41.21.25.41.18.63.34.22.16.01.31.02.45,0,.15-.06.09-.15,0-.09-.1-.09-.07-.25-.07-.16,0-.04.01-.07.1s.13.01.22.11c.09.1,0,.39,0,.22,0-.08-.05-.1-.11-.1s-.12.01-.15-.02c-.06-.06-.12,0-.27,0-.15,0-.13.21-.06.26.07.05.39.04.52.1s.05.23.23.22.2-.01.19.25c0,.26.31.14.48-.11s.53.05.6.06c.07.01.14.37-.13.46-.27.09.22.33.37.36.14.04-.03.38-.1.28-.07-.11-.29-.08-.34.07-.05.15.03.27-.11.3s-.22.39-.34.39-.11.02-.26,0c-.15-.02-.02-.14-.04-.42s-.05-.05-.11-.21c-.06-.16-.27-.07-.37-.07s-.11.06-.08.21c.03.15.12-.14.27-.05s.14.49.06.57.25.34.45.35.26.1.52.1,0-.2.03-.38.26-.02.41.13.05.27.11.3c.06.03.16-.09.15-.29s0-.22.18-.34c.18-.11.25.4.22.61s-.15.07-.25.07c-.11,0,0,.26-.1.42-.1.16-.14.24-.26.2-.13-.05-.21.07-.36.02s-.18-.17-.29-.21c-.12-.04-.11.12-.11.36s-.13.04-.21.03c-.08,0-.56-.13-.76-.11s.16.31.42.38.51.06.72.16c.21.1-.08.06-.07.33,0,.27-.2.14-.33.15s-.23.01-.38.02c-.15,0-.08.03-.08.17,0,.15.34.01.52.11s.34-.08.43-.18c.1-.1.18-.12.42-.08.24.05-.04.19-.07.33-.03.14-.25.29-.36.29-.11,0-.26.11-.4.13-.13.02-.18-.04-.3-.04-.12,0-.1.05-.09.15s-.1.22-.21.32c-.11.1-.08.12-.23.19s-.14.33-.29.37-.05.11-.13.18c-.08.07-.02.03-.11.16-.09.13,0,.18-.1.18-.1,0-.09.05-.12.15-.04.1-.03.27,0,.43.03.16.03.22-.08.19s-.34.06-.42.1c-.08.04-.04.01-.16-.01-.12-.03-.43.07-.4.17.02.07-.03.14-.16.22-.19.12-.04.34-.29.41s-.06.42-.27.62c-.21.2-.22.45-.2.59.01.13-.04.39-.17.43s-.41.06-.4.32c0,.26-.27.53-.28.24s.04-.09.03-.21c0-.11-.24,0-.33,0-.1,0-.03.01-.03.19,0,.18.11.08.2.34.09.26-.5.48-.63.52-.13.04-.07-.08-.08-.21s-.15-.08-.22.03c-.07.11,0,.13,0,.26,0,.13-.23,0-.33.02-.1.03,0,.11.14.16.14.06.21.12.22.33,0,.21-.1.04-.17.09-.07.05-.1-.03-.16-.03s-.04,0-.07-.14-.08,0-.13-.09-.03-.07-.03-.2c0-.13-.1-.03-.14-.03-.04,0-.14.02-.14.1,0,.08,0,.07.16.15s0,.16.08.24c.08.08,0,.38.02.45,0,.08-.09.08-.15.06-.06-.02-.35-.06-.36.04,0,.11.09.14.28.18s.13.23.14.31c0,.09-.17.02-.24.03-.07,0-.15,0-.24.03-.09.02-.11.08-.11.29,0,.14.1.17.14.17-.07,0,0,.14.09.25.09.11.02.19.06.26.03.06-.06.24-.15.26-.09.02-.18.21-.07.24s.05.3,0,.3c-.06,0-.21-.04-.29.09-.07.13.14.19.08.27s.13.58.16.73c.02.14.28.62.28.64s1.07,2.32,1.28,2.4c.21.08.65,1.11.65,1.3,0,.19.33.84.58,1.07s.5.88.75,1.13c.25.24.24.47.36.62.12.15-.03.11-.08.11s-.26.07.12.24c.38.17.45.71.61,1.07.16.36.09,1.59.15,1.72s-.07.53-.11.66c-.04.13-.04.47,0,.66s-.04.45-.23.46c-.19.01-.2.15-.46.12-.26-.03-.27.17-.45.19-.19.03-.23.03-.28.03-.05,0-.18-.07-.24-.19-.06-.12.07-.12.15-.12s.33.14.4.13,0-.07,0-.17,0-.06-.35-.27-.41-.56-.42-.73c0-.18.04-.19-.27-.22s-.88.03-.98-.27-.25-.66-.33-.74c-.09-.08-.1-.32-.11-.48s.12-.04.09-.19-.04.09-.13.09c-.1,0-.1.15-.1.26,0,.11-.19,0-.23-.11s-.05,0-.05-.15-.08-.51.01-.53c.1-.02.11-.21.03-.22-.08,0-.13.02-.22.06-.08.04-.31.13-.23.18.09.06.11.23-.08.21s-.17-.32-.54-.7-.19-.52-.1-.59c.1-.08.13-.14-.02-.17-.16-.03-.17-.12-.11-.22s.22-.25.22-.48-.3-.02-.41-.2c-.11-.18-.11-.03-.32-.02-.21,0,0,.11.1.16.1.05.13.17.15.25s-.17.04-.28.05c-.1,0-.26-.09-.22-.53.03-.44.18-.49.18-.49.08-1.38-.41-1.63-.41-1.88,0-.25.13-.12-.45-.24-.58-.12-1.1-.7-1.15-.93-.05-.24-.14.26-.27-.14s-.2-.06-.4-.41c-.21-.34-.31-.05-.34-.16-.04-.11-.37,0-.43-.04s-.4.02-.49,0c-.09-.02-.01.08-.01.14,0,.06-.09.1-.1.17s-.01.1-.08.13c-.07.03-.08.09-.13.12-.05.03-.1.13-.2.12-.1,0,0,.1-.14.1-.14,0-.03.09-.12.1-.09.02-.19,0-.26,0-.07,0-.02.11-.14.21s-.53.14-.56,0,0-.03-.07-.17c-.07-.14-.09,0-.12-.15-.03-.15.01-.02-.03-.24-.05-.22-.11,0-.17-.13-.06-.13-.09-.1-.12,0s-.3.02-.3-.11.13-.03.1-.2c-.03-.17-.05-.06-.12-.08s-.33.03-.35.09c-.03.06-.15.08-.27.06-.12-.01-.21-.08-.27-.3-.05-.22-.14-.06-.2-.1-.06-.05-.39-.33-.59-.01s-.61.3-.7.29c-.09,0-.17.08-.21-.13s-.14-.11-.27-.17-.16.01-.21.06c-.05.05-.05.24-.01.34s-.23.2-.24.11,0-.14,0-.21c0-.06-.04-.06-.12-.04s-.07.04-.07.09c0,.05-.04.21-.07.24s-.01.06-.11.06c-.1,0-.05.17-.12.19s-.14-.01-.22,0-.05-.03-.11-.1c-.06-.07-.11-.07-.18-.1-.08-.03-.01-.18-.03-.27s-.06-.09-.07-.22c0-.13.01-.09-.03-.09-.04,0-.1-.03-.1-.16s-.24-.06-.2.02c.04.08,0,.29-.02.35-.02.06-.01.12,0,.24.02.12,0,.17-.08.23-.07.05-.15-.04-.22-.09s-.2.13-.31.18c-.11.05-.48.07-.59.05s-.41,0-.43.09c-.02.08-.68-.02-.81.02s-.02.15-.02.27-.07.11-.18.15c-.11.05-.29.03-.4.04-.1.02-.02,0-.06-.1s-.18-.04-.25-.03c-.07,0-.18.01-.24-.02-.07-.04-.04-.15-.12-.21-.07-.06-.33-.01-.41.1s-.13.11-.2.18c-.08.07-.06.14-.13.3-.08.16.02.2.13.3.11.1.66.11.75-.07s.22-.27.22-.08c0,.18.46.35.46.35.64-.65.42,0,.43.13s-.42.08-.44.2,0,.12-.02.15c-.03.03-.08.03-.09.11s.08.09.15.19c.07.1.06.06.17.16.11.1.19.09.27.17.08.08.18.12.38.13s.3.04.34.22c.04.18.02.22.03.37s-.09,0-.12-.02c-.04-.03.1-.09.02-.1s-.13-.07-.21-.13c-.08-.06-.16-.04-.28-.13-.12-.09-.25-.05-.3-.12-.05-.07-.02-.11-.14-.1s-.31-.09-.34-.21c-.03-.13-.01-.11-.1-.1s-.22.03-.46-.09c-.24-.12-.27.1-.17.15s.18.14.18.37c0,.23-.13.05-.11.11.02.06.12.21.09.28-.03.07-.19.05-.22-.12-.03-.17-.06-.09-.1-.18s-.33-.01-.44,0-.23-.06-.31.03c-.08.09-.02.1-.05.29s-.19.14-.21.1.18-.14,0-.2c-.18-.06-.16-.2-.22-.23s-.47,0-.51-.07-.22-.35-.45-.33c-.23.02-.34-.21-.34-.21,0,0-.28-.02-.47-.22-.19-.2-.49-.03-.57-.01-.08.01-.22.04-.27.08s-.06.1-.02.13c.04.03.19.3.09.29s-.5,0-.65,0-.17.04-.26.02c-.1-.02-.44-.09-.57-.22s-.36-.09-.46-.15c-.09-.06-.24-.15-.48-.08-.25.08-.68.19-.67.05,0-.15.02-.51.01-.51s-.09.02-.11,0c-.03-.03-.13,0-.13.01,0,0,.03.11,0,.11-.02,0-.11-.01-.11.09,0,.1-.01.16-.03.15-.02,0-.09,0-.09.07,0,.07-.01.27.09.25.11-.02,0,.19,0,.19,0,0-.16,0-.26.01-.1,0-.15.12-.19.1s-.06-.04-.24.11-.71.04-.71.04c0,0,0-.46-.01-.48s-.04,0-.04,0c0,0-.25-.16-.31.03-.06.19-.31.26-.34.1s-.09-.11-.19-.11c-.11,0-.07.05-.05.12.02.07.1.08.11.13.02.05.1.17.12.2s0,.19.05.25.04.13.09.15.12.17.12.22c0,.06-.17.03-.2.03-.03,0-.07.27-.17.25s-.22.13-.26.33c-.04.2-.36.46-.48.52-.12.06-.26.21-.36.21s-.24-.03-.29.02c-.05.06-.17.1-.25.11s-.04.15-.22.21-.18,0-.27-.01,0-.06.08-.08c.08-.02.02-.29-.08-.2s-.13.07-.19.16c-.05.1-.05.14-.13.14-.08,0-.03-.21-.08-.26s-.16-.03-.12.09-.09.17-.14.12c-.06-.04-.01-.33-.07-.4s-.05.21-.13.22c-.08,0-.03.04-.1.12-.06.08-.12.06-.01.11s.23.22.26.39,0,.14-.05.2c-.06.05-.14-.02-.14-.02,0,0-.13-.02-.13-.08,0-.06-.1-.02-.14-.08s-.16.09-.11.17,0,.32,0,.4-.21.05-.25.05c-.03,0-.09,0-.14,0-.04,0-.22.02-.29.15-.08.14-.13.21-.19.21-.06,0-.11.12-.02.17s.29-.12.45-.12-.07.15-.13.26c-.07.11-.11.18-.11.18,0,0-.12.01-.13-.08s-.51-.03-.59-.02c-.08,0,0,.19.15.27s.11.09.18.19,0,.21.05.43c.06.22-.08.15-.08.15,0,0-.02.21-.09.21s-.03-.19-.13-.24-.1.13-.11.2c0,.07-.14-.02-.2-.02s-.07-.06-.07-.06c0,0-.18.04-.13.07.05.03.08.18,0,.19s0,.11.05.18c.05.07.32.11.45.11.13,0,.02.4-.08.4-.1,0-.1.26-.04.43s.1.33.18.38c.08.05.07.32,0,.32-.06,0-.04.05-.04.13s.17.24.17.24c0,0,.06.21.12.41,0,0-.02,0-.03,0-.05,0-.09,0-.14-.01-.17-.01-.34-.03-.5-.04-.1,0-.19-.02-.27-.03-.04,0-.07,0-.11-.01-.07,0-.14-.02-.2-.03-.03,0-.06-.01-.09-.02-.03,0-.05,0-.08-.02-.05-.01-.11-.02-.15-.04-.02,0-.05-.01-.07-.02-.86-.29-1.42-1.17-1.59-1.6-.02-.05-.04-.09-.06-.14-.07-.13-.14-.24-.22-.35-.06-.08-.13-.16-.19-.23-.18-.22-.28-.35-.28-.5,0-.27-.04-.45-.08-.59,0-.02-.02-.05-.02-.07,0-.02-.02-.04-.02-.06-.04-.1-.06-.16-.07-.26v-.05s-.02-.07-.03-.11c0-.03-.02-.07-.03-.1,0-.02-.01-.03-.02-.05,0-.02-.01-.03-.02-.05-.02-.04-.05-.09-.08-.13-.06-.1-.14-.19-.22-.28-.03-.03-.06-.07-.09-.1-.16-.18-.34-.39-.48-.64l-.06-.11c-.32-.56-.46-.79-.72-1.39-.02-.04-.04-.08-.06-.12-.02-.04-.04-.08-.06-.11-.01-.02-.02-.04-.04-.07-.02-.04-.05-.08-.07-.12-.01-.02-.02-.04-.04-.05-.01-.02-.03-.04-.04-.06-.01-.02-.03-.04-.04-.06s-.03-.03-.04-.05c-.02-.02-.03-.03-.05-.05-.02-.03-.05-.05-.07-.08-.02-.02-.05-.05-.07-.07-.12-.12-.25-.25-.42-.48h0c-.06-.1-.12-.18-.18-.24-.02-.02-.03-.04-.05-.06-.02-.03-.04-.05-.06-.07,0,0,0,0,0,0-.01-.01-.02-.02-.03-.03,0-.01-.02-.02-.03-.03-.02-.02-.04-.03-.06-.05-.01,0-.03-.02-.04-.03,0,0-.01,0-.02-.01-.02-.01-.03-.02-.05-.03-.02-.01-.05-.03-.07-.04-.04-.02-.09-.04-.14-.06-.05-.02-.11-.03-.17-.05,0,0,0,0,0,0-.03,0-.07-.02-.11-.02-.08-.02-.17-.03-.26-.05-.05,0-.1-.02-.16-.03-.16-.03-.33-.06-.55-.1-.52-.1-.89-.13-1.14.05-.03.02-.05.04-.07.06-.02.02-.04.04-.05.07,0,.01-.02.02-.02.04-.05.08-.07.16-.08.23h0s-.01.09-.02.12c-.01.11-.02.15-.06.2,0,0-.01.01-.02.02-.04.04-.09.08-.13.11-.24.21-.47.29-.68.24-.41-.09-.86-.43-1.39-.82-.08-.06-.16-.12-.24-.18h0c-.08-.06-.16-.12-.23-.17-.05-.04-.09-.07-.12-.1-.01,0-.02-.02-.03-.02h0v-.02s0-.06,0-.1c0-.04,0-.09-.02-.14,0-.01,0-.02,0-.03,0-.05-.02-.1-.04-.14,0-.02-.01-.04-.02-.06-.02-.05-.04-.1-.06-.15-.06-.11-.12-.21-.19-.31-.11-.17-.22-.32-.24-.52,0-.02,0-.05-.01-.07,0-.05-.02-.09-.03-.13-.03-.08-.06-.15-.11-.22,0-.02-.02-.03-.03-.05-.02-.02-.03-.05-.05-.07-.01-.01-.02-.03-.04-.04-.02-.02-.04-.04-.06-.06-.03-.02-.05-.05-.08-.07-.02-.02-.05-.04-.08-.06h0s-.07-.05-.1-.07c-.03-.02-.06-.04-.09-.06h0s-.01,0-.02-.01c-.01,0-.03-.02-.04-.03-.01,0-.03-.02-.04-.03,0,0-.01,0-.02-.01,0,0-.02-.01-.03-.02h0l-.02-.05s-.02-.03-.03-.05c0-.01-.02-.03-.03-.04,0-.01-.02-.03-.03-.04-.03-.04-.06-.07-.09-.11,0,0-.02-.02-.03-.03-.01-.01-.02-.02-.03-.03-.11-.11-.18-.18-.22-.36,0-.03-.02-.07-.03-.1-.02-.06-.05-.12-.08-.17-.03-.05-.06-.1-.1-.14-.02-.02-.03-.04-.05-.06-.04-.04-.08-.07-.11-.1-.05-.04-.1-.07-.15-.11-.02-.01-.04-.03-.05-.04h0s-.03-.02-.05-.03c-.09-.07-.14-.12-.17-.23,0-.02-.01-.05-.02-.07,0-.02-.01-.04-.02-.06,0,0,0-.01,0-.02-.03-.06-.06-.12-.09-.17-.02-.04-.05-.07-.08-.11-.01-.01-.03-.03-.04-.04-.04-.04-.08-.07-.12-.1-.01,0-.03-.02-.04-.03-.09-.06-.19-.11-.29-.15-.04-.01-.08-.03-.12-.04-.03,0-.06-.02-.09-.02-.02,0-.03,0-.05,0-.02,0-.05,0-.07,0-.04,0-.07,0-.11-.01l-2.93-.33h0c-.09,0-.17.01-.24.06-.01,0-.03.02-.04.03-.01.01-.03.02-.04.04-.02.03-.05.06-.06.09l-.31.65-5.35-.62-6.08-3.04h0v-.57h0s0-.02,0-.02c0-.19-.13-.35-.32-.38l-4.87-.85c-.01-.12-.04-.3-.08-.57-.11-.71-1.25-1.77-1.28-1.68-.03.09-.29,0-.29,0,0,0,.41-.67-.2-.75-.61-.08-1.12-.36-1.13-.5,0-.14.2-.72-.96-.87s-1.37-.6-1.3-.78.56-1.08.12-1.22.34-.32-.12-.71-.36-.81-.56-.99c-.2-.18-.07-.74-.37-1.01s-.28-.97-.17-.98.27-.29.31-.29c.04,0,.07-.43.07-.43,0,0-.11,0-.12-.13,0-.12-.03-.15-.03-.15,0,0-.32,0-.35,0s-.16,0-.16-.21c0-.2-.02-.13-.02-.13,0,0-.07.05-.08-.08,0-.13,0-.15-.07-.15-.06,0-.09-.15-.02-.18.06-.03.08-.1.08-.25,0-.15-.02-.09-.04-.22-.01-.13-.07-.21-.07-.21,0,0,.08-.12.07-.28-.01-.16.1-.12.13-.11s.01.19.02.37c0,.17.09.06.13.14.04.07.05.16.11.18s.12.09.15.18c.03.09.2.16.24.04.04-.12-.07-.18-.09-.21-.02-.03-.01-.14-.04-.4s-.11-.24-.11-.24c0,0-.08-.28-.1-.37s.27-.09.46-.1c.19,0,.26-.05.42.08s.24.09.4.1c.16,0,.25-.14.25-.25,0-.12-.36,0-.47.01-.12,0-.27,0-.32-.2s-.17-.06-.24-.06-.3-.11-.36-.15-.36-.09-.38-.01c-.02.08.04.46-.21.46-.25,0-.23-.35-.23-.35,0,0-.23.04-.2-.19.03-.23.05-.54.05-.54-.52-.54-.84-1.6-.77-1.75s.04-.41.04-.41c0,0-.11-.23.15-.77.26-.54.16-.61.16-.61-.87-1.25-.59-1.86-.59-1.86.95-1.1,1.04-1.74,1.18-1.95.14-.21.05-.29-.09-.68-.14-.38.08-.48.14-.62.06-.14-.09-.1-.14-.24s-.02-.44,0-.48c0-.04.11-.14.22-.44s-.09-.93-.09-.93c.73-.61,1.67-2.94,1.85-3.24.19-.3.94-2.86,1.01-3.27s.09-.48.82-.17c.73.31.39.04.23-.3-.16-.34-.81-.25-.82-.37,0-.12.24,0,.24,0,0,0,.06-.22.06-.45,0-.22.21-.37.21-.37,0,0-.37-.15-.31-.29s.52-.18.52-.18c0,0-.62-.45-.51-.99.11-.54.08-.92.08-.92-.6-1.33.1-.69.1-.69,0,0,.46.12.66.45s.48.22.91.34.46.27.8.29c.34.02.19-.01.18.27-.02.29-.5.14-.75.28s.23-.01.6.03c.37.04-.18.39-.31.5-.12.11-.6.09-.65.41-.04.31.43.12.61.11.18,0,.4-.06.6-.27.2-.21,0-.44.16-.78s.49-.58.35-.86-.22-.49-.09-.88c.13-.36.38-.18.18-.51-.15-.05-.22-.08-.22-.09,0-.06-.25-.65-.4-1.03,0,0,0-.01,0-.02,1.87.46,7.23,1.74,13.87,2.92,4.85.86,9.43,1.5,13.6,1.91,3.54.34,6.81.52,9.75.52,1.4,0,2.72-.04,3.97-.12.06,0,.11-.02.16-.05.08-.04.14-.1.18-.18.07.31.16.69.6.88.22.1.37.09.5.06.02.01.05.04.1.07.09.07.15.13.2.18.27.25.41.28.76.17.02,0,.05-.01.07-.02.06-.02.12-.04.17-.05.23-.08.33-.11.73-.03.23.05.28.09.28.09,0,0,.02.03.03.05.03.05.08.13.15.21.17.19.37.25.57.18.07.03.19.11.3.2.34.25.73.53,1.11.35.16-.08.63-.13.97-.12.11,0,.21,0,.31,0,.21,0,.39,0,.56.04.07.02.14.03.21.04,0,0-.01.01-.02.02-.09.06-.21.11-.35.12-.31,0-1.03.59-1.3.94s-.82.77-.97,1.04c-.15.27-.38.54-.65.65-.26.11-.3.21-.21.34.09.13,1.08-.31,1.44-.48.36-.17.71-.34.73-.16.01.18,0,.39,0,.48s.67.54.91.2c.24-.34.56-.68,1.09-.79.52-.11.75-.52,1.02-.78.27-.27.45-.05.53-.01.08.03-.14.93.14.72s1.01-.5,1.2-.24c.19.26.49.5.65.62s.78.15.97.15c.19,0,.29-.4.52-.6s.81-.61.99-.74.32-.29.51-.29.23.03.24.32.13.15.23.29c.1.14.23.04.45-.06.22-.1.37-.02.65-.03.28,0,.04,0,.04.38,0,.37.07.11.32.2s.22,0,.24.45-.26.03-.57.06-.22,0-.44-.04c-.22-.05-.12.04-.12.33s-.27.06-.41-.06c-.14-.12-.33-.05-.5-.17-.16-.12-.17.01-.4.02-.23,0-.02.04-.28.11-.26.08-.36.48-.51.48-.15,0-.16.31-.24.41-.08.1-.15.18-.24.39-.08.21-.15.22-.22.22-.07,0-.04-.28-.12-.34s-.12.01-.15.17c-.02.15-.13.03-.31.05s-.19.08-.29.43c-.1.35-.2.04-.23.54s-.2.07-.19.51-.1.16-.27.28-.08.28-.21.34c-.13.06-.2.02-.15.43.05.4.2.19.42-.18.22-.38.55-.32.57-.2.01.12.03.26.03.42s-.17.32-.02.62c.15.3-.28.51-.32.79s-.02,1.1-.11,1.34.02,1.03.2,1.13c.18.1.06.6.07,1.02,0,.42.27.66.35.95s-.17,1.82,1.25.77.92-2.6.97-2.84c.04-.25-.52-.87-.63-1.03-.11-.17-.1-.08-.05-.52s-.05-.18-.11-.53c-.06-.35-.12-.07-.16-.31s0-.28.26-.51-.06-.71.04-.72c.1,0,.13-.43.17-.66s0-.25.2-.29c.19-.03.13-.12.3-.35s.17-.33.27-.3c.11.04.02.27,0,.55-.02.27.14.28.25.28.12,0,0-.27.09-.54s0-.15,0-.48.07-.19.37-.48-.14-.28-.11-.43.33-.51.57-.55c.24-.04.51.07.62.16.11.09.58.16.74.26.16.11.32.1.65.18s.28.21.28.47-.08.07-.09.27c0,.21.27.29.36.46.09.17-.02.37,0,.67s0,.14,0,.37c0,.22-.24.29-.18.52s-.09.21-.21.28c-.12.08-.2.08-.27.16s.04.71.21.75c.16.04-.02-.18.21-.14.23.04.24-.19.34-.26.1-.06.16-.12.21-.42s.22-.19.35-.33c.14-.13.4-.07.56,0,.16.07.17.42.19.59s.14.16.26.47.15.7.17.74c.02.04.19.37.21.56s-.04.73-.11.65c-.07-.08-.18,0-.31-.02-.12-.02-.1.04-.12.19s-.07.13-.06.42c0,.29-.29.35-.4.42-.11.07-.04.29-.02.62.02.33-.01.03-.12.31-.1.27-.19.23-.16.4.03.18.3.14.48.16s.3-.01.4.21c.1.22-.04.02-.02.18s.09-.17.38-.07c.29.1,1.16-.07,1.79-.49s1.75-1.49,2.09-1.72.56-.67,1.03-.86c.47-.19.92-1.27,1.02-1.32.1-.06-.09-.18-.22-.23-.12-.06-.2-.09-.27-.25s-.02-.47-.02-.47c.58-.62,2.57-.42,2.93-.56s.42-.6.66-.59.15-.11.29-.24c.14-.14.34.1.33-.18s-.05-.24-.13-.62c-.08-.37,0-.17.12-.21s.26-.25-.06-.57.84-2.28,1.69-2.53,2.16-.74,3.21-.93c1.05-.19.88-.65,1.79-1.16.91-.51.61-1.05.84-1.11.22-.05.06-.24.17-.61.12-.36-.1-.5-.14-.82s-.01-.29.06-.49,0-.32-.03-.73c-.02-.41.14-.47.18-.47s.33-.49.37-1.13.33-.53.33-.53c1.24,1.06.79-.86,1.75-.14s1.36,2.95,1.41,3.09c.05.14.23.26.48.29.24.03.18.2.23.42.05.21.12.22.14.27s.35.09.54.08c.19,0,0,.28.42.54s-.06.34-.25.41h0Z"/>
        <path class="cls-1" d="M107.82,143.88c-.06.33.14.34.15.5s-.05.28-.14.38c-.09.1-.35.19-.37.31s.35.17.51.07c.16-.1.19.06.19.21s-.28.22-.36.26c-.08.04-.19.22-.14.38.05.16.14-.08.26-.13s.05.44.05.59c0,.15-.15.45-.25.57-.09.11-.08.52-.07.79-.45-.09-.99-.2-1.17-.2-.29,0-.52.26-1.06.89-.02.02-.04.05-.06.07-.08.09-.16.19-.24.28-.01.01-.02.02-.03.04-.02.02-.04.05-.06.07,0,0-.02.02-.03.03,0,0-.02.02-.03.03-.02.02-.03.03-.05.04-.12.02-.25.06-.39.12-.07.03-.13.06-.2.09-.06.03-.12.06-.18.09h-3.24c-.08,0-.16.02-.22.07-.02,0-.03.02-.05.04-.04.04-.08.09-.1.14l-.5,1.32-.42.12c-.14.04-.24.15-.27.3-.03.14.02.29.14.38l.96.78s.06.04.1.06c0,0,.03.01.07.04.02.01.05.03.08.05.06.04.14.09.22.15.02.01.04.03.06.05.04.03.09.07.13.11.07.06.13.13.2.21.03.03.05.07.07.1.04.06.08.12.11.17.01.03.02.05.03.08l-2.69.53h0c-.11.03-.21.1-.27.2-.18.33-.6,1.15-.62,1.57-.03.14-.23.57-.52,1.12,0,0,0,0,0,0-.4-.31-1.04-.81-1.34-1.05-.41-.33-2.01-1.03-2.44-1-.42.02-.39-.08-.21-.19s.08-.22-.1-.21c-.17,0-.25.25-.27.12s-.11-.17-.25-.17c-.14,0-.27.09-.14.14s.05.24-.16.24-.28.32-.43.41c-.15.09-.96.53-1.22.58-.26.05-.62.31-.82.4s-.86.15-1.12.09c-.26-.06-.9-.48-1.33-.47-.43,0-.56.22-.75.01-.19-.21-1.3-.51-1.61-.67-.3-.16-.24-.26-.52-.56-.27-.3-.55-.28-1.18-.27s-.73,0-.93-.12-1.69-.92-1.88-.94c-.19-.02-.65.06-1-.22s-1.29-.88-1.34-1.13-.43-.49-.67-.55-.29.17-.76.01-.83-.28-1.14-.35c-.31-.07-1.29-.49-1.56-.88-.26-.4-.19-.33-.41-.71-.22-.39-.95-.54-1.35-.84s-.34-.09-.68-.27-.81-.94-1.01-1.2c-.2-.26-.5-.2-.65-.44-.15-.24-.26-1.19-.22-1.38s.37-.13.66-.13.21-.17.2-.36-.05-.24-.22-.2-.28-.02-.28-.14.27-.26.34-.34.27-.16.25-.38-.06-.42-.05-.61.09-.15,0-.28c-.09-.13-.51-.68-.72-.92s-.16-.38-.17-.51-.04-.46-.03-.56c.01-.11.09.14.13.27.04.12.17.31.4.33.23.02,0-.13-.22-.27s-.13-.31-.16-.41c-.03-.11,0-.24,0-.42,0-.18.06-.32.05-.55,0-.22-.24-.07-.18.11.06.18-.01.64-.18.59-.16-.05-.14-.14-.28-.58s-.06-.22-.31-.42c-.25-.2-.21-.24-.23-.37-.02-.13-.51-.43-.53-.6-.02-.18-.19-.34-.33-.39s-.5-.74-.56-.98c-.06-.24-.17-.22-.39-.25-.21-.03-.04-.4-.18-.58s-.42-.29-.47-.49c-.04-.2-.1-.41-.21-.48s-.17.15-.17.3-.04.22-.2.02c-.16-.2-.12-.29-.18-.42s-.18-.15-.36-.36-.51-.58-.6-.95c-.09-.37-.18-.19-.19-.46,0-.26-.21-.21-.32-.22s-.37-.14-.37-.29-.09-.32-.22-.34.09.44-.2.23c-.29-.2-.82-.57-.96-.59s-.04-.19-.07-.3c-.02-.11.14-.18.03-.29-.11-.11.16-.29.26-.51.11-.22.18-.29.3-.13s.22.1.13-.21c-.09-.31-.22-.21-.27-.46-.06-.25-.32-.56-.54-.55s-.3.15-.41-.18c-.11-.33-.08-.15-.25-.45s-.2-.35-.26-.4c-.07-.05-.81-.47-.87-.74-.07-.26-.11-.56-.17-.73-.05-.16.03-.47-.24-.56s-.34-.17-.69-.22c-.34-.05-.35-.47-.55-.7-.21-.23-.67-.43-.71-.68s-.2-.3-.26-.53c-.07-.23-.51-.6-.51-.95,0-.35-.09-.36-.36-.37s-.02-.17.05-.45c.07-.29-.36-.59-.52-1.07s-.28-1.02-.37-1.27c-.09-.25-.3-.73-.3-.89,0-.17.14-.59.12-.95s-.72-.28-.9-.27-.27-.38-.27-.58c0-.2-.26-.28-.26-.28-.17,0-.1-.17-.24-.32-.14-.15-.31-.04-.43-.26-.11-.23-.27-.2-.36-.27-.1-.07.06-.1,0-.17-.05-.07-.09.1-.16.02s-.46-.45-.46-.45c0,0,.05.23.1.33.06.09.11.16.17.24.06.08.12.21.1.3-.02.1-.2.18-.25.37-.05.19-.09.86-.04.97s.14.67.13.91-.03,1.06-.04,1.34.07.23.1.34c.03.11.19.12.23.4s.24.28.39.32.63.78.74.87c.12.09.1.5.21.59.11.09.2.12.16.29-.04.17-.2.17-.14.3.07.12.2.05.28.11.08.07-.03.2.05.24.08.04.14,0,.19.25s0,.24.21.57c.22.33.24.62.33.77s.1.87.1,1.05c0,.19.51.59.64.76s.13.68.28.86c.15.18.09.18.14.34.05.16.19.49.17.77-.02.28.14.28.32.42.18.14.2,0,.14-.11-.06-.12-.18-.11-.21-.21s.02-.15-.02-.28c-.04-.13-.03-.19.06-.19.09,0,.61.98.67,1.15.06.17.13.82.06.98s.06.35.07.65c.01.29.15.48.26.61.1.13.11.25.13.37.02.12.08.45.09.64,0,.18.08.49.21.65.13.16.16.21.15.41s-.12.38-.17.54.11.36.12.54c.01.18.41.49.41.61,0,.13.15.22.25.15.1-.07,0-.13,0-.26s.04-.19.14-.25.18.13.21.34c.03.22.3.29.45.52s.29.46.33.64c.05.18.28.48.35.59.06.11.06.43,0,.57s-.24.43-.38.48-.24.2-.44.29c-.21.09-.16.14-.32.14-.16,0-.15-.08-.17-.17-.02-.09-.09-.17-.08-.32.01-.15.01-.35.01-.49s.05-.12.01-.25c-.03-.13-.12-.14-.11-.26s-.11-.34-.21-.47-.17-.08-.38-.17c-.2-.1-.37-.47-.36-.56,0-.1-.27-.23-.34-.38-.07-.15-.52-.53-.52-.53-.1-.09-.4-.25-.48-.35s-.17-.09-.2-.2-.08-.21-.18-.23c-.1-.03-.16-.13-.16-.21s-.13-.06-.18-.15c-.05-.09-.11-.25-.25-.26s-.15-.19-.16-.32-.04-.77-.03-.85c0-.08.12-.48.18-.51s.13-.84.14-.99-.05-.21-.09-.31-.11-.22-.11-.3-.18-.33-.18-.43-.14-.29-.22-.34-.29-.04-.39-.06-.09-.16-.12-.27-.3-.34-.38-.44,0-.22-.04-.23c-.05-.02-.23-.09-.21-.24s.1-.21.1-.32c0-.12-.06-.28-.1-.12-.04.15-.08.25-.25.25-.17,0-.13-.11-.18-.21s-.1.04-.27.1-.15.11-.32.02c-.17-.09-.21-.25-.23-.34s0-.25-.12-.22-.43-.18-.44-.29c0-.11-.07-.11-.16-.11-.09,0-.23-.16-.42-.21-.19-.05-.1-.33-.1-.46,0-.13-.22-.43-.38-.48-.16-.05-.07-.29-.06-.35s-.08-.07-.24-.08c-.17,0-.22-.27-.3-.33-.08-.06-.16-.15-.16-.2,0-.05.16.02.23.03s.17.03.27.06.22.09.31.12c.08.03.1.1.18.13s.14.13.27.13c.12,0,.11-.1.18-.16.07-.06.16.01.16.1s.1.13.17.15.12.18.14.22c.02.04.18.03.26.02.08-.02.13-.11.08-.15-.05-.04-.18-.06-.25-.07-.07,0-.1-.2-.1-.3s0-.14-.08-.11-.24-.06-.24-.14c0-.08.09-.03.18-.01s.06-.05.13-.06c.07,0,.09-.07.15-.11s.1-.16.13-.22c.03-.06-.02-.09-.09-.14s.04-.15.07-.2.08-.15.13-.23c.05-.08.08-.13.04-.21s-.05-.19-.04-.25c0-.06-.1-.17-.16-.19s-.12-.1-.13-.21-.19-.21-.21-.33c-.02-.12-.06-.15-.14-.16s-.14-.22-.14-.3-.17-.3-.23-.42-.13-.22-.17-.38-.04-.13-.2-.15c-.16-.02-.24-.05-.33-.14s-.3-.28-.39-.42c-.09-.14-.17-.31-.24-.36s-.17-.02-.18-.16.04-.45-.14-.46c-.18,0-.12-.02-.08-.18.04-.16.07-.24.08-.39,0-.15.05-.46-.11-.56-.15-.1-.22-.37-.21-.46s.08-.12.03-.2c-.04-.08.06-.11.09-.22.04-.11-.04-.16-.12-.32-.08-.15-.07-.17-.2-.24-.13-.07-.14-.23-.13-.4s-.1-.39-.11-.51c0-.11-.19-.4-.31-.5-.12-.09-.04-.18-.05-.31s.02-.12-.08-.21c-.1-.09-.11-.19-.13-.28-.01-.09.23.19.31.16s.06-.15.02-.31c-.04-.16-.1-.17-.19-.3s-.11-.22-.13-.4c-.02-.18-.14-.32-.22-.49s-.03-.6-.03-.6h0s0-.13,0-.13c0,0,0-.04-.01-.11l4.25.74h0v.48s0,.04,0,.05c0,.05.02.1.05.14.04.06.09.11.16.15l6.36,3.18s.08.03.13.04l5.69.66c.17.02.33-.07.4-.22l.31-.65,2.67.3s.02,0,.03,0c0,0,.26.01.39.16,0,.01.02.02.03.04.02.03.03.05.04.09.01.05.03.1.05.15s.04.09.06.12c0,.02.02.04.04.06.02.04.05.07.07.1h0c.12.15.25.24.35.31.12.08.16.12.18.16,0,.01.01.03.01.04.03.12.06.23.11.32.02.03.03.07.05.1.08.14.18.24.26.33.04.04.08.08.1.11,0,.01.01.02.02.03.01.02.02.05.04.07.1.17.26.27.41.35.15.09.24.15.28.23.01.03.02.06.03.09.04.28.15.5.26.68.04.06.07.11.11.16.04.06.07.11.1.15.02.03.04.06.05.09,0,.02.01.03.02.05,0,.01.01.03.02.05,0,.02,0,.03.01.05,0,.02,0,.03,0,.05,0,.05,0,.09.01.13,0,.02,0,.05,0,.07,0,.09.03.16.06.22.08.18.26.31.63.58.08.06.16.12.24.18.6.45,1.11.84,1.69.96.67.15.9-.02,1.36-.42.04-.03.08-.07.12-.11.21-.18.29-.38.32-.54.01-.05.02-.1.02-.14.08,0,.23.02.47.06.22.04.41.08.56.1.34.06.54.1.63.15.07.04.14.13.31.36h0c.2.29.36.45.49.58.15.15.24.25.36.48,0,0,0,0,0,0,.02.03.03.07.05.11,0,0,0,0,0,0,.07.16.13.3.19.42.15.31.27.53.45.84.03.06.07.13.12.21l.06.1h0c.18.32.4.57.57.77.07.08.17.19.23.28.04.05.06.1.07.13,0,0,0,0,0,0,0,.03,0,.05,0,.08,0,.02,0,.05.01.07,0,.05.02.1.03.14,0,.01,0,.03.01.04,0,0,0,0,0,0,.01.03.02.07.03.1,0,.02.01.03.02.05,0,0,0,0,0,0,0,.03.02.06.03.08,0,0,0,0,0,0,0,.03.02.06.02.09.02.07.03.15.03.26,0,.05,0,.11.01.16,0,.02,0,.05.01.07.02.12.07.22.12.33.06.12.14.23.23.33,0,0,0,0,0,0,.03.03.05.07.08.1.1.13.2.25.28.38.03.05.05.09.07.14.06.14.15.32.26.5.03.05.06.09.09.14,0,0,0,0,0,0,.36.53.93,1.12,1.7,1.38.55.19,1.66.27,2.55.31.04.06.06.11.06.16,0,.14-.27.54-.5.64s-.57.14-.57.14c0,.15,0,.18,0,.29s-.03.51-.02.7c0,.19-.15.24-.26.24-.12,0,.09.21.17.34s.03.44,0,.63c-.04.19.05.29.05.54,0,.25-.17.06-.19.25-.02.19.21.35.22.76s.01.74.02,1.05c0,.31-.11.76-.11.92s.11.8.12.97.11.3.22.59c.11.28.09.22.23.36s.48.44.54.74c.06.3.03.52-.08.56-.11.04-.14-.54-.14-.69,0-.15-.52-.66-.54-.53s.62,1.43.81,1.87.75,1.25,1.2,1.58c.45.32,1.04,1.63,1.09,1.88.05.25.08.43.26.58.19.15.62.61.64.82.02.21.3.32.54.46.24.13,1.09-.11,1.29.06s.24.23.47.28.54.79.79.9c.25.11.67-.14.93-.22s.39-.21.77-.39c.39-.18.88-.25,1.04-.21.16.04.2.03.29,0,.09-.04.34-.21.51-.42s.42-.25.71-.31c.29-.06.7-.26.81-.26s.26.21.13.21-.24-.02-.35.13.09.13.28.14.28,0,.44.06c.16.05.1.13.25.09.15-.04.2-.09.3-.1.1-.01.19-.18.34-.24.15-.07.28-.19.34-.22s.1-.18.07-.22c-.03-.04.1-.16-.05-.15-.15,0-.28-.11-.29-.18,0-.07.9-.99,1.06-1.08s.2-.44.21-.75.19-.8.3-1.05c.11-.25.14-.33,0-.65-.15-.32-.08-1.03.05-1.55.13-.51.24-.45.53-.69.3-.24.47-.37.82-.42.35-.05,1.63-.51,1.95-.72.33-.21.34-.27.72-.32.38-.05,1.1,0,1.64,0,.54,0,.78,0,.98-.2.2-.2.21-.11.45.08s.21.31.27.57c.06.26-.08.82-.19,1.15-.11.33-.89,1.35-.95,1.68h0Z"/>
        <path class="cls-1" d="M107.54,148.58s0,0,0,0c-.02.02-.03.04-.05.04-.03,0-.06,0-.07-.02-.04.2-.07.39-.07.52.02.41.03.79.02,1.38s.17,1.14-.22,1.77c-.38.63-1.18,1.56-1.03,1.93.15.37.14.19.57-.04.19-.1.21-.09.25-.06-.08.09-.14.16-.17.2-.07.07-.14.12-.22.18-.03.02-.06.04-.09.06h0s-.1.07-.15.1c-.05.04-.11.08-.17.13-.05.03-.09.07-.14.12-.02.01-.03.03-.05.04-.05.04-.11.09-.16.15-.02.02-.04.04-.06.06h0s-.06.06-.09.09c-.12.12-.22.22-.31.32-.04.05-.09.1-.12.14-.04.05-.07.1-.11.14s-.06.1-.09.15c-.04.08-.08.15-.12.24-.01.03-.02.06-.04.09-.01.03-.02.06-.04.09-.1.27-.1.48-.1.64,0,.15,0,.21-.05.29-.03.05-.06.08-.11.12-.03.03-.03.03,0,0-.02.01-.04.03-.07.05-.01,0-.03.02-.04.03h0c-.13.08-.3.18-.46.38-.11.14-.53.62-.96,1.12-.54-.03-.97.05-1.69,0s-.96-.19-1.41-.35c-.45-.16-.99-.31-.99-.31-.1.04-.3-.18-.45-.39-.09-.12-.24-.34-.4-.54-.1-.13-.1-.13,0,0,.7-1.35.7-1.52.7-1.64,0-.13.2-.61.44-1.07l2.88-.56c.16-.03.28-.16.31-.32,0-.03.02-.18-.03-.4,0,0,0-.02,0-.03,0-.04-.02-.08-.04-.12-.06-.19-.18-.42-.37-.66-.07-.09-.15-.17-.23-.25-.05-.05-.1-.09-.15-.13,0,0,0,0,0,0-.28-.23-.53-.37-.64-.42l-.36-.3h0s.02-.02.03-.03.02-.02.03-.03c.02-.02.04-.04.05-.06,0-.01.02-.03.03-.04,0,0,0-.01,0-.02,0,0,0-.01,0-.02l.48-1.25h3.07c.06,0,.12-.01.18-.04.23-.12.52-.24.61-.26.26,0,.46-.22.97-.82.16-.19.42-.49.55-.61.18.02.56.1.97.18h0Z"/>
        <path class="cls-1" d="M141.12,72.32c-.11-.03-.68.02-.79.02s-.13-.18-.3-.17-.75.13-.85.16-.36.59-.51.59c-.15,0-1.2.43-1.57.42s-.47.16-.67,0,.32-.5-.09-.41-.47.26-.7.27-.77-.51-.9-.61c-.14-.1-.38.48-.4.06s.16-.95-.61-.7c-.77.25.18-.79.18-.79,0,0-.07-.63-.06-.73s-.62-.12-.85.11-.04.56-.2.56c-.17,0-.42-.29-.6-.3-.18-.02-.54.19-.75.16s-.2-.49.05-.52.86-.14.98-.14c.12,0,.31-.43.44-.45.12-.03.15-.81.29-.98s.37-.58.22-.79c-.15-.21-.34-.37-.12-.43.22-.07-.54-1.04-2.37.27-1.84,1.31-3.31,3.34-3.89,5.43-.57,2.09-.92,2.53-1.29,2.23s.46-1.38.52-1.67c.05-.3.41-.91.31-.91-.1,0-1.64-.05-1.86.12-.22.17-.31-.38.3-.44.61-.06,1.4-.2,1.49-.2.1,0,.24-1.26.29-1.35.05-.1.32-.24.37-.46s.11-.38.13-.43c.02-.04.25-.6.29-.66s.91-.74.91-.83c0-.08-.06-1.16-.03-1.29.03-.12.25-.42.27-.53.03-.11.2-.25.26-.38s-.11-.18-.05-.27c.07-.09,2.63-1.74,3.2-1.91s1.75-.78,2.02-1.11.88-.04,1.02-.19,1.11-1.01,1.96-1.53c0,0-.05-.86.03-.91.08-.05.42-.43.45-.52.04-.09-.09-1.15-.05-1.39.04-.24.38-1.24,1.55-1.73,0,0,.26-.07.27-.77.01-.69.19-.19.35-.48.16-.29.47-1.19-.48-1.55-.95-.36.05-.41-.41-.95s-.65-1.49-2.38-.8c0,0,.17.86-.05.91-.23.05-.49.03-.51-.16-.01-.19.16-.74.03-.93-.13-.19-.69-.3-.98-.01s-.29.66-.49.87c-.19.21-.23.28-.31.53-.08.25-.07.49-.2.55-.13.06-.59.56-.6.92s-.14.45-.46.26c-.32-.2-.51-.08-.64-.11s-.31-.44.06-.44c.38,0,.73.11.73.01,0-.1.03-.78.17-.89s.5-.64.65-.79c.15-.15.38-.39.29-.43-.09-.04.71-.84.85-1.28.14-.43.43-.62,0-.57s-.32.24-.66.18c-.34-.06-.26-.29-.49-.16s-.23.49-.31.57c-.08.08-.16.51-.61.18-.45-.33-1.64.13-2.31.71s-.25-.52-.29-.63c-.04-.11-.84-.24-1.12-.24-.28,0-.52-.56-.72-.6s-.27.22-.44.22c-.17,0-.07-.29-.22-.33-.15-.04-.48,0-.28-.3.2-.3-.28-.3-.48-.35s.37-.51.39-.71c.03-.2.34-.83-.56-.5-.9.33-.3,0-.56-.24s-.29.44-.45.36c-.16-.08-.26-.39-.04-.49.22-.1.25-.68-.02-.65-.27.03-.44.36-.55-.17-.12-.53-.27.01-.42.21-.15.2-.53.5-.38.03.15-.47.36-.34.31-.46-.05-.13-.33-.46-.48-.41-.14.05-.37.51-.48.61-.11.1-.34.15-.17-.31.17-.47.45-.39.38-.5-.07-.11-.63-.95-.97-.57s-.46.63-.43.19c.03-.43.36-.41.28-.48-.09-.07-.68,0-.75-.08-.07-.07-.17-.31-.49-.33-.32-.02-.28-.1-.28-.33,0-.23-.05-.38-.21-.31-.16.07-.02.34-.17.34s-.29-.58-.36-.66-.54.08-.54.21c0,.13.08,1.39.07,1.5,0,.11.52.21.52.21,0,0,.02.3-.08.5-.09.2.08.55.17.37.09-.18.22.25.11.37s-.32-.03-.3.22c.02.25.31.35.17.48s-.52-.03-.55.45-.28.66-.42.7c-.14.04,0,.76-.11.8-.11.04-.55-.6-.85-.54s-.14.41-.15.68-.1.68-.25-.07c-.14-.76-.07-1.37-1.32-.71,0,0-.31.55-.37.9-.06.34-.38-.03-.37-.39s.33-.39.34-.68c0-.29-.01-.81-.33-.58-.32.22-.56-.2-.58-.99s-.86-.01-1.04.05-1.04.34-.29-.22,1.13-.25.93-.61-.62-.8-.56-1.21c.06-.41-.02-.9-.43-.22s-.28.14-.51-.13-.47.33-.94.32c-.47,0-.84-.18-.9-.68s-.34-.43-.6-.32c-.26.11-.65-.27-.86-.3s-1-.46-1.28-.52c-.28-.05-1,1.12-1.17,1.09-.16-.03-.44-.22-.87-.06-.43.16-1.83.02-2.06,0-.23-.03-.76.67-.56,1.1s.45,1.07,1.06,1.18c0,0,.16.5.11.71-.05.21-.15.57-.09.87.07.31.56.36.67.39.12.03,0,.83.5,1.03.49.2.23,1.34.16,1.61s-.28.64-.28.88c0,.24-.38,1.02.65,1.4s2.52,1.22,3.17,3.93c.65,2.72-2.29,4.83-2.39,4.85-.1.02.33,1.06.72,1.21.39.16.68.81.67,1.24,0,.43.5.94.6,1.11.1.18,1.17,1.45.91,1.94-.26.5-.39.85.18,1.28s.06.78-.13.6-.76-.64-.96-.19c-.21.45-.21.82-.07.9.15.08.68.56.29.53s-1.38-.42-1.53-.47-.39-.61-.43-.83-.37-.81-2.07-.78c0,0,.35-.36.32-.47s-.94-.83-1.19-1.29-.18-1.79-.82-2.59.25-1.59-.06-1.91-2.52-.11-3.72.34c0,0-.28.26-.32-.06-.03-.32.08-.41-.62-.59s-2.15-.41-2.68-.77-1.35-1.43-1.59-1.43-.56.07-.65.07c-.09,0-1.81-.46-2.51-.71-.7-.25-1.5.75-1.61.76s-.56,0-.06-.56-1.27-1.68-1.3-3.24c0,0-.3-.17-1.06.03-.76.19-.88-1.29-.89-1.65s-.06-2.18-.2-2.28c-.14-.1.33-.21.5-.43.16-.22-.05-.88.41-1.52.45-.64.51-.91.51-1.04,0-.12.24-1.17,1.04-1.8s.13-.57.01-.77,1.06,0,1.27-.65c.21-.65-.05-1.09-1.02-1.29s-2.6-.48-2.8-.51-1.01-.39-1.21-.41-.52-.38.28-.32c.81.06,1.23.51,1.35.51s.58-.13.83-.1c.25.03.68.38.94.36.25-.02,1.01.18,1.29.18.28,0,1.08-.05,1.09-.26s.01-.61.27-.69,1.09-.15,1.33-.31c.24-.16.16-.65.38-1.16s.62-1.32.4-1.58-1.66-.07-1.86-.03c-.21.04-.45-.33-.64-.52s-.73-.15-.96-.22-.31-.56-.06-.56,1.47.21,1.65.42.82.53.96.53c.14,0,.72-.34,1.1-.89s.31-.74.27-.95c-.04-.21-.73-.36-.73-.64s.49-.3.74-.29c.25,0,.41.45.52.45.11,0,1.22.11,1.25-.28.03-.4-.17-.68-.61-.82s-.5-.43-.25-.42,1.03.5,1.02.69c0,.19.26.7.46-.09,0,0,.53.12.72-.41.19-.53-.1-.96.13-1.05.23-.09.41-.95.23-1.21-.18-.26-.87-.32-1.05-.62-.18-.31-.65-.94-.69-1.13s.81.16.87-.35-.08-.7-.63-.9c-.55-.2.42-.13.33-.65-.08-.51-.23.23-.92-.43s-.78-.34-1.24-.3c-.46.04-1.24-.63-1.39.12s.72.99.71,1.46c0,.47.08.47-.25.84-.33.37-.07,1.07-.07,1.35,0,.28-.07,1.54-.07,1.54,0,0-.22.28-.21.65,0,.37-.59.36-.59.36,0,0-.22-.61-.99-1.51s.21-1.16.21-1.35c0-.19-.22-.7-.35-1.08-.13-.38-.51.04-1.04-1-.54-1.03-.29,2.7-.29,2.7,0,0-.54.13-1.01-2.07-.05-.25-.1-.44-.13-.6,0,0,0,0,0,0,.04-.07.01-.15-.06-.22-.12-.45-.12-.27-.08-.05-.2-.11-.57-.14-.91.08-.56.36-.32-.43-.31-.93,0-.5.6-.6.6-.6,0,0-.77-.89-1.12-1.36-.35-.47-.08-1.19-.21-1.26-.13-.07-.38-.67-.74-.71-.36-.04-.58-.51-.78-.38-.2.13-.11.46-.34.56-.23.1-.2.33-.08.69s-.65-.21-.66.32.43,1.46.43,1.46c0,0-.36.26-.37.76,0,.5.41,1.13.93,1.24.52.11.88.41,1.11.41.23,0,.82.08.22.37-.59.29-.24.56-.31.76s-.25,1.19.23.07c.48-1.12.34.97.11,1.16-.23.2-.64,1.12-.9,1.15-.26.03-.34.59-.09,1.16s.11,1.09-.05,1.06-.89-1.3-.89-1.7c0-.4.38-1.05.25-1.06s-.38.32-.5.35-.33-.43-.54-.58-.66-.24-.75-.09c-.08.15-.49-.17-.49.08,0,.25.12.32.27.65s.11.51.37.52.51-.14.59.08c.08.22.14.54-.03.59-.16.05-.6-.44-.74-.47-.15-.03-.19-.32-.29-.1s-.02.34-.2.38c-.18.03-.93-.18-2.1-.15s-1.72-.34-1.8-.69c-.08-.35-.29-.07-.45-.06s-.55-.12-.61-.34c-.06-.22-.56-.42-.65-.75s-.06-1.17-.4-1.18c-.34,0-.68.48-.97.5s-1.4,0-1.41.41c0,.41.36.86.64.83s.38-.54.52-.54c.13,0,.31-.06.54-.06.23,0,.37-.39.61-.37.24.02.32.23.21.35-.12.11-.92.63-1.06.74-.13.11-.55.06-.7.17-.15.11-.24.52-.16.67s.14.25.14.4.07.5.1.63c.03.13.04.46-.04.59-.08.13-.45-.22-.49,0s.28,1.01.34,1.09c.06.08.15.39.01.45-.14.05-.94-1.4-.96-1.68-.02-.27.18-.12.36-.16.18-.04.15-.74-.05-.78s-.47-.21-.48-.43-.16-.43-.4-.46-.08-.65-.32-.66-.63.35-.91.45-1.58-.08-1.74-.12-.1-.26-.32-.27c-.22,0-.48.09-.69,0-.22-.1-.7-.29-.77-.47-.06-.18.16-.81.44-.8s.94.33.95-.19c0-.52.11-.62-1.29-1.74,0,0-.39.45-.52.41-.13-.03-1.36-1.03-1.61-1.55s-.73-.56-.92-.57c-.19,0-1.34-2.62-2.49-1.11,0,0-.78.42-.78-.1,0-.51.55-.58.56-.87,0-.29.41-.69.12-.73-.29-.04-.44.29-.73.43-.29.14-.62.39-.7.57s-.55.28-.64-.45c-.1-.73.22-2.51-.06-2.48s-.23.62-.74.87c-.51.25-.44.39-.8.21s-1.55.09-1.85.3-.61-.41-1.08-.16c-.47.25-1.32.97-1.42.75-.11-.22.27-.73.55-.76s1.63-.34,1.81-.23c.18.11,1.81-.12,1.81-.3s.05-.66-.24-.52c-.29.14-.61-.27-.94-.2-.33.07-.26.36-.51.36s-1.01-.16-1.3-.02c-.29.14-1.45.6-1.01-.01.44-.61-.02-.95-.28-.63-.26.33-1.3.16-1.45.42-.15.25-.09.95-.13,1.09s-.18-.26-.28-.52-.86-.2-1.22-2.43c0,0,0-.02-.03-.05l-12.07,18.4s-.05.15-.04.27h0s0,0,0,0c0,0,0,.01,0,.02,0,.01,0,.03,0,.05,0,.01,0,.03.01.04,0,.01.01.03.02.05,0,0,0,.02.02.02.04.06.11.11.21.16.19.09.34.15.47.21.26.11.47.2.61.36.02.02.04.05.05.08.02.04.04.08.06.12,0,.02.01.04.02.06,0,.03.01.06.02.09,0,.03,0,.06.01.09.01.16,0,.31,0,.46,0,.13-.01.27,0,.4,0,.04,0,.09.01.13,0,.03,0,.06.01.09,0,.02,0,.03,0,.05.02.09.04.18.06.28.01.05.03.11.04.16.01.05.03.11.04.16.03.11.07.23.11.35.02.05.04.1.05.16.02.05.04.11.06.16.04.11.09.22.14.33,0,0,0,.01.01.02,0,0,0,0,0,0,.12,0,.39-.13.55-.21.44-.2.98-.45,1.36-.07.02.02.03.04.05.06,0,.01.01.02.02.03,0,.02.02.03.02.05,0,.02,0,.03.01.05,0,.03,0,.06,0,.09,0,.02,0,.04,0,.05-.03.22-.09.62-.13,1.04,0,0,0,0,0,0-.06.54-.1,1.1-.07,1.37,0,.03,0,.05,0,.08,0,.04.01.09.02.12,0,.02,0,.03.01.05.01.05.03.1.04.14.01.04.03.08.04.12,0,0,0,0,0,0s0,0,0,0c.02.06.04.12.06.18h0c.04.14.08.3.11.5,0,.05,0,.11.01.16,0,.06,0,.12,0,.19,0,.05,0,.1,0,.15,0,0,0,.02,0,.03,0,0,0,.02,0,.03,0,.04,0,.09,0,.13h0c0,.09.01.17.02.27,0,.06.01.12.02.19.03.29.07.6.11.89,0,.04,0,.08.01.11.02.14.04.28.05.41,0,0,0,0,0,0,0,.05.01.1.02.15,0,.04.01.09.01.12,0,.01,0,.03,0,.04,0,.06.01.12.01.17,0,.06,0,.11,0,.16v.24s0,.04,0,.06c0,.02,0,.05,0,.06,0,.02,0,.04,0,.05h0v.02s0,.02,0,.02c0,.07,0,.13,0,.24,0,.03,0,.05,0,.07,0,.01,0,.03,0,.04,0,0,0,.02,0,.03.03.08.08.23.12.34,0,.03.02.05.03.08.01.03.02.07.03.1,0,.04.01.08.02.11.03.27-.02.53-.06.76,0,.04-.02.08-.02.12,0,.04-.01.08-.02.12,0,.03,0,.06-.01.09,0,.08,0,.16,0,.23,0,0,0,0,0,0,0,.02,0,.05.01.07,0,.02,0,.03.01.05,0,.03.02.06.04.08,0,.01.01.03.02.04,0,0,0,0,0,0,.1.16.18.27.26.37.06.07.11.14.15.21.01.02.02.03.03.05.02.03.04.07.05.1.02.04.04.08.05.13.02.05.03.11.04.17,0,.05.01.1.02.16,0,.15,0,.32-.01.54-.08.98-.44,1.82-.91,2.12-.21.13-.67.36-1.02.52.01.05.03.09.06.11.07.06.12.16.23.13.11-.03.21-.04.28,0,.07.06.07.24-.02.24-.1,0-.38,0-.45-.1-.07-.09-.23-.07-.24-.18,0-.08-.07-.11-.12-.11-.02,0-.04,0-.06.01-.05.02-.07.02-.07.05,0,0,0,.02,0,.04,0,.07-.02.51-.02.51,0,0,.11,0,.11.03s-.03.66-.03.66c0,0,.3.08.31.3s-.62.71-.62.71c0,0-.1.21.15.22.25.01.22.09.22.15,0,.06.05.41.04.45s.04.12.09.11.26-.04.25-.11c-.02-.07.16-.09.25-.14.09-.05.81-.57.98-.55s.2-.14.31-.11c.11.03.03.31-.03.33-.06.01-.27.19-.38.21-.11.02-.2.09-.25.14-.05.06-.18.07-.16.16s.31.31.37.3c.06-.01.16.05.16.14,0,.09-.05.24-.15.27s-.1.15-.18.09c-.08-.06-.01-.3-.09-.32-.07-.02-.58-.12-.67-.08s-.21.11-.22.22c0,.11-.06.15-.14.15-.08,0-.26.08-.31.11-.05.02-.04.06-.07.14-.03.08-.02.17-.06.17-.04,0,0,.1-.05.1-.05,0-.09.01-.09.07s-.02.15.03.15.25.04.32-.06c.07-.1,0-.14.06-.14.07,0,.11-.04.22-.08.11-.03.18-.15.23-.02.05.13.07.13.1.17s.17.02.19.05c.02.03.04.17-.05.2s-.2.07-.25.13c-.06.06-.14.1-.24.11s-.16,0-.21.04c-.05.03-.34.08-.39.1-.05.02-.14.15-.15.24-.01.09-.03.2.01.26s.48.19.64.24c.16.05.44.15.4.23-.04.08-.04.25-.33.14-.29-.11-.36-.26-.46-.25-.1,0-.22,0-.17.16.05.16.28.32.41.33.13.01.79,0,.83.01.04,0,.13.12.17.16.03.04.14.36.18.45s.52.19.61-.04.16-.39.25-.4c.09,0,.18,0,.19.12.01.11.14.12.07.2-.07.08-.45.44-.54.45-.09.01-.32.06-.46.06s-.17.1-.15.22c.02.13.27.53.55.22.28-.3.29.17.36.31.08.13.46-.33.65-.38.19-.04.34.11.21.24s-.45.34-.44.47.25.19.43.05c.19-.14.35-.17.36-.04.01.13.09.25-.05.31s-.13.12-.34.11c-.21,0-.49-.06-.53,0-.05.05,0,.4.02.47,0,.02.03.11.08.21l-2.61-2.22s-.11.05-.29.1c-.18.05-.27.38-.28.54s.69.08,1.04.23-.1.47-.43.45c-.34-.02-.27.35-.28.57,0,.23.83.07,1.04.12s.14.3-.16.3c-.3,0-.22.56-.12.63s.48.1.49.31.19.35.42.37.56.5.19.48-.48.31-.42.47c.07.16.21.21.38.3s-.02.12-.02.32c0,.19.48.04.47.25s.19.49.19.54.53.04.67.22c.14.18-.45.43-.42.57.03.14.77.71,1.03,1.05.26.34.78.13.94.01.16-.12.24-.47.33-.5.09-.03.01-.75.02-.96,0-.07-.12-.2-.3-.35-.03,0-.04-.01-.04-.01-.13-.03-.23-.13-.27-.25,0,0,0,0,0,0-.03-.03-.07-.05-.1-.08-.03-.03-.06-.05-.1-.08,0,0,0,0,0,0-.05-.04-.09-.08-.13-.11-.12-.1-.21-.18-.22-.23-.05-.16-.11-.47-.04-.49.07-.02.29-.14.29-.28,0-.14-.43-.46-.43-.67,0-.21-.07-.93-.07-.93l-.11-.1c.26-.03.46-.19.53-.31.04-.07.09-.09.13-.08,0,0,0,0,.01,0,0,0,0,0,.01.01.03.02.05.07.05.14,0,.18.64.91.3.85-.04,0-.08-.02-.11-.03-.01,0-.03,0-.04-.02-.02,0-.03-.02-.05-.03-.05-.04-.07-.08-.1-.11,0,0,0,0-.01-.01,0,0,0,0-.01,0,0,0,0,0-.01,0-.02,0-.06,0-.1,0-.23.04-.1.31-.04.39.04.05.21.3.38.44.01,0,.02.02.03.03.01,0,.03.02.04.03.01,0,.03.02.04.02.06.03.12.03.16,0,.21-.13.37-.23.5-.19,0,0,.01,0,.02,0,.11.07-.04.47-.05.68,0,.17.03.46.06.73,0,0,0,0,0,0,1.44.36,7.07,1.74,14.17,3,4.83.86,9.38,1.5,13.54,1.9,5.03.49,9.49.63,13.25.42.03-.31.13-.52.31-.63.22-.13.44-.17.63-.11.03,0,.05.02.08.03,0,0,0,0,.01,0,.02,0,.04.02.05.03,0,0,.02,0,.03.02.02.01.04.03.06.04.01,0,.02.02.03.03,0,.01.02.02.03.03.02.03.04.06.06.09,0,0,0,0,0,0,.06.11.09.21.08.34,0,.02,0,.06.04.17.03.1.05.19.07.27.03.15.06.23.08.28,0,0,0,.02.01.03.02.03.04.04.07.06h0c.25-.07.46,0,.76.24.1.08.17.15.23.2h0s0,0,0,0c.02,0,.05-.02.08-.02.05-.02.1-.03.15-.05.33-.11.55-.17,1.12-.06.05,0,.1.02.14.03.03,0,.07.02.1.03.04,0,.07.02.1.03.05.02.1.04.14.06.02.01.05.02.07.04,0,0,0,0,.01,0,.02.01.05.03.07.05.02.02.04.04.06.06s.04.04.05.06c.03.04.06.08.09.13,0,0,0,0,0,0,0,0,0,0,0,0,.1,0,.23,0,.38.08.14.06.28.17.43.27.03.02.06.04.09.07,0,0,.24.17.29.18,0,0,.13-.05.23-.07.35-.08.79-.11,1.04-.1.08,0,.17,0,.26,0,.24,0,.51-.01.8.08.01,0,.03,0,.04,0h0c.13-.08.22-.16.23-.22,0-.16-.04-1,.22-1.02.26-.02.13.37.24.37.11,0,.29-.2.3-.9s.2-.33.22-.26-.05.56.17.59c.22.03.22-.31.16-.43-.07-.12-.25-.42-.17-.5s.47-.28,1.19.15,1.02-.15,1.28-.13c.26.02.44-.25.81.67.38.92.66.96.85.96.19,0,.69-.02.77-.11s.48-.18.49.02-.05.27,0,.48.02.44.15.44c.14,0,.19.07.29.25.11.18.09.44.09.58,0,.14.51.06.67.1.16.03.06-.18.25-.17.19,0,.25.2.1.28s-.27.17-.28.33-.09.44,0,.47c.08.03.42,0,.52,0,.1,0,.11-.22.33-.12s.13.26.29.35c.16.09,1.35.44,1.5.39.15-.05.94-.29,1.41-.28.47,0,1.22.1,1.37.1.15,0-.08-.32.29-.26.36.06.04.18.32.35.28.17,1.23.88,1.23.88,0,0-.09.37,0,.38.08.01.25.39.63.31.38-.08.31.25.31.25,0,0-.33.05-.46.12-.14.07-.23.26-.06.33.18.07.2.43,0,.44-.19,0-.54-.03-.79-.21,0-.09,0-.15-.03-.2-.14-.23-.2-.07-.38-.4-.18-.33-.53-.48-.81-.65-.27-.17-.5-.37-.67-.38s.21.36.21.36c0,0,0,.08.12.12.13.04.18.12.47.39s.29.27.36.69-.03.48-.33.82c-.26.3.06.33.37.31-.02.03-.03.05-.05.04-.13-.04-.34-.06-.34,0s.05.45.46.79c0,0,.15.13.33.29-.12.17-.23.31-.27.33-.11.07-.05.73-.1.87-.04.15-.69.93-.77,1.19s-.09.59-.01.68c.08.1.34.1.47,0,.14-.09.4-.2.53-.24s.35-.57.55-.69c.21-.12.6-.1.64-.28s.16-.24.44-.37.42-.2.63-.19.29-.47.42-.27.17-.03.26-.13,1.16.1,1.11-.27c-.05-.37.61-.47.08-.49-.44-.01-.44-.13-.73.02-.14.07.06.19-.06.24s.07.02-.44-.3-.21-.37-.14-.48c.07-.11.13-.21.17-.3.04-.1.11-.21.29-.2s.81-.43.98-.57c.18-.15.64-.21.75-.25.11-.04.37-.05.53.02.16.07.55-.02.86-.17.31-.15.25-.55.15-.8-.09-.26,1.14-1.48,1.37-1.71.23-.24.65-1.08.93-1.3.28-.22.55-.36.71-.41s.32.09.6-.08.94-.36,1.05-.36c.11,0,2.63-.99,2.78-1.12.14-.12.45-.78.68-.7.23.08.44-.76.34-1.07-.1-.31.18-.41.2-.48.02-.07.1-1.73.13-2.12.02-.39.28-1.8.28-2.05,0-.25.35.13.54.21.19.07,1.25-.76,1.51-.72.26.04,1.29,1.87,1.48,2.77,0,0,.38.09.53.1.15,0,.27.53.37.61.1.08.16.08.31.18s.4-.32.53-.32c.12,0,.16.15.25.25.1.1.58-.74.79-.77.21-.03.64-.64.76-.9.12-.26.77-1.54.89-1.55.12,0,.19-.18.21-.33s.16.2.14.26c-.02.06.01.32-.1.36-.11.04-.3.43-.35.52-.05.08-.06.3,0,.3.05,0,.32-.26.44-.26.12,0,.51-.16.65-.18.14-.03.49-.42.61-.46s.41-.08.45-.07c.04.01.34.05.2.23-.14.18-.2.21-.39.26-.19.05-.4.18-.45.36-.05.18.01.33-.11.41s-.37.24-.46.02c-.09-.22.08-.18-.09-.22-.17-.03-.15-.02-.17.05-.01.07-.68,1.05-.78,1.2s-.22.42-.29.43c-.08.02-.15.18-.07.26.08.08.22.25.09.31-.13.06-.32.12-.38.18-.05.06.21.43.14.74-.07.3-.12.32-.09.42s.21.7.31.84.48.59.53.38c.04-.21.14-.63.19-.59s.46.56.62.54c.15-.02.13-.46.36-.77.23-.31.31-.7.31-.8,0-.1.22-.68.24-.95.02-.27-.1-.89.02-.94.11-.05.36-.46.49-.49.13-.03.64-.31.69-.39s1.77-2.38,1.88-2.61c.11-.23.35-.47.54-.47s.29-.35.18-.39h0ZM112.69,88.94s0,0,0,0h0s0,0,0,0c0,0,0,0,0-.02,0,0,0,.01,0,.02h0Z"/>
        <path class="cls-1" d="M44.34,56.95c-.2-.33-.23-.64-.2-.93,0-.03,0-.05,0-.08,0-.03,0-.05,0-.08,0-.05.01-.1.02-.15,0-.05.02-.09.02-.13h0c.05-.25.09-.47.02-.65-.18-.49-.21-.56-.16-.74v-.02c0-.08,0-.13,0-.19,0-.04,0-.08,0-.13h0v-.04s0-.02,0-.04h0c0-.09,0-.19,0-.32,0-.14-.03-.42-.07-.74h0c0-.06-.01-.11-.02-.17,0-.05-.01-.11-.02-.16-.08-.62-.18-1.32-.18-1.79,0-.38-.07-.57-.14-.78-.07-.18-.14-.39-.18-.7-.03-.28,0-.78.05-1.26.01-.13.03-.26.04-.38,0-.04,0-.08.01-.12,0-.04,0-.08.01-.12,0-.07.02-.15.03-.21,0-.03,0-.07.01-.1-.11.04-.23.1-.32.14-.24.11-.49.22-.73.26-.38.06-.69-.09-.84-.42-.33-.7-.49-1.36-.59-1.86-.02-.09-.03-.18-.04-.27,0,0,0,0,0,0,0-.04,0-.09,0-.13,0-.15,0-.3,0-.43,0-.03,0-.06,0-.09,0-.02,0-.04,0-.05,0-.07,0-.14,0-.21h0c-.05-.05-.19-.1-.3-.15-.13-.06-.29-.12-.49-.22-.41-.19-.59-.48-.66-.68-.02-.07-.04-.13-.05-.2,0-.04-.01-.08-.01-.12,0-.03,0-.07,0-.1,0-.04,0-.07,0-.11h0s0-.07.01-.1c.01-.08.03-.16.05-.22,0,0,0,0,0,0,.01-.03.02-.06.03-.09,0,0,0-.01,0-.02,0,0,0-.02,0-.02,0,0,0,0,0,0,0,0,0-.01,0-.01,0-.02.02-.03.03-.05l12.18-18.57s0,0,0,0c-.12-.08-.27-.15-.44-.2.03-.13-.84-2.58-.91-2.67-.07-.09-.73-.38-.34-.57.38-.19.48-.62.23-.7s-1.3.12-1.57-.06-.44-.75-.44-.75c0,0-1.44-.18-1.1-.77.34-.59-.37-.53-.28-.68s.62-1.22-.27-1.42-1-.38-1.01-.45c0-.07-.55-.83-.32-.88s.28-.4.28-.4c0,0-1.29-.77-1.37-.82-.08-.05-.23-.26-.12-.48.11-.22.25.13.68-.38s-.11-.47-.22-.52c-.1-.05-.72-.03-.62-.12.1-.1.6-.31.6-.31,0,0-.29-.07-.12-.59s-.42-.21-.44-.21-.98-.24-1.2-.28-.72.25-.5-.29c.22-.54-.12-.56-.12-.56l-.8.13-.97-.44-2.09-.58-1.35.64s-1.17.12-1.18,0,.15-.55.04-.57c-.11-.02-.66.5-.56-.31.1-.82-.74-.45-.74-.45,0,0-.29.98-.57.82s-.57.32-.57.32c0,0,.28,2.06.24,2.29-.04.23-.48.51-.72.76-.24.26-.03,1.03.31.7.33-.33.36.51.67.88.32.37-.22,1.19-.47.41s-.73-.31-.94.18.05.58.29.83.18.28-.16.87c-.34.59-.32.33-.52.4s-.13-.07.05-.4.42-.68.41-.77c0-.1-.2.11-.28.15s-.3.08-.48.04c-.17-.04-.02-.06-.16-.17-.14-.11-.08-.22,0-.5.08-.28-.17-.51-.29-.63-.13-.12-.18-.39-.25-.55-.07-.16.08-.24.29-.36s.7-.54.7-.54c0,0-2.41-1.41-2.57-1.43s-1.4-.72-1.57-.74c-.17-.02-.36.13-.43.39-.06.26.63,2.17.54,2.02-.08-.15-.77-.59-.77-.59,0,0-.47.27-.64,1.42s.84,1.49.84,1.74.82.74.66.96-.02.47.13.56.65-.05,1.54-.12c.89-.08.62.22.61.41-.01.19-.22.27-.43.29-.21.02-.9-.21-.93.26s.14.21.04.54-.16.27-.43.29c-.27.02-.22.37-.07.57.15.21-.54.28-.69.36-.14.08-.52-.21-.74-.17-.22.04-.41-.27-.53-.34-.12-.07-.49-.67-.74-.74-.24-.07-.87-.05-1.02.18-.15.22-1.14,1.99-1.19,2.06s-.22-.13-.04-.46c.18-.33.16-.87.16-.87,0,0,.07-1.14-.1-1.35s-.36.08-.49.31c-.13.23-.18-.08-.29-.18s.12-.28.23-.47-.03-.15-.3-.23-.32.45-.4.6c-.09.15-.14-.02-.19-.12s.11-.56-.21-.6-.29.28-.48.25-.24-.15-.42-.2c-.18-.05-.67.13-.8.14-.13.02-.06.56,0,.78s.19,3.56-.73,2.41c-.92-1.15-1.12.2-.58.28.55.08.87,1.27.29,1.15-.58-.12-1.42,1.4.01,1.61,1.43.21.72.88.72.88,0,0-.47-.47-1.09.61-.62,1.08-1.52.65-1.6.88-.09.23.75.74,1.16.55.4-.19,1-.02,1.12.37.12.39.37,1.4.34,1.73s-.49,1.23-.27,1.33c.1.05.31-.16.5-.4-.04.15.03.31.38.44.96.35,2.34.2,2.34.2,0,0-.77.72-1.41.48-.64-.24-.76,1.03-1.21.57s-1.72.38-1.84.31c-.11-.07-1.83.44-2.01.33s-.45-.32-.78-.36-1.07.14-1.5-.12-.23-.52-.57-.71-.22.33-.5.34-.25-.24-.35-.39c-.1-.16-.96-.93-1.44-.08s0,.85.76.54.22.27,0,.43c-.22.16.15.27.59.57s.42.17.72.26c.31.09.84.1.77.49-.07.39-.13.68.11.53s.46-.65.53-.33,1.15.48,1.31.58.32.11.48.12c.16.01.02-.12-.05-.27-.07-.15-.12-.27-.12-.27,0,0,.24-.34.34-.29.1.05.31.35.47.14s.45-.02.41.21-.23.18-.19.32.25.16.31.06c.06-.1.08-.14.22-.23s.21.05.27.14c.06.09-.03.14,0,.24s.16.03.23-.02c.08-.06.24-.04.27-.02s.25-.08.35-.15c.11-.06.78-.01,1.03.02s.27.04.42.25.01.29.16.38c.15.1.14-.21.19-.28.05-.08.14-.23.16-.32.01-.09-.24-.16-.35-.27s.06-.17.19-.32c.12-.15.63.35.59.58-.04.23-.05.29-.02.31s.37-.11.46-.22.29-.12.4-.06-.1.43.02.51.27-.26.33-.38c.05-.12.37-.24.43-.23.07,0,.51.27.6.33s.14-.19.16-.16c.01.02.56.29.62.17s.12-.22.22-.19.13-.15.27-.06.21.06.27.08c.06.01.13-.16.13-.16l-.54-.38v-.18s.01-.49.11-.64c.1-.15.11-.41.22-.38s.4-.02.57-.26c.18-.23.28-.12.5,0,.22.12.15.13.16.27.02.14.73.39.73.39,0,0,.13.08.54-.34.42-.42,1.22-.45,1.22-.45,0,0,.34-.4.52-.39.18.02.24.29.44.34.2.05.39-.19.69-.12.3.07.48,0,.7-.04s.38-.02.49.05c.1.06-.13.07-.21.28-.08.21.28.24.48.09.2-.15.4-.03.57.14.17.17,0,.29-.16.24-.16-.05-.72.1-.86.04s-.18.11-.18.11c.63.37.46.64.59.88.13.24,0,.55-.08.76-.08.2-.16.06-.23.03-.07-.04-.15-.28-.12-.48.03-.2-.02-.45-.12-.6s-.27-.16-.31-.3c-.04-.14-.12-.13-.07-.28.05-.15-.15-.11-.25-.17s-.2-.12-.3,0c-.11.12-.16.21-.32.02s-.48-.27-.61-.06-.26.25-.38.39-.97.39-1.12.44-.36.52-.33.71.31-.11.69-.15.39.31.22.62c-.17.31-.31.04-.49.04-.19,0-.55-.07-.8-.23-.26-.16-.49.12-.5.25s.45.37.56.43c.11.06.26.24.36.49.11.25.23.12.33.04.1-.08.4-.12.4-.12,0,0,.19-.25.27-.39.08-.14.07-.13.18-.21.11-.08.17-.02.26,0,.09.02.16.11.16.24s-.03.05-.13.22c-.1.17-.19.1-.21.14-.02.04.16.03.26,0s.17-.1.3-.01c.14.08.21.15.22.21,0,.06.33-.05.49-.13.16-.08.52-.25.43.14s.44.58.44.58c0,0,.14,0,.23-.03s.1-.07.23-.05c.13.03.22-.06.29-.18.07-.12.04-.16.14-.33s.28.22.43.31.19-.21.18-.35c-.01-.14-.05-.29-.14-.38s-.26-.4-.02-.65c.24-.24,1.27-.19,1.05-.09s-.37.49-.28.66c.09.17.51-.26.49-.09s-.24.23.46.15.77.1.63.25-.39.12-.44.26c-.04.15.21.17.41.1s.6.24.64.42c.04.17-.12.31-.26.27-.15-.04-.17-.16-.46-.19-.29-.02-.67-.27-.84-.11-.16.16.54.41.68.56.14.15.4.54.39.6-.01.07-.31.41-.25.56.06.16.56.17.41.56-.15.38.01.77.42.96s.64.2.98.37-.04.53.21.66c.25.13.42.44.59.54.16.1.32.51.39.55.07.04.48.49.63.58s.02.5.04.62c.02.12.21.57.29.66.08.09.17.71.25.81s.45.52.54.66c.09.14.45.52.41.59h.01c-.04.06-.21.48-.21.48,0,0,.23,1.16.25,1.2s-.02.29.11.37.14.35.49.39c.35.04.66.34.77.38.09.03.46.37.57.47-.05-.06-.07-.16-.04-.21l.92,1.41c.16.16-.14,1.1-.08,1.26.06.15-.38.56-.27.71s.38.55.5.62c0,0,0,0,.01,0,.03.19.04.41.01.59-.06.35-.09.5.38.65-.09.21-.1.55-.04.66.06.12,0,.81-.02.91-.02.09-.34.17-.34.17,0,0-.82.51.03.34s.68.18.79.48c.01.04.02.08.03.12-.09.15-.06.14,0,.1,0,.21-.11.39-.17.49-.01.02-.03.05-.04.08-.12.14-.22.24-.24.27-.06.06.04.23.1.21,0,0,.01,0,.03-.02-.03.12-.12.2-.06.27.07.08.17.1.28.17.07.04.14.05.2.02v.02c-.01.21-.11.21-.33,0-.22-.21-.43-.08-.51.01-.08.09-.37.48-.59.49s-.09.48-.02.55c.07.07.41.09.49.16s-.06.25-.27.3c-.21.04-.3.38-.3.46,0,.08.09.36.12.44.03.08.05.39.02.44-.02.05.02.3.02.35s.06.12.17.04c0,0,0,0,.01,0,.03-.02.05-.05.08-.09.09-.12.16-.29.24-.27.07.02.1.06.12.09.01.02.03.03.04.04l.33-.22s.04-.07.04-.1c.04-.18.18-.16.23-.13.02.02.02.05.02.09.16-.08.3-.15.38-.2.05-.03.11-.1.17-.19,0-.01.02-.03.03-.04,0,0,0-.02.01-.02.02-.04.05-.09.07-.14,0,0,0,0,0,0,.01-.03.03-.06.04-.1.02-.05.04-.1.06-.16,0-.02.01-.03.02-.05,0-.02.02-.05.02-.07,0,0,0-.02,0-.03,0,0,0-.02,0-.02.02-.08.04-.17.06-.26.02-.09.03-.19.04-.28,0-.05.01-.1.02-.16.05-.55,0-.6-.17-.83-.08-.11-.19-.24-.31-.44h0ZM20.68,28.75c.08-.1.14-.16.16-.15.02.01-.06.07-.16.15Z"/>
      </g>
    </g>
  </g>
</svg>