<!-- Generated by IcoMoon.io -->
<svg version="1.1" xmlns="http://www.w3.org/2000/svg" viewBox="0 0 1024 1024">
<title></title>
<g id="icomoon-ignore">
</g>
<path d="M708.023 577.772l-64.366-23.406-57.051-30.72-8.777-55.589c17.554-32.183 36.571-74.606 39.497-106.789v0h65.829v-16.091h-65.829v-10.24c0-51.2-40.96-93.623-93.623-93.623h-24.869c-51.2 0-93.623 42.423-93.623 93.623v26.331c2.926 30.72 21.943 73.143 39.497 106.789l-8.777 55.589-55.589 30.72-65.829 21.943c-23.406 5.851-40.96 26.331-43.886 49.737v153.6h16.091v-152.137c1.463-17.554 14.629-32.183 32.183-36.571l32.183-11.703v200.411h16.091v-204.8l20.48-7.314 11.703-7.314v219.429h16.091v-130.194h193.097v130.194h16.091v-219.429l13.166 7.314 19.017 5.851v206.263h16.091v-198.949l32.183 11.703c17.554 4.389 29.257 17.554 32.183 35.109v153.6h16.091v-155.063c-4.389-23.406-21.943-42.423-45.349-48.274zM459.337 485.612c11.703 11.703 27.794 19.017 45.349 19.017h16.091c17.554 0 33.646-7.314 45.349-19.017l7.314 39.497-10.24 8.777c-16.091 14.629-33.646 21.943-49.737 21.943s-33.646-8.777-49.737-21.943l-10.24-8.777 5.851-39.497zM421.303 334.937c0-42.423 35.109-77.531 77.531-77.531h24.869c42.423 0 77.531 35.109 77.531 77.531v10.24h-181.394v-10.24zM564.663 361.269h38.034c-2.926 23.406-16.091 58.514-39.497 100.937-8.777 16.091-24.869 26.331-42.423 26.331h-16.091c-17.554 0-35.109-10.24-42.423-26.331-21.943-42.423-36.571-78.994-39.497-100.937h141.897zM608.549 634.823h-193.097v-81.92l27.794-14.629 8.777 7.314c19.017 17.554 39.497 26.331 59.977 26.331s40.96-8.777 59.977-26.331l8.777-7.314 27.794 14.629v81.92zM443.246 762.092c0 10.24 8.777 19.017 19.017 19.017h98.011c10.24 0 19.017-8.777 19.017-19.017v-70.217h-136.046v70.217zM459.337 707.966h105.326v54.126c0 2.926-1.463 4.389-4.389 4.389h-98.011c-2.926 0-4.389-1.463-4.389-4.389v-54.126z"></path>
</svg>
