<!-- Generated by IcoMoon.io -->
<svg version="1.1" xmlns="http://www.w3.org/2000/svg" viewBox="0 0 1024 1024">
<title></title>
<g id="icomoon-ignore">
</g>
<path d="M727.040 586.549c-2.926-14.629-7.314-27.794-13.166-40.96s-11.703-24.869-20.48-36.571l13.166-8.777c17.554 24.869 29.257 54.126 35.109 83.383l-14.629 2.926zM634.88 449.040c-23.406-16.091-49.737-27.794-78.994-33.646l2.926-14.629c29.257 5.851 58.514 17.554 83.383 35.109l-7.314 13.166zM389.12 449.040l-8.777-11.703c13.166-8.777 26.331-16.091 39.497-21.943 14.629-5.851 29.257-10.24 43.886-13.166l2.926 14.629c-14.629 2.926-27.794 7.314-40.96 13.166-11.703 4.389-24.869 11.703-36.571 19.017zM296.96 586.549l-14.629-2.926c5.851-29.257 17.554-58.514 35.109-83.383l13.166 8.777c-16.091 23.406-27.794 49.737-33.646 77.531v0zM504.686 358.343h14.629v87.771h-14.629v-87.771zM314.645 443.434l10.344-10.344 62.063 62.063-10.344 10.344-62.063-62.063zM791.406 639.212h-95.086v-14.629h80.457c-4.389-146.286-125.806-260.389-272.091-257.463-140.434 4.389-253.074 117.029-257.463 257.463h80.457v14.629h-95.086v-7.314c0-155.063 124.343-280.869 279.406-280.869s279.406 125.806 279.406 279.406v8.777zM636.737 495.7l62.063-62.063 10.344 10.344-62.063 62.063-10.344-10.344zM512 672.857c-23.406 0-40.96-19.017-40.96-40.96 0-23.406 19.017-40.96 40.96-40.96 23.406 0 40.96 19.017 40.96 40.96s-17.554 40.96-40.96 40.96zM512 604.103c-14.629 0-26.331 11.703-26.331 26.331s11.703 26.331 26.331 26.331c14.629 0 26.331-11.703 26.331-26.331s-11.703-26.331-26.331-26.331zM530.291 602.189l84.82-84.82 10.344 10.344-84.82 84.82-10.344-10.344z"></path>
</svg>
