<?xml version="1.0" encoding="UTF-8"?>
<svg id="Layer_2" data-name="Layer 2" xmlns="http://www.w3.org/2000/svg" viewBox="0 0 97.54 80">
  <defs>
    <style>
      .cls-1 {
        fill: #4b4b4b;
        stroke-width: 0px;
      }
    </style>
  </defs>
  <g id="Layer_1-2" data-name="Layer 1">
    <g>
      <path class="cls-1" d="M44.09,80c-1.61,0-3.07-.63-4.23-1.75-1.12-1.12-1.75-2.62-1.75-4.19-1.85.31-3.81-.21-5.24-1.64-1.29-1.29-1.85-3-1.71-4.72-1.71.1-3.42-.45-4.72-1.71-1.12-1.12-1.75-2.62-1.75-4.23,0-.28.03-.59.07-.87-1.64,0-3.18-.59-4.33-1.75-1.12-1.12-1.75-2.62-1.75-4.23s.63-3.07,1.75-4.23l1.78-1.75,1.99,1.99-1.78,1.75c-.59.59-.91,1.36-.91,2.2s.31,1.61.91,2.2c1.19,1.19,3.25,1.19,4.44,0l1.78-1.75,1.99,1.99-2.17,2.17c-.59.59-.91,1.36-.91,2.2s.31,1.61.91,2.2c1.22,1.22,3.21,1.22,4.44,0l2.17-2.17,1.99,1.99-2.17,2.17c-1.22,1.22-1.22,3.21,0,4.44s3.21,1.22,4.44,0l.45-.45s.07-.07.1-.1l1.61-1.61,1.99,1.99h0l-1.68,1.68c-.52.59-.84,1.33-.84,2.13s.31,1.61.91,2.2c1.19,1.19,3.25,1.19,4.44,0l1.61-1.61,1.99,1.99-1.61,1.61c-1.15,1.22-2.66,1.85-4.23,1.85Z"/>
      <path class="cls-1" d="M53.17,79.48c-1.54,0-3.04-.59-4.23-1.75l-28.44-28.44c-.84-.84-1.33-1.99-1.33-3.18v-2.03c0-.45-.17-.87-.49-1.15l-6.88-6.88,23.62-23.62,26.59.24,23.62,23.62-6.81,6.85c-.31.31-.49.73-.49,1.15v2.03c0,1.19-.45,2.34-1.33,3.18l-.45.45.98.98c1.12,1.12,1.75,2.62,1.75,4.23s-.63,3.07-1.75,4.23c-.84.84-1.85,1.36-2.97,1.61.66.98,1.01,2.13,1.01,3.35,0,1.61-.63,3.07-1.75,4.23-1.71,1.71-4.44,2.2-6.57,1.26-.17,1.26-.77,2.41-1.68,3.32-1.71,1.71-4.44,2.2-6.57,1.26-.17,1.26-.77,2.41-1.68,3.32-1.12,1.15-2.66,1.75-4.16,1.75ZM15.86,36.05l4.86,4.86c.84.84,1.33,1.96,1.33,3.18v2.03c0,.45.17.87.49,1.15l28.44,28.44c1.22,1.22,3.21,1.22,4.44,0,.59-.59.91-1.36.91-2.2s-.31-1.61-.91-2.2l-13.34-13.31,1.99-1.99,15.13,15.13c1.19,1.19,3.25,1.19,4.44,0,.59-.59.91-1.36.91-2.2s-.31-1.57-.87-2.17l-15.2-15.2,1.99-1.99,15.13,15.13s.07.03.07.07l1.75,1.75c1.19,1.19,3.25,1.19,4.44,0,.59-.59.91-1.36.91-2.2s-.31-1.61-.91-2.2l-16.98-16.98,1.99-1.99,14.22,14.22c1.19,1.19,3.25,1.19,4.44,0,.59-.59.91-1.36.91-2.2s-.31-1.61-.91-2.2l-21.1-21.1c-.84-.84-1.33-1.99-1.33-3.18v-1.85c0-.91-.73-1.64-1.64-1.64h-.42c-.42,0-.87.17-1.15.49l-8.24,8.24c-1.12,1.12-2.62,1.75-4.23,1.75h0c-1.61,0-3.07-.63-4.23-1.75-1.12-1.12-1.75-2.62-1.75-4.23s.63-3.07,1.75-4.23l10.17-10.17-6.78-.07-20.68,20.82ZM51.07,22.36h.42c2.48,0,4.47,2.03,4.47,4.47v1.85c0,.45.17.87.49,1.15l18.1,18.1.45-.45c.31-.31.49-.73.49-1.15v-2.03c0-1.19.45-2.34,1.33-3.18l4.86-4.86-20.79-20.79-13.52-.1-12.12,12.12c-.59.59-.91,1.36-.91,2.2s.31,1.61.91,2.2c.59.59,1.36.91,2.2.91h0c.84,0,1.61-.31,2.2-.91l8.24-8.24c.84-.8,2.03-1.29,3.18-1.29Z"/>
      <path class="cls-1" d="M10.27,41.64L0,31.37,31.37,0l10.27,10.27-31.37,31.37ZM4.02,31.37l6.25,6.25,27.35-27.35-6.25-6.25L4.02,31.37Z"/>
      <path class="cls-1" d="M87.27,41.85l-31.37-31.37L66.17.21l31.37,31.37-10.27,10.27ZM59.91,10.48l27.35,27.35,6.25-6.25-27.35-27.35-6.25,6.25Z"/>
    </g>
  </g>
</svg>