<?xml version="1.0" encoding="utf-8"?>
<!-- Generator: Adobe Illustrator 28.1.0, SVG Export Plug-In . SVG Version: 6.00 Build 0)  -->
<svg version="1.1" id="Layer_1" xmlns="http://www.w3.org/2000/svg" xmlns:xlink="http://www.w3.org/1999/xlink" x="0px" y="0px"
	 viewBox="0 0 480 480" style="enable-background:new 0 0 480 480;" xml:space="preserve">
<style type="text/css">
	.st0{fill:#FFFFFF;}
</style>
<circle cx="240" cy="240" r="190"/>
<path class="st0" d="M240,30C124,30,30,124,30,240s94,210,210,210s210-94,210-210S356,30,240,30z M329.7,151.8H340v7.2h-10.3V151.8z
	 M315.8,134.9h7.2v10.3h-7.2V134.9z M315.8,165.7h7.2V176h-7.2V165.7z M298.9,151.8h10.3v7.2h-10.3V151.8z M204.2,131.3h10.3v7.2
	h-10.3V131.3z M190.3,114.4h7.2v10.3h-7.2V114.4z M190.3,145.2h7.2v10.3h-7.2V145.2z M173.4,131.3h10.3v7.2h-10.3V131.3z
	 M115.9,246.2H175v7.6h-59.1V246.2z M251.2,351.9h-10.3v-7.2h10.3V351.9z M265.1,368.8h-7.2v-10.3h7.2V368.8z M265.1,338h-7.2v-10.3
	h7.2V338z M282,351.9h-10.3v-7.2H282V351.9z M363.1,308H116.9v-7.6h246.2V308z M210,253.8v-7.6h59.1v7.6H210z M363.1,253.8H304v-7.6
	h59.1V253.8z M363.1,199.6H116.9V192h246.2V199.6z"/>
</svg>
