<?xml version="1.0" encoding="UTF-8"?>
<svg id="Layer_2" data-name="Layer 2" xmlns="http://www.w3.org/2000/svg" viewBox="0 0 64.35 80">
  <defs>
    <style>
      .cls-1 {
        fill: #4b4b4b;
        stroke-width: 0px;
      }
    </style>
  </defs>
  <g id="Layer_1-2" data-name="Layer 1">
    <g>
      <polyline class="cls-1" points="45.06 80 32.17 72.1 19.29 80 19.29 59.56 21.63 59.56 21.63 75.83 32.17 69.36 42.72 75.83 42.72 59.56 45.06 59.56 45.06 80"/>
      <path class="cls-1" d="M32.17,64.35c-1.34,0-2.69-.49-3.76-1.47l-2.35-2.15c-.77-.71-1.84-1-2.87-.77l-3.11.69c-2.83.63-5.63-.99-6.51-3.76l-.96-3.04c-.32-1-1.1-1.79-2.1-2.11l-3.04-.96c-2.77-.88-4.38-3.67-3.76-6.51l.69-3.11c.23-1.03-.06-2.1-.77-2.88l-2.15-2.35c-1.96-2.14-1.96-5.37,0-7.51l2.15-2.35c.71-.78,1-1.85.77-2.88l-.69-3.11c-.62-2.83.99-5.63,3.76-6.51l3.04-.96c1-.32,1.79-1.11,2.1-2.11l.96-3.04c.88-2.77,3.67-4.39,6.51-3.76l3.11.69c1.02.23,2.1-.06,2.87-.77l2.35-2.15c2.14-1.96,5.38-1.96,7.52,0h0l2.35,2.15c.77.71,1.85,1,2.88.77l3.11-.69c2.83-.63,5.63.99,6.51,3.76l.96,3.04c.32,1,1.11,1.79,2.11,2.11l3.03.96c2.77.88,4.38,3.67,3.76,6.51l-.69,3.11c-.23,1.03.06,2.1.77,2.88l2.15,2.35c1.96,2.14,1.96,5.37,0,7.52l-2.15,2.35c-.71.77-1,1.85-.77,2.88l.69,3.11c.62,2.83-.99,5.63-3.76,6.51l-3.04.96c-1,.32-1.79,1.11-2.11,2.11l-.96,3.03c-.87,2.77-3.68,4.39-6.51,3.76l-3.11-.69c-1.03-.22-2.1.06-2.88.77l-2.35,2.15c-1.07.98-2.42,1.47-3.76,1.47M23.89,57.54c1.37,0,2.72.51,3.75,1.46l2.35,2.15c1.24,1.14,3.12,1.14,4.36,0l2.35-2.15c1.34-1.23,3.19-1.73,4.96-1.33l3.11.69c1.63.36,3.27-.57,3.78-2.18l.96-3.04c.55-1.73,1.91-3.08,3.63-3.63l3.04-.96c1.6-.51,2.54-2.13,2.18-3.78l-.69-3.11c-.39-1.77.11-3.62,1.33-4.96l2.15-2.35c1.14-1.24,1.14-3.12,0-4.36l-2.15-2.35c-1.22-1.34-1.72-3.19-1.33-4.96l.69-3.11c.36-1.64-.57-3.27-2.18-3.78l-3.04-.96c-1.73-.55-3.08-1.9-3.63-3.63l-.96-3.04c-.51-1.6-2.12-2.55-3.78-2.18l-3.11.69c-1.77.39-3.62-.11-4.95-1.33l-2.35-2.15c-1.24-1.14-3.12-1.14-4.36,0l-2.35,2.15c-1.34,1.22-3.19,1.72-4.95,1.33l-3.11-.69c-1.64-.37-3.27.57-3.78,2.18l-.96,3.04c-.54,1.72-1.9,3.08-3.63,3.63l-3.04.96c-1.61.51-2.54,2.13-2.18,3.78l.69,3.11c.39,1.77-.11,3.62-1.33,4.96l-2.15,2.35c-1.14,1.25-1.14,3.12,0,4.36l2.15,2.35c1.22,1.34,1.72,3.19,1.33,4.96l-.69,3.11c-.36,1.64.58,3.27,2.18,3.78l3.04.96c1.73.55,3.08,1.91,3.63,3.63l.96,3.04c.51,1.61,2.13,2.54,3.78,2.18l3.11-.69c.4-.09.8-.13,1.2-.13Z"/>
      <path class="cls-1" d="M32.17,52.29c-11.1,0-20.12-9.02-20.12-20.12s9.03-20.12,20.12-20.12,20.12,9.02,20.12,20.12-9.03,20.12-20.12,20.12M32.17,14.39c-9.81,0-17.79,7.98-17.79,17.78s7.98,17.78,17.79,17.78,17.78-7.98,17.78-17.78-7.98-17.78-17.78-17.78Z"/>
      <polyline class="cls-1" points="30.32 39.51 21.91 31.09 23.56 29.44 30.32 36.2 41.4 25.12 43.05 26.77 30.32 39.51"/>
    </g>
  </g>
</svg>