<svg width="20" height="20" viewBox="0 0 20 20" fill="none" xmlns="http://www.w3.org/2000/svg">
<g clip-path="url(#clip0_472_9835)">
<path d="M10.7965 5.83186C12.6106 5.9115 14.0796 7.38938 14.1504 9.19469C14.1681 9.64602 14.5398 9.99115 14.9823 9.99115C14.9912 9.99115 15 9.99115 15.0177 9.99115C15.4779 9.97345 15.8319 9.58407 15.8142 9.12389C15.708 6.45133 13.5398 4.26549 10.8673 4.15929C10.4248 4.15929 10.0177 4.49557 10 4.95575C9.9823 5.41593 10.3363 5.80531 10.7965 5.82301V5.83186ZM10 0C9.53982 0 9.16814 0.371681 9.16814 0.831858C9.16814 1.29204 9.53982 1.66372 10 1.66372C14.5929 1.66372 18.3363 5.39823 18.3363 10C18.3363 10.4602 18.708 10.8319 19.1681 10.8319C19.6283 10.8319 20 10.4602 20 10C20 4.48673 15.5133 0 10 0ZM13.3363 11.6637C11.6814 11.6637 10.2212 12.6372 9.54867 14.0885C7.9823 13.292 6.70796 12.0177 5.9115 10.4513C7.36283 9.78761 8.33628 8.32743 8.33628 6.66372C8.33628 4.36283 6.46903 2.49557 4.16814 2.49557C1.86726 2.49557 0 4.37168 0 6.66372C0 14.0177 5.9823 19.9911 13.3274 19.9911C15.6283 19.9911 17.4956 18.1239 17.4956 15.823C17.4956 13.5221 15.6283 11.6549 13.3274 11.6549L13.3363 11.6637ZM13.3363 18.3274C6.90265 18.3274 1.66372 13.0973 1.66372 6.66372C1.66372 5.28319 2.78761 4.16814 4.15929 4.16814C5.53097 4.16814 6.65487 5.29204 6.65487 6.66372C6.65487 7.86726 5.79646 8.90265 4.61062 9.11504L3.62832 9.29204L3.9823 10.2301C4.99115 12.885 7.09735 14.9823 9.74336 15.9911L10.6814 16.3451L10.8584 15.3628C11.0708 14.177 12.1062 13.3186 13.3097 13.3186C14.6903 13.3186 15.8053 14.4425 15.8053 15.8142C15.8053 17.1858 14.6814 18.3097 13.3097 18.3097L13.3363 18.3274Z" fill="white"/>
</g>
<defs>
<clipPath id="clip0_472_9835">
<rect width="20" height="20" fill="white"/>
</clipPath>
</defs>
</svg>
