<?xml version="1.0" encoding="UTF-8"?>
<svg id="Layer_2" data-name="Layer 2" xmlns="http://www.w3.org/2000/svg" viewBox="0 0 100 66.81">
  <defs>
    <style>
      .cls-1 {
        fill: #4b4b4b;
        stroke-width: 0px;
      }
    </style>
  </defs>
  <g id="Layer_1-2" data-name="Layer 1">
    <g>
      <path class="cls-1" d="M93.08,63.87v-21.86l4.14,4.98,2.27-1.88L61.98,0l-9.75,11.52,1.91,2.3,7.81-9.23,28.17,33.88v25.4h-19.26v-21.86l3.91,4.71.23.27,2.27-1.88L39.77,0,1.6,45.09l2.25,1.9,4.15-4.91v21.77H0v2.95h100v-2.95h-6.92ZM54.23,63.87h-10.1v-13.36h10.1v13.36ZM67.92,63.87h-10.74v-16.31h-15.99v16.31H10.95v-25.26L39.75,4.59l28.17,33.88v25.4Z"/>
      <polygon class="cls-1" points="29.75 42.68 32.69 42.68 32.69 37.27 38.1 37.27 38.1 34.32 29.75 34.32 29.75 42.68"/>
      <polygon class="cls-1" points="44.13 37.27 49.54 37.27 49.54 34.32 41.19 34.32 41.19 42.68 44.13 42.68 44.13 37.27"/>
    </g>
  </g>
</svg>