<?xml version="1.0" encoding="UTF-8"?>
<svg id="Layer_2" data-name="Layer 2" xmlns="http://www.w3.org/2000/svg" viewBox="0 0 97.64 80">
  <defs>
    <style>
      .cls-1 {
        fill: #4b4b4b;
        stroke-width: 0px;
      }
    </style>
  </defs>
  <g id="Layer_1-2" data-name="Layer 1">
    <g>
      <path class="cls-1" d="M21.47,25.27l-2.75-.07.45-17.95c.42-4.18,3.8-7.25,7.91-7.25h17.36c3.38,0,6.38,2.13,7.49,5.33l6.45,18.51-2.61.91-6.45-18.51c-.73-2.09-2.68-3.49-4.88-3.49h-17.36c-2.68,0-4.88,2.02-5.16,4.67l-.45,17.85Z"/>
      <path class="cls-1" d="M82.61,41.9l-2.61-8.61c-1.39-4.57-5.51-7.6-10.25-7.6H21.47v5.93h-2.75v-6.34c0-1.29,1.05-2.34,2.34-2.34h48.7c6,0,11.19,3.83,12.9,9.59l2.61,8.61-2.65.77Z"/>
      <path class="cls-1" d="M80.77,80c-9.31,0-16.87-7.56-16.87-16.87s7.56-16.87,16.87-16.87,16.87,7.56,16.87,16.87-7.53,16.87-16.87,16.87ZM80.77,48.98c-7.77,0-14.12,6.34-14.12,14.12s6.34,14.12,14.12,14.12,14.12-6.34,14.12-14.12-6.31-14.12-14.12-14.12Z"/>
      <path class="cls-1" d="M66.37,48.59l-1.95-1.95c4.39-4.36,10.21-6.76,16.38-6.76,3.31,0,6.52.7,9.52,2.02l-1.15,2.51c-2.65-1.19-5.47-1.78-8.37-1.78-5.47,0-10.6,2.13-14.43,5.96Z"/>
      <path class="cls-1" d="M23.81,77.66c-11.12,0-20.15-9.03-20.15-20.15s9.03-20.15,20.15-20.15,20.15,9.03,20.15,20.15-9.06,20.15-20.15,20.15ZM23.81,40.12c-9.59,0-17.39,7.81-17.39,17.39s7.81,17.39,17.39,17.39,17.39-7.81,17.39-17.39c-.03-9.62-7.81-17.39-17.39-17.39Z"/>
      <path class="cls-1" d="M2.27,43.78l-2.27-1.6c5.51-7.63,14.4-12.2,23.77-12.2,4.43,0,8.64.94,12.58,2.86l-1.19,2.51c-3.59-1.71-7.42-2.58-11.4-2.58-8.51-.03-16.56,4.08-21.51,11.02Z"/>
      <path class="cls-1" d="M23.81,67.52c-5.54,0-10.04-4.5-10.04-10.04s4.5-10.04,10.04-10.04,10.04,4.5,10.04,10.04c-.03,5.54-4.53,10.04-10.04,10.04ZM23.81,50.23c-4.01,0-7.25,3.24-7.25,7.25s3.24,7.25,7.25,7.25,7.25-3.24,7.25-7.25-3.28-7.25-7.25-7.25Z"/>
      <path class="cls-1" d="M80.77,70.97c-4.32,0-7.88-3.52-7.88-7.88s3.52-7.88,7.88-7.88,7.88,3.52,7.88,7.88-3.52,7.88-7.88,7.88ZM80.77,58c-2.82,0-5.09,2.3-5.09,5.09s2.3,5.09,5.09,5.09,5.09-2.3,5.09-5.09-2.27-5.09-5.09-5.09Z"/>
      <polygon class="cls-1" points="68.74 24.3 65.99 24.3 65.99 6.69 71.42 1.22 73.41 3.17 68.74 7.81 68.74 24.3"/>
      <rect class="cls-1" x="34.47" y="1.36" width="2.75" height="23.88"/>
      <path class="cls-1" d="M59.82,71.11h-11.47v-33.74h11.47v33.74ZM51.1,68.32h5.93v-28.2h-5.93v28.2Z"/>
      <rect class="cls-1" x="49.74" y="47.69" width="8.68" height="2.75"/>
      <rect class="cls-1" x="49.74" y="58" width="8.68" height="2.75"/>
      <polygon class="cls-1" points="59.82 38.73 57.03 38.73 57.03 25.66 37.23 25.66 37.23 37.65 34.47 37.65 34.47 22.9 59.82 22.9 59.82 38.73"/>
      <rect class="cls-1" x="58.42" y="61.7" width="7.84" height="2.75"/>
      <rect class="cls-1" x="41.73" y="61.7" width="6.8" height="2.75"/>
    </g>
  </g>
</svg>