<?xml version="1.0" encoding="UTF-8"?>
<svg id="Layer_2" data-name="Layer 2" xmlns="http://www.w3.org/2000/svg" viewBox="0 0 77.73 80">
  <defs>
    <style>
      .cls-1 {
        fill: #4b4b4b;
        stroke-width: 0px;
      }
    </style>
  </defs>
  <g id="Layer_1-2" data-name="Layer 1">
    <path class="cls-1" d="M62.7,45.25h0c-.03-.1-.06-.16-.13-.23h0c-.03-.06-.1-.13-.13-.16l-.03-.03c-.06-.03-.1-.1-.16-.13,0,0-.03,0-.03-.03-.06-.03-.13-.06-.23-.1h-.03c-.06-.03-.13-.03-.19-.06h-.13l-10.33-.51,8.17-4.28c.55-.29.77-.93.58-1.48l-3.64-9.81h0c-.03-.06-.06-.16-.1-.23l-.03-.03c-.03-.06-.06-.1-.13-.16t-.06-.06s-.06-.06-.13-.1c-.03,0-.03-.03-.06-.03-.03-.03-.1-.06-.16-.06,0,0-.03,0-.03-.03h0c-.06-.03-.16-.06-.23-.06h-.03c-.06,0-.13-.03-.19-.03l-9.75-.19,13.64-6.05,2.67,5.92,15.9-23.72L51.28,0l2.25,4.83L14.56,26.93c-.55.32-.77,1-.48,1.58l4.6,9.49h0c.03.1.1.19.16.26l.03.03c.13.16.32.26.51.32h.06c.1.03.16.03.26.03l9.69.39-7.76,3.54c-.29.13-.55.39-.64.71s-.1.64.06.97l5.76,11.2s0,.03.03.03c.03.03.06.1.1.13,0,.03.03.03.03.06.03.03.06.06.1.13l.03.03c.06.03.13.1.19.13,0,0,.03,0,.03.03.06.03.1.06.16.06h.1s.06.03.1.03h.16l11.78.26L.63,77.75c-.48.26-.74.84-.58,1.35.13.55.61.9,1.16.9h21.43c.19,0,.39-.06.58-.16l42.7-23.04c.55-.29.77-.93.55-1.48l-3.77-10.07ZM56.78,5.76l-.58-1-.84-1.8,18.21,2.45-11.3,16.89-1.35-2.96-.51-1.19-40.03,17.73-3.6-7.4L56.78,5.76ZM40.37,29.67l9.53.19-15.51,6.98-9.33-.39,15.32-6.79ZM35.12,39.16h0l19.47-8.75,2.83,7.59-18.54,9.72-10.49,5.5-4.6-8.98,11.33-5.08ZM32.58,53.77l13.93-7.3.58-.29,10.17.51-13.39,7.37-11.3-.29ZM22.35,77.62H5.94l38.81-21.3h0l16.19-8.88,2.9,7.76-41.48,22.43Z"/>
  </g>
</svg>