<?xml version="1.0" encoding="utf-8"?>
<!-- Generator: Adobe Illustrator 28.1.0, SVG Export Plug-In . SVG Version: 6.00 Build 0)  -->
<svg version="1.1" id="Layer_1" xmlns="http://www.w3.org/2000/svg" xmlns:xlink="http://www.w3.org/1999/xlink" x="0px" y="0px"
	 viewBox="0 0 480 480" style="enable-background:new 0 0 480 480;" xml:space="preserve">
<style type="text/css">
	.st0{fill:#FFFFFF;}
</style>
<circle cx="240" cy="240" r="190"/>
<g>
	<path class="st0" d="M240,30C124,30,30,124,30,240s94,210,210,210s210-94,210-210S356,30,240,30z M309.2,193.4
		c9.6-9.6,24.2-11,32.1-11c3.6,0,5.8,0.3,5.9,0.3l2.9,0.3l0.3,2.9c0.1,1,2.8,24.5-10.7,38c-9.5,9.5-24.2,11-32.1,11
		c-3.6,0-5.8-0.3-5.9-0.3l-2.9-0.3l-0.3-2.9C298.4,230.4,295.7,206.9,309.2,193.4z M143.5,152.9l0.3-2.9l2.9-0.3
		c0.2,0,2.4-0.3,5.8-0.3c7.9,0,22.6,1.4,32.1,11c9.5,9.5,11,24.2,11,32.1c0,3.6-0.3,5.8-0.3,5.9l-0.3,2.9l-2.9,0.3
		c-0.2,0-2.4,0.3-5.8,0.3c-7.9,0-22.6-1.4-32.1-11C140.4,177.1,143.4,153.1,143.5,152.9z M355.8,300.2v4v25.4h-8v-25.4h-20v25.4h-8
		v-25.4h-20v25.4h-8v-25.4h-20v25.4h-8v-25.4h-20v25.4h-8v-25.4h-20v25.4h-8v-25.4h-20v25.4h-8v-25.4h-20v25.4h-8v-25.4h-20v25.4h-8
		v-25.4v-4v-31l99.3-25V110.7h33.1v133.4l99.3,25v31.1H355.8z"/>
	<path class="st0" d="M323.8,205.6c1,0,1.9,0.4,2.7,1.1c0.7,0.7,1.1,1.7,1.1,2.7s-0.4,1.9-1.1,2.7l-15.3,15.3
		c7-0.4,16.9-2.3,23.3-8.6c8.2-8.2,8.9-22.2,8.7-28.7c-0.5,0-1.1,0-1.7,0c-6.8,0-19.4,1.1-27,8.8c-6.4,6.4-8.2,16.2-8.6,23.3
		l15.3-15.3C321.8,206,322.8,205.6,323.8,205.6z"/>
	<path class="st0" d="M182.7,194.2l-15.3-15.3c-0.7-0.7-1.1-1.7-1.1-2.7s0.4-1.9,1.1-2.7c0.7-0.7,1.7-1.1,2.7-1.1s1.9,0.4,2.7,1.1
		l15.3,15.3c-0.4-7.1-2.3-16.9-8.6-23.3c-7.6-7.6-20.2-8.7-27-8.7c-0.6,0-1.2,0-1.7,0c-0.2,6.5,0.5,20.4,8.7,28.7
		C165.9,191.9,175.7,193.8,182.7,194.2z"/>
	<path class="st0" d="M248.5,118.7h-17.1v131.6l-99.3,25v20.8h215.6v-20.8l-99.3-25L248.5,118.7L248.5,118.7z M290.8,268.3v8H189.2
		v-8H290.8z"/>
</g>
</svg>
