<!-- Generated by IcoMoon.io -->
<svg version="1.1" xmlns="http://www.w3.org/2000/svg" viewBox="0 0 1024 1024">
<title></title>
<g id="icomoon-ignore">
</g>
<path d="M680.229 549.977c0-1.463-1.463-2.926-2.926-4.389 0 0 0 0 0 0s0 0 0 0c-1.463-1.463-2.926-1.463-5.851-1.463l-71.68-4.389 57.051-30.72c4.389-1.463 5.851-5.851 4.389-10.24l-24.869-68.754c0-1.463 0-1.463-1.463-2.926 0 0 0 0 0 0s0 0 0 0c-2.926-1.463-5.851-2.926-8.777-2.926l-67.291-1.463 96.549-42.423 19.017 40.96 111.177-166.766-185.783-24.869 16.091 33.646-275.017 156.526c-4.389 2.926-5.851 7.314-2.926 11.703l32.183 65.829c0 0 0 0 0 0v0c0 0 0 0 0 0 0 1.463 1.463 1.463 1.463 2.926 0 0 0 0 0 0s0 0 0 0 0 0 1.463 0c0 0 0 0 0 0s1.463 0 1.463 0c0 0 0 0 0 0s1.463 0 1.463 0c0 0 0 0 0 0v0c0 0 0 0 0 0s0 0 0 0l67.291 2.926-55.589 24.869c-1.463 1.463-4.389 2.926-4.389 4.389-1.463 2.926 0 4.389 0 7.314l40.96 78.994c1.463 1.463 2.926 2.926 4.389 4.389 1.463 0 1.463 0 2.926 0l83.383 1.463-272.091 153.6c-2.926 1.463-4.389 4.389-4.389 7.314 0 4.389 4.389 8.777 8.777 8.777h150.674c1.463 0 2.926 0 4.389-1.463l299.886-162.377c4.389-1.463 5.851-5.851 4.389-10.24l-26.331-70.217zM637.806 270.572l-4.389-7.314-5.851-13.166 128.731 17.554-78.994 118.491-10.24-20.48-2.926-7.314-219.429 98.011-62.903 26.331-24.869-52.663 280.869-159.451zM413.989 487.074l108.251-48.274 67.291 1.463-109.714 49.737-65.829-2.926zM484.206 506.092c1.463 0 1.463 0 0 0l137.509-61.44 20.48 54.126-204.8 106.789-32.183-64.366 78.994-35.109zM468.114 608.492l102.4-54.126 71.68 2.926-95.086 51.2h-78.994zM394.971 776.72h-115.566l387.657-212.114 20.48 54.126-292.571 157.989z"></path>
</svg>
