<?xml version="1.0" encoding="UTF-8"?>
<svg id="Layer_2" data-name="Layer 2" xmlns="http://www.w3.org/2000/svg" viewBox="0 0 94.24 100">
  <defs>
    <style>
      .cls-1 {
        fill: #4b4b4b;
        stroke-width: 0px;
      }
    </style>
  </defs>
  <g id="Layer_1-2" data-name="Layer 1">
    <g>
      <g>
        <g>
          <path class="cls-1" d="M58.07,92.14l-.42-2.86c19.22-2.94,33.68-19.81,33.68-39.28,0-21.91-17.83-39.74-39.74-39.74h-8.92v-2.9h8.92c23.51,0,42.64,19.13,42.64,42.64-.04,20.86-15.6,38.98-36.16,42.14Z"/>
          <polygon class="cls-1" points="49.41 17.62 40.58 8.79 49.41 0 51.43 2.06 44.66 8.79 51.43 15.6 49.41 17.62"/>
        </g>
        <g>
          <path class="cls-1" d="M51.56,92.64h-8.92C19.13,92.64,0,73.51,0,50,0,29.14,15.52,11.02,36.12,7.86l.42,2.86C17.33,13.67,2.86,30.53,2.86,50c0,21.91,17.83,39.74,39.74,39.74h8.92v2.9h.04Z"/>
          <polygon class="cls-1" points="44.79 100 42.77 97.94 49.54 91.21 42.77 84.4 44.79 82.38 53.62 91.21 44.79 100"/>
        </g>
      </g>
      <g>
        <path class="cls-1" d="M47.1,76.62c-15.52,0-28.17-11.94-28.17-26.62s12.62-26.62,28.17-26.62,28.17,11.94,28.17,26.62-12.66,26.62-28.17,26.62ZM47.1,26.24c-13.92,0-25.27,10.64-25.27,23.76s11.35,23.76,25.27,23.76,25.27-10.64,25.27-23.76-11.35-23.76-25.27-23.76Z"/>
        <rect class="cls-1" x="45.42" y="34.78" width="3.36" height="21.61"/>
        <rect class="cls-1" x="45.42" y="59" width="3.36" height="4.04"/>
      </g>
    </g>
  </g>
</svg>