<?xml version="1.0" encoding="utf-8"?>
<!-- Generator: Adobe Illustrator 28.1.0, SVG Export Plug-In . SVG Version: 6.00 Build 0)  -->
<svg version="1.1" id="Layer_1" xmlns="http://www.w3.org/2000/svg" xmlns:xlink="http://www.w3.org/1999/xlink" x="0px" y="0px"
	 viewBox="0 0 480 480" style="enable-background:new 0 0 480 480;" xml:space="preserve">
<style type="text/css">
	.st0{fill:#FFFFFF;}
</style>
<circle cx="240" cy="240" r="190"/>
<g>
	<path class="st0" d="M219,258c-8,0-14.5,6.5-14.5,14.5S211,287,219,287s14.5-6.5,14.5-14.5S227,258,219,258z"/>
	<path class="st0" d="M320.7,285c-0.5,0-1,0.4-1,1c0,1.1,2,1.1,2,0C321.6,285.4,321.2,285,320.7,285z"/>
	<path class="st0" d="M219,231.2c-22.8,0-41.4,18.5-41.4,41.3s18.5,41.3,41.4,41.3c22.8,0,41.4-18.5,41.4-41.3
		C260.3,249.7,241.8,231.2,219,231.2z M219,295c-12.4,0-22.5-10.1-22.5-22.5S206.6,250,219,250s22.5,10.1,22.5,22.5
		S231.4,295,219,295z"/>
	<path class="st0" d="M199,153.7v40.6h20.6v-44.2h-17C200.6,150.1,199,151.7,199,153.7z"/>
	<path class="st0" d="M240.8,150.1h-13.2v44.2h26.7l0,0v-2.1c0-13.4-2.7-26.4-8.1-38.7C245.3,151.5,243.2,150.1,240.8,150.1z"/>
	<path class="st0" d="M320.7,258c-15.4,0-27.9,12.5-27.9,27.9s12.5,27.9,27.9,27.9s27.9-12.5,27.9-27.9S336.1,258,320.7,258z
		 M320.7,292.9c-3.9,0-7-3.1-7-7s3.1-7,7-7s7,3.1,7,7S324.5,292.9,320.7,292.9z"/>
	<path class="st0" d="M240,30C124,30,30,124,30,240s94,210,210,210s210-94,210-210S356,30,240,30z M150.4,229.8h8.1v8.1h-8.1V229.8z
		 M150.4,254.6h8.1v8.1h-8.1V254.6z M134.1,241h8.1v8.1h-8.1V241z M134.1,267h8.1v8.1h-8.1V267z M134.1,293.1h8.1v8.1h-8.1V293.1z
		 M125.9,287.6h-8.1v-8.1h8.1V287.6z M125.9,262.8h-8.1v-8.1h8.1V262.8z M199.1,339.4h-53.3v-8h53.3V339.4z M320.7,321.9
		c-19.8,0-35.9-16.1-35.9-35.9c0-4.4,0.8-8.6,2.2-12.5h-18.7c-0.5,26.8-22.4,48.4-49.3,48.4l0,0h-93v-8h66.2
		c-13.5-8.8-22.5-24-22.5-41.3c0-27.2,22.1-49.3,49.3-49.3c24.8,0,45.4,18.4,48.8,42.3h23.4c6.5-9.3,17.3-15.5,29.5-15.5
		c1.8,0,3.5,0.1,5.2,0.4V219c0-1-0.8-1.7-1.7-1.7H274c-2.6,0-5-1-6.9-2.8L255.6,203c-0.3-0.3-0.8-0.5-1.2-0.5h-62.1
		c-0.4,0-0.7,0.1-1,0.3l-9.7,25.4l-7.5-2.8l10.6-27.2c1.6-2,3.9-3.2,6.3-3.5V154c0-6.4,5.2-11.6,11.6-11.6h38.2
		c5.6,0,10.6,3.2,12.8,8.1c5.8,13.3,8.8,27.4,8.8,41.9v6.1l10.3,10.3c0.3,0.3,0.8,0.5,1.2,0.5h31.7V179c0-3.3,1.3-6.5,3.7-8.8
		l10.2-10.2l5.6,5.6l-10.2,10.2c-0.9,0.9-1.3,2-1.3,3.2v30.2h10.6c5.3,0,9.7,4.4,9.7,9.7v33.6c13.3,5.3,22.8,18.3,22.8,33.4
		C356.6,305.7,340.5,321.9,320.7,321.9z"/>
</g>
</svg>
