<?xml version="1.0" encoding="UTF-8"?>
<svg id="Layer_1" xmlns="http://www.w3.org/2000/svg" version="1.1" viewBox="0 0 85 85">
  <!-- Generator: Adobe Illustrator 29.1.0, SVG Export Plug-In . SVG Version: 2.1.0 Build 142)  -->
  <defs>
    <style>
      .st0 {
        fill: #fff;
      }
    </style>
  </defs>
  <circle class="st0" cx="42.5" cy="42.5" r="42.5"/>
  <g>
    <path d="M42.5,62.3c-.57,0-1.14-.18-1.62-.55l-8.16-6.3c-4.43-3.42-7.07-8.8-7.07-14.39v-14l2.65-1.23c9.02-4.18,19.37-4.18,28.39,0l2.65,1.23v14c0,5.59-2.64,10.97-7.07,14.39l-8.16,6.3c-.48.37-1.05.55-1.62.55M26.75,27.76v13.29c0,5.25,2.48,10.31,6.64,13.52l8.16,6.3c.56.43,1.33.43,1.89,0l8.16-6.3c4.16-3.21,6.64-8.27,6.64-13.52v-13.29l-2.01-.93c-8.73-4.04-18.74-4.04-27.47,0h0l-2.01.93Z"/>
    <path d="M42.5,56.48l-6.63-5.12c-3.17-2.45-5.06-6.3-5.06-10.31v-10.1l.28-.16c7.04-3.96,15.78-3.96,22.82,0l.28.16v10.1c0,4.01-1.89,7.86-5.06,10.31l-6.63,5.12M31.91,31.6v9.45c0,3.67,1.73,7.2,4.64,9.44l5.95,4.6,5.95-4.6c2.9-2.24,4.64-5.77,4.64-9.44v-9.45c-6.56-3.56-14.62-3.56-21.18,0Z"/>
    <rect x="41.95" y="28.36" width="1.1" height="6.96"/>
    <rect x="41.95" y="46.38" width="1.1" height="9.4"/>
    <rect x="31.36" y="40.3" width="5.61" height="1.1"/>
    <rect x="48.03" y="40.3" width="5.61" height="1.1"/>
    <path d="M42.5,47.48c-3.66,0-6.63-2.97-6.63-6.63s2.97-6.63,6.63-6.63,6.63,2.97,6.63,6.63-2.97,6.63-6.63,6.63M42.5,35.32c-3.05,0-5.53,2.48-5.53,5.53s2.48,5.53,5.53,5.53,5.53-2.48,5.53-5.53-2.48-5.53-5.53-5.53Z"/>
    <path d="M42.5,43.43c-1.42,0-2.58-1.16-2.58-2.58s1.15-2.58,2.58-2.58,2.58,1.16,2.58,2.58-1.16,2.58-2.58,2.58M42.5,39.38c-.81,0-1.48.66-1.48,1.48s.66,1.48,1.48,1.48,1.48-.66,1.48-1.48-.66-1.48-1.48-1.48Z"/>
  </g>
</svg>