<?xml version="1.0" encoding="UTF-8"?>
<svg id="Layer_1" xmlns="http://www.w3.org/2000/svg" version="1.1" viewBox="0 0 85 85">
  <!-- Generator: Adobe Illustrator 29.1.0, SVG Export Plug-In . SVG Version: 2.1.0 Build 142)  -->
  <defs>
    <style>
      .st0 {
        fill: #fff;
      }
    </style>
  </defs>
  <circle class="st0" cx="42.5" cy="42.5" r="42.5"/>
  <g>
    <path d="M57.15,58.37h-28.55c-2.04,0-3.7-1.66-3.7-3.7v-27.48c0-.3.25-.55.55-.55h15.53c.15,0,.29.06.39.16l3.5,3.5h10.84c.3,0,.55.25.55.55v5.76h3.29c.3,0,.55.25.55.55v18.27c0,1.63-1.32,2.95-2.95,2.95M31.23,57.27h25.92c1.02,0,1.85-.83,1.85-1.85v-17.72h-26.69v16.96c0,1.01-.41,1.93-1.07,2.6ZM26,27.73v26.93c0,1.44,1.17,2.6,2.6,2.6s2.6-1.17,2.6-2.6v-17.51c0-.3.25-.55.55-.55h23.41v-5.21h-10.52c-.15,0-.28-.06-.39-.16l-3.5-3.5h-14.75Z"/>
    <path d="M31.76,55.36h-3.15c-.3,0-.55-.25-.55-.55v-20.81c0-.3.25-.55.55-.55h23.96c.3,0,.55.25.55.55v3.15h-1.1v-2.6h-22.86v19.71h2.6v1.1"/>
    <path d="M56.4,55.22h-9c-.3,0-.55-.25-.55-.55v-6.32c0-.3.25-.55.55-.55h9c.3,0,.55.25.55.55v6.32c0,.3-.25.55-.55.55M47.94,54.12h7.9v-5.22h-7.9v5.22Z"/>
    <rect x="49.76" y="50.95" width="4.34" height="1.1"/>
  </g>
</svg>