<?xml version="1.0" encoding="UTF-8"?>
<svg id="Layer_1" xmlns="http://www.w3.org/2000/svg" version="1.1" viewBox="0 0 85 85">
  <!-- Generator: Adobe Illustrator 29.1.0, SVG Export Plug-In . SVG Version: 2.1.0 Build 142)  -->
  <defs>
    <style>
      .st0 {
        fill: #fff;
      }
    </style>
  </defs>
  <circle class="st0" cx="42.5" cy="42.5" r="42.5"/>
  <g>
    <path d="M60.93,33.77l-12.1-7.2c-.17-.1-.38-.1-.55,0,0,0,0,0,0,0h0s-11.82,7.02-11.82,7.02l-11.82-7.03c-.17-.1-.38-.1-.55,0-.17.1-.28.28-.28.48v23.71c0,.19.1.37.27.47l12.1,7.19s0,0,0,0c0,0,0,0,0,0,.08.05.18.07.27.07s.19-.02.27-.07c0,0,0,0,0,0,0,0,0,0,0,0l7.82-4.65-.56-.95-6.98,4.15v-22.43l11-6.54v4.73h1.1v-4.73l11,6.54v22.43l-6.87-4.09-.56.94,7.7,4.58c.09.05.18.08.28.08s.19-.02.27-.07c.17-.1.28-.28.28-.48v-23.71c0-.19-.1-.37-.27-.47ZM35.9,56.99l-11-6.54v-22.43l11,6.54v22.43Z"/>
    <path d="M57.44,42.92c0-4.9-3.99-8.89-8.89-8.89s-8.89,3.99-8.89,8.89c0,3.47,1.95,5.57,4.01,7.78,1.86,2,3.79,4.07,4.34,7.34.05.27.27.46.54.46s.5-.19.54-.46c.55-3.28,2.48-5.34,4.34-7.34,2.06-2.22,4.01-4.31,4.01-7.78ZM48.55,55.82c-.92-2.48-2.58-4.26-4.07-5.87-2-2.14-3.72-4-3.72-7.03,0-4.3,3.5-7.79,7.79-7.79s7.79,3.5,7.79,7.79c0,3.04-1.72,4.89-3.72,7.03-1.5,1.61-3.16,3.39-4.07,5.87Z"/>
    <path d="M48.55,39.07c-1.92,0-3.49,1.56-3.49,3.49s1.56,3.49,3.49,3.49,3.49-1.56,3.49-3.49-1.56-3.49-3.49-3.49ZM48.55,44.95c-1.32,0-2.39-1.07-2.39-2.39s1.07-2.39,2.39-2.39,2.39,1.07,2.39,2.39-1.07,2.39-2.39,2.39Z"/>
  </g>
</svg>