<?xml version="1.0" encoding="UTF-8"?>
<svg id="Layer_1" xmlns="http://www.w3.org/2000/svg" version="1.1" viewBox="0 0 85 85">
  <!-- Generator: Adobe Illustrator 29.1.0, SVG Export Plug-In . SVG Version: 2.1.0 Build 142)  -->
  <defs>
    <style>
      .st0 {
        fill: #fff;
      }
    </style>
  </defs>
  <circle class="st0" cx="42.5" cy="42.5" r="42.5"/>
  <g>
    <path d="M57.82,61.03l-.6.6-7.05-7.05.03-3.54-2.71-2.75-.07.06c-2.87,2.63-6.58,4.08-10.45,4.08-4.14,0-8.02-1.61-10.94-4.52-2.92-2.92-4.53-6.8-4.53-10.94s1.61-8.02,4.53-10.94c2.92-2.92,6.8-4.53,10.94-4.53s8.02,1.61,10.94,4.53c5.87,5.87,6.07,15.27.44,21.39l-.07.07,2.68,2.68,3.68.03,6.98,7.02-.6.6,2.42,2.43-3.2,3.2-2.42-2.42ZM58.64,60.25l1.61,1.61,1.6-1.61-1.6-1.61-1.61,1.61ZM51.34,54.1l5.89,5.93,2.81-2.81-5.86-5.86-2.84-.03v2.77ZM36.97,22.64c-3.84,0-7.44,1.49-10.14,4.19-2.71,2.7-4.2,6.31-4.2,10.14s1.49,7.44,4.2,10.14c2.7,2.7,6.31,4.19,10.14,4.19s7.44-1.49,10.14-4.19c2.71-2.71,4.2-6.31,4.2-10.14s-1.49-7.44-4.2-10.14c-2.7-2.7-6.3-4.19-10.14-4.19Z"/>
    <path d="M34.69,44.55c-.48-.19-.9-.36-1.3-.57l-2.59,1.2-1.98-1.96,1.18-2.5c-.21-.49-.39-.91-.52-1.33l-2.68-.98v-2.78s2.6-.94,2.6-.94c.2-.5.37-.92.57-1.31l-1.19-2.59,1.97-1.97,2.51,1.18c.48-.21.9-.38,1.32-.51l.98-2.68h2.76s.94,2.6.94,2.6c.49.2.91.37,1.3.57l2.59-1.2,1.98,1.96-1.18,2.51c.21.48.38.9.52,1.33l2.68.98v2.78s-2.61.94-2.61.94c-.2.49-.37.91-.57,1.31l1.2,2.58-1.97,1.97-2.51-1.18c-.48.21-.9.38-1.32.51l-.98,2.68h-2.76s-.94-2.6-.94-2.6ZM33.64,42.83c.5.28,1.04.5,1.61.66l.34.09.83,2.45h1.16s.89-2.52.89-2.52l.27-.03c.57-.15,1.11-.38,1.61-.67l.3-.17,2.32,1.14.84-.84-1.15-2.4.17-.21c.29-.5.51-1.05.66-1.62l.09-.34,2.45-.83v-1.18s-2.52-.89-2.52-.89l-.03-.27c-.15-.57-.38-1.11-.68-1.61l-.17-.3,1.14-2.31-.84-.83-2.4,1.15-.21-.17c-.5-.29-1.04-.51-1.61-.66l-.34-.09-.83-2.45h-1.16s-.89,2.52-.89,2.52l-.27.03c-.56.15-1.1.38-1.6.67l-.3.17-2.32-1.14-.84.84,1.15,2.4-.17.21c-.29.5-.51,1.05-.67,1.62l-.09.34-2.45.83v1.18s2.52.89,2.52.89l.03.27c.16.57.38,1.12.68,1.62l.17.3-1.14,2.31.84.84,2.36-1.13.26.15Z"/>
    <path d="M36.97,41.04c-2.24,0-4.06-1.82-4.06-4.06s1.82-4.06,4.06-4.06,4.06,1.82,4.06,4.06-1.82,4.06-4.06,4.06ZM36.97,34.04c-1.62,0-2.93,1.31-2.93,2.93s1.31,2.93,2.93,2.93,2.93-1.31,2.93-2.93-1.31-2.93-2.93-2.93Z"/>
  </g>
</svg>