<?xml version="1.0" encoding="UTF-8"?>
<svg id="Layer_1" xmlns="http://www.w3.org/2000/svg" version="1.1" viewBox="0 0 85 85">
  <!-- Generator: Adobe Illustrator 29.1.0, SVG Export Plug-In . SVG Version: 2.1.0 Build 142)  -->
  <defs>
    <style>
      .st0 {
        fill: #fff;
      }
    </style>
  </defs>
  <circle class="st0" cx="42.5" cy="42.5" r="42.5"/>
  <g>
    <rect x="39.03" y="61.96" width="1.71" height="1.21" transform="translate(-32.21 80.11) rotate(-71.17)"/>
    <path d="M47.71,20.32h-.05c-4.01,0-7.79,1.56-10.64,4.4l.85.86c2.62-2.61,6.1-4.05,9.79-4.05h.04c3.7.01,7.19,1.47,9.81,4.1l.86-.85c-2.85-2.86-6.63-4.45-10.66-4.46Z"/>
    <path d="M47.66,23.73c-3.11,0-6.03,1.21-8.24,3.4l.85.86c1.99-1.98,4.57-3.04,7.42-3.05,2.79,0,5.42,1.11,7.4,3.1l.86-.85c-2.2-2.22-5.14-3.44-8.25-3.45h-.03Z"/>
    <path d="M47.69,27.14h-.02c-4.56,0-8.27,3.7-8.28,8.28l.09,2.99c-.59.23-1.95.79-3.02,1.42-2.12,1.23-4.66,3.79-4.87,6.92l-.76,6.68-.55,1.61-2.05-.7-1.58,4.63,1.15.39,1.19-3.48,14.5,4.95-1.19,3.48,1.15.39,1.58-4.63-2.15-.73.45-1.33c1.73-.41,4.31-2.35,5.51-5.4h4.18s0,.01,0,.01c.77,0,1.49-.3,2.04-.84.55-.55.85-1.27.85-2.04l.04-14.28c.01-4.57-3.69-8.29-8.26-8.31ZM42.79,56.85l-.38.04-.7,2.04-10.3-3.51.57-1.67.8-6.9c.18-2.68,2.42-4.9,4.28-5.98.79-.46,1.79-.9,2.44-1.17l.12,4.16-3.45,2.83.77.94,6.14-5.04c.48-.39,1.11-.49,1.68-.24.57.24.94.76.98,1.38.04.53-.18,1.04-.58,1.37l-4.09,3.37.15.4c.04.11.96,2.67-.94,4.92l.93.78c.55-.66.9-1.33,1.12-1.99h5.17c-1.22,2.64-3.59,4.16-4.72,4.28ZM54.69,49.72c0,.93-.76,1.68-1.68,1.68h0l-10.38-.03c.14-1.07-.01-1.99-.14-2.5l3.45-2.84c.7-.58,1.09-1.48,1.02-2.39-.08-1.06-.73-1.98-1.71-2.4-.98-.42-2.1-.26-2.92.42l-1.51,1.24-.22-7.48c0-3.89,3.18-7.05,7.07-7.05h.02c3.9.01,7.06,3.19,7.05,7.09l-.04,14.28Z"/>
    <path d="M47.65,40.79v1.21c1.07,0,1.95.88,1.94,1.96,0,1.08-.88,1.95-1.95,1.95h0v1.21h0c1.74,0,3.16-1.41,3.16-3.15,0-1.74-1.41-3.17-3.15-3.17Z"/>
    <path d="M47.67,32.26h0c-.84,0-1.63.33-2.23.92-.6.6-.93,1.39-.93,2.23,0,.84.32,1.64.92,2.24.6.6,1.39.93,2.24.93h0c.84,0,1.63-.33,2.23-.92.6-.6.93-1.39.93-2.23,0-.84-.32-1.64-.92-2.24-.6-.6-1.39-.93-2.24-.93ZM49.04,36.81c-.37.37-.86.57-1.38.57h0c-.52,0-1.01-.21-1.38-.58-.37-.37-.57-.86-.57-1.38,0-.52.21-1.01.58-1.38.37-.37.86-.57,1.38-.57h0c.52,0,1.01.21,1.38.58.37.37.57.86.57,1.38,0,.52-.21,1.01-.58,1.38Z"/>
  </g>
</svg>