<?xml version="1.0" encoding="utf-8"?>
<!-- Generator: Adobe Illustrator 28.1.0, SVG Export Plug-In . SVG Version: 6.00 Build 0)  -->
<svg version="1.1" id="Layer_1" xmlns="http://www.w3.org/2000/svg" xmlns:xlink="http://www.w3.org/1999/xlink" x="0px" y="0px"
	 viewBox="0 0 480 480" style="enable-background:new 0 0 480 480;" xml:space="preserve">
<style type="text/css">
	.st0{fill:#FFFFFF;}
</style>
<circle cx="240" cy="240" r="190"/>
<g>
	<path class="st0" d="M240,30C124,30,30,124,30,240s94,210,210,210s210-94,210-210S356,30,240,30z M370,177.2h-45.6v86.4H370v7.6
		h-53.2v-11.3l-24.4-20.6l-27.6,23.8l-21-17.7v65.5c0,26.1-21.2,47.3-47.3,47.3s-47.3-21.2-47.3-47.3c0-0.4,0-0.8,0-1.1l0,0V260
		L110,226.7v-44.9h39.3v-10.4c0-26.1,21.2-47.3,47.3-47.3s47.3,21.2,47.3,47.3v10.4h73v-12.2H370V177.2z"/>
	<path class="st0" d="M160.3,166.1h7.6v15.6h68.3v-10.4c0-7.3-2-14.1-5.4-20v8h-7.6V142c-7-6.4-16.4-10.3-26.6-10.3
		c-4,0-7.8,0.6-11.4,1.7v27.1h-7.6v-23.9c-12.3,6.7-20.6,19.8-20.6,34.8v10.4h3.4L160.3,166.1L160.3,166.1z"/>
	<path class="st0" d="M223.2,271.8v-21L209,263.1l-28.2-23.8L157,259.9v25.3c8.4-13,23-21.6,39.7-21.6
		C206.4,263.6,215.6,266.6,223.2,271.8z"/>
	<path class="st0" d="M196.5,271.2c-21.9,0-39.7,17.8-39.7,39.7c0,21.9,17.8,39.7,39.7,39.7s39.7-17.8,39.7-39.7
		S218.4,271.2,196.5,271.2z M215.6,310.9c0,10.5-8.5,19-19,19v-7.6c6.3,0,11.4-5.1,11.4-11.4s-5.1-11.4-11.4-11.4
		s-11.4,5.1-11.4,11.4h-7.6c0-10.5,8.5-19,19-19S215.6,300.4,215.6,310.9z M196.5,345.1c-18.9,0-34.2-15.3-34.2-34.2
		s15.3-34.2,34.2-34.2v7.6c-14.7,0-26.6,11.9-26.6,26.6s11.9,26.6,26.6,26.6c14.7,0,26.6-11.9,26.6-26.6h7.6
		C230.8,329.7,215.4,345.1,196.5,345.1z"/>
	<path class="st0" d="M230.8,278.3c2,2.1,3.8,4.4,5.4,6.9v-45.6l-5.4,4.7V278.3z"/>
	<polygon class="st0" points="117.6,223.1 153.1,253.1 180.7,229.3 208.9,253.1 236.5,229.3 264.7,253.1 292.3,229.3 316.8,250 
		316.8,189.4 117.6,189.4 	"/>
</g>
</svg>
