<?xml version="1.0" encoding="utf-8"?>
<!-- Generator: Adobe Illustrator 28.1.0, SVG Export Plug-In . SVG Version: 6.00 Build 0)  -->
<svg version="1.1" id="Layer_1" xmlns="http://www.w3.org/2000/svg" xmlns:xlink="http://www.w3.org/1999/xlink" x="0px" y="0px"
	 viewBox="0 0 480 480" style="enable-background:new 0 0 480 480;" xml:space="preserve">
<style type="text/css">
	.st0{fill:#FFFFFF;}
	.st1{fill:none;stroke:#231F20;stroke-width:7;stroke-miterlimit:10;}
</style>
<g>
	<circle class="st0" cx="240" cy="240" r="210"/>
	<g>
		<line class="st1" x1="251" y1="285.5" x2="215.1" y2="285.5"/>
		<path class="st1" d="M113.2,260.2c-7.5-10.8-12.1-24.3-12.1-38.9c-0.2-36,25.7-65.2,57.8-65.2h155.5c2.9,0,4.1,4,1.9,6
			c-8.8,7.8-21.9,23.6-24.5,49.5"/>
		<g>
			<g>
				<path class="st1" d="M184,248.6c-1.6,0-3.1,0.1-4.6,0.3c-2.3-10-11.2-17.4-21.8-17.4c-12.4,0-22.4,10-22.4,22.4
					c0,0.1,0,0.2,0,0.3c-1.3-0.2-2.7-0.3-4-0.3c-15.9,0-28.9,12.9-28.9,28.9s12.9,28.9,28.9,28.9H184c17.4,0,31.5-14.1,31.5-31.5
					C215.5,262.7,201.4,248.6,184,248.6z"/>
			</g>
		</g>
		<g>
			<g>
				<path class="st1" d="M352.8,225c-1.8,0-3.6,0.1-5.3,0.4c0-0.1,0-0.2,0-0.4c0-16.3-13.2-29.5-29.5-29.5c-14,0-25.7,9.8-28.7,22.9
					c-2-0.3-4-0.4-6-0.4c-22.9,0-41.5,18.6-41.5,41.5s18.6,41.5,41.5,41.5h69.5c21,0,37.9-17,37.9-37.9
					C390.7,242,373.7,225,352.8,225z"/>
			</g>
		</g>
		<line class="st1" x1="183.1" y1="326.3" x2="349.3" y2="326.3"/>
		<line class="st1" x1="251.1" y1="348.2" x2="334.2" y2="348.2"/>
	</g>
</g>
<path class="st1" d="M164.4,232.6c-0.6-3.8-1-7.8-1-11.9c0-15.4,4.9-29.6,13.1-40.7"/>
<path class="st1" d="M243.7,248.4c-3.6-8.4-5.5-17.8-5.5-27.7c0-15.4,4.8-29.6,12.9-40.7"/>
</svg>
