<?xml version="1.0" encoding="utf-8"?>
<!-- Generator: Adobe Illustrator 28.1.0, SVG Export Plug-In . SVG Version: 6.00 Build 0)  -->
<svg version="1.1" id="Layer_1" xmlns="http://www.w3.org/2000/svg" xmlns:xlink="http://www.w3.org/1999/xlink" x="0px" y="0px"
	 viewBox="0 0 480 480" style="enable-background:new 0 0 480 480;" xml:space="preserve">
<style type="text/css">
	.st0{fill:#FFFFFF;}
</style>
<circle cx="240" cy="240" r="190"/>
<g>
	<path class="st0" d="M240,30C124,30,30,124,30,240s94,210,210,210s210-94,210-210S356,30,240,30z M189.5,120.4
		c1.9-1.9,5.3-1.9,7.2,0c0.9,0.9,1.5,2.2,1.5,3.6s-0.6,2.7-1.5,3.6c-0.5,0.5-1,0.9-1.6,1.1c-0.6,0.3-1.3,0.4-1.9,0.4
		c-0.7,0-1.4-0.1-2-0.4c-0.6-0.2-1.1-0.6-1.6-1.1c-0.4-0.4-0.8-1-1.1-1.6c-0.2-0.6-0.3-1.2-0.3-1.9
		C188.1,122.6,188.6,121.3,189.5,120.4z M157.8,156.5c1.9-1.9,5.3-1.9,7.2,0c0.9,0.9,1.5,2.2,1.5,3.6c0,0.7-0.2,1.3-0.4,1.9
		c-0.3,0.6-0.6,1.2-1.1,1.6c-0.5,0.5-1,0.9-1.6,1.1c-0.6,0.3-1.3,0.4-1.9,0.4c-0.7,0-1.4-0.1-2-0.4c-0.6-0.2-1.1-0.6-1.6-1.1
		c-0.9-0.9-1.4-2.1-1.4-3.6C156.4,158.7,156.9,157.4,157.8,156.5z M152.5,216.7c0.3-0.6,0.7-1.2,1.1-1.6c1.9-1.9,5.4-1.8,7.2,0
		c0.9,0.9,1.5,2.2,1.5,3.6c0,1.4-0.6,2.6-1.5,3.7c-0.5,0.4-1,0.8-1.6,1.1c-0.6,0.2-1.3,0.3-1.9,0.3c-1.4,0-2.6-0.5-3.7-1.4
		c-0.9-1-1.4-2.2-1.4-3.7C152.2,218,152.3,217.3,152.5,216.7z M134.9,133.6c1.9-1.9,5.3-1.9,7.2,0c0.9,0.9,1.5,2.2,1.5,3.6
		c0,0.7-0.2,1.3-0.4,1.9c-0.3,0.6-0.6,1.2-1.1,1.6c-1,1-2.2,1.5-3.6,1.5c-0.7,0-1.3-0.1-2-0.4c-0.6-0.2-1.1-0.6-1.6-1.1
		c-0.4-0.4-0.8-1-1.1-1.6c-0.2-0.6-0.3-1.2-0.3-1.9C133.5,135.8,134,134.5,134.9,133.6z M131.7,184.2c1.9-1.9,5.4-1.9,7.2,0
		c1,0.9,1.5,2.2,1.5,3.6c0,0.6-0.1,1.3-0.4,1.9c-0.2,0.6-0.6,1.2-1.1,1.6c-0.4,0.5-1,0.9-1.6,1.1c-0.6,0.3-1.2,0.4-1.9,0.4
		c-1.3,0-2.6-0.5-3.7-1.5c-0.4-0.4-0.8-1-1-1.6c-0.3-0.6-0.4-1.3-0.4-1.9C130.3,186.5,130.8,185.2,131.7,184.2z M253.4,348.2
		l-2.4-2.3c-29.3-28.3-81-45.8-134.8-45.8h-3.3v-6.6h3.3c55.4,0,108.8,18.3,139.4,47.7l2.4,2.3L253.4,348.2z M283.8,348.1l-1.9-2.7
		c-29.1-41.6-95.7-69.5-165.7-69.5h-3.3v-6.6h3.3c73.2,0,140.3,28.4,171.1,72.3l1.9,2.7L283.8,348.1z M369.3,251.8H364
		c-40.1,0-78.9,7.9-112.3,22.7l-0.9,0.4l0.9,0.5c6.3,3.3,12.3,6.9,18,10.6l0.2,0.1l3.2-1.2c28-10.3,59.4-15.7,91-15.7h3.3v6.6H364
		c-30,0-59.9,5-86.6,14.6l-0.9,0.3l0.8,0.6c5.3,3.9,10.4,8,15,12.3l0.2,0.2l2.1-0.6c22.2-6.5,45.5-9.8,69.5-9.8h3.3v6.6H364
		c-22,0-44.6,3.1-65.2,8.9l-0.8,0.2l0.6,0.6c9.8,10,17.6,20.9,23.5,32.2l1.5,3l-5.9,3l-1.5-2.9c-28.6-55.8-106.5-93.3-193.7-93.3
		h-11.6v-6.6h138.4V227h-0.5c-1.3,0.1-2.7,0.1-4.1,0.1c-10.8,0-30.8-1.9-43.6-14.8c-18.2-18.2-14.6-50.2-14.4-51.6l0.3-2.6l2.6-0.3
		c0.3,0,3.4-0.4,8-0.4c10.8,0,30.8,1.9,43.6,14.8c3,3,5.6,6.5,7.7,10.6l0.9,1.7l0.1-1.9c0.5-11.6,3.4-27.8,14.4-38.7
		c12.6-12.6,32.2-14.5,42.7-14.5c4.3,0,7.2,0.3,7.8,0.4l2.6,0.3l0.3,2.6c0.2,1.3,3.6,32.7-14.1,50.5c-12.6,12.6-32.2,14.5-42.7,14.5
		c-1.4,0-2.9,0-4.3-0.1h-0.5v15.7c0.1,1.8,0.1,3.6,0,5.3v26.5h113.6v6.7H369.3z"/>
	<path class="st0" d="M190,252.7c18.8,4.3,36.6,10.5,52.9,18.2l0.2,0.1l1.8-0.8c15.8-7.4,33.1-13.3,51.3-17.5l-0.1-1h-106L190,252.7
		z"/>
	<path class="st0" d="M249.1,214.7c-0.2-9.5-2-27-12.8-37.8C225.1,165.7,206.9,164,197,164c-1.3,0-2.6,0-3.8,0.1h-0.5v0.5
		c-0.4,8.7,0,30.3,12.8,43.1c10.3,10.3,26.2,12.6,37.8,12.8h1.2l-33.2-33.2c-1.3-1.3-1.3-3.4,0-4.6c0.6-0.6,1.4-1,2.3-1
		s1.7,0.3,2.3,1l33.2,33.2V214.7z"/>
	<path class="st0" d="M282.6,161.3c0.9,0,1.7,0.3,2.3,1c0.6,0.6,1,1.4,1,2.3c0,0.9-0.3,1.7-1,2.3l-24.2,24.2h1.2
		c11.2-0.2,26.7-2.6,36.6-12.5c12.4-12.4,12.8-33.5,12.5-41.9v-0.5h-0.5c-1.2-0.1-2.4-0.1-3.7-0.1c-9.6,0-27.4,1.6-38.3,12.5
		c-10.5,10.5-12.4,27.5-12.5,36.6v1.2l24.3-24.3C280.9,161.6,281.7,161.3,282.6,161.3z"/>
</g>
</svg>
