<!-- Generated by IcoMoon.io -->
<svg version="1.1" xmlns="http://www.w3.org/2000/svg" viewBox="0 0 697 1024">
<title></title>
<g id="icomoon-ignore">
</g>
<path d="M534.528 259.072h-372.531v-198.451h113.050c6.554-34.406 36.864-60.621 73.318-60.621s66.765 26.214 73.318 60.621h113.050v198.451zM189.85 231.219h316.826v-142.746h-111.616v-13.926c0-25.805-20.89-46.694-46.694-46.694s-46.694 20.89-46.694 46.694v13.926h-111.616v142.746zM645.939 1024h-595.354c-27.853 0-50.586-22.733-50.586-50.586v-808.755c0-27.853 22.733-50.586 50.586-50.586h125.338v27.853h-125.338c-12.493 0-22.733 10.24-22.733 22.733v808.755c0 12.493 10.24 22.733 22.733 22.733h595.354c12.493 0 22.733-10.24 22.733-22.733v-808.755c0-12.493-10.24-22.733-22.733-22.733h-125.338v-27.853h125.338c27.853 0 50.586 22.733 50.586 50.586v808.755c0 27.853-22.733 50.586-50.586 50.586zM628.326 956.006h-560.333v-773.734h107.93v27.853h-80.077v718.029h504.627v-718.029h-79.872v-27.853h107.725v773.734zM306.995 344.883h227.533v27.853h-227.533v-27.853zM213.811 390.758l-47.104-47.104 19.661-19.661 27.443 27.238 46.285-46.080 19.661 19.661-65.946 65.946zM306.995 461.824h227.533v27.853h-227.533v-27.853zM213.811 507.494l-47.104-47.104 19.661-19.661 27.443 27.238 46.285-46.080 19.661 19.661-65.946 65.946zM306.995 578.56h227.533v27.853h-227.533v-27.853zM213.811 624.23l-47.104-47.104 19.661-19.661 27.443 27.443 46.285-46.285 19.661 19.661-65.946 65.946zM306.995 695.296h227.533v27.853h-227.533v-27.853zM213.811 740.966l-47.104-47.104 19.661-19.661 27.443 27.443 46.285-46.285 19.661 19.661-65.946 65.946zM306.995 806.707h227.533v27.853h-227.533v-27.853zM213.811 852.378l-47.104-46.899 19.661-19.866 27.443 27.443 46.285-46.285 19.661 19.661-65.946 65.946z"></path>
</svg>
