<!-- Generated by IcoMoon.io -->
<svg version="1.1" xmlns="http://www.w3.org/2000/svg" viewBox="0 0 1024 1024">
<title></title>
<g id="icomoon-ignore">
</g>
<path d="M762.149 457.817c-5.851-83.383-83.383-187.246-194.56-215.040v-40.96h-108.251v40.96c-111.177 27.794-190.171 131.657-194.56 215.040h-23.406v86.309h57.051c42.423 17.554 124.343 36.571 216.503 36.571 90.697 0 174.080-17.554 215.040-36.571h57.051v-86.309h-24.869zM765.074 525.109h-39.497l-2.926 1.463c-39.497 17.554-119.954 35.109-210.651 35.109-89.234 0-169.691-17.554-210.651-35.109l-43.886-1.463v-48.274h21.943v-8.777c0-58.514 45.349-133.12 114.103-177.006v106.789h19.017v-117.029c14.629-7.314 29.257-13.166 43.886-17.554v197.486h19.017v-239.909h71.68v238.446h19.017v-196.023c16.091 4.389 30.72 10.24 43.886 17.554v117.029h19.017v-106.789c68.754 42.423 114.103 117.029 114.103 177.006v8.777h21.943v48.274zM374.491 490l-2.926 19.017c46.811 8.777 93.623 11.703 140.434 11.703s93.623-4.389 140.434-11.703l-2.926-19.017c-90.697 16.091-184.32 16.091-275.017 0zM516.389 687.486c48.274 0 92.16-29.257 108.251-74.606l-17.554-7.314c-10.24 26.331-30.72 46.811-57.051 55.589-51.2 19.017-106.789-7.314-125.806-57.051l-17.554 7.314c17.554 45.349 61.44 76.069 109.714 76.069zM748.983 580.697l-49.737 16.091-1.463 5.851c-1.463 10.24-4.389 20.48-8.777 30.72l-1.463 5.851 35.109 39.497-10.24 17.554-51.2-10.24-2.926 2.926c-7.314 8.777-14.629 16.091-21.943 21.943l-4.389 2.926 10.24 51.2-17.554 10.24-39.497-33.646-5.851 1.463c-10.24 2.926-20.48 5.851-30.72 8.777l-5.851 1.463-16.091 49.737h-20.48l-16.091-49.737-5.851-1.463c-10.24-1.463-20.48-4.389-30.72-8.777l-5.851-1.463-38.034 35.109-17.554-10.24 10.24-51.2-4.389-2.926c-8.777-7.314-16.091-14.629-21.943-21.943l-4.389-4.389-49.737 10.24-10.24-17.554 35.109-39.497-1.463-5.851c-2.926-10.24-5.851-20.48-8.777-30.72l-1.463-5.851-49.737-16.091v-10.24h-19.017v24.869l52.663 17.554c1.463 7.314 4.389 16.091 5.851 23.406l-36.571 40.96 23.406 40.96 52.663-11.703c5.851 5.851 10.24 11.703 17.554 17.554l-11.703 51.2 42.423 23.406 40.96-36.571c7.314 2.926 14.629 4.389 23.406 5.851l17.554 52.663h46.811l17.554-52.663c7.314-1.463 16.091-2.926 23.406-5.851l40.96 36.571 42.423-23.406-11.703-52.663c5.851-5.851 11.703-10.24 17.554-17.554l52.663 11.703 23.406-42.423-36.571-40.96c2.926-7.314 4.389-14.629 5.851-23.406l52.663-17.554v-21.943h-19.017v10.24z"></path>
</svg>
