<?xml version="1.0" encoding="utf-8"?>
<!-- Generator: Adobe Illustrator 28.1.0, SVG Export Plug-In . SVG Version: 6.00 Build 0)  -->
<svg version="1.1" id="Layer_1" xmlns="http://www.w3.org/2000/svg" xmlns:xlink="http://www.w3.org/1999/xlink" x="0px" y="0px"
	 viewBox="0 0 480 480" style="enable-background:new 0 0 480 480;" xml:space="preserve">
<style type="text/css">
	.st0{fill:#FFFFFF;}
</style>
<circle cx="240" cy="240" r="190"/>
<g>
	<path class="st0" d="M188.2,282.1c-22,0-40,17.9-40,40s17.9,40,40,40s40-17.9,40-40S210.2,282.1,188.2,282.1z M206.9,322
		c0,10.3-8.4,18.7-18.7,18.7v-7c6.5,0,11.7-5.3,11.7-11.7s-5.3-11.7-11.7-11.7s-11.7,5.3-11.7,11.7h-7c0-10.3,8.4-18.7,18.7-18.7
		S206.9,311.7,206.9,322z M188.2,355.9c-18.7,0-33.9-15.2-33.9-33.9c0-18.7,15.2-33.9,33.9-33.9v7c-14.8,0-26.9,12.1-26.9,26.9
		s12.1,26.9,26.9,26.9s26.9-12.1,26.9-26.9h7C222.1,340.7,206.9,355.9,188.2,355.9z"/>
	<path class="st0" d="M222.1,289.6c2.3,2.4,4.3,5,6,7.8v-12.8c-2.1-0.5-4.1-1.2-6-2V289.6z"/>
	<path class="st0" d="M188.2,275.1c10,0,19.3,3.2,26.9,8.5v-4.7c-13.2-8.3-22.1-23-22.1-39.8c0-0.4,0-0.8,0-1.1l0,0v-51.6v-43.6
		c-1.6-0.2-3.2-0.3-4.8-0.3c-4.1,0-8,0.6-11.7,1.8v27.3h-7v-24.4c-12.6,6.7-21.2,20-21.2,35.3v86.8v28.1
		C156.5,284,171.3,275.1,188.2,275.1z M152.3,177.3h7v51h-7V177.3z M152.3,239h7v18.6h-7V239z"/>
	<path class="st0" d="M280,239.1c0-22-17.9-40-40-40s-40,17.9-40,40s17.9,40,40,40S280,261.1,280,239.1z M258.7,239.1
		c0,10.3-8.4,18.7-18.7,18.7v-7c6.5,0,11.7-5.3,11.7-11.7s-5.3-11.7-11.7-11.7s-11.7,5.3-11.7,11.7h-7c0-10.3,8.4-18.7,18.7-18.7
		C250.3,220.4,258.7,228.8,258.7,239.1z M240,273c-18.7,0-33.9-15.2-33.9-33.9s15.2-33.9,33.9-33.9v7c-14.8,0-26.9,12.1-26.9,26.9
		S225.2,266,240,266s26.9-12.1,26.9-26.9h7C273.9,257.8,258.7,273,240,273z"/>
	<path class="st0" d="M240,192.2c10,0,19.3,3.2,26.9,8.5v-29.9h7v35.9c2.3,2.4,4.3,5,6,7.8v-49v-33c0-7.7-2.2-15-6-21.1v21.9h-7
		v-29.8h0.6c-7.2-6.8-16.9-11-27.5-11c-11.4,0-21.6,4.8-28.9,12.4v40.5h-7v-30.5c-2.6,5.3-4,11.2-4,17.5v54v28.1
		C208.3,201.1,223.1,192.2,240,192.2z M204.1,156.2h7v18.6h-7V156.2z"/>
	<path class="st0" d="M291.8,282.1c-22,0-40,17.9-40,40s17.9,40,40,40s40-17.9,40-40S313.8,282.1,291.8,282.1z M310.5,322
		c0,10.3-8.4,18.7-18.7,18.7v-7c6.5,0,11.7-5.3,11.7-11.7s-5.3-11.7-11.7-11.7s-11.7,5.3-11.7,11.7h-7c0-10.3,8.4-18.7,18.7-18.7
		S310.5,311.7,310.5,322z M291.8,355.9c-18.7,0-33.9-15.2-33.9-33.9c0-18.7,15.2-33.9,33.9-33.9v7c-14.8,0-26.9,12.1-26.9,26.9
		s12.1,26.9,26.9,26.9s26.9-12.1,26.9-26.9h7C325.7,340.7,310.5,355.9,291.8,355.9z"/>
	<path class="st0" d="M240,30C124,30,30,124,30,240s94,210,210,210s210-94,210-210S356,30,240,30z M338.7,248.4V322
		c0,25.9-21.1,47-47,47s-47-21.1-47-47c0-0.4,0-0.8,0-1.1l0,0v-35c-1.6,0.2-3.2,0.2-4.8,0.2s-3.2-0.1-4.8-0.2V322
		c0,25.9-21.1,47-47,47s-47-21.1-47-47c0-0.4,0-0.8,0-1.1l0,0v-51.6v-86.8c0-25.9,21.1-47,47-47c1.6,0,3.2,0.1,4.8,0.3v-3.4
		c0-25.9,21.1-47,47-47s47,21.1,47,47v3.4c1.6-0.2,3.2-0.2,4.8-0.2c25.9,0,47,21.1,47,47V248.4z"/>
	<path class="st0" d="M318.7,153c-7.1-6.5-16.6-10.5-26.9-10.5c-1.6,0-3.2,0.1-4.8,0.3v22.6V239c0,21.8-14.9,40.2-35.1,45.4v12.8
		c8.3-13.4,23.1-22.3,40-22.3c10,0,19.3,3.2,26.9,8.5v-29.9h7v35.9c2.3,2.4,4.3,5,6,7.8v-49v-65.9c0-7.7-2.2-15-6-21.1v32.2h-7V153
		H318.7z"/>
</g>
</svg>
