<?xml version="1.0" encoding="UTF-8"?>
<svg id="Layer_1" data-name="Layer 1" xmlns="http://www.w3.org/2000/svg" viewBox="0 0 100 80">
  <defs>
    <style>
      .cls-1 {
        fill: #1d1d1b;
      }
    </style>
  </defs>
  <path class="cls-1" d="M25.99,74.07h58.45v-22.24l-58.45,22.24ZM82.24,71.87h-44.28l44.28-16.85v16.85Z"/>
  <path class="cls-1" d="M31.49,69.46l13.96-5.41-4.1-10.58,4.58-1.77,2.13,5.48,13.25-5.14-2.12-5.48,4.58-1.77,4.1,10.58,13.96-5.41-9-23.21-7.92,3.07-1.53-3.95.22-.09h0s10.26-3.98,10.26-3.98l-.8-2.05-10.49,4.07h0s-.18.07-.18.07l-5.88-9.27,1.72-.67.55,1.43c.68,1.75,2,3.13,3.71,3.88.91.4,1.87.6,2.83.6.86,0,1.72-.16,2.54-.48l1.03-.4-3.89-10.02-7.57,2.94h0s-2.12.82-2.12.82l-4.48-7.06-26.31,10.2,1.45,8.23-3.15,1.22h0s-6.54,2.54-6.54,2.54l3.89,10.02,1.03-.4c1.75-.68,3.13-2,3.88-3.71.76-1.72.8-3.62.12-5.37l-.55-1.43,1.72-.67,1.91,10.81-.18.07h0s-10.49,4.07-10.49,4.07l.8,2.05,10.49-4.07,1.53,3.95-7.92,3.07,9,23.2ZM63.75,11.8l2.25,5.81c-.89.12-1.78,0-2.62-.37-1.18-.52-2.08-1.47-2.55-2.67l-.55-1.43,3.47-1.35ZM23.07,32.88c-.37.83-.95,1.53-1.69,2.03l-2.25-5.8,3.47-1.35.55,1.43c.47,1.2.44,2.51-.08,3.69ZM49.31,54.33l-3.7-9.53,9.15-3.55,3.69,9.53-9.15,3.55ZM71.57,29.58l7.4,19.1-9.86,3.82-7.41-19.1,9.86-3.82ZM62.85,30.6l-3.99,1.55,4.1,10.58-4.58,1.77-2.37-6.1-13.25,5.14,2.37,6.1-4.57,1.77-4.1-10.58-3.99,1.55-1.53-3.95,25.78-10,4.61-1.79,1.53,3.95ZM30.36,36.3l-3.36-19.04,22.94-8.9,10.36,16.33-17.61,6.83-12.33,4.78ZM35.2,43.69l7.41,19.1-9.86,3.82-7.41-19.1,9.86-3.82Z"/>
</svg>