<!-- Generated by IcoMoon.io -->
<svg version="1.1" xmlns="http://www.w3.org/2000/svg" viewBox="0 0 1024 1024">
<title></title>
<g id="icomoon-ignore">
</g>
<path d="M791.406 511.943l-138.971-96.549v49.737h-92.16v-92.16h48.274l-96.549-140.434-96.549 138.971h49.737v92.16h-92.16v-54.126l-138.971 103.863 138.971 96.549v-49.737h92.16v92.16h-55.589l103.863 138.971 96.549-138.971h-49.737v-92.16h92.16v55.589l138.971-103.863zM544.183 544.126v124.343h35.109l-67.291 95.086-71.68-95.086h39.497v-124.343h-124.343v35.109l-95.086-67.291 95.086-71.68v39.497h124.343v-124.343h-35.109l65.829-95.086 65.829 95.086h-33.646v124.343h124.343v-35.109l95.086 65.829-95.086 71.68v-39.497h-122.88z"></path>
</svg>
