<?xml version="1.0" encoding="utf-8"?>
<!-- Generator: Adobe Illustrator 28.1.0, SVG Export Plug-In . SVG Version: 6.00 Build 0)  -->
<svg version="1.1" id="Layer_1" xmlns="http://www.w3.org/2000/svg" xmlns:xlink="http://www.w3.org/1999/xlink" x="0px" y="0px"
	 viewBox="0 0 480 480" style="enable-background:new 0 0 480 480;" xml:space="preserve">
<style type="text/css">
	.st0{fill:#FFFFFF;}
</style>
<circle cx="240" cy="240" r="190"/>
<path class="st0" d="M240,30C124,30,30,124,30,240s94,210,210,210s210-94,210-210S356,30,240,30z M349.3,221.6l-2,7.5l-55.8-14.9
	l-43.7,25.3l43.7,25.3l55.8-14.9l2,7.5l-48.2,12.9l24.2,14l27-7.4l2.1,7.5l-19.6,5.4l11.9,6.9l-3.9,6.8l-11.7-6.8l5.3,19.4l-7.5,2.1
	l-7.5-27.1l-24.2-14l12.9,48.2l-7.5,2l-14.9-55.8l-43.8-25.3v50.5l40.8,40.8l-5.5,5.5l-35.3-35.3V336l19.8,19.8l-5.5,5.5L243.9,347
	v13.3h-7.8V347l-14.3,14.3l-5.5-5.5l19.8-19.8v-28.3L200.8,343l-5.5-5.5l40.8-40.8v-50.5l-43.7,25.3l-14.9,55.8l-7.5-2l12.9-48.2
	l-24.2,14l-7.5,27.1l-7.5-2.1l5.4-19.4l-11.7,6.8l-3.9-6.8l11.9-6.9l-19.6-5.4l2.1-7.5l27,7.4l24.2-14l-48.2-12.9l2-7.5l55.8,14.9
	l43.7-25.3l-43.7-25.3l-55.8,14.9l-2-7.5l48.2-12.9l-22.3-12.9l-28.9,8l-2.1-7.5l21.5-5.9l-13.7-7.9l3.9-6.8l11.2,6.5l-4.8-17.6
	l7.5-2.1l6.9,25.2L183,202l-12.9-48.2l7.5-2l14.9,55.8l43.7,25.3v-50.5l-40.8-40.8l5.5-5.5l35.3,35.3v-26.8l-19.8-19.8l5.5-5.5
	l14.3,14.3v-14.8h7.8v14.8l14.3-14.3l5.5,5.5L244,144.6v26.8l35.3-35.3l5.5,5.5L244,182.4v50.5l43.8-25.3l14.9-55.8l7.5,2L297.3,202
	l24.7-14.3l6.9-25.2l7.5,2.1l-4.8,17.6l11.2-6.5l3.9,6.8l-13.7,7.9l21.5,5.9l-2.1,7.5l-28.9-8l-22.3,12.9L349.3,221.6z"/>
</svg>
