<?xml version="1.0" encoding="utf-8"?>
<!-- Generator: Adobe Illustrator 28.1.0, SVG Export Plug-In . SVG Version: 6.00 Build 0)  -->
<svg version="1.1" id="Layer_1" xmlns="http://www.w3.org/2000/svg" xmlns:xlink="http://www.w3.org/1999/xlink" x="0px" y="0px"
	 viewBox="0 0 480 480" style="enable-background:new 0 0 480 480;" xml:space="preserve">
<style type="text/css">
	.st0{fill:#FFFFFF;}
</style>
<circle cx="240" cy="240" r="190"/>
<g>
	<path class="st0" d="M279.5,129.1H200c-7.5,0-13.8,5.6-15.4,13.4h110.3C293.3,134.7,287,129.1,279.5,129.1z"/>
	<path class="st0" d="M280,228.8c-3.7,3.4-5.9,8-6.6,13.8h30.8l-1.9-20.8h-3C293.8,222.2,285.6,223.7,280,228.8z"/>
	<path class="st0" d="M203,221.8c0.6,0.4,1.1,0.9,1.6,1.4c5.4,4.9,8.4,11.4,9.1,19.5h52c0.7-8.1,3.8-14.6,9.1-19.5
		c0.5-0.5,1.1-0.9,1.6-1.4H203z"/>
	<path class="st0" d="M144.1,165.7v27.5c0,0.4,0.3,0.7,0.7,0.7H161c0.4,0,0.7-0.3,0.7-0.7v-27.5c0-0.4-0.3-0.7-0.7-0.7h-16.2
		C144.4,165,144.1,165.4,144.1,165.7z"/>
	<path class="st0" d="M319.8,165.7v27.5c0,0.4,0.3,0.7,0.7,0.7h16.2c0.4,0,0.7-0.3,0.7-0.7v-27.5c0-0.4-0.3-0.7-0.7-0.7h-16.2
		C320.1,165,319.8,165.4,319.8,165.7z"/>
	<path class="st0" d="M229.6,214.2v-3.5l-12.9-12.9l5.4-5.4l15.1,15.1v6.6h5.8v-7.6l22.7-22.7l5.4,5.4l-20.5,20.5v4.4h48.3
		c1-0.1,1.9-0.1,2.7-0.1l-5.9-64H183.8l-5.9,64c0.8,0,1.7,0,2.7,0.1L229.6,214.2L229.6,214.2z"/>
	<path class="st0" d="M240,30C124,30,30,124,30,240s94,210,210,210s210-94,210-210S356,30,240,30z M339.3,350h-117l0,0
		c-7.4-0.3-14.4-3.6-19.6-9.4c-2.6-2.9-4.5-6.4-5.6-10.1c-0.6-2-1-4-1.1-6.1h-70.8l5.5-81.8h37l8.5-92.6h-19.4v7.4h4.3
		c4.6,0,8.3,3.7,8.3,8.3v27.5c0,4.6-3.7,8.3-8.3,8.3h-16.2c-4.6,0-8.3-3.7-8.3-8.3v-27.5c0-4.6,3.7-8.3,8.3-8.3h4.3v-15H177
		c1.8-12,11.4-21,23.1-21h79.5c11.7,0,21.3,8.9,23.1,21h29.8v15h4.3c4.6,0,8.3,3.7,8.3,8.3v27.5c0,4.6-3.7,8.3-8.3,8.3h-16.2
		c-4.6,0-8.3-3.7-8.3-8.3v-27.5c0-4.6,3.7-8.3,8.3-8.3h4.3V150h-21.5l8.5,92.6h42l3.8,56.4c5.9,4.4,10,11.1,10.9,18.8
		c0.1,0.9,0.2,1.8,0.2,2.7l0,0C368.8,336.8,355.6,350,339.3,350z"/>
	<path class="st0" d="M199.5,228.8c-5.7-5.2-13.8-6.7-19.4-7h-3l-1.9,20.8H206C205.4,236.9,203.2,232.2,199.5,228.8z"/>
	<path class="st0" d="M362.1,318.5c-1.2-10.4-10-18.3-20.5-18.6l-5.7-0.1l2.9-4.8c2.1-3.4,2.9-7.2,2.5-11c-0.5-4.6-2.9-8.8-6.5-11.7
		c-3.7-2.9-8.2-4.2-12.9-3.6c-3.8,0.5-7.3,2.2-10.2,5l-2.5,2.5l-2.3-2.6c-4.6-5.3-11.5-8-18.4-7.2c-6.7,0.8-12.5,4.7-15.9,10.6
		l-1.8,3.2l-3-2.2c-5.4-3.9-11.9-5.7-18.4-4.9c-12.7,1.5-22.5,12.3-22.9,25.1l-0.1,3.1h-3.2h-0.9c-0.5,0-1,0-1.4,0
		c-11.6,1.4-19.9,11.9-18.5,23.5c0.7,5.6,3.5,10.6,7.9,14.1c3.4,2.7,7.5,4.2,11.8,4.5v0.1h117c12.7,0,23-10.3,23-23H362
		C362.2,319.9,362.2,319.2,362.1,318.5z"/>
	<path class="st0" d="M210.4,298H157v-7.6h64.2c3.4-12.5,14.2-22.2,27.5-23.8c7-0.8,14,0.7,20.1,4.2c4.5-6.1,11.4-10.1,18.9-11
		c8-0.9,16,1.7,21.9,7c3.4-2.6,7.3-4.2,11.5-4.7c6.4-0.7,12.7,1,17.7,5s8.2,9.7,9,16c0.4,3.7,0,7.3-1.3,10.8
		c1.1,0.2,2.2,0.5,3.3,0.9l-3-44.6h-34.2H166.9h-29.1l-4.5,66.6h63.1c0.9-4.2,2.7-8.2,5.4-11.6C204.2,302.2,207.1,299.7,210.4,298z"
		/>
</g>
</svg>
