<?xml version="1.0" encoding="utf-8"?>
<!-- Generator: Adobe Illustrator 28.1.0, SVG Export Plug-In . SVG Version: 6.00 Build 0)  -->
<svg version="1.1" id="Layer_1" xmlns="http://www.w3.org/2000/svg" xmlns:xlink="http://www.w3.org/1999/xlink" x="0px" y="0px"
	 viewBox="0 0 480 480" style="enable-background:new 0 0 480 480;" xml:space="preserve">
<style type="text/css">
	.st0{fill:#FFFFFF;}
</style>
<circle cx="240" cy="240" r="190"/>
<path class="st0" d="M240,30C124,30,30,124,30,240s94,210,210,210s210-94,210-210S356,30,240,30z M112.1,220.2h80.4
	c4.6,0,8.5-1.6,11.5-4.6s4.6-6.9,4.6-11.5s-1.6-8.5-4.6-11.5s-6.9-4.6-11.5-4.6s-8.5,1.6-11.5,4.6c-2.1,2.1-3.5,4.6-4.2,7.5h-8.2
	c0.7-5.1,2.9-9.4,6.7-13.1c4.7-4.7,10.3-7,17.2-7s12.5,2.3,17.2,7s7,10.3,7,17.2s-2.3,12.5-7,17.2s-10.3,7-17.2,7h-80.4V220.2z
	 M174.5,303c-3.9,3.9-8.6,5.9-14.3,5.9s-10.3-1.9-14.3-5.9c-3-3-4.8-6.3-5.5-10.2h8.3c0.6,1.7,1.5,3.2,2.9,4.6
	c2.3,2.3,5.3,3.5,8.6,3.5s6.3-1.2,8.6-3.5s3.5-5.3,3.5-8.6s-1.2-6.3-3.5-8.6s-5.3-3.5-8.6-3.5h-48.1v-8h48.1
	c5.7,0,10.3,1.9,14.3,5.9c3.9,3.9,5.9,8.6,5.9,14.3C180.3,294.4,178.4,299,174.5,303z M224.3,337.6c-0.2,0.7-0.5,1.4-1,2.1
	c-0.5,0.6-1,1-1.8,1.5c-1.3,0.8-3,1.1-4.4,0.7c-3.1-0.8-5.1-4.2-4.3-7.3c0.4-1.5,1.3-2.9,2.7-3.7c1.4-0.9,3-1,4.5-0.6
	c0.8,0.2,1.5,0.5,2.1,1c0.7,0.4,1.2,1.1,1.6,1.7c0.4,0.7,0.7,1.5,0.8,2.3C224.6,336,224.5,336.8,224.3,337.6z M233.8,285.8
	c-3.8,3.8-8.1,5.9-13.1,6.7v-8.2c2.9-0.7,5.4-2.1,7.5-4.2c3.1-3.1,4.6-6.9,4.6-11.5s-1.6-8.5-4.6-11.5c-3.1-3.1-6.9-4.6-11.5-4.6
	H112.1v-8h104.6c6.9,0,12.5,2.3,17.2,7c4.7,4.7,7,10.3,7,17.2S238.5,281.1,233.8,285.8z M271,356.6c-0.2,0.7-0.5,1.4-1,2.1
	c-0.5,0.6-1,1-1.8,1.5c-1.3,0.8-3,1.1-4.4,0.7c-3.1-0.8-5.1-4.2-4.3-7.3c0.4-1.5,1.3-2.9,2.7-3.7c0.7-0.4,1.4-0.6,2.2-0.7
	c0.8-0.1,1.6-0.1,2.3,0.2c1.6,0.4,2.9,1.3,3.7,2.7c0.4,0.7,0.7,1.4,0.8,2.3C271.3,355.1,271.2,355.8,271,356.6z M280.4,310.6
	c-0.4,1.5-1.3,2.7-2.7,3.6c-1.3,0.8-3,1.1-4.4,0.7c-3.1-0.8-5.1-4.2-4.3-7.3c0.4-1.5,1.3-2.9,2.7-3.7c0.7-0.4,1.4-0.6,2.2-0.7
	c0.8-0.1,1.6-0.1,2.3,0.2c0.8,0.2,1.5,0.5,2.1,1c0.7,0.4,1.2,1.1,1.6,1.7c0.4,0.7,0.7,1.5,0.8,2.3
	C280.7,309,280.6,309.8,280.4,310.6z M323.9,329.6c-0.2,0.7-0.5,1.4-1,2c-0.4,0.7-1.1,1.2-1.7,1.6c-1.3,0.8-3,1.1-4.4,0.7
	c-3.1-0.8-5.1-4.3-4.3-7.3c0.3-1.6,1.4-2.9,2.7-3.7c0.6-0.4,1.4-0.7,2.2-0.7c0.7-0.2,1.6-0.1,2.3,0.2c0.8,0.1,1.5,0.5,2.1,1
	c0.7,0.4,1.1,1,1.6,1.7C324,326.4,324.3,328,323.9,329.6z M342,279.8c-0.5,1.5-1.4,2.8-2.8,3.6c-0.6,0.4-1.4,0.7-2.1,0.8
	c-0.8,0.1-1.7,0-2.3-0.2c-3.1-0.8-5.1-4.3-4.3-7.3c0.4-1.5,1.3-2.9,2.7-3.7c1.4-0.8,3-1,4.6-0.6c0.7,0.3,1.4,0.5,2.1,1
	c0.6,0.5,1.1,1.1,1.5,1.8C342.1,276.7,342.3,278.2,342,279.8z M360.3,205.9h-33.6l25.6,25.8l-5.3,5.5l-31.3-31.3h-17.1v17l31.3,31.4
	l-5.3,5.5l-26-26v33.8H291v-33.8l-25.8,25.8l-5.5-5.4l31.3-31.3v-17h-17l-30.8,30.8l-5.6-5.3l25.5-25.6h-33.8v-7.6h33.8l-25.9-25.9
	l5.5-5.5l31.3,31.4h17v-17.1l-30.8-30.8l5.4-5.6l25.5,25.4v-33.6h7.6v33.6l25.9-25.8l5.4,5.5l-31.3,31.3v17.1h17.1l30.9-30.9
	l5.5,5.4l-25.4,25.6h33.6v7.6H360.3z"/>
</svg>
