<?xml version="1.0" encoding="utf-8"?>
<!-- Generator: Adobe Illustrator 28.1.0, SVG Export Plug-In . SVG Version: 6.00 Build 0)  -->
<svg version="1.1" id="Layer_1" xmlns="http://www.w3.org/2000/svg" xmlns:xlink="http://www.w3.org/1999/xlink" x="0px" y="0px"
	 viewBox="0 0 480 480" style="enable-background:new 0 0 480 480;" xml:space="preserve">
<style type="text/css">
	.st0{fill:#FFFFFF;}
</style>
<circle cx="240" cy="240" r="170"/>
<path class="st0" d="M240,30C124,30,30,124,30,240s94,210,210,210s210-94,210-210S356,30,240,30z M342.7,260.5h-41.1v-7.2h41.1
	V260.5z M342.7,228.6H244h-15.7h-53.8c0.3,0.4,0.6,0.8,0.8,1.1c5.8,8.3,9.3,18.1,10,28.2c0.6,0,1.1,0,1.6,0c1.8,0,3.5,0.1,5.2,0.3
	v-4.9h41.1v7.2h-30.8c14.6,5.1,26,17.2,30.1,32.2h110.2v8H233.9c0.1,1.4,0.2,2.9,0.2,4.4c0,1.2,0,2.3-0.1,3.5l-0.1,1l1,0.1
	c15.9,1.6,27.8,14.9,27.8,30.8c0,17.1-13.9,31-31,31h-33.6V364h33.6c13,0,23.5-10.5,23.5-23.5S244.7,317,231.7,317l-2.1,0.3
	l-2.4-1.8c-0.9-1-1.4-2.4-1.1-3.7c0.4-2.3,0.6-4.5,0.6-6.7c0-17.9-12.1-33.6-29.3-38.3c-3.4-0.9-6.9-1.4-10.4-1.4
	c-5.5,0-10.9,1.1-16.1,3.4c-7.9,3.5-14.5,9.5-18.7,17.1l-1.8,3.2l-3.2-1.7c-4.5-2.4-9.3-3.6-14.3-3.6c-4.4,0-8.9,1-12.9,2.9v-8.1
	c4.1-1.5,8.5-2.3,12.9-2.3c4.8,0,9.4,0.9,13.9,2.6l0.7,0.3l0.4-0.7c5.8-8.5,14.4-15,24.3-18.3c1.8-0.6,3.7-1.1,5.6-1.5
	c-0.8-11.9-5.9-23.1-14.5-31.6c-4.1-4.1-8.9-7.4-14.2-9.9c-6.5-3-13.5-4.5-20.7-4.5c-2.2,0-4.5,0.2-6.7,0.5v-7.6
	c2.2-0.3,4.5-0.4,6.7-0.4c14.5,0,28.3,5.5,38.9,15.4c0.2,0.2,0.4,0.4,0.5,0.5h60.3l0,0h17.1c12.3-0.7,22.2-11,22.2-23.5
	c0-13-10.5-23.5-23.5-23.5l-2.1,0.3l-2.4-1.8c-0.9-1-1.4-2.4-1.1-3.7c0.4-2.3,0.6-4.5,0.6-6.7c0-21.9-17.8-39.8-39.8-39.8
	c-14.4,0-27.7,7.8-34.8,20.5l-1.8,3.2l-3.2-1.7c-2.8-1.5-5.8-2.5-8.8-3.1v-7.6c2.9,0.4,5.7,1.2,8.4,2.2l0.7,0.3l0.4-0.7
	c8.8-12.9,23.4-20.6,39-20.6c26,0,47.2,21.2,47.2,47.2c0,1.2,0,2.3-0.1,3.5l-0.1,1l1,0.1c15.9,1.6,27.8,14.9,27.8,30.8
	c0,9.4-4.2,17.8-10.8,23.5h78.6v7.6H342.7z M287.9,253.2v7.2h-41.1v-7.2H287.9z"/>
</svg>
