<!-- Generated by IcoMoon.io -->
<svg version="1.1" xmlns="http://www.w3.org/2000/svg" viewBox="0 0 1024 1024">
<title></title>
<g id="icomoon-ignore">
</g>
<path d="M498.455 263.639h15.515v480.97h-15.515v-480.97zM506.213 398.62l-88.436-88.436 10.861-10.861 77.576 77.576 77.576-77.576 10.861 10.861-88.436 88.436zM506.213 322.596l-46.545-46.545 10.861-10.861 35.685 35.685 35.685-35.685 10.861 10.861-46.545 46.545zM543.449 746.16l-35.685-35.685-35.685 35.685-10.861-10.861 46.545-46.545 46.545 46.545-10.861 10.861zM729.631 432.754l-63.612-17.067 17.067-63.612 15.515 4.655-13.964 49.648 49.648 13.964-4.655 12.412zM329.34 660.826l-15.515-4.655 13.964-49.648-49.648-13.964 4.655-15.515 63.612 17.067-17.067 66.715zM282.795 432.754l-4.655-15.515 49.648-13.964-13.964-49.648 15.515-4.655 17.067 63.612-63.612 20.17zM683.086 660.826l-17.067-63.612 63.612-17.067 4.655 15.515-49.648 13.964 13.964 49.648-15.515 1.552zM585.34 710.475l-77.576-77.576-77.576 77.576-10.861-10.861 88.436-88.436 88.436 88.436-10.861 10.861zM293.849 390.244l7.758-13.436 416.52 240.485-7.758 13.436-416.52-240.485zM293.655 483.954l-4.655-15.515 107.055-27.927-27.927-107.055 15.515-4.655 32.582 121.018-122.57 34.133zM631.886 679.445l-32.582-121.018 121.018-32.582 4.655 15.515-107.055 26.376 27.927 107.055-13.964 4.655zM293.475 618.131l416.568-240.437 7.756 13.438-416.568 240.437-7.756-13.438zM720.322 483.954l-121.018-32.582 32.582-121.018 15.515 4.655-27.927 107.055 107.055 27.927-6.206 13.964zM382.092 679.445l-15.515-4.655 27.927-107.055-107.055-27.927 4.655-15.515 121.018 32.582-31.030 122.57z"></path>
</svg>
