<svg xmlns="http://www.w3.org/2000/svg" width="155" height="176" viewBox="0 0 155 176" fill="none">
  <g clip-path="url(#clip0_7571_19568)">
    <path d="M27.8653 113.123C27.7473 112.922 27.6264 112.738 27.517 112.537C27.3068 112.154 27.1369 111.723 26.97 111.318C26.8865 111.116 26.7339 110.901 26.6792 110.708C26.5928 110.403 26.8116 110.403 26.8519 110.13C26.9527 109.463 25.8587 109.929 25.7464 109.288C25.6313 108.635 26.2186 108.465 26.6993 108.359C27.2751 108.233 27.2579 107.715 26.9901 107.284C26.8922 107.129 26.5756 106.873 26.6159 106.671C26.6418 106.548 26.8174 106.508 26.875 106.413C26.9153 106.344 26.9441 106.177 26.9613 106.094C27.016 105.818 26.9642 105.582 27.2636 105.49C27.4997 105.418 27.6926 105.559 27.874 105.68C28.1417 105.855 28.3432 106.148 28.706 106.091C28.729 105.665 28.6542 105.565 28.372 105.266C28.1446 105.024 27.9574 104.774 28.1215 104.435C28.1762 104.32 28.3116 104.282 28.3922 104.187C28.4613 104.107 28.4901 103.983 28.5563 103.888C28.6887 103.707 28.8269 103.604 28.9133 103.397C29.0889 102.968 29.1983 102.462 29.3134 102.002C29.3681 101.787 29.3969 101.516 29.4919 101.307C29.5927 101.088 29.7683 100.979 29.9353 100.815C30.1627 100.588 30.2203 100.522 30.5686 100.525C30.8623 100.525 31.0005 100.438 31.2394 100.228C31.4064 100.082 31.5705 99.8978 31.6166 99.6822C31.6799 99.3975 31.631 99.2768 31.8843 99.0784C32.2327 98.8053 32.8171 98.42 33.2662 98.6989C33.4879 98.8369 33.5253 99.1618 33.7384 98.8973C33.8535 98.7535 33.891 98.4545 33.8823 98.259C33.8679 97.8594 33.4677 97.3332 33.0388 97.3016C32.6041 97.2671 32.1866 97.7357 31.7893 97.8852C31.4467 98.0117 30.7327 98.0692 30.393 97.9082C30.1886 97.8105 29.9122 97.6207 29.7222 97.4856C29.5265 97.3476 29.4372 97.1837 29.4919 96.925C29.5869 96.4678 30.0648 96.2551 30.4189 96.0279C30.8393 95.7606 31.2711 95.5018 31.6972 95.2344C31.893 95.1108 32.0945 94.9814 32.2874 94.8405C32.4947 94.6882 32.5494 94.53 32.6933 94.3403C33.0906 93.8113 33.5599 94.8003 33.9082 94.3058C34.0032 94.1707 34.0205 93.7739 33.9687 93.6158C33.8996 93.4116 33.629 93.1903 33.9514 92.9833C34.2307 92.805 35.054 93.0149 35.3132 93.15C35.6442 93.3225 35.6126 93.3915 35.8429 93.0638C36.007 92.828 36.1768 92.7475 36.0473 92.4744C35.9494 92.2645 35.745 92.207 35.9753 91.9511C36.1164 91.7959 36.387 91.7269 36.5712 91.6463C36.9455 91.4853 37.4148 91.3588 37.7343 91.1231C38.1288 90.8298 38.4253 90.4762 38.8571 90.2088C39.0558 90.0852 39.3293 90.0133 39.5049 89.8954C39.7698 89.7201 39.6057 89.5964 39.3293 89.5475C38.8658 89.4613 38.4023 89.7747 37.9675 89.8897C37.7574 89.9472 37.4954 90.0622 37.2708 90.0076C37.1384 89.9759 37.0463 89.8581 36.9513 89.7747C36.8073 89.6482 36.839 89.6482 36.6547 89.5792C36.1883 89.4009 35.9897 89.1077 35.6068 88.8173C35.2441 88.5384 34.841 88.4723 34.4092 88.3084C33.937 88.1301 33.4332 87.8283 33.3353 87.3136C33.2979 87.1095 33.272 86.799 33.3123 86.5862C33.3843 86.2211 33.8161 86.132 34.104 85.9825C34.3458 85.8588 34.4667 85.7927 34.7374 85.7438C35.1807 85.6633 35.6903 85.4132 36.0185 85.1113C36.3899 84.7692 36.7382 84.5794 37.2104 84.4069C37.4925 84.3034 38.4051 84.4386 38.3504 83.9929C38.2583 83.2339 36.0761 84.1855 35.7277 84.4069C35.4225 84.6024 35.0656 85.0423 34.7402 84.6111C34.4149 84.1798 34.9245 83.438 34.7115 82.9838C34.6078 82.7624 34.3372 82.6618 34.2451 82.4318C34.1472 82.1903 34.1846 81.9631 34.0407 81.7417C33.9284 81.5664 33.7643 81.3047 33.6059 81.161C33.4332 81.0057 33.2144 80.9051 33.0273 80.77C32.8862 80.6693 32.6559 80.425 32.5033 80.3905C32.1981 80.3215 31.6569 81.3277 31.3978 80.6607C31.274 80.3416 31.9045 79.8298 32.1521 79.7004C32.3824 79.5797 32.5263 79.6113 32.7279 79.6717C32.8632 79.7119 33.2173 79.8039 33.1136 79.4388C32.9783 78.9615 32.224 79.4331 32.2989 78.8005C32.3651 78.2543 33.1165 77.8518 33.0244 77.2911C32.9236 76.673 32.2701 77.4291 32.0427 77.5499C32.0369 77.248 31.1819 76.788 31.8642 76.5379C31.9477 76.5062 32.1146 76.5494 32.1837 76.5034C32.2442 76.466 32.2989 76.2992 32.3478 76.2389C32.4774 76.075 32.7566 75.9887 32.7595 75.7587C32.3306 75.661 31.8814 75.3418 31.7749 74.9106C31.6166 74.2666 31.9505 74.1487 32.3565 73.7491C32.5436 73.5651 32.676 73.4156 32.5897 73.1395C32.4774 72.7802 32.3536 72.8894 32.1319 73.0274C31.893 73.1769 31.1387 73.4414 31.1646 72.8463C31.1761 72.6192 31.3978 72.1908 31.5187 72.0039C31.6454 71.8055 31.8354 71.7739 32.0427 71.6618C32.4889 71.4203 32.8257 71.0896 33.1338 70.7187C33.2921 70.5261 33.5167 70.3996 33.2 70.2904C33.0158 70.2271 32.6271 70.276 32.4428 70.3134C31.8786 70.4255 31.8901 70.897 31.536 71.2133C31.0408 71.656 30.7731 71.0206 30.6118 70.6411C30.5312 70.4485 30.2923 70.2415 30.2923 70.0316C30.2923 69.8361 30.4794 69.6435 30.5255 69.4508C30.583 69.2093 30.5514 69.034 30.7874 68.8787C30.9919 68.7436 31.2107 68.7666 31.4295 68.8701C31.6339 68.965 32.6933 69.5831 32.5638 68.8701C32.5004 68.5279 31.7577 68.2893 31.4957 68.1082C31.1041 67.8379 30.704 67.5562 30.6435 67.0415C30.6118 66.7626 30.6147 66.6016 30.8191 66.4608C31.0149 66.3256 31.2855 66.3055 31.4813 66.133C31.677 65.9605 31.7605 65.7621 31.749 65.5005C31.7317 65.144 31.5964 65.1699 31.3201 65.0002C31.035 64.8249 30.7731 64.6869 31.0811 64.4338C31.3632 64.201 32.1924 63.9221 32.0168 63.4333C31.9304 63.1889 31.6972 63.1717 31.5072 63.0711C31.0581 62.8324 30.8738 62.4558 30.7068 62.0159C30.5917 61.714 30.6521 61.6738 30.8393 61.4093C30.8767 61.3547 31.0005 61.208 31.0206 61.1534C31.0897 60.955 31.0869 61.0211 30.94 60.909C30.6896 60.7193 30.347 60.6071 30.0504 60.6991C29.7222 60.7998 29.4315 61.0758 29.6906 61.4035C29.8144 61.5617 29.9871 61.6479 30.085 61.8722C30.1426 62.0044 30.108 62.5881 30.0562 62.7433C29.9698 63.0021 29.7107 63.0912 29.5034 63.2004C29.2559 63.3298 29.1465 63.4563 28.9651 63.6518C28.7722 63.856 28.5937 63.902 28.2885 63.8473C27.7271 63.7496 27.753 63.1717 27.9402 62.7433C28.1014 62.3695 28.3231 61.9354 28.2885 61.4955C28.2655 61.1965 28.0697 61.1361 27.9402 60.9148C27.8365 60.7365 27.7444 60.3398 27.445 60.3628C27.3154 60.3714 27.2521 60.5266 27.1629 60.5956C27.0103 60.7106 27.0506 60.7135 26.8433 60.7394C26.5122 60.7825 26.351 60.5496 26.0861 60.5123C26.1178 60.5151 25.8645 60.7538 25.8587 60.7796C25.8299 60.8918 25.9019 61.0183 25.9479 61.116C26.0602 61.3662 26.2531 61.6077 26.4374 61.806C26.6159 61.9987 26.8404 62.036 26.8375 62.3379C26.8375 62.5651 26.5439 62.7232 26.5496 62.9101C26.5554 63.1142 26.8491 63.1286 26.8692 63.3528C26.8894 63.5857 26.6187 63.7525 26.4402 63.8473C26.1408 64.0055 25.3491 64.1895 25.4672 63.5828C25.4787 63.5167 25.5967 63.4103 25.6284 63.3298C25.6744 63.2148 25.6802 63.1142 25.6802 62.9676C25.6802 62.7203 25.6687 62.5564 25.542 62.3581C25.4096 62.1482 25.1821 62.0475 25.0468 61.8405C24.8799 61.5904 25.0843 61.438 25.0123 61.1706C24.9864 61.0786 24.8108 60.8429 24.7503 60.7653C24.6006 60.5841 24.5401 60.587 24.3156 60.5036C24.1256 60.4318 23.9557 60.3053 23.734 60.3283C23.5268 60.3513 23.3943 60.564 23.2101 60.5899C22.761 60.6474 22.4903 60.0724 22.9481 59.8337C23.1179 59.7446 23.2993 59.7791 23.4721 59.6957C23.6189 59.6239 23.7657 59.5089 23.8636 59.3795C23.3713 59.1955 23.3857 58.1058 22.8329 58.149C22.6631 58.1633 22.4097 58.5141 22.283 58.6435C22.0873 58.8418 21.9692 58.9683 22.0268 59.2214C22.0556 59.3479 22.2082 59.391 22.1161 59.552C22.0729 59.6267 21.8397 59.6756 21.7591 59.7187C21.5057 59.851 21.356 59.9315 21.2639 59.575C21.1833 59.2674 21.3762 59.253 21.4625 58.9942C21.5345 58.7815 21.4453 58.4738 21.4366 58.2697C21.4251 57.9333 21.6526 57.2864 21.8829 57.0564C22.0642 56.8753 22.3493 56.9213 22.4644 56.6137C22.5479 56.398 22.3896 56.1019 22.6084 55.9524C22.8157 55.8087 23.2043 55.9208 23.2417 56.1795C23.2907 56.4929 22.8617 56.4785 22.9251 56.7603C22.951 56.8724 23.3799 57.1484 23.4721 57.2462C23.5872 57.3669 23.8319 57.7004 24.0248 57.6602C24.5401 57.5538 24.1227 56.7402 24.0594 56.5217C23.9269 56.0588 24.1285 55.5844 24.2494 55.1848C24.3588 54.8283 24.1515 53.9111 24.8079 54.0865C25.2109 54.1957 25.0094 54.3912 24.8885 54.6299C24.8079 54.788 24.7647 54.7219 24.8683 54.8915C24.9115 54.9605 25.1505 55.1158 25.2455 55.1014C25.6572 55.0353 25.6514 54.2734 25.7119 53.9686C25.7954 53.5316 26.0314 53.2326 25.9739 52.7208C25.9479 52.4937 25.3952 51.6571 25.827 51.4702C26.5496 51.1568 26.4949 52.4218 26.5928 52.7208C26.6792 52.9796 26.7195 53.1607 26.731 53.4482C26.7425 53.7616 26.6043 53.8479 26.5324 54.1152C26.4662 54.3625 26.6101 54.5839 26.6706 54.7822C26.8174 55.2624 26.6821 55.6908 26.4604 56.1105C26.3539 56.3147 26.3021 56.5332 26.1178 56.6482C25.8817 56.7977 25.6744 56.6654 25.6744 57.0421C25.6744 57.1427 25.6428 57.2376 25.7666 57.3094C25.9278 57.4014 25.9249 57.2577 26.0861 57.2232C26.3193 57.1714 26.6072 57.3008 26.8059 57.3756C27.2665 57.5509 27.9114 57.5538 27.8308 56.8753C27.8106 56.7085 27.2262 55.6649 27.8624 55.8C28.1503 55.8604 28.0812 56.2227 28.444 56.1882C28.7117 56.1623 28.8384 55.9783 28.8211 55.7166C28.8039 55.4665 28.5591 55.3343 28.5591 55.0784C28.5591 54.9174 28.7117 54.6845 28.8269 54.5551C29.0428 54.3194 29.1695 54.4027 29.4545 54.3165C29.6186 54.2676 29.9813 54.0894 29.8691 53.8651C29.7942 53.7127 29.4056 53.7012 29.3077 53.5115C29.181 53.2642 29.4372 53.1118 29.4603 52.8991C29.4862 52.672 29.3019 52.4506 29.1695 52.2838C28.991 52.0596 28.7722 52.1544 28.5937 51.9704C28.3893 51.7634 28.5505 51.6024 28.6801 51.3954C28.8096 51.1913 28.8269 50.9412 29.0227 50.783C29.3537 50.5185 30.0303 50.5962 30.3009 50.9239C30.5427 51.2143 30.3182 51.1942 30.1167 51.4386C29.9382 51.6542 29.9785 51.7979 30.1829 51.9676C30.5024 52.2349 31.2394 52.3672 31.1703 52.8962C31.1358 53.1521 31.0264 53.2987 31.0264 53.592C31.0264 53.8047 30.9688 54.1152 31.0264 54.3194C31.107 54.6097 31.844 55.3975 31.8124 54.6672C31.8008 54.3999 31.6396 54.2475 31.6367 53.9715C31.6367 53.6782 31.7577 53.5891 31.893 53.3562C32.0312 53.1147 32.0225 53.0112 32.2701 52.8617C32.5263 52.7065 32.7682 52.6691 32.8862 53.0141C32.9927 53.3275 33.0301 53.4568 33.2864 53.7185C33.5224 53.9629 33.724 54.2992 33.9629 54.5206C34.1673 54.4602 34.2364 54.1727 34.1961 53.9715C34.1673 53.8277 34.0896 53.8019 34.0205 53.6811C33.9687 53.592 33.9543 53.4683 33.9082 53.3907C33.7931 53.2038 33.5858 53.1607 33.4677 52.9853C33.4073 52.8933 33.2662 52.557 33.2979 52.4362C33.5138 52.3528 33.865 52.0251 33.7009 51.7979C33.5915 51.6484 33.2346 51.5248 33.082 51.3925C32.8718 51.2085 32.8344 51.0102 32.6818 50.8032C32.5494 50.6249 32.319 50.5157 32.1924 50.3403C32.0196 50.0988 32.1751 49.9521 32.4486 49.9349C32.7048 49.9176 32.9035 50.0815 33.1194 50.1678C33.5397 50.3345 34.0147 50.507 34.4264 50.7284C34.9763 51.0245 35.5579 51.2603 36.0271 51.6513C36.2114 51.8066 36.4849 52.0078 36.3755 52.2896C36.2258 52.6777 35.7968 52.7467 36.3467 52.9853C36.4849 53.0457 36.6231 53.2038 36.8073 53.155C36.816 53.0802 37.3831 52.7611 37.5098 52.7208C37.8696 52.6058 38.1748 52.8013 38.4397 52.9767C38.7592 53.1895 38.8168 53.3533 38.6067 53.7012C38.4771 53.9197 38.1662 54.2619 38.4454 54.512C38.6671 54.2791 38.8658 54.4631 39.0587 54.2964C39.2573 54.1267 39.1249 53.868 39.3782 53.7587C39.9684 53.5057 39.8792 54.4919 39.8936 54.811C39.9079 55.1244 40.049 55.2509 40.1843 55.5154C40.3196 55.7799 40.2592 55.984 40.2995 56.2629C40.334 56.5015 40.4924 56.6079 40.5615 56.8149C40.7342 57.3526 40.5269 57.9678 40.7083 58.5285C40.786 58.7671 41.0998 59.1322 41.3992 59.1035C41.4827 58.8965 41.6123 58.7038 41.6727 58.5055C41.7764 58.1633 41.6641 58.2381 41.5489 57.9707C41.3762 57.5682 41.5921 57.0248 41.7821 56.6999C41.9174 56.4728 41.8858 56.3175 42.1593 56.2629C42.4069 56.214 42.6372 56.3319 42.833 56.4297C43.0374 56.5332 44.1688 56.9184 44.0162 56.3262C43.7542 56.2917 42.9769 56.0674 42.7984 55.8604C42.7178 55.7684 42.7495 55.662 42.6919 55.5671C42.6516 55.501 42.4846 55.409 42.4788 55.3371C42.4731 55.2308 42.8761 54.9231 42.9827 54.8771C43.2015 54.7765 43.4807 54.8225 43.7024 54.7334C43.8032 54.6931 43.8866 54.5868 43.9903 54.5522C44.1486 54.5005 44.3214 54.5264 44.4883 54.4919C44.8828 54.4114 45.4211 54.1066 45.2945 53.5948C45.2628 53.4712 45.1476 53.3965 45.1188 53.2757C45.044 52.9595 45.1534 52.6863 45.3895 52.4908C45.5967 52.3212 45.9278 52.2148 45.853 51.8813C45.7205 51.3005 45.0497 52.0279 44.8568 52.2292C44.5603 52.5455 44.7014 53.1521 44.1947 53.2671C43.711 53.3792 43.1468 53.2096 42.6832 53.1578C41.8743 53.0658 40.9472 52.7122 40.3052 52.1918C40.1267 52.0481 39.8417 51.8928 39.7669 51.6484C39.6776 51.3523 39.9079 51.2344 40.2102 51.2718C40.4118 51.2977 40.3743 51.3379 40.524 51.4184C40.645 51.4846 40.6536 51.5909 40.8148 51.4961C41.0682 51.3494 40.8753 51.0964 40.7975 50.9757C40.6507 50.7399 40.6133 50.6594 40.5874 50.3432C40.5672 50.1131 40.524 49.7998 40.2592 50.047C40.1124 50.185 40.0951 50.4639 39.9713 50.6335C39.8043 50.8607 39.5625 50.9843 39.2775 51.036C38.9118 51.1022 38.1633 51.1022 38.2612 50.6335C38.3677 50.1304 38.6038 49.6589 38.6585 49.15C38.7017 48.7389 38.6844 48.2472 39.0443 47.9655C39.3725 47.7096 39.7496 47.747 39.8849 47.333C40.0116 46.9477 40.2102 46.5136 40.3024 46.1139C40.3628 45.8523 40.2621 45.651 39.9684 45.7488C39.7582 45.8207 39.6373 46.0679 39.479 46.2232C39.1594 46.5366 38.7103 46.6458 38.4138 47.0138C38.028 47.4882 38.0625 47.7901 37.3601 47.7901C37.1211 47.7901 36.7785 47.8562 36.6029 47.6521C36.364 47.3761 36.6116 47.2381 36.7987 47.0541C37.2852 46.5826 36.5252 46.5624 36.3467 46.2146C36.1452 45.8149 36.4878 45.2629 36.3467 44.8201C36.269 44.5844 36.1538 44.4723 36.2258 44.1905C36.3064 43.8771 36.3956 43.8771 36.6605 43.7851C37.0405 43.65 37.2996 43.4056 37.7372 43.3797C37.9819 43.3654 38.2122 43.3711 38.4339 43.466C38.6124 43.5407 38.7852 43.8225 38.9809 43.7794C39.1393 43.7449 39.4387 43.2216 39.479 43.0721C39.5826 42.6897 39.3034 42.2067 39.1594 41.8675C39.0299 41.5627 38.8946 41.5857 38.6642 41.3758C38.4742 41.2033 38.408 40.9158 38.3504 40.6772C38.2612 40.3034 38.3015 39.4697 37.91 39.3719C37.3514 39.2339 36.7238 39.5214 36.1596 39.4006C35.5492 39.2713 35.6183 38.0609 35.4744 37.6009C35.411 37.4054 35.3304 37.207 35.3247 36.9913C35.3189 36.7125 35.483 36.6061 35.5291 36.3531C35.5723 36.1231 35.5118 35.8614 35.5291 35.6257C35.5607 35.1341 35.7565 34.6798 35.8486 34.2025C35.9436 33.708 35.9897 33.1905 35.9667 32.6615C35.9465 32.2245 35.9321 31.9945 35.4427 31.9945C35.2037 31.9945 34.9706 31.9744 34.7489 31.9054C34.438 31.8105 34.5358 31.7501 34.3602 31.5287C34.2681 31.4137 34.1155 31.362 34.0176 31.2441C33.9111 31.1147 33.7988 30.9192 33.6952 30.7726C33.5196 30.5167 33.4534 30.2206 33.3756 29.9273C33.2893 29.6053 33.4476 29.3379 33.3756 29.0303C33.3238 28.8003 33.1194 28.6594 33.1136 28.4208C33.105 28.1678 33.3065 27.9493 33.3756 27.725C33.439 27.5238 33.4677 27.2334 33.7009 27.1155C33.914 27.0062 34.2767 27.1155 34.5099 27.058C34.7489 27.0005 34.8237 26.7072 35.0627 26.7676C35.3794 26.8452 35.411 27.7998 35.4686 28.0758C35.6817 29.0705 36.9887 29.3235 37.8236 29.7232C38.3418 29.9704 38.8686 30.1314 39.3782 30.3988C39.8446 30.6432 40.2361 31.0313 40.6421 31.3878C40.9962 31.6983 41.4655 31.8996 41.6382 32.3452C41.7188 32.5522 41.7217 32.8139 42.0096 32.8397C42.2716 32.8628 42.4126 32.627 42.4184 32.4027C42.427 32.0462 41.9693 31.4683 41.7217 31.2067C41.4079 30.879 40.9876 30.7553 40.6536 30.4218C40.0087 29.7778 38.9752 29.3695 38.1288 29.0935C37.6422 28.9354 37.196 28.7485 36.7267 28.5645C36.2229 28.369 35.8256 28.2425 35.817 27.6186C35.8141 27.2161 35.7507 26.9344 36.0502 26.6756C36.482 26.3018 36.1768 26.2673 36.1164 25.8045C36.0789 25.5141 36.3841 25.3847 36.4964 25.1432C36.6029 24.9161 36.5569 24.6861 36.6864 24.4704C36.7958 24.2836 36.9685 24.1513 37.0923 23.9759C37.3658 23.5964 37.2564 22.9955 37.2996 22.5298C37.3428 22.0698 37.5674 21.4947 37.7948 21.1009C37.8524 21.0031 37.8754 20.9082 37.9474 20.8191C38.0769 20.6552 38.0798 20.7242 38.2295 20.6437C38.3533 20.5776 38.3821 20.5287 38.4915 20.4396C38.6326 20.3217 38.7909 20.2527 38.9608 20.1406C39.3149 19.9048 39.6661 19.6777 39.8964 19.3212C40.1008 19.0021 40.3484 18.9388 40.6507 18.7031C40.9041 18.5047 41.1056 18.2689 41.3359 18.0504C41.8023 17.6048 42.0585 17.024 42.499 16.5698C42.6314 16.4317 42.7552 16.3771 42.8531 16.2247C42.9884 16.0149 43.0201 15.7849 43.2245 15.6124C43.5066 15.3737 43.6218 15.3766 43.7628 15.0402C43.95 14.5975 44.3818 14.3186 44.5862 13.8873C44.805 13.4216 44.9029 12.7919 44.9778 12.283C45.0497 11.7943 45.3175 11.4521 45.6514 11.0985C45.8328 10.9059 46.0257 10.765 46.2272 10.6011C46.3107 10.535 46.3712 10.4315 46.4662 10.374C46.59 10.2964 46.6936 10.3337 46.8088 10.2791C47.0074 10.19 47.1514 9.9916 47.3126 9.84785C47.6062 9.58334 47.8106 9.70697 48.2108 9.69834C48.5908 9.68972 48.7837 9.39071 49.1666 9.37634C49.5639 9.36196 49.9641 9.37634 50.3614 9.37634C50.9141 9.37634 51.4237 9.59484 51.9678 9.64372C52.5235 9.69547 53.1252 9.43384 53.7038 9.43384C54.2365 9.43384 54.6165 9.19808 55.1289 9.17221C55.6817 9.14346 56.3582 9.20383 56.8736 9.36771C57.3803 9.52872 57.6825 9.63797 58.2094 9.52009C58.5088 9.45109 58.5837 9.31884 58.7823 9.08308C58.9867 8.84445 59.0961 8.79845 59.3725 8.70645C59.8274 8.55407 60.3024 8.46207 60.7976 8.38731C61.7764 8.24069 62.8646 7.75768 63.8377 8.17743C64.1055 8.29244 64.3847 8.41607 64.6553 8.52532C64.9461 8.6432 65.1966 8.58282 65.5075 8.62019C66.1121 8.6892 66.6389 8.96808 67.2522 8.96808C67.7848 8.96808 68.3577 9.01695 68.8816 8.93933C69.3451 8.87033 69.7194 8.55982 70.1599 8.47357C70.6695 8.37294 71.1243 8.67195 71.6138 8.6777C72.0974 8.68345 72.558 8.66045 73.0072 8.58857C73.4908 8.51094 73.8968 8.49657 74.3977 8.50232C74.7489 8.50519 75.0656 8.37869 75.3708 8.18318C75.5694 8.05668 75.7335 7.8928 75.889 7.7203C76.0358 7.55355 76.1423 7.31779 76.318 7.19129C76.5425 7.02741 76.7124 7.01591 76.9283 6.78878C77.2565 6.44665 77.6912 6.24827 78.005 5.91763C78.3159 5.58988 78.4887 5.19312 78.6787 4.81361C78.7795 4.61235 78.7593 4.4341 78.8054 4.23572C78.8514 4.04022 79.0011 3.88496 79.0299 3.68371C79.0616 3.44508 79.0472 3.19495 79.0587 2.95632C79.0673 2.72344 79.0184 2.45893 79.0587 2.2318C79.1019 1.99029 79.243 1.80629 79.2631 1.56478C79.3121 1.01277 79.1652 0.532635 79.6978 0.256629C79.9022 0.150251 80.1297 -0.0711288 80.3686 0.0294985C80.5471 0.107125 80.7285 0.368756 80.9214 0.480884C81.8484 1.01852 81.4223 2.72344 81.7707 3.59458C82.0067 4.18684 82.2255 5.00624 82.7178 5.42887C82.9021 5.587 83.1526 6.11889 83.2159 6.35177C83.2792 6.58177 83.3109 6.82615 83.3973 7.04178C83.5614 7.45004 83.7456 7.86693 83.9356 8.26944C84.4135 9.27283 85.0959 10.1555 85.7091 11.087C85.971 11.4838 86.1956 11.9236 86.495 12.2802C86.8319 12.6827 86.9643 13.1312 87.1716 13.6113C87.3558 14.0397 87.5516 14.4537 87.7301 14.8878C88.136 15.8711 88.4959 16.8946 88.7205 17.9383C88.8615 18.5909 89.3193 19.2551 89.9037 19.5943C90.0102 19.6547 90.1283 19.6403 90.2549 19.7323C90.3816 19.8243 90.4507 19.9307 90.5457 20.0515C90.7299 20.293 90.9603 20.523 91.1042 20.799C91.2223 21.0261 91.2453 21.2964 91.3259 21.5379C91.4324 21.8512 91.5965 22.1675 91.7318 22.4665C91.9074 22.8575 92.0773 23.4642 92.4573 23.7143C92.8575 23.9788 93.3152 24.0593 93.6578 24.4446C93.9918 24.8183 94.153 25.2151 94.51 25.5716C94.6971 25.7585 94.8497 25.839 94.939 26.0718C94.9821 26.184 94.9303 26.2558 95.0023 26.3622C95.0484 26.4341 95.2153 26.5175 95.2873 26.5865C95.486 26.7762 95.5464 26.9315 95.6616 27.1529C95.771 27.3627 95.9524 27.4864 96.1395 27.6618C96.485 27.9838 96.7786 28.2885 97.2076 28.5128C97.4926 28.6594 97.4753 28.7284 97.6423 29.0044C97.8669 29.3782 97.9446 29.7404 98.1375 30.1372C98.2555 30.3787 98.3419 30.6346 98.4225 30.8933C98.5664 31.3562 98.7737 31.822 98.9752 32.2647C99.4071 33.2164 99.9195 34.2227 100.524 35.0967C100.861 35.5854 100.861 36.1547 101.054 36.7067C101.152 36.9798 101.212 37.2961 101.281 37.5692C101.414 38.1155 101.67 38.6301 102.24 38.8774C102.724 39.0873 102.951 39.4236 103.369 39.7255C103.59 39.8865 103.697 39.9613 103.723 40.243C103.749 40.5191 103.754 40.5881 103.933 40.8439C104.068 41.0394 104.166 41.2407 104.313 41.4247C104.474 41.6231 104.511 41.8502 104.684 42.0198C104.946 42.2815 105.467 42.3275 105.585 42.7099C105.654 42.9284 105.577 43.1037 105.686 43.3194C105.793 43.5292 105.911 43.673 105.988 43.8714C106.152 44.2883 106.259 44.616 106.282 45.0904C106.311 45.6855 106.25 46.2376 106.224 46.8327C106.207 47.2208 105.931 47.5975 106.101 47.9137C106.253 48.1926 106.607 48.5836 106.892 48.7216C107.221 48.8797 107.295 48.8826 107.477 49.219C107.644 49.5324 107.814 49.8429 108.004 50.1419C108.26 50.5444 108.251 51.0993 108.289 51.5593C108.323 51.9791 108.401 52.3787 108.361 52.7985C108.326 53.1521 108.404 53.5028 108.401 53.8565C108.401 54.2734 108.343 54.6902 108.343 55.11C108.343 55.4521 108.196 56.2025 108.343 56.5044C108.384 56.5907 108.565 56.5964 108.631 56.7057C108.677 56.7833 108.692 56.9702 108.718 57.0564C108.778 57.2519 108.847 57.4359 108.925 57.6343C109.008 57.8442 109.126 58.0426 109.181 58.2525C109.267 58.586 109.109 58.8361 109.135 59.1437C109.161 59.4427 109.4 59.6814 109.472 59.966C109.624 60.564 109.498 60.8486 109.181 61.2885C108.948 61.6134 108.718 62.0389 108.556 62.3983C108.375 62.8066 108.032 63.1429 107.88 63.557C107.742 63.925 108.093 64.2096 108.142 64.546C108.205 64.9657 108.366 65.3021 108.464 65.7075C108.548 66.0554 108.6 66.4263 108.666 66.7828C108.813 67.5504 108.781 68.4101 108.781 69.1921C108.781 69.4451 108.821 69.7383 108.775 69.9856C108.729 70.23 108.568 70.483 108.493 70.7302C108.211 71.6531 108.012 72.5444 107.707 73.4616C107.465 74.1918 107.088 74.8876 106.884 75.6092C106.823 75.8191 106.864 75.9542 106.892 76.1612C106.936 76.466 106.921 76.466 107.123 76.6558C107.321 76.8398 107.347 77.1646 107.462 77.4033C107.647 77.7885 107.707 78.2054 107.707 78.6309C107.707 79.1168 107.946 79.5423 107.825 80.0253C107.77 80.241 107.65 80.4336 107.621 80.6636C107.589 80.9022 107.644 81.1524 107.621 81.391C107.572 81.8826 107.388 82.3196 107.388 82.8429C107.388 83.0844 107.356 83.3345 107.359 83.5703C107.364 83.8377 107.48 83.8952 107.655 84.0935C107.986 84.4673 108.214 84.8554 108.695 85.0711C109.115 85.2608 109.705 85.1717 109.97 84.7577C110.097 84.5593 110.108 84.3638 110.289 84.1712C110.445 84.0044 110.615 83.8664 110.785 83.737C111.032 83.5473 111.234 83.3115 111.398 83.0499C111.525 82.8458 111.594 82.5266 111.752 82.3513C112.017 82.058 112.575 82.1299 112.883 82.3225C113.295 82.5813 113.471 83.0499 113.497 83.5128C113.505 83.6968 113.571 84.0993 113.497 84.2689C113.419 84.4529 113.099 84.5564 112.941 84.6686C112.748 84.8066 112.647 84.9819 112.417 85.0538C112.126 85.1458 112.066 85.0998 111.902 85.4075C111.294 86.5345 111.07 87.6788 110.819 88.915C110.724 89.3779 110.649 89.8581 110.644 90.3382C110.638 90.8845 110.661 91.4106 110.554 91.9339C110.462 92.3939 110.399 92.8424 110.353 93.3225C110.301 93.8515 110.013 94.1275 109.763 94.5473C109.636 94.7629 109.673 95.0102 109.576 95.2229C109.527 95.3264 109.414 95.3782 109.368 95.4759C109.276 95.6801 109.319 95.9072 109.207 96.1257C109.08 96.3672 108.896 96.58 108.994 96.8703C109.069 97.0975 109.262 97.2585 109.36 97.4799C109.449 97.6811 109.492 97.8824 109.518 98.1124C109.604 98.857 109.717 100.174 109.054 100.651C108.329 101.174 108.197 99.7052 107.411 100.208C107.111 100.401 106.95 100.723 106.809 101.022C106.656 101.344 106.665 101.663 106.679 102.005C106.694 102.413 106.625 102.822 106.604 103.227C106.59 103.515 106.501 103.612 106.423 103.86C106.357 104.072 106.412 104.36 106.403 104.593C106.391 104.846 106.325 104.972 106.233 105.179C106.138 105.401 106.15 105.642 106.083 105.872C105.965 106.278 105.657 106.68 105.269 106.83C104.871 106.982 104.69 107.422 104.601 107.813C104.486 108.325 104.391 108.782 104.157 109.268C103.979 109.641 103.826 110.03 103.619 110.4C103.394 110.8 103.023 111.076 102.822 111.47C102.643 111.815 102.177 112.054 101.811 112.226C101.431 112.404 100.979 112.588 100.648 112.841C100.285 113.117 100.334 113.727 100.078 114.098C99.957 114.273 99.7842 114.586 99.6316 114.722C99.4704 114.862 99.22 114.845 99.0213 114.909C98.5837 115.044 98.2066 115.34 97.8006 115.515C97.3688 115.702 96.77 115.567 96.5771 115.139C96.3496 114.63 96.9082 114.279 96.7556 113.773C96.7009 113.589 96.4101 113.298 96.2604 113.192C96.0099 113.017 95.9351 113.083 95.7364 113.278C95.5867 113.425 95.4082 113.672 95.2125 113.767C94.6165 114.057 94.0868 114.25 93.4102 114.354C92.8892 114.431 92.322 114.48 91.8412 114.641C91.6253 114.713 91.3921 114.828 91.1416 114.759C90.9228 114.699 90.8307 114.483 90.6465 114.345C90.252 114.046 89.8231 113.986 89.3653 113.853C88.922 113.727 88.5477 113.327 88.2771 112.982C88.1044 112.764 87.8884 112.677 87.6495 112.545C87.3789 112.393 87.1082 112.439 86.9787 112.114C86.8923 111.893 86.9009 111.64 87.0391 111.447C87.1802 111.251 87.4969 111.174 87.3587 110.895C87.1802 110.533 86.2849 110.636 86.1064 110.961C86.0459 111.07 86.0805 111.26 86.0805 111.389C86.0805 111.657 86.115 111.582 86.2273 111.795C86.2503 111.838 86.2302 111.936 86.2532 111.97C86.2849 112.019 86.3712 112.091 86.4 112.146C86.5008 112.338 86.5526 112.286 86.4058 112.499C86.2618 112.706 86.0373 112.778 86.1409 113.028C86.2158 113.209 86.5468 113.359 86.6965 113.477C87.0478 113.753 87.4681 114.236 86.8347 114.469C86.5612 114.569 86.1582 114.42 86.0718 114.147C85.9538 113.773 86.2302 113.543 85.6486 113.572C85.5795 114.003 85.4212 114.06 85.0037 114.06C84.8569 114.06 84.6439 114.02 84.5086 114.066C84.3848 114.109 84.2782 114.244 84.1314 114.293C83.8003 114.402 83.6362 114.377 83.4405 114.707C83.357 114.848 83.3829 115.032 83.3051 115.17C83.2504 115.268 83.1497 115.305 83.0777 115.389C82.8963 115.604 82.8013 115.846 82.7466 116.122C82.6372 116.668 82.715 117.272 82.4386 117.775C82.3148 117.999 82.263 118.206 82.1852 118.445C82.096 118.724 82.0355 118.833 82.096 119.112C82.1507 119.356 82.2025 119.575 82.2774 119.808C82.3896 120.153 82.1737 120.135 82.0931 120.417C81.9952 120.765 82.4674 121.058 82.3292 121.406C82.2515 121.602 82.0902 121.515 82.1248 121.812C82.1421 121.967 82.404 122.177 82.3896 122.277C82.3724 122.384 82.0989 122.458 82.0384 122.596C81.9664 122.76 82.0355 123.028 81.9146 123.171C81.7361 123.384 81.0682 123.459 81.025 123.059C81.644 122.985 80.9444 122.096 80.7083 121.95C80.1038 121.57 79.4733 121.869 78.8111 121.872C78.4512 121.872 77.982 121.616 78.3534 121.202C78.5952 120.935 79.0558 121.15 79.0731 120.647C79.0817 120.371 78.9205 120.417 78.837 120.216C78.7794 120.078 78.7535 119.796 78.7161 119.638C78.506 119.603 78.2411 119.902 78.1605 120.069C78.0424 120.319 78.2037 120.549 77.8496 120.587C77.5242 120.621 77.4954 120.432 77.3054 120.236C77.1039 120.032 76.9283 120.061 76.6577 120.127C76.2229 120.236 75.7825 120.423 75.3506 120.57C74.867 120.733 74.5762 121.257 74.1012 121.369C73.9428 121.406 73.4246 121.432 73.2778 121.354C73.0014 121.208 73.1194 120.917 73.0187 120.713C72.9093 120.492 72.5926 120.406 72.417 120.265C72.2414 120.124 72.1579 119.914 72.1233 119.69C72.0917 119.463 72.0571 119.218 72.037 119.02C72.0139 118.778 72.1291 118.626 72.1809 118.382C72.227 118.154 72.2327 117.893 72.2702 117.657C72.3133 117.378 72.4112 117.295 72.512 117.056C72.6588 116.708 72.4227 116.527 72.155 116.346C71.7635 116.082 71.6598 116.404 71.536 116.789C71.5015 116.898 71.4641 117.211 71.3403 117.257C71.156 117.326 70.9919 117.03 70.8739 116.964C70.6464 116.835 70.1369 117.022 70.062 117.309C70.062 117.312 71.2136 117.715 70.8998 118.278C70.8163 118.428 70.6263 118.479 70.4938 118.537C70.2031 118.66 70.2434 118.583 69.9987 118.502C69.7799 118.433 69.6474 118.494 69.5121 118.264C69.4373 118.137 69.4459 117.93 69.3567 117.807C69.0169 117.329 68.6916 117.824 68.3778 117.956C68.4527 118.934 67.3069 119.641 66.4259 119.454C66.1812 119.402 66.0171 119.256 65.758 119.227C65.2398 119.175 64.9951 119.026 64.6582 118.617C64.2782 118.154 63.9558 118.361 63.5441 118.678C63.1266 118.997 62.9625 119.388 62.358 119.201C62.1075 119.123 61.9808 118.908 61.7994 119.258C61.6756 119.494 61.7591 119.635 61.5029 119.802C61.12 120.052 60.6133 120.245 60.2275 119.946C59.7928 119.609 59.4732 119.644 59.0356 120.061C58.6038 120.472 58.6441 120.86 58.86 121.375C59.3005 122.424 60.098 123.128 60.6277 124.109C60.7083 124.261 60.8206 124.574 60.9617 124.678C61.1891 124.845 61.3474 124.643 61.5662 124.597C61.9319 124.523 61.906 124.577 61.9952 124.215C62.0413 124.028 62.1046 123.775 62.2687 123.64C62.6372 123.338 63.5124 123.384 63.9788 123.436C64.6553 123.514 64.3329 124.112 64.1832 124.508C64.0249 124.928 63.8377 125.388 63.7168 125.814C63.6132 126.185 63.5297 126.875 63.1353 126.998C62.8963 127.073 62.6977 127.053 62.4674 127.151C62.1737 127.277 61.9693 127.254 61.6526 127.208C61.3676 127.165 61.1718 127.13 60.9905 127.323C60.8264 127.501 60.7457 127.786 60.6421 127.999C60.4377 128.416 60.2678 129.019 59.6978 129.06C59.2631 129.091 58.9666 128.306 58.7679 127.993C58.457 127.504 58.7046 127.128 59.0299 126.737C59.2516 126.469 59.6748 125.822 59.4358 125.474C59.1738 125.092 58.552 125.138 58.2209 124.77C58.0597 124.592 57.9417 124.442 58.1633 124.221C58.3418 124.04 58.6153 124.034 58.5434 123.689C58.48 123.387 58.0942 123.401 57.9388 123.174C57.8207 123.002 57.8351 122.743 57.766 122.536C57.6106 122.07 57.1931 121.515 56.7325 121.975C56.3237 122.387 56.0761 122.513 55.5118 122.398C54.9965 122.292 54.5301 122.553 54.0349 122.651C53.7672 122.706 53.5743 122.775 53.3296 122.66C53.1021 122.553 53.0215 122.389 52.8718 122.711C52.5523 123.396 53.416 123.442 53.7701 123.721C53.9399 123.853 53.9716 124.106 53.8535 124.336C53.7442 124.549 53.4851 124.618 53.3699 124.802C53.2317 125.026 53.4303 125.115 53.6031 125.287C53.6837 125.365 53.747 125.5 53.8881 125.497C54.0695 125.497 54.0349 125.328 54.176 125.285C54.461 125.201 54.5906 125.474 54.5359 125.704C54.4725 125.986 54.1818 126.113 54.0378 126.337C53.842 126.639 53.8219 126.935 54.0263 127.237C54.7288 128.278 56.0876 128.807 56.7383 129.833C57.1413 130.471 56.4475 130.695 55.8717 130.67C56.0732 131.178 56.3669 131.199 56.8534 131.299C57.3486 131.403 57.815 131.759 57.2018 132.127C56.2488 132.697 55.5924 131.469 54.7604 131.417C54.2192 131.383 53.7182 131.308 53.4678 131.823C53.2461 132.277 53.4447 132.685 53.7902 133.027C54.2911 133.525 54.3113 133.105 54.8785 133.042C55.3967 132.984 55.6558 133.415 55.5061 133.901C55.3074 134.545 54.4984 134.729 53.9198 134.824C53.5225 134.887 52.1809 134.778 52.0225 135.192C51.8959 135.526 52.1751 135.503 52.3479 135.678C52.512 135.842 52.5523 136.135 52.2327 136.121C52.0571 136.112 52.0916 136.003 51.9736 135.937C51.8613 135.876 51.726 135.908 51.6224 135.859C51.4237 135.767 51.2481 135.531 51.0696 135.399C50.8911 135.264 50.6464 135.106 50.7875 134.841C50.9084 134.614 51.1502 134.626 51.1877 134.318C51.228 133.996 51.012 133.967 50.8163 133.786C50.5572 133.548 50.4161 133.205 50.1368 132.981C49.7971 132.711 49.2242 132.806 48.8068 132.806C48.5908 132.806 48.3173 132.757 48.1101 132.806C47.8653 132.863 47.8279 133.067 47.6178 133.205C47.2924 133.418 46.9959 133.28 46.7282 133.053C46.3971 132.774 46.4547 132.576 46.7167 132.254C46.8548 132.084 46.9326 131.9 47.0938 131.736C47.2982 131.529 47.3097 131.388 47.4652 131.147C47.5573 131.003 47.8135 130.733 47.9978 130.741C48.2626 130.756 48.2396 131.104 48.1734 131.299C48.1014 131.503 47.8682 131.604 47.7876 131.785C47.6725 132.055 47.9114 132.099 48.1734 132.104C48.4901 132.113 48.5275 132.015 48.7492 131.837C49.1263 131.526 49.515 131.314 49.5409 130.77C49.5524 130.517 49.4603 130.339 49.3883 130.103C49.3192 129.87 49.2041 129.606 49.1551 129.376C49.0889 129.068 49.276 128.746 49.3941 128.476C49.5265 128.174 49.8345 127.516 50.1512 127.404C50.5255 127.268 51.3402 127.625 51.1963 128.065C51.0783 128.43 50.8652 128.41 51.2251 128.712C51.3863 128.847 51.5158 129.065 51.7116 129.025C51.7203 129.025 51.8901 128.878 51.9189 128.855C51.9995 128.801 52.106 128.792 52.1838 128.689C52.3191 128.508 52.2269 128.349 52.2701 128.131C52.3191 127.884 52.5724 127.777 52.5609 127.521C52.5523 127.352 52.3911 127.087 52.322 126.909C52.2154 126.624 52.25 126.17 51.8844 126.084C51.6454 126.029 51.4496 126.242 51.2136 126.228C50.9602 126.21 50.7788 125.983 50.5572 125.888C50.5658 125.641 50.4852 125.385 50.2981 125.218C50.0764 125.486 49.8662 125.46 49.6157 125.65C49.348 125.854 49.181 126.193 48.9478 126.438C48.7924 126.599 48.611 126.693 48.5131 126.903C48.4296 127.079 48.444 127.317 48.231 127.438C47.8538 127.654 47.1514 127.478 46.7167 127.519C46.4748 127.539 46.2963 127.639 46.0775 127.723C45.8645 127.806 45.9163 127.717 45.7925 127.901C45.7205 128.013 45.7177 128.128 45.663 128.237C45.591 128.381 45.5334 128.502 45.3549 128.568C45.2023 129.439 44.3214 129.476 43.665 129.821C43.2763 130.026 42.9136 129.959 42.499 130.043C42.3263 130.077 42.1679 130.207 41.9779 130.25C41.7879 130.293 41.5892 130.33 41.4021 130.371C41.2956 130.785 42.2255 130.733 42.4501 130.879C42.8646 131.15 42.8272 131.768 42.7351 132.222C42.6458 132.668 42.5076 133.102 42.3838 133.53C42.3205 133.749 42.3666 134.013 42.2428 134.2C42.1132 134.396 41.857 134.479 41.7073 134.631C41.6468 134.692 41.4251 134.939 41.4165 135.037C41.4021 135.181 41.5547 135.298 41.5691 135.48C41.6094 135.977 41.1516 135.971 40.8206 135.764C40.691 135.684 40.4952 135.609 40.3715 135.517C40.2189 135.405 40.1699 135.109 39.9137 135.189C39.6546 135.27 39.8129 135.738 39.4963 135.891C39.2631 136.003 38.86 135.986 38.6642 135.807C38.5059 135.661 38.5001 135.402 38.3447 135.273C38.1892 135.146 37.9359 135.146 37.766 134.997C37.3399 134.623 37.7372 134.338 37.8495 133.887C37.9675 133.407 38.0856 133.007 38.0827 132.492C38.0827 132.007 38.0107 131.739 37.8869 131.273C37.8293 131.063 37.8466 130.828 37.815 130.612C37.789 130.414 37.815 130.023 37.5299 130.164C37.3543 130.25 37.3255 130.589 37.2622 130.75C37.1096 131.144 36.9599 131.601 36.8908 132.027C36.8419 132.329 36.8447 132.458 36.6375 132.697C36.5338 132.814 36.2776 133.019 36.2517 133.159C36.1624 133.614 37.0463 134.169 36.4331 134.588C36.2056 134.744 35.9638 134.666 35.7277 134.761C35.5521 134.833 35.3592 135.129 35.2441 135.278C35.4772 135.471 36.269 135.856 36.0703 136.144C35.8803 136.42 35.1174 136.558 34.8208 136.638C34.4466 136.736 33.7614 136.883 33.6117 137.282C33.5282 137.507 33.6031 137.774 33.5253 138.01C33.4505 138.234 33.3555 138.401 33.3094 138.642C33.2461 138.967 32.9524 139.789 32.4947 139.401C32.319 139.252 32.368 138.904 32.0369 138.964C31.8498 138.999 31.6598 139.28 31.4582 139.372C31.1358 139.519 31.0955 139.516 30.8681 139.257C30.6953 139.059 30.4506 138.979 30.3153 138.772C30.0274 138.329 30.5802 137.803 30.3239 137.463C30.0447 137.093 29.2299 137.538 29.0716 136.848C28.968 136.394 29.7366 136.216 29.7424 135.773C29.7539 135.048 28.8211 135.684 28.6138 135.186C28.5505 135.031 28.5419 134.654 28.6081 134.493C28.7204 134.226 28.9017 134.312 29.1263 134.2C29.3307 134.097 29.4372 133.855 29.633 133.749C29.8576 133.631 30.1368 133.654 30.3815 133.625C30.6176 133.599 30.9688 133.539 30.7587 133.246C30.6665 133.119 30.3038 132.964 30.1714 132.904C30.0389 132.843 29.6157 132.835 29.5351 132.688C29.3912 132.432 29.8259 132.429 29.9094 132.228C30.0217 131.963 29.728 131.889 29.5092 131.938C29.3077 131.984 29.1983 132.17 29.1004 132.343C29.0025 132.515 29.1004 132.599 28.8413 132.665C28.6743 132.708 28.4469 132.653 28.3173 132.61C27.9459 132.487 27.7674 132.432 27.3557 132.553C26.6821 132.754 26.4518 131.966 26.1236 131.604C25.8645 131.316 25.2772 131.316 24.9374 131.434C24.687 131.521 24.5517 131.627 24.2753 131.644C23.9068 131.667 23.8578 131.549 23.6937 131.268C23.5872 131.089 23.4202 130.911 23.3454 130.716C23.2245 130.405 23.3051 130.342 23.5152 130.155C23.6534 130.031 23.8809 129.83 23.901 129.64C23.9212 129.451 23.7168 129.106 23.6534 128.907C23.5411 128.571 23.2849 128.283 23.2302 127.927C23.1554 127.447 23.4548 126.918 23.521 126.44C23.5613 126.164 23.6131 126.072 23.7887 125.863C23.95 125.673 24.0248 125.434 24.0968 125.187C24.1832 124.879 24.186 124.687 24.5747 124.701C24.8712 124.71 24.995 124.822 25.1217 125.055C25.185 125.17 25.257 125.287 25.3203 125.4C25.3722 125.494 25.3981 125.658 25.447 125.742C25.5967 125.98 25.8846 125.937 25.9882 126.219C26.161 126.688 25.8558 127.211 25.7896 127.665C25.7147 128.186 25.9422 128.548 26.0804 129.002C26.2042 129.402 26.541 129.913 26.9239 130.097C27.1456 130.204 27.4133 130.454 27.6523 130.483C27.9488 130.517 28.0294 130.279 28.2626 130.164C28.5246 130.031 28.6484 130.089 28.729 129.758C28.7751 129.571 28.8211 129.215 28.6628 129.097C28.4613 128.947 28.0899 129.103 27.8826 128.89C27.7185 128.72 27.6839 128.433 27.5371 128.24C27.4104 128.076 27.1513 127.924 27.0707 127.726C26.9297 127.386 27.1801 127.406 27.327 127.225C27.5429 126.961 27.2607 126.863 27.2233 126.593C27.1801 126.285 27.4104 126.113 27.7127 126.236C28.3461 126.489 27.9171 127.139 28.1676 127.553C28.254 127.697 28.5995 127.921 28.7348 128.01C28.9593 128.16 29.1522 128.111 29.3307 128.335C29.5006 128.548 29.5207 128.666 29.7741 128.801C29.9842 128.91 30.2606 129.068 30.4794 129.149C30.7731 129.258 31.7922 129.241 31.8124 128.83C31.8267 128.519 31.4698 128.522 31.2596 128.453C31.0178 128.372 30.8681 128.283 30.7356 128.048C30.6205 127.841 30.5543 127.654 30.4218 127.458C30.3067 127.286 30.1512 127.13 30.0965 126.944C30.0159 126.67 30.0965 126.567 29.8863 126.34C29.7222 126.164 29.5553 126.064 29.3422 125.96C28.8499 125.727 28.4094 125.656 27.8682 125.607C27.6696 125.589 27.2579 125.578 27.1657 125.374C27.0563 125.132 27.3183 124.937 27.5083 124.888C27.7502 124.825 28.0726 124.882 28.3231 124.882C28.5995 124.882 28.9651 124.816 29.2242 124.902C29.4401 124.974 30.3067 125.71 30.4103 125.181C30.4506 124.974 30.1541 124.793 30.2145 124.554C30.2865 124.267 30.6464 124.281 30.8882 124.215C31.2567 124.114 31.772 124.068 32.1607 124.16C32.4256 124.224 32.5638 124.359 32.8373 124.278C33.0042 124.229 33.2518 124.143 33.4102 124.074C33.8679 123.876 33.1021 123.473 33.0417 123.226C33.2346 123.186 33.5973 122.858 33.5282 122.645C33.4447 122.392 33.1741 122.28 32.9467 122.269C32.4169 122.243 31.6943 122.378 32.0225 121.665C32.1837 121.314 32.5091 120.874 32.5695 120.498C32.6041 120.288 32.5062 119.934 32.2557 119.951C32.0859 119.963 31.8037 120.245 31.6108 120.285C31.2769 120.36 31.3114 120.19 31.0667 120.023C30.8335 119.865 30.6752 119.914 30.5571 120.176C30.3873 120.555 30.5053 121.211 30.5053 121.628C30.5053 122.108 30.3786 122.539 30.2721 122.993C30.1656 123.459 29.8316 124.083 29.394 123.376C29.2962 123.217 29.2875 122.855 29.1177 122.752C28.9017 122.617 28.7434 122.829 28.5937 122.941C28.1676 123.255 27.6609 123.309 27.16 123.427C26.7915 123.516 26.0142 123.896 26.0545 123.255C26.0689 123.028 26.3107 122.852 26.469 122.68C26.5237 122.619 26.6965 122.476 26.7195 122.407C26.7598 122.286 26.6763 122.162 26.6936 122.036C26.7425 121.717 27.1513 121.699 27.3615 121.524C27.7559 121.196 27.6897 121.078 27.517 120.664C27.4018 120.397 27.5861 120.282 27.6753 120.061C27.7732 119.822 27.753 119.578 27.8596 119.333C27.9546 119.109 28.0121 118.905 28.0611 118.666C28.1187 118.384 28.3634 118.341 28.4411 118.117C28.5505 117.798 28.1878 117.692 27.9718 117.651C27.6753 117.6 27.5976 117.637 27.3845 117.847C27.2118 118.014 26.9556 118.198 26.8318 118.407C26.6216 118.767 26.6418 119.399 26.1783 119.546C25.7982 119.667 25.2052 119.293 25.0756 118.922C24.9374 118.528 25.185 118.514 25.4758 118.436C25.7004 118.376 25.7666 118.255 25.9451 118.088C26.0948 117.95 26.2934 117.832 26.3683 117.646C26.4172 117.525 26.3683 117.421 26.4345 117.303C26.5209 117.148 26.6677 117.114 26.7886 117.013C27.1485 116.714 26.9038 116.665 26.6763 116.467C26.4949 116.309 26.469 116.033 26.2992 115.863C26.017 115.584 25.6485 115.714 25.447 115.297C25.3088 115.015 24.3444 113.494 23.9327 114.195C23.7312 114.538 24.0939 114.589 24.1313 114.842C24.1572 115.015 23.8751 115.265 23.6707 115.213C23.4145 115.15 23.4864 114.811 23.4375 114.632C23.377 114.414 23.1813 114.241 23.1755 113.991C23.164 113.546 23.4231 113.089 23.8722 113.063C24.1745 113.045 24.2954 113.051 24.5056 113.235C24.7158 113.422 24.9058 113.615 25.0612 113.209C25.1476 112.979 25.0843 112.709 25.4441 112.715C25.6341 112.715 25.8817 112.864 25.8213 113.091C25.7867 113.221 25.6543 113.195 25.5967 113.301C25.5334 113.413 25.5679 113.546 25.5593 113.672C25.542 113.994 25.542 114.052 25.8011 114.276C25.9739 114.425 26.1293 114.609 26.3107 114.747C26.5727 114.949 26.5583 114.77 26.8692 114.747C27.468 114.699 27.111 115.256 27.3414 115.581C27.6177 115.972 28.0956 115.915 28.4382 115.714C28.706 115.555 29.0083 115.173 29.0428 114.834C29.0687 114.589 28.9075 114.454 28.7607 114.305C28.6196 114.161 28.4497 114.034 28.3144 113.894C28.1043 113.675 28.0611 113.385 27.9114 113.129L27.8653 113.123Z" fill="#CCCCCC"/>
    <path d="M29.4142 70.8675C29.299 70.9537 29.2098 70.8675 29.1522 70.7812C29.0658 70.695 29.0053 70.6375 28.919 70.5771C28.775 70.5483 28.657 70.5483 28.513 70.5483C28.3374 70.5483 28.1647 70.6921 28.0179 70.7812C27.9027 70.8387 27.8423 70.8675 27.6983 70.8675C27.5544 70.8675 27.4939 70.81 27.3787 70.7237C27.3212 70.6662 27.2348 70.6375 27.1743 70.5483C27.088 70.4621 27.1168 70.3442 27.088 70.258C27.0304 70.0251 26.944 69.7922 26.8548 69.5622C26.7684 69.3581 26.6792 69.1568 26.6216 68.9527C26.5928 68.8664 26.564 68.7773 26.5352 68.6623C26.4776 68.5761 26.4201 68.4582 26.4201 68.3432C26.3913 68.2569 26.3913 68.1103 26.3913 67.9953C26.3913 67.909 26.3625 67.8515 26.3625 67.7337C26.3625 67.6158 26.3337 67.5295 26.2761 67.4145C26.2761 67.3858 26.2473 67.3283 26.2185 67.2708C26.2185 67.2133 26.2185 67.1558 26.1897 67.0666C26.1609 66.8913 26.1609 66.69 26.1609 66.4859C26.1609 66.3393 26.1609 66.2242 26.1034 66.0805C25.9882 65.8476 25.9565 65.6751 25.9565 65.4135C25.9565 65.3272 25.9853 65.2381 26.0141 65.1231C26.0717 65.0081 26.1005 64.8902 26.1897 64.7752C26.3337 64.6315 26.5957 64.5423 26.7713 64.4273C26.9469 64.2836 27.1772 64.252 27.4104 64.252C27.5256 64.252 27.6148 64.3382 27.6436 64.4561C27.73 64.6315 27.586 64.689 27.468 64.804C27.3816 64.8902 27.2924 65.0656 27.4104 65.1518C27.468 65.2094 27.5256 65.2381 27.586 65.2985C27.6436 65.356 27.7012 65.3847 27.7616 65.4422C27.9056 65.5285 28.0236 65.6464 28.1388 65.7326C28.2827 65.8189 28.372 65.8764 28.4008 66.023C28.4296 66.138 28.4871 66.2271 28.4871 66.3421C28.5159 66.4284 28.4871 66.5175 28.5159 66.6038C28.5447 66.7475 28.6311 66.8654 28.6915 66.9804C28.7203 67.0954 28.7491 67.242 28.7779 67.3887C28.8067 67.5324 28.8067 67.679 28.8355 67.8228C28.8643 67.9665 28.7491 68.1132 28.6599 68.2282C28.5447 68.3144 28.4555 68.4898 28.4267 68.6336C28.3979 68.7773 28.3979 68.9527 28.513 69.0677C28.6282 69.1539 28.6887 69.3006 28.7462 69.4443C28.9017 69.8296 29.3451 69.7376 29.5552 70.0308C29.6617 70.1775 29.5639 70.7554 29.4142 70.8675Z" fill="#CCCCCC"/>
    <path d="M34.5617 45.2011C34.3573 45.2586 34.2134 45.4915 34.0953 45.6669C34.0377 45.7244 33.9802 45.8106 33.9197 45.871C33.8333 45.9572 33.8046 46.0464 33.6865 45.9285C33.6289 45.871 33.5714 45.7847 33.4821 45.6956C33.3957 45.6094 33.2489 45.5806 33.2201 45.4052C33.1913 45.2298 33.2777 45.0573 33.3641 44.882C33.4792 44.7066 33.5973 44.5628 33.6548 44.3587C33.6836 44.3012 33.7412 44.1546 33.7124 44.0683C33.6836 44.0108 33.6261 43.9821 33.5685 43.9246C33.5397 43.8958 33.4821 43.8383 33.4533 43.7808C33.3382 43.6054 33.3382 43.4329 33.3382 43.2288V42.9384C33.367 42.7343 33.5714 42.5618 33.6865 42.4727C33.8621 42.3289 34.1529 42.3577 34.2681 42.5589C34.3256 42.6452 34.2681 42.7343 34.2968 42.8205C34.3544 42.9355 34.4725 42.9959 34.5588 43.0822C34.6164 43.1397 34.674 43.2576 34.7345 43.3151C34.792 43.4013 34.9101 43.4904 34.9389 43.6054C34.9964 43.6917 34.9389 43.7808 35.054 43.8383C35.1404 43.8958 35.2584 43.9246 35.3448 43.9821C35.5837 44.1402 35.5924 45.0228 35.4571 45.2471C35.3678 45.3966 35.1001 45.5116 34.9302 45.4512C34.7805 45.3995 34.7575 45.1465 34.5588 45.2011H34.5617Z" fill="#CCCCCC"/>
    <path d="M30.5197 43.9507C30.4621 43.9219 30.4046 43.9219 30.3153 43.8932C30.2002 43.8644 30.0821 43.8644 29.967 43.8069C29.8518 43.7494 29.7626 43.6315 29.6474 43.5453C29.561 43.459 29.4718 43.3699 29.4718 43.2261C29.4718 43.1399 29.443 42.9933 29.4718 42.907C29.4718 42.792 29.5869 42.7029 29.6474 42.6166C29.7338 42.5016 29.7338 42.355 29.823 42.24C29.9094 42.125 29.9986 42.0646 30.1426 42.0962C30.2577 42.125 30.3758 42.1825 30.4621 42.2112C30.5773 42.24 30.6665 42.3263 30.7529 42.355C30.9573 42.47 31.2769 42.6454 31.3057 42.907C31.3345 43.0824 31.2193 43.0824 31.1013 43.1974C30.9631 43.3354 31.3373 43.6344 31.274 43.8242C31.1675 44.1375 30.727 44.057 30.5197 43.9535V43.9507Z" fill="#CCCCCC"/>
    <path d="M26.4776 42.9356C26.3913 42.9356 26.3337 42.8781 26.2732 42.8206C26.1869 42.7631 26.0688 42.6768 25.9825 42.6165C25.9249 42.559 25.8068 42.5015 25.7493 42.3836C25.7205 42.2973 25.7493 42.1507 25.8356 42.122C25.8932 42.0932 26.0112 42.0645 26.0976 42.0645H26.446C26.5611 42.0932 26.7367 42.1507 26.8519 42.2082C26.9095 42.2657 26.9958 42.352 27.0851 42.3836C27.1715 42.4123 27.3183 42.3836 27.4047 42.4123C27.5198 42.4411 27.6378 42.4698 27.6954 42.559C27.9113 42.996 26.6187 42.9356 26.4748 42.9356H26.4776Z" fill="#CCCCCC"/>
    <path d="M21.8829 44.2412C21.8253 44.2125 21.7677 44.2125 21.7073 44.1837C21.5921 44.155 21.5317 44.0687 21.4165 44.0084C21.3301 43.9796 21.1833 44.0371 21.0681 43.9796C20.9242 43.9509 20.9242 43.8042 20.9242 43.6605C20.9242 43.4851 20.9242 43.3126 20.9818 43.166C21.0106 43.0797 21.0969 42.9906 21.1574 42.9043C21.1862 42.8468 21.2438 42.8181 21.2725 42.7606C21.3301 42.6743 21.3301 42.6168 21.4165 42.5852C21.6497 42.499 21.8224 42.7002 21.9405 42.8468C22.1449 43.0222 22.3464 43.1947 22.5508 43.3413C22.6372 43.4276 22.7552 43.4564 22.784 43.603C22.784 44.04 22.26 44.431 21.8829 44.2412Z" fill="#CCCCCC"/>
    <path d="M21.0105 46.0124C21.0681 45.8686 21.2149 45.837 21.3589 45.8686C22.1823 46.0325 20.7428 46.8116 21.0105 46.0124Z" fill="#CCCCCC"/>
    <path d="M19.1507 44.7944C19.122 44.7082 19.1508 44.5903 19.2371 44.5328C19.3667 44.4465 19.7035 44.481 19.7035 44.6766C19.7035 44.9209 19.2486 45.0819 19.1507 44.7944Z" fill="#CCCCCC"/>
    <path d="M29.3854 37.913C29.2702 37.8267 29.2098 37.7089 29.1234 37.6226C29.0082 37.5364 28.919 37.4789 28.775 37.4185C28.6887 37.3897 28.5706 37.3897 28.4843 37.361C28.3691 37.3035 28.2511 37.246 28.1647 37.1569C28.0783 37.0706 28.0208 36.9527 27.9603 36.8377C27.9315 36.7515 27.9027 36.5473 27.9891 36.4611C28.0467 36.4036 28.2223 36.4036 28.3087 36.4611C28.4526 36.5186 28.5131 36.6652 28.6282 36.7515C28.7434 36.809 28.8326 36.7802 28.9478 36.8377C29.0342 36.8952 29.1522 36.9527 29.2673 37.0131C29.4718 37.1569 29.6733 37.3035 29.9353 37.3897C30.0216 37.4185 30.1397 37.4472 30.2548 37.5047C30.2779 37.5162 29.9122 38.4391 29.3825 37.9101L29.3854 37.913Z" fill="#CCCCCC"/>
    <path d="M31.392 36.752C31.2769 36.752 31.1588 36.5479 31.2164 36.4329C31.2452 36.3466 31.3316 36.3179 31.3604 36.2575C31.4179 36.1713 31.4467 36.0534 31.5043 35.9959C31.5331 35.9384 31.5619 35.8809 31.6195 35.8205C31.6483 35.7342 31.677 35.6451 31.7058 35.5589C31.7346 35.5014 31.7634 35.4439 31.7922 35.3547C31.8498 35.2685 31.8786 35.2081 31.9362 35.1219C31.9937 34.9781 32.083 34.8315 32.2269 34.7452C32.2845 34.7165 32.3133 34.659 32.3709 34.6302C32.4572 34.5727 32.5465 34.5727 32.6329 34.5152C32.6904 34.4577 32.748 34.3715 32.8085 34.3398C32.8948 34.3398 32.9841 34.4261 33.0705 34.4836C33.2144 34.5698 33.3037 34.6877 33.39 34.8602C33.4764 35.004 33.5656 35.1506 33.5656 35.326V35.7918C33.5656 35.878 33.5656 35.9355 33.5081 36.0246C33.3641 36.315 33.0417 36.43 32.7797 36.5191C32.2874 36.591 31.8872 36.752 31.3834 36.752H31.392Z" fill="#CCCCCC"/>
    <path d="M27.8452 33.7009C27.6695 33.5572 27.5544 33.1777 27.9027 33.1489C28.1359 33.1202 28.3087 33.3531 28.5419 33.4106C28.6801 33.4796 29.109 33.5486 28.8643 33.7786C28.6801 33.9511 28.0121 33.8418 27.8452 33.7009Z" fill="#CCCCCC"/>
    <path d="M23.4835 30.4207C23.426 30.2769 23.3396 30.2453 23.2216 30.159C23.164 30.1303 23.1064 30.1015 23.0459 30.044C22.9308 29.9865 22.902 29.9003 22.8703 29.8111C22.8127 29.607 22.6371 29.4058 22.7264 29.2016C22.8415 28.9975 23.0171 28.9688 23.2503 28.9688C23.4547 28.9688 23.5987 29.1125 23.7743 29.2304C23.8607 29.2879 23.9499 29.2879 24.0363 29.3166C24.1515 29.3454 24.2407 29.3741 24.3271 29.4316C24.5689 29.5898 23.9125 30.0009 23.852 30.1159C23.7455 30.3172 23.7282 30.9037 23.4835 30.4178V30.4207Z" fill="#CCCCCC"/>
    <path d="M26.0401 29.5216C25.9249 29.4354 25.8357 29.3462 25.7493 29.2312C25.6629 29.145 25.5737 29.0559 25.5449 28.9409V28.708C25.5161 28.593 25.5161 28.4751 25.5161 28.3601C25.5161 28.0985 25.6917 27.8368 25.8933 27.7218C26.0977 27.6068 26.3596 27.5177 26.59 27.5465C26.7051 27.5752 26.7656 27.6327 26.8232 27.7218C26.9383 27.8081 26.9988 27.8972 27.0564 28.041C27.1139 28.156 27.1715 28.2738 27.2003 28.3888C27.2291 28.5039 27.2291 28.6217 27.2291 28.7367C27.2291 29.0329 27.088 29.3405 26.8548 29.5245C26.541 29.7689 26.3424 29.7056 26.0372 29.5245L26.0401 29.5216Z" fill="#CCCCCC"/>
    <path d="M25.6917 26.4134C25.4585 26.4134 25.2858 26.3271 25.0814 26.2668C24.9374 26.238 24.8482 26.1518 24.7618 26.0626C24.6466 25.916 24.6466 25.7722 24.6466 25.5969C24.6466 25.5106 24.6179 25.3927 24.6466 25.3065C24.6754 25.249 24.7042 25.2202 24.7618 25.1915C24.8194 25.1052 24.9058 25.0449 24.995 24.9874C25.113 24.9011 25.257 24.8724 25.3721 24.812C25.4873 24.7545 25.6341 24.7257 25.7493 24.697C26.0113 24.6395 26.184 24.697 26.3884 24.7832C26.5036 24.7832 26.5928 24.8407 26.6792 24.8695C26.7943 24.9557 26.97 24.9845 27.0275 25.1311C27.0563 25.1886 27.0851 25.2749 27.0851 25.364C27.0851 25.4531 27.0275 25.5077 26.9987 25.5681C26.7684 26.0281 26.1984 26.4105 25.6888 26.4105L25.6917 26.4134Z" fill="#CCCCCC"/>
    <path d="M29.4718 31.9018C29.3566 31.8443 29.2962 31.758 29.2098 31.6401C29.1234 31.5222 29.0946 31.3785 29.0054 31.2922C28.9478 31.206 28.8614 31.1169 28.7722 31.0594C28.6858 30.9444 28.6283 30.884 28.5966 30.7402C28.5678 30.6252 28.5966 30.5361 28.5678 30.4211C28.5678 30.3348 28.539 30.2773 28.539 30.1882V29.6937C28.5102 29.5787 28.4526 29.4608 28.3951 29.3746C28.3375 29.1417 28.2799 28.9376 28.1907 28.7363C28.0755 28.5609 27.9575 28.3884 27.9575 28.1555V27.7789C27.9575 27.5748 27.9862 27.431 28.0726 27.2557C28.1014 27.1694 28.159 27.0803 28.2166 26.9653C28.2741 26.879 28.3029 26.7899 28.3605 26.7036C28.4181 26.6174 28.4469 26.4995 28.5045 26.4133C28.5908 26.327 28.7089 26.2379 28.824 26.1516C28.968 26.0366 29.1436 25.9187 29.2904 25.775C29.4948 25.6312 29.6963 25.4271 29.9583 25.4559C30.0447 25.4846 30.1627 25.5421 30.2491 25.5709C30.3355 25.5996 30.4535 25.5996 30.5111 25.6571C30.5687 25.6859 30.6262 25.7146 30.6867 25.7146C30.8019 25.7721 30.8911 25.8009 31.0063 25.8296C31.1819 25.8871 31.3258 25.9734 31.5014 26.0337C31.6454 26.0913 31.7922 26.1488 31.9362 26.2091C32.1118 26.3241 32.2557 26.442 32.3421 26.6145C32.3997 26.672 32.4572 26.7583 32.4572 26.8474C32.486 26.9624 32.486 27.0803 32.486 27.1665C32.486 27.3103 32.486 27.4282 32.4285 27.5719C32.3997 27.6582 32.3709 27.7157 32.3421 27.8335V28.1527C32.3421 28.3568 32.3421 28.5581 32.3709 28.7909C32.3709 28.8772 32.3997 28.9663 32.3997 29.0813C32.3997 29.1388 32.3997 29.1676 32.4285 29.2567C32.4572 29.3429 32.4285 29.4321 32.4572 29.5183C32.486 29.6046 32.5436 29.6937 32.5436 29.78C32.5724 29.8662 32.5724 29.9553 32.5724 30.0703C32.5724 30.1853 32.5724 30.3032 32.5436 30.447C32.486 30.6224 32.3997 30.7949 32.2528 30.9127C32.1953 30.9702 32.0772 31.0277 31.9909 31.0881C31.8757 31.1456 31.8469 31.2319 31.7577 31.321C31.7001 31.4072 31.6108 31.4647 31.5533 31.5251C31.4669 31.6114 31.4381 31.7005 31.3201 31.7293C30.7126 31.8816 30.0677 32.2065 29.4603 31.9046L29.4718 31.9018Z" fill="#CCCCCC"/>
    <path d="M88.3202 126.473C88.2339 126.502 88.1446 126.559 88.087 126.649C88.0007 126.735 87.9431 126.853 87.8251 126.91C87.7099 126.968 87.5631 126.939 87.4191 126.939C87.2435 126.939 87.0708 126.735 87.0132 126.591C86.9844 126.476 86.9556 126.358 86.898 126.243C86.8405 126.128 86.7541 126.01 86.898 125.895C86.9844 125.809 87.0737 125.752 86.9556 125.634C86.8693 125.547 86.7224 125.519 86.6361 125.49C86.5497 125.461 86.4317 125.461 86.3741 125.432C86.2589 125.375 86.1697 125.346 86.0833 125.289C85.9681 125.231 85.9681 125.174 85.9681 125.027C85.9681 124.912 85.9394 124.823 86.0257 124.708C86.0833 124.622 86.1409 124.533 86.2013 124.446C86.2589 124.331 86.3165 124.213 86.377 124.127C86.4345 124.041 86.4921 123.98 86.5526 123.894C86.6389 123.808 86.6677 123.69 86.6965 123.604C86.7253 123.486 86.7541 123.4 86.7829 123.313V122.908C86.7829 122.822 86.8117 122.764 86.6965 122.675C86.6389 122.589 86.5209 122.531 86.4057 122.531C86.3194 122.531 86.2013 122.56 86.115 122.589C85.971 122.646 85.9106 122.764 85.9106 122.908C85.9106 122.994 85.9106 123.112 85.8818 123.227C85.853 123.342 85.7954 123.431 85.7378 123.518C85.6802 123.604 85.6227 123.693 85.5334 123.75C85.3895 123.808 85.3002 123.75 85.1851 123.664C85.0095 123.52 84.8655 123.345 84.6611 123.259C84.5747 123.201 84.4567 123.201 84.3703 123.112C84.2552 123.055 84.2264 122.908 84.1659 122.764C84.0796 122.56 83.9903 122.359 83.9615 122.126C83.9327 122.011 83.9327 121.922 83.8752 121.807C83.8176 121.692 83.76 121.545 83.7888 121.43C83.8176 121.315 83.8752 121.255 83.9327 121.169C83.9903 121.111 84.0479 120.993 84.0767 120.907C84.1055 120.821 84.163 120.76 84.2206 120.674C84.2782 120.588 84.3358 120.47 84.425 120.413C84.5402 120.298 84.8022 120.355 84.949 120.384C85.0354 120.413 85.1246 120.47 85.1822 120.53C85.2686 120.588 85.3578 120.674 85.4154 120.763C85.5593 120.91 85.735 121.082 85.9394 121.111C85.9969 121.14 86.0545 121.14 86.115 121.14C86.2301 121.14 86.2906 121.082 86.3482 121.025C86.4345 120.967 86.5238 120.881 86.5814 120.792C86.6101 120.706 86.6102 120.588 86.6389 120.473C86.6677 120.387 86.6677 120.269 86.7253 120.154C86.7829 120.039 86.8117 119.95 86.8117 119.806C86.8117 119.602 86.8117 119.429 86.9268 119.225C86.9844 119.168 87.0708 119.081 87.1888 119.05C87.2752 118.992 87.422 119.021 87.5372 119.021C87.6235 119.021 87.7128 118.992 87.7704 118.992C87.8567 118.992 87.9143 118.935 88.0036 118.906C88.1187 118.849 88.208 118.788 88.2655 118.644C88.3519 118.558 88.3231 118.411 88.3519 118.268C88.3519 118.181 88.3807 118.064 88.4095 117.949C88.4383 117.862 88.4959 117.773 88.5246 117.658C88.5822 117.572 88.5822 117.483 88.6398 117.368C88.6686 117.253 88.755 117.164 88.8442 117.077C88.9306 116.991 88.9882 117.02 89.0774 117.106C89.1638 117.164 89.253 117.221 89.397 117.25C89.4545 117.279 89.5121 117.307 89.5726 117.336C89.6014 117.365 89.6877 117.422 89.7165 117.451C89.7741 117.566 89.6877 117.713 89.6302 117.799C89.5438 117.885 89.4862 117.974 89.4258 118.118V118.437C89.4545 118.524 89.4833 118.613 89.5121 118.699C89.5985 118.785 89.7165 118.814 89.7741 118.903C89.8605 118.989 89.8317 119.107 89.8893 119.194C89.9181 119.309 90.0044 119.369 90.0649 119.455C90.1513 119.541 90.18 119.659 90.18 119.774C90.18 119.95 90.1225 120.007 90.0649 120.151C89.9497 120.355 89.8893 120.556 89.8893 120.818C89.8893 120.875 89.8605 120.965 89.8317 121.051C89.8029 121.166 89.6561 121.255 89.5985 121.399C89.5697 121.485 89.5409 121.632 89.6561 121.718C89.7424 121.775 89.8605 121.775 89.9468 121.804C90.0332 121.804 90.1225 121.833 90.18 121.747C90.2376 121.66 90.2952 121.514 90.324 121.399C90.3816 121.312 90.4104 121.195 90.5572 121.312C90.6435 121.37 90.6723 121.488 90.704 121.574C90.704 121.689 90.7328 121.864 90.704 122.008C90.6752 122.123 90.5284 122.212 90.4996 122.327C90.442 122.442 90.4996 122.503 90.586 122.618C90.6435 122.704 90.6723 122.793 90.7299 122.879C90.8163 122.994 90.8767 123.055 90.8767 123.198C90.8767 123.313 90.848 123.403 90.7011 123.46C90.6148 123.489 90.4391 123.489 90.3528 123.431C89.42 122.81 88.991 124.366 88.755 124.972C88.6168 125.326 88.4354 125.591 88.6571 125.959C88.7291 126.079 88.9565 126.22 88.9277 126.393C88.8759 126.692 88.4987 126.479 88.3174 126.479L88.3202 126.473Z" fill="#CCCCCC"/>
    <path d="M87.7099 118.139C87.2695 118.579 86.7944 117.848 87.0996 117.443C87.186 117.328 87.2752 117.153 87.3904 117.095C87.448 117.066 87.5343 117.066 87.5948 117.066H87.828C88.1763 117.153 87.8568 117.561 87.828 117.794C87.828 117.851 87.828 117.909 87.7992 117.998C87.7992 118.055 87.7416 118.113 87.7128 118.142L87.7099 118.139Z" fill="#CCCCCC"/>
    <path d="M82.7265 124.5C82.7294 124.379 82.7524 124.264 82.7956 124.181C82.9309 123.908 83.4174 124.368 83.5009 124.503C83.7025 124.819 83.4261 125.268 83.0374 125.141C82.8129 125.069 82.7179 124.767 82.7265 124.5Z" fill="#CCCCCC"/>
    <path d="M81.3418 125.079C81.2266 125.079 81.1373 125.05 81.051 125.021C80.9358 125.021 80.8178 125.021 80.7026 124.993C80.645 124.964 80.6163 124.964 80.5587 124.906C80.5299 124.849 80.5299 124.76 80.5011 124.674C80.4723 124.559 80.4435 124.383 80.3543 124.297C80.2391 124.211 80.0923 124.211 80.0347 124.093C79.9483 123.949 80.1499 123.86 80.2679 123.831C80.4118 123.802 80.6163 123.831 80.7631 123.831C80.9963 123.86 81.1402 124.064 81.3446 124.122C81.5202 124.179 81.693 124.122 81.8398 124.208C81.9578 124.237 82.073 124.294 82.1306 124.383C82.2429 124.553 82.3033 124.803 82.1392 124.978C81.9434 125.194 81.598 125.079 81.3446 125.079H81.3418Z" fill="#CCCCCC"/>
    <path d="M77.0981 124.643C76.983 124.672 76.8937 124.557 76.8074 124.468C76.7498 124.439 76.721 124.382 76.6634 124.353C76.6058 124.295 76.5166 124.238 76.4878 124.177C76.3726 124.062 76.5166 123.945 76.603 123.858C76.6893 123.74 76.7786 123.625 76.9225 123.568C77.0377 123.539 77.2133 123.568 77.3285 123.625C77.386 123.654 77.5041 123.683 77.5617 123.712C78.0136 123.936 77.3774 124.571 77.0953 124.64L77.0981 124.643Z" fill="#CCCCCC"/>
    <path d="M75.1779 123.481C75.1779 123.395 75.1779 123.277 75.2354 123.191C75.3218 123.076 75.4398 123.105 75.5838 123.105C75.7882 123.105 75.9897 123.134 76.1653 123.28C76.7613 123.875 75.293 124.292 75.1779 123.484V123.481Z" fill="#CCCCCC"/>
    <path d="M71.9794 123.018C71.8642 123.018 71.8354 122.961 71.775 122.9C71.6886 122.814 71.5993 122.756 71.4842 122.725C71.2222 122.696 70.9314 122.725 70.6694 122.725H70.3211C70.2347 122.725 70.1771 122.696 70.1167 122.667C70.0015 122.639 69.9411 122.581 69.8259 122.524C69.7395 122.466 69.5927 122.409 69.5351 122.319C69.4776 122.233 69.5063 122.087 69.5351 122C69.5927 121.914 69.6503 121.767 69.7395 121.71C69.8259 121.624 69.9727 121.652 70.1167 121.652C70.2923 121.652 70.465 121.42 70.5831 121.305C70.6694 121.218 70.727 121.129 70.7587 121.043C70.8163 120.957 70.8738 120.839 70.9919 120.781C71.1963 120.724 71.3402 121.1 71.3114 121.247C71.2827 121.48 71.0495 121.595 70.9631 121.799C70.9055 121.885 70.8479 122.003 70.8767 122.118C70.9343 122.262 71.1099 122.204 71.1675 122.089C71.2539 122.003 71.3114 121.885 71.4007 121.799C71.5158 121.684 71.6051 121.713 71.7203 121.77C71.8959 121.828 72.0686 121.857 72.2442 121.974C72.3306 122.032 72.3594 122.118 72.3594 122.236C72.3594 122.659 72.6502 123.018 71.9822 123.018H71.9794Z" fill="#CCCCCC"/>
    <path d="M70.8451 126.966C70.7587 126.909 70.6695 126.851 70.5831 126.851C70.5255 126.822 70.4391 126.822 70.3499 126.794C70.1743 126.707 70.0303 126.589 69.8259 126.561C69.7396 126.561 69.682 126.532 69.5927 126.503C69.5064 126.503 69.3883 126.446 69.3308 126.417C69.1868 126.302 69.1868 126.069 69.1551 125.894C69.1263 125.718 69.2127 125.517 69.2127 125.313V125.169C69.2127 125.025 69.1263 124.936 69.0083 124.879C68.9219 124.821 68.8039 124.793 68.7175 124.85C68.6312 124.908 68.5736 124.994 68.4843 125.054C68.3087 125.169 67.9316 125.198 67.9604 125.491C67.9892 125.606 68.1072 125.695 68.136 125.81V125.986C68.1648 126.014 68.1648 126.101 68.1648 126.132C68.136 126.276 67.9892 126.308 67.9028 126.365C67.8452 126.451 67.7588 126.509 67.6696 126.569C67.5832 126.627 67.5257 126.684 67.4364 126.802C67.2925 126.978 67.1168 126.978 66.8837 126.978C66.5929 126.978 66.1869 127.035 65.9825 126.773C65.8386 126.63 65.663 126.368 65.8386 126.164C65.8962 126.106 65.9825 126.049 66.043 125.96C66.1006 125.874 66.1582 125.756 66.1898 125.641C66.2474 125.554 66.2474 125.408 66.2474 125.293C66.2474 125.235 66.2474 125.117 66.2186 125.06C66.1898 124.945 66.0718 124.885 66.043 124.741C66.0142 124.626 66.0718 124.508 66.0142 124.393C65.9566 124.307 65.9278 124.218 65.8703 124.16C65.7839 124.074 65.6659 124.045 65.6083 123.956C65.4327 123.752 65.4039 123.522 65.4039 123.26V122.97C65.4039 122.912 65.4327 122.855 65.4327 122.794V122.619C65.4327 122.504 65.4902 122.415 65.4902 122.329C65.519 122.214 65.5478 122.124 65.5766 122.009C65.6342 121.923 65.663 121.834 65.6918 121.748C65.7781 121.544 65.8962 121.342 66.0113 121.138C66.0977 120.995 66.2157 120.79 66.3597 120.673C66.5353 120.529 66.7368 120.411 66.9412 120.296C67.0564 120.21 67.2608 120.121 67.4076 120.092H67.9316C67.9892 120.092 68.0467 120.121 68.1072 120.149C68.1648 120.149 68.2224 120.178 68.2512 120.178C68.3663 120.236 68.4556 120.293 68.5707 120.353C68.6859 120.44 68.7463 120.497 68.7463 120.644C68.7463 120.759 68.7175 120.848 68.66 120.963C68.6024 121.049 68.5736 121.138 68.516 121.196C68.4584 121.282 68.3721 121.371 68.2828 121.429C68.2252 121.515 68.136 121.604 68.0784 121.69C67.992 121.777 67.992 121.866 67.9604 121.981C67.9604 122.096 67.9316 122.242 67.9604 122.357C67.9892 122.415 68.0784 122.501 68.136 122.59C68.2224 122.676 68.2799 122.766 68.3692 122.852C68.66 123.142 68.9277 123.208 69.3048 123.194C69.9872 123.168 70.5543 123.447 71.1905 123.605C71.2769 123.663 71.3662 123.691 71.4237 123.749C71.5101 123.806 71.6281 123.867 71.6569 123.982C71.6857 124.157 71.775 124.33 71.8326 124.476C71.8613 124.62 71.9189 124.795 71.9477 124.942C71.9477 125.089 71.9477 125.29 71.9189 125.437C71.8613 125.669 71.5994 125.698 71.5418 125.874C71.3259 126.305 71.9995 126.589 71.7922 127.044C71.5504 127.578 71.1243 127.164 70.8422 126.975L70.8451 126.966Z" fill="#CCCCCC"/>
    <path d="M64.8569 130.508C64.6813 130.508 64.5661 130.333 64.4222 130.246C64.2782 130.16 64.0738 130.189 63.927 130.189C63.8406 130.189 63.7802 130.189 63.7226 130.16C63.6362 130.131 63.547 130.045 63.4894 129.956C63.4318 129.899 63.3426 129.809 63.3138 129.752C63.2562 129.694 63.2562 129.577 63.2274 129.49V129.2C63.2274 129.114 63.285 129.025 63.3426 128.938C63.4002 128.852 63.5182 128.823 63.6046 128.734C63.6621 128.648 63.6621 128.53 63.6909 128.415C63.6909 128.3 63.7197 128.182 63.7197 128.096C63.7197 127.921 63.6621 127.4 63.9241 127.429C64.0997 127.486 64.2437 127.691 64.4193 127.777C64.5345 127.834 64.9145 127.952 64.7677 128.153C64.7389 128.211 64.592 128.268 64.5345 128.329C64.4769 128.358 64.3905 128.386 64.3588 128.444C64.1832 128.619 64.5028 128.763 64.6208 128.849C64.7964 128.993 64.9116 129.168 64.998 129.401C65.139 129.683 65.3809 130.505 64.8511 130.505L64.8569 130.508Z" fill="#CCCCCC"/>
    <path d="M63.4894 132.222C63.4318 132.251 63.285 132.28 63.2274 132.251C63.1698 132.222 63.141 132.165 63.1122 132.104C63.0547 132.018 62.9971 131.929 62.9366 131.872C62.9078 131.814 62.8502 131.757 62.7927 131.696C62.7063 131.667 62.6171 131.667 62.5019 131.639C62.3551 131.581 62.2111 131.435 62.2111 131.233C62.2111 131.115 62.3551 130.972 62.5019 130.943C62.6458 130.914 62.8502 130.943 62.9971 131C63.141 131.087 63.2591 131.176 63.3166 131.348C63.4059 131.619 64.0565 132.033 63.4923 132.219L63.4894 132.222Z" fill="#CCCCCC"/>
    <path d="M61.3388 130.073C61.31 129.898 61.3676 129.696 61.572 129.668C61.7476 129.639 61.8628 129.725 62.0096 129.812C62.0672 129.84 62.0959 129.869 62.1247 129.987C62.2111 130.335 61.405 130.464 61.3388 130.073Z" fill="#CCCCCC"/>
    <path d="M56.1624 134.14C55.9868 133.993 56.22 133.792 56.2776 133.645C56.4216 133.383 56.1337 133.151 56.22 132.889C56.2776 132.714 56.482 132.656 56.626 132.685C56.8016 132.742 56.9167 132.975 56.9167 133.119C56.9167 133.294 56.9455 133.381 57.0636 133.467C57.1211 133.524 57.2075 133.553 57.2392 133.642C57.3054 133.846 56.9398 134.025 56.816 134.117C56.554 134.312 56.4475 134.372 56.1624 134.137V134.14Z" fill="#CCCCCC"/>
    <path d="M57.0636 136.576C56.9168 136.547 56.7728 136.547 56.626 136.547C56.5108 136.547 56.482 136.547 56.4216 136.461C56.364 136.375 56.3352 136.286 56.246 136.228C56.1596 136.142 55.984 136.085 55.9552 135.967C55.8688 135.823 55.9552 135.676 56.0703 135.59C56.1567 135.504 56.2172 135.415 56.2748 135.3C56.3611 135.185 56.4504 135.185 56.5943 135.185C56.6519 135.185 56.7383 135.156 56.8275 135.185C56.9139 135.213 57.0031 135.328 57.0895 135.389C57.1759 135.446 57.2939 135.475 57.3803 135.533C57.4954 135.561 57.5559 135.648 57.6423 135.708C57.7286 135.794 57.7574 135.883 57.815 135.998C58.1058 136.579 57.4868 136.665 57.0607 136.579L57.0636 136.576Z" fill="#CCCCCC"/>
    <path d="M54.5646 132.601C54.4207 132.601 54.3602 132.426 54.3314 132.282C54.2767 132.012 54.7777 132.135 54.8842 132.184C54.9619 132.222 55.0857 132.199 55.1001 132.308C55.126 132.489 54.6971 132.601 54.5646 132.601Z" fill="#CCCCCC"/>
    <path d="M47.5573 141.251C47.4709 141.223 47.4133 141.136 47.3529 141.076C47.3337 141.019 47.3049 140.97 47.2665 140.929C47.2089 140.901 47.1801 140.872 47.2089 140.786C47.2089 140.699 47.3241 140.61 47.3845 140.524C47.4709 140.438 47.5285 140.38 47.6753 140.38C47.7329 140.38 47.8481 140.351 47.9373 140.409C48.3893 140.708 48.0812 141.476 47.5602 141.251H47.5573Z" fill="#CCCCCC"/>
    <path d="M47.7013 136.025C47.5573 136.025 47.3817 136.054 47.2665 135.997C47.0909 135.91 47.0333 135.735 46.8894 135.62C46.7138 135.505 46.5411 135.416 46.5123 135.186C46.4835 134.924 46.5123 134.634 46.6879 134.401C46.7455 134.315 46.803 134.286 46.8923 134.257C46.9787 134.257 47.0362 134.257 47.0967 134.315C47.1831 134.401 47.1831 134.458 47.3299 134.49H47.6494C47.8251 134.49 47.9114 134.461 48.0554 134.375C48.1705 134.289 48.3174 134.2 48.4613 134.142C48.6053 134.085 48.7233 134.027 48.8384 133.938C49.0716 133.852 49.2156 133.909 49.3624 134.082C49.5064 134.226 49.5956 134.401 49.538 134.605C49.5092 134.752 49.3941 134.867 49.3624 135.01C49.3336 135.097 49.3336 135.157 49.276 135.272C49.2185 135.358 49.1897 135.419 49.1004 135.476C48.9075 135.669 48.8931 135.657 48.6657 135.723C48.3548 135.81 48.041 136.028 47.7041 136.028L47.7013 136.025Z" fill="#CCCCCC"/>
    <path d="M44.4451 136.663C44.4163 136.605 44.3876 136.576 44.3876 136.487C44.3876 136.43 44.4163 136.341 44.3876 136.254C44.3588 136.139 44.1831 136.108 44.1544 135.964C44.1256 135.878 44.1544 135.76 44.2119 135.674C44.2983 135.559 44.4163 135.53 44.5603 135.587C44.9029 135.725 44.9691 136.053 44.9461 136.389C44.923 136.726 44.7014 137.048 44.4451 136.663Z" fill="#CCCCCC"/>
    <path d="M44.4164 138.957C44.3012 139.015 44.2408 138.957 44.1544 138.871C44.0968 138.814 44.0392 138.727 43.9788 138.638C43.8924 138.552 43.8319 138.523 43.688 138.495C43.5441 138.437 43.2533 138.437 43.3396 138.204C43.3684 138.089 43.4836 138.058 43.5728 138.029C43.6304 137.971 43.7168 137.914 43.7772 137.825C43.9817 137.592 44.1544 137.911 44.2724 138.058C44.3588 138.144 44.448 138.204 44.5632 138.115C44.6496 138.029 44.6496 137.911 44.7388 137.825C44.8885 137.675 45.3693 138.127 45.3261 138.299C45.2829 138.474 44.9893 138.443 44.8569 138.543C44.687 138.676 44.6611 138.909 44.4193 138.957H44.4164Z" fill="#CCCCCC"/>
    <path d="M42.9625 139.278C42.7869 139.278 42.7293 139.134 42.7293 138.958C42.7293 138.815 42.7005 138.668 42.9021 138.639C43.57 138.544 43.7053 139.278 42.9596 139.278H42.9625Z" fill="#CCCCCC"/>
    <path d="M40.8983 145.055H40.6075C40.4924 145.055 40.3743 145.055 40.288 145.026C40.1728 144.998 40.0548 144.851 39.9396 144.794C39.882 144.736 39.764 144.736 39.7064 144.679C39.6488 144.621 39.62 144.503 39.62 144.417V144.127C39.62 144.04 39.5912 144.012 39.5912 143.922C39.5912 143.833 39.6488 143.779 39.7064 143.69C39.8216 143.575 39.8504 143.399 39.9396 143.255C40.0548 143.08 40.1728 143.08 40.3455 143.08C40.6363 143.08 40.9271 143.195 41.071 143.428C41.1286 143.514 41.1574 143.572 41.2466 143.632C41.3042 143.661 41.3618 143.661 41.4223 143.69C41.5979 143.718 41.7994 143.747 41.857 143.922C41.9606 144.164 41.9462 144.532 41.8311 144.771C41.6382 145.167 41.2697 145.055 40.8954 145.055H40.8983Z" fill="#CCCCCC"/>
    <path d="M38.7477 139.277C38.7189 139.162 38.6614 139.134 38.5145 139.134C38.4282 139.134 38.2238 139.162 38.1374 139.076C38.0798 138.99 38.1086 138.843 38.1662 138.786C38.2526 138.671 38.3706 138.582 38.457 138.495C38.5433 138.409 38.6614 138.263 38.8053 138.205C38.9205 138.176 39.0385 138.234 39.1537 138.263C39.2112 138.291 39.2976 138.291 39.3581 138.291C39.5049 138.291 39.5625 138.32 39.6776 138.406C39.7928 138.464 39.9108 138.493 40.0548 138.493C40.1699 138.493 40.2592 138.521 40.3456 138.55C40.4319 138.579 40.55 138.579 40.5787 138.665C40.6075 138.78 40.4031 138.869 40.3168 138.898C40.2016 138.984 40.0836 139.013 39.9396 139.042C39.764 139.076 39.574 139.148 39.4473 139.275C39.3264 139.393 39.3466 139.536 39.1594 139.568C38.9867 139.597 38.788 139.43 38.7477 139.272V139.277Z" fill="#CCCCCC"/>
    <path d="M40.0547 137.796C39.9972 137.738 39.9684 137.621 39.9079 137.534C39.7928 137.448 39.7323 137.359 39.6747 137.244C39.6171 137.158 39.5596 137.1 39.5596 136.982C39.5596 136.896 39.5596 136.749 39.6171 136.663C39.6747 136.519 39.7323 136.519 39.8791 136.577C39.9655 136.634 40.0835 136.663 40.1699 136.721C40.2563 136.778 40.2851 136.864 40.3743 136.896C40.4031 136.925 40.4895 136.925 40.5183 136.925C40.5758 136.896 40.5758 136.867 40.6334 136.81C40.691 136.724 40.7774 136.606 40.9242 136.606C41.0393 136.606 41.1286 136.634 41.215 136.692C41.3013 136.749 41.3906 136.807 41.4769 136.867C41.5633 136.954 41.6209 137.011 41.5633 137.129C41.5057 137.215 41.3877 137.304 41.3013 137.362C40.976 137.577 40.5096 138.253 40.0519 137.796H40.0547Z" fill="#CCCCCC"/>
    <path d="M37.5846 137.595C37.409 137.595 37.2075 137.624 37.0319 137.595C36.9455 137.566 36.8851 137.566 36.8275 137.451C36.7699 137.336 36.7411 137.218 36.7699 137.075C36.8275 136.842 37.0895 136.698 37.2939 136.551C37.3802 136.494 37.4983 136.494 37.5846 136.436C37.6998 136.379 37.8178 136.321 37.933 136.29C38.195 136.261 38.3706 136.376 38.6009 136.494C38.6873 136.551 38.7765 136.58 38.8341 136.609C38.9493 136.637 39.0097 136.695 39.0097 136.842C39.0097 136.957 39.0097 137.075 38.9521 137.19C38.5692 137.572 38.0942 137.595 37.5846 137.595Z" fill="#CCCCCC"/>
    <path d="M35.578 139.948C35.4024 139.948 35.2009 139.976 35.0253 139.948C34.9101 139.948 34.8496 139.833 34.8813 139.743C34.9101 139.628 35.0253 139.511 35.1433 139.453C35.2901 139.396 35.696 139.338 35.5809 139.076C35.4657 138.872 35.2325 138.844 34.9993 138.786C34.7949 138.729 34.5934 138.729 34.389 138.671C34.3314 138.642 34.2451 138.642 34.2134 138.585C34.127 138.499 34.0982 138.352 34.0694 138.266C34.0119 138.151 33.9543 138.062 33.9543 137.947C33.9543 137.86 33.9831 137.742 33.9831 137.685C34.0407 137.481 34.1587 137.423 34.3314 137.423C34.4466 137.423 34.5934 137.452 34.6798 137.395C34.913 137.308 35.0857 137.162 35.2613 137.047C35.4369 136.96 35.6673 136.989 35.8141 137.047C36.0185 137.162 36.0761 137.452 36.1049 137.685C36.1049 137.86 36.1336 138.09 36.2488 138.237C36.2776 138.294 36.3352 138.323 36.364 138.355C36.3928 138.412 36.3928 138.47 36.4215 138.53C36.4215 138.645 36.4215 138.763 36.4791 138.907C36.5655 139.125 36.8879 139.467 36.8044 139.715C36.6662 140.134 35.8803 139.95 35.578 139.95V139.948Z" fill="#CCCCCC"/>
    <path d="M35.1721 146.132C35.0857 146.103 35.0569 146.046 34.9964 145.988C34.9101 145.931 34.8525 145.902 34.7633 145.873C34.5588 145.816 34.4725 145.755 34.4437 145.554V145.206C34.4437 145.002 34.4149 144.801 34.5301 144.654C34.5588 144.597 34.6164 144.507 34.6769 144.421C34.6769 144.392 34.7057 144.364 34.7057 144.335C34.7633 144.306 34.792 144.306 34.8208 144.249C35.0252 144.073 34.6769 143.93 34.5876 143.815C34.5013 143.7 34.5013 143.495 34.5588 143.38C34.674 143.205 34.792 143.205 34.9648 143.205C35.1692 143.205 35.3419 143.32 35.4887 143.438C35.6039 143.553 35.7219 143.671 35.6327 143.872C35.6039 143.93 35.5463 143.987 35.4887 144.047C35.46 144.134 35.4312 144.191 35.4312 144.309C35.4312 144.484 35.5175 144.571 35.578 144.714C35.6644 144.847 35.745 145.275 35.7479 145.436C35.7507 145.637 35.3621 146.233 35.1692 146.138L35.1721 146.132Z" fill="#CCCCCC"/>
    <path d="M31.9448 145.375C31.8584 145.49 31.7116 145.637 31.5388 145.637C31.3949 145.608 31.2193 145.522 31.1041 145.461C30.8133 145.286 30.8709 144.909 30.8709 144.619V144.357C30.8709 144.24 30.9861 144.153 31.1041 144.096C31.3459 143.975 31.5676 144.03 31.8123 143.969C31.9649 143.932 32.0513 143.805 32.2269 143.846C32.4918 143.906 32.5061 144.357 32.7998 144.34C32.9812 144.329 32.9783 144.056 33.2288 144.153C33.5512 144.283 33.5627 144.665 33.2777 144.855C33.0589 145.001 32.82 144.769 32.5983 144.82C32.3881 144.869 32.0628 145.2 31.9476 145.372L31.9448 145.375Z" fill="#CCCCCC"/>
    <path d="M32.2643 143.113C32.178 143.055 32.1204 143.027 32.0311 142.998C31.9448 142.94 31.8555 142.912 31.8267 142.794C31.7979 142.618 31.8843 142.446 32.0311 142.357C32.1175 142.299 32.2068 142.299 32.3219 142.271C32.4371 142.213 32.4975 142.095 32.6415 142.066H33.0791C33.1654 142.066 33.2835 142.153 33.3411 142.21C33.3986 142.296 33.4274 142.354 33.4562 142.443C33.485 142.532 33.5714 142.59 33.6002 142.676C33.7959 143.262 32.5522 143.285 32.2615 143.113H32.2643Z" fill="#CCCCCC"/>
    <path d="M18.2496 140.179C18.1057 140.15 17.9301 140.004 17.8725 139.86C17.7861 139.716 17.8725 139.483 18.0164 139.365C18.2036 139.253 18.9003 139.371 19.0068 139.595C19.145 139.883 18.4684 140.222 18.2496 140.179Z" fill="#CCCCCC"/>
    <path d="M21.3013 138.696C21.215 138.638 21.1257 138.581 21.0393 138.492C21.0106 138.463 20.9818 138.405 20.953 138.377C20.8954 138.319 20.809 138.319 20.7774 138.262C20.691 138.204 20.573 138.115 20.5154 138C20.4578 137.914 20.4002 137.825 20.3398 137.738C20.2822 137.652 20.2246 137.563 20.1641 137.477C20.1354 137.448 20.1066 137.391 20.049 137.419C19.9914 137.419 19.9914 137.506 19.9626 137.563C19.8763 137.649 19.787 137.534 19.7294 137.477C19.6718 137.391 19.6431 137.33 19.5826 137.244C19.525 137.158 19.4387 137.1 19.407 136.982V136.807C19.407 136.749 19.407 136.692 19.3782 136.603C19.3494 136.488 19.3206 136.427 19.263 136.341C19.1767 136.226 19.0874 136.226 19.0586 136.051C19.0298 135.875 19.0586 135.703 19.0586 135.499V134.947C19.0874 134.918 19.145 134.889 19.2026 134.861C19.2602 134.803 19.3177 134.746 19.3782 134.685C19.4646 134.599 19.5538 134.541 19.669 134.51C19.8158 134.481 19.9022 134.424 19.9885 134.334C20.0461 134.248 20.0749 134.159 20.1037 134.044C20.1325 133.929 20.1613 133.754 20.3081 133.725C20.5125 133.61 20.7745 133.929 20.8896 134.044C20.9472 134.13 21.0336 134.219 21.094 134.306C21.1804 134.392 21.2697 134.421 21.356 134.51C21.4136 134.539 21.5604 134.625 21.5316 134.743C21.5316 134.858 21.3877 134.886 21.3272 134.976C21.1833 135.151 21.2697 135.413 21.2121 135.643C21.2121 135.729 21.1545 135.847 21.1257 135.962C21.0681 136.166 21.1257 136.31 21.1833 136.514C21.2121 136.571 21.2697 136.718 21.3589 136.718C21.4482 136.718 21.4741 136.574 21.4741 136.485C21.4741 136.396 21.4741 136.31 21.5029 136.223C21.5029 136.137 21.5604 136.048 21.5892 135.933C21.618 135.875 21.6468 135.789 21.6756 135.7C21.7044 135.614 21.6756 135.525 21.6756 135.438C21.6756 135.263 21.7332 135.119 21.7908 134.973C21.9002 134.642 21.8397 134.349 21.6986 134.027C21.5086 133.593 21.1574 133.498 21.2092 132.94C21.2294 132.727 21.261 132.494 21.5288 132.532C21.7936 132.569 21.8656 132.937 22.0239 133.089C22.1938 132.917 22.2773 132.744 22.4817 132.592C22.712 132.422 22.8041 132.33 22.6717 132.034C22.5076 131.672 21.9894 131.609 21.6698 131.41C20.9501 130.959 21.9836 130.812 22.4011 130.881C22.6544 130.925 22.7293 131.054 22.9193 131.203C23.0805 131.33 23.2705 131.402 23.4001 131.577C23.5728 131.816 23.5642 131.985 23.4001 132.195C23.2216 132.42 23.0373 132.523 23.3425 132.736C23.8147 133.061 24.2695 132.578 24.7302 132.604C24.9749 132.618 25.2368 132.701 25.4585 132.802C25.7205 132.92 25.7608 132.949 25.7781 133.288C25.7982 133.708 25.8328 134.378 25.686 134.774C25.5967 135.013 25.5161 135.137 25.5449 135.436C25.5679 135.674 25.6572 135.944 25.6025 136.197C25.5564 136.416 25.3981 136.56 25.2829 136.749C25.0382 137.149 24.8683 137.658 24.4624 137.934C24.2724 138.063 24.0651 138.204 23.8578 138.267C23.6045 138.342 23.2849 138.242 23.0431 138.342C22.9308 138.388 22.8991 138.523 22.8185 138.561C22.6976 138.615 22.5364 138.564 22.4011 138.581C22.0671 138.624 21.6295 138.92 21.2956 138.696H21.3013Z" fill="#CCCCCC"/>
    <path d="M17.4636 131.641C17.3773 131.584 17.3197 131.466 17.3197 131.351C17.3197 131.236 17.3485 131.175 17.4636 131.118C17.4924 131.089 17.55 131.06 17.6076 131.032C17.6652 130.974 17.694 130.917 17.7803 130.888C18.0308 130.805 18.5173 131.009 18.4914 131.313C18.4454 131.854 17.7659 131.796 17.4608 131.644L17.4636 131.641Z" fill="#CCCCCC"/>
    <path d="M16.4474 130.451C16.3898 130.365 16.2718 130.218 16.243 130.074C16.2142 129.899 16.387 129.87 16.4762 129.755C16.5626 129.698 16.6201 129.494 16.7382 129.522C16.8246 129.58 16.9426 129.726 16.9426 129.841C16.9714 129.899 16.9714 129.956 17.0002 129.985C17.029 130.043 17.1153 130.1 17.1758 130.161C17.2046 130.189 17.2622 130.218 17.2909 130.247C17.3197 130.304 17.3197 130.391 17.3197 130.48C17.3197 131.075 16.623 130.687 16.4474 130.451Z" fill="#CCCCCC"/>
    <path d="M18.336 130.45C18.2208 130.421 18.1604 130.335 18.1028 130.217C18.0164 130.042 17.8408 129.869 17.9272 129.665C17.956 129.547 18.0136 129.521 18.1316 129.521C18.2496 129.521 18.3072 129.521 18.3648 129.608C18.4224 129.665 18.4224 129.723 18.4512 129.751C18.5087 129.78 18.5663 129.809 18.6268 129.838C18.978 130.013 18.716 130.574 18.336 130.447V130.45Z" fill="#CCCCCC"/>
    <path d="M21.0105 128.156C20.8954 128.156 20.7773 128.156 20.691 128.127C20.5153 128.098 20.4002 128.069 20.3714 127.865C20.3426 127.69 20.3714 127.517 20.547 127.4C20.6334 127.371 20.691 127.313 20.7802 127.256C20.8378 127.198 20.8954 127.138 20.9846 127.109C21.0998 127.08 21.2466 127.167 21.333 127.224C21.4193 127.253 21.4481 127.31 21.5086 127.339C21.5662 127.425 21.6525 127.425 21.7706 127.454C21.8281 127.454 21.9462 127.483 21.975 127.569C22.093 128.044 21.2811 128.15 21.0163 128.15L21.0105 128.156Z" fill="#CCCCCC"/>
    <path d="M15.4858 128.128C15.2814 128.128 15.0195 128.185 14.8755 128.042C14.8467 127.984 14.7891 127.924 14.7287 127.866C14.6423 127.809 14.5531 127.809 14.4955 127.78C14.3199 127.694 14.2047 127.547 14.2047 127.343C14.2047 127.11 14.3487 127.024 14.5819 126.995C14.7575 126.966 14.8438 126.851 14.959 126.733C15.0742 126.647 15.1922 126.59 15.2786 126.501C15.4542 126.357 15.5981 126.21 15.7449 126.035C15.8313 125.949 15.9781 125.977 16.1221 125.977H16.266C16.3812 126.006 16.4417 126.064 16.528 126.092C16.6748 126.179 16.8188 126.239 16.934 126.354C17.1268 126.593 16.9743 127.153 16.8994 127.432C16.6835 128.243 16.1278 128.125 15.4801 128.125L15.4858 128.128Z" fill="#CCCCCC"/>
    <path d="M13.6548 125.688C13.5972 125.542 13.5972 125.369 13.5972 125.223V124.875C13.626 124.671 13.8016 124.613 13.9456 124.584C14.1212 124.556 14.2364 124.527 14.3515 124.409C14.4091 124.323 14.4667 124.234 14.5559 124.176C14.6423 124.09 14.7315 124.032 14.8179 123.972C14.9043 123.915 14.9935 123.828 15.0799 123.768C15.1375 123.739 15.195 123.71 15.2555 123.653C15.3419 123.624 15.4311 123.567 15.4887 123.538C15.6039 123.509 15.7219 123.423 15.837 123.394C15.9234 123.365 16.0702 123.337 16.1566 123.365C16.2142 123.365 16.2718 123.423 16.3322 123.423C16.361 123.452 16.4186 123.452 16.4762 123.48C16.6518 123.627 16.6201 123.917 16.6201 124.119C16.6201 124.32 16.4762 124.524 16.243 124.584C16.099 124.613 15.9522 124.556 15.8083 124.613C15.7219 124.613 15.6326 124.642 15.5463 124.671C15.4311 124.728 15.4311 124.814 15.3707 124.932C15.3131 125.019 15.2267 125.079 15.195 125.194C15.1663 125.28 15.195 125.427 15.195 125.542C15.195 125.657 15.195 125.803 15.1375 125.947C15.0799 126.033 14.9647 126.091 14.8755 126.151C14.5876 126.344 14.5127 126.24 14.2594 126.114C14.0176 125.993 13.7181 126.008 13.6519 125.688H13.6548Z" fill="#CCCCCC"/>
    <path d="M20.1382 125.253C20.1095 125.196 20.0519 125.138 20.0231 125.078C19.9655 125.02 19.9079 124.963 19.8475 124.902C19.8187 124.845 19.7611 124.756 19.7611 124.698C19.7899 124.583 19.9051 124.583 19.9655 124.552C20.2851 124.494 20.6622 124.494 20.9242 124.638C21.0681 124.724 21.1286 124.871 21.1286 125.043C21.1286 125.293 21.1228 125.535 20.8983 125.687C20.5125 125.952 20.3455 125.503 20.1411 125.247L20.1382 125.253Z" fill="#CCCCCC"/>
    <path d="M21.0681 124.123C20.9414 124.502 22.165 124.405 21.7072 123.947C21.6784 123.919 21.6496 123.89 21.6496 123.861C21.6208 123.832 21.6208 123.775 21.5921 123.715C21.5345 123.628 21.4481 123.686 21.3877 123.772C21.3589 123.83 21.3301 123.916 21.3013 123.976C21.2437 124.034 21.0969 124.034 21.0681 124.123Z" fill="#CCCCCC"/>
    <path d="M19.122 123.772C19.0356 123.629 18.8312 123.597 18.7448 123.453C18.6872 123.338 18.6584 123.134 18.6584 122.959C18.6584 122.872 18.716 122.697 18.8024 122.64C18.978 122.525 19.122 122.611 19.2371 122.755C19.2947 122.812 19.2947 122.898 19.3523 122.959C19.4386 123.016 19.5279 123.045 19.6143 123.045C19.7899 123.045 19.8187 122.901 19.8187 122.726C19.8187 122.582 19.8475 122.435 19.9338 122.32C20.049 122.177 20.1958 122.205 20.3685 122.205C20.6017 122.205 20.9213 122.205 21.0077 122.467C21.0652 122.614 21.0077 122.7 20.9213 122.815C20.7745 122.93 20.6593 123.077 20.5442 123.192C20.4578 123.249 20.4002 123.307 20.3685 123.396C20.3398 123.482 20.3398 123.571 20.3398 123.686C20.3398 123.988 19.9137 124.189 19.6517 124.169C19.3782 124.146 19.2458 123.982 19.1191 123.772H19.122Z" fill="#CCCCCC"/>
    <path d="M18.1921 121.972C17.9877 121.944 17.8437 121.886 17.6969 121.768C17.6393 121.682 17.5529 121.624 17.4637 121.564C17.4061 121.507 17.3485 121.449 17.3197 121.389C17.2622 121.36 17.2046 121.274 17.1441 121.274C17.029 121.302 17.1441 121.449 17.1153 121.535C17.0578 121.622 16.8533 121.593 16.767 121.679C16.6806 121.765 16.6518 121.854 16.505 121.794C16.3898 121.765 16.361 121.647 16.3006 121.59C16.243 121.504 16.1854 121.475 16.125 121.446C16.0098 121.36 16.0674 121.242 16.1538 121.185C16.2689 121.127 16.3294 121.067 16.4157 120.98C16.5021 120.865 16.5021 120.805 16.5597 120.69C16.5885 120.575 16.5885 120.457 16.6749 120.371C16.7612 120.227 16.8505 120.227 16.9944 120.227C17.17 120.227 17.314 120.227 17.4896 120.285C17.6652 120.342 17.7804 120.779 18.0424 120.604C18.0999 120.575 18.1575 120.428 18.1575 120.342C18.1287 120.256 18.0136 120.198 17.9243 120.138C17.8092 120.052 17.7487 120.023 17.8092 119.876C17.8379 119.759 17.9243 119.672 17.9848 119.557C18.0136 119.471 18.0711 119.382 18.1892 119.324C18.2755 119.296 18.4224 119.324 18.5087 119.353C18.5663 119.411 18.6527 119.497 18.7419 119.557C18.8283 119.644 18.9463 119.701 18.9751 119.819C19.0327 119.934 18.9751 120.052 18.9751 120.138C18.9751 120.253 18.9751 120.313 18.9463 120.4C18.9463 120.515 18.9176 120.719 18.9751 120.805C19.0039 120.891 19.122 120.92 19.1795 120.98C19.2371 121.038 19.4127 121.124 19.4415 121.213C19.4703 121.328 19.2976 121.36 19.2083 121.417C19.0212 121.544 18.9607 121.806 18.7851 121.941C18.5519 122.122 18.4627 122.007 18.1921 121.969V121.972Z" fill="#CCCCCC"/>
    <path d="M23.3367 122.727C23.2503 122.698 23.1323 122.698 23.0747 122.67C22.9883 122.612 22.9883 122.408 23.0459 122.322C23.0747 122.207 23.1899 122.178 23.3079 122.178C23.3943 122.178 23.4835 122.149 23.5699 122.092C23.6563 122.005 23.7138 121.916 23.8031 121.859C23.8895 121.744 23.9787 121.655 24.0363 121.511C24.0939 121.425 24.0363 121.278 24.0939 121.163C24.1227 121.106 24.1802 121.016 24.209 120.93C24.209 120.873 24.209 120.815 24.1802 120.726C24.0939 120.608 24.0363 120.493 23.9758 120.378C23.947 120.263 23.9182 120.145 23.8895 120.03C23.8895 119.944 23.8607 119.797 23.8895 119.711C24.0334 119.421 24.3242 119.711 24.471 119.826C24.5286 119.884 24.6466 119.941 24.733 119.97C24.8194 120.027 24.9662 120.085 25.0238 120.203C25.0813 120.289 25.0526 120.436 24.995 120.522C24.9374 120.637 24.7618 120.726 24.8194 120.87C24.8481 120.985 24.9633 121.074 25.0238 121.189C25.0813 121.275 25.1101 121.393 25.257 121.304C25.3433 121.218 25.4038 121.1 25.5189 121.071C25.5477 121.042 25.6341 121.042 25.6946 121.042C25.7809 121.014 25.8097 120.956 25.8414 120.899C25.9278 120.752 26.017 120.752 26.1034 120.87C26.1609 120.927 26.2185 121.045 26.2473 121.16C26.2761 121.246 26.2761 121.364 26.2761 121.479C26.2761 121.594 26.3049 121.741 26.1897 121.827C26.1322 121.913 26.0429 121.942 25.9565 122.031C25.899 122.118 25.8702 122.207 25.8702 122.322C25.8414 122.437 25.7838 122.526 25.7262 122.641C25.6399 122.785 25.5218 122.785 25.3491 122.756C25.1735 122.727 25.1447 122.612 25.0871 122.437C25.0295 122.322 25.0007 122.089 24.8539 122.031C24.6783 121.945 24.6495 122.146 24.5631 122.235C24.3846 122.368 24.2752 122.408 24.137 122.56C23.8578 122.871 23.7455 122.81 23.3425 122.727H23.3367Z" fill="#CCCCCC"/>
    <path d="M21.6496 115.179C21.5633 115.15 21.4164 115.093 21.3301 115.035C21.2437 114.949 21.1545 114.745 21.1257 114.63C21.0969 114.543 21.0681 114.339 21.0969 114.253C21.1257 114.167 21.1833 114.078 21.2408 114.049C21.2984 113.991 21.3848 113.991 21.4452 113.963C21.5316 113.905 21.6209 113.819 21.7072 113.759C21.8224 113.701 21.998 113.73 22.1132 113.73C22.1995 113.73 22.3176 113.701 22.4039 113.759C22.5191 113.816 22.5191 114.02 22.4327 114.106C22.3463 114.221 22.2571 114.282 22.2283 114.454C22.1707 114.63 22.3147 114.716 22.4903 114.802C22.5767 114.831 22.6947 114.888 22.8099 114.917C23.1525 115.003 23.5354 115.498 22.9337 115.501C22.7408 115.501 22.5968 115.423 22.4212 115.366C22.1736 115.285 21.8771 115.294 21.6468 115.179H21.6496Z" fill="#CCCCCC"/>
    <path d="M18.9463 115.469C18.86 115.382 18.7707 115.354 18.6556 115.382C18.5692 115.411 18.48 115.469 18.3936 115.5C18.3072 115.529 18.1892 115.558 18.1028 115.558C17.9589 115.5 17.812 115.239 17.7832 115.092C17.7545 115.006 17.7545 114.888 17.7545 114.773C17.7545 114.715 17.7832 114.658 17.7832 114.629V114.454C17.8408 114.192 18.0164 114.221 18.2208 114.135C18.336 114.077 18.3965 113.991 18.5404 113.991C18.6556 113.991 18.716 113.933 18.8024 113.876C19.0068 113.732 19.122 113.528 19.2371 113.324C19.2947 113.238 19.3523 113.148 19.4415 113.091C19.5279 113.005 19.6459 112.973 19.7323 112.916C20.0806 112.74 20.429 112.829 20.7486 112.887C20.8925 112.887 21.0969 112.887 21.0105 113.091C20.953 113.295 20.691 113.353 20.5154 113.439C20.429 113.468 20.3714 113.525 20.2822 113.554C20.1958 113.64 20.1066 113.64 19.9914 113.669C19.787 113.784 19.787 113.988 19.7294 114.192C19.6344 114.526 19.7467 114.897 19.6776 115.239C19.5883 115.681 19.2141 115.874 18.9435 115.472L18.9463 115.469Z" fill="#CCCCCC"/>
    <path d="M1.10551 128.855C0.990352 129.011 0.834889 129.166 0.601694 129.126C0.408805 129.088 0.331073 128.933 0.213036 128.778C0.0978785 128.622 -0.0978898 128.39 0.0575733 128.16C0.135305 128.082 0.250463 128.045 0.290768 127.967C0.368499 127.889 0.368499 127.812 0.405926 127.734C0.443352 127.656 0.443352 127.579 0.483657 127.501C0.521083 127.386 0.561389 127.268 0.676547 127.231C0.800341 127.191 1.28688 127.659 1.3531 127.743C1.70145 128.185 1.3531 128.484 1.10551 128.855Z" fill="#CCCCCC"/>
    <path d="M23.9759 98.6186H23.6649C23.5872 98.6186 23.5498 98.5036 23.4721 98.4259C23.3943 98.3483 23.3166 98.2707 23.3166 98.1154C23.3166 98.0378 23.3943 97.9602 23.4317 97.8825C23.5095 97.6497 23.6246 97.4944 23.8578 97.3794C23.9356 97.3018 24.0507 97.2644 24.1285 97.2242C24.2062 97.1868 24.2839 97.1868 24.3616 97.1092C24.4394 97.0718 24.4768 96.9941 24.5948 96.9941C24.6323 96.9941 24.7503 97.0315 24.828 97.0718C24.9777 97.1465 24.2868 98.6214 23.9759 98.6214V98.6186Z" fill="#CCCCCC"/>
    <path d="M29.7539 175.738C29.561 175.775 29.3653 175.815 29.1724 175.815H26.6907C26.4575 175.815 26.1869 175.778 25.994 175.7C25.8789 175.663 25.7608 175.623 25.6831 175.585C25.4902 175.548 25.4125 175.508 25.257 175.393C25.1418 175.237 24.9461 175.2 24.7532 175.082C24.52 174.967 24.4048 174.772 24.2119 174.616C23.6534 174.171 23.711 174.938 23.5181 175.188C23.4058 175.332 23.1036 175.565 22.9539 175.7C22.761 175.876 22.5738 175.999 22.3003 176.005C21.3676 176.025 20.8148 174.786 20.406 174.125C20.1066 173.642 19.7208 173.055 19.7928 172.411C19.8619 171.784 20.2246 171.307 20.8493 171.212C21.3618 171.132 22.1909 170.882 22.4731 170.433C22.6228 170.197 22.666 169.87 22.8387 169.614C23.0431 169.318 23.2907 169.056 23.5124 168.774C23.9471 168.219 24.2494 168.055 24.9087 167.846C25.2599 167.733 25.4758 167.653 25.8789 167.653C26.2618 167.653 26.5583 167.624 26.8865 167.5C27.5458 167.253 28.1331 166.813 28.7549 166.54C29.2933 166.304 29.7597 165.962 30.2203 165.603C30.8796 165.088 31.369 165.137 32.1981 165.137C33.5426 165.137 34.6481 164.634 35.9984 164.634C36.5597 164.634 37.4033 164.473 37.9388 164.634C38.4339 164.784 39.194 165.29 39.4013 165.767C39.5654 166.141 39.6632 166.227 39.9425 166.534C40.121 166.73 40.3081 167.026 40.406 167.276C40.6219 167.823 40.6104 168.49 40.6104 169.088C40.6104 169.493 40.6104 169.706 40.3398 170.016C40.1469 170.24 39.931 170.468 39.7064 170.666C39.4473 170.899 39.2343 171.06 39.1047 171.379C38.9925 171.655 38.932 171.951 38.7967 172.23C38.5433 172.756 37.933 173.417 37.3543 173.578C36.7066 173.757 36.0041 173.636 35.3535 173.817C34.8381 173.961 34.4178 174.159 33.8622 174.243C33.2317 174.34 32.6876 174.438 32.1089 174.737C31.7145 174.941 31.3517 175.209 30.94 175.375C30.5341 175.542 30.1483 175.545 29.7539 175.743V175.738Z" fill="#CCCCCC"/>
    <path d="M103.61 104.414L103.179 104.618C102.896 104.601 102.764 104.871 102.56 105.015C102.344 105.167 102.099 105.236 101.86 105.346C101.621 105.452 101.319 105.535 101.134 105.734C100.959 105.926 100.942 106.165 100.783 106.369C100.639 106.553 100.386 106.76 100.242 106.979C99.9886 107.358 99.8994 107.568 99.5366 107.87C99.3035 108.025 99.0328 108.14 98.7622 108.218C98.6471 108.255 98.529 108.255 98.4139 108.295C98.2987 108.333 98.1807 108.373 98.1029 108.41C97.9475 108.488 97.8323 108.566 97.7143 108.643C97.5991 108.681 97.4811 108.721 97.4033 108.799C97.1702 108.954 97.0924 109.146 96.9773 109.379C96.937 109.494 96.8621 109.612 96.7844 109.767C96.747 109.845 96.747 109.96 96.6289 110H96.1625C95.9293 110 95.7364 110.115 95.5407 110.156C95.4255 110.193 95.3075 110.193 95.152 110.193C95.034 110.193 94.8814 110.156 94.7634 110.23C94.5302 110.386 94.5302 110.771 94.3373 110.966C94.1818 111.122 93.9889 111.237 93.8709 111.432C93.7932 111.547 93.7154 111.665 93.678 111.78C93.6003 111.935 93.5225 112.05 93.4448 112.168C93.2893 112.323 93.0965 112.516 93.0187 112.709C92.9784 112.864 93.0187 113.057 93.0561 113.174C93.0936 113.289 93.1339 113.33 93.1339 113.445C93.1713 113.56 93.1713 113.715 93.1713 113.87L93.1857 114.362" fill="#CCCCCC"/>
    <path d="M150.396 32.5691C150.241 32.4139 150.163 32.2586 150.163 31.951C150.163 31.7181 150.163 31.4852 150.085 31.2552C149.93 31.0224 149.852 30.8671 150.007 30.6342C150.163 30.4013 150.318 30.2461 150.549 30.2461C150.626 30.3237 150.782 30.4013 150.86 30.479C151.015 30.5566 151.093 30.6342 151.326 30.6342C151.559 30.6342 151.715 30.6342 152.023 30.5566C152.411 30.479 152.953 30.5566 153.419 30.5566C154.487 30.5566 154.156 32.0459 153.632 32.5231C152.65 33.4173 151.332 33.5035 150.396 32.5691Z" fill="#CCCCCC"/>
  </g>
  <defs>
    <clipPath id="clip0_7571_19568">
      <rect width="154.124" height="176" fill="white"/>
    </clipPath>
  </defs>
</svg>