<?xml version="1.0" encoding="UTF-8"?>
<svg id="Layer_2" data-name="Layer 2" xmlns="http://www.w3.org/2000/svg" viewBox="0 0 115.16 80">
  <defs>
    <style>
      .cls-1 {
        fill: #4b4b4b;
        stroke-width: 0px;
      }
    </style>
  </defs>
  <g id="Layer_1-2" data-name="Layer 1">
    <g>
      <rect class="cls-1" x="26.75" y="76.94" width="24.46" height="3.06"/>
      <path class="cls-1" d="M44.33,45.35c-5.39,0-9.77,4.37-9.77,9.77s4.37,9.77,9.77,9.77,9.77-4.37,9.77-9.77-4.37-9.77-9.77-9.77ZM44.33,61.83c-3.69,0-6.71-3.01-6.71-6.71s3.01-6.71,6.71-6.71,6.71,3.01,6.71,6.71-3.01,6.71-6.71,6.71Z"/>
      <path class="cls-1" d="M98.77,44.12c-8.37,0-15.5,6.5-16.26,14.82h-3.57V24.93h9.26c4.46,0,8.32,2.85,9.6,7.13l1.83,6.03h-.89c-5.94,0-11.55,2.29-15.8,6.5l-.17.17,2.17,2.17.17-.17c3.65-3.61,8.49-5.61,13.63-5.61,2.76,0,5.44.55,7.9,1.7l.21.08,1.27-2.8-.21-.08c-1.57-.72-3.23-1.23-4.97-1.57l-2.21-7.3c-1.7-5.56-6.71-9.3-12.53-9.3h-.72V7.77l4.54-4.54-2.17-2.17-5.44,5.44v15.37h-7.22l-5.77-16.65c-1.1-3.14-4.03-5.22-7.39-5.22h-16.6c-4.03,0-7.39,3.06-7.77,7.13l-.42,17.15v.21h0v4.59c-7.13,1.32-13.59,5.44-17.79,11.3l-.13.17,2.51,1.78.13-.17c4.71-6.54,12.36-10.49,20.38-10.49,3.44,0,6.79.68,9.98,2.08v2.63h3.06v-11.42h18.51v10.74h-8.32v23.27h-4.16c.25-1.27.38-2.55.38-3.82,0-10.74-8.75-19.45-19.45-19.45s-19.45,8.75-19.45,19.45c0,1.27.13,2.55.38,3.82H0v3.06h26.11c2.85,7.52,10.15,12.57,18.22,12.57s15.33-5.05,18.22-12.57h5.05v6.33h11.38v-6.33h3.57c.76,8.32,7.9,14.82,16.26,14.82,9,0,16.35-7.35,16.35-16.35s-7.39-16.39-16.39-16.39ZM54.31,30.45c-3.18-1.23-6.54-1.83-9.98-1.83-.64,0-1.32.04-2,.08v-3.74h11.97v5.48ZM54.31,21.87h-11.93l.38-14.56c.25-2.42,2.25-4.25,4.71-4.25h6.84v18.81ZM57.37,21.87V3.06h6.67c2,0,3.82,1.27,4.46,3.18l5.44,15.63h-16.56ZM44.33,71.51c-9.04,0-16.39-7.35-16.39-16.39s7.35-16.39,16.39-16.39,16.39,7.35,16.39,16.39-7.35,16.39-16.39,16.39ZM75.88,65.27h-5.22v-6.79h5.22v6.79ZM75.88,55.41h-5.22v-6.79h5.22v6.79ZM75.88,45.52h-5.22v-6.79h5.22v6.79ZM98.77,73.76c-7.3,0-13.25-5.94-13.25-13.25s5.94-13.25,13.25-13.25,13.25,5.94,13.25,13.25-5.94,13.25-13.25,13.25Z"/>
      <path class="cls-1" d="M98.77,52.74c-4.25,0-7.73,3.48-7.73,7.73s3.48,7.73,7.73,7.73,7.73-3.48,7.73-7.73c0-4.25-3.48-7.73-7.73-7.73ZM98.77,65.14c-2.55,0-4.67-2.08-4.67-4.67s2.08-4.67,4.67-4.67,4.67,2.08,4.67,4.67c-.04,2.59-2.12,4.67-4.67,4.67Z"/>
      <rect class="cls-1" x="4.93" y="66.11" width="18.09" height="3.06"/>
    </g>
  </g>
</svg>