<!-- Generated by IcoMoon.io -->
<svg version="1.1" xmlns="http://www.w3.org/2000/svg" viewBox="0 0 1024 1024">
<title></title>
<g id="icomoon-ignore">
</g>
<path d="M517.851 675.783l-27.794-36.571c4.389-7.314 7.314-16.091 10.24-23.406l45.349-5.851v-51.2l-45.349-5.851c-2.926-8.777-5.851-16.091-10.24-23.406l27.794-36.571-36.571-36.571-36.571 27.794c-7.314-4.389-16.091-7.314-23.406-10.24l-5.851-45.349h-51.2l-5.851 45.349c-8.777 2.926-16.091 5.851-23.406 10.24l-36.571-27.794-36.571 36.571 27.794 36.571c-4.389 7.314-7.314 16.091-10.24 23.406l-45.349 5.851v51.2l45.349 5.851c2.926 8.777 5.851 16.091 10.24 23.406l-27.794 36.571 36.571 36.571 36.571-27.794c7.314 4.389 16.091 7.314 23.406 10.24l5.851 45.349h51.2l5.851-45.349c8.777-2.926 16.091-5.851 23.406-10.24l36.571 27.794 36.571-36.571zM446.171 665.543l-4.389 2.926c-8.777 5.851-19.017 10.24-29.257 11.703l-5.851 1.463-5.851 42.423h-24.869l-5.851-42.423-5.851-1.463c-10.24-2.926-20.48-5.851-29.257-11.703l-4.389-2.926-33.646 26.331-17.554-17.554 26.331-33.646-2.926-4.389c-5.851-8.777-10.24-19.017-11.703-29.257l1.463-4.389-42.423-5.851v-24.869l42.423-5.851 1.463-5.851c2.926-10.24 5.851-20.48 11.703-29.257l2.926-4.389-26.331-33.646 17.554-17.554 33.646 26.331 4.389-2.926c8.777-5.851 19.017-10.24 29.257-11.703l5.851-1.463 5.851-42.423h24.869l5.851 42.423 5.851 1.463c10.24 2.926 20.48 7.314 29.257 11.703l4.389 2.926 33.646-26.331 17.554 17.554-26.331 33.646 2.926 4.389c5.851 8.777 10.24 19.017 11.703 29.257l1.463 5.851 42.423 5.851v24.869l-42.423 5.851-1.463 5.851c-2.926 10.24-7.314 20.48-11.703 29.257l-2.926 4.389 26.331 33.646-17.554 17.554-36.571-27.794zM390.583 529.497c-29.257 0-52.663 24.869-54.126 54.126 0 30.72 23.406 55.589 54.126 55.589 29.257 0 52.663-24.869 54.126-54.126 0-29.257-24.869-54.126-54.126-55.589zM428.617 585.086c0 21.943-17.554 39.497-39.497 39.497s-39.497-17.554-39.497-39.497c0-21.943 17.554-39.497 39.497-39.497s39.497 17.554 39.497 39.497c0 0 0 0 0 0zM390.583 639.212v0 0zM789.943 449.040v-48.274l-40.96-5.851c-1.463-7.314-4.389-14.629-8.777-20.48l24.869-32.183-33.646-33.646-32.183 24.869c-7.314-2.926-13.166-5.851-20.48-8.777l-5.851-40.96h-48.274l-5.851 40.96c-7.314 1.463-14.629 4.389-20.48 8.777l-32.183-24.869-33.646 33.646 24.869 32.183c-2.926 7.314-5.851 13.166-8.777 20.48l-40.96 5.851v48.274l40.96 5.851c1.463 7.314 4.389 14.629 8.777 20.48l-24.869 32.183 33.646 33.646 32.183-24.869c7.314 4.389 13.166 5.851 20.48 8.777l5.851 40.96h48.274l5.851-40.96c7.314-1.463 14.629-4.389 20.48-8.777l32.183 24.869 33.646-33.646-24.869-32.183c2.926-7.314 5.851-13.166 8.777-20.48l40.96-5.851zM744.594 506.092l-14.629 14.629-30.72-23.406-4.389 2.926c-8.777 4.389-17.554 8.777-26.331 11.703l-5.851 1.463-4.389 38.034h-20.48l-4.389-38.034-5.851-1.463c-8.777-2.926-17.554-5.851-26.331-11.703l-4.389-2.926-30.72 23.406-14.629-14.629 23.406-30.72-2.926-4.389c-4.389-8.777-8.777-17.554-10.24-26.331l-1.463-5.851-38.034-4.389v-20.48l38.034-4.389 1.463-5.851c2.926-8.777 5.851-17.554 10.24-26.331l2.926-4.389-23.406-30.72 14.629-14.629 30.72 23.406 4.389-2.926c8.777-4.389 17.554-8.777 26.331-10.24l5.851-1.463 4.389-38.034h20.48l4.389 38.034 5.851 1.463c8.777 2.926 17.554 5.851 26.331 10.24l4.389 2.926 30.72-23.406 14.629 14.629-23.406 30.72 2.926 4.389c4.389 8.777 8.777 17.554 10.24 26.331l1.463 5.851 38.034 4.389v20.48l-38.034 4.389-1.463 5.851c-2.926 8.777-5.851 17.554-10.24 26.331l-2.926 4.389 23.406 30.72zM648.046 371.509c-29.257 0-54.126 24.869-54.126 54.126s24.869 54.126 54.126 54.126c29.257 0 54.126-24.869 54.126-54.126 0 0 0 0 0 0 0-30.72-24.869-54.126-54.126-54.126zM686.080 425.634c0 21.943-17.554 38.034-38.034 38.034-21.943 0-38.034-17.554-38.034-38.034 0-21.943 17.554-38.034 38.034-38.034 21.943-1.463 38.034 16.091 38.034 38.034 0 0 0 0 0 0zM459.337 744.537l-2.926 14.629c19.017 4.389 38.034 7.314 57.051 7.314 109.714 0 210.651-70.217 244.297-178.469l-14.629-4.389c-38.034 118.491-162.377 190.171-283.794 160.914zM567.589 277.886l2.926-14.629c-122.88-29.257-250.149 38.034-295.497 156.526l14.629 5.851c42.423-111.177 162.377-174.080 277.943-147.749z"></path>
</svg>
