<?xml version="1.0" encoding="utf-8"?>
<!-- Generator: Adobe Illustrator 28.1.0, SVG Export Plug-In . SVG Version: 6.00 Build 0)  -->
<svg version="1.1" id="Layer_1" xmlns="http://www.w3.org/2000/svg" xmlns:xlink="http://www.w3.org/1999/xlink" x="0px" y="0px"
	 viewBox="0 0 480 480" style="enable-background:new 0 0 480 480;" xml:space="preserve">
<style type="text/css">
	.st0{fill:#FFFFFF;}
</style>
<g>
	<path class="st0" d="M-279.3,301.9l1.3-2.2c2.7-4.4,4.7-9.1,5.8-14l0.6-2.5l20.2-2.6v-11.8l-20.2-2.6l-0.6-2.5
		c-1.2-4.9-3.1-9.6-5.8-14l-1.3-2.2l12.4-16.1l-8.3-8.3l-16.1,12.4l-2.2-1.3c-4.4-2.7-9.1-4.7-14-5.8l-2.5-0.6l-2.6-20.1h-11.8
		l-2.6,20.1l-2.5,0.6c-4.9,1.2-9.6,3.1-14,5.8l-2.2,1.3l-16.1-12.4l-8.3,8.3l12.4,16.1l-1.3,2.2c-2.7,4.4-4.7,9.1-5.8,14l-0.6,2.5
		l-20.2,2.6v11.8l20.2,2.6l0.6,2.5c1.2,4.9,3.1,9.6,5.8,14l1.3,2.2L-370,318l8.3,8.3l16.1-12.4l2.2,1.3c4.4,2.7,9.1,4.7,14,5.8
		l2.5,0.6l2.6,20.2h11.8l2.6-20.2l2.5-0.6c4.9-1.2,9.6-3.1,14-5.8l2.2-1.3l16.1,12.4l8.3-8.3L-279.3,301.9z M-318.4,301L-318.4,301
		c-14.5,0-26.2-11.8-26.2-26.2c0-14.4,11.7-26.2,26.2-26.2c0,0,0,0,0,0c14.4,0,26.2,11.8,26.2,26.2
		C-292.3,289.2-304,300.9-318.4,301z"/>
	<path class="st0" d="M-318.4,256c-10.4,0-18.8,8.4-18.8,18.8c0,10.4,8.4,18.8,18.8,18.8c10.4,0,18.8-8.4,18.8-18.8
		C-299.6,264.4-308.1,256-318.4,256z"/>
	<circle class="st0" cx="-194.7" cy="198.5" r="18.5"/>
	<path class="st0" d="M-260,30c-116,0-210,94-210,210c0,116,94,210,210,210s210-94,210-210C-50,124-144,30-260,30z M-231.6,121
		l-1.7,7.2c-55.4-12.9-112.6,17.4-133,70.3l-6.9-2.7C-351.4,139.5-290.6,107.3-231.6,121z M-303.2,327.6l-2.8,21.6h-24.8l-2.8-21.6
		c-4-1.1-7.8-2.7-11.5-4.8l-17.3,13.3l-17.5-17.5l13.3-17.3c-2-3.7-3.6-7.5-4.8-11.5l-21.6-2.8v-24.7l21.6-2.8
		c1.1-4,2.7-7.8,4.8-11.5l-13.3-17.3l17.5-17.5l17.3,13.3c3.7-2,7.5-3.6,11.5-4.8l2.8-21.6h24.8l2.8,21.6c4,1.1,7.8,2.7,11.4,4.8
		l17.3-13.3l17.5,17.5l-13.3,17.3c2,3.7,3.6,7.5,4.8,11.5l21.6,2.8v24.7l-21.6,2.8c-1.1,4-2.7,7.8-4.8,11.5l13.3,17.3l-17.5,17.5
		l-17.3-13.3C-295.5,324.9-299.3,326.5-303.2,327.6z M-259.5,362.2c-9.1,0-18.2-1-27.4-3.1l1.7-7.2c58.1,13.5,117.7-20.5,135.5-77.4
		l7.1,2.2C-158.9,328.3-207.3,362.2-259.5,362.2z M-127.1,210l-19.6,2.5c-1,3.4-2.4,6.8-4.2,10l12.1,15.7l-16.2,16.3l-15.7-12.1
		c-3.2,1.8-6.5,3.2-10,4.2l-2.5,19.6h-23l-2.5-19.6c-3.5-1-6.8-2.4-10-4.2l-15.7,12.1l-16.3-16.3l12.1-15.7c-1.8-3.2-3.2-6.6-4.2-10
		l-19.6-2.5v-23l19.6-2.5c1-3.4,2.4-6.8,4.2-10l-12.1-15.7l16.3-16.3l15.7,12.1c3.2-1.8,6.5-3.2,10-4.2l2.5-19.6h23l2.5,19.6
		c3.4,1,6.8,2.4,10,4.2l15.7-12.1l16.2,16.3l-12.1,15.7c1.8,3.2,3.2,6.5,4.2,10l19.6,2.5V210z"/>
	<path class="st0" d="M-153.2,188.7c-1-4.4-2.8-8.6-5.2-12.5l-1.3-2.2l11.2-14.5l-7.1-7.1l-14.5,11.2l-2.2-1.3
		c-3.9-2.4-8.1-4.2-12.5-5.2l-2.5-0.6l-2.4-18.1h-10.1l-2.3,18.1l-2.5,0.6c-4.4,1-8.6,2.8-12.5,5.2l-2.2,1.3l-14.5-11.2l-7.1,7.1
		l11.2,14.5l-1.3,2.2c-2.4,3.9-4.2,8.2-5.2,12.5l-0.6,2.5l-18.1,2.3v10l18.1,2.3l0.6,2.5c1,4.4,2.8,8.6,5.2,12.5l1.3,2.2l-11.2,14.5
		l7.1,7.1l14.5-11.2l2.2,1.3c3.9,2.4,8.1,4.2,12.5,5.2l2.5,0.6l2.3,18.1h10.1l2.4-18.1l2.5-0.6c4.4-1,8.6-2.8,12.5-5.2l2.2-1.3
		l14.5,11.2l7.1-7.1l-11.2-14.5l1.3-2.2c2.4-3.9,4.2-8.1,5.2-12.5l0.6-2.5l18.1-2.3v-10l-18.1-2.3L-153.2,188.7z M-194.7,224.4
		c-14.2,0-25.8-11.6-25.8-25.8c0-14.2,11.6-25.8,25.8-25.8c14.2,0,25.8,11.6,25.8,25.8C-168.9,212.8-180.5,224.4-194.7,224.4z"/>
</g>
<g>
	<path class="st0" d="M-1162,221.7c0-24.1-18.5-54.3-46.3-71.8v43.6h-7.6v-47.9c-5.7-2.9-11.7-5.3-18-7.1v80.3h-7.6v-97.2h-29v97.2
		h-7.6v-80.3c-6.3,1.7-12.3,4.1-18,7.1v47.9h-7.6v-43.6c-27.8,17.5-46.3,47.8-46.3,71.8v3.8h-9.2v19.8l17.7,0.3
		c16.4,7.1,49.1,14.3,85.6,14.3c36.6,0,69.3-7.2,85.5-14.3l1.5-0.3h16.2v-19.8h-9.1V221.7z M-1256.1,243.8c-18.6,0-37.8-1.7-57.2-5
		l1.3-7.5c37.9,6.5,73.8,6.5,111.8,0l1.3,7.5C-1218.3,242.1-1237.6,243.8-1256.1,243.8z"/>
	<path class="st0" d="M-1256.1,30c-116,0-210,94-210,210c0,116,94,210,210,210s210-94,210-210C-1046.1,124-1140.2,30-1256.1,30z
		 M-1152.1,273.8l-21.2,6.9c-0.6,3.1-1.5,6.3-2.5,9.3l14.9,16.5l-9.8,17l-21.7-4.6c-2.1,2.4-4.4,4.7-6.9,6.9l4.6,21.7l-17,9.8
		l-16.5-14.9c-3.1,1-6.2,1.9-9.3,2.5l-6.9,21.2h-19.6l-6.9-21.2c-3.1-0.6-6.3-1.5-9.3-2.5l-16.5,14.9l-17-9.8l4.6-21.7
		c-2.4-2.1-4.7-4.4-6.9-6.9l-21.7,4.6l-9.8-17l14.9-16.5c-1-3.1-1.9-6.2-2.5-9.3l-21.2-6.9v-10h7.6v4.5l20.2,6.6l0.4,2.3
		c0.7,4.2,1.9,8.4,3.4,12.5l0.8,2.2l-14.2,15.8l4.3,7.4l20.7-4.4l1.5,1.8c2.8,3.3,5.9,6.4,9.2,9.2l1.8,1.5l-4.4,20.8l7.4,4.2
		l15.8-14.2l2.2,0.8c4.1,1.5,8.3,2.6,12.5,3.4l2.3,0.4l6.6,20.2h8.5l6.6-20.2l2.3-0.4c4.2-0.7,8.4-1.9,12.5-3.4l2.2-0.8l15.8,14.2
		l7.4-4.2l-4.4-20.8l1.8-1.5c3.3-2.8,6.4-5.9,9.2-9.2l1.5-1.8l20.8,4.4l4.2-7.4l-14.2-15.8l0.8-2.2c1.5-4.1,2.6-8.3,3.4-12.5
		l0.4-2.3l20.2-6.6v-4.5h7.6V273.8z M-1298.8,280.5l7.2-2.7c5.8,15.5,20.9,26,37.5,26c16.6,0,31.2-10,37.3-25.4l7.1,2.8
		c-7.2,18.4-24.6,30.3-44.4,30.3C-1273.9,311.4-1291.9,299-1298.8,280.5z M-1145.2,253h-23c-17.2,7.3-50.7,14.6-87.9,14.6
		c-37,0-70.6-7.3-87.9-14.6h-23v-35.1h9.3c2.3-33.7,34.1-76,79.5-87.3v-16.6h44.3v16.6c45.3,11.3,77.2,53.6,79.5,87.3h9.3V253z"/>
</g>
<g>
	<path class="st0" d="M-641.4,239.9c-4.4-1.5-9.6-0.8-15.3,2.1c-3.6,1.8-6.9,3.5-10.3,4.6c-22.6,7.3-35.3,10.4-39.8,11.4
		c-3.3,5.9-9.5,10-16.7,10.4l-32.8,1.7l-0.4-7.9l32.8-1.7c6.5-0.3,11.8-5.7,11.9-12.3c0.1-3.4-1.2-6.7-3.7-9.1
		c-2.5-2.4-5.4-3.7-9.2-3.6l-26.7,0.4c-3.5,0.1-9.7-0.2-12.5-2.8c-13.4-12.1-42.8-12.2-59.1,5.8l-16.6,15.4l-7.5,5.1l33.3,51.3
		l17-11.4c0.6-0.4,1.3-0.6,2.1-0.7l67.2-2c16.3,0,20.9-2.8,33.3-10.2c2.9-1.7,6.1-3.7,9.9-5.8c9.8-5.5,22.7-13.8,33.2-20.4l10.7-6.8
		c3.3-2.1,6.1-4,8.2-5.6C-634.7,243.8-637.8,241.1-641.4,239.9z"/>
	<path class="st0" d="M-756.1,30c-116,0-210,94-210,210c0,116,94,210,210,210s210-94,210-210C-546.1,124-640.2,30-756.1,30z
		 M-797.7,131.3h75h3.9h66.4v90.9h-7.9v-83.1h-54.6v73.5h-7.9v-73.5h-67.1v62.8h-7.9V131.3z M-762.6,156.2v7.9h-12.5v-7.9H-762.6z
		 M-871.1,287.3l-4.3-6.6l10.5-6.8l4.3,6.6L-871.1,287.3z M-624.6,251.7c-3,2.7-8.6,6.4-11.6,8.3l-10.7,6.9
		c-10.5,6.7-23.6,15-33.5,20.6c-3.8,2.1-7,4-9.8,5.7c-12.6,7.5-19,11.3-37.3,11.3l-66,1.9l-16.2,10.8l8,12.3l-29.5,19.2l-4.3-6.6
		l22.9-14.9l-49.3-75.8l-22.9,14.9l-4.3-6.6l29.5-19.2l7.9,12.2l6.9-4.7l15.9-14.8c19.2-21.4,53.5-20.9,70-6.1
		c0.5,0.3,3.5,0.8,7.1,0.7l26.7-0.4c5.6-0.1,10.9,2,14.9,5.9c4,4,6.1,9.2,6,14.8c0,0.3,0,0.6-0.1,0.9c6.3-1.6,17.7-4.6,34.7-10.1
		c2.9-0.9,5.9-2.4,8.7-3.9c8-4.1,15.4-4.9,21.9-2.7c6.3,2.1,11.6,7.2,15.2,14.6C-622.9,248.7-623.3,250.5-624.6,251.7z"/>
</g>
<g>
	<polygon class="st0" points="255.7,163.7 271.9,163.7 239.8,117.6 207.5,163.7 224.3,163.7 224.3,224.4 163.6,224.4 163.6,205.4 
		117.3,240.2 163.6,272.6 163.6,255.8 224.3,255.8 224.3,316.4 205.4,316.4 240.1,362.8 272.5,316.4 255.7,316.4 255.7,255.8 
		316.4,255.8 316.4,274.7 362.7,240 316.4,207.6 316.4,224.4 255.7,224.4 	"/>
	<path class="st0" d="M240,30C124,30,30,124,30,240c0,116,94,210,210,210s210-94,210-210C450,124,356,30,240,30z M308.5,290.4v-26.8
		h-45v45h24.1l-47.3,67.5l-50.6-67.5h26.8v-45h-45v24.1l-67.5-47.3l67.5-50.6v26.8l45,0v-45h-24.1l47.4-67.7l47.1,67.7h-23.4v45h45
		v-24.1l67.5,47.3L308.5,290.4z"/>
</g>
</svg>
