<!-- Generated by IcoMoon.io -->
<svg version="1.1" xmlns="http://www.w3.org/2000/svg" viewBox="0 0 1063 1024">
<title></title>
<g id="icomoon-ignore">
</g>
<path d="M354.086 809.706l-10.202-16.153 51.434-33.156-110.944-170.879-51.434 33.581-10.202-15.728 67.161-43.782 131.347 202.335zM251.493 655.679l23.6-15.172 10.115 15.733-23.6 15.172-10.115-15.733zM523.264 631.601l-0.85-18.703 73.963-3.826c14.452-0.85 25.929-12.752 26.355-27.205 0-7.651-2.976-14.878-8.076-20.403s-12.752-8.501-20.403-8.076l-60.36 0.85c-8.076 0-22.104-0.425-28.48-6.376-14.878-13.602-39.107-20.829-64.186-18.703-26.78 1.7-51.859 13.602-68.437 32.306l-37.406 34.856-23.379 15.728-10.627-15.728 22.104-14.878 35.706-33.156c19.553-21.679 48.458-35.281 80.764-37.406 30.18-2.125 59.51 6.801 78.213 23.804 5.101 1.275 10.202 1.7 15.728 1.7l60.36-0.85c12.752-0.425 25.079 4.676 34.006 13.602s14.027 21.254 13.602 34.006c-0.425 24.654-19.978 44.208-44.208 45.908l-74.388 2.55zM396.593 742.545l-10.627-15.728 45.058-30.18c1.275-0.85 2.976-1.7 5.101-1.7l152.176-4.251c36.556 0 47.183-6.376 75.238-22.954 6.376-3.826 14.027-8.076 22.529-13.177 22.104-12.752 51.859-31.455 75.663-46.333l23.804-15.303c7.226-4.676 13.602-8.927 18.278-12.327-4.676-8.076-11.477-14.027-20.403-17.428-9.777-3.401-21.254-1.7-34.431 4.676-7.651 4.251-15.303 7.651-23.379 10.627-64.186 20.829-93.091 26.355-94.366 26.78l-3.401-18.703c0.425 0 28.905-5.526 91.816-25.929 6.801-2.55 13.177-5.526 19.553-8.927 18.278-9.352 35.281-11.052 49.733-6.376s26.355 16.578 34.856 33.156c1.7 3.826 0.85 8.076-2.125 11.052-8.501 6.801-17.003 13.177-26.355 18.703l-23.804 15.303c-23.804 15.303-53.559 34.006-76.513 46.758-8.501 4.676-15.728 8.927-22.104 12.752-28.48 17.003-42.932 25.504-84.589 25.504l-149.2 4.251-42.507 29.755zM825.491 517.681l-17.428-6.801c40.382-105.418-12.327-223.588-118.17-263.97s-223.588 12.327-263.97 118.17c-9.352 23.379-13.602 48.033-13.602 72.687 0 14.027 1.275 27.63 4.251 41.232l-18.278 3.826c-25.079-120.721 52.709-238.891 173.855-263.97s238.891 52.709 263.97 173.855c2.976 14.878 4.676 30.18 4.676 45.058-0.85 27.63-5.951 54.409-15.303 79.914zM821.665 477.725l-39.107-43.357-48.033-3.826c-1.275 0-2.55-0.425-3.826-1.275l-51.859-29.755h-86.29c-5.101 0-9.352-4.251-9.352-9.352 0-0.425 0-0.85 0-1.275l4.251-36.981c0.425-2.55 1.7-5.101 3.826-6.801l38.682-27.63c1.7-1.275 3.401-1.7 5.526-1.7h27.63l9.777-25.504c1.275-3.401 4.676-5.951 8.076-5.951l37.831-2.125 23.804-19.553 11.902 14.452-25.929 21.254c-1.7 1.275-3.401 2.125-5.526 2.125l-34.856 2.125-10.202 25.929c-1.275 3.401-4.676 5.951-8.927 5.951h-31.030l-32.731 23.379-2.55 22.104h78.638c1.7 0 3.401 0.425 4.676 1.275l52.284 30.18 49.308 3.826c2.55 0 4.676 1.275 6.376 2.976l41.657 46.333-14.027 13.177zM739.201 511.305l-7.226-29.755h-21.679c-2.125 0-3.826-0.425-5.526-1.7l-39.107-28.055-42.082 0.425-16.578 17.003 2.55 34.431-18.703 1.275-2.976-39.107c0-2.55 0.85-5.101 2.976-7.226l22.104-22.954c1.7-1.7 4.251-2.976 6.801-2.976l48.883-0.425c2.125 0 3.826 0.425 5.526 1.7l39.107 28.48h25.929c4.251 0 8.076 2.976 8.927 7.226l9.352 36.556-18.278 5.101zM516.038 320.023c-1.7 0-3.401-0.425-5.101-1.7l-42.932-27.63 10.202-15.728 39.957 25.929 39.107-5.951 22.529-17.003v-52.284h18.703v56.96c0 2.976-1.275 5.951-3.826 7.651l-28.055 21.254c-1.275 0.85-2.55 1.7-4.251 1.7l-45.058 7.226c-0.425-0.425-0.85-0.425-1.275-0.425zM455.678 477.725l-4.676-62.911c0-2.976 1.275-5.951 3.826-8.076l23.379-18.278v-27.205l-46.333-31.455 10.627-15.728 50.584 34.431c2.55 1.7 4.251 4.676 4.251 7.651v36.981c0 2.976-1.275 5.526-3.401 7.226l-23.379 18.278 4.251 58.235-19.128 0.85z"></path>
</svg>
