<?xml version="1.0" encoding="UTF-8"?>
<svg id="Layer_1" data-name="Layer 1" xmlns="http://www.w3.org/2000/svg" viewBox="0 0 100 80">
  <defs>
    <style>
      .cls-1 {
        fill: #1d1d1b;
      }
    </style>
  </defs>
  <path class="cls-1" d="M51.03,65.89v-29.61c1.34-.22,2.57-.83,3.54-1.8,1.23-1.23,1.9-2.85,1.9-4.59s-.68-3.36-1.9-4.59c-2.53-2.53-6.65-2.53-9.18,0-1.23,1.22-1.9,2.85-1.9,4.59s.67,3.36,1.9,4.59c.98.97,2.21,1.58,3.54,1.8v29.61h-10.72l-3.8,4.28v5.07h31.13v-4.83l-3.78-4.52h-10.74ZM46.87,33c-.83-.83-1.29-1.94-1.29-3.11s.46-2.28,1.29-3.11c.86-.86,1.98-1.29,3.11-1.29s2.26.43,3.11,1.29c.83.83,1.29,1.94,1.29,3.11s-.46,2.28-1.29,3.11c-1.72,1.72-4.51,1.71-6.22,0ZM63.46,73.15h-26.95v-2.19l2.65-2.98h21.63l2.67,3.19v1.98Z"/>
  <path class="cls-1" d="M26.34,6.24l-1.48-1.48c-6.71,6.71-10.41,15.63-10.41,25.13s3.69,18.41,10.4,25.12l1.48-1.48c-6.31-6.31-9.79-14.71-9.79-23.64s3.48-17.33,9.8-23.65Z"/>
  <path class="cls-1" d="M74.05,4.97l-1.41,1.54c6.58,6.04,10.41,14.29,10.79,23.21.38,8.92-2.74,17.46-8.78,24.04l1.54,1.41c6.42-6.99,9.74-16.06,9.33-25.54-.4-9.48-4.47-18.24-11.46-24.66Z"/>
  <path class="cls-1" d="M31.48,11.37l-1.48-1.48c-5.34,5.34-8.28,12.44-8.28,19.99s2.94,14.64,8.27,19.98l1.48-1.48c-4.94-4.94-7.66-11.51-7.66-18.5s2.73-13.57,7.67-18.51Z"/>
  <path class="cls-1" d="M69.97,9.89l-1.48,1.48c4.94,4.95,7.67,11.52,7.67,18.52s-2.73,13.57-7.67,18.51l1.48,1.48c5.34-5.34,8.28-12.44,8.28-19.99s-2.94-14.65-8.28-19.99Z"/>
  <path class="cls-1" d="M35.13,44.74l1.48-1.48c-3.57-3.57-5.54-8.32-5.54-13.37s1.97-9.81,5.54-13.38l-1.48-1.48c-3.97,3.97-6.16,9.24-6.16,14.86s2.18,10.88,6.15,14.85Z"/>
  <path class="cls-1" d="M63.36,43.27l1.48,1.48c3.97-3.97,6.16-9.24,6.16-14.86s-2.19-10.89-6.16-14.86l-1.48,1.48c3.57,3.58,5.54,8.33,5.54,13.38s-1.97,9.8-5.54,13.38Z"/>
  <path class="cls-1" d="M40.26,39.61l1.48-1.48c-2.2-2.2-3.41-5.13-3.41-8.24s1.21-6.04,3.42-8.25l-1.48-1.48c-2.6,2.6-4.03,6.05-4.03,9.72s1.43,7.12,4.03,9.72Z"/>
  <path class="cls-1" d="M59.71,39.61c2.6-2.6,4.03-6.05,4.03-9.72s-1.43-7.13-4.03-9.72l-1.48,1.48c2.2,2.2,3.42,5.13,3.42,8.25s-1.21,6.04-3.42,8.24l1.48,1.48Z"/>
</svg>