<?xml version="1.0" encoding="UTF-8"?>
<svg id="Layer_1" data-name="Layer 1" xmlns="http://www.w3.org/2000/svg" viewBox="0 0 100 80">
  <defs>
    <style>
      .cls-1 {
        fill: #1d1d1b;
      }
    </style>
  </defs>
  <path class="cls-1" d="M40.38,30.39c-5.3,5.3-5.3,13.93,0,19.23,2.57,2.57,5.98,3.98,9.62,3.98s7.05-1.42,9.61-3.98c5.3-5.3,5.3-13.93,0-19.23-5.3-5.3-13.93-5.3-19.23,0ZM58.05,48.06c-2.15,2.15-5.01,3.34-8.05,3.34s-5.9-1.19-8.06-3.34c-4.44-4.44-4.44-11.67,0-16.11,2.15-2.15,5.01-3.34,8.06-3.34s5.9,1.19,8.05,3.34c4.44,4.44,4.44,11.67,0,16.11Z"/>
  <path class="cls-1" d="M43.7,33.71c-3.47,3.47-3.47,9.12,0,12.59,1.68,1.68,3.92,2.61,6.3,2.61s4.61-.93,6.3-2.61c3.47-3.47,3.47-9.12,0-12.59-3.47-3.47-9.12-3.47-12.59,0ZM54.74,44.74c-1.27,1.27-2.95,1.96-4.74,1.96s-3.48-.7-4.74-1.96c-2.61-2.62-2.61-6.87,0-9.48,1.27-1.27,2.95-1.96,4.74-1.96s3.48.7,4.74,1.96c2.61,2.61,2.61,6.87,0,9.48Z"/>
  <path class="cls-1" d="M79.82,38.9h-3.53c-.57-13.65-11.54-24.63-25.19-25.19V3.71h-2.2v9.99c-13.65.57-24.63,11.54-25.19,25.19h-10.01v2.2h10.01c.57,13.65,11.54,24.63,25.19,25.19v9.99h2.2v-9.99c13.65-.57,24.63-11.54,25.19-25.19h10.01v-2.2h-6.48ZM74.09,41.1c-.56,12.44-10.56,22.43-22.99,22.99v-5.62h-2.2v5.62c-12.44-.56-22.43-10.56-22.99-22.99h5.62v-2.2h-5.62c.56-12.44,10.56-22.43,22.99-22.99v5.62h2.2v-5.62c12.44.56,22.43,10.56,22.99,22.99h-5.62v2.2h5.62Z"/>
  <rect class="cls-1" x="40" y="5.23" width="2.2" height="3.13" transform="translate(-.36 10.88) rotate(-15.01)"/>
  <rect class="cls-1" x="57.8" y="71.65" width="2.2" height="3.12" transform="translate(-16.92 17.71) rotate(-14.97)"/>
  <rect class="cls-1" x="24.59" y="14.13" width="2.2" height="3.13" transform="translate(-3.57 22.76) rotate(-45)"/>
  <rect class="cls-1" x="73.21" y="62.75" width="2.2" height="3.13" transform="translate(-23.71 71.43) rotate(-45.03)"/>
  <rect class="cls-1" x="15.69" y="29.54" width="2.2" height="3.13" transform="translate(-17.59 39.29) rotate(-75.04)"/>
  <rect class="cls-1" x="82.11" y="47.34" width="2.2" height="3.13" transform="translate(14.43 116.61) rotate(-75)"/>
  <rect class="cls-1" x="15.23" y="47.8" width="3.13" height="2.2" transform="translate(-12.09 6.02) rotate(-15.01)"/>
  <rect class="cls-1" x="81.65" y="30" width="3.13" height="2.2" transform="translate(-5.21 22.54) rotate(-14.97)"/>
  <rect class="cls-1" x="24.13" y="63.21" width="3.13" height="2.2" transform="translate(-37.95 37) rotate(-45)"/>
  <rect class="cls-1" x="72.75" y="14.59" width="3.13" height="2.2" transform="translate(10.64 57.1) rotate(-44.96)"/>
  <rect class="cls-1" x="39.54" y="72.11" width="3.13" height="2.2" transform="translate(-40.25 93.95) rotate(-74.99)"/>
  <rect class="cls-1" x="57.34" y="5.69" width="3.12" height="2.2" transform="translate(37.09 61.92) rotate(-74.99)"/>
</svg>