<?xml version="1.0" encoding="UTF-8"?>
<svg id="Layer_2" data-name="Layer 2" xmlns="http://www.w3.org/2000/svg" viewBox="0 0 32 32">
  <defs>
    <style>
      .cls-1 {
        fill-rule: evenodd;
      }

      .cls-2 {
        fill: #fff;
      }
    </style>
  </defs>
  <g id="Layer_1-2" data-name="Layer 1">
    <g>
      <circle class="cls-2" cx="16" cy="16" r="16"/>
      <path class="cls-1" d="M19.68,6.36v.02c0,.29.09,4.53,4.54,4.8,0,3.95,0,0,0,3.28-.33.02-2.93-.17-4.54-1.61v6.38c.03,2.89-1.57,5.72-4.58,6.29-.84.16-1.6.18-2.88-.1-7.34-2.2-4.9-13.09,2.47-11.92,0,3.52,0,0,0,3.52-3.05-.45-4.07,2.09-3.26,3.9.74,1.65,3.77,2.01,4.83-.32.12-.46.18-.98.18-1.56V6.36h3.24Z"/>
    </g>
  </g>
</svg>