<?xml version="1.0" encoding="utf-8"?>
<!-- Generator: Adobe Illustrator 28.1.0, SVG Export Plug-In . SVG Version: 6.00 Build 0)  -->
<svg version="1.1" id="Layer_1" xmlns="http://www.w3.org/2000/svg" xmlns:xlink="http://www.w3.org/1999/xlink" x="0px" y="0px"
	 viewBox="0 0 480 480" style="enable-background:new 0 0 480 480;" xml:space="preserve">
<style type="text/css">
	.st0{fill:#FFFFFF;}
</style>
<circle cx="240" cy="240" r="190"/>
<g>
	<path class="st0" d="M213.9,216c-21.3,0-38.6,17.3-38.6,38.6s17.3,38.6,38.6,38.6s38.6-17.3,38.6-38.6S235.2,216,213.9,216z
		 M213.9,277.7c-12.7,0-23-10.3-23-23c0-12.7,10.3-23,23-23s23,10.3,23,23C237,267.3,226.6,277.7,213.9,277.7z"/>
	<rect x="275.9" y="262.5" class="st0" width="12.3" height="16"/>
	<path class="st0" d="M213.9,238.8c-8.7,0-15.8,7.1-15.8,15.8c0,8.7,7.1,15.8,15.8,15.8s15.8-7.1,15.8-15.8S222.6,238.8,213.9,238.8
		z"/>
	<path class="st0" d="M210.2,142l-0.9,34.3h28.1V132h-16.1C215.5,132,210.7,136.3,210.2,142z"/>
	<rect x="275.9" y="239.3" class="st0" width="12.3" height="16"/>
	<path class="st0" d="M240,30C124,30,30,124,30,240s94,210,210,210s210-94,210-210S356,30,240,30z M342.1,305.7
		c-19.7,0-36.5-15.3-38.3-34.9h-8.4v14.9h-26.8v-14.9h-11.9c-6.7,17.7-23.9,29.6-42.9,29.6c-8.1,0-16.1-2.2-23.1-6.3l-38.4,38.4
		l-5.1-5.1l37.5-37.5c-6.2-5.1-10.9-11.7-13.7-19.1h-22.7l-27.8,27.8l-5.1-5.1l22.7-22.7h-28.7v-7.2H169c-0.6-3-0.9-6-0.9-9
		c0-25.3,20.6-45.8,45.8-45.8s45.8,20.6,45.8,45.8c0,3-0.3,6-0.9,9h9.8v-54.8h19.6v-25.3h-43.6v26.9h-7.2v-6.2
		c-7.4-3.2-15.3-4.9-23.5-4.9c-19,0-36.9,9.2-48,24.7l-0.3,0.4l-5.9-4.2l0.3-0.4c9.9-13.8,25.2-23.5,41.9-26.6v-10.8l0,0v-0.5
		l1-40.4c0.9-9.6,8.8-16.8,18.3-16.8h39.1c7.8,0,14.8,5,17.4,12.3l13.6,39.2h17V140l12.8-12.8l5.1,5.1L315.5,143v33.2h1.7
		c13.7,0,25.5,8.8,29.5,21.9l5.2,17.2c4.1,0.8,8,2,11.7,3.7l0.5,0.2l-3,6.6l-0.5-0.2c-5.9-2.6-12.1-4-18.6-4
		c-12.1,0-23.5,4.7-32.1,13.2l-0.4,0.4l-5.1-5.1l0.4-0.4c10-9.9,23.2-15.3,37.2-15.3c0.7,0,1.4,0,2.1,0l-4.3-14.2
		c-3-10-12.1-16.8-22.6-16.8h-21.8v80.1h8.4c1.8-19.6,18.6-34.9,38.3-34.9c21.2,0,38.5,17.3,38.5,38.5S363.3,305.7,342.1,305.7z"/>
	<rect x="275.9" y="216" class="st0" width="12.3" height="16"/>
	<path class="st0" d="M260.3,132h-15.7v44.3h39l-12.8-36.8C269.3,135,265.1,132,260.3,132z"/>
	<path class="st0" d="M342.1,236c-17.2,0-31.2,14-31.2,31.2s14,31.2,31.2,31.2s31.2-14,31.2-31.2S359.3,236,342.1,236z M342.1,285.4
		c-10,0-18.2-8.2-18.2-18.2s8.2-18.2,18.2-18.2s18.2,8.2,18.2,18.2C360.3,277.3,352.1,285.4,342.1,285.4z"/>
	<path class="st0" d="M342.1,256.3c-6,0-11,4.9-11,11c0,6,4.9,11,11,11c6,0,11-4.9,11-11C353.1,261.2,348.2,256.3,342.1,256.3z"/>
	<path class="st0" d="M209.2,192.3c1.6-0.1,3.2-0.2,4.7-0.2c8.1,0,16,1.4,23.5,4.3v-12.9h-28.2V192.3z"/>
</g>
</svg>
