<?xml version="1.0" encoding="UTF-8"?>
<svg id="Layer_1" data-name="Layer 1" xmlns="http://www.w3.org/2000/svg" viewBox="0 0 100 80">
  <defs>
    <style>
      .cls-1 {
        fill: #1d1d1b;
      }
    </style>
  </defs>
  <path class="cls-1" d="M86.78,42.71l-5.37,5.37v-8.08c0-19.23-15.64-34.87-34.88-34.87S11.66,20.77,11.66,40s15.64,34.88,34.87,34.88c8.01,0,15.83-2.78,22.03-7.83l-1.39-1.7c-5.8,4.73-13.13,7.34-20.63,7.34-18.02,0-32.67-14.66-32.67-32.68S28.52,7.32,46.54,7.32s32.68,14.66,32.68,32.67v8.09l-5.37-5.37-1.56,1.56,8.03,8.03,8.03-8.03-1.56-1.56Z"/>
  <rect class="cls-1" x="45.44" y="11.86" width="2.2" height="3.79"/>
  <rect class="cls-1" x="45.44" y="64.35" width="2.2" height="3.79"/>
  <rect class="cls-1" x="32.32" y="15.38" width="2.2" height="3.79" transform="translate(-4.16 19.05) rotate(-30.04)"/>
  <polygon class="cls-1" points="59.65 64.92 61.56 63.82 59.66 60.53 57.76 61.63 59.65 64.92"/>
  <rect class="cls-1" x="22.71" y="24.98" width="2.2" height="3.79" transform="translate(-11.38 34.04) rotate(-59.97)"/>
  <rect class="cls-1" x="68.16" y="51.23" width="2.2" height="3.79" transform="translate(-11.38 86.53) rotate(-59.99)"/>
  <rect class="cls-1" x="18.4" y="38.9" width="3.79" height="2.2"/>
  <rect class="cls-1" x="21.92" y="52.02" width="3.79" height="2.2" transform="translate(-23.39 19.05) rotate(-30.03)"/>
  <rect class="cls-1" x="67.37" y="25.78" width="3.79" height="2.2" transform="translate(-4.15 38.27) rotate(-30.03)"/>
  <rect class="cls-1" x="31.52" y="61.63" width="3.79" height="2.2" transform="translate(-37.61 60.28) rotate(-59.98)"/>
  <rect class="cls-1" x="57.76" y="16.17" width="3.79" height="2.2" transform="translate(14.89 60.32) rotate(-60.02)"/>
  <polygon class="cls-1" points="63.15 29.27 46.54 39.17 35.21 32.42 34.08 34.31 46.54 41.73 64.27 31.16 63.15 29.27"/>
</svg>