<?xml version="1.0" encoding="UTF-8"?>
<svg id="Layer_2" data-name="Layer 2" xmlns="http://www.w3.org/2000/svg" viewBox="0 0 100 95.72">
  <defs>
    <style>
      .cls-1 {
        fill: #4b4b4b;
        stroke-width: 0px;
      }
    </style>
  </defs>
  <g id="Layer_1-2" data-name="Layer 1">
    <g>
      <g>
        <path class="cls-1" d="M52.07,69.83H5.04c-2.68,0-4.82-2.19-4.82-4.82V5.04C.22,2.37,2.41.22,5.04.22h79.07c2.68,0,4.82,2.19,4.82,4.82v46.05h-2.77V4.33c0-.76-.62-1.38-1.38-1.38H4.33c-.76,0-1.38.62-1.38,1.38v61.36c0,.76.62,1.38,1.38,1.38h47.75c.76,0,1.38.62,1.38,1.38h0c0,.76-.62,1.38-1.38,1.38Z"/>
        <path class="cls-1" d="M78.71,11.33H10.44c-.76,0-1.38-.62-1.38-1.38h0c0-.76.62-1.38,1.38-1.38h68.27c.76,0,1.38.62,1.38,1.38h0c0,.76-.62,1.38-1.38,1.38Z"/>
        <path class="cls-1" d="M9.06,59.44V9.95c0-.76.62-1.38,1.38-1.38h0c.76,0,1.38.62,1.38,1.38v49.49c0,.76-.62,1.38-1.38,1.38h0c-.76,0-1.38-.62-1.38-1.38Z"/>
        <path class="cls-1" d="M77.33,31.64V9.95c0-.76.62-1.38,1.38-1.38h0c.76,0,1.38.62,1.38,1.38v21.69c0,.76-.62,1.38-1.38,1.38h0c-.76,0-1.38-.62-1.38-1.38Z"/>
      </g>
      <g>
        <path class="cls-1" d="M96.47,88.31h-21.55c-.76,0-1.38-.62-1.38-1.38s-2.05-2.95-3.17-4.11c-.98-1.07-2.05-2.14-2.72-3.17l-9.5-13.16c-1.29-1.65-1.2-3.93.22-5.44,1.56-1.7,4.06-1.47,5.76-.4l5.62,3.48,1.52-24.32c.13-2.05,1.83-3.61,3.88-3.61s3.66,1.52,3.84,3.48l2.68,14.95c3.17.4,12.05,1.52,13.7,1.96,1.29.36,4.37,1.2,4.37,5.71l-.13,16.06c0,2.19-.49,3.17-.94,4.02-.45.89-.85,1.74-.85,4.55.04.8-.54,1.38-1.34,1.38ZM75.99,85.54h19.14c.13-2.45.62-3.48,1.07-4.37.36-.76.62-1.29.62-2.86l.13-16.06c0-2.41-1.16-2.72-2.37-3.03-1.34-.36-9.28-1.38-14.32-2.01-.58-.09-1.07-.54-1.2-1.12l-2.86-16.06c-.13-1.38-2.14-1.2-2.23-.04l-1.7,26.64c-.04.49-.31.94-.76,1.16s-.94.22-1.38-.04l-7.59-4.73c-.62-.4-1.7-.67-2.28-.09-.49.54-.49,1.34-.09,1.87l.04.04,9.55,13.21c.58.85,1.56,1.87,2.5,2.86,1.7,1.74,3.08,3.21,3.7,4.64Z"/>
        <polygon class="cls-1" points="99.78 95.58 97.01 95.58 97.01 88.31 70.15 88.31 70.15 95.58 67.38 95.58 67.38 85.54 99.78 85.54 99.78 95.58"/>
        <g>
          <g>
            <path class="cls-1" d="M52.07,66.85H4.33c-.62,0-1.16-.54-1.16-1.16V4.33c0-.62.54-1.16,1.16-1.16h80.46c.62,0,1.16.54,1.16,1.16v46.94h3.21V5.04c0-2.81-2.28-5.04-5.04-5.04H5.04C2.23,0,0,2.28,0,5.04v59.97c0,2.81,2.28,5.04,5.04,5.04h47.08c.89,0,1.61-.71,1.61-1.61s-.76-1.61-1.65-1.61Z"/>
            <path class="cls-1" d="M78.71,33.24c.89,0,1.61-.71,1.61-1.61V9.95c0-.89-.71-1.61-1.61-1.61H10.44c-.89,0-1.61.71-1.61,1.61v49.49c0,.89.71,1.61,1.61,1.61s1.61-.71,1.61-1.61V11.56h65.06v20.08c0,.89.71,1.61,1.61,1.61Z"/>
            <path class="cls-1" d="M98.93,82.46c.45-.89.94-1.87.94-4.11l.13-16.06c0-4.69-3.17-5.53-4.55-5.93-1.65-.45-9.91-1.52-13.57-1.96l-2.63-14.77c-.22-2.1-1.96-3.7-4.06-3.7s-3.97,1.7-4.11,3.84l-1.52,23.96-5.31-3.3c-.89-.58-1.92-.89-2.95-.89-1.25,0-2.32.45-3.08,1.29-1.47,1.61-1.61,4.02-.22,5.76l9.5,13.16c.71,1.03,1.74,2.1,2.77,3.21.49.54,1.38,1.47,2.1,2.32h-5.18v10.44h3.21v-7.23h26.37v7.23h3.21v-10.44h-1.83c.09-1.47.45-2.1.76-2.81ZM76.13,85.32c-.67-1.43-2.1-2.95-3.61-4.55l-.04-.04c-.89-.98-1.87-1.96-2.45-2.81l-9.59-13.3c-.36-.45-.36-1.16.04-1.61.18-.18.4-.27.71-.27.49,0,.94.18,1.25.4l7.59,4.73c.27.18.54.22.85.22.27,0,.49-.04.76-.18.49-.27.85-.76.85-1.34l1.7-26.64c.04-.45.45-.71.89-.71.4,0,.85.22.89.8l2.86,16.06c.13.71.67,1.2,1.38,1.29,4.82.58,12.99,1.65,14.28,2.01,1.16.31,2.19.62,2.19,2.81l-.13,16.06c0,1.52-.27,2.01-.62,2.77-.45.89-.94,1.92-1.12,4.24h-18.65v.04Z"/>
            <rect class="cls-1" x="73.85" y="92.41" width="3.21" height="3.12"/>
          </g>
          <rect class="cls-1" x="74.07" y="92.64" width="2.77" height="2.68"/>
        </g>
      </g>
    </g>
  </g>
</svg>