<?xml version="1.0" encoding="utf-8"?>
<!-- Generator: Adobe Illustrator 28.1.0, SVG Export Plug-In . SVG Version: 6.00 Build 0)  -->
<svg version="1.1" id="Layer_1" xmlns="http://www.w3.org/2000/svg" xmlns:xlink="http://www.w3.org/1999/xlink" x="0px" y="0px"
	 viewBox="0 0 480 480" style="enable-background:new 0 0 480 480;" xml:space="preserve">
<style type="text/css">
	.st0{fill:#FFFFFF;}
</style>
<circle cx="240" cy="240" r="190"/>
<g>
	<path class="st0" d="M178.8,296.6c-12.9,0-23.4,10.5-23.4,23.4s10.5,23.4,23.4,23.4s23.4-10.5,23.4-23.4
		C202.3,307.1,191.7,296.6,178.8,296.6z M178.8,333.6c-7.5,0-13.5-6.1-13.5-13.5c0-7.5,6.1-13.5,13.5-13.5c7.5,0,13.5,6.1,13.5,13.5
		C192.4,327.5,186.3,333.6,178.8,333.6z"/>
	<path class="st0" d="M178.8,314.1c-3.3,0-5.9,2.7-5.9,5.9c0,3.3,2.7,5.9,5.9,5.9c3.3,0,5.9-2.7,5.9-5.9
		C184.8,316.8,182.1,314.1,178.8,314.1z"/>
	<path class="st0" d="M280,314.1c-3.3,0-5.9,2.7-5.9,5.9c0,3.3,2.7,5.9,5.9,5.9s5.9-2.7,5.9-5.9C286,316.8,283.3,314.1,280,314.1z"
		/>
	<path class="st0" d="M245.8,256.6h71.1c1.1-4.6-0.2-11-1.3-16.8c-1.7-8.9-3.3-17.2,2.4-21.6c2.5-1.9,5.6-2.5,8.4-1.5
		c2.7,0.9,6.2,3.5,8.1,10.7c0.8,3,1.5,5.8,2.2,8.1c0.6,2.1,2.7,3.4,4.8,2.9l4.9-1.1c2.1-0.5,3.4-2.5,3.1-4.7
		c-3-16.2-6.6-36.6-6.6-41.5c0-2.7,0.6-5,1.3-6.9c-1.3,0.5-2.6,1.3-3.6,2.7l-1.6,2.3l-2.6-0.8c-0.8-0.2-18.8-5.2-27,10.5
		c-0.6,1.2-1.3,2.5-2,3.8c-9.3,18.2-22,43-55.2,43c-2,0-4.1,0-6.4-0.1L245.8,256.6L245.8,256.6z M335,204.8c0.1-0.3,0.3-0.7,0.6-0.9
		c0.2-0.3,0.6-0.5,0.9-0.6c1-0.4,2.3-0.2,3,0.6c0.5,0.5,0.8,1.2,0.8,1.9c0,0.4-0.1,0.7-0.2,1s-0.3,0.7-0.6,0.9
		c-0.6,0.6-1.3,0.8-2,0.8c-0.3,0-0.7-0.1-1-0.2c-0.3-0.1-0.7-0.3-0.9-0.6c-0.3-0.2-0.5-0.6-0.6-0.9c-0.2-0.3-0.2-0.7-0.2-1
		C334.8,205.5,334.8,205.1,335,204.8z"/>
	<path class="st0" d="M310.2,278h11.6v-13.9h-83.6v-102h83.2c-1.7-7-8.1-12.3-15.6-12.3H154.6c-8.9,0-16.1,7.2-16.1,16.1v150.3h9.5
		c1.9-15.3,15-27.2,30.8-27.2s28.9,11.9,30.8,27.2h39.6c1.9-15.3,15-27.2,30.8-27.2s28.9,11.9,30.8,27.2h11v-12.6h-11.6L310.2,278
		L310.2,278z"/>
	<path class="st0" d="M240,30C124,30,30,124,30,240s94,210,210,210s210-94,210-210S356,30,240,30z M364.5,303.7h-35v20.2h-18.6
		c-1.9,15.3-15,27.2-30.8,27.2s-28.9-11.9-30.8-27.2h-39.6c-1.9,15.3-15,27.2-30.8,27.2s-28.9-11.9-30.8-27.2H131V166
		c0-13,10.6-23.7,23.7-23.7h151.2c13,0,23.7,10.6,23.7,23.7v3.8H246v68.3c2.3,0,4.4,0.1,6.4,0.1c4,0,7.7-0.4,11.1-1.2
		c-10.2-3.2-14.4-12.2-15.7-15.9c-0.6-1.8-0.3-3.8,0.8-5.3s2.9-2.4,4.8-2.3c11.4,0.4,19.2-8.4,27.5-17.8
		c6.3-7.1,12.8-14.5,21.1-17.5c15.4-5.7,29.2-0.8,34.9,1.9c6.3-5.7,15.1-3.6,15.5-3.5l6.9,1.7l-5.2,4.8c-0.1,0.1-3.3,3.2-3.3,8.1
		c0,3.3,2.4,18.3,6.5,40.1c1.1,6.1-2.7,12-8.8,13.4l-4.9,1.1c-6.1,1.4-12.2-2.2-13.8-8.3c-0.6-2.4-1.4-5.2-2.2-8.2
		c-0.9-3.5-2.3-5.1-3.2-5.4c-0.4-0.1-0.9,0-1.4,0.3c-2,1.5-0.6,8.5,0.4,14.1c1.1,5.9,2.4,12.4,1.5,18.2h4.8V278h35v25.7H364.5z"/>
	<path class="st0" d="M279.7,229.2c9.7-7.7,15.6-19.2,21.1-29.9c0.7-1.3,1.3-2.6,2-3.9c3.1-6,7.4-9.8,12-12.2
		c-3.3,0.2-6.8,0.8-10.3,2.1c-6.5,2.4-12.1,8.7-18,15.4c-8.1,9.2-17.2,19.5-30.5,20.4C261.4,232.2,272.7,231.1,279.7,229.2z"/>
	<path class="st0" d="M280,296.6c-12.9,0-23.4,10.5-23.4,23.4s10.5,23.4,23.4,23.4s23.4-10.5,23.4-23.4
		C303.5,307.1,293,296.6,280,296.6z M280,333.6c-7.5,0-13.5-6.1-13.5-13.5c0-7.5,6.1-13.5,13.5-13.5s13.5,6.1,13.5,13.5
		C293.6,327.5,287.5,333.6,280,333.6z"/>
	<rect x="317.8" y="285.6" class="st0" width="39" height="10.5"/>
</g>
</svg>
