<?xml version="1.0" encoding="utf-8"?>
<!-- Generator: Adobe Illustrator 28.1.0, SVG Export Plug-In . SVG Version: 6.00 Build 0)  -->
<svg version="1.1" id="Layer_1" xmlns="http://www.w3.org/2000/svg" xmlns:xlink="http://www.w3.org/1999/xlink" x="0px" y="0px"
	 viewBox="0 0 480 480" style="enable-background:new 0 0 480 480;" xml:space="preserve">
<style type="text/css">
	.st0{fill:#FFFFFF;}
</style>
<circle cx="240" cy="240" r="190"/>
<g>
	<path class="st0" d="M270.6,137.1c1.2,1.2,1.2,3.2,0,4.4l-19.3,19.3c8.1-0.2,21.5-1.8,29.9-10.2c10.2-10.2,10.5-27.7,10.2-34.3
		c-6.5-0.3-24.1,0-34.3,10.2c-8.4,8.4-10.1,21.8-10.2,29.9l19.3-19.3C267.4,135.9,269.4,135.9,270.6,137.1z"/>
	<path class="st0" d="M288.1,322.6c0,14.6,11.9,26.6,26.6,26.6c14.6,0,26.6-11.9,26.6-26.6c0-14.6-11.9-26.6-26.6-26.6
		C300,296.1,288.1,308,288.1,322.6z"/>
	<path class="st0" d="M229.4,284.4l61.5,15.1c6-6.2,14.5-10.1,23.8-10.1c3.5,0,6.8,0.5,10,1.5l22.7-52H197.7L229.4,284.4z"/>
	<path class="st0" d="M240,30C124,30,30,124,30,240s94,210,210,210s210-94,210-210S356,30,240,30z M368.5,239h-13.9l-23.8,54.6
		c10.2,5.7,17.1,16.6,17.1,29.1c0,18.3-14.9,33.2-33.2,33.2c-15.7,0-28.8-10.9-32.3-25.5l-22.7-5.3l-18,18h-32.9v-32.3l-67.6-97h-23
		v13.9h-6.7V207h33.1l28.4,40.7h22.7l-7.1-10.2c-0.7-1-0.8-2.4-0.2-3.5s1.7-1.8,3-1.8h9c7.3-15.2,22.8-25.1,40.1-25.4v-15.6
		c-1,0-2.1,0.1-3.4,0.1c-9.1,0-25.6-1.6-36.3-12.3c-15.1-15.1-12.1-41.8-12-42.9l0.3-2.4l2.4-0.3c1.1-0.1,27.8-3.1,42.9,12
		c2.7,2.7,4.8,5.7,6.4,8.9c0.4-9.2,2.7-22.9,12-32.2c14.8-14.8,40.9-11.9,42-11.8l2.4,0.3l0.3,2.4c0.1,1.1,3,27.2-11.8,42
		c-10.5,10.5-26.6,12.1-35.5,12.1c-1.4,0-2.6,0-3.5-0.1v12.5c0,1.7,0,3.1,0,4.4v23.3c6.7,0.8,13,3,18.5,6.3
		c7.7-14.7,23.2-24,40.2-24c24.5,0,44.4,19.1,45.2,42.8h1.9h16.1v6.7H368.5z"/>
	<path class="st0" d="M224.6,289.3l-24.3-34.8h-22.7l37.7,54.1v27.8h23.5l18.6-18.6l23.9,5.6c0-0.2,0-0.4,0-0.6
		c0-6.4,1.8-12.3,4.9-17.4l-59.8-14.7C225.8,290.4,225.1,289.9,224.6,289.3z"/>
	<path class="st0" d="M305.3,195.8c-15,0-28.6,8.3-35.1,21.4c2,1.6,3.8,3.3,5.4,5.2l-4.4,4.4c-7.2-8.4-17.9-13.7-30-13.7
		c-14.2,0-27,7.4-33.9,19.2h136.9C343.5,212,326.3,195.8,305.3,195.8z"/>
	<path class="st0" d="M194.7,139.4c-0.3,6.7-0.1,24.7,10.4,35.2c8.7,8.7,22.6,10.3,30.9,10.5l-26.7-26.7c-1.2-1.2-1.2-3.2,0-4.4
		s3.2-1.2,4.4,0l26.7,26.7c-0.1-8.3-1.8-22.2-10.5-30.9C219.4,139.4,201.4,139.1,194.7,139.4z"/>
</g>
</svg>
