<?xml version="1.0" encoding="utf-8"?>
<!-- Generator: Adobe Illustrator 28.1.0, SVG Export Plug-In . SVG Version: 6.00 Build 0)  -->
<svg version="1.1" id="Layer_1" xmlns="http://www.w3.org/2000/svg" xmlns:xlink="http://www.w3.org/1999/xlink" x="0px" y="0px"
	 viewBox="0 0 480 480" style="enable-background:new 0 0 480 480;" xml:space="preserve">
<style type="text/css">
	.st0{fill:#FFFFFF;}
</style>
<circle cx="240" cy="240" r="190"/>
<g>
	<polygon class="st0" points="292.5,194.4 279.7,181.6 272.7,188.6 285.6,201.4 272.7,214.2 279.7,221.2 292.5,208.3 305.3,221.2 
		312.3,214.2 299.4,201.4 312.3,188.6 305.3,181.6 	"/>
	<polygon class="st0" points="180.7,237.6 182.5,244.2 281.8,263.7 237.4,219.4 	"/>
	<path class="st0" d="M259.5,140c-3.4-2.3-7.5-3.6-11.8-3.6c-5.5,0-10.8,2.1-14.4,5.8c-3.9,3.9-6,9-6,14.4c0,4.3,1.3,8.4,3.8,11.8
		L259.5,140z"/>
	<polygon class="st0" points="151.1,231 159.2,260 175.9,245.9 173.7,238.1 	"/>
	<polygon class="st0" points="352.3,166.7 323.2,137.6 312.5,148.3 345.6,181.4 351.7,175.4 	"/>
	<polygon class="st0" points="302.1,138 307.6,143.5 323.2,127.9 359.4,164.1 358.3,178.4 350.4,186.3 355.9,191.8 365.7,181.9 
		367.4,161 323.2,116.9 	"/>
	<path class="st0" d="M284.5,130c-0.7-0.7-1.6-1.1-2.7-1.1c-1,0-1.9,0.4-2.7,1.1L221,188.1c-1.5,1.5-1.5,3.8,0,5.3l71.3,71.3
		c1.4,1.3,3.3,2.1,5.3,2.1s3.9-0.8,5.3-2.1l52.8-52.8c1.4-1.4,2.2-3.3,2.2-5.3s-0.8-3.9-2.2-5.3L284.5,130z M316.8,209.9
		c1.1,1.1,1.8,2.7,1.8,4.3s-0.6,3.1-1.8,4.3l-7.1,7.1c-1.1,1.1-2.7,1.8-4.3,1.8s-3.1-0.6-4.3-1.8l-8.5-8.5l-8.5,8.5
		c-1.1,1.1-2.7,1.8-4.3,1.8s-3.1-0.6-4.3-1.8l-7.1-7.1c-1.1-1.1-1.8-2.7-1.8-4.3s0.6-3.1,1.8-4.3l8.5-8.5l-8.5-8.5
		c-2.4-2.4-2.4-6.2,0-8.6l7.1-7.1c1.1-1.1,2.7-1.8,4.3-1.8c1.6,0,3.1,0.6,4.3,1.8l8.5,8.5l8.5-8.5c1.1-1.1,2.7-1.8,4.3-1.8
		s3.1,0.6,4.3,1.8l7.1,7.1c1.1,1.1,1.8,2.7,1.8,4.3s-0.6,3.1-1.8,4.3l-8.5,8.5L316.8,209.9z"/>
	<path class="st0" d="M240,30C124,30,30,124,30,240s94,210,210,210s210-94,210-210S356,30,240,30z M135.5,266.6
		c0.8-0.8,1.8-1.2,2.9-1.2c1.1,0,2.2,0.4,2.9,1.2c0.8,0.8,1.2,1.9,1.2,2.9c0,1.1-0.4,2.1-1.2,2.9c-0.3,0.3-0.8,0.7-1.4,0.9
		c-0.5,0.3-1.1,0.3-1.5,0.3c-0.7,0-1.2-0.1-1.7-0.3c-0.5-0.2-1-0.6-1.3-0.9s-0.6-0.8-0.9-1.3c-0.2-0.6-0.3-1.1-0.3-1.6
		C134.4,268.4,134.8,267.4,135.5,266.6z M126.6,326.6c-0.1,0.5-0.5,1-0.9,1.3c-0.3,0.4-0.8,0.7-1.4,0.9c-0.4,0.2-0.9,0.3-1.5,0.3
		c-1.1,0-2.2-0.4-3-1.2c-0.4-0.4-0.7-0.9-0.8-1.4c-0.3-0.5-0.3-1.1-0.3-1.5c0-1.1,0.4-2.2,1.2-2.9c0.8-0.8,1.8-1.2,3-1.2
		c1.1,0,2.2,0.4,2.9,1.2c0.8,0.7,1.2,1.8,1.2,2.9C127,325.4,126.9,326,126.6,326.6z M128.9,290.2L128.9,290.2l-0.1,0.1
		c-0.2,0.4-0.5,0.9-0.9,1.3c-0.8,0.8-1.8,1.2-2.9,1.2c-0.6,0-1.1-0.1-1.7-0.3c-0.5-0.2-1-0.6-1.3-0.9c-0.4-0.4-0.7-1-0.9-1.3
		c-0.2-0.6-0.3-1.1-0.3-1.6c0-1.1,0.4-2.2,1.2-2.9c0.8-0.8,1.8-1.2,2.9-1.2s2.2,0.4,2.9,1.2c0.8,0.8,1.2,1.9,1.2,2.9
		C129.2,289.2,129.1,289.7,128.9,290.2z M141.4,350c-0.4,0.3-0.8,0.7-1.3,0.9c-0.5,0.2-1.1,0.3-1.6,0.3c-1.1,0-2.1-0.4-3-1.2
		c-0.8-0.9-1.2-1.9-1.2-3c0-0.5,0.1-1.1,0.2-1.5c0.3-0.6,0.6-1.1,0.9-1.4c0.7-0.7,1.8-1.2,2.9-1.2c1.1,0,2.2,0.4,3,1.2
		c0.8,0.8,1.2,1.9,1.2,2.9C142.7,348.1,142.2,349.1,141.4,350z M145.3,306.6L145.3,306.6l-0.1,0.1c-0.2,0.4-0.5,0.9-0.9,1.3
		c-0.3,0.3-0.8,0.7-1.3,0.9c-0.5,0.3-1.1,0.3-1.5,0.3c-0.7,0-1.2-0.1-1.7-0.3c-0.5-0.2-0.9-0.5-1.3-0.9c-0.8-0.8-1.2-1.8-1.2-2.9
		s0.4-2.2,1.2-2.9c0.8-0.8,1.8-1.2,2.9-1.2c1.1,0,2.2,0.4,2.9,1.2c0.8,0.8,1.2,1.9,1.2,2.9C145.6,305.6,145.5,306.1,145.3,306.6z
		 M372.7,181.8c0,1.8-0.8,3.6-2.2,5l-9.8,9.8c2.6,2.7,4,6.2,4,10s-1.5,7.4-4.2,10.1l-52.8,52.8c-2.7,2.7-6.3,4.2-10.1,4.2
		c-1.7,0-3.4-0.3-5-0.9h-0.2l-111.7-22l-18.3,15.4c-1.3,0.8-2.5,1.2-3.8,1.2c-0.7,0-1.4-0.1-2-0.4c-1.8-0.7-3.2-2.2-3.7-4l-8.9-31.7
		c-0.5-1.9-0.1-4,1.2-5.6c1.1-1.3,2.8-2.1,4.5-2.1c0.2,0,0.5,0,0.7,0l25.8,8.1l55.5-17.9L216,198.1c-4.1-4.1-4.1-10.8,0-15l9.9-9.9
		c-3.7-4.8-5.7-10.6-5.7-16.7c0-6.1,2-11.9,5.7-16.7l-6.2-6.2l4.8-4.8l6.2,6.2c4.7-3.5,10.6-5.5,16.7-5.5c6.1,0,12,1.9,16.7,5.5
		l9.9-9.9c2-2,4.7-3.1,7.5-3.1s5.5,1.1,7.5,3.1l8,8l22-22c1.1-1.1,2.5-1.6,3.9-1.6s2.9,0.6,3.9,1.6l44.9,44.9
		c1.4,1.4,2.2,3.3,2.2,5.2L372.7,181.8z"/>
</g>
</svg>
