<svg width="32" height="32" viewBox="0 0 32 32" fill="none" xmlns="http://www.w3.org/2000/svg">
<g clip-path="url(#clip0_721_764)">
<path d="M16 32C24.8366 32 32 24.8366 32 16C32 7.16344 24.8366 0 16 0C7.16344 0 0 7.16344 0 16C0 24.8366 7.16344 32 16 32Z" fill="white"/>
<path d="M23.6118 10.4831C22.9931 10.8585 22.3062 11.1316 21.5723 11.2809C20.9878 10.6409 20.1515 10.2441 19.2299 10.2441C17.4593 10.2441 16.0214 11.7161 16.0214 13.5337C16.0214 13.7897 16.047 14.0415 16.1025 14.2847C13.4358 14.1481 11.0721 12.8383 9.48486 10.8457C9.20752 11.3321 9.04966 11.8996 9.04966 12.5012C9.04966 13.6404 9.61712 14.6516 10.479 15.2404C9.95419 15.2233 9.45926 15.074 9.02406 14.8308V14.8692C9.02406 16.4649 10.1291 17.7961 11.6011 18.0948C11.3323 18.1716 11.0465 18.21 10.7563 18.21C10.5515 18.21 10.3467 18.1887 10.1505 18.1503C10.5601 19.4559 11.7419 20.4073 13.1499 20.4329C12.0534 21.3161 10.6667 21.8409 9.16486 21.8409C8.90459 21.8409 8.64859 21.8239 8.40112 21.794C9.82192 22.7241 11.5073 23.2703 13.3206 23.2703C19.2257 23.2703 22.4513 18.2569 22.4513 13.9049C22.4513 13.7599 22.4513 13.6191 22.4427 13.4783C23.0699 13.0132 23.6161 12.4329 24.0427 11.7759C23.4667 12.0361 22.8481 12.2153 22.1995 12.2921C22.8609 11.8868 23.3729 11.2383 23.6118 10.4703V10.4831Z" fill="#1A1A1A"/>
</g>
<defs>
<clipPath id="clip0_721_764">
<rect width="32" height="32" fill="white"/>
</clipPath>
</defs>
</svg>
