<svg width="123" height="24" viewBox="0 0 123 24" fill="none" xmlns="http://www.w3.org/2000/svg">
    <g clip-path="url(#clip0_4474_13466)">
        <path d="M55.0954 6.0014H48.0972V9.98336H55.0954V17.9986H59.608V9.98336H66.6074V6.0014H59.608H55.0954Z" fill="#C91820"/>
        <path d="M85.3888 10.4296L81.0388 6.0014H75.5765L82.9122 13.3762V17.9986H87.8654V13.3762L95.237 6.0014H89.7389L85.3888 10.4296Z" fill="#C91820"/>
        <path d="M122.88 6.0014H117.706L113.357 10.4296L109.007 6.0014H103.833V17.9986H108.344L108.342 10.8235L113.357 15.8843L118.372 10.8235L118.37 17.9986H122.88V6.0014Z" fill="#C91820"/>
        <path d="M22.655 6.29594H19.203L17.648 23.5426L17.2971 23.6017L17.5392 12.2382L17.9955 4.30329L22.655 6.29594Z" fill="url(#paint0_linear_4474_13466)"/>
        <path d="M0 1.26521L11.9694 4.30329L7.30988 6.29594L0 1.26521Z" fill="url(#paint1_linear_4474_13466)"/>
        <path d="M7.30988 6.29594H10.7619L12.3169 23.5426L12.6667 23.6017L12.4257 11.9994L11.9694 4.30329L7.30988 6.29594Z" fill="url(#paint2_linear_4474_13466)"/>
        <path d="M10.8123 22.9791L9.91543 13.9731L9.62729 11.9927C9.45912 10.7141 8.7954 9.57612 7.80655 8.86988L0 3.29357L0.914856 10.7989L6.41408 12.6823C7.10135 12.9076 7.65631 13.4633 7.92315 14.1907L9.42997 22.0029L10.8123 22.9802V22.9791Z" fill="url(#paint3_linear_4474_13466)"/>
        <path d="M9.42997 22.0029L7.92315 14.1907C7.76507 13.4476 7.10023 12.9076 6.41408 12.6823L0.917098 10.8001H0.914856L2.40935 11.8667C4.24018 13.1732 5.60237 15.1379 6.26385 17.4262L7.25382 20.2947C7.29194 20.4286 7.3693 20.5447 7.47469 20.625L9.43109 22.0029H9.42997Z" fill="url(#paint4_linear_4474_13466)"/>
        <path d="M14.9819 0L0 1.26521L11.9694 4.30329L12.6667 23.6017L14.9819 24L17.2971 23.6017L17.9955 4.30329L29.9649 1.26521L14.9819 0Z" fill="url(#paint5_linear_4474_13466)"/>
        <path d="M29.9649 1.26521L17.9955 4.30329L22.655 6.29594L29.9649 1.26521Z" fill="url(#paint6_linear_4474_13466)"/>
        <path d="M19.1525 22.9791L20.0495 13.9731L20.3376 11.9927C20.5058 10.7141 21.1695 9.57612 22.1583 8.86988L29.9638 3.29357L29.0489 10.7989L23.5497 12.6823C22.8624 12.9076 22.3075 13.4633 22.0406 14.1907L20.5338 22.0029L19.1514 22.9802L19.1525 22.9791Z" fill="url(#paint7_linear_4474_13466)"/>
        <path d="M20.5349 22.0029L22.0418 14.1907C22.1998 13.4476 22.8647 12.9076 23.5508 12.6823L29.0478 10.8001H29.05L27.5556 11.8667C25.7247 13.1732 24.3625 15.1379 23.7011 17.4262L22.7111 20.2947C22.673 20.4286 22.5956 20.5447 22.4902 20.625L20.5338 22.0029H20.5349Z" fill="url(#paint8_linear_4474_13466)"/>
    </g>
    <defs>
        <linearGradient id="paint0_linear_4474_13466" x1="19.9766" y1="9.45228" x2="19.9766" y2="28.9415" gradientUnits="userSpaceOnUse">
            <stop stop-color="#C91820"/>
            <stop offset="0.18" stop-color="#C4171F"/>
            <stop offset="0.37" stop-color="#B8171E"/>
            <stop offset="0.56" stop-color="#A3171C"/>
            <stop offset="0.75" stop-color="#861619"/>
            <stop offset="0.95" stop-color="#601516"/>
            <stop offset="1" stop-color="#551515"/>
        </linearGradient>
        <linearGradient id="paint1_linear_4474_13466" x1="-0.179384" y1="1.27972" x2="9.69181" y2="5.36017" gradientUnits="userSpaceOnUse">
            <stop stop-color="#C71619"/>
            <stop offset="1" stop-color="#551515"/>
        </linearGradient>
        <linearGradient id="paint2_linear_4474_13466" x1="9.9883" y1="9.82939" x2="9.9883" y2="29.3186" gradientUnits="userSpaceOnUse">
            <stop stop-color="#C91820"/>
            <stop offset="0.18" stop-color="#C4171F"/>
            <stop offset="0.37" stop-color="#B8171E"/>
            <stop offset="0.56" stop-color="#A3171C"/>
            <stop offset="0.75" stop-color="#861619"/>
            <stop offset="0.95" stop-color="#601516"/>
            <stop offset="1" stop-color="#551515"/>
        </linearGradient>
        <linearGradient id="paint3_linear_4474_13466" x1="5.40617" y1="13.3706" x2="5.40617" y2="26.4233" gradientUnits="userSpaceOnUse">
            <stop stop-color="#E1211E"/>
            <stop offset="0.34" stop-color="#E1211E"/>
            <stop offset="1" stop-color="#551515"/>
        </linearGradient>
        <linearGradient id="paint4_linear_4474_13466" x1="5.17185" y1="21.8244" x2="5.17185" y2="11.5744" gradientUnits="userSpaceOnUse">
            <stop stop-color="#E1211E"/>
            <stop offset="1" stop-color="#551515"/>
        </linearGradient>
        <linearGradient id="paint5_linear_4474_13466" x1="14.9819" y1="10.5825" x2="14.9819" y2="30.8862" gradientUnits="userSpaceOnUse">
            <stop stop-color="#E1211E"/>
            <stop offset="0.34" stop-color="#E1211E"/>
            <stop offset="0.73" stop-color="#551515"/>
        </linearGradient>
        <linearGradient id="paint6_linear_4474_13466" x1="29.8954" y1="0.886988" x2="20.4089" y2="5.30357" gradientUnits="userSpaceOnUse">
            <stop stop-color="#C71619"/>
            <stop offset="1" stop-color="#551515"/>
        </linearGradient>
        <linearGradient id="paint7_linear_4474_13466" x1="24.5587" y1="13.3706" x2="24.5587" y2="26.4233" gradientUnits="userSpaceOnUse">
            <stop stop-color="#E1211E"/>
            <stop offset="0.34" stop-color="#E1211E"/>
            <stop offset="1" stop-color="#551515"/>
        </linearGradient>
        <linearGradient id="paint8_linear_4474_13466" x1="24.7931" y1="21.8244" x2="24.7931" y2="11.5744" gradientUnits="userSpaceOnUse">
            <stop stop-color="#E1211E"/>
            <stop offset="1" stop-color="#551515"/>
        </linearGradient>
        <clipPath id="clip0_4474_13466">
            <rect width="122.88" height="24" fill="white"/>
        </clipPath>
    </defs>
</svg>
