<svg xmlns="http://www.w3.org/2000/svg" xmlns:xlink="http://www.w3.org/1999/xlink"  viewBox="0 0 213.995 42.143">
  <defs>
    <linearGradient id="linear-gradient" x1="0.5" y1="0.69" x2="0.5" y2="1.158" gradientUnits="objectBoundingBox">
      <stop offset="0" stop-color="#bcbbba"/>
      <stop offset="0.186" stop-color="#9c9b9a"/>
      <stop offset="0.568" stop-color="#61605f"/>
      <stop offset="0.851" stop-color="#3c3b3a"/>
      <stop offset="1" stop-color="#2f2e2d"/>
    </linearGradient>
    <linearGradient id="linear-gradient-2" x1="0.5" y1="0.69" x2="0.5" y2="1.158" gradientUnits="objectBoundingBox">
      <stop offset="0" stop-color="#bcbbba"/>
      <stop offset="0.449" stop-color="#767574"/>
      <stop offset="0.819" stop-color="#424140"/>
      <stop offset="1" stop-color="#2f2e2d"/>
    </linearGradient>
    <linearGradient id="linear-gradient-3" x1="0.247" y1="0.151" x2="0.793" y2="0.787" gradientUnits="objectBoundingBox">
      <stop offset="0" stop-color="#ba0013"/>
      <stop offset="1" stop-color="#390c0f"/>
    </linearGradient>
    <linearGradient id="linear-gradient-4" x1="0.738" y1="0.083" x2="0.231" y2="0.748" xlink:href="#linear-gradient-3"/>
    <linearGradient id="linear-gradient-5" x1="0.5" y1="0.835" x2="0.5" y2="-0.13" xlink:href="#linear-gradient-3"/>
    <linearGradient id="linear-gradient-7" x1="0.247" y1="0.151" x2="0.793" y2="0.787" gradientUnits="objectBoundingBox">
      <stop offset="0" stop-color="#bcbbba"/>
      <stop offset="1" stop-color="#2f2e2d"/>
    </linearGradient>
    <linearGradient id="linear-gradient-8" x1="0.738" y1="0.083" x2="0.231" y2="0.748" xlink:href="#linear-gradient-7"/>
    <linearGradient id="linear-gradient-9" x1="0.5" y1="0.835" x2="0.5" y2="-0.13" xlink:href="#linear-gradient-7"/>
    <linearGradient id="linear-gradient-10" x1="0.5" y1="0.512" x2="0.5" y2="1.175" gradientUnits="objectBoundingBox">
      <stop offset="0" stop-color="#f2f2f2"/>
      <stop offset="0.337" stop-color="#bcbbba"/>
      <stop offset="1" stop-color="#2f2e2d"/>
    </linearGradient>
    <linearGradient id="linear-gradient-13" x1="0.5" y1="0.522" x2="0.5" y2="1.084" xlink:href="#linear-gradient-10"/>
  </defs>
  <g id="TYM_LOGO" data-name="TYM LOGO" transform="translate(-0.005)">
    <g id="Group_2093" data-name="Group 2093" transform="translate(83.762 10.503)">
      <path id="Path_2815" data-name="Path 2815" d="M441.183,53.793H429v6.969h12.188V74.787h7.859V60.761h12.19V53.793H441.183Z" transform="translate(-428.995 -53.792)" fill="#fff"/>
      <path id="Path_2816" data-name="Path 2816" d="M691.186,61.542l-7.575-7.75H674.1L686.872,66.7v8.088H695.5V66.7l12.838-12.906h-9.576Z" transform="translate(-626.241 -53.791)" fill="#fff"/>
      <path id="Path_2817" data-name="Path 2817" d="M959.3,53.791h-9.01l-7.575,7.75-7.575-7.75h-9.011V74.786h7.857l0-12.556,8.734,8.856,8.734-8.856,0,12.556H959.3V53.791Z" transform="translate(-829.063 -53.791)" fill="#fff"/>
    </g>
    <g id="Group_13" data-name="Group 13" transform="translate(0.005)">
      <path id="Path_103" data-name="Path 103" d="M1502.29,196.134h-5.729l-.042.471-2.691,29.789-.6.126-3.862-20.719,5.082-13.166Z" transform="translate(-1462.882 -185.079)" fill="url(#linear-gradient)"/>
      <path id="Path_104" data-name="Path 104" d="M1452.789,196.134h6.032l.042.471,2.673,29.791.615.126,3.686-20.1-4.906-13.792Z" transform="translate(-1440.015 -185.079)" fill="url(#linear-gradient-2)"/>
      <path id="Path_105" data-name="Path 105" d="M1418.7,178.4l12.774,8.84,8.143-3.506Z" transform="translate(-1418.704 -176.18)" fill="url(#linear-gradient-3)"/>
      <path id="Path_106" data-name="Path 106" d="M1502.89,183.736l7.858,3.506,12.772-8.84Z" transform="translate(-1471.34 -176.18)" fill="url(#linear-gradient-4)"/>
      <path id="Path_107" data-name="Path 107" d="M1422.969,223.073l2.612,1.873a18.121,18.121,0,0,1,6.735,9.762l1.729,5.037a1.1,1.1,0,0,0,.386.581l5.833,4.135-5.045-15.517a4.311,4.311,0,0,0-2.644-2.679Z" transform="translate(-1421.37 -204.11)" fill="url(#linear-gradient-5)"/>
      <path id="Path_108" data-name="Path 108" d="M1524.82,223.073l-2.612,1.873a18.121,18.121,0,0,0-6.736,9.762l-1.729,5.037a1.1,1.1,0,0,1-.386.581l-5.833,4.135,5.045-15.517a4.311,4.311,0,0,1,2.644-2.679Z" transform="translate(-1474.239 -204.11)" fill="url(#linear-gradient-5)"/>
      <path id="Path_109" data-name="Path 109" d="M1418.7,178.4l12.774,8.84,8.143-3.506Z" transform="translate(-1418.704 -176.18)" fill="url(#linear-gradient-7)"/>
      <path id="Path_110" data-name="Path 110" d="M1502.89,183.736l7.858,3.506,12.772-8.84Z" transform="translate(-1471.34 -176.18)" fill="url(#linear-gradient-8)"/>
      <path id="Path_111" data-name="Path 111" d="M1422.969,223.073l2.612,1.873a18.121,18.121,0,0,1,6.735,9.762l1.729,5.037a1.1,1.1,0,0,0,.386.581l5.833,4.135-5.045-15.517a4.311,4.311,0,0,0-2.644-2.679Z" transform="translate(-1421.37 -204.11)" fill="url(#linear-gradient-9)"/>
      <path id="Path_112" data-name="Path 112" d="M1437.6,222.471l-1.566-15.814h0l-.5-3.478a8.007,8.007,0,0,0-3.182-5.484L1418.7,187.9l1.6,13.18,9.609,3.306a4.3,4.3,0,0,1,2.638,2.649l2.633,13.718Z" transform="translate(-1418.704 -182.12)" fill="url(#linear-gradient-10)"/>
      <path id="Path_113" data-name="Path 113" d="M1524.82,223.073l-2.612,1.873a18.121,18.121,0,0,0-6.736,9.762l-1.729,5.037a1.1,1.1,0,0,1-.386.581l-5.833,4.135,5.045-15.517a4.311,4.311,0,0,1,2.644-2.679Z" transform="translate(-1474.239 -204.11)" fill="url(#linear-gradient-9)"/>
      <path id="Path_114" data-name="Path 114" d="M1507.525,222.471l1.566-15.814h0l.5-3.478a8.006,8.006,0,0,1,3.182-5.484l13.64-9.792-1.6,13.18-9.609,3.306a4.3,4.3,0,0,0-2.638,2.649l-2.634,13.691Z" transform="translate(-1474.239 -182.12)" fill="url(#linear-gradient-10)"/>
      <path id="Path_115" data-name="Path 115" d="M1450.265,180.034l-.012-.005,20.63-5.334h0l-26.09-2.223-26.09,2.223h0l20.916,5.334,1.219,33.888,4.046.7,4.161-.7Z" transform="translate(-1418.703 -172.472)" fill="url(#linear-gradient-13)"/>
    </g>
  </g>
</svg>
