<svg xmlns="http://www.w3.org/2000/svg" width="32" height="32" viewBox="0 0 32 32" fill="none">
<g clip-path="url(#clip0_7509_14053)">
<path d="M16 32C24.8366 32 32 24.8366 32 16C32 7.16344 24.8366 0 16 0C7.16344 0 0 7.16344 0 16C0 24.8366 7.16344 32 16 32Z" fill="white"/>
<path d="M20.6699 10C22.2179 10.0407 22.9923 10.9195 23 12.6387C23 12.7515 22.9962 12.8689 22.99 12.9894C22.9217 14.4469 21.8372 16.4324 19.732 18.9452C17.5608 21.5777 15.7188 22.8955 14.206 22.9024C13.2651 22.9024 12.4838 22.0965 11.8567 20.484L11.1982 18.2736L10.5474 16.0663C10.0677 14.4668 9.555 13.6686 9.00777 13.6686C8.88804 13.6686 8.47283 13.902 7.75982 14.3671L7 13.4683L8.17887 12.489L9.33856 11.5196C10.377 10.6877 11.1667 10.2379 11.7086 10.1712C11.7807 10.1635 11.8529 10.1612 11.9266 10.1612C13.0387 10.1612 13.7332 10.9601 14.0057 12.5588C14.1577 13.4706 14.2835 14.212 14.3856 14.7815C14.4846 15.3525 14.5675 15.7501 14.6335 15.9765C15.0012 17.4885 15.3972 18.2483 15.8231 18.2544C16.1501 18.2544 16.6536 17.7617 17.3336 16.7762C17.9982 15.7639 18.3559 15.0141 18.4019 14.5259C18.4165 14.4269 18.4219 14.3341 18.4219 14.2481C18.4219 13.5873 18.0581 13.258 17.3336 13.258C16.9659 13.258 16.5738 13.3363 16.1539 13.4875C16.9061 11.1689 18.352 10.0077 20.4903 10C20.5502 10 20.6092 10 20.6699 10Z" fill="#1A1A1A"/>
</g>
<defs>
<clipPath id="clip0_7509_14053">
<rect width="32" height="32" fill="white"/>
</clipPath>
</defs>
</svg>