<?xml version="1.0" encoding="utf-8"?>
<!-- Generator: Adobe Illustrator 28.1.0, SVG Export Plug-In . SVG Version: 6.00 Build 0)  -->
<svg version="1.1" id="Layer_1" xmlns="http://www.w3.org/2000/svg" xmlns:xlink="http://www.w3.org/1999/xlink" x="0px" y="0px"
	 viewBox="0 0 480 480" style="enable-background:new 0 0 480 480;" xml:space="preserve">
<style type="text/css">
	.st0{fill:#FFFFFF;}
</style>
<circle cx="240" cy="240" r="190"/>
<g>
	<path class="st0" d="M146.2,191.6v130.7h36v-86.5h115.4v86.5h36V191.6L240,150.3L146.2,191.6z M207.5,205.1h-18v18h-7.2v-25.2h25.3
		v7.2H207.5z M268.8,197.9h25.3v7.2h-18v18h-7.2L268.8,197.9L268.8,197.9z M250.8,205.1h-18v18h-7.2v-25.2h25.3v7.2H250.8z"/>
	<path class="st0" d="M189.5,322.3h101V243h-101V322.3z M202.1,254h75.7v7.2h-75.7L202.1,254L202.1,254z M202.1,270.7h75.7v7.2
		h-75.7L202.1,270.7L202.1,270.7z M202.1,287.4h75.7v7.2h-75.7L202.1,287.4L202.1,287.4z M202.1,304h75.7v7.2h-75.7L202.1,304
		L202.1,304z"/>
	<path class="st0" d="M240,30C124,30,30,124,30,240s94,210,210,210s210-94,210-210S356,30,240,30z M364.4,329.5H341h-43.3H182.3H139
		h-23.4v-7.2H139V194.8l-16.6,7.3l-2.9-6.6L240,142.4l1.5,0.7l119,52.5l-2.9,6.6l-16.6-7.3v127.5h23.4V329.5z M368.7,186.1
		L240,127.3l-128.7,58.8l-3-6.6L240,119.4l131.7,60.2L368.7,186.1z"/>
</g>
</svg>
