<?xml version="1.0" encoding="utf-8"?>
<!-- Generator: Adobe Illustrator 28.1.0, SVG Export Plug-In . SVG Version: 6.00 Build 0)  -->
<svg version="1.1" id="Layer_1" xmlns="http://www.w3.org/2000/svg" xmlns:xlink="http://www.w3.org/1999/xlink" x="0px" y="0px"
	 viewBox="0 0 480 480" style="enable-background:new 0 0 480 480;" xml:space="preserve">
<style type="text/css">
	.st0{fill:#FFFFFF;}
</style>
<circle cx="240" cy="240" r="190"/>
<g>
	<path class="st0" d="M179.9,258.7c-4.9-6.6-10-13.3-13.5-21.1c-3.6,7.8-8.6,14.5-13.5,21.1c-7.4,9.9-14.4,19.3-14.4,30.7
		c0,15.4,12.5,28,28,28s28-12.6,28-28C194.3,278,187.3,268.6,179.9,258.7z"/>
	<path class="st0" d="M240,30C124,30,30,124,30,240s94,210,210,210s210-94,210-210S356,30,240,30z M338.4,207.3h10.3v7.2h-10.3
		V207.3z M324.5,190.3h7.2v10.3h-7.2V190.3z M324.5,221.1h7.2v10.3h-7.2V221.1z M307.6,207.3h10.3v7.2h-10.3V207.3z M235.3,147
		c7-9.3,14.2-19,16.2-31.1c0.4-2.1,2.2-3.6,4.3-3.6c2.1,0,3.9,1.5,4.3,3.6c2,12.1,9.2,21.8,16.2,31.1c7.9,10.6,16.2,21.6,16.2,35.9
		c0,20.2-16.5,36.7-36.7,36.7s-36.7-16.5-36.7-36.7C219.1,168.7,227.3,157.7,235.3,147z M282,280.1v7.2h-10.3v-7.2H282z
		 M257.8,273.5v-10.3h7.2v10.3H257.8z M265.1,294v10.3h-7.2V294H265.1z M251.2,280.1v7.2h-10.3v-7.2H251.2z M160.3,185.7h10.3v7.2
		h-10.3V185.7z M146.4,168.8h7.2V179h-7.2V168.8z M146.4,199.6h7.2v10.3h-7.2V199.6z M129.5,185.7h10.3v7.2h-10.3V185.7z
		 M129.7,289.4c0-14.2,8.2-25.2,16.2-35.9c7-9.3,14.2-19,16.2-31.1c0.4-2.1,2.2-3.6,4.3-3.6s3.9,1.5,4.3,3.6
		c2,12.1,9.2,21.8,16.2,31.1c7.9,10.6,16.2,21.6,16.2,35.9c0,20.2-16.5,36.7-36.7,36.7S129.7,309.6,129.7,289.4z M328.1,351.7H169
		v-7.6h159.1V351.7z M359.4,333.3H200.3v-7.6h159.1L359.4,333.3L359.4,333.3z"/>
	<path class="st0" d="M255.8,210.9c15.4,0,28-12.6,28-28c0-11.3-7-20.7-14.4-30.7c-4.9-6.6-10-13.3-13.5-21.1
		c-3.6,7.8-8.6,14.5-13.5,21.1c-7.4,9.9-14.4,19.3-14.4,30.7C227.8,198.3,240.4,210.9,255.8,210.9z M259.4,191.2
		c3.4,0,6.2-2.8,6.2-6.2c0-2,1.6-3.6,3.6-3.6s3.6,1.6,3.6,3.6c0,7.4-6,13.4-13.4,13.4c-2,0-3.6-1.6-3.6-3.6
		C255.8,192.8,257.4,191.2,259.4,191.2z"/>
</g>
</svg>
