<!-- Generated by IcoMoon.io -->
<svg version="1.1" xmlns="http://www.w3.org/2000/svg" viewBox="0 0 1052 1024">
<title></title>
<g id="icomoon-ignore">
</g>
<path d="M718.588 1023.691l-7.050-9.82-123.122-195.132c-5.344-8.391-8.516-18.617-8.516-29.584s3.173-21.193 8.651-29.811l-0.134 0.226 129.164-204.699 22.66 6.043v94.67h83.592l-131.682-226.604 231.64-133.697 100.713 174.485c17.213 29.45 27.376 64.839 27.376 102.601s-10.163 73.151-27.903 103.581l0.527-0.979-120.604 210.742c-13.256 22.268-37.107 37.015-64.421 37.264h-98.735v93.663zM710.782 622.098l-96.936 153.587c-2.45 3.816-3.906 8.473-3.906 13.47s1.456 9.655 3.967 13.571l-0.060-0.101 96.936 153.839v-63.701h127.402c0.086 0.001 0.189 0.001 0.291 0.001 16.275 0 30.488-8.823 38.119-21.947l0.113-0.21 122.366-212.001c14.621-25.128 23.251-55.303 23.251-87.494s-8.63-62.366-23.703-88.339l0.452 0.844-85.858-148.048-179.521 103.483 142.509 246.495h-165.421zM881.239 685.547h-30.969v-29.962h30.969c56.148 0 125.891-13.344 141.754-75.535l29.207 7.050c-15.862 64.205-75.031 98.447-170.96 98.447zM414.686 411.104l-231.388-133.697 100.713-174.485c36.287-61.625 102.253-102.356 177.741-102.476h244.75c27.35 0.249 51.2 14.996 64.265 36.917l0.191 0.346 48.594 84.095 81.326-46.832 17.373 15.611-5.036 11.078-107.511 203.944c-9.428 17.664-27.737 29.48-48.806 29.48-0.545 0-1.089-0.008-1.63-0.024l0.079 0.002-241.963-9.568-6.043-22.66 10.071-6.546 71.506-41.292-42.551-72.262zM224.087 266.077l179.521 103.483 142.509-246.747 82.836 143.264-54.889 31.725 181.535 7.302c0.313 0.014 0.68 0.022 1.048 0.022 9.683 0 18.089-5.466 22.301-13.48l0.066-0.138 84.599-160.889-54.889 31.725-63.701-110.281c-7.902-13.309-22.179-22.103-38.515-22.157h-244.741c-64.197 0.48-120.176 35.207-150.621 86.798l-0.449 0.822zM533.276 159.321l-15.359-25.178c-40.789-70.751-86.613-99.454-135.711-84.851l-8.561-28.955c44.314-12.841 109.777-6.043 170.205 98.699l15.611 26.689zM534.283 922.475h-201.426c-75.566-0.12-141.565-40.966-177.233-101.759l-0.525-0.968-122.366-211.749c-6.362-10.834-10.12-23.862-10.12-37.767s3.758-26.934 10.313-38.124l-0.193 0.356 48.846-84.347-81.578-45.824 5.036-22.912h12.086l230.381-9.064c0.373-0.009 0.811-0.014 1.251-0.014 21.151 0 39.546 11.801 48.959 29.179l0.146 0.294 113.554 212.756-16.114 16.869-10.827-5.539-71.758-41.292-41.796 72.262h263.113zM67.226 406.32l56.148 31.725-63.701 110.533c-3.685 6.368-5.86 14.008-5.86 22.157s2.175 15.789 5.975 22.373l-0.115-0.216 122.366 212.001c30.894 52.413 86.873 87.141 151.001 87.62h171.533v-207.469h-285.522l82.836-143.264 54.889 31.725-84.599-160.889c-4.319-8.016-12.654-13.372-22.239-13.372-0.414 0-0.826 0.010-1.235 0.030l0.058-0.002zM216.281 886.218c-33.235-31.976-60.176-91.901 0-196.894l15.611-26.437 25.178 14.855-15.359 26.941c-41.041 70.499-42.803 124.381-5.539 159.882z"></path>
</svg>
