<!-- Generated by IcoMoon.io -->
<svg version="1.1" xmlns="http://www.w3.org/2000/svg" viewBox="0 0 829 1024">
<title></title>
<g id="icomoon-ignore">
</g>
<path d="M82.802 414.443h41.401v29.152h-41.401v-29.152zM207.25 414.443h41.401v29.152h-41.401v-29.152zM331.698 414.443h41.401v29.152h-41.401v-29.152zM455.9 414.443h41.401v29.152h-41.401v-29.152zM580.348 414.443h41.401v29.152h-41.401v-29.152zM704.551 414.443h41.401v29.152h-41.401v-29.152zM82.802 580.291h41.401v29.152h-41.401v-29.152zM207.25 580.291h41.401v29.152h-41.401v-29.152zM331.698 580.291h41.401v29.152h-41.401v-29.152zM455.9 580.291h41.401v29.152h-41.401v-29.152zM580.348 580.291h41.401v29.152h-41.401v-29.152zM704.551 580.291h41.401v29.152h-41.401v-29.152zM0 497.244h165.849v29.152h-165.849v-29.152zM220.968 497.244h165.849v29.152h-165.849v-29.152zM442.182 497.244h165.849v29.152h-165.849v-29.152zM663.15 497.244h165.849v29.152h-165.849v-29.152zM414.255 361.038c-67.648 0-122.488-54.84-122.488-122.488v0c0-47.77 27.682-84.762 54.385-120.773 25.512-28.829 44.496-64.036 54.267-102.901l0.363-1.703c1.107-6.978 7.080-12.25 14.285-12.25 0.059 0 0.119 0 0.178 0.001h-0.009c7.173 0.039 13.106 5.296 14.198 12.167l0.011 0.082c10.134 40.569 29.118 75.776 54.857 104.866l-0.227-0.262c26.702 36.011 54.385 73.493 54.385 120.773 0 0.004 0 0.008 0 0.012 0 67.648-54.84 122.488-122.488 122.488-0.603 0-1.205-0.004-1.806-0.013l0.091 0.001zM414.255 63.392c-13.887 27.058-29.024 50.335-46.223 71.896l0.657-0.853c-24.498 33.317-48.995 64.919-48.995 103.135 2.628 49.98 43.794 89.511 94.193 89.511s91.565-39.531 94.184-89.277l0.010-0.233c0-38.216-24.498-69.818-48.995-103.135-16.297-20.67-31.129-43.963-43.519-68.692l-1.067-2.351zM413.030 291.954c-8.118 0-14.699-6.581-14.699-14.699s6.581-14.699 14.699-14.699v0c13.53 0 24.498-10.968 24.498-24.498v0c0-8.118 6.581-14.699 14.699-14.699v0c0.001 0 0.001 0 0.002 0 7.982 0 14.454 6.471 14.454 14.454 0 0.086-0.001 0.172-0.002 0.258v-0.013c-0.272 29.569-24.101 53.484-53.611 53.894h-0.039zM414.255 1023.943c-67.648 0-122.488-54.84-122.488-122.488v0c0-47.77 27.682-84.762 54.385-120.773 25.579-28.794 44.576-64.016 54.274-102.918l0.356-1.687c1.211-6.861 7.127-12.005 14.245-12.005 0.073 0 0.147 0.001 0.22 0.002h-0.011c0.051-0.001 0.111-0.001 0.172-0.001 7.069 0 12.933 5.163 14.026 11.923l0.011 0.082c10.053 40.588 29.050 75.81 54.848 104.856l-0.219-0.251c26.702 36.011 54.385 73.493 54.385 120.773 0 0.004 0 0.008 0 0.012 0 67.648-54.84 122.488-122.488 122.488-0.603 0-1.205-0.004-1.806-0.013l0.091 0.001zM414.255 726.542c-13.887 27.058-29.024 50.335-46.223 71.896l0.657-0.853c-24.498 33.317-48.995 64.919-48.995 103.135 2.628 49.98 43.794 89.511 94.193 89.511s91.565-39.531 94.184-89.277l0.010-0.233c0-38.216-24.498-69.818-48.995-103.135-16.297-20.67-31.129-43.963-43.519-68.692l-1.067-2.351zM621.749 775.292h41.401v29.152h-41.401v-29.152zM745.952 775.292h41.401v29.152h-41.401v-29.152zM690.098 831.392h29.152v41.401h-29.152v-41.401zM690.098 706.944h29.152v41.401h-29.152v-41.401zM61.489 837.516h41.401v29.152h-41.401v-29.152zM185.937 837.516h41.401v29.152h-41.401v-29.152zM129.837 893.616h29.152v41.401h-29.152v-41.401zM129.837 769.168h29.152v41.401h-29.152v-41.401z"></path>
</svg>
