<?xml version="1.0" encoding="utf-8"?>
<!-- Generator: Adobe Illustrator 28.1.0, SVG Export Plug-In . SVG Version: 6.00 Build 0)  -->
<svg version="1.1" id="Layer_1" xmlns="http://www.w3.org/2000/svg" xmlns:xlink="http://www.w3.org/1999/xlink" x="0px" y="0px"
	 viewBox="0 0 480 480" style="enable-background:new 0 0 480 480;" xml:space="preserve">
<style type="text/css">
	.st0{fill:#FFFFFF;}
</style>
<circle cx="240" cy="240" r="190"/>
<g>
	<path class="st0" d="M274,161.4c1,0,1.9,0.4,2.6,1.1c0.7,0.7,1.1,1.6,1.1,2.6s-0.4,1.9-1.1,2.6l-26.7,26.7h1.2
		c22.5-0.5,34.4-7.8,40.5-13.8c13.7-13.7,14.2-37,13.8-46.3v-0.5h-0.5c-1.3-0.1-2.7-0.1-4-0.1c-10.6,0-30.3,1.8-42.3,13.8
		c-11.6,11.6-13.7,30.3-13.8,40.5v1.2l26.7-26.7C272.1,161.7,273,161.4,274,161.4z"/>
	<path class="st0" d="M222.8,178.8c-12.4-12.3-32.5-14.2-43.4-14.2c-1.4,0-2.8,0-4.2,0.1h-0.5v0.5c-0.4,9.6,0,33.5,14.1,47.6
		c6.3,6.3,18.6,13.8,41.7,14.2h1.2l-36.6-36.6c-1.4-1.4-1.4-3.8,0-5.2c0.7-0.7,1.6-1.1,2.6-1.1s1.9,0.4,2.6,1.1l36.6,36.6v-1.2
		C236.8,210,234.7,190.7,222.8,178.8z"/>
	<path class="st0" d="M240,30C124,30,30,124,30,240s94,210,210,210s210-94,210-210S356,30,240,30z M219.7,367.7
		c-10.5-5.9-15.8-10.8-19.7-14.5c-1.9-1.8-3.5-3.2-5-4.2c-0.5-0.3-1.3-0.7-2.4-0.7c-0.9,0-1.9,0.3-2.9,0.8
		c-4.4,2.5-8.3,9.5-8.5,15.4h-6.7c-0.3-5.6-4.9-10.1-10.5-10.1c-3.6,0-7,1.9-8.9,4.9c-3.5,5.6-9.2,8.9-15.2,8.9H114v-6.7h25.9
		c3.7,0,7.2-2.1,9.5-5.8c3.2-5.1,8.6-8.1,14.6-8.1c4.8,0,9.5,2.1,12.7,5.7l0.5,0.5l0.3-0.6c2.2-4.4,5.5-8.1,8.9-10
		c2-1.1,4.1-1.7,6.1-1.7c2.1,0,4,0.6,5.9,1.7c2.2,1.3,4,3,6.1,5c3.6,3.4,8.6,8,18.4,13.5L219.7,367.7z M244.3,326H237v-35
		l-16.4,22.9l16.2,37.7l-6.4,2.8L212.5,313l24.4-34v-44.8h-0.5c-1.5,0.1-3,0.1-4.5,0.1c-11.9,0-34-2.1-48.3-16.4
		c-20.1-20.1-16.1-55.6-16-57.1l0.3-2.9l2.9-0.3c0.4,0,3.7-0.4,8.8-0.4c11.9,0,34,2.1,48.3,16.4c3.3,3.3,6.2,7.2,8.5,11.8l0.9,1.7
		l0.1-1.9c0.6-12.9,3.8-30.7,15.9-42.9c13.9-13.9,35.6-16,47.2-16c4.7,0,8,0.3,8.6,0.4l2.9,0.3l0.3,2.9c0.2,1.5,4,36.2-15.6,55.8
		c-13.9,13.9-35.6,16-47.2,16c-1.6,0-3.2,0-4.7-0.1h-0.5v17.3c0.1,2,0.1,3.9,0,5.9v70.4l23.4,18.8l-2.9,24.9l-7-0.8l2.4-21.1
		l-16-12.9V326H244.3z M366,368.3h-25.9c-6,0-11.7-3.3-15.2-8.9c-1.9-3.1-5.3-4.9-8.9-4.9c-5.7,0-10.3,4.5-10.5,10.1h-6.7
		c-0.2-5.8-4.1-12.9-8.5-15.4c-1-0.6-1.9-0.8-2.8-0.8c-1.1,0-1.9,0.4-2.4,0.7c-1.6,1-3.1,2.4-5,4.2c-3.9,3.6-9.2,8.6-19.7,14.5
		l-3.3-5.8c9.8-5.5,14.7-10.1,18.4-13.5c2-1.9,3.9-3.7,6.1-5c1.9-1.1,3.8-1.7,5.9-1.7s4.1,0.6,6.1,1.7c3.4,1.9,6.7,5.6,8.9,10
		l0.3,0.6l0.5-0.5c3.3-3.6,7.9-5.7,12.7-5.7c6,0,11.4,3,14.6,8.1c2.3,3.7,5.8,5.8,9.5,5.8H366V368.3z"/>
</g>
</svg>
