<?xml version="1.0" encoding="UTF-8"?>
<svg id="Layer_1" data-name="Layer 1" xmlns="http://www.w3.org/2000/svg" viewBox="0 0 100 80">
  <defs>
    <style>
      .cls-1 {
        fill: #1d1d1b;
      }
    </style>
  </defs>
  <path class="cls-1" d="M33.61,20.95h33.64c.54,3.97,3.92,7.06,8.05,7.06,4.5,0,8.15-3.66,8.15-8.16s-3.66-8.16-8.15-8.16c-4.12,0-7.5,3.08-8.05,7.06h-33.64c-6.3,0-11.42,5.12-11.42,11.42v.79c0,6.3,5.12,11.42,11.42,11.42h31.36c5.09,0,9.22,4.14,9.22,9.22s-4.14,9.22-9.22,9.22h-14.77v2.2h14.77c6.3,0,11.42-5.12,11.42-11.42s-5.12-11.42-11.42-11.42h-31.36c-5.09,0-9.22-4.14-9.22-9.22v-.79c0-5.09,4.14-9.22,9.22-9.22ZM75.3,13.89c3.28,0,5.96,2.67,5.96,5.96s-2.67,5.96-5.96,5.96-5.96-2.67-5.96-5.96,2.67-5.96,5.96-5.96Z"/>
  <path class="cls-1" d="M25.71,53.77c-4.5,0-8.16,3.66-8.16,8.16s3.66,8.16,8.16,8.16c4.12,0,7.5-3.08,8.05-7.06h12.16v-2.2h-12.16c-.54-3.97-3.92-7.06-8.05-7.06ZM25.71,67.88c-3.28,0-5.96-2.67-5.96-5.96s2.67-5.96,5.96-5.96,5.96,2.67,5.96,5.96-2.67,5.96-5.96,5.96Z"/>
</svg>