<?xml version="1.0" encoding="UTF-8"?>
<svg id="Layer_2" data-name="Layer 2" xmlns="http://www.w3.org/2000/svg" viewBox="0 0 100 82.07">
  <defs>
    <style>
      .cls-1 {
        fill: #4b4b4b;
        stroke-width: 0px;
      }
    </style>
  </defs>
  <g id="Layer_1-2" data-name="Layer 1">
    <g>
      <g>
        <path class="cls-1" d="M91.68,82.07H8.4c-4.65,0-8.4-3.78-8.4-8.4V8.43C0,3.78,3.78.04,8.4.04c1.7,0,3.33.49,4.69,1.44l.64.45v68.8l-2.31-1.55c-.91-.61-1.97-.95-3.06-.95-3.03,0-5.48,2.46-5.48,5.48s2.46,5.48,5.48,5.48h83.28c3.03,0,5.48-2.46,5.48-5.48s-2.46-5.48-5.48-5.48c-1.1,0-2.16.34-3.06.95l-2.31,1.55V1.89l.64-.45c1.4-.95,3.03-1.44,4.69-1.44,4.65,0,8.4,3.78,8.4,8.4v65.24c.08,4.65-3.67,8.43-8.32,8.43ZM91.68,65.24c2.08,0,4.01.76,5.48,2.04V8.43c0-3.03-2.46-5.48-5.48-5.48-.83,0-1.66.19-2.42.57v62.06c.79-.23,1.59-.34,2.42-.34ZM8.4,2.95c-3.03,0-5.48,2.46-5.48,5.48v58.85c2.04-1.78,5.14-2.5,7.87-1.66V3.52c-.72-.38-1.55-.57-2.38-.57Z"/>
        <rect class="cls-1" x="16.68" y="7.98" width="66.68" height="2.95"/>
      </g>
      <g>
        <polygon class="cls-1" points="50.04 67.06 23.6 67.06 23.6 22.47 51.51 22.47 51.51 34.95 58.58 34.95 58.58 37.9 48.56 37.9 48.56 25.42 26.51 25.42 26.51 64.11 50.04 64.11 50.04 67.06"/>
        <polygon class="cls-1" points="76.47 67.06 48.56 67.06 48.56 45.39 51.51 45.39 51.51 64.11 73.56 64.11 73.56 37.9 66.68 37.9 66.68 34.95 76.47 34.95 76.47 67.06"/>
        <rect class="cls-1" x="50.23" y="54.88" width="6.24" height="2.95"/>
        <polygon class="cls-1" points="41.72 53.97 25.08 53.97 25.08 51.02 38.77 51.02 38.77 38.27 41.72 38.27 41.72 53.97"/>
        <rect class="cls-1" x="58.58" y="45.23" width="16.41" height="2.95"/>
      </g>
    </g>
  </g>
</svg>