<?xml version="1.0" encoding="utf-8"?>
<!-- Generator: Adobe Illustrator 28.1.0, SVG Export Plug-In . SVG Version: 6.00 Build 0)  -->
<svg version="1.1" id="Layer_1" width="32" height="32" xmlns="http://www.w3.org/2000/svg" xmlns:xlink="http://www.w3.org/1999/xlink" x="0px" y="0px"
	 viewBox="0 0 32 32" style="enable-background:new 0 0 32 32;" xml:space="preserve">
<style type="text/css">
	.st0{fill:#FFFFFF;}
	.st1{fill:#1A1A1A;}
</style>
<g>
	<circle class="st0" cx="16" cy="16" r="16"/>
	<path class="st1" d="M16,10.2c0,0-5.1,0-6.4,0.3c-0.7,0.2-1.3,0.8-1.4,1.5c-0.3,1.3-0.3,3.9-0.3,3.9s0,2.7,0.3,3.9
		c0.2,0.7,0.7,1.3,1.4,1.4c1.3,0.3,6.4,0.3,6.4,0.3s5.1,0,6.4-0.3c0.7-0.2,1.3-0.7,1.4-1.4c0.3-1.3,0.3-3.9,0.3-3.9s0-2.7-0.3-4
		c-0.2-0.7-0.7-1.3-1.4-1.4C21.2,10.2,16,10.2,16,10.2L16,10.2z M14.4,13.5l4.3,2.5l-4.3,2.4L14.4,13.5L14.4,13.5z"/>
</g>
</svg>
